ply
format ascii 1.0
element vertex 67
comment vertices
property float x
property float y
property float z
end_header
0.191051393747329712 1.3540036678314209 -1.11933732032775879
0.267401933670043945 3.08080863952636719 -1.14262950420379639
-1.09712648391723633 2.4453587532043457 -1.09047067165374756
0.93339008092880249 2.31300997734069824 -1.11113262176513672
-0.186787500977516174 2.22712302207946777 -1.2117687463760376
-0.310948997735977173 3.78284144401550293 -1.13052821159362793
0.414687544107437134 1.86932241916656494 -1.14104926586151123
-0.752282679080963135 2.78237032890319824 -1.14931213855743408
0.992421627044677734 2.73135852813720703 -1.08918046951293945
-0.205582469701766968 2.75419855117797852 -1.16007864475250244
0.504233121871948242 2.55646085739135742 -1.19026410579681396
0.711939573287963867 3.4888756275177002 -1.09361696243286133
-0.842870593070983887 2.21115612983703613 -1.16284120082855225
0.667078793048858643 2.18896150588989258 -1.10506546497344971
-0.243771404027938843 3.31770181655883789 -1.18437051773071289
-0.16350284218788147 1.83242440223693848 -1.17982923984527588
1.13141751289367676 2.65880274772644043 -1.0826791524887085
0.769985020160675049 3.37956643104553223 -1.1226423978805542
0.0754723027348518372 2.4838709831237793 -1.15402889251708984
-0.567208468914031982 1.97682929039001465 -1.17953574657440186
0.237818136811256409 1.39751756191253662 -1.09969830513000488
-0.3381233811378479 3.8574070930480957 -1.09952938556671143
0.121448799967765808 2.77163529396057129 -1.17355918884277344
0.613237380981445312 3.54100775718688965 -1.14017665386199951
-0.38189360499382019 2.50666999816894531 -1.16097712516784668
1.11953961849212646 2.63748002052307129 -1.05656576156616211
0.705460488796234131 2.14087700843811035 -1.09851634502410889
-0.0475136153399944305 2.95078778266906738 -1.1536942720413208
0.10917980968952179 3.20127153396606445 -1.1381375789642334
-1.05946922302246094 2.40512299537658691 -1.10447454452514648
0.75539708137512207 3.54372668266296387 -1.12547779083251953
0.768505334854125977 3.46249270439147949 -1.13236606121063232
0.621642231941223145 3.08899235725402832 -1.08026134967803955
1.14067339897155762 2.63488554954528809 -1.09839248657226562
-0.806541800498962402 2.5661780834197998 -1.15651512145996094
0.70261991024017334 2.1918482780456543 -1.11779844760894775
0.644106388092041016 2.21609377861022949 -1.10927975177764893
-0.47647327184677124 2.69693779945373535 -1.14272427558898926
-0.327138274908065796 2.02832961082458496 -1.19098329544067383
-0.114413216710090637 2.41338253021240234 -1.20204222202301025
0.434446811676025391 3.16278266906738281 -1.0826113224029541
-0.0289181172847747803 2.19879007339477539 -1.18493974208831787
0.112757086753845215 2.64702391624450684 -1.19760239124298096
-1.09232699871063232 2.46520352363586426 -1.10483884811401367
0.810647547245025635 3.41936922073364258 -1.12065243721008301
0.141026809811592102 2.00454998016357422 -1.15318572521209717
-0.442852139472961426 2.1914670467376709 -1.17120587825775146
0.660407364368438721 2.20442771911621094 -1.09777772426605225
-0.0290732979774475098 2.61768174171447754 -1.17388927936553955
1.11541056632995605 2.64208722114562988 -1.10486435890197754
-0.144764840602874756 3.17305493354797363 -1.17731475830078125
1.12522804737091064 2.64519524574279785 -1.08385598659515381
-0.531698405742645264 2.38080978393554688 -1.16313278675079346
0.414785385131835938 3.28038406372070312 -1.13539671897888184
-0.719968438148498535 2.35319399833679199 -1.14765417575836182
0.161799609661102295 1.44494330883026123 -1.159324049949646
0.88412010669708252 2.86390209197998047 -1.135162353515625
0.292812645435333252 2.81433677673339844 -1.16292130947113037
-1.07955622673034668 2.45773863792419434 -1.1123359203338623
-0.270185291767120361 2.61627197265625 -1.15152788162231445
-0.0556193552911281586 1.95083796977996826 -1.16636228561401367
0.235068291425704956 1.35979342460632324 -1.09687411785125732
0.0152791272848844528 2.81480836868286133 -1.1715080738067627
-0.338323146104812622 2.34456014633178711 -1.1533958911895752
1.12109076976776123 2.65382719039916992 -1.09456026554107666
0.690770506858825684 3.1675422191619873 -1.1108783483505249
0.751082003116607666 2.64332175254821777 -1.09725666046142578
