ply
format ascii 1.0
element vertex 256
comment vertices
property float x
property float y
property float z
end_header
-1.75576412677764893 3.5860750675201416 -0.480505853891372681
1.99938201904296875 3.70450448989868164 -1.27667737007141113
0.136066704988479614 1.18146038055419922 -1.03633618354797363
0.0654542893171310425 5.12952470779418945 -0.921546995639801025
0.0944605916738510132 3.19125604629516602 -1.1304481029510498
-1.2113497257232666 2.16600632667541504 -1.13772451877593994
1.11723423004150391 4.13355922698974609 -0.0857712328433990479
-1.2854304313659668 4.69649600982666016 -1.49367904663085938
1.16345739364624023 2.15262389183044434 -1.60105669498443604
-0.954519748687744141 4.89155340194702148 -0.27956196665763855
0.94550633430480957 4.20174074172973633 -1.21390974521636963
-0.211982846260070801 2.20005559921264648 -1.10772275924682617
-0.363273382186889648 3.98660564422607422 -1.31821608543395996
-1.55356705188751221 3.63190197944641113 -1.39277040958404541
-0.840501964092254639 1.32904171943664551 -1.11011910438537598
0.944368124008178711 2.93010711669921875 -1.18801522254943848
-1.82707512378692627 2.80372142791748047 -1.07440948486328125
-0.72708737850189209 5.34178924560546875 -1.20409941673278809
0.475546598434448242 4.64568424224853516 -0.311401009559631348
-1.23164808750152588 4.23838949203491211 -0.733671307563781738
0.633385360240936279 1.99334001541137695 -1.00091791152954102
-0.668946266174316406 2.87320113182067871 -1.11094224452972412
1.69361162185668945 3.76798844337463379 -0.511887669563293457
0.423176079988479614 4.66421842575073242 -1.47347617149353027
0.364782035350799561 2.48970341682434082 -1.44410812854766846
1.7247920036315918 3.34994888305664062 -1.82216453552246094
0.668222367763519287 3.55132365226745605 -1.15885424613952637
-0.306242942810058594 4.96567821502685547 -1.57457542419433594
-0.447614818811416626 5.27738285064697266 -0.381294846534729004
-1.06531834602355957 4.8385319709777832 -0.935760021209716797
1.44300830364227295 3.87512755393981934 -1.46196627616882324
1.2105412483215332 4.08608341217041016 -0.691374063491821289
-0.327833056449890137 1.61321437358856201 -1.0522083044052124
1.49041712284088135 2.84734106063842773 -1.33490312099456787
1.04232370853424072 2.38749313354492188 -0.992193818092346191
-0.464033246040344238 4.93151044845581055 -0.870673179626464844
-1.3081669807434082 4.11784124374389648 -1.28840863704681396
0.514933586120605469 4.63732433319091797 -0.929133474826812744
0.0208854377269744873 4.70585298538208008 -0.590548157691955566
-1.80558764934539795 3.36037135124206543 -1.01754391193389893
-0.0608348548412322998 2.6971282958984375 -1.14267992973327637
0.681316018104553223 2.00014805793762207 -1.52091109752655029
-0.799780428409576416 1.82674086093902588 -1.00769448280334473
0.25649145245552063 1.66101253032684326 -1.15881681442260742
-0.741911709308624268 2.37484622001647949 -1.12219130992889404
1.58042538166046143 3.65851664543151855 -0.0391641855239868164
-1.38863468170166016 4.11769580841064453 -0.278870999813079834
-0.144820064306259155 4.5561833381652832 -1.35439074039459229
0.834740996360778809 4.38436603546142578 -0.611478447914123535
-1.51716482639312744 3.87843680381774902 -0.864930331707000732
-0.127006992697715759 3.6105344295501709 -1.16544842720031738
1.58093869686126709 3.30140519142150879 -1.36674618721008301
0.570627212524414062 2.53716087341308594 -1.04873538017272949
0.0809856206178665161 4.96157217025756836 -1.35453343391418457
-1.13190329074859619 4.49941444396972656 -0.349711596965789795
1.62185084819793701 3.98168802261352539 -1.08376002311706543
-0.844595670700073242 5.13065385818481445 -0.708895564079284668
0.430632352828979492 2.93983840942382812 -1.11189794540405273
1.10517144203186035 2.59025740623474121 -1.37479281425476074
-1.21359026432037354 2.57466602325439453 -1.07279789447784424
-0.314203917980194092 3.24759507179260254 -1.13463020324707031
1.40238189697265625 4.2461094856262207 -1.31567490100860596
0.295441240072250366 2.17453980445861816 -1.10930848121643066
-0.443630009889602661 1.23268759250640869 -1.04708766937255859
1.44574654102325439 3.95639634132385254 -0.2552681565284729
-1.29080379009246826 4.46220636367797852 -1.10489177703857422
0.76322096586227417 2.37107968330383301 -1.60142910480499268
-1.54811155796051025 4.41192197799682617 -1.50008392333984375
-0.148552194237709045 5.15916299819946289 -0.605359673500061035
-1.41321730613708496 3.93864965438842773 -1.60904645919799805
0.776965320110321045 4.58085918426513672 -1.19606781005859375
-0.384958982467651367 5.21564435958862305 -1.13320779800415039
0.830325782299041748 4.35868406295776367 -0.140098243951797485
-0.545389652252197266 4.88687515258789062 -1.31101417541503906
0.349869251251220703 4.91782569885253906 -1.12144899368286133
-0.427346467971801758 2.61234140396118164 -1.14292824268341064
1.78283417224884033 3.71401572227478027 -0.910971343517303467
1.80687057971954346 3.63485527038574219 -1.56713962554931641
0.226031839847564697 3.59800434112548828 -1.19795668125152588
-0.557165682315826416 3.70142841339111328 -1.24421548843383789
0.71323627233505249 3.20262408256530762 -1.13112473487854004
-1.8802415132522583 3.26806974411010742 -0.550075352191925049
-0.550604581832885742 2.03495192527770996 -1.12877249717712402
0.3402080237865448 4.83409881591796875 -0.576394081115722656
-0.902987658977508545 4.63351774215698242 -0.712763786315917969
-1.69556832313537598 3.8255312442779541 -0.24776187539100647
1.19195842742919922 2.7328946590423584 -1.06856095790863037
0.591237902641296387 2.28060054779052734 -1.26711952686309814
-1.111244797706604 1.82247650623321533 -1.12142086029052734
-1.76659870147705078 3.68824124336242676 -1.04213988780975342
-0.768922924995422363 5.20242881774902344 -0.375630497932434082
-1.55072581768035889 3.90037417411804199 -1.19127798080444336
-1.9279102087020874 3.08688020706176758 -0.896798968315124512
-0.00432460475713014603 1.45627295970916748 -1.12548923492431641
1.45369493961334229 3.8239586353302002 -0.712810277938842773
0.941074669361114502 4.42474365234375 -0.9737091064453125
1.20004558563232422 2.81936931610107422 -1.57144856452941895
0.533648431301116943 4.5615239143371582 -0.623429000377655029
-0.742230117321014404 5.03031253814697266 -0.987984776496887207
0.789226055145263672 2.5378260612487793 -1.27301764488220215
1.12583577632904053 4.18933820724487305 -0.409413516521453857
1.55773591995239258 3.69404482841491699 -1.17360806465148926
-1.25122582912445068 4.3393254280090332 -1.53555548191070557
1.40437257289886475 2.53921937942504883 -1.42220568656921387
0.27796638011932373 2.52667140960693359 -1.14153599739074707
-1.54563271999359131 3.92205452919006348 -0.496885359287261963
0.190840110182762146 4.78939533233642578 -0.839912354946136475
-0.983273744583129883 5.17682504653930664 -1.19493293762207031
0.939201235771179199 3.3557279109954834 -1.26571512222290039
-1.08154070377349854 4.56542301177978516 -1.29844653606414795
-0.021084953099489212 1.98934388160705566 -1.00727081298828125
-1.16916584968566895 4.84745311737060547 -1.26564216613769531
-0.595246434211730957 1.49753737449645996 -0.996752321720123291
-0.558139324188232422 5.15683269500732422 -0.628455281257629395
-1.36903417110443115 4.11173677444458008 -0.970735847949981689
0.370308607816696167 2.19431829452514648 -1.44047749042510986
1.10766565799713135 2.4390256404876709 -1.63272464275360107
0.674905359745025635 4.44097042083740234 -0.373368352651596069
0.43500247597694397 3.3817133903503418 -1.15888237953186035
1.34198379516601562 3.14014530181884766 -1.36157858371734619
-0.707389593124389648 5.32220029830932617 -0.918571591377258301
-0.228211537003517151 5.14643287658691406 -0.905635595321655273
0.0200148969888687134 2.36111736297607422 -1.08488786220550537
-0.892268002033233643 2.13541769981384277 -1.13363373279571533
-0.108016781508922577 2.99466276168823242 -1.13687896728515625
-0.826474487781524658 2.6454322338104248 -1.13077044486999512
1.36924493312835693 3.91581034660339355 -0.995595753192901611
-0.39937281608581543 2.91214537620544434 -1.08136343955993652
0.406096220016479492 1.93424046039581299 -1.17540216445922852
0.263876497745513916 1.3445667028427124 -1.21356880664825439
0.561316192150115967 4.7600255012512207 -1.17718744277954102
0.944202780723571777 4.20393276214599609 -0.819550812244415283
0.17935614287853241 2.81543254852294922 -1.12436890602111816
-0.618099510669708252 4.79518890380859375 -1.03854632377624512
-0.200110688805580139 5.06256198883056641 -1.35328352451324463
-1.65850985050201416 3.74228262901306152 -0.669376730918884277
1.29367244243621826 4.0125117301940918 -1.26009273529052734
-1.00432729721069336 5.10136604309082031 -0.916304171085357666
-1.7968292236328125 3.18686175346374512 -1.211456298828125
0.595330178737640381 4.57606840133666992 -0.0915652811527252197
1.27385270595550537 3.97025322914123535 -0.447922885417938232
-0.117060199379920959 1.22569751739501953 -1.10726797580718994
-0.117526613175868988 4.92016410827636719 -0.694128513336181641
-0.114555761218070984 4.98722457885742188 -1.07167947292327881
-0.949851870536804199 4.97664165496826172 -0.534813523292541504
-1.0607985258102417 4.44420576095581055 -0.653951108455657959
1.31815636157989502 4.2438349723815918 -1.07674229145050049
-1.38058924674987793 4.04839944839477539 -0.640680432319641113
1.58483779430389404 3.6281735897064209 -1.4486088752746582
-1.69385206699371338 3.54272150993347168 -0.850553154945373535
-0.933227777481079102 1.55962085723876953 -1.07669878005981445
1.74521374702453613 3.84997463226318359 -1.25714421272277832
0.124990299344062805 4.9562220573425293 -0.603132545948028564
-1.066184401512146 4.54113578796386719 -0.881548702716827393
0.0280337631702423096 1.75065529346466064 -1.13130474090576172
-0.309921354055404663 1.85553550720214844 -1.09384560585021973
-1.20334458351135254 4.22707509994506836 -0.395941495895385742
-0.928210318088531494 4.56859254837036133 -0.466847896575927734
1.66710829734802246 3.83975362777709961 -0.281331658363342285
0.675808429718017578 4.41640806198120117 -0.790490269660949707
0.779859066009521484 2.13156294822692871 -1.25642621517181396
0.683904469013214111 2.7396087646484375 -1.11225330829620361
-1.0206151008605957 2.43317985534667969 -1.09651660919189453
0.924654603004455566 2.15323281288146973 -1.5748438835144043
-0.299992591142654419 3.83511757850646973 -1.14469456672668457
-0.552443504333496094 1.71454405784606934 -1.08162403106689453
-0.903689980506896973 4.90443849563598633 -0.753248810768127441
-0.357827067375183105 5.05354881286621094 -0.569142699241638184
0.743441343307495117 2.19588351249694824 -1.03617095947265625
0.947811722755432129 2.65165138244628906 -1.15129387378692627
-1.80282711982727051 3.36215305328369141 -0.76461338996887207
1.13970470428466797 2.89560651779174805 -1.29846334457397461
0.0577499866485595703 3.41425490379333496 -1.13892877101898193
0.651944935321807861 2.96105122566223145 -1.14822626113891602
1.25060772895812988 2.34790444374084473 -1.48496067523956299
1.7906038761138916 3.48893213272094727 -1.40008378028869629
1.83166134357452393 3.42407965660095215 -1.63294756412506104
1.0158766508102417 4.10954761505126953 -0.5880889892578125
-0.564205646514892578 5.17055082321166992 -0.992584347724914551
-1.43626689910888672 4.24139213562011719 -1.13562178611755371
1.10286045074462891 2.4948883056640625 -1.17786645889282227
1.21084332466125488 4.17215299606323242 -0.891741156578063965
-1.25298404693603516 4.73061132431030273 -0.958670377731323242
-0.506433725357055664 3.14663600921630859 -1.12196183204650879
0.722158551216125488 4.48958587646484375 -1.00712192058563232
-1.46246659755706787 4.12989139556884766 -1.44014465808868408
-1.1992870569229126 2.42422318458557129 -1.22765028476715088
-1.25869905948638916 4.46740531921386719 -0.734056591987609863
0.453854739665985107 3.16906595230102539 -1.14640617370605469
0.512680411338806152 4.56406688690185547 -1.24743366241455078
0.883014261722564697 4.29865598678588867 -0.421937495470046997
-1.35947740077972412 3.62645530700683594 -1.30495250225067139
-0.515308797359466553 2.41865396499633789 -1.13319897651672363
-1.45076203346252441 4.56396818161010742 -1.38791704177856445
1.34773826599121094 4.04408788681030273 -0.0884449183940887451
0.521017491817474365 2.05782175064086914 -1.30427455902099609
-0.599334001541137695 5.17622184753417969 -1.23751044273376465
-1.68102848529815674 3.62332892417907715 -1.224090576171875
-1.29804527759552002 4.6861724853515625 -1.23122143745422363
-0.263195902109146118 2.39945101737976074 -1.13382983207702637
-1.10499691963195801 4.65184688568115234 -1.1114962100982666
1.5845942497253418 3.09821438789367676 -1.33209562301635742
0.195822462439537048 2.29287838935852051 -1.39368593692779541
-0.108856707811355591 3.25434756278991699 -1.12344479560852051
0.970956981182098389 4.41852855682373047 -1.17654991149902344
-1.07523965835571289 4.65783500671386719 -0.577534258365631104
0.793176710605621338 4.39943170547485352 -1.2888408899307251
-1.05124521255493164 1.99037230014801025 -1.02506446838378906
-1.19061338901519775 4.0769805908203125 -0.847204446792602539
1.04594624042510986 4.23093652725219727 -0.991088151931762695
0.322342216968536377 4.82451200485229492 -1.40616154670715332
1.34743571281433105 2.6762230396270752 -1.55703985691070557
1.49380636215209961 4.00620079040527344 -1.25362145900726318
0.67195892333984375 4.62568759918212891 -1.35963499546051025
0.0859335437417030334 1.57464945316314697 -1.25664639472961426
-0.536491572856903076 5.00221967697143555 -1.14990949630737305
1.66217315196990967 3.70240020751953125 -0.754129648208618164
0.51539236307144165 2.24983668327331543 -1.08765935897827148
-0.205849111080169678 1.39262831211090088 -1.05532610416412354
-0.731788873672485352 2.04987835884094238 -1.05576908588409424
-0.348220854997634888 4.92894268035888672 -1.38711559772491455
1.01117396354675293 4.2931218147277832 -0.659851431846618652
-0.625867128372192383 1.2772831916809082 -1.09880411624908447
0.602789342403411865 2.16929388046264648 -1.46531140804290771
-1.54212856292724609 3.90068674087524414 -1.38540756702423096
1.43118023872375488 3.88269853591918945 -0.516917109489440918
0.491931706666946411 2.74965190887451172 -1.12638258934020996
-1.79035210609436035 3.66682004928588867 -0.296339094638824463
0.400243043899536133 2.40272855758666992 -1.06400203704833984
0.0413453280925750732 5.03310680389404297 -0.755127370357513428
-0.604843795299530029 2.663665771484375 -1.10394620895385742
-0.881450772285461426 4.80778980255126953 -0.485234975814819336
0.261855244636535645 1.48832833766937256 -1.08562386035919189
0.201152607798576355 4.71949291229248047 -0.525739789009094238
-1.18689501285552979 4.36589241027832031 -0.539991855621337891
1.33528590202331543 2.89470362663269043 -1.42228984832763672
-0.280127823352813721 2.7226555347442627 -1.14350283145904541
0.707642316818237305 2.35350155830383301 -1.12356448173522949
0.660469293594360352 3.36495161056518555 -1.1990959644317627
1.8713918924331665 3.81801724433898926 -1.03273117542266846
0.336939126253128052 5.06263446807861328 -1.23221707344055176
0.905162453651428223 2.47534275054931641 -1.55340933799743652
-0.465716034173965454 3.90758848190307617 -1.12574505805969238
-0.976021826267242432 4.99804449081420898 -1.16278886795043945
1.30077433586120605 3.93567323684692383 -0.643630445003509521
-0.764086484909057617 5.19027805328369141 -0.558859050273895264
-0.135198086500167847 1.68513607978820801 -1.09212541580200195
-1.59748721122741699 3.91890454292297363 -1.01945734024047852
-1.02971744537353516 5.07715320587158203 -0.741051793098449707
-0.435886144638061523 5.10763645172119141 -0.872538864612579346
0.386249661445617676 4.73448419570922852 -0.716610372066497803
1.43123602867126465 4.07751941680908203 -1.03555154800415039
0.434353232383728027 4.75050497055053711 -0.451713055372238159
-1.42563104629516602 3.79076409339904785 -1.30395495891571045
0.0449331998825073242 4.96197986602783203 -0.97521507740020752
1.6930309534072876 3.38500261306762695 -1.53021705150604248
