ply
format ascii 1.0
element vertex 84
comment vertices
property float x
property float y
property float z
end_header
0.105140998959541321 1.29747200012207031 -1.05304551124572754
-1.21917140483856201 2.45417094230651855 -1.15819203853607178
1.1693720817565918 2.09125781059265137 -1.57329118251800537
-0.356258630752563477 3.9304649829864502 -1.23796200752258301
-0.234543785452842712 2.14359736442565918 -1.02270734310150146
1.03313660621643066 2.82266855239868164 -1.177773118019104
0.66852039098739624 2.11962151527404785 -1.06585443019866943
-0.608249068260192871 2.91014337539672852 -1.07998955249786377
0.778376400470733643 3.46871137619018555 -1.18751370906829834
0.448625147342681885 2.45796990394592285 -1.36988615989685059
1.2841801643371582 2.58413600921630859 -1.31231331825256348
1.10684990882873535 2.53934431076049805 -1.09052705764770508
0.770490050315856934 2.12772130966186523 -1.58522415161132812
0.225685536861419678 1.49486374855041504 -1.12482988834381104
-0.188532769680023193 2.61547112464904785 -1.08857607841491699
-0.230763167142868042 3.504852294921875 -1.10198485851287842
1.06244254112243652 2.57820343971252441 -1.44163084030151367
-1.06219911575317383 2.54144191741943359 -1.10695004463195801
0.636263608932495117 2.74241113662719727 -1.03258419036865234
0.192623332142829895 3.64047861099243164 -1.14435529708862305
0.343705594539642334 2.04363155364990234 -1.05502355098724365
0.792457342147827148 3.41056609153747559 -1.23268437385559082
0.704749703407287598 3.37673377990722656 -1.13921773433685303
1.215157151222229 2.72393369674682617 -1.44365787506103516
-0.581925630569458008 2.34142851829528809 -1.07897722721099854
-0.220104575157165527 3.83531379699707031 -1.18222343921661377
0.163611650466918945 2.4695427417755127 -1.06145787239074707
0.704301238059997559 2.18687558174133301 -1.10027849674224854
-0.424169659614562988 3.78730440139770508 -1.22801411151885986
0.464121103286743164 2.20195221900939941 -1.34571778774261475
0.251925736665725708 2.78422737121582031 -1.1244657039642334
-1.16184532642364502 2.50809860229492188 -1.15702104568481445
1.13953649997711182 2.61108851432800293 -1.15189242362976074
0.0665605515241622925 1.7400585412979126 -0.943557798862457275
0.560572028160095215 2.22460031509399414 -1.04967403411865234
0.231492087244987488 1.34017348289489746 -1.14799046516418457
1.09522831439971924 3.13589382171630859 -1.28015661239624023
0.2095070481300354 1.40106523036956787 -1.19544923305511475
-0.214163854718208313 3.02478170394897461 -1.08949875831604004
-0.526250123977661133 2.68449783325195312 -1.08681261539459229
1.21391797065734863 2.37350201606750488 -1.50492167472839355
0.540600478649139404 1.97480559349060059 -1.13655757904052734
0.0214627999812364578 3.47982692718505859 -1.08995926380157471
0.693115353584289551 2.18431496620178223 -1.2506028413772583
0.890111327171325684 2.56090092658996582 -1.19706106185913086
0.940054535865783691 2.1122596263885498 -1.57153499126434326
1.40462148189544678 2.83159756660461426 -1.42538881301879883
0.825761973857879639 2.31711101531982422 -1.58426284790039062
0.923213958740234375 3.15187406539916992 -1.07748973369598389
-1.10073530673980713 2.35147738456726074 -1.08642566204071045
-0.430723607540130615 3.19023346900939941 -1.08928525447845459
1.10256588459014893 2.59159708023071289 -1.16467881202697754
1.1278301477432251 2.37219595909118652 -1.55524516105651855
1.14135622978210449 2.66700077056884766 -1.28765416145324707
-0.236644253134727478 2.41785478591918945 -1.08936989307403564
0.610674738883972168 2.13003849983215332 -1.16675329208374023
1.02653670310974121 2.31180763244628906 -1.53467369079589844
0.619925260543823242 2.10751199722290039 -1.41488528251647949
0.646298229694366455 2.96552443504333496 -1.08040988445281982
-0.373066425323486328 3.92062735557556152 -1.22112917900085449
0.35980263352394104 2.85616207122802734 -1.1048123836517334
-1.143088698387146 2.08138608932495117 -0.996169686317443848
0.429756462574005127 2.56091904640197754 -1.11032819747924805
1.13990521430969238 2.59903502464294434 -1.19061362743377686
1.16681206226348877 2.67832398414611816 -1.38840031623840332
-0.693824410438537598 2.67702889442443848 -1.08127307891845703
0.783664226531982422 2.11797904968261719 -1.477508544921875
0.230725079774856567 2.27868890762329102 -1.41025090217590332
0.771831274032592773 3.4721229076385498 -1.15810286998748779
-0.493590831756591797 2.87373113632202148 -1.05757594108581543
0.714302659034729004 2.24510788917541504 -1.34843170642852783
-0.784252166748046875 2.30594539642333984 -1.07784557342529297
-0.0704900473356246948 2.614715576171875 -1.06618809700012207
0.0946120023727416992 1.97610986232757568 -1.02716100215911865
0.736110508441925049 3.44737744331359863 -1.19592165946960449
-0.425635457038879395 3.0480043888092041 -1.07410633563995361
-0.141362875699996948 3.70183992385864258 -1.11835360527038574
0.682506084442138672 2.48168373107910156 -1.08283019065856934
0.0622501075267791748 1.53358304500579834 -1.00668954849243164
0.7067374587059021 2.19911932945251465 -1.20927894115447998
-0.334604829549789429 3.88733935356140137 -1.21012365818023682
-1.16005349159240723 2.48425173759460449 -1.17469549179077148
1.40957760810852051 2.63439488410949707 -1.45528256893157959
-0.193561449646949768 3.14668178558349609 -1.0903700590133667
