ply
format ascii 1.0
element vertex 256
comment vertices
property float x
property float y
property float z
end_header
-1.32945513725280762 3.91508150100708008 -0.727028310298919678
1.65215671062469482 3.65900611877441406 -0.0651860535144805908
0.160072058439254761 1.31119954586029053 -1.13600146770477295
0.30375942587852478 5.10923194885253906 -0.504015684127807617
0.297164559364318848 3.08658123016357422 -1.1745837926864624
-1.12365221977233887 2.39958310127258301 -1.11925148963928223
-1.02480244636535645 5.10992813110351562 -0.397486299276351929
1.13189077377319336 4.31457710266113281 -1.05634045600891113
1.06094181537628174 2.29087495803833008 -1.15657913684844971
-0.299158215522766113 4.34081554412841797 -0.87825620174407959
-0.171584576368331909 2.24008941650390625 -1.23660933971405029
-1.74068677425384521 3.06921052932739258 -0.951224446296691895
1.12942707538604736 3.33580803871154785 -1.16617965698242188
1.18718993663787842 4.29266595840454102 -0.270111292600631714
-0.357850044965744019 3.65468001365661621 -1.18968963623046875
0.465698421001434326 4.64938879013061523 -1.07220089435577393
-0.9042816162109375 4.29625749588012695 -0.282315224409103394
-1.14702022075653076 4.60035562515258789 -0.834116339683532715
1.66824328899383545 3.95377016067504883 -0.864469408988952637
0.383530646562576294 1.90535247325897217 -1.15500187873840332
0.672101259231567383 4.60703468322753906 -0.429251939058303833
-0.310607969760894775 5.03618240356445312 -0.562156319618225098
-0.651230812072753906 2.76027655601501465 -1.14694023132324219
-1.06973457336425781 3.69337916374206543 -1.18833208084106445
0.844932258129119873 2.8072807788848877 -1.18381190299987793
-0.134647220373153687 2.77730369567871094 -1.18105733394622803
-0.895671963691711426 4.13977766036987305 -1.01392185688018799
-0.658446550369262695 4.77884960174560547 -0.81915581226348877
0.396470159292221069 2.58711981773376465 -1.24107468128204346
0.681521177291870117 3.54128670692443848 -1.08635854721069336
-1.62538003921508789 3.52258753776550293 -0.732556402683258057
-0.655198097229003906 2.21227669715881348 -1.16651678085327148
1.18414425849914551 3.84804868698120117 -0.95302891731262207
-1.28306317329406738 3.16760730743408203 -0.879952907562255859
-0.435748636722564697 4.58870458602905273 -0.453421473503112793
1.48846936225891113 3.99491190910339355 -0.441503942012786865
0.828510701656341553 4.26652669906616211 -0.753321051597595215
-1.61615979671478271 3.79733443260192871 -0.408158749341964722
0.646080970764160156 2.24815869331359863 -1.08871996402740479
-0.103616669774055481 3.32442998886108398 -1.17524063587188721
0.0177862942218780518 4.782684326171875 -0.520663022994995117
-0.87911689281463623 4.64983129501342773 -0.494783639907836914
-1.25308859348297119 4.37421655654907227 -0.506518363952636719
1.3298039436340332 4.33056831359863281 -0.648852765560150146
-0.0778659805655479431 1.84858524799346924 -1.19616532325744629
-0.982912659645080566 5.01892852783203125 -0.801307499408721924
-1.27771008014678955 4.07921600341796875 -1.12061548233032227
1.18020713329315186 2.64914202690124512 -1.08066475391387939
0.598219454288482666 4.89554500579833984 -0.670097887516021729
-0.788331210613250732 4.26334762573242188 -0.681901633739471436
-0.664170622825622559 4.99196815490722656 -0.473402053117752075
-1.3534541130065918 3.40215349197387695 -1.13987410068511963
0.713584721088409424 3.20324540138244629 -1.16792798042297363
0.0955935865640640259 2.4800105094909668 -1.13121271133422852
0.354051262140274048 4.78687429428100586 -0.472483307123184204
-0.417560219764709473 1.99370265007019043 -1.17606806755065918
0.87908405065536499 4.63025140762329102 -0.675023436546325684
-0.798899531364440918 4.4539947509765625 -0.940023720264434814
1.43697798252105713 4.21101284027099609 -0.92593693733215332
0.911841392517089844 4.39566230773925781 -0.429562538862228394
0.907328426837921143 3.93056893348693848 -1.08964860439300537
-1.56196308135986328 4.08299446105957031 -0.537929534912109375
-1.19648551940917969 4.2910614013671875 -0.802947282791137695
1.20762741565704346 4.04956388473510742 -0.705311179161071777
0.269928991794586182 1.59796142578125 -1.08397293090820312
-0.234691023826599121 3.92976999282836914 -1.13110268115997314
-1.3135840892791748 3.69752717018127441 -1.00263667106628418
0.169836759567260742 2.8053133487701416 -1.16312623023986816
1.04422211647033691 3.04613232612609863 -1.16393601894378662
0.397504597902297974 3.47180676460266113 -1.1586834192276001
1.6505882740020752 3.76870560646057129 -0.34923243522644043
-1.57202398777008057 3.33459830284118652 -0.949873626232147217
-0.705566644668579102 5.10311174392700195 -0.73697274923324585
-0.260392367839813232 2.50121164321899414 -1.1746220588684082
-1.07661676406860352 4.04261398315429688 -0.829211056232452393
1.30142664909362793 4.07633733749389648 -1.11829006671905518
-1.64333891868591309 3.78854155540466309 -0.700001418590545654
1.07349658012390137 4.38053226470947266 -0.702746570110321045
-0.0681309998035430908 5.06847810745239258 -0.456176578998565674
1.47361254692077637 3.85399913787841797 -1.01674163341522217
1.47573685646057129 3.87299275398254395 -0.677661776542663574
-1.15264236927032471 4.15062141418457031 -0.405695825815200806
-1.36675477027893066 3.55404353141784668 -0.769463956356048584
0.570985198020935059 4.59986114501953125 -0.672018647193908691
-1.03564798831939697 3.92407941818237305 -1.06947791576385498
-0.753526091575622559 4.58511590957641602 -0.275544852018356323
-1.10936367511749268 4.27747011184692383 -1.0572582483291626
-1.4487382173538208 3.91683769226074219 -1.01150214672088623
-1.36218690872192383 4.34780979156494141 -0.991117894649505615
0.958266317844390869 2.52335405349731445 -1.087607741355896
1.18884587287902832 3.68000030517578125 -1.14463543891906738
0.7966575026512146 4.11992168426513672 -0.948785781860351562
-0.505626142024993896 4.94472503662109375 -0.681190133094787598
-1.82421839237213135 3.29238200187683105 -0.890207827091217041
-0.891655206680297852 4.88343191146850586 -0.423278957605361938
-1.01708531379699707 4.16638708114624023 -0.605636954307556152
-0.964627265930175781 4.48129463195800781 -0.64599686861038208
-0.931871592998504639 4.69161510467529297 -0.781517565250396729
0.604589402675628662 1.99342405796051025 -1.13530290126800537
-0.00423321127891540527 2.97368574142456055 -1.15705323219299316
-0.603908658027648926 4.53278303146362305 -0.610576391220092773
-0.17719656229019165 4.43016672134399414 -0.697945952415466309
1.59036803245544434 4.23914384841918945 -0.750183641910552979
0.210236027836799622 4.85510969161987305 -0.644824624061584473
0.126631990075111389 3.2445368766784668 -1.15659463405609131
-0.928030848503112793 2.27825832366943359 -1.15250754356384277
1.33959698677062988 4.2261199951171875 -0.442224621772766113
0.591875314712524414 4.82235002517700195 -0.429594695568084717
0.964697122573852539 3.70994973182678223 -1.08823204040527344
0.910924255847930908 3.33735799789428711 -1.22279965877532959
0.680499911308288574 2.9816429615020752 -1.18200862407684326
-0.593484759330749512 4.36527824401855469 -0.925789177417755127
1.1798551082611084 2.86802458763122559 -1.17591643333435059
1.12118983268737793 4.11217880249023438 -0.900205552577972412
-0.861731767654418945 5.08078336715698242 -0.543922901153564453
-0.658769011497497559 2.53967618942260742 -1.15808558464050293
0.84749913215637207 2.32230567932128906 -1.12617480754852295
1.41592299938201904 4.10437726974487305 -0.732350528240203857
-0.0308716520667076111 4.96107959747314453 -0.638946771621704102
-0.696640372276306152 4.15572595596313477 -0.933954834938049316
-0.886767148971557617 4.34040975570678711 -0.491532415151596069
0.468406140804290771 2.3569183349609375 -1.12762725353240967
0.528760313987731934 4.72250652313232422 -0.88586270809173584
1.03714227676391602 4.11097240447998047 -0.600301146507263184
-0.776365578174591064 4.91993331909179688 -0.917604565620422363
0.491635441780090332 5.02223968505859375 -0.526747465133666992
0.135827153921127319 4.99442911148071289 -0.466009438037872314
-0.330403238534927368 2.69555902481079102 -1.17168474197387695
-0.618104636669158936 4.68043708801269531 -0.442197173833847046
-0.222662940621376038 2.03600049018859863 -1.21938204765319824
-0.719848215579986572 4.8333735466003418 -0.328846663236618042
-0.0624769926071166992 2.40979456901550293 -1.23629510402679443
0.450038135051727295 3.1116948127746582 -1.04559290409088135
-0.992113828659057617 4.29025077819824219 -0.895030677318572998
1.62660479545593262 4.14953899383544922 -0.924757480621337891
0.654583632946014404 4.456695556640625 -0.563408732414245605
-1.10709154605865479 3.86283016204833984 -0.752629220485687256
0.0111292488873004913 2.19722819328308105 -1.17487812042236328
0.173822477459907532 2.62492990493774414 -1.24269390106201172
-1.02862215042114258 2.57215595245361328 -1.11916947364807129
0.82765507698059082 4.5543971061706543 -0.321123808622360229
-0.991933107376098633 4.95152711868286133 -0.607414603233337402
-1.45949780941009521 3.72994613647460938 -0.710990667343139648
-0.13274894654750824 4.77248191833496094 -0.639951944351196289
1.0316159725189209 3.50114631652832031 -1.16171586513519287
1.06246602535247803 4.27708005905151367 -0.4337615966796875
-1.25573694705963135 3.88960695266723633 -1.11270236968994141
-1.17726171016693115 4.04925918579101562 -0.564957082271575928
-0.615848541259765625 4.59572982788085938 -0.839283108711242676
-1.41637527942657471 3.49918746948242188 -0.992688179016113281
0.211494028568267822 1.97645723819732666 -1.16943442821502686
-1.27281689643859863 4.46326017379760742 -0.832495689392089844
-1.69366753101348877 2.89484739303588867 -0.995719313621520996
-0.342016637325286865 2.19500899314880371 -1.17859745025634766
0.999844074249267578 4.25089120864868164 -0.91195911169052124
-0.329889744520187378 4.87592220306396484 -0.651871085166931152
1.34863400459289551 4.05138397216796875 -0.899156808853149414
-1.72431743144989014 3.36729001998901367 -0.733517289161682129
-1.30251693725585938 4.00116348266601562 -0.939452409744262695
0.882226169109344482 4.38032865524291992 -0.619929671287536621
0.679455697536468506 2.42717719078063965 -1.10396802425384521
0.000374428927898406982 2.64144253730773926 -1.18844246864318848
-0.895908951759338379 5.15654134750366211 -0.72386854887008667
0.49737846851348877 4.67788505554199219 -0.478929221630096436
1.02901124954223633 2.77119112014770508 -1.17929232120513916
1.20011556148529053 4.16908550262451172 -0.539260208606719971
-0.801108896732330322 4.5525364875793457 -0.653840065002441406
-0.990227639675140381 4.84604358673095703 -0.843906044960021973
1.30115985870361328 3.87176394462585449 -0.695327281951904297
-1.10663723945617676 4.38556289672851562 -0.610120177268981934
0.186960458755493164 4.83342933654785156 -0.4211844801902771
1.14950346946716309 3.9400932788848877 -1.0974661111831665
-0.752201080322265625 4.19774293899536133 -0.52436298131942749
-0.0401783622801303864 3.16312026977539062 -1.18366718292236328
0.474515080451965332 4.86210203170776367 -0.804725408554077148
-1.03629875183105469 4.45394611358642578 -0.910359799861907959
1.66876840591430664 3.81814217567443848 -0.188040345907211304
-0.820376098155975342 4.28636074066162109 -0.976190626621246338
-1.47647643089294434 3.89173650741577148 -0.64912259578704834
-1.11102497577667236 4.08673763275146484 -1.11470210552215576
-1.22117602825164795 4.20955562591552734 -0.549278974533081055
1.11133825778961182 2.51482224464416504 -1.15216326713562012
-1.41707503795623779 3.39761829376220703 -0.792149841785430908
1.55096340179443359 3.85427188873291016 -0.502052843570709229
1.51738667488098145 4.01391029357910156 -0.835804402828216553
-0.359661757946014404 2.37073564529418945 -1.17657530307769775
0.357233822345733643 3.23741412162780762 -1.15733647346496582
0.431129097938537598 4.88376569747924805 -0.587505519390106201
-0.708272635936737061 5.13869094848632812 -0.528576910495758057
1.47885847091674805 4.12285661697387695 -0.541045486927032471
0.931262850761413574 4.39366579055786133 -0.779081404209136963
-1.21914434432983398 4.09265470504760742 -0.773361325263977051
-1.2532203197479248 3.80864620208740234 -0.820494413375854492
-0.590332508087158203 2.35897064208984375 -1.1690601110458374
-0.833963572978973389 5.02635669708251953 -0.386594593524932861
0.610548496246337891 4.75560808181762695 -0.59794771671295166
-0.882074952125549316 4.4968266487121582 -0.298533320426940918
1.16749882698059082 4.26198577880859375 -0.668285965919494629
0.370103120803833008 4.99934005737304688 -0.417296886444091797
-0.491272658109664917 4.96898365020751953 -0.529700934886932373
-1.59310364723205566 3.64754986763000488 -0.81618344783782959
-0.975655734539031982 4.39925098419189453 -0.371202051639556885
0.147931009531021118 1.64820194244384766 -1.16238009929656982
0.940069019794464111 2.92729473114013672 -1.17494463920593262
0.322580218315124512 2.79406571388244629 -1.16377270221710205
-0.913537740707397461 4.87061357498168945 -0.714080750942230225
-1.60278725624084473 3.09315347671508789 -0.891162753105163574
0.744764328002929688 4.46713447570800781 -0.441670447587966919
0.734264850616455078 4.32411766052246094 -0.64916539192199707
0.993705093860626221 3.18894624710083008 -1.16567540168762207
-0.949397385120391846 2.44376134872436523 -1.10796403884887695
-0.925039291381835938 4.22233057022094727 -0.731124758720397949
-0.000843197107315063477 4.93371295928955078 -0.476155221462249756
-0.18541601300239563 2.63078188896179199 -1.17523062229156494
-1.47811222076416016 3.33658218383789062 -1.06592893600463867
1.55832135677337646 3.97113490104675293 -0.601652145385742188
1.31442451477050781 3.89999771118164062 -0.902918756008148193
0.299697339534759521 4.74486780166625977 -0.603883862495422363
1.2937006950378418 4.21951675415039062 -0.960546374320983887
-1.54224932193756104 3.47389054298400879 -0.91108095645904541
0.833811163902282715 4.49634218215942383 -0.71736907958984375
-1.12124145030975342 4.42667245864868164 -0.468260914087295532
-0.869191169738769531 4.78510236740112305 -0.550967216491699219
-1.21470034122467041 3.68995952606201172 -1.16906356811523438
0.0402844808995723724 1.93177640438079834 -1.17536985874176025
0.234000563621520996 1.41993963718414307 -1.07288539409637451
-1.51608061790466309 3.76915645599365234 -0.581009030342102051
-1.61861789226531982 3.92265152931213379 -0.641443192958831787
1.36891746520996094 4.02240085601806641 -0.621916711330413818
1.55240607261657715 3.85176849365234375 -0.281946480274200439
-0.855470538139343262 4.46351146697998047 -0.80674976110458374
-0.758624553680419922 4.57956981658935547 -0.858553171157836914
0.638790011405944824 4.64288091659545898 -0.292927950620651245
0.122145421802997589 5.01797723770141602 -0.608170509338378906
-0.993921637535095215 4.78675270080566406 -0.454067081212997437
-0.31301504373550415 4.44792270660400391 -0.783360838890075684
-1.71668791770935059 3.19858407974243164 -0.87266772985458374
-0.746924400329589844 4.87413406372070312 -0.461927324533462524
-0.737997055053710938 4.62729883193969727 -0.494070917367935181
-0.713164567947387695 4.31531667709350586 -0.870834946632385254
0.980437576770782471 4.28833770751953125 -0.581355094909667969
-0.140322983264923096 4.94343805313110352 -0.473100095987319946
0.103394210338592529 5.13028335571289062 -0.463687509298324585
-1.10653352737426758 4.29307460784912109 -0.503982603549957275
-1.36438608169555664 3.26471066474914551 -1.09810149669647217
-0.00436005741357803345 2.8377680778503418 -1.18147408962249756
-0.225921720266342163 2.35653996467590332 -1.14795422554016113
-1.36992025375366211 3.5709078311920166 -1.0996706485748291
1.26490926742553711 3.77032232284545898 -1.07642948627471924
-0.834098458290100098 4.48303747177124023 -0.541296243667602539
0.977753162384033203 2.64312314987182617 -1.14919352531433105
0.7980002760887146 3.09744668006896973 -1.17238903045654297
-0.969983458518981934 4.98127985000610352 -0.474074244499206543
1.31575870513916016 3.9819948673248291 -0.771521925926208496
0.768480122089385986 2.7172858715057373 -1.11965310573577881
0.979616463184356689 4.26860809326171875 -0.779004514217376709
