ply
format ascii 1.0
element vertex 256
comment vertices
property float x
property float y
property float z
end_header
-1.01973044872283936 2.71232891082763672 -1.1244971752166748
2.51900434494018555 2.44988250732421875 -2.45241570472717285
0.554872095584869385 -0.0489610433578491211 -1.86251163482666016
0.641446471214294434 4.26113414764404297 -2.26115727424621582
1.6844172477722168 3.18847084045410156 -0.783874154090881348
0.635985910892486572 1.94671571254730225 -1.76565933227539062
-0.824378252029418945 1.16029858589172363 -2.0238652229309082
1.78067755699157715 1.01548981666564941 -2.41935014724731445
0.0271070003509521484 4.16255760192871094 -0.781453251838684082
-0.477584779262542725 3.18019533157348633 -2.36106443405151367
1.41109681129455566 3.15415239334106445 -2.20581340789794922
1.90608000755310059 1.60492885112762451 -1.44935750961303711
2.50703811645507812 2.63761281967163086 -1.3327181339263916
0.964978635311126709 3.83304762840270996 -1.24146687984466553
0.307127118110656738 2.95226931571960449 -1.63337397575378418
0.20863795280456543 0.971805453300476074 -1.71163177490234375
1.20830845832824707 0.789070963859558105 -1.64354300498962402
-0.123368561267852783 3.81625652313232422 -1.67603838443756104
-1.16405558586120605 2.27350926399230957 -1.93418550491333008
1.49601995944976807 2.28151559829711914 -1.95128428936004639
-0.445363759994506836 3.31054544448852539 -0.800196409225463867
0.878808856010437012 1.34000527858734131 -2.33475637435913086
-0.159139633178710938 0.272933363914489746 -1.72245681285858154
2.1874854564666748 1.74047505855560303 -2.44615650177001953
2.10336136817932129 3.09079527854919434 -1.85387003421783447
-0.147898972034454346 1.63207590579986572 -1.86432898044586182
-0.179976940155029297 4.06037807464599609 -2.37428116798400879
-0.465863704681396484 3.08930492401123047 -1.62577056884765625
1.49853610992431641 3.35001969337463379 -1.46824133396148682
0.382797539234161377 4.36192989349365234 -1.59305477142333984
1.27262604236602783 1.52797544002532959 -1.73956704139709473
0.905433416366577148 2.62775802612304688 -1.75751817226409912
1.08542966842651367 3.79034137725830078 -2.16050386428833008
-0.00711813569068908691 2.58422112464904785 -2.04720640182495117
0.657555043697357178 4.14621543884277344 -0.782928347587585449
-0.386094927787780762 0.834012508392333984 -1.71444559097290039
-0.737742066383361816 2.70295238494873047 -2.09751033782958984
0.626928269863128662 0.545954227447509766 -1.80351591110229492
1.94001126289367676 2.94086408615112305 -1.30020403861999512
0.987309575080871582 0.763711690902709961 -2.20838689804077148
2.00530529022216797 2.27490472793579102 -2.37045478820800781
2.42796039581298828 2.65324926376342773 -1.90530991554260254
0.780779421329498291 1.29409933090209961 -1.69957613945007324
0.103765487670898438 2.13672375679016113 -1.75743484497070312
-0.291645288467407227 3.72185802459716797 -1.11708664894104004
2.32491016387939453 2.51300191879272461 -0.838282406330108643
1.66835606098175049 1.19353890419006348 -1.89286541938781738
1.19111180305480957 3.57367086410522461 -0.829808592796325684
0.786725521087646484 3.96126461029052734 -1.71499776840209961
-0.778794527053833008 1.46618270874023438 -1.6152796745300293
-0.331145763397216797 3.61765646934509277 -2.16037106513977051
-0.954354941844940186 2.65629816055297852 -1.64730417728424072
1.34975767135620117 1.24693548679351807 -2.50799417495727539
0.992407441139221191 0.26092684268951416 -1.63389945030212402
0.129384696483612061 4.37051677703857422 -2.00536394119262695
0.307823866605758667 1.59866917133331299 -1.72926473617553711
0.203836381435394287 4.4034276008605957 -1.15072751045227051
1.20411038398742676 1.99295985698699951 -1.69285750389099121
1.52642381191253662 3.57855558395385742 -1.87411928176879883
0.52762448787689209 4.07930088043212891 -1.20514500141143799
-0.7201995849609375 3.01897382736206055 -1.24479389190673828
0.437745898962020874 2.70987653732299805 -1.97821569442749023
1.12243735790252686 3.68653130531311035 -1.6576160192489624
1.62081623077392578 1.73512601852416992 -1.90456151962280273
0.746860623359680176 0.209171295166015625 -2.15828061103820801
1.23810040950775146 1.25638997554779053 -2.07057547569274902
1.85086321830749512 1.4354250431060791 -2.39548802375793457
-1.15009725093841553 2.34105229377746582 -1.44330775737762451
-0.14608454704284668 1.21991539001464844 -1.76969873905181885
1.60290837287902832 2.07230257987976074 -1.59865832328796387
1.35280108451843262 0.835590839385986328 -2.44167661666870117
0.225272208452224731 0.427117466926574707 -1.73303699493408203
2.03208613395690918 2.96653366088867188 -0.818351149559020996
0.116435647010803223 4.00705337524414062 -1.21330475807189941
1.71326899528503418 3.19573736190795898 -1.78074455261230469
2.09041118621826172 2.8221745491027832 -2.15979576110839844
-0.404045045375823975 3.30389881134033203 -1.19422543048858643
0.586720824241638184 2.33689498901367188 -1.80647718906402588
-0.47579723596572876 3.30086588859558105 -1.95941758155822754
2.21254682540893555 2.73020267486572266 -1.57586312294006348
1.33087301254272461 3.57616162300109863 -1.20700836181640625
0.0797066688537597656 4.14975357055664062 -1.67862367630004883
-0.30354011058807373 3.46502065658569336 -1.66623282432556152
0.914481699466705322 1.69922542572021484 -1.71553504467010498
-0.49874579906463623 1.51365756988525391 -1.92287206649780273
0.323260992765426636 4.42438268661499023 -0.798530697822570801
0.844815909862518311 0.947150707244873047 -1.81792831420898438
-0.0351307392120361328 3.89063310623168945 -2.02850174903869629
2.2324988842010498 2.7830357551574707 -1.0747992992401123
2.3809814453125 2.10830163955688477 -2.4797213077545166
1.79459667205810547 1.27136647701263428 -1.55373692512512207
1.66815471649169922 3.18697118759155273 -1.14597582817077637
-0.729330182075500488 2.93517184257507324 -0.90185856819152832
0.908147096633911133 2.24354195594787598 -1.70064520835876465
0.895326912403106689 3.79409217834472656 -0.900634229183197021
-0.481726348400115967 1.16536688804626465 -1.93270468711853027
0.135089576244354248 0.0953743457794189453 -1.78466928005218506
1.56603503227233887 2.48865818977355957 -1.68450689315795898
-0.00486868619918823242 0.705408215522766113 -1.72656869888305664
1.41355693340301514 1.05840778350830078 -1.68924546241760254
0.487146705389022827 4.08138322830200195 -1.82585978507995605
1.34126877784729004 3.48251867294311523 -2.1394801139831543
-0.091163933277130127 3.86063241958618164 -0.888194799423217773
-0.72846674919128418 2.8532860279083252 -1.79144144058227539
0.791601419448852539 3.97029685974121094 -2.20626187324523926
-1.23770987987518311 2.60553598403930664 -0.899433135986328125
1.53450191020965576 1.36190032958984375 -2.1656038761138916
0.965318560600280762 0.632644891738891602 -1.90779793262481689
0.578309714794158936 4.38658952713012695 -1.00090265274047852
0.0108374357223510742 2.82706427574157715 -1.68876504898071289
1.97670793533325195 3.15372276306152344 -2.14602470397949219
1.4670175313949585 3.38949680328369141 -0.979110062122344971
-0.397051870822906494 3.79839110374450684 -2.41195011138916016
0.553159236907958984 0.988106250762939453 -1.70460033416748047
1.16720783710479736 2.25420689582824707 -1.87859809398651123
1.80217564105987549 3.1715087890625 -1.48184001445770264
-0.667596340179443359 2.93635296821594238 -2.33099508285522461
2.48008966445922852 2.51520824432373047 -1.63468754291534424
0.832960546016693115 -0.00035572052001953125 -1.60269021987915039
-0.966204404830932617 2.56155920028686523 -1.95136523246765137
0.189081043004989624 2.88092947006225586 -2.01600909233093262
-0.580169916152954102 2.95260381698608398 -2.04022693634033203
1.35750651359558105 0.910665631294250488 -2.15071964263916016
0.0718944668769836426 1.83954286575317383 -1.7399144172668457
1.09852719306945801 1.19142246246337891 -1.81384551525115967
2.38796234130859375 2.60262107849121094 -2.23199033737182617
-0.807330846786499023 2.7844550609588623 -1.40628695487976074
1.10167813301086426 0.986987471580505371 -2.39421987533569336
0.273075401782989502 1.30469357967376709 -1.70859670639038086
-0.136488258838653564 3.74871015548706055 -1.36840164661407471
0.494888007640838623 0.234636902809143066 -1.8010258674621582
-0.984763622283935547 2.74088239669799805 -0.828827083110809326
1.89587891101837158 1.77357971668243408 -2.44178199768066406
0.722489893436431885 4.0449824333190918 -1.44859683513641357
0.30792391300201416 4.19897365570068359 -1.34252917766571045
0.581719338893890381 1.68261122703552246 -1.67574787139892578
0.807253479957580566 4.02377891540527344 -1.10177886486053467
0.468499362468719482 4.31260490417480469 -1.98975837230682373
0.816290736198425293 0.0285631418228149414 -1.93993997573852539
2.04029345512390137 2.95397186279296875 -1.57012248039245605
-0.223653256893157959 3.65049219131469727 -1.88024115562438965
1.32932186126708984 3.49571967124938965 -1.66085934638977051
1.02662038803100586 4.03621959686279297 -1.83994579315185547
2.24779987335205078 2.37209987640380859 -2.27829718589782715
-0.340654671192169189 3.47636985778808594 -1.39476215839385986
1.17391312122344971 0.79313194751739502 -1.97216796875
0.342598199844360352 2.45138454437255859 -1.82035768032073975
0.967193961143493652 3.74629735946655273 -1.87023138999938965
0.386563092470169067 0.770695090293884277 -1.71571385860443115
2.0612342357635498 1.98437416553497314 -2.44036293029785156
2.62419271469116211 2.51677441596984863 -2.02282857894897461
1.71282446384429932 2.26692605018615723 -1.7417222261428833
0.80722576379776001 0.353126645088195801 -1.82768726348876953
0.394418507814407349 2.02992868423461914 -1.82742500305175781
-0.318363428115844727 0.581043362617492676 -1.72605466842651367
1.67889499664306641 2.02463030815124512 -1.84324967861175537
0.00241899490356445312 1.44587993621826172 -1.76323914527893066
1.26028966903686523 3.62770533561706543 -1.87247920036315918
0.938902854919433594 1.55635535717010498 -2.206146240234375
-0.363412618637084961 3.35672378540039062 -2.21219825744628906
-1.13537752628326416 2.44229507446289062 -1.20871067047119141
0.0363040566444396973 3.97018074989318848 -1.50157749652862549
2.18902969360351562 2.74154424667358398 -1.9003901481628418
-0.799608409404754639 1.22210752964019775 -1.6831812858581543
1.36723113059997559 1.76328063011169434 -1.74483489990234375
-0.668985843658447266 3.21291255950927734 -1.09010982513427734
1.49384653568267822 1.47890937328338623 -1.85260701179504395
0.748823821544647217 4.13914203643798828 -2.02327942848205566
-0.352594137191772461 3.54254484176635742 -0.765687823295593262
-0.659628570079803467 2.95566320419311523 -1.5149071216583252
1.65105628967285156 1.29523992538452148 -2.45280361175537109
0.959281265735626221 3.7928919792175293 -1.5003819465637207
1.10492277145385742 0.993788957595825195 -2.14446210861206055
0.0207285284996032715 4.14730978012084961 -2.02974653244018555
1.36565423011779785 1.2456812858581543 -1.84680914878845215
1.53549814224243164 3.36185359954833984 -2.0438225269317627
2.64221763610839844 2.61640167236328125 -1.7889406681060791
1.95243930816650391 1.18966352939605713 -2.4068751335144043
-0.669103503227233887 1.34358000755310059 -1.97670197486877441
-1.04112875461578369 2.44077420234680176 -1.72018694877624512
-0.175867974758148193 0.956551909446716309 -1.71115660667419434
0.961912631988525391 1.99152052402496338 -1.71518707275390625
-0.619682669639587402 0.973768949508666992 -1.87508368492126465
2.26882648468017578 2.6789546012878418 -1.31974220275878906
1.47851800918579102 3.34777069091796875 -1.78091764450073242
0.457495212554931641 4.12736225128173828 -1.59071671962738037
1.41758549213409424 2.04236936569213867 -1.79230570793151855
1.20924663543701172 3.63526272773742676 -1.40544605255126953
-1.01328861713409424 2.55032253265380859 -1.44126796722412109
-0.227596402168273926 3.94244909286499023 -2.1730506420135498
0.734312951564788818 2.73981952667236328 -1.87623941898345947
-0.0754929780960083008 3.88608193397521973 -1.1475975513458252
2.15350127220153809 1.50839424133300781 -2.42375993728637695
2.34373259544372559 2.7876434326171875 -0.868038058280944824
1.98960971832275391 2.89533233642578125 -1.91031455993652344
1.50788450241088867 1.11753940582275391 -2.4029848575592041
1.86096739768981934 2.99906086921691895 -0.967248022556304932
-0.332699477672576904 1.35900270938873291 -1.92273604869842529
1.11956322193145752 3.68326210975646973 -1.17054259777069092
-0.0509160757064819336 4.02949810028076172 -1.81869125366210938
-0.54295581579208374 3.15332603454589844 -2.13605093955993652
0.416805684566497803 2.85384941101074219 -1.80613470077514648
0.433488190174102783 4.27676677703857422 -1.1514662504196167
1.69387447834014893 3.32701969146728516 -1.3606259822845459
-0.798117339611053467 2.83470726013183594 -1.14801549911499023
0.020376741886138916 4.03054332733154297 -0.977084159851074219
1.44396734237670898 1.13313746452331543 -2.01950907707214355
1.34160518646240234 1.44697833061218262 -2.03355526924133301
2.46054816246032715 2.85005712509155273 -1.81302762031555176
-0.471888065338134766 3.09834527969360352 -0.848822832107543945
0.464490294456481934 4.13896846771240234 -0.885583102703094482
2.07802152633666992 2.80336308479309082 -1.39942193031311035
-0.360827207565307617 3.52414894104003906 -1.06050348281860352
0.917993426322937012 3.91621756553649902 -1.9952242374420166
-0.631296396255493164 3.04340696334838867 -1.82763433456420898
0.29603046178817749 4.37991809844970703 -1.79001092910766602
1.19908046722412109 3.83349943161010742 -1.84925365447998047
-0.121906161308288574 0.492934226989746094 -1.72510194778442383
1.02682232856750488 1.51693534851074219 -1.73705792427062988
-0.436897873878479004 3.31306791305541992 -1.7388155460357666
0.653694748878479004 4.13733911514282227 -1.70370101928710938
1.46411228179931641 3.41461181640625 -1.23357570171356201
-0.0143527984619140625 2.77655339241027832 -1.96069908142089844
1.03284215927124023 2.41390752792358398 -1.847991943359375
1.18540060520172119 0.693187475204467773 -2.21758437156677246
-0.684617161750793457 2.67899084091186523 -2.29868435859680176
0.732482612133026123 2.15508627891540527 -1.7725071907043457
2.4360039234161377 2.7238621711730957 -1.04456520080566406
0.350767463445663452 4.40356874465942383 -1.34005939960479736
0.47356829047203064 1.24871957302093506 -1.69159698486328125
1.41061067581176758 3.30396175384521484 -0.79744189977645874
-0.613859713077545166 1.58681738376617432 -1.65611386299133301
-0.521621465682983398 3.02735328674316406 -1.30615437030792236
-0.568922758102416992 3.02862262725830078 -1.10269069671630859
1.39945363998413086 2.44115018844604492 -1.86404657363891602
0.289583683013916016 0.232619881629943848 -1.78478574752807617
0.451074123382568359 1.86816871166229248 -1.71520757675170898
1.02366650104522705 0.98197638988494873 -1.91073381900787354
1.82594609260559082 1.63068199157714844 -1.63549768924713135
0.137589514255523682 4.18476295471191406 -1.1152806282043457
2.26483297348022461 2.59572458267211914 -1.77982199192047119
1.06872057914733887 3.69725728034973145 -0.973870277404785156
-0.312962353229522705 3.49223899841308594 -1.97012269496917725
1.91276252269744873 3.15916991233825684 -1.84925174713134766
0.0431712865829467773 1.08741664886474609 -1.70441317558288574
1.12992441654205322 1.80633676052093506 -1.68410754203796387
-0.235905885696411133 3.74764156341552734 -0.806806564331054688
0.605224788188934326 4.17722320556640625 -1.04964983463287354
1.28179728984832764 0.911267638206481934 -1.78203821182250977
1.34145677089691162 3.49273133277893066 -1.43806135654449463
2.22563648223876953 2.65528345108032227 -2.3299567699432373
0.651989400386810303 0.149115562438964844 -1.8802412748336792
-0.185952603816986084 3.84626507759094238 -1.85863137245178223
1.18638741970062256 3.60106658935546875 -2.1496577262878418
2.42710518836975098 2.65624475479125977 -1.51189911365509033
2.07172989845275879 2.87562179565429688 -1.02204728126525879
