ply
format ascii 1.0
element vertex 77
comment vertices
property float x
property float y
property float z
end_header
0.106119111180305481 1.27311146259307861 -1.06067705154418945
0.204635530710220337 3.16019892692565918 -1.12085163593292236
-1.20000386238098145 2.41860079765319824 -1.1640242338180542
1.08753335475921631 2.1507411003112793 -1.52738738059997559
-0.402985304594039917 3.90468358993530273 -1.24243378639221191
0.79429018497467041 3.42202425003051758 -1.23576962947845459
0.638214826583862305 2.45536613464355469 -1.04559147357940674
-0.763704776763916016 2.83330988883972168 -1.05916798114776611
1.49788069725036621 2.81913089752197266 -1.37346565723419189
0.316366791725158691 1.71392655372619629 -1.13730013370513916
0.389307498931884766 2.23632264137268066 -1.47874581813812256
1.14353358745574951 2.56087088584899902 -1.09520697593688965
-0.46784624457359314 3.22487759590148926 -1.10957491397857666
0.70385509729385376 2.13192510604858398 -1.10217642784118652
0.8201446533203125 3.03794622421264648 -1.09063386917114258
-0.100770063698291779 3.67630624771118164 -1.15755271911621094
0.865941703319549561 2.31961822509765625 -1.59338736534118652
1.13503181934356689 2.58586025238037109 -1.51638472080230713
0.800595223903656006 2.07881808280944824 -1.45571398735046387
1.09699368476867676 2.7824552059173584 -1.23053538799285889
-0.820166707038879395 2.46645760536193848 -1.09356606006622314
0.509271144866943359 2.15145993232727051 -1.05569100379943848
0.275674492120742798 1.39613986015319824 -1.09673571586608887
0.651932835578918457 3.50065994262695312 -1.15947747230529785
-1.14188551902770996 2.48621988296508789 -1.14681482315063477
-0.434071630239486694 3.76561760902404785 -1.2201225757598877
0.208711132407188416 1.46626472473144531 -1.22250640392303467
0.634981095790863037 2.18354582786560059 -1.26492953300476074
0.75794374942779541 3.49780941009521484 -1.18947076797485352
-1.14649295806884766 2.4310755729675293 -1.09595847129821777
0.887044429779052734 2.52837944030761719 -1.19557666778564453
0.201600655913352966 3.62037849426269531 -1.17640495300292969
1.1068347692489624 2.58231711387634277 -1.22286891937255859
0.971445739269256592 2.08468008041381836 -1.57250642776489258
1.26026034355163574 2.77136683464050293 -1.53092837333679199
1.0614856481552124 2.53900623321533203 -1.44465124607086182
1.01316118240356445 2.71497869491577148 -1.14101386070251465
-0.474588751792907715 2.8761599063873291 -1.0766681432723999
0.898788094520568848 3.10054254531860352 -1.06051671504974365
-0.370331943035125732 3.89206480979919434 -1.17686307430267334
1.15346252918243408 2.36732292175292969 -1.60613715648651123
-0.596343576908111572 3.05364489555358887 -1.08147096633911133
0.569064080715179443 2.10058403015136719 -1.19636702537536621
0.359888941049575806 2.43173336982727051 -1.45725536346435547
0.302119702100753784 3.16502928733825684 -1.11379873752593994
0.125923469662666321 2.12669086456298828 -1.43059790134429932
-0.547713816165924072 2.46346640586853027 -1.11165916919708252
0.0955280214548110962 3.52971696853637695 -1.12280952930450439
0.693222403526306152 2.19907212257385254 -1.37884247303009033
0.550159811973571777 2.34026145935058594 -1.12297201156616211
-0.3360024094581604 3.84599661827087402 -1.20738279819488525
1.34138870239257812 2.89975333213806152 -1.40868687629699707
0.539314627647399902 2.72527956962585449 -1.04960072040557861
-0.622161149978637695 2.69408130645751953 -1.08525490760803223
0.727801859378814697 2.1698143482208252 -1.24475598335266113
0.218399196863174438 1.31114685535430908 -1.10212445259094238
0.847286820411682129 2.20054054260253906 -1.47898459434509277
-0.211562290787696838 3.30913114547729492 -1.0799863338470459
-0.852049171924591064 2.61633110046386719 -1.12111437320709229
1.08736264705657959 2.58308005332946777 -1.21654224395751953
0.0246013253927230835 2.97887420654296875 -1.12644863128662109
-1.13823354244232178 2.05111837387084961 -1.04764175415039062
0.163541197776794434 1.55077147483825684 -1.05129992961883545
1.05037176609039307 2.28196167945861816 -1.55052006244659424
1.17974996566772461 2.58677196502685547 -1.10991406440734863
0.611718893051147461 2.13631010055541992 -1.08859062194824219
1.39559686183929443 2.67548060417175293 -1.46318495273590088
-0.0425978899002075195 2.74589109420776367 -1.14384067058563232
0.235531732439994812 1.37586069107055664 -1.11936008930206299
0.700878262519836426 2.21646404266357422 -1.09782326221466064
-0.455034255981445312 3.02948927879333496 -1.06609249114990234
0.795803427696228027 3.48479294776916504 -1.17323780059814453
1.07432270050048828 2.49321699142456055 -1.06305074691772461
-1.18347406387329102 2.4572136402130127 -1.13226008415222168
0.207526594400405884 1.53667867183685303 -1.16125500202178955
-1.14786648750305176 2.48473334312438965 -1.14552628993988037
0.910313904285430908 3.05926179885864258 -1.14816510677337646
