ply
format ascii 1.0
element vertex 256
comment vertices
property float x
property float y
property float z
end_header
-1.74391829967498779 3.54639434814453125 -0.404913187026977539
2.3382723331451416 3.36700963973999023 -1.58481895923614502
0.105140998959541321 1.29747200012207031 -1.05304551124572754
0.358100324869155884 5.27152538299560547 -1.28041863441467285
0.21130843460559845 3.07231044769287109 -1.14767050743103027
0.958417057991027832 4.20893430709838867 0.149724453687667847
-1.21917140483856201 2.45417094230651855 -1.15819203853607178
1.1693720817565918 2.09125781059265137 -1.57329118251800537
-1.73644340038299561 4.72302103042602539 -1.61967611312866211
-0.989561855792999268 4.85409021377563477 -0.218369066715240479
1.07237005233764648 4.13044023513793945 -1.22135186195373535
2.46774792671203613 1.95593118667602539 -0.985861420631408691
-0.356258630752563477 3.9304649829864502 -1.23796200752258301
-1.56110918521881104 3.58735013008117676 -1.46377253532409668
-1.28394913673400879 5.43047285079956055 -1.14688754081726074
-0.234543785452842712 2.14359736442565918 -1.02270734310150146
-0.669958949089050293 3.52137112617492676 -0.402061909437179565
1.03313660621643066 2.82266855239868164 -1.177773118019104
-0.850296616554260254 1.50144553184509277 -0.988258481025695801
-1.28727042675018311 4.16283416748046875 -0.746125340461730957
-1.72577536106109619 2.71407842636108398 -1.0073401927947998
0.66852039098739624 2.11962151527404785 -1.06585443019866943
-0.608249068260192871 2.91014337539672852 -1.07998955249786377
0.778376400470733643 3.46871137619018555 -1.18751370906829834
-1.74650812149047852 3.06457662582397461 -1.59552478790283203
0.723081469535827637 2.04446697235107422 -1.56017482280731201
-0.877091884613037109 3.97546958923339844 -0.614714682102203369
0.448625147342681885 2.45796990394592285 -1.36988615989685059
1.71726024150848389 4.00691652297973633 -1.23477840423583984
1.13602817058563232 3.89847302436828613 -0.549246728420257568
1.2841801643371582 2.58413600921630859 -1.31231331825256348
-1.45290184020996094 4.88231611251831055 -0.919977009296417236
0.714178085327148438 4.49788570404052734 -0.26617741584777832
1.66827726364135742 3.09171056747436523 -1.35551774501800537
1.10684990882873535 2.53934431076049805 -1.09052705764770508
-0.845379352569580078 2.1131587028503418 -1.06148600578308105
-1.18796837329864502 4.35912370681762695 -0.180859178304672241
1.58228683471679688 3.68343925476074219 0.0699918121099472046
-1.76535654067993164 3.36108112335205078 -0.986499786376953125
0.770490050315856934 2.12772130966186523 -1.58522415161132812
0.225685536861419678 1.49486374855041504 -1.12482988834381104
-1.28681468963623047 4.01820707321166992 -1.54817366600036621
0.325730800628662109 4.5996403694152832 -1.4276583194732666
-0.275376081466674805 1.58698761463165283 -0.904446125030517578
-0.188532769680023193 2.61547112464904785 -1.08857607841491699
-1.43093299865722656 3.94841170310974121 -0.283146560192108154
0.010317876935005188 4.54778146743774414 -1.06370508670806885
-1.59207296371459961 3.86833405494689941 -1.01836597919464111
-0.230763167142868042 3.504852294921875 -1.10198485851287842
1.06244254112243652 2.57820343971252441 -1.44163084030151367
1.34785926342010498 3.92828679084777832 -0.115572452545166016
-1.04171645641326904 4.89775753021240234 -0.680042386054992676
-0.50053095817565918 1.20684146881103516 -1.04500889778137207
-1.03940296173095703 5.00119113922119141 -1.37429189682006836
-1.06219911575317383 2.54144191741943359 -1.10695004463195801
-1.32103824615478516 4.35597133636474609 -1.22723591327667236
0.636263608932495117 2.74241113662719727 -1.03258419036865234
2.84952116012573242 2.4999234676361084 -1.38450837135314941
0.192623332142829895 3.64047861099243164 -1.14435529708862305
1.04800713062286377 3.8652188777923584 -0.9656105637550354
1.62625837326049805 3.40591835975646973 -1.76885461807250977
0.343705594539642334 2.04363155364990234 -1.05502355098724365
1.68543195724487305 2.31295108795166016 -1.31532549858093262
0.41152644157409668 4.61376619338989258 -1.0102466344833374
-0.789528369903564453 4.31686973571777344 -0.618059098720550537
1.6121523380279541 3.69322419166564941 -1.41227447986602783
0.859886527061462402 4.50467824935913086 -1.32409358024597168
0.792457342147827148 3.41056609153747559 -1.23268437385559082
-1.17977654933929443 2.04721450805664062 -1.11535918712615967
0.704749703407287598 3.37673377990722656 -1.13921773433685303
1.215157151222229 2.72393369674682617 -1.44365787506103516
-0.581925630569458008 2.34142851829528809 -1.07897722721099854
-2.21079874038696289 0.906213283538818359 -1.26099538803100586
-1.63439130783081055 0.346719264984130859 -1.64091706275939941
0.402992457151412964 4.85047721862792969 -0.577336430549621582
-0.220104575157165527 3.83531379699707031 -1.18222343921661377
0.163611650466918945 2.4695427417755127 -1.06145787239074707
-2.53005337715148926 0.582668542861938477 -0.698333263397216797
0.704301238059997559 2.18687558174133301 -1.10027849674224854
-0.424169659614562988 3.78730440139770508 -1.22801411151885986
0.254277020692825317 3.29109716415405273 -1.06770336627960205
-1.59838485717773438 3.31277704238891602 -0.762696385383605957
-0.708578586578369141 4.99567222595214844 -1.40261578559875488
1.44202589988708496 4.0518946647644043 -1.2626953125
0.435802549123764038 4.57523679733276367 0.0190550237894058228
-1.087371826171875 4.65087366104125977 -1.21106493473052979
0.667404115200042725 4.8564143180847168 -1.07798576354980469
-0.591901302337646484 1.76031827926635742 -1.07977879047393799
0.464121103286743164 2.20195221900939941 -1.34571778774261475
0.484669089317321777 4.69007635116577148 -0.440214037895202637
0.251925736665725708 2.78422737121582031 -1.1244657039642334
-1.16184532642364502 2.50809860229492188 -1.15702104568481445
-0.977899074554443359 4.88323974609375 -1.34823703765869141
1.13953649997711182 2.61108851432800293 -1.15189242362976074
-0.772408008575439453 4.68067026138305664 -1.70314276218414307
1.45645260810852051 4.04817724227905273 -0.824540019035339355
-1.48137760162353516 4.04330730438232422 -1.31049394607543945
0.0665605515241622925 1.7400585412979126 -0.943557798862457275
0.944252848625183105 4.35128498077392578 -0.402351111173629761
0.560572028160095215 2.22460031509399414 -1.04967403411865234
0.231492087244987488 1.34017348289489746 -1.14799046516418457
1.08584725856781006 4.1801762580871582 -0.200920581817626953
-0.626109004020690918 4.75972604751586914 -0.808591902256011963
1.09522831439971924 3.13589382171630859 -1.28015661239624023
0.2095070481300354 1.40106523036956787 -1.19544923305511475
-0.776304841041564941 3.42620515823364258 -0.595245599746704102
1.33989977836608887 3.8302156925201416 -0.468457818031311035
-1.34155356884002686 4.10934257507324219 -0.994500875473022461
-0.214163854718208313 3.02478170394897461 -1.08949875831604004
-0.870455145835876465 4.75473213195800781 -0.434659183025360107
-1.69726979732513428 3.55337142944335938 -0.79922562837600708
-0.628957748413085938 1.48889553546905518 -0.876141786575317383
1.57566606998443604 3.82594585418701172 -0.00210866332054138184
0.857721984386444092 4.30513095855712891 -0.657385110855102539
-1.9099876880645752 3.80829882621765137 -1.09095132350921631
-0.526250123977661133 2.68449783325195312 -1.08681261539459229
-0.984146833419799805 5.1610407829284668 -1.06305873394012451
1.21391797065734863 2.37350201606750488 -1.50492167472839355
0.87719261646270752 4.27366447448730469 -0.0981648862361907959
0.982179641723632812 4.23643779754638672 -1.1272275447845459
0.540600478649139404 1.97480559349060059 -1.13655757904052734
0.0214627999812364578 3.47982692718505859 -1.08995926380157471
-1.8110191822052002 4.91022586822509766 -1.41261613368988037
-2.70632457733154297 2.40814685821533203 -0.613934814929962158
0.693115353584289551 2.18431496620178223 -1.2506028413772583
-0.348293513059616089 1.88802075386047363 -1.02656006813049316
0.890111327171325684 2.56090092658996582 -1.19706106185913086
2.53605222702026367 3.47933053970336914 -1.36757576465606689
-1.17033755779266357 4.27752017974853516 -1.60073113441467285
0.940054535865783691 2.1122596263885498 -1.57153499126434326
1.40462148189544678 2.83159756660461426 -1.42538881301879883
-1.10433316230773926 4.44661283493041992 -0.257873594760894775
0.825761973857879639 2.31711101531982422 -1.58426284790039062
1.53346526622772217 4.11244916915893555 -1.37198662757873535
-0.821234822273254395 3.67499208450317383 -0.791701257228851318
1.82614421844482422 3.05241131782531738 -0.944486796855926514
-1.26474952697753906 4.43782615661621094 -0.752558112144470215
0.923213958740234375 3.15187406539916992 -1.07748973369598389
-1.15073692798614502 3.74290037155151367 -1.3820350170135498
-1.10073530673980713 2.35147738456726074 -1.08642566204071045
-0.071832902729511261 4.67828845977783203 -0.575909554958343506
0.628736257553100586 4.38472604751586914 0.04692116379737854
-1.19158506393432617 1.79680037498474121 -0.956561505794525146
-0.430723607540130615 3.19023346900939941 -1.08928525447845459
1.71744155883789062 4.1613154411315918 -1.06757831573486328
0.0610682219266891479 4.74201679229736328 -1.11407124996185303
-2.04137468338012695 2.9700627326965332 -1.02750170230865479
-0.811517119407653809 1.81250560283660889 -0.972338676452636719
-0.69338524341583252 1.29593801498413086 -1.08815169334411621
-1.7090376615524292 3.57834243774414062 -1.09723353385925293
1.44548475742340088 4.32836627960205078 -1.26594626903533936
1.56814873218536377 3.55275607109069824 -1.18777811527252197
-1.7174079418182373 3.15221285820007324 -1.22442543506622314
-0.0121659021824598312 2.20783352851867676 -1.01167953014373779
0.288493543863296509 3.8689110279083252 -0.410572558641433716
1.10256588459014893 2.59159708023071289 -1.16467881202697754
-0.78367149829864502 2.26195478439331055 -0.997607231140136719
1.58662045001983643 3.76723933219909668 -0.340707391500473022
-0.889393329620361328 4.53376388549804688 -0.835807085037231445
1.1278301477432251 2.37219595909118652 -1.55524516105651855
-0.301358342170715332 2.84444761276245117 -0.465756773948669434
0.748282849788665771 3.5883936882019043 -1.40629339218139648
1.14135622978210449 2.66700077056884766 -1.28765416145324707
-1.15383744239807129 4.93632602691650391 -0.55056297779083252
-0.236644253134727478 2.41785478591918945 -1.08936989307403564
0.468839585781097412 4.70590639114379883 -1.24098730087280273
0.610674738883972168 2.13003849983215332 -1.16675329208374023
-0.086787790060043335 1.3768085241317749 -0.98372960090637207
-0.824397563934326172 5.5846104621887207 -0.991120636463165283
1.76969122886657715 3.50960612297058105 -1.65040194988250732
-0.959602653980255127 4.89598321914672852 -1.34189891815185547
-0.221384122967720032 1.19014096260070801 -1.06505739688873291
-1.12379157543182373 4.50597858428955078 -0.356041461229324341
0.363354265689849854 4.78782510757446289 -1.29342377185821533
1.02653670310974121 2.31180763244628906 -1.53467369079589844
-0.300086855888366699 3.5381159782409668 -0.582095503807067871
-0.788208246231079102 5.06230545043945312 -0.657177925109863281
0.619925260543823242 2.10751199722290039 -1.41488528251647949
-1.17544770240783691 4.39189672470092773 -0.515385270118713379
-0.653199374675750732 2.04667496681213379 -1.08084428310394287
-1.24892628192901611 4.40535640716552734 -0.987006962299346924
0.646298229694366455 2.96552443504333496 -1.08040988445281982
-0.373066425323486328 3.92062735557556152 -1.22112917900085449
1.78558731079101562 3.79413747787475586 -1.01509428024291992
0.35980263352394104 2.85616207122802734 -1.1048123836517334
1.7774040699005127 3.79092955589294434 -0.257965743541717529
-1.23732542991638184 5.48308992385864258 -0.864445149898529053
-1.0725628137588501 3.31929206848144531 -0.512946367263793945
-0.606812477111816406 4.43758106231689453 -0.635066986083984375
-1.143088698387146 2.08138608932495117 -0.996169686317443848
0.812468290328979492 4.58562326431274414 -1.0972665548324585
0.429756462574005127 2.56091904640197754 -1.11032819747924805
-1.09613227844238281 2.82455730438232422 -0.774113178253173828
-1.18969261646270752 4.13444232940673828 -1.36684143543243408
1.13990521430969238 2.59903502464294434 -1.19061362743377686
1.16681206226348877 2.67832398414611816 -1.38840031623840332
1.12035703659057617 4.07842874526977539 0.0309115797281265259
1.61998879909515381 3.2749178409576416 -1.18826818466186523
0.394202202558517456 3.15588712692260742 -1.40889215469360352
-0.693824410438537598 2.67702889442443848 -1.08127307891845703
-0.339774549007415771 5.18347835540771484 -0.591196775436401367
0.783664226531982422 2.11797904968261719 -1.477508544921875
0.230725079774856567 2.27868890762329102 -1.41025090217590332
0.857830643653869629 4.38886451721191406 -1.28828465938568115
0.224184930324554443 5.00915098190307617 -0.828660786151885986
0.975692570209503174 3.70012235641479492 -1.15817737579345703
0.99106752872467041 4.13725471496582031 -0.587275266647338867
-1.69166374206542969 3.1738581657409668 -0.819071590900421143
-0.409724682569503784 1.40333342552185059 -0.963478982448577881
-2.21257996559143066 3.20099663734436035 -0.359182268381118774
0.863252997398376465 4.24469327926635742 -0.832309305667877197
0.771831274032592773 3.4721229076385498 -1.15810286998748779
-1.42363166809082031 4.22850847244262695 -1.42876887321472168
-1.49407708644866943 3.87157082557678223 -1.28305113315582275
-0.493590831756591797 2.87373113632202148 -1.05757594108581543
0.714302659034729004 2.24510788917541504 -1.34843170642852783
1.77157008647918701 1.83020710945129395 -1.135520339012146
-0.784252166748046875 2.30594539642333984 -1.07784557342529297
1.45738303661346436 3.95769691467285156 -1.39853525161743164
-0.0704900473356246948 2.614715576171875 -1.06618809700012207
1.7389681339263916 3.56844544410705566 -1.48246896266937256
0.364721983671188354 4.75455617904663086 -0.715720713138580322
0.0946120023727416992 1.97610986232757568 -1.02716100215911865
1.47140288352966309 1.61149334907531738 -1.66700196266174316
0.571936607360839844 4.61512660980224609 -1.36835324764251709
0.274151086807250977 4.45302677154541016 -0.441568374633789062
0.736110508441925049 3.44737744331359863 -1.19592165946960449
-0.425635457038879395 3.0480043888092041 -1.07410633563995361
1.5358428955078125 3.47436380386352539 -0.830868959426879883
-1.20899093151092529 4.51464080810546875 -0.967560112476348877
0.794159471988677979 3.63179469108581543 -0.928103446960449219
-0.141362875699996948 3.70183992385864258 -1.11835360527038574
-1.36785018444061279 4.2590174674987793 -0.30188867449760437
-0.877666056156158447 3.83231639862060547 -0.980428218841552734
0.682506084442138672 2.48168373107910156 -1.08283019065856934
1.56500470638275146 4.10268592834472656 -1.2212679386138916
0.0622501075267791748 1.53358304500579834 -1.00668954849243164
0.7067374587059021 2.19911932945251465 -1.20927894115447998
-1.09639835357666016 4.46320009231567383 -0.35664859414100647
-1.08412015438079834 3.61049151420593262 -0.619760692119598389
-2.00734519958496094 4.55602216720581055 -0.687033176422119141
2.18864989280700684 2.98311662673950195 -1.40088117122650146
-0.334604829549789429 3.88733935356140137 -1.21012365818023682
-1.16005349159240723 2.48425173759460449 -1.17469549179077148
-1.09554791450500488 4.90734243392944336 -1.21842586994171143
-0.727432668209075928 1.57305812835693359 -0.944659709930419922
2.56809306144714355 2.94130063056945801 -1.18295705318450928
0.332943886518478394 5.09339332580566406 -1.41486871242523193
-1.24771606922149658 4.9748539924621582 -1.22510623931884766
1.40957760810852051 2.63439488410949707 -1.45528256893157959
1.09906125068664551 4.19618368148803711 -0.380552172660827637
-1.61918234825134277 5.12387228012084961 -1.35426187515258789
-0.193561449646949768 3.14668178558349609 -1.0903700590133667
-0.150130674242973328 4.21775627136230469 -1.32997977733612061
1.63968324661254883 3.28936076164245605 -1.55099177360534668
1.85389959812164307 3.88299727439880371 -1.02877402305603027
