ply
format ascii 1.0
element vertex 72
comment vertices
property float x
property float y
property float z
end_header
0.191085174679756165 1.35156083106994629 -1.12210202217102051
0.270732343196868896 3.08172345161437988 -1.14681410789489746
-1.08208799362182617 2.42599344253540039 -1.08610856533050537
0.929245650768280029 2.32175254821777344 -1.11601698398590088
-0.313453942537307739 3.8990631103515625 -1.09707415103912354
-0.214887052774429321 2.20041847229003906 -1.20021569728851318
0.55043637752532959 1.82451415061950684 -1.13264834880828857
-0.761211752891540527 2.7979896068572998 -1.14898860454559326
0.79861980676651001 2.72719979286193848 -1.12194454669952393
-0.185642287135124207 2.76826858520507812 -1.15989100933074951
0.644361257553100586 2.22048425674438477 -1.10989189147949219
0.717566251754760742 3.49031519889831543 -1.09435498714447021
-0.719005465507507324 1.89773547649383545 -1.17326951026916504
-0.247272104024887085 3.34808778762817383 -1.18042778968811035
-0.730419516563415527 2.33954906463623047 -1.15692317485809326
-0.221995890140533447 1.83140087127685547 -1.18077945709228516
1.13105165958404541 2.65906786918640137 -1.08349382877349854
0.0544061549007892609 2.47382545471191406 -1.1523740291595459
0.7589607834815979 3.39253830909729004 -1.10058319568634033
0.146842613816261292 2.75668740272521973 -1.19146311283111572
0.706145048141479492 2.17065596580505371 -1.09261107444763184
0.237935677170753479 1.39795231819152832 -1.102516770362854
0.135684192180633545 1.99471104145050049 -1.15454483032226562
-0.33802497386932373 2.49315953254699707 -1.15670537948608398
0.703779280185699463 3.49049568176269531 -1.13047969341278076
-0.939528882503509521 2.12262439727783203 -1.15936541557312012
0.662706375122070312 3.52023625373840332 -1.14430248737335205
0.705936312675476074 2.20501184463500977 -1.09322988986968994
-0.337051957845687866 1.94980084896087646 -1.21021556854248047
0.504004895687103271 2.5478675365447998 -1.19111514091491699
-0.31160387396812439 3.78906679153442383 -1.12605023384094238
1.12911486625671387 2.64699673652648926 -1.08619916439056396
0.125190526247024536 3.21381473541259766 -1.13987576961517334
-1.09150016307830811 2.46134376525878906 -1.10482263565063477
1.13539505004882812 2.63347935676574707 -1.10046899318695068
-0.0298632588237524033 2.93349289894104004 -1.15147662162780762
0.613898694515228271 3.08466076850891113 -1.08101785182952881
0.752204537391662598 3.48494887351989746 -1.13898766040802002
-0.48523944616317749 2.70107293128967285 -1.1419680118560791
-0.446243792772293091 2.19346427917480469 -1.16993308067321777
0.427648425102233887 3.15777587890625 -1.08389294147491455
-0.102422669529914856 2.41440749168395996 -1.20296382904052734
-0.0247790049761533737 2.61984968185424805 -1.17724692821502686
-0.140681162476539612 3.16112422943115234 -1.17531764507293701
-0.796354770660400391 2.56004643440246582 -1.1553809642791748
0.196631163358688354 2.32359814643859863 -1.21244668960571289
0.705445528030395508 2.18667817115783691 -1.11752450466156006
0.173012897372245789 2.58234691619873047 -1.19777989387512207
0.66222679615020752 2.1934819221496582 -1.12363910675048828
1.11390781402587891 2.6398162841796875 -1.10560047626495361
-0.304439365863800049 3.87147045135498047 -1.0952070951461792
0.706909537315368652 2.14415788650512695 -1.10162556171417236
0.407444268465042114 3.28154444694519043 -1.14100515842437744
-0.0708099007606506348 1.94312596321105957 -1.16445779800415039
0.0607324689626693726 2.7604210376739502 -1.16557788848876953
1.0417168140411377 2.79275107383728027 -1.08026039600372314
-0.519989073276519775 2.37921571731567383 -1.16201841831207275
0.23566281795501709 1.35916101932525635 -1.10020959377288818
-0.267326384782791138 2.61002516746520996 -1.15179598331451416
0.164349943399429321 1.44339919090270996 -1.16154718399047852
-1.08019435405731201 2.4556586742401123 -1.11265647411346436
0.247955828905105591 2.86114954948425293 -1.16751480102539062
-1.06050670146942139 2.40600776672363281 -1.10150623321533203
0.381166994571685791 1.93857932090759277 -1.13581502437591553
0.508308529853820801 3.21156954765319824 -1.09437215328216553
0.773068070411682129 3.45815587043762207 -1.11717724800109863
0.733616471290588379 2.1992180347442627 -1.1357877254486084
1.12514030933380127 2.64435553550720215 -1.08322441577911377
-0.255540966987609863 2.32713961601257324 -1.16807377338409424
0.0980923920869827271 2.63973045349121094 -1.15694379806518555
-0.851322591304779053 2.21518993377685547 -1.16497886180877686
-0.245086401700973511 2.09614920616149902 -1.18217778205871582
