ply
format ascii 1.0
element vertex 256
comment vertices
property float x
property float y
property float z
end_header
-1.28763329982757568 3.92919421195983887 -0.71787339448928833
1.78511655330657959 2.98620915412902832 -0.168893873691558838
0.191051393747329712 1.3540036678314209 -1.11933732032775879
0.501329243183135986 4.82538795471191406 -0.303467988967895508
0.267401933670043945 3.08080863952636719 -1.14262950420379639
-1.09712648391723633 2.4453587532043457 -1.09047067165374756
-3.22719335556030273 3.03478789329528809 -0.705618143081665039
1.04022741317749023 4.38654994964599609 -0.993479311466217041
0.93339008092880249 2.31300997734069824 -1.11113262176513672
0.212839603424072266 4.28143882751464844 -0.971424460411071777
-0.186787500977516174 2.22712302207946777 -1.2117687463760376
-1.91909754276275635 3.00794315338134766 -0.98731309175491333
1.12058424949645996 3.30960583686828613 -1.13767683506011963
1.37815546989440918 2.32026481628417969 -0.509344696998596191
-0.310948997735977173 3.78284144401550293 -1.13052821159362793
0.376301944255828857 4.49404048919677734 -1.04970681667327881
0.0472263097763061523 0.839951992034912109 -0.980905652046203613
-1.4345012903213501 4.53125810623168945 -0.858408570289611816
2.54944324493408203 3.63501429557800293 -1.06299030780792236
0.414687544107437134 1.86932241916656494 -1.14104926586151123
0.742418467998504639 4.04015254974365234 -0.410073965787887573
-1.52842593193054199 2.21887922286987305 -1.01144599914550781
-0.752282679080963135 2.78237032890319824 -1.14931213855743408
-0.819749653339385986 3.51338553428649902 -1.25024211406707764
0.992421627044677734 2.73135852813720703 -1.08918046951293945
-0.205582469701766968 2.75419855117797852 -1.16007864475250244
-0.738565027713775635 4.08327722549438477 -1.07300662994384766
-0.378349184989929199 4.18421602249145508 -0.977177858352661133
0.504233121871948242 2.55646085739135742 -1.19026410579681396
0.711939573287963867 3.4888756275177002 -1.09361696243286133
-2.30090904235839844 2.27176523208618164 -1.00277590751647949
-0.842870593070983887 2.21115612983703613 -1.16284120082855225
1.18319272994995117 3.77250123023986816 -1.04381930828094482
-1.10683655738830566 2.89725279808044434 -0.995970606803894043
1.18295025825500488 2.09692215919494629 -1.03719592094421387
1.57003819942474365 3.65770411491394043 -0.486960440874099731
0.699599027633666992 4.07072162628173828 -0.730982840061187744
-3.68712997436523438 -1.73531174659729004 -1.37318837642669678
0.667078793048858643 2.18896150588989258 -1.10506546497344971
-0.243771404027938843 3.31770181655883789 -1.18437051773071289
-0.615130424499511719 0.518319606781005859 -1.02267372608184814
-0.719241678714752197 3.83775424957275391 -0.601988792419433594
-2.25985836982727051 2.5772700309753418 -0.811225295066833496
1.47649383544921875 4.31340789794921875 -0.546588242053985596
-0.16350284218788147 1.83242440223693848 -1.17982923984527588
-2.12110328674316406 4.18520069122314453 -1.01396441459655762
-1.44967937469482422 4.07452774047851562 -1.13940548896789551
1.13141751289367676 2.65880274772644043 -1.0826791524887085
0.863857865333557129 4.89160871505737305 -0.603185653686523438
0.126520037651062012 3.36005973815917969 -0.973373532295227051
-0.901496767997741699 3.14055252075195312 -0.717186212539672852
-1.35126173496246338 3.36711478233337402 -1.19199049472808838
0.769985020160675049 3.37956643104553223 -1.1226423978805542
0.0754723027348518372 2.4838709831237793 -1.15402889251708984
0.222267910838127136 3.66592836380004883 -0.499404072761535645
-0.567208468914031982 1.97682929039001465 -1.17953574657440186
0.899931609630584717 4.56677722930908203 -0.588839054107666016
-0.480086684226989746 4.41758537292480469 -0.995114266872406006
1.63707375526428223 4.30531501770019531 -0.892756164073944092
1.02270841598510742 3.28453874588012695 -0.553313612937927246
0.80721813440322876 4.05607795715332031 -1.16131532192230225
-3.14142441749572754 2.2091517448425293 -0.932902693748474121
-1.48967075347900391 4.14054489135742188 -0.820242226123809814
1.16264629364013672 3.80945944786071777 -0.78442847728729248
0.237818136811256409 1.39751756191253662 -1.09969830513000488
-0.3381233811378479 3.8574070930480957 -1.09952938556671143
-1.2711336612701416 3.68940591812133789 -1.11021018028259277
0.121448799967765808 2.77163529396057129 -1.17355918884277344
1.0222553014755249 2.97340583801269531 -1.12744772434234619
0.613237380981445312 3.54100775718688965 -1.14017665386199951
2.09678316116333008 2.24366044998168945 -0.750613570213317871
-1.56015825271606445 3.30252218246459961 -1.03670620918273926
-0.579383015632629395 3.94647026062011719 -1.02823209762573242
-0.38189360499382019 2.50666999816894531 -1.16097712516784668
-0.955886185169219971 3.95378828048706055 -0.954056084156036377
1.36712527275085449 4.16434478759765625 -1.07280528545379639
-2.84091448783874512 2.4245610237121582 -1.04019570350646973
1.00462901592254639 4.32069969177246094 -0.638828933238983154
-1.41383910179138184 1.9820556640625 -0.683774471282958984
1.90109682083129883 3.68756628036499023 -1.07634735107421875
2.00173377990722656 2.67915534973144531 -1.09717869758605957
-1.50748491287231445 -0.164525032043457031 -1.22758674621582031
-0.729778885841369629 2.28721475601196289 -1.1707146167755127
0.551805257797241211 4.61895322799682617 -0.610323250293731689
-0.871658921241760254 3.87075376510620117 -1.14853405952453613
-0.166568994522094727 3.44739151000976562 -0.446992605924606323
-1.23868274688720703 4.32013082504272461 -1.08436143398284912
-1.84294652938842773 3.76167535781860352 -1.06786906719207764
-2.11611223220825195 4.14179515838623047 -1.06157839298248291
1.11953961849212646 2.63748002052307129 -1.05656576156616211
1.276664137840271 3.66190099716186523 -1.13607490062713623
0.607633769512176514 4.15621185302734375 -1.00690639019012451
-0.599260866641998291 3.31689023971557617 -1.12316656112670898
-3.09421849250793457 1.92454063892364502 -1.26650810241699219
-2.14213800430297852 1.90633583068847656 -0.88413703441619873
-0.386875510215759277 1.77561593055725098 -1.12865066528320312
-1.03482961654663086 4.22133541107177734 -0.683972716331481934
-1.14255249500274658 4.39157342910766602 -0.887322843074798584
0.705460488796234131 2.14087700843811035 -1.09851634502410889
-0.0475136153399944305 2.95078778266906738 -1.1536942720413208
0.0384509563446044922 3.73443126678466797 -0.916501045227050781
0.516049206256866455 4.48390960693359375 -0.744359850883483887
1.89250850677490234 4.2431788444519043 -0.798477411270141602
0.178855076432228088 3.52054405212402344 -0.741651713848114014
0.10917980968952179 3.20127153396606445 -1.1381375789642334
-1.05946922302246094 2.40512299537658691 -1.10447454452514648
1.57918572425842285 3.86915779113769531 -0.388678252696990967
0.7724037766456604 4.69083118438720703 -0.317760229110717773
0.75539708137512207 3.54372668266296387 -1.12547779083251953
0.768505334854125977 3.46249270439147949 -1.13236606121063232
0.621642231941223145 3.08899235725402832 -1.08026134967803955
-0.281816840171813965 4.33663368225097656 -0.991717398166656494
1.14067339897155762 2.63488554954528809 -1.09839248657226562
1.10350525379180908 4.12334823608398438 -0.909877538681030273
-2.30715370178222656 3.5289156436920166 -0.745255172252655029
-0.806541800498962402 2.5661780834197998 -1.15651512145996094
0.70261991024017334 2.1918482780456543 -1.11779844760894775
1.49673116207122803 4.09763622283935547 -0.770567893981933594
-0.58370816707611084 2.45034694671630859 -0.943426311016082764
-0.0813347101211547852 3.89622116088867188 -1.03713548183441162
-0.0228878259658813477 2.64243602752685547 -0.922729253768920898
0.644106388092041016 2.21609377861022949 -1.10927975177764893
0.432412981986999512 4.64762210845947266 -0.845166504383087158
1.00309455394744873 3.50014257431030273 -0.670337319374084473
-0.432233929634094238 4.96171855926513672 -0.977647185325622559
0.465531229972839355 4.9755702018737793 -0.398086339235305786
0.144801110029220581 2.38682746887207031 -0.651623368263244629
-0.47647327184677124 2.69693779945373535 -1.14272427558898926
-0.0293369889259338379 3.26070451736450195 -0.735383749008178711
-0.327138274908065796 2.02832961082458496 -1.19098329544067383
-0.421518296003341675 3.75653696060180664 -0.418046236038208008
-0.114413216710090637 2.41338253021240234 -1.20204222202301025
0.434446811676025391 3.16278266906738281 -1.0826113224029541
-1.00042974948883057 4.2766108512878418 -0.972477376461029053
2.08674073219299316 4.13874101638793945 -0.917182028293609619
0.583159327507019043 3.85179615020751953 -0.593604981899261475
0.00164186954498291016 2.59079813957214355 -1.11314702033996582
-0.0289181172847747803 2.19879007339477539 -1.18493974208831787
0.112757086753845215 2.64702391624450684 -1.19760239124298096
-1.09232699871063232 2.46520352363586426 -1.10483884811401367
0.969313681125640869 4.19487190246582031 -0.22089722752571106
-2.95827126502990723 1.85667037963867188 -1.16590547561645508
-1.36227202415466309 3.31804156303405762 -0.80972975492477417
-1.01978480815887451 1.04346466064453125 -1.04421806335449219
0.810647547245025635 3.41936922073364258 -1.12065243721008301
1.48401093482971191 2.28772830963134766 -0.781405508518218994
-1.30605006217956543 3.88988041877746582 -1.16284763813018799
-0.486484646797180176 1.64873075485229492 -1.1103065013885498
0.285525500774383545 4.44763326644897461 -0.973174095153808594
-1.39993035793304443 3.45533490180969238 -1.07604587078094482
0.141026809811592102 2.00454998016357422 -1.15318572521209717
-2.02392578125 4.16866683959960938 -0.90779876708984375
-1.84761476516723633 2.77644157409667969 -0.993797481060028076
-0.442852139472961426 2.1914670467376709 -1.17120587825775146
0.971814513206481934 4.29219722747802734 -0.923754632472991943
-1.57438015937805176 2.94581699371337891 -1.04068231582641602
1.38731288909912109 4.03682756423950195 -0.916068851947784424
-2.98788809776306152 0.864061355590820312 -1.26717567443847656
-1.2777247428894043 3.98796653747558594 -0.997991323471069336
0.913971245288848877 4.32853126525878906 -0.52588963508605957
0.660407364368438721 2.20442771911621094 -1.09777772426605225
-0.0290732979774475098 2.61768174171447754 -1.17388927936553955
-1.91413915157318115 4.65860176086425781 -0.835791170597076416
0.301213443279266357 3.72891926765441895 -0.529845178127288818
1.11541056632995605 2.64208722114562988 -1.10486435890197754
1.32333481311798096 4.06522178649902344 -0.481936424970626831
-0.5200386643409729 4.55902433395385742 -0.703660249710083008
-1.42123055458068848 4.64487600326538086 -0.930444896221160889
1.21315550804138184 3.46770763397216797 -0.859715759754180908
-0.981611251831054688 3.25270843505859375 -0.888650894165039062
0.144870072603225708 1.63889932632446289 -0.647540569305419922
1.1671370267868042 4.00697612762451172 -1.09261739253997803
1.29420733451843262 0.559146404266357422 -1.34164071083068848
-0.144764840602874756 3.17305493354797363 -1.17731475830078125
0.506912767887115479 4.84842252731323242 -0.728078007698059082
-1.06604659557342529 4.44342041015625 -0.96890491247177124
1.75987470149993896 3.35269808769226074 -0.222775265574455261
-0.412306219339370728 4.2533411979675293 -1.05258917808532715
-1.60509622097015381 2.15246200561523438 -1.08949577808380127
-1.18261432647705078 4.07098913192749023 -1.14696300029754639
-1.83942270278930664 1.74139523506164551 -0.989758849143981934
1.12522804737091064 2.64519524574279785 -1.08385598659515381
-1.54656636714935303 2.76120471954345703 -0.991858422756195068
1.99501371383666992 2.18076133728027344 -0.94742882251739502
1.77477681636810303 3.95304751396179199 -0.92059248685836792
-0.531698405742645264 2.38080978393554688 -1.16313278675079346
0.414785385131835938 3.28038406372070312 -1.13539671897888184
0.431125164031982422 4.87212705612182617 -0.463060468435287476
-2.01615619659423828 3.65779685974121094 -0.695540308952331543
2.27856135368347168 3.18852663040161133 -0.770061731338500977
0.88093721866607666 4.36887693405151367 -0.736769318580627441
-1.09125542640686035 4.1226344108581543 -0.79872506856918335
-1.11979150772094727 3.8585822582244873 -0.923133373260498047
-0.719968438148498535 2.35319399833679199 -1.14765417575836182
-2.40528178215026855 2.55840325355529785 -0.671061396598815918
1.12122225761413574 4.25325202941894531 -0.574867725372314453
-0.668280303478240967 3.79157495498657227 -0.368877947330474854
1.15721321105957031 4.23465919494628906 -0.601880371570587158
0.888104438781738281 4.15612125396728516 -0.420147359371185303
-0.937483668327331543 2.68833160400390625 -1.00622546672821045
-2.00745153427124023 3.2912907600402832 -0.911663174629211426
-0.764958739280700684 2.78480195999145508 -0.639884233474731445
0.161799609661102295 1.44494330883026123 -1.159324049949646
0.88412010669708252 2.86390209197998047 -1.135162353515625
0.292812645435333252 2.81433677673339844 -1.16292130947113037
-1.73661446571350098 3.30900049209594727 -1.01697909832000732
-1.50877881050109863 3.00170493125915527 -0.981985569000244141
0.815120458602905273 3.29707193374633789 -0.522486507892608643
0.604612350463867188 3.90843319892883301 -0.620949923992156982
0.913375139236450195 3.15720367431640625 -1.1323169469833374
-1.07955622673034668 2.45773863792419434 -1.1123359203338623
-0.641943514347076416 3.70438623428344727 -0.91231989860534668
-1.00580883026123047 1.05921840667724609 -0.852509140968322754
-0.270185291767120361 2.61627197265625 -1.15152788162231445
-1.52103209495544434 3.27504873275756836 -1.11855506896972656
2.4820256233215332 2.61455154418945312 -1.02135908603668213
1.40694034099578857 3.68964242935180664 -1.00015640258789062
0.339034944772720337 4.32996177673339844 -0.550309658050537109
1.30526185035705566 4.26606988906860352 -0.91242825984954834
-1.56964111328125 3.4167487621307373 -1.00643503665924072
0.837123632431030273 4.47330474853515625 -0.64104151725769043
-1.00720524787902832 3.87566685676574707 -0.568684637546539307
-1.59604084491729736 2.46470785140991211 -0.974165499210357666
-1.2184600830078125 3.53102540969848633 -1.22648191452026367
-0.0556193552911281586 1.95083796977996826 -1.16636228561401367
0.235068291425704956 1.35979342460632324 -1.09687411785125732
-1.64612197875976562 0.108200550079345703 -1.36710000038146973
-3.02428627014160156 2.26408004760742188 -1.01227569580078125
1.41645538806915283 3.87417316436767578 -0.689190983772277832
1.68197214603424072 3.0996243953704834 -0.393225371837615967
-0.668962538242340088 4.39963722229003906 -0.847024083137512207
-0.797744154930114746 4.54358720779418945 -0.910670995712280273
0.475762486457824707 3.36140203475952148 -0.321110755205154419
0.434605956077575684 2.86060333251953125 -0.852838635444641113
-2.90133333206176758 0.859251499176025391 -1.10800063610076904
-0.360161155462265015 4.47410297393798828 -0.837778091430664062
-2.62505578994750977 1.52126491069793701 -1.2970808744430542
-0.828231513500213623 3.15765857696533203 -0.732584238052368164
-0.501582086086273193 4.01060152053833008 -0.589967906475067139
0.107018530368804932 4.05890512466430664 -1.0037459135055542
1.04267728328704834 3.98653984069824219 -0.595091760158538818
-1.36683011054992676 1.21808528900146484 -0.818442344665527344
-0.145861461758613586 3.26921439170837402 -0.49545365571975708
-0.966938495635986328 1.22225213050842285 -1.16521501541137695
-1.37430477142333984 3.21820712089538574 -1.17672634124755859
0.0152791272848844528 2.81480836868286133 -1.1715080738067627
-0.338323146104812622 2.34456014633178711 -1.1533958911895752
-1.4039759635925293 3.54006600379943848 -1.15821182727813721
1.48835790157318115 3.78304195404052734 -1.11309432983398438
-0.647375941276550293 4.3505859375 -0.594144701957702637
1.12109076976776123 2.65382719039916992 -1.09456026554107666
0.690770506858825684 3.1675422191619873 -1.1108783483505249
-2.82917594909667969 2.00039410591125488 -0.953936100006103516
1.29639101028442383 3.9514925479888916 -0.828490555286407471
0.751082003116607666 2.64332175254821777 -1.09725666046142578
0.910431504249572754 4.26350498199462891 -0.751003801822662354
