ply
format ascii 1.0
element vertex 256
comment vertices
property float x
property float y
property float z
end_header
-1.84227371215820312 2.9909358024597168 -0.555870354175567627
2.66297721862792969 3.4083411693572998 -1.39489376544952393
0.193881690502166748 1.27310287952423096 -1.05990564823150635
0.351290583610534668 4.5073089599609375 -1.09989011287689209
0.200850844383239746 3.15443825721740723 -1.1263580322265625
-1.23751842975616455 2.33656954765319824 -1.1133270263671875
1.12430894374847412 4.09671401977539062 0.0820329785346984863
-1.27967739105224609 4.85086202621459961 -1.49916267395019531
1.12513482570648193 2.19407463073730469 -1.56723248958587646
-1.66715312004089355 4.25997543334960938 -0.295168310403823853
0.899942636489868164 3.66749286651611328 -1.30920767784118652
-0.294927299022674561 2.20152854919433594 -1.05691027641296387
-0.385239064693450928 3.90737700462341309 -1.26809298992156982
-1.50176858901977539 3.64417338371276855 -1.41544675827026367
-0.858317852020263672 1.24386048316955566 -1.07746493816375732
1.02269065380096436 2.88764333724975586 -1.15055346488952637
-1.71451723575592041 2.63525581359863281 -1.04565668106079102
-0.991238534450531006 5.57504415512084961 -1.24777114391326904
0.482807308435440063 4.55994367599487305 -0.215153962373733521
-1.13438642024993896 4.0181422233581543 -0.72830432653427124
0.665815830230712891 2.0940098762512207 -1.07784342765808105
-0.704625606536865234 2.87820792198181152 -1.09050619602203369
2.66879057884216309 1.78800153732299805 -0.965506553649902344
0.419514447450637817 4.64441633224487305 -1.41869378089904785
0.360904842615127563 2.42838859558105469 -1.44806325435638428
1.91122102737426758 3.33347487449645996 -1.8598710298538208
0.756879746913909912 3.51164817810058594 -1.18916404247283936
-0.889415979385375977 4.63426399230957031 -1.69216573238372803
-0.992380619049072266 3.47928810119628906 -0.606557071208953857
-1.52302837371826172 4.872894287109375 -0.968280196189880371
1.39215242862701416 3.88541531562805176 -1.4388580322265625
1.68196308612823486 3.34408736228942871 -0.816524684429168701
-0.302917778491973877 1.58236372470855713 -0.9824981689453125
1.48803317546844482 2.8230431079864502 -1.36035799980163574
1.09337210655212402 2.51210260391235352 -1.0664215087890625
-0.868787765502929688 3.01332902908325195 -1.03889834880828857
-1.22155570983886719 4.12219095230102539 -1.31696033477783203
0.928893566131591797 3.223236083984375 -1.28303265571594238
-0.974700093269348145 3.28350019454956055 -0.689480483531951904
-1.77715802192687988 3.35856151580810547 -1.032600998878479
-0.113057747483253479 2.68871021270751953 -1.13176488876342773
0.741511702537536621 2.13869667053222656 -1.46714580059051514
-0.840409934520721436 1.8459320068359375 -0.939927637577056885
0.240043029189109802 1.51821184158325195 -1.14551210403442383
-0.839615345001220703 2.43360185623168945 -1.08354759216308594
1.59660792350769043 3.66223764419555664 0.0258198902010917664
-1.38253521919250488 3.67998385429382324 -0.337973326444625854
-0.203630641102790833 2.17763638496398926 -1.63011848926544189
0.887260675430297852 4.382232666015625 -0.460098981857299805
-1.47778582572937012 3.83347725868225098 -0.810940444469451904
-0.155790060758590698 3.71244001388549805 -1.13959038257598877
1.57791495323181152 3.36530518531799316 -1.36481547355651855
0.655595242977142334 2.49779582023620605 -1.02717208862304688
0.316926479339599609 4.94177341461181641 -1.38809525966644287
-1.1993328332901001 4.50162076950073242 -0.224570050835609436
1.91018462181091309 3.81423306465148926 -1.15638959407806396
-1.59332525730133057 4.46843385696411133 -0.680814743041992188
0.371710240840911865 2.9533836841583252 -1.083487868309021
1.13620316982269287 2.64325094223022461 -1.30914187431335449
-1.17270803451538086 2.49462628364562988 -1.12902462482452393
-0.361814975738525391 3.23806476593017578 -1.09752774238586426
1.42465555667877197 4.23528003692626953 -1.23748099803924561
0.466096043586730957 2.16416406631469727 -1.07226133346557617
-0.462595969438552856 1.21314334869384766 -1.0016472339630127
1.4451059103012085 3.89632439613342285 -0.116235896944999695
-1.31528568267822266 4.45161724090576172 -1.09563624858856201
0.807305753231048584 2.32957935333251953 -1.56058895587921143
-2.00898647308349609 4.61092281341552734 -1.52852892875671387
0.0911669433116912842 4.7165379524230957 -0.535811424255371094
-1.29095721244812012 3.92432451248168945 -1.60096168518066406
0.881453633308410645 4.4309539794921875 -1.15782630443572998
0.532255947589874268 4.22000694274902344 -1.28850364685058594
0.86995464563369751 4.31089401245117188 0.014086306095123291
-1.96436357498168945 3.45996212959289551 -1.6133582592010498
0.367524862289428711 4.85360193252563477 -1.03788971900939941
-0.462990432977676392 2.64164376258850098 -1.11774992942810059
2.96975851058959961 2.04437446594238281 -1.38831055164337158
1.98503148555755615 3.67343449592590332 -1.58592140674591064
0.296897858381271362 3.60096311569213867 -1.15802645683288574
-0.434867620468139648 3.78603124618530273 -1.22235095500946045
0.842718005180358887 3.35244035720825195 -1.13527226448059082
-2.31420636177062988 1.45883762836456299 -1.05660390853881836
-0.590968191623687744 2.05635738372802734 -1.10037386417388916
0.414397507905960083 4.82276582717895508 -0.498747318983078003
-0.506427645683288574 4.38179302215576172 -0.821100831031799316
-2.06424474716186523 3.42557382583618164 -0.331630468368530273
1.17479085922241211 2.61466240882873535 -1.10680305957794189
0.619513809680938721 2.17549490928649902 -1.25593864917755127
-1.16673004627227783 1.8712303638458252 -1.07646739482879639
-1.99088168144226074 3.63216400146484375 -1.02602136135101318
-1.03697144985198975 5.19439840316772461 -0.295734196901321411
-1.48152756690979004 3.90943598747253418 -1.17842864990234375
-2.40244913101196289 0.459904670715332031 -1.51229214668273926
0.17415347695350647 1.44087517261505127 -1.09218037128448486
1.69975447654724121 2.63762331008911133 -0.910995364189147949
1.07169234752655029 4.17867422103881836 -0.949891209602355957
1.28205060958862305 2.80030202865600586 -1.48739731311798096
0.65731126070022583 4.3992762565612793 -0.651047945022583008
-1.37031269073486328 4.52165031433105469 -1.05851972103118896
0.903328418731689453 2.55217099189758301 -1.19679474830627441
1.2237015962600708 4.0577397346496582 -0.270851314067840576
1.51618397235870361 3.61646866798400879 -1.25663518905639648
-1.03084814548492432 4.33649587631225586 -1.5763167142868042
1.29772663116455078 2.60198235511779785 -1.35145378112792969
0.311744958162307739 2.51655673980712891 -1.12628364562988281
-1.51357781887054443 3.84741520881652832 -0.489162623882293701
0.229594781994819641 4.72625064849853516 -0.756552755832672119
-1.5049978494644165 5.37829446792602539 -1.19710052013397217
0.775144279003143311 3.44964122772216797 -1.23722362518310547
-0.878080427646636963 4.53375244140625 -1.37732315063476562
-0.00504020415246486664 1.94895029067993164 -0.942601263523101807
-1.22912466526031494 4.91524362564086914 -1.2781296968460083
-0.57418900728225708 1.50366306304931641 -0.938666999340057373
-1.32062292098999023 4.17949104309082031 -0.776689827442169189
-1.3508141040802002 4.10771989822387695 -0.911480844020843506
0.47934114933013916 2.20592927932739258 -1.36670029163360596
1.09982872009277344 2.43120360374450684 -1.55293023586273193
0.762653350830078125 4.41579389572143555 -0.245251670479774475
0.647168338298797607 3.46613788604736328 -1.16231811046600342
1.34102547168731689 3.13459968566894531 -1.33834195137023926
-1.41828608512878418 5.11931324005126953 -0.880006253719329834
-0.428490102291107178 3.72156906127929688 -1.1291118860244751
0.0684463381767272949 2.31856036186218262 -1.05754566192626953
-0.941842257976531982 2.24812984466552734 -1.09443020820617676
-0.206826627254486084 2.97818922996520996 -1.10434591770172119
-0.845138788223266602 2.64615345001220703 -1.11819779872894287
1.27009677886962891 2.64939975738525391 -1.28628706932067871
-0.404869705438613892 2.9565584659576416 -1.06887638568878174
0.548542559146881104 2.00136065483093262 -1.13232100009918213
0.250571280717849731 1.39118421077728271 -1.19048452377319336
0.619746506214141846 4.69946479797363281 -1.0991138219833374
1.10168337821960449 3.48354887962341309 -0.906471431255340576
0.0760278552770614624 2.80237817764282227 -1.10598874092102051
-1.99621486663818359 1.06627774238586426 -1.48192048072814941
-0.311750888824462891 4.42522764205932617 -1.47162055969238281
-1.63102877140045166 3.72089576721191406 -0.636332571506500244
1.39632713794708252 4.02814817428588867 -1.25019311904907227
-1.90397131443023682 5.01212930679321289 -0.889072000980377197
-1.78058373928070068 3.1568455696105957 -1.23713922500610352
0.50549846887588501 4.45297956466674805 0.0463169664144515991
1.38210177421569824 3.73999547958374023 -0.391421496868133545
0.0499174594879150391 1.2620471715927124 -1.01923882961273193
-0.399998217821121216 4.69433736801147461 -0.578069627285003662
-0.270087659358978271 3.04020190238952637 -1.40024006366729736
-1.18923211097717285 5.03793668746948242 -0.453311026096343994
-0.92138904333114624 4.27804946899414062 -0.629261434078216553
1.43266403675079346 4.23611688613891602 -0.995116889476776123
-1.19787192344665527 3.73285531997680664 -0.704391717910766602
1.58920931816101074 3.69061040878295898 -1.48134362697601318
-1.62160336971282959 3.34771037101745605 -0.885973155498504639
-0.96019059419631958 1.61456513404846191 -0.992607414722442627
1.70553708076477051 3.86684131622314453 -1.24511635303497314
-0.0135458558797836304 4.89167118072509766 -0.358139634132385254
-1.10539352893829346 4.52838134765625 -0.855535268783569336
0.156996622681617737 1.69916987419128418 -1.09979152679443359
-0.359164029359817505 1.8815532922744751 -1.03198552131652832
-1.09604728221893311 4.19618988037109375 -0.354790329933166504
-0.18620675802230835 3.98911476135253906 -0.704190969467163086
1.74206256866455078 3.78783321380615234 -0.230353787541389465
0.766748905181884766 4.05578231811523438 -0.784582853317260742
0.696735024452209473 2.17173480987548828 -1.24657511711120605
0.811782598495483398 2.70154643058776855 -1.07895743846893311
-1.14632034301757812 2.49442672729492188 -1.12087631225585938
0.957550883293151855 2.15515708923339844 -1.5442042350769043
-0.349249213933944702 3.8512122631072998 -1.2042088508605957
-0.533936798572540283 1.77965962886810303 -1.03855609893798828
-0.718272984027862549 3.67136001586914062 -0.942979216575622559
-1.14904940128326416 3.40964651107788086 -0.70643770694732666
0.700649261474609375 2.13810181617736816 -1.07027506828308105
1.0537874698638916 2.57090568542480469 -1.13483452796936035
-1.68909966945648193 2.26636481285095215 -1.03907442092895508
1.14473879337310791 2.70969009399414062 -1.26939749717712402
0.0695731192827224731 3.52187395095825195 -1.10802292823791504
0.745633482933044434 2.96583175659179688 -1.09241998195648193
1.19537842273712158 2.36661195755004883 -1.49429893493652344
1.87773025035858154 3.52965831756591797 -1.42697370052337646
2.17398715019226074 3.35288739204406738 -1.69459116458892822
1.14941656589508057 3.23462796211242676 -0.715957581996917725
-1.36461591720581055 3.31781435012817383 -1.20486831665039062
-1.48773574829101562 4.23418951034545898 -1.13707387447357178
1.12013518810272217 2.61325168609619141 -1.17946696281433105
2.02518486976623535 3.25444388389587402 -1.13245809078216553
-1.77646028995513916 4.72304201126098633 -0.994757354259490967
-0.610533952713012695 3.18462991714477539 -1.07606661319732666
1.09948563575744629 2.78956460952758789 -1.35206007957458496
-1.51319003105163574 4.16654586791992188 -1.44231891632080078
-1.17280030250549316 2.48118281364440918 -1.1566927433013916
-1.36506319046020508 4.41669654846191406 -0.689540326595306396
0.56295323371887207 3.26597404479980469 -1.12727832794189453
0.271773636341094971 3.97925043106079102 -1.27624976634979248
0.949227571487426758 4.24264621734619141 -0.274075448513031006
-0.809416592121124268 3.44437456130981445 -1.37709724903106689
-0.550909638404846191 2.39891719818115234 -1.12355422973632812
-1.87237632274627686 4.76765060424804688 -1.42489719390869141
1.34852099418640137 3.93239617347717285 0.0502796173095703125
0.584391474723815918 2.12859487533569336 -1.2542184591293335
-1.47795438766479492 4.95920085906982422 -1.28855466842651367
-1.68072140216827393 3.61418032646179199 -1.22275853157043457
-1.31336736679077148 4.77776718139648438 -1.23903846740722656
-0.301108777523040771 2.37514758110046387 -1.10947096347808838
-1.02519667148590088 4.67641210556030273 -1.13135683536529541
1.63618636131286621 3.12293100357055664 -1.3200305700302124
0.0791284963488578796 2.27261996269226074 -1.39880716800689697
-0.139978021383285522 3.30427360534667969 -1.08770143985748291
1.02352380752563477 4.32969570159912109 -1.11913049221038818
-1.15947508811950684 4.64558744430541992 -0.528586983680725098
0.790777087211608887 4.08686637878417969 -1.27752721309661865
-1.09618687629699707 2.0665593147277832 -1.00542998313903809
-0.731401205062866211 3.26825571060180664 -1.01314616203308105
1.30626451969146729 3.57192873954772949 -1.08830845355987549
0.393884181976318359 4.80957794189453125 -1.34322214126586914
1.33615946769714355 2.62219095230102539 -1.51349902153015137
1.5365060567855835 4.03089523315429688 -1.21938490867614746
0.630796134471893311 4.61302709579467773 -1.26874005794525146
0.212661772966384888 1.47983884811401367 -1.23209214210510254
-1.69163155555725098 3.1974639892578125 -1.41461145877838135
2.760223388671875 1.14536547660827637 -1.4222186803817749
0.606699109077453613 2.13021707534790039 -1.0953371524810791
-0.0564159899950027466 1.40054178237915039 -0.970204412937164307
-0.80287635326385498 2.0519263744354248 -1.014565110206604
-1.2494356632232666 3.86772871017456055 -1.63192629814147949
1.1617656946182251 4.08379936218261719 -0.582583606243133545
-0.639518320560455322 1.26030158996582031 -1.03294944763183594
0.666369795799255371 2.1957242488861084 -1.3889305591583252
-1.49617159366607666 3.96517419815063477 -1.38999366760253906
1.5779564380645752 3.64983749389648438 -0.486564218997955322
0.466195195913314819 2.74378514289855957 -1.07648646831512451
-2.5204930305480957 2.93151593208312988 -0.457419395446777344
0.567918300628662109 2.30911660194396973 -1.02685821056365967
0.169623956084251404 4.70562267303466797 -0.756409764289855957
-0.603193521499633789 2.73824143409729004 -1.10279834270477295
-0.591497182846069336 4.71354150772094727 -0.4954567551612854
0.263895869255065918 1.38559138774871826 -1.12611770629882812
0.322037935256958008 4.35662078857421875 -0.519766509532928467
-1.2301410436630249 4.43044281005859375 -0.459335565567016602
1.35228347778320312 2.80974078178405762 -1.41166138648986816
-0.328444987535476685 2.69717955589294434 -1.13216018676757812
0.698300182819366455 2.19246149063110352 -1.09076094627380371
0.821284592151641846 3.46793198585510254 -1.16448760032653809
2.38413763046264648 3.58492207527160645 -1.18100559711456299
0.514153540134429932 5.08403301239013672 -1.16313266754150391
0.996406793594360352 2.50996112823486328 -1.50822710990905762
-0.348631054162979126 3.90802621841430664 -1.18812322616577148
-1.10342717170715332 5.11839914321899414 -1.19683945178985596
1.61606264114379883 2.93097114562988281 -0.862608909606933594
-0.805922865867614746 5.15734958648681641 -0.487791895866394043
-0.0241559296846389771 1.68179595470428467 -0.99803614616394043
-1.52241981029510498 3.95881390571594238 -0.990648031234741211
-2.69587326049804688 4.24290657043457031 -0.747748672962188721
-1.26132476329803467 3.47756290435791016 -1.06232213973999023
0.55434119701385498 4.64138174057006836 -0.724381089210510254
1.58892428874969482 4.02966547012329102 -1.00362575054168701
0.483588218688964844 4.70783185958862305 -0.340666294097900391
-1.22946429252624512 3.78802084922790527 -1.3571467399597168
-0.487183630466461182 3.54652547836303711 -1.21495223045349121
1.79398906230926514 3.44019174575805664 -1.56275486946105957
