ply
format ascii 1.0
element vertex 74
comment vertices
property float x
property float y
property float z
end_header
0.193881690502166748 1.27310287952423096 -1.05990564823150635
-1.23751842975616455 2.33656954765319824 -1.1133270263671875
1.12513482570648193 2.19407463073730469 -1.56723248958587646
-0.385239064693450928 3.90737700462341309 -1.26809298992156982
1.02269065380096436 2.88764333724975586 -1.15055346488952637
0.665815830230712891 2.0940098762512207 -1.07784342765808105
-0.704625606536865234 2.87820792198181152 -1.09050619602203369
0.360904842615127563 2.42838859558105469 -1.44806325435638428
0.756879746913909912 3.51164817810058594 -1.18916404247283936
1.09337210655212402 2.51210260391235352 -1.0664215087890625
0.741511702537536621 2.13869667053222656 -1.46714580059051514
0.240043029189109802 1.51821184158325195 -1.14551210403442383
-0.839615345001220703 2.43360185623168945 -1.08354759216308594
-0.155790060758590698 3.71244001388549805 -1.13959038257598877
0.655595242977142334 2.49779582023620605 -1.02717208862304688
1.13620316982269287 2.64325094223022461 -1.30914187431335449
-1.17270803451538086 2.49462628364562988 -1.12902462482452393
-0.361814975738525391 3.23806476593017578 -1.09752774238586426
0.466096043586730957 2.16416406631469727 -1.07226133346557617
0.807305753231048584 2.32957935333251953 -1.56058895587921143
0.296897858381271362 3.60096311569213867 -1.15802645683288574
-0.434867620468139648 3.78603124618530273 -1.22235095500946045
0.842718005180358887 3.35244035720825195 -1.13527226448059082
1.17479085922241211 2.61466240882873535 -1.10680305957794189
0.619513809680938721 2.17549490928649902 -1.25593864917755127
0.17415347695350647 1.44087517261505127 -1.09218037128448486
1.28205060958862305 2.80030202865600586 -1.48739731311798096
0.903328418731689453 2.55217099189758301 -1.19679474830627441
1.29772663116455078 2.60198235511779785 -1.35145378112792969
0.311744958162307739 2.51655673980712891 -1.12628364562988281
0.775144279003143311 3.44964122772216797 -1.23722362518310547
0.47934114933013916 2.20592927932739258 -1.36670029163360596
1.09982872009277344 2.43120360374450684 -1.55293023586273193
0.647168338298797607 3.46613788604736328 -1.16231811046600342
-0.941842257976531982 2.24812984466552734 -1.09443020820617676
-0.845138788223266602 2.64615345001220703 -1.11819779872894287
-0.404869705438613892 2.9565584659576416 -1.06887638568878174
0.548542559146881104 2.00136065483093262 -1.13232100009918213
0.250571280717849731 1.39118421077728271 -1.19048452377319336
0.0760278552770614624 2.80237817764282227 -1.10598874092102051
0.156996622681617737 1.69916987419128418 -1.09979152679443359
0.696735024452209473 2.17173480987548828 -1.24657511711120605
0.811782598495483398 2.70154643058776855 -1.07895743846893311
-1.14632034301757812 2.49442672729492188 -1.12087631225585938
0.957550883293151855 2.15515708923339844 -1.5442042350769043
-0.349249213933944702 3.8512122631072998 -1.2042088508605957
0.700649261474609375 2.13810181617736816 -1.07027506828308105
1.0537874698638916 2.57090568542480469 -1.13483452796936035
1.14473879337310791 2.70969009399414062 -1.26939749717712402
0.0695731192827224731 3.52187395095825195 -1.10802292823791504
0.745633482933044434 2.96583175659179688 -1.09241998195648193
1.19537842273712158 2.36661195755004883 -1.49429893493652344
1.12013518810272217 2.61325168609619141 -1.17946696281433105
-0.610533952713012695 3.18462991714477539 -1.07606661319732666
-1.17280030250549316 2.48118281364440918 -1.1566927433013916
0.56295323371887207 3.26597404479980469 -1.12727832794189453
-0.550909638404846191 2.39891719818115234 -1.12355422973632812
0.584391474723815918 2.12859487533569336 -1.2542184591293335
0.0791284963488578796 2.27261996269226074 -1.39880716800689697
-0.139978021383285522 3.30427360534667969 -1.08770143985748291
-1.09618687629699707 2.0665593147277832 -1.00542998313903809
1.33615946769714355 2.62219095230102539 -1.51349902153015137
0.212661772966384888 1.47983884811401367 -1.23209214210510254
0.606699109077453613 2.13021707534790039 -1.0953371524810791
0.666369795799255371 2.1957242488861084 -1.3889305591583252
0.466195195913314819 2.74378514289855957 -1.07648646831512451
0.567918300628662109 2.30911660194396973 -1.02685821056365967
-0.603193521499633789 2.73824143409729004 -1.10279834270477295
0.263895869255065918 1.38559138774871826 -1.12611770629882812
1.35228347778320312 2.80974078178405762 -1.41166138648986816
0.698300182819366455 2.19246149063110352 -1.09076094627380371
0.821284592151641846 3.46793198585510254 -1.16448760032653809
0.996406793594360352 2.50996112823486328 -1.50822710990905762
-0.348631054162979126 3.90802621841430664 -1.18812322616577148
