ply
format ascii 1.0
element vertex 256
comment vertices
property float x
property float y
property float z
end_header
-1.44137907028198242 2.88568377494812012 -0.678149700164794922
2.63715839385986328 3.38415431976318359 -1.47486209869384766
0.106119111180305481 1.27311146259307861 -1.06067705154418945
0.308310836553573608 5.25912046432495117 -1.31954085826873779
0.204635530710220337 3.16019892692565918 -1.12085163593292236
0.91249394416809082 4.23511314392089844 0.065700918436050415
-1.20000386238098145 2.41860079765319824 -1.1640242338180542
-1.32122564315795898 4.78310871124267578 -1.61928808689117432
1.08753335475921631 2.1507411003112793 -1.52738738059997559
-1.44732499122619629 4.45436525344848633 -0.327517896890640259
1.20661914348602295 3.74272298812866211 -1.39284229278564453
-0.375247716903686523 2.18498349189758301 -1.07417535781860352
-1.59417140483856201 3.67307734489440918 -1.38020944595336914
2.88140630722045898 0.950987100601196289 -1.20969128608703613
-0.402985304594039917 3.90468358993530273 -1.24243378639221191
-0.264103204011917114 3.50176715850830078 -0.594416916370391846
-1.01796364784240723 1.43067514896392822 -1.17337191104888916
-1.13120293617248535 5.51135492324829102 -1.01411986351013184
0.79429018497467041 3.42202425003051758 -1.23576962947845459
-1.0385662317276001 3.40485453605651855 -0.975149035453796387
0.638214826583862305 2.45536613464355469 -1.04559147357940674
-0.763704776763916016 2.83330988883972168 -1.05916798114776611
-1.68963873386383057 2.5899040699005127 -1.07145893573760986
1.49788069725036621 2.81913089752197266 -1.37346565723419189
0.316366791725158691 1.71392655372619629 -1.13730013370513916
-1.97529709339141846 2.52370309829711914 -1.87613725662231445
-0.822961688041687012 3.48659706115722656 -0.687605321407318115
1.56426537036895752 3.9294121265411377 -1.13675737380981445
0.667242944240570068 3.78558969497680664 -1.14446067810058594
1.25175166130065918 3.95768260955810547 -0.598989725112915039
-1.19240772724151611 4.6641545295715332 -1.01398348808288574
0.389307498931884766 2.23632264137268066 -1.47874581813812256
-0.415439307689666748 1.6130211353302002 -0.966543316841125488
-1.14200890064239502 4.13121414184570312 -0.243292674422264099
-1.75588893890380859 3.22367644309997559 -0.999415159225463867
1.14353358745574951 2.56087088584899902 -1.09520697593688965
-0.875557065010070801 2.04462623596191406 -1.02922916412353516
1.6026911735534668 3.66594147682189941 0.0223233513534069061
0.472933530807495117 4.70201015472412109 -1.41262388229370117
-0.493690371513366699 4.54390764236450195 -0.801336407661437988
0.682146012783050537 4.48260068893432617 -0.289780586957931519
0.0233768168836832047 2.56624984741210938 -1.0818706750869751
-1.35342121124267578 4.02446460723876953 -1.58718419075012207
-0.46784624457359314 3.22487759590148926 -1.10957491397857666
0.70385509729385376 2.13192510604858398 -1.10217642784118652
-1.76843547821044922 3.70230317115783691 -0.912184953689575195
-0.546564102172851562 1.0997689962387085 -1.14085173606872559
0.8201446533203125 3.03794622421264648 -1.09063386917114258
1.67274940013885498 3.34613680839538574 -1.78956770896911621
1.32186532020568848 3.97621536254882812 -0.00468608736991882324
-0.100770063698291779 3.67630624771118164 -1.15755271911621094
0.865941703319549561 2.31961822509765625 -1.59338736534118652
-1.35759687423706055 4.26065635681152344 -1.21127223968505859
-2.23685455322265625 4.31779336929321289 -0.709228515625
-0.948882222175598145 4.77966594696044922 -1.34952378273010254
1.13503181934356689 2.58586025238037109 -1.51638472080230713
-1.04581701755523682 4.4862666130065918 -0.589118540287017822
0.800595223903656006 2.07881808280944824 -1.45571398735046387
0.429992884397506714 4.48284721374511719 -1.00834357738494873
1.54304611682891846 3.36490297317504883 -1.39253556728363037
1.09699368476867676 2.7824552059173584 -1.23053538799285889
-0.820166707038879395 2.46645760536193848 -1.09356606006622314
-0.786713480949401855 5.00040483474731445 -1.53125905990600586
2.84577417373657227 2.50002241134643555 -1.49709916114807129
-1.45429444313049316 3.68883585929870605 -0.556753754615783691
0.998194277286529541 4.35793113708496094 -0.689014196395874023
0.509271144866943359 2.15145993232727051 -1.05569100379943848
0.275674492120742798 1.39613986015319824 -1.09673571586608887
0.651932835578918457 3.50065994262695312 -1.15947747230529785
-0.066624373197555542 4.75908994674682617 -0.573953568935394287
1.38512647151947021 4.30275917053222656 -1.26639378070831299
-0.421739071607589722 2.60100769996643066 -1.09795880317687988
-1.10521566867828369 2.44105625152587891 -1.64062559604644775
-2.53294467926025391 0.867319822311401367 -1.22100186347961426
0.714050829410552979 4.47998905181884766 -1.21626543998718262
-1.88718211650848389 3.10825228691101074 -1.29918348789215088
-1.23581540584564209 2.01439094543457031 -1.13543176651000977
1.34071254730224609 3.88410615921020508 -1.48989772796630859
-0.0303824171423912048 1.76927483081817627 -0.961148500442504883
-1.08075976371765137 5.06552743911743164 -1.1767202615737915
-1.14188551902770996 2.48621988296508789 -1.14681482315063477
-1.47814440727233887 3.97830867767333984 -1.27695167064666748
-0.434071630239486694 3.76561760902404785 -1.2201225757598877
0.960075676441192627 4.26668977737426758 -0.304698407649993896
1.84360229969024658 2.48090696334838867 -0.946417093276977539
0.349816262722015381 4.51177215576171875 -0.022675730288028717
-0.891077041625976562 3.80585670471191406 -0.773963034152984619
0.666060566902160645 4.92292928695678711 -1.1083519458770752
0.208711132407188416 1.46626472473144531 -1.22250640392303467
-1.41529297828674316 4.99988937377929688 -0.516335666179656982
-0.179406538605690002 2.96296072006225586 -1.10751128196716309
-1.17795944213867188 5.04878473281860352 -1.51720309257507324
0.634981095790863037 2.18354582786560059 -1.26492953300476074
-0.602526545524597168 1.99197077751159668 -1.08342850208282471
0.277943223714828491 2.74535274505615234 -1.1425546407699585
-0.512548983097076416 4.72058820724487305 -0.600549817085266113
-1.77680790424346924 2.8367762565612793 -1.12067818641662598
1.28451180458068848 3.9922032356262207 -0.991101443767547607
-0.625661134719848633 4.39863491058349609 -1.64446032047271729
0.421483725309371948 4.63970947265625 -0.477274835109710693
0.75794374942779541 3.49780941009521484 -1.18947076797485352
-0.772199690341949463 1.59083974361419678 -0.972610592842102051
-0.633690714836120605 2.83751487731933594 -1.72119045257568359
-1.14649295806884766 2.4310755729675293 -1.09595847129821777
-0.0898022055625915527 2.22981142997741699 -1.04095244407653809
-1.74981629848480225 3.51927995681762695 -1.1849822998046875
1.55047512054443359 3.86965560913085938 -0.0583034530282020569
0.887044429779052734 2.52837944030761719 -1.19557666778564453
0.201600655913352966 3.62037849426269531 -1.17640495300292969
-1.46519553661346436 3.94275617599487305 -0.874221205711364746
-1.16575992107391357 4.20951986312866211 -0.555050492286682129
-2.7621300220489502 0.785692214965820312 -1.69522678852081299
-0.286450237035751343 4.84470844268798828 -1.07244598865509033
-1.10461652278900146 1.73828697204589844 -1.08206558227539062
0.831291139125823975 0.866385936737060547 -1.77553057670593262
-0.12811511754989624 4.84873247146606445 -0.461417257785797119
1.11516726016998291 4.18293190002441406 -0.190781876444816589
-2.66103076934814453 2.89352035522460938 -0.423785567283630371
2.26570773124694824 2.57377958297729492 -1.16088664531707764
-1.38714492321014404 4.35981130599975586 -0.817083060741424561
-1.36586380004882812 4.73605537414550781 -1.37939250469207764
1.61585342884063721 3.76996517181396484 -1.36723244190216064
-1.27019238471984863 3.23637485504150391 -0.913889169692993164
-1.30065536499023438 4.09529781341552734 -1.20534265041351318
1.51634275913238525 3.00348472595214844 -1.10225534439086914
2.157440185546875 3.65908455848693848 -1.70093941688537598
1.1068347692489624 2.58231711387634277 -1.22286891937255859
-1.1565704345703125 4.24042701721191406 -1.54778945446014404
-0.134751930832862854 4.82027292251586914 -1.41378605365753174
-0.839734792709350586 3.9580693244934082 -0.600211858749389648
0.971445739269256592 2.08468008041381836 -1.57250642776489258
-0.977111518383026123 4.71186447143554688 -0.788241565227508545
0.368852436542510986 4.83587980270385742 -1.29558026790618896
-0.151268333196640015 1.44830179214477539 -0.968302726745605469
1.45345902442932129 3.8967440128326416 -0.325671613216400146
1.26026034355163574 2.77136683464050293 -1.53092837333679199
1.0614856481552124 2.53900623321533203 -1.44465124607086182
1.01316118240356445 2.71497869491577148 -1.14101386070251465
-0.474588751792907715 2.8761599063873291 -1.0766681432723999
-2.86999845504760742 2.1103358268737793 -0.675015687942504883
1.28532588481903076 4.03250789642333984 -1.28963172435760498
0.720316827297210693 4.51665878295898438 -0.526645123958587646
-1.20401310920715332 4.48052597045898438 -0.277321577072143555
0.898788094520568848 3.10054254531860352 -1.06051671504974365
0.761053085327148438 4.62708616256713867 -0.836289763450622559
-0.370331943035125732 3.89206480979919434 -1.17686307430267334
1.15346252918243408 2.36732292175292969 -1.60613715648651123
0.50163722038269043 4.29797840118408203 -0.0692213475704193115
0.0175753775984048843 1.95587277412414551 -1.05816042423248291
-2.23019194602966309 1.07654547691345215 -1.3514397144317627
1.15608036518096924 3.3705906867980957 -0.971044421195983887
-2.20562219619750977 4.72828149795532227 -0.906883001327514648
0.773725509643554688 5.106781005859375 -1.18133699893951416
-0.596343576908111572 3.05364489555358887 -1.08147096633911133
-1.79082822799682617 3.76402139663696289 -1.2082366943359375
0.569064080715179443 2.10058403015136719 -1.19636702537536621
0.359888941049575806 2.43173336982727051 -1.45725536346435547
0.302119702100753784 3.16502928733825684 -1.11379873752593994
-1.43454062938690186 3.93525600433349609 -1.44119417667388916
-0.680855989456176758 1.36052024364471436 -1.05094969272613525
-2.3212127685546875 4.66591167449951172 -1.49653875827789307
0.125923469662666321 2.12669086456298828 -1.43059790134429932
1.79164135456085205 3.94425725936889648 -1.13963961601257324
-1.32589316368103027 3.86373400688171387 -0.364204823970794678
0.698349595069885254 3.63309812545776367 -0.978415608406066895
-0.547713816165924072 2.46346640586853027 -1.11165916919708252
-1.63717591762542725 3.59352254867553711 -0.674137413501739502
-1.03830790519714355 0.750329256057739258 -1.19681525230407715
0.599351942539215088 4.67745161056518555 -1.23734152317047119
0.0955280214548110962 3.52971696853637695 -1.12280952930450439
0.648424029350280762 3.36608719825744629 -1.23456287384033203
0.693222403526306152 2.19907212257385254 -1.37884247303009033
0.550159811973571777 2.34026145935058594 -1.12297201156616211
-0.3360024094581604 3.84599661827087402 -1.20738279819488525
-0.323686838150024414 1.94123232364654541 -1.06318342685699463
-1.35575902462005615 4.14571237564086914 -1.07925271987915039
1.34138870239257812 2.89975333213806152 -1.40868687629699707
-1.24326956272125244 4.90013456344604492 -1.19170951843261719
1.46343088150024414 4.12189960479736328 -1.34443652629852295
-1.3387138843536377 5.05146598815917969 -0.767190635204315186
-0.727675914764404297 1.80451357364654541 -0.965463697910308838
2.71832084655761719 3.41216015815734863 -1.40770280361175537
-0.806920349597930908 3.26645445823669434 -1.42049717903137207
-1.38721919059753418 4.93623542785644531 -0.344626665115356445
-0.111959308385848999 3.44519853591918945 -1.34742748737335205
0.539314627647399902 2.72527956962585449 -1.04960072040557861
-0.622161149978637695 2.69408130645751953 -1.08525490760803223
1.12381398677825928 4.06707143783569336 -0.0175972282886505127
-0.356010138988494873 4.91701078414916992 -0.668313980102539062
0.443850994110107422 4.15423393249511719 -0.900060176849365234
0.727801859378814697 2.1698143482208252 -1.24475598335266113
-1.40417015552520752 3.01955604553222656 -1.66940164566040039
0.218399196863174438 1.31114685535430908 -1.10212445259094238
0.278087437152862549 4.4044947624206543 -0.382594108581542969
0.847286820411682129 2.20054054260253906 -1.47898459434509277
-1.2899930477142334 4.53759098052978516 -1.0731360912322998
-1.09606552124023438 4.52785301208496094 -0.83044743537902832
-0.211562290787696838 3.30913114547729492 -1.0799863338470459
-0.556609511375427246 2.14105081558227539 -1.11421430110931396
-1.53201186656951904 4.42471075057983398 -1.36111319065093994
-0.852049171924591064 2.61633110046386719 -1.12111437320709229
1.68629443645477295 3.80338621139526367 -0.374503791332244873
1.08736264705657959 2.58308005332946777 -1.21654224395751953
1.20578587055206299 4.11694240570068359 -0.591229498386383057
-2.19014930725097656 1.359588623046875 -1.33715724945068359
1.54801082611083984 4.31363248825073242 -1.05499744415283203
0.0246013253927230835 2.97887420654296875 -1.12644863128662109
-1.13823354244232178 2.05111837387084961 -1.04764175415039062
0.163541197776794434 1.55077147483825684 -1.05129992961883545
0.709370255470275879 3.0041511058807373 -1.44611334800720215
-1.29476559162139893 4.82229900360107422 -0.488782763481140137
-1.73307585716247559 4.93236398696899414 -0.885354578495025635
0.365988790988922119 4.1079254150390625 -1.30305469036102295
1.05037176609039307 2.28196167945861816 -1.55052006244659424
1.00818955898284912 3.76119065284729004 -1.23478257656097412
1.78431916236877441 3.65066075325012207 -1.47445917129516602
1.17974996566772461 2.58677196502685547 -1.10991406440734863
-0.247262626886367798 2.75977969169616699 -1.12979483604431152
-0.414185672998428345 1.26536107063293457 -0.924531042575836182
1.71784687042236328 2.20591306686401367 -1.34476041793823242
0.0837404578924179077 4.01840448379516602 -0.809723854064941406
1.69418525695800781 3.98925924301147461 -1.04723203182220459
1.54694414138793945 3.56045722961425781 -1.25385379791259766
0.611718893051147461 2.13631010055541992 -1.08859062194824219
1.39559686183929443 2.67548060417175293 -1.46318495273590088
-1.21216773986816406 4.94579410552978516 -0.32013702392578125
-1.09095394611358643 4.60938787460327148 -0.436224818229675293
-1.54457616806030273 2.7909698486328125 -0.759577035903930664
-0.0425978899002075195 2.74589109420776367 -1.14384067058563232
-1.82360804080963135 3.31587052345275879 -1.14547312259674072
0.324318170547485352 2.93353629112243652 -1.07320034503936768
0.235531732439994812 1.37586069107055664 -1.11936008930206299
-1.77966189384460449 5.19180059432983398 -1.20593166351318359
0.805597007274627686 4.37449789047241211 -0.0756731033325195312
-0.250357896089553833 1.94342231750488281 -0.939690828323364258
-1.24744164943695068 3.83631682395935059 -0.631849467754364014
0.700878262519836426 2.21646404266357422 -1.09782326221466064
-0.455034255981445312 3.02948927879333496 -1.06609249114990234
0.795803427696228027 3.48479294776916504 -1.17323780059814453
1.07432270050048828 2.49321699142456055 -1.06305074691772461
-1.74189817905426025 3.52437353134155273 -0.943614363670349121
-0.50971376895904541 1.4181593656539917 -0.980889737606048584
0.870905280113220215 4.38472414016723633 -0.462322473526000977
0.609286665916442871 4.62669181823730469 -1.36426937580108643
-1.18347406387329102 2.4572136402130127 -1.13226008415222168
0.207526594400405884 1.53667867183685303 -1.16125500202178955
1.03273952007293701 4.31074857711791992 -0.916921794414520264
-1.40915226936340332 4.07955074310302734 -1.43857264518737793
0.286599963903427124 4.89294862747192383 -0.829917788505554199
-1.14786648750305176 2.48473334312438965 -1.14552628993988037
1.53603649139404297 3.00744295120239258 -1.30197465419769287
-0.942704379558563232 5.63064908981323242 -1.26571130752563477
0.910313904285430908 3.05926179885864258 -1.14816510677337646
0.51084446907043457 3.13929462432861328 -1.58623027801513672
0.968323349952697754 4.24478816986083984 -0.0977774262428283691
-1.60285675525665283 3.99152183532714844 -0.817409932613372803
