ply
format ascii 1.0
element vertex 256
comment vertices
property float x
property float y
property float z
end_header
-1.76750445365905762 3.59830904006958008 -0.479553371667861938
1.96536839008331299 3.5080108642578125 -1.55590462684631348
-0.0191132314503192902 1.21100199222564697 -1.13695085048675537
0.138795211911201477 5.09439420700073242 -1.35534203052520752
0.0682021230459213257 3.10861086845397949 -1.13644039630889893
0.981004714965820312 4.29198026657104492 -0.0185192525386810303
-1.27260780334472656 2.29161477088928223 -1.18085300922393799
1.17299365997314453 2.07071232795715332 -1.54011905193328857
-1.42281150817871094 4.5524139404296875 -1.60056495666503906
-0.943194985389709473 4.86763620376586914 -0.33920702338218689
1.05079030990600586 4.25315475463867188 -1.22160971164703369
1.69667673110961914 3.76680254936218262 -0.541968882083892822
-0.370408117771148682 3.98510360717773438 -1.32576966285705566
-1.548500657081604 3.59009289741516113 -1.44234967231750488
-0.835676908493041992 5.29125404357910156 -1.20266222953796387
-0.221383333206176758 2.14011049270629883 -1.07379770278930664
0.0745288282632827759 4.77754688262939453 -0.491489529609680176
0.960472583770751953 2.91673612594604492 -1.22437751293182373
-0.895519495010375977 1.47848320007324219 -1.07284331321716309
-1.30021810531616211 4.22523069381713867 -0.792146086692810059
-1.81076085567474365 2.82432937622070312 -1.03544783592224121
0.6340484619140625 2.01059246063232422 -1.02403116226196289
-0.626335322856903076 2.88379359245300293 -1.11888694763183594
0.66367650032043457 3.55716443061828613 -1.18335258960723877
-0.48330610990524292 4.71313810348510742 -1.30791032314300537
0.492444396018981934 4.60454893112182617 -1.00163078308105469
-0.424573272466659546 5.25339508056640625 -0.555529236793518066
0.38403087854385376 2.49709153175354004 -1.39852893352508545
1.65658426284790039 3.9680030345916748 -1.2008364200592041
1.01546776294708252 4.09091806411743164 -0.618668794631958008
1.48114573955535889 2.59057068824768066 -1.31520068645477295
-1.16602003574371338 4.80351638793945312 -0.933984875679016113
0.643630623817443848 4.54221677780151367 -0.419490456581115723
1.50498342514038086 3.15226387977600098 -1.36059308052062988
1.05281233787536621 2.39097142219543457 -1.02952051162719727
-0.813514411449432373 2.01803040504455566 -1.09078574180603027
-1.17188155651092529 4.37511396408081055 -0.287716865539550781
1.59639143943786621 3.66319751739501953 -0.0241352319717407227
-1.79628002643585205 3.35941934585571289 -1.01395392417907715
0.651584446430206299 2.09821295738220215 -1.61139106750488281
0.263812124729156494 1.66195857524871826 -1.15380179882049561
-1.36162853240966797 4.04087638854980469 -1.60012555122375488
0.412816315889358521 4.6887354850769043 -1.49898433685302734
-0.313156425952911377 1.60118353366851807 -1.00006771087646484
-0.183301925659179688 2.63519668579101562 -1.12570357322692871
-1.49035215377807617 3.99988293647766113 -0.359550535678863525
-0.207259237766265869 5.11968708038330078 -1.01062703132629395
-1.62386083602905273 3.8745574951171875 -1.05400633811950684
-0.284352809190750122 3.44079351425170898 -1.1336052417755127
0.984691500663757324 2.51103901863098145 -1.5140082836151123
1.34966588020324707 3.9878997802734375 -0.270490139722824097
-0.802648723125457764 5.09243011474609375 -0.767269015312194824
-0.494479537010192871 1.19121658802032471 -1.09031975269317627
-1.06160414218902588 4.93539667129516602 -1.37760114669799805
-0.886777877807617188 2.50953221321105957 -1.11038100719451904
-1.32185065746307373 4.30313777923583984 -1.23322856426239014
0.577431023120880127 2.72732663154602051 -1.08869946002960205
1.86407268047332764 3.69582581520080566 -0.944298624992370605
0.242584347724914551 3.61304068565368652 -1.18875420093536377
0.865759670734405518 4.41196584701538086 -0.873839735984802246
1.64067316055297852 3.3455808162689209 -1.77380871772766113
0.228647410869598389 2.08278727531433105 -1.11162757873535156
1.27604448795318604 3.9635772705078125 -0.922588706016540527
0.165657162666320801 4.99446773529052734 -0.935073494911193848
-0.993495702743530273 4.5026702880859375 -0.617787539958953857
1.56078696250915527 3.63498401641845703 -1.38711714744567871
0.76837998628616333 4.58502101898193359 -1.37841737270355225
0.936423122882843018 3.31398391723632812 -1.30215823650360107
-1.1956249475479126 1.92088770866394043 -1.20471549034118652
0.499098449945449829 3.21869158744812012 -1.15638649463653564
1.21115219593048096 2.80560970306396484 -1.5696486234664917
-0.561892867088317871 2.32475399971008301 -1.11970782279968262
-1.87571549415588379 3.22286462783813477 -0.680047929286956787
-0.508469283580780029 4.91053199768066406 -0.984936952590942383
-0.0909297168254852295 5.15172958374023438 -0.646032094955444336
-0.102414481341838837 3.77069711685180664 -1.21639013290405273
0.129728168249130249 2.46329879760742188 -1.11453151702880859
-1.71481943130493164 3.74802088737487793 -0.161982715129852295
0.715118288993835449 2.34424734115600586 -1.12315618991851807
-0.561719596385955811 3.70142984390258789 -1.25258851051330566
0.17275063693523407 4.65585231781005859 -0.849534451961517334
-1.58103609085083008 3.83367466926574707 -0.655076503753662109
-0.171009182929992676 4.9535517692565918 -1.40800905227661133
1.32681787014007568 4.00824308395385742 -1.28704321384429932
0.490560233592987061 4.64651823043823242 -0.132206648588180542
-1.08890843391418457 4.62301254272460938 -1.2106095552444458
0.531035780906677246 4.86949396133422852 -1.20474350452423096
-0.560392260551452637 1.78625106811523438 -1.11892294883728027
0.365775585174560547 2.1722867488861084 -1.46230590343475342
0.431243836879730225 4.73839139938354492 -0.570052683353424072
0.181850343942642212 2.80330133438110352 -1.12612974643707275
-1.20796239376068115 2.59325408935546875 -1.0763404369354248
-0.415182113647460938 5.11888360977172852 -1.25736093521118164
1.19850146770477295 2.72998785972595215 -1.11270666122436523
-1.13340342044830322 4.67794990539550781 -1.63917231559753418
1.13327264785766602 4.2380833625793457 -0.873239994049072266
-1.51226222515106201 4.01558446884155273 -1.32760775089263916
-0.0489260479807853699 1.76186037063598633 -1.03594303131103516
0.861951291561126709 4.37364339828491211 -0.567597091197967529
0.414832383394241333 2.35100007057189941 -1.05912590026855469
0.263343989849090576 1.32473516464233398 -1.1014857292175293
1.10046803951263428 4.20645236968994141 -0.348634153604507446
-0.885594189167022705 4.7988133430480957 -0.771697461605072021
1.22107553482055664 3.06522154808044434 -1.30913472175598145
0.0393860191106796265 1.4858022928237915 -1.25066936016082764
-1.26327788829803467 4.13567256927490234 -0.507442295551300049
1.26339566707611084 3.93068361282348633 -0.572566032409667969
-1.39938747882843018 4.08890151977539062 -1.04201936721801758
-0.181233227252960205 2.94988727569580078 -1.11985683441162109
-0.763068258762359619 5.05940818786621094 -0.469835519790649414
-1.67288696765899658 3.60129404067993164 -0.805825233459472656
-0.632147789001464844 1.49873650074005127 -0.950909197330474854
1.60549116134643555 3.92744684219360352 -0.144376993179321289
0.665230095386505127 4.54900217056274414 -0.708006441593170166
-0.520853281021118164 5.2031397819519043 -1.00659584999084473
-0.485725224018096924 2.63759946823120117 -1.11861348152160645
-0.900080204010009766 5.05035209655761719 -1.0709376335144043
1.35958182811737061 2.42203927040100098 -1.50326704978942871
0.849455893039703369 4.31071758270263672 -0.285164773464202881
0.744522273540496826 4.509674072265625 -1.11089849472045898
0.430271238088607788 1.90620207786560059 -1.17951667308807373
0.0207008272409439087 3.38052177429199219 -1.1307826042175293
-1.27225315570831299 4.76081037521362305 -1.41265261173248291
-1.95232915878295898 3.40595841407775879 -0.412363320589065552
0.66315615177154541 2.0352027416229248 -1.29548454284667969
-0.298429965972900391 1.87943518161773682 -1.10543549060821533
0.787495672702789307 2.55045866966247559 -1.28776705265045166
2.00928235054016113 3.65203475952148438 -1.32832205295562744
-1.25668609142303467 4.2924652099609375 -1.59695243835449219
0.914774537086486816 2.04014396667480469 -1.63892519474029541
1.43769967555999756 2.85958647727966309 -1.43173074722290039
-1.05540013313293457 4.61532115936279297 -0.380438089370727539
0.765335142612457275 2.3892366886138916 -1.61106979846954346
1.54443788528442383 4.06951284408569336 -1.42807316780090332
-0.377472192049026489 4.99459409713745117 -0.76979827880859375
1.56889784336090088 3.82750177383422852 -0.765969753265380859
-1.2369542121887207 4.48234462738037109 -0.798263490200042725
0.891772150993347168 3.12138843536376953 -1.07187139987945557
-1.35481226444244385 3.74506258964538574 -1.3516538143157959
-0.959587156772613525 2.25926899909973145 -1.15273284912109375
0.0355349630117416382 4.88111019134521484 -0.736863613128662109
0.663103997707366943 4.43324041366577148 -0.14705502986907959
-1.10086178779602051 1.75115036964416504 -1.02930772304534912
-0.377871870994567871 3.1978762149810791 -1.11716830730438232
1.29693758487701416 4.23682689666748047 -1.07540702819824219
0.282983481884002686 4.95767879486083984 -1.16182351112365723
-1.91982150077819824 3.04933619499206543 -0.973497986793518066
-0.824341893196105957 1.76161110401153564 -1.07088816165924072
-0.724730610847473145 1.28969407081604004 -1.12833929061889648
-1.69890952110290527 3.57459259033203125 -1.10026669502258301
1.34671735763549805 4.25361061096191406 -1.33072519302368164
1.59084403514862061 3.69172263145446777 -1.14613080024719238
-1.77547752857208252 3.20442867279052734 -1.20709097385406494
0.0085068047046661377 2.2329862117767334 -1.08304619789123535
0.323548734188079834 4.60459470748901367 -0.3949698805809021
0.973101675510406494 2.64951610565185547 -1.15926027297973633
-1.38350486755371094 3.9648747444152832 -0.705664277076721191
1.4932558536529541 3.86034989356994629 -0.449679017066955566
-0.972672939300537109 4.54458713531494141 -0.853132903575897217
1.19215738773345947 2.31729555130004883 -1.63589775562286377
-1.24678564071655273 4.13617467880249023 -0.270173698663711548
-0.232641875743865967 4.74203157424926758 -1.31847071647644043
1.14720189571380615 2.75994563102722168 -1.34271812438964844
-1.02173852920532227 4.89486026763916016 -0.603002309799194336
-0.25801849365234375 2.41117382049560547 -1.12949788570404053
-0.0254108235239982605 5.04098844528198242 -1.13848590850830078
0.534656107425689697 2.21056723594665527 -1.20293641090393066
-0.189978420734405518 1.35853803157806396 -1.08001983165740967
-0.653353512287139893 5.38052129745483398 -1.07844173908233643
1.73916435241699219 3.53605222702026367 -1.68384873867034912
-0.849718093872070312 4.84677743911743164 -1.36040425300598145
-0.271378785371780396 1.13909232616424561 -1.1137082576751709
-0.640609264373779297 5.25065469741821289 -0.431784719228744507
0.309115469455718994 4.86721181869506836 -1.37192487716674805
0.994233369827270508 2.27589011192321777 -1.52640616893768311
-0.0896636694669723511 4.93150901794433594 -0.528963565826416016
-0.622505366802215576 5.22706937789916992 -0.803071320056915283
0.536638975143432617 1.95543551445007324 -1.47638094425201416
-1.16261804103851318 4.35268783569335938 -0.600430965423583984
-0.594260692596435547 2.0643305778503418 -1.12132883071899414
-1.25146424770355225 4.38839340209960938 -1.00301194190979004
0.634473562240600586 2.94013881683349609 -1.13680911064147949
-0.428042769432067871 3.91947841644287109 -1.11821389198303223
1.67811727523803711 3.8503267765045166 -1.01047253608703613
0.396641731262207031 2.86649799346923828 -1.13884031772613525
1.69511580467224121 3.82892513275146484 -0.324280470609664917
-0.826256990432739258 5.28493213653564453 -0.974464058876037598
-0.291749447584152222 5.10122966766357422 -0.460513681173324585
-0.900111675262451172 4.70836734771728516 -0.568240761756896973
-1.07229447364807129 1.98600852489471436 -1.03062403202056885
0.726563215255737305 4.71216535568237305 -1.20067012310028076
0.352502226829528809 2.55165958404541016 -1.1218411922454834
0.0342531800270080566 4.65894937515258789 -0.670862555503845215
-1.29931080341339111 4.12476587295532227 -1.35585761070251465
1.13146460056304932 2.46950387954711914 -1.21625673770904541
1.19249296188354492 2.56973624229431152 -1.49269759654998779
1.12223422527313232 4.1307377815246582 -0.146852880716323853
1.43815362453460693 3.86159253120422363 -1.02098584175109863
0.353471130132675171 4.73843765258789062 -1.09428167343139648
-0.705306768417358398 2.62167692184448242 -1.12196791172027588
-0.28357967734336853 5.18558311462402344 -0.782590925693511963
0.767196416854858398 1.97385275363922119 -1.48257005214691162
0.243186473846435547 2.33936834335327148 -1.37388908863067627
0.824126958847045898 4.38113737106323242 -1.35330057144165039
-0.0248776227235794067 5.10683631896972656 -0.903442740440368652
0.825544476509094238 4.30620861053466797 -1.05245757102966309
0.885988056659698486 4.22487640380859375 -0.717455029487609863
-1.7836151123046875 3.40203022956848145 -0.74118882417678833
-0.399986058473587036 1.37609899044036865 -1.05955684185028076
-1.83496391773223877 3.61933541297912598 -0.282398104667663574
0.474082082509994507 4.64467763900756836 -0.797642111778259277
0.727934479713439941 3.22897505760192871 -1.13968920707702637
-1.41083395481109619 4.26141214370727539 -1.46188592910766602
-1.52287304401397705 3.81685829162597656 -1.2640678882598877
-0.43715822696685791 2.82495355606079102 -1.05970227718353271
0.710591375827789307 2.18068385124206543 -1.43661558628082275
1.3705519437789917 3.86176586151123047 -0.76058882474899292
-0.749747753143310547 2.2539522647857666 -1.13088798522949219
1.43384873867034912 3.88100576400756836 -1.39971530437469482
0.0256593972444534302 2.6345212459564209 -1.10657596588134766
1.68289065361022949 3.48099231719970703 -1.41133618354797363
0.235265612602233887 4.84726381301879883 -0.822535276412963867
0.0449191778898239136 2.01241278648376465 -1.10449528694152832
-0.280531227588653564 4.94814968109130859 -1.07243824005126953
0.578497827053070068 4.62839508056640625 -1.41524159908294678
0.244679167866706848 4.75290441513061523 -0.621565163135528564
0.785992681980133057 3.41471457481384277 -1.23076105117797852
-0.373659402132034302 3.00628352165222168 -1.09722280502319336
1.2165151834487915 4.06847763061523438 -0.772451996803283691
-1.17029309272766113 4.56145858764648438 -0.960509896278381348
0.660007059574127197 4.39630365371704102 -0.823221921920776367
-0.135376900434494019 3.58434152603149414 -1.18972945213317871
-1.35700011253356934 4.25203084945678711 -0.388274252414703369
-1.24073922634124756 4.08880090713500977 -0.935465574264526367
0.586395442485809326 2.53755331039428711 -1.08185136318206787
1.51104509830474854 4.0792851448059082 -1.23677730560302734
-0.108068525791168213 1.5957951545715332 -1.09517765045166016
0.78824692964553833 2.15990877151489258 -1.24269306659698486
-1.09639012813568115 4.45015478134155273 -0.450604021549224854
-0.241038769483566284 4.95605611801147461 -0.630324840545654297
-0.977454543113708496 5.05425834655761719 -0.726825058460235596
1.77321887016296387 3.68723535537719727 -1.12697136402130127
-0.38347354531288147 3.81438755989074707 -1.26372897624969482
-1.21734619140625 2.46136999130249023 -1.21646547317504883
-1.05840253829956055 4.86810731887817383 -1.20852184295654297
-0.755641639232635498 1.59401917457580566 -1.05332791805267334
1.75916218757629395 3.79271197319030762 -0.831760168075561523
0.0887966901063919067 4.94633150100708008 -1.4477083683013916
-0.570652604103088379 5.18879604339599609 -1.19544589519500732
1.43005561828613281 2.63163113594055176 -1.48421847820281982
1.05164706707000732 4.26061296463012695 -0.567319273948669434
-0.350547850131988525 4.97319793701171875 -1.39844369888305664
-0.134688764810562134 3.12368488311767578 -1.11414051055908203
0.0697362124919891357 4.92221212387084961 -1.23407518863677979
1.55083894729614258 3.26438570022583008 -1.49112021923065186
1.37375724315643311 4.09839534759521484 -0.984028220176696777
