ply
format ascii 1.0
element vertex 256
comment vertices
property float x
property float y
property float z
end_header
-1.05750656127929688 2.75977516174316406 -1.05216312408447266
2.48867249488830566 2.49417924880981445 -2.38982748985290527
0.503862142562866211 -0.0409777089953422546 -1.77463245391845703
0.61177903413772583 4.28485870361328125 -2.20632052421569824
1.69072985649108887 3.24219655990600586 -0.659003257751464844
0.618272840976715088 1.9666973352432251 -1.67036306858062744
-0.904163002967834473 1.18885171413421631 -1.9665757417678833
1.74754738807678223 1.05809402465820312 -2.33846139907836914
0.0277484636753797531 4.22048759460449219 -0.695567190647125244
-0.530457735061645508 3.2159874439239502 -2.32525753974914551
1.35573804378509521 3.17920303344726562 -2.1576392650604248
1.91259765625 1.64219450950622559 -1.39769339561462402
2.4945986270904541 2.71618914604187012 -1.23919761180877686
0.932672321796417236 3.88933587074279785 -1.13710784912109375
0.317464768886566162 3.00954103469848633 -1.55386054515838623
0.181879311800003052 1.01166129112243652 -1.61023008823394775
1.18127834796905518 0.83397984504699707 -1.56623268127441406
-0.159128189086914062 3.87015247344970703 -1.59046530723571777
-1.21663975715637207 2.30507588386535645 -1.88001453876495361
1.46947157382965088 2.30529499053955078 -1.87579548358917236
-0.453173607587814331 3.3508293628692627 -0.72289586067199707
0.825751781463623047 1.36854076385498047 -2.31150913238525391
-0.187125012278556824 0.306001365184783936 -1.64038896560668945
2.16799020767211914 1.77774310111999512 -2.36709070205688477
2.08585381507873535 3.14496469497680664 -1.75806403160095215
-0.188507735729217529 1.65092313289642334 -1.7912290096282959
-0.191578134894371033 4.08623313903808594 -2.30986571311950684
-0.494130820035934448 3.13798284530639648 -1.54580092430114746
1.46549034118652344 3.3883512020111084 -1.36577022075653076
0.3649311363697052 4.41550827026367188 -1.50183725357055664
1.24222004413604736 1.5791778564453125 -1.64950656890869141
0.90522080659866333 2.66800260543823242 -1.67473578453063965
1.07049047946929932 3.81616353988647461 -2.06874465942382812
-0.0347002372145652771 2.60205626487731934 -2.01001405715942383
0.672635078430175781 4.19992637634277344 -0.684807121753692627
-0.408659636974334717 0.866927623748779297 -1.63818609714508057
-0.769200384616851807 2.75778055191040039 -2.01745295524597168
0.609278500080108643 0.589001595973968506 -1.70820021629333496
1.92871224880218506 2.98901867866516113 -1.19207823276519775
0.911137402057647705 0.773868203163146973 -2.1607048511505127
1.96495866775512695 2.31974244117736816 -2.2853546142578125
2.4024803638458252 2.69455122947692871 -1.79954993724822998
0.762338936328887939 1.33323550224304199 -1.59429609775543213
0.0848354175686836243 2.1578521728515625 -1.68389272689819336
-0.324452251195907593 3.76148080825805664 -1.02805995941162109
2.30281186103820801 2.52145504951477051 -0.795645952224731445
1.62250006198883057 1.23655223846435547 -1.83449351787567139
1.19152450561523438 3.62132859230041504 -0.717178583145141602
0.75731360912322998 4.01848220825195312 -1.60377669334411621
-0.788769781589508057 1.50871109962463379 -1.5552830696105957
-0.391406834125518799 3.6698145866394043 -2.0711367130279541
-0.98939967155456543 2.69935226440429688 -1.58204054832458496
1.30911600589752197 1.26739203929901123 -2.4297330379486084
0.992581069469451904 0.307952672243118286 -1.57068085670471191
0.070862993597984314 4.39527368545532227 -1.9439539909362793
0.278496354818344116 1.62187361717224121 -1.61529147624969482
0.177735641598701477 4.4438776969909668 -1.05410659313201904
1.19113075733184814 2.03309106826782227 -1.60142278671264648
1.51707804203033447 3.63821315765380859 -1.76364660263061523
0.477165400981903076 4.12685346603393555 -1.11526727676391602
-0.749710202217102051 3.07295608520507812 -1.1432570219039917
0.410840988159179688 2.73297333717346191 -1.91498327255249023
1.08509671688079834 3.74239015579223633 -1.54202651977539062
1.60463368892669678 1.76794493198394775 -1.82839345932006836
0.685624599456787109 0.232823207974433899 -2.09356975555419922
1.19060134887695312 1.27642393112182617 -2.00882673263549805
1.82478845119476318 1.47438418865203857 -2.30437827110290527
-1.18388915061950684 2.39275956153869629 -1.38793694972991943
-0.164741262793540955 1.2454599142074585 -1.68492960929870605
1.60221982002258301 2.13213253021240234 -1.4983983039855957
1.30847394466400146 0.868287205696105957 -2.3841087818145752
0.192865908145904541 0.46987500786781311 -1.64718055725097656
2.03727316856384277 3.00762748718261719 -0.734748482704162598
0.0930576622486114502 4.06959819793701172 -1.12694120407104492
1.6801292896270752 3.24831247329711914 -1.68340349197387695
2.05713510513305664 2.86550068855285645 -2.06269192695617676
-0.433719336986541748 3.36662387847900391 -1.09445297718048096
0.568111598491668701 2.36747312545776367 -1.70422148704528809
-0.499748200178146362 3.34006261825561523 -1.86874258518218994
2.18149542808532715 2.77084231376647949 -1.48177647590637207
1.31624901294708252 3.61621809005737305 -1.09306681156158447
0.0234022215008735657 4.19298076629638672 -1.6061248779296875
-0.3392200767993927 3.5132598876953125 -1.5891721248626709
0.897932350635528564 1.7410271167755127 -1.6025625467300415
-0.523610591888427734 1.54477119445800781 -1.84730267524719238
0.329993396997451782 4.47682046890258789 -0.70140230655670166
0.818017423152923584 1.00213515758514404 -1.71242761611938477
-0.081859096884727478 3.94877243041992188 -1.95715868473052979
2.19295430183410645 2.83429574966430664 -0.965794861316680908
2.34268283843994141 2.15194511413574219 -2.42230820655822754
1.77162730693817139 1.3220515251159668 -1.49028956890106201
1.6251826286315918 3.24293923377990723 -1.02510607242584229
-0.743128359317779541 2.99465632438659668 -0.813652157783508301
0.894798338413238525 2.28136444091796875 -1.60002636909484863
0.864185810089111328 3.83719611167907715 -0.802322626113891602
-0.517055511474609375 1.19093680381774902 -1.85719406604766846
0.0914812609553337097 0.125180378556251526 -1.71841979026794434
1.57279801368713379 2.52914237976074219 -1.59382224082946777
-0.0324406325817108154 0.74614715576171875 -1.6259765625
1.39473247528076172 1.10046279430389404 -1.60929608345031738
0.442521840333938599 4.10611343383789062 -1.75278627872467041
1.3116145133972168 3.51706981658935547 -2.07083725929260254
-0.0956268757581710815 3.9254305362701416 -0.796019256114959717
-0.77851712703704834 2.89489841461181641 -1.71001338958740234
0.765695631504058838 3.9977569580078125 -2.13617610931396484
-1.30635106563568115 2.66139745712280273 -0.833385586738586426
1.50957679748535156 1.40046799182891846 -2.06546139717102051
0.889736294746398926 0.669469654560089111 -1.83445119857788086
0.579963386058807373 4.43323612213134766 -0.92394864559173584
0.0125605165958404541 2.87931084632873535 -1.61189532279968262
1.9727017879486084 3.1796715259552002 -2.09440517425537109
1.44744372367858887 3.44531154632568359 -0.863150358200073242
-0.461005568504333496 3.8249516487121582 -2.34544491767883301
0.542568087577819824 1.00929749011993408 -1.62407374382019043
1.11879646778106689 2.28934979438781738 -1.79538094997406006
1.77419745922088623 3.21564126014709473 -1.37119805812835693
-0.727441191673278809 2.96775913238525391 -2.28634071350097656
2.45578455924987793 2.5777740478515625 -1.5471874475479126
0.8357735276222229 0.0434777513146400452 -1.5281597375869751
-1.03968405723571777 2.60286164283752441 -1.88846254348754883
0.161083206534385681 2.9087986946105957 -1.9380565881729126
-0.617123544216156006 3.01350545883178711 -1.94922065734863281
1.31983327865600586 0.991064667701721191 -2.04425764083862305
0.037259221076965332 1.86668646335601807 -1.6600501537322998
1.06997418403625488 1.2430417537689209 -1.71775341033935547
2.36456298828125 2.65547728538513184 -2.13351655006408691
-0.86382758617401123 2.85494446754455566 -1.31658685207366943
1.05249667167663574 1.02149355411529541 -2.30800318717956543
0.24838806688785553 1.34482455253601074 -1.59450924396514893
-0.203181639313697815 3.80862569808959961 -1.29864275455474854
0.476845890283584595 0.276553422212600708 -1.69983971118927002
-0.984701573848724365 2.80042243003845215 -0.740746974945068359
1.85783350467681885 1.80357754230499268 -2.37575125694274902
0.680864334106445312 4.09695816040039062 -1.33247756958007812
0.251560002565383911 4.25548076629638672 -1.24149644374847412
0.554152786731719971 1.72697877883911133 -1.57527518272399902
0.784016847610473633 4.06737232208251953 -0.990926563739776611
0.4589882493019104 4.36221122741699219 -1.87239634990692139
0.780891478061676025 0.0726679414510726929 -1.86015260219573975
2.03291797637939453 3.00325846672058105 -1.4607163667678833
-0.265814721584320068 3.69054436683654785 -1.7964245080947876
1.30125570297241211 3.53156280517578125 -1.54978573322296143
1.03372466564178467 4.09539270401000977 -1.73898482322692871
2.2154991626739502 2.43798422813415527 -2.15278840065002441
-0.358002215623855591 3.51260566711425781 -1.32134222984313965
1.12204205989837646 0.842908799648284912 -1.86501073837280273
0.32321050763130188 2.47128510475158691 -1.74142336845397949
0.919776618480682373 3.78168582916259766 -1.77089524269104004
0.357067763805389404 0.811566948890686035 -1.61382746696472168
2.05048012733459473 2.02788305282592773 -2.3435218334197998
2.5863802433013916 2.58796787261962891 -1.96110188961029053
1.69834995269775391 2.31662797927856445 -1.66581451892852783
0.759352445602416992 0.384489715099334717 -1.709403395652771
0.343189269304275513 2.04295468330383301 -1.73469305038452148
-0.34944993257522583 0.605348467826843262 -1.65825021266937256
1.63475275039672852 2.06969499588012695 -1.79914641380310059
-0.0226013734936714172 1.4654085636138916 -1.67273950576782227
1.23509740829467773 3.67839360237121582 -1.76109528541564941
0.948082625865936279 1.60328876972198486 -2.13547420501708984
-0.403568148612976074 3.41832876205444336 -2.13965702056884766
-1.15888059139251709 2.49086451530456543 -1.12572264671325684
-0.0174057036638259888 4.02197170257568359 -1.42507755756378174
2.14957046508789062 2.77879667282104492 -1.81014335155487061
-0.810383915901184082 1.27325701713562012 -1.59768915176391602
1.34912312030792236 1.79931533336639404 -1.66641902923583984
-0.684240281581878662 3.24601173400878906 -1.01797795295715332
1.46855378150939941 1.52934682369232178 -1.73838162422180176
0.729441463947296143 4.17864847183227539 -1.92306435108184814
-0.361869782209396362 3.59609484672546387 -0.681204795837402344
-0.708896160125732422 3.00307083129882812 -1.43069446086883545
1.60898363590240479 1.33026504516601562 -2.37642860412597656
0.926419377326965332 3.84689664840698242 -1.3975529670715332
1.07427966594696045 1.03250133991241455 -2.03999042510986328
-0.01748666912317276 4.18831348419189453 -1.95260035991668701
1.32487142086029053 1.27300536632537842 -1.73624598979949951
1.49980461597442627 3.40377545356750488 -1.96705365180969238
2.63814353942871094 2.68829178810119629 -1.68609762191772461
1.93210411071777344 1.22402465343475342 -2.3321845531463623
-0.70608675479888916 1.3910142183303833 -1.88157284259796143
-1.0787733793258667 2.5133051872253418 -1.63071417808532715
-0.201206356287002563 0.997049391269683838 -1.60187804698944092
0.931292057037353516 2.0359649658203125 -1.61296486854553223
-0.635904490947723389 0.993237674236297607 -1.82181763648986816
2.22806668281555176 2.72833991050720215 -1.22880840301513672
1.44038188457489014 3.38031101226806641 -1.68570303916931152
0.421617031097412109 4.18647861480712891 -1.47649574279785156
1.38098752498626709 2.06617975234985352 -1.70222008228302002
1.18199396133422852 3.67520833015441895 -1.31152439117431641
-1.04885435104370117 2.61244511604309082 -1.35987544059753418
-0.275745749473571777 3.97548198699951172 -2.08397841453552246
0.705861151218414307 2.76885008811950684 -1.7904428243637085
-0.125550419092178345 3.94457292556762695 -1.04675161838531494
2.16182494163513184 1.52892577648162842 -2.36549210548400879
2.37770199775695801 2.82883310317993164 -0.77304530143737793
1.94291067123413086 2.93868684768676758 -1.82434725761413574
1.4775928258895874 1.16595673561096191 -2.30921626091003418
1.8388068675994873 3.04508805274963379 -0.851190686225891113
-0.364948123693466187 1.38478553295135498 -1.82966959476470947
1.10773968696594238 3.71744871139526367 -1.07124817371368408
-0.105506181716918945 4.07332611083984375 -1.72607243061065674
-0.566613554954528809 3.19287657737731934 -2.04718565940856934
0.401929676532745361 2.90404677391052246 -1.71867823600769043
0.39272502064704895 4.32703590393066406 -1.04798758029937744
1.68297386169433594 3.37112712860107422 -1.25673246383666992
-0.855226218700408936 2.90215325355529785 -1.06186258792877197
-0.012815624475479126 4.07954978942871094 -0.88049238920211792
1.38651204109191895 1.16312873363494873 -1.92759108543395996
1.32153093814849854 1.46113681793212891 -1.95954716205596924
2.45224928855895996 2.90846538543701172 -1.714324951171875
-0.473679393529891968 3.15158796310424805 -0.754902303218841553
0.426584720611572266 4.16393709182739258 -0.808312535285949707
2.05187344551086426 2.83873701095581055 -1.30367004871368408
-0.395243167877197266 3.56091189384460449 -0.9674568772315979
0.89196467399597168 3.94974207878112793 -1.89721965789794922
-0.663603425025939941 3.08758854866027832 -1.73978126049041748
0.271203100681304932 4.42164278030395508 -1.69192218780517578
1.18521320819854736 3.8749995231628418 -1.74508607387542725
-0.131523072719573975 0.536232054233551025 -1.61749613285064697
1.00164151191711426 1.55856692790985107 -1.6351085901260376
-0.476022243499755859 3.34442853927612305 -1.6587369441986084
0.643457710742950439 4.18226337432861328 -1.60819375514984131
1.43686592578887939 3.46534037590026855 -1.12862479686737061
-0.0694685950875282288 2.81088972091674805 -1.89700222015380859
1.02162599563598633 2.45362138748168945 -1.74483919143676758
1.13157594203948975 0.729463160037994385 -2.16114401817321777
-0.735523581504821777 2.71381258964538574 -2.26057219505310059
0.713134944438934326 2.17998051643371582 -1.67490625381469727
2.42857575416564941 2.78005194664001465 -0.977404534816741943
0.331376105546951294 4.4556732177734375 -1.2423088550567627
0.466039448976516724 1.28979182243347168 -1.58983290195465088
1.39991724491119385 3.34114503860473633 -0.698112308979034424
-0.594243347644805908 1.65776610374450684 -1.56599211692810059
-0.560131728649139404 3.1010746955871582 -1.22645354270935059
-0.615561842918395996 3.09882092475891113 -1.00785553455352783
1.36312675476074219 2.47517037391662598 -1.77055132389068604
0.264653146266937256 0.280502438545227051 -1.67496490478515625
0.431557059288024902 1.88575422763824463 -1.62407922744750977
0.987662911415100098 1.03394746780395508 -1.81400394439697266
1.78985559940338135 1.64545547962188721 -1.60865402221679688
0.0972009375691413879 4.24025297164916992 -1.02052485942840576
2.2221066951751709 2.63494014739990234 -1.68832004070281982
1.05063390731811523 3.7382817268371582 -0.863121449947357178
-0.370459139347076416 3.55062723159790039 -1.87907099723815918
1.88946127891540527 3.2122499942779541 -1.73997795581817627
0.0182380806654691696 1.12396359443664551 -1.61167895793914795
1.09410595893859863 1.85252881050109863 -1.58590686321258545
-0.250661402940750122 3.79580163955688477 -0.729085445404052734
0.578997135162353516 4.22910785675048828 -0.936254501342773438
1.22825396060943604 0.937793433666229248 -1.71509337425231934
1.3033909797668457 3.53488779067993164 -1.33670353889465332
2.21382522583007812 2.68510651588439941 -2.23972558975219727
0.605041205883026123 0.18805888295173645 -1.77605390548706055
-0.231802850961685181 3.88812708854675293 -1.77114450931549072
1.13969993591308594 3.63010096549987793 -2.08397793769836426
2.3986518383026123 2.71183466911315918 -1.41764175891876221
2.03167247772216797 2.92835426330566406 -0.914692223072052002
