ply
format ascii 1.0
element vertex 256
comment vertices
property float x
property float y
property float z
end_header
-1.74381780624389648 3.60087490081787109 -0.430217206478118896
1.93182337284088135 3.55068731307983398 -1.43614017963409424
-0.0286262929439544678 1.19077968597412109 -1.13404810428619385
0.0789964720606803894 5.07139062881469727 -1.32002079486846924
0.0849265307188034058 3.19451999664306641 -1.13164317607879639
0.947046756744384766 4.27214956283569336 -0.0967524945735931396
-1.31030750274658203 2.26001620292663574 -1.21463167667388916
-1.35502171516418457 4.55382108688354492 -1.58349442481994629
1.14267587661743164 2.12799978256225586 -1.48720860481262207
-0.959236562252044678 4.87666177749633789 -0.293652147054672241
0.929941117763519287 4.21155452728271484 -1.27200162410736084
-0.293349146842956543 2.18157958984375 -1.12218642234802246
-1.58989715576171875 3.61719155311584473 -1.40196108818054199
1.68656980991363525 3.75349307060241699 -0.548744559288024902
-0.374624729156494141 3.97860002517700195 -1.32485675811767578
0.122509509325027466 4.73360061645507812 -0.460864871740341187
-0.962990760803222656 1.41077995300292969 -1.19213283061981201
-0.802240967750549316 5.28967666625976562 -1.09311056137084961
0.93966829776763916 3.34787392616271973 -1.27263116836547852
-1.20484185218811035 4.09889984130859375 -0.835268914699554443
0.5704079270362854 2.52078366279602051 -1.05402398109436035
-0.74803847074508667 2.82349562644958496 -1.08539927005767822
-1.81953251361846924 2.77833151817321777 -1.08900201320648193
1.47612690925598145 2.84944438934326172 -1.33377289772033691
0.308911919593811035 1.79220342636108398 -1.15615308284759521
-0.672791957855224609 4.71736717224121094 -1.40501141548156738
-0.43902510404586792 5.25204324722290039 -0.412778079509735107
1.52033209800720215 3.95353507995605469 -1.13968396186828613
0.512693643569946289 4.62937545776367188 -0.943054795265197754
1.10123872756958008 4.09769725799560547 -0.660800457000732422
-1.12210595607757568 4.6756134033203125 -1.00987184047698975
0.354621201753616333 2.25095486640930176 -1.53167533874511719
-0.420533895492553711 1.62108373641967773 -1.05433940887451172
-1.28126108646392822 4.24282026290893555 -0.283845186233520508
-1.82021927833557129 3.33493447303771973 -0.924480259418487549
1.12971723079681396 2.52289009094238281 -1.04631388187408447
-0.854417800903320312 1.99271583557128906 -1.07727718353271484
1.57467126846313477 3.65195322036743164 -0.0357333123683929443
0.419385552406311035 4.7015986442565918 -1.48135280609130859
-0.336793959140777588 5.02183055877685547 -0.875534296035766602
0.613821148872375488 4.52813243865966797 -0.40996706485748291
0.0461606085300445557 2.57563281059265137 -1.112060546875
-1.34539318084716797 4.03856945037841797 -1.61576426029205322
-0.420882046222686768 3.21688652038574219 -1.13403928279876709
0.716832160949707031 2.05785632133483887 -1.07072460651397705
-1.71255028247833252 3.79490280151367188 -0.965653777122497559
-0.55962979793548584 1.17837977409362793 -1.11593198776245117
0.657898306846618652 2.96538615226745605 -1.13439631462097168
1.7031625509262085 3.33908867835998535 -1.77371597290039062
1.33290278911590576 4.04839992523193359 -0.166899949312210083
-0.0790230855345726013 3.60803985595703125 -1.2033456563949585
0.775323867797851562 2.39131736755371094 -1.60894489288330078
-1.3503262996673584 4.26369476318359375 -1.23455190658569336
-0.963706910610198975 5.02483510971069336 -0.710806190967559814
-0.453675836324691772 5.07966327667236328 -1.29724538326263428
1.24449169635772705 2.54913830757141113 -1.53997790813446045
-1.0691457986831665 4.50369930267333984 -0.622650802135467529
0.747318625450134277 1.93286800384521484 -1.47269153594970703
0.232510879635810852 4.9636378288269043 -0.946076869964599609
1.54906964302062988 3.35959529876708984 -1.38608384132385254
1.06271588802337646 2.95068717002868652 -1.2576366662979126
-0.769016027450561523 2.39832711219787598 -1.11227500438690186
-1.0629347562789917 4.8364105224609375 -1.4850609302520752
1.84554588794708252 3.7200169563293457 -1.04535579681396484
-1.52285468578338623 3.9202418327331543 -0.533872902393341064
0.900993824005126953 4.40840959548950195 -0.814324140548706055
0.318337798118591309 2.18361949920654297 -1.0897214412689209
0.29487040638923645 1.3989335298538208 -1.06599366664886475
0.43353918194770813 3.36395978927612305 -1.15571308135986328
-0.101759672164916992 5.15619373321533203 -0.597522616386413574
1.40149664878845215 4.26000452041625977 -1.34140563011169434
-0.334438353776931763 2.59172201156616211 -1.12512421607971191
-0.306993693113327026 4.6137843132019043 -1.3830493688583374
-1.88498997688293457 3.25817584991455078 -0.568618714809417725
0.735936820507049561 4.52589035034179688 -1.28107047080993652
-1.81966900825500488 3.15582513809204102 -1.24620223045349121
-1.22752726078033447 1.90276026725769043 -1.19583690166473389
1.42427873611450195 3.86063385009765625 -1.4810492992401123
-0.0915391594171524048 1.77625691890716553 -1.04615354537963867
-0.983841538429260254 4.98223352432250977 -1.15110170841217041
-1.20204603672027588 2.57880830764770508 -1.08553338050842285
-1.52650594711303711 3.92896032333374023 -1.23816466331481934
-0.555219531059265137 3.68211078643798828 -1.24634754657745361
0.868320941925048828 4.28558015823364258 -0.455925196409225464
1.38320910930633545 3.87570881843566895 -0.675710558891296387
0.457926690578460693 4.63777637481689453 -0.11855807900428772
-0.138612747192382812 4.81990146636962891 -0.673045814037322998
0.485979616641998291 4.89364719390869141 -1.17025470733642578
0.0464604832231998444 1.50649166107177734 -1.27017378807067871
-0.769754767417907715 5.22389650344848633 -0.518007397651672363
-0.170687928795814514 2.97673249244689941 -1.13461363315582275
-0.760804414749145508 5.14409208297729492 -1.41457414627075195
0.583700835704803467 2.27230310440063477 -1.27552604675292969
-0.538601040840148926 1.9511646032333374 -1.11507415771484375
0.285604804754257202 2.77321958541870117 -1.15437448024749756
-0.865300178527832031 4.77505731582641602 -0.570764720439910889
-0.590374112129211426 5.12677383422851562 -0.740802228450775146
1.12679100036621094 4.16384029388427734 -1.04812765121459961
-0.367153644561767578 4.88098859786987305 -1.50586473941802979
0.407885432243347168 4.70705080032348633 -0.541685760021209717
0.666715800762176514 3.54730081558227539 -1.18137526512145996
-0.768300056457519531 1.58872663974761963 -1.05584228038787842
0.0087414085865020752 4.78326606750488281 -1.32910561561584473
-1.02947020530700684 2.25684571266174316 -1.09990513324737549
-0.00780945271253585815 2.23833298683166504 -1.08545887470245361
-1.73645496368408203 3.50524711608886719 -1.17649900913238525
1.5871959924697876 3.9085688591003418 -0.182845443487167358
0.759522914886474609 2.54836821556091309 -1.2715224027633667
0.209213316440582275 3.58902335166931152 -1.18896543979644775
-1.47461628913879395 3.94999432563781738 -0.923583745956420898
-1.21587765216827393 4.22889614105224609 -0.581807613372802734
-0.622322499752044678 4.7396855354309082 -1.12567138671875
0.00295868515968322754 5.09852457046508789 -1.04717016220092773
-1.02531838417053223 1.68672990798950195 -1.12857544422149658
-0.347942650318145752 4.85620403289794922 -1.10592293739318848
0.103728719055652618 4.96007299423217773 -0.636634111404418945
1.12693512439727783 4.19278478622436523 -0.39124065637588501
-1.70174610614776611 3.82686829566955566 -0.266624480485916138
1.62354564666748047 3.8184046745300293 -0.814653694629669189
-1.3149254322052002 4.35621309280395508 -0.83852386474609375
-1.21858835220336914 4.64980125427246094 -1.34691596031188965
1.6150352954864502 3.72883272171020508 -1.32722699642181396
-1.63246119022369385 3.57536673545837402 -0.819152951240539551
-0.547485530376434326 5.19023704528808594 -1.06716203689575195
1.26034724712371826 3.9845428466796875 -0.893878817558288574
1.83927476406097412 3.59089493751525879 -1.68731164932250977
1.06857895851135254 2.68274760246276855 -1.29015564918518066
-1.26804959774017334 4.2994542121887207 -1.57170510292053223
-0.172531560063362122 5.02387666702270508 -1.39246511459350586
-0.361386537551879883 5.06321239471435547 -0.582484006881713867
0.933398008346557617 2.05604314804077148 -1.63347733020782471
-0.959368586540222168 4.67514467239379883 -0.796463608741760254
0.250790655612945557 4.88188552856445312 -1.38566994667053223
-0.223956644535064697 1.44486844539642334 -1.05825507640838623
1.40012073516845703 3.9722602367401123 -0.43073195219039917
1.1960747241973877 2.7936859130859375 -1.6239783763885498
0.985669374465942383 2.49330663681030273 -1.49029171466827393
0.860136747360229492 2.79982399940490723 -1.14589381217956543
-0.415840864181518555 2.83844971656799316 -1.0965801477432251
-1.95015096664428711 3.40785026550292969 -0.364495545625686646
1.31493091583251953 4.02156829833984375 -1.28651034832000732
0.651963889598846436 4.56143903732299805 -0.66230010986328125
-1.13618624210357666 4.49640703201293945 -0.375005245208740234
0.850730419158935547 3.11786246299743652 -1.0626370906829834
0.335350513458251953 4.77732706069946289 -0.808928012847900391
-0.464250445365905762 3.90765905380249023 -1.09922945499420166
1.18227565288543701 2.35244631767272949 -1.68413567543029785
0.630266368389129639 4.39964675903320312 -0.197438299655914307
0.0209795385599136353 1.98359894752502441 -1.12481856346130371
-1.9171898365020752 3.11001682281494141 -0.887680947780609131
0.950210213661193848 4.17004537582397461 -0.852580428123474121
-0.94433128833770752 5.15033435821533203 -0.952544867992401123
0.329762101173400879 5.07222175598144531 -1.22401440143585205
-0.576345860958099365 3.01930975914001465 -1.11943960189819336
-1.69747161865234375 3.76052618026733398 -1.21353781223297119
0.483784496784210205 2.05785632133483887 -1.22850131988525391
0.370607733726501465 2.47544574737548828 -1.44599676132202148
0.41406857967376709 3.12444496154785156 -1.14507734775543213
-1.50360941886901855 3.86312079429626465 -1.46831381320953369
-0.716289103031158447 1.35946488380432129 -1.12109160423278809
-1.53800594806671143 4.48329401016235352 -1.44616234302520752
0.174632549285888672 2.17800116539001465 -1.39969062805175781
1.75405430793762207 3.9644167423248291 -1.15471792221069336
-1.42769110202789307 4.07350873947143555 -0.384200125932693481
0.667804241180419922 4.40426731109619141 -0.835856795310974121
-0.507972836494445801 2.43533706665039062 -1.12685668468475342
-1.6272510290145874 3.72583389282226562 -0.64147716760635376
-0.926374375820159912 1.18614554405212402 -1.14797663688659668
0.577838122844696045 4.73275136947631836 -1.31517553329467773
0.0484601259231567383 3.42302727699279785 -1.1432880163192749
0.83564305305480957 4.27999973297119141 -1.07180976867675781
0.624699115753173828 2.12848448753356934 -1.46494626998901367
0.363376140594482422 2.40811824798583984 -1.11440920829772949
-0.256448090076446533 3.80992484092712402 -1.22222757339477539
-0.322895735502243042 1.87226772308349609 -1.11470568180084229
-1.37553584575653076 4.09819555282592773 -1.07799077033996582
1.28932285308837891 2.9479677677154541 -1.42027902603149414
-1.15735197067260742 4.8394169807434082 -1.19008612632751465
1.50750589370727539 4.06811094284057617 -1.40369439125061035
-0.714990019798278809 5.25158548355102539 -0.889572501182556152
-0.672193467617034912 1.78692078590393066 -1.01638472080230713
1.96772563457489014 3.70892858505249023 -1.22991323471069336
-1.38924527168273926 3.57804965972900391 -1.31972277164459229
-0.88206028938293457 5.05689191818237305 -0.392009466886520386
0.361717551946640015 4.75399303436279297 -1.03816783428192139
0.580115318298339844 2.73517346382141113 -1.08972632884979248
-0.618533134460449219 2.65123438835144043 -1.11448013782501221
1.12389123439788818 4.10391139984130859 -0.148972243070602417
-0.24530521035194397 5.18496465682983398 -0.766758322715759277
0.0380211770534515381 4.93396425247192383 -0.840941011905670166
0.780482470989227295 2.14405512809753418 -1.25843477249145508
-0.525230228900909424 4.87696552276611328 -1.31215274333953857
0.185529857873916626 1.21426153182983398 -1.13117134571075439
0.320756494998931885 4.61877202987670898 -0.365661561489105225
0.821960151195526123 2.2113041877746582 -1.48699653148651123
-1.22970199584960938 4.50361728668212891 -1.07684409618377686
-1.07155776023864746 4.50980710983276367 -0.885833263397216797
-0.225759953260421753 3.29337811470031738 -1.10784471035003662
-0.529350519180297852 2.15982389450073242 -1.13718676567077637
-0.684802889823913574 5.12337636947631836 -1.21116304397583008
-0.822776257991790771 2.59606695175170898 -1.15545427799224854
1.5840599536895752 3.86203670501708984 -0.401908248662948608
1.06000053882598877 2.46590352058410645 -1.23482275009155273
1.02532458305358887 4.29094839096069336 -0.678395390510559082
-0.566294491291046143 5.03125143051147461 -0.934322714805603027
1.35567367076873779 4.24963760375976562 -1.13916158676147461
0.0965587049722671509 2.98837375640869141 -1.15053951740264893
-1.05710935592651367 1.95499050617218018 -1.05667245388031006
0.0575847923755645752 1.63423490524291992 -1.06656098365783691
-0.352605819702148438 5.12502670288085938 -1.08863818645477295
-1.02671980857849121 4.89168787002563477 -0.516442298889160156
-1.02091240882873535 4.96242570877075195 -0.898828864097595215
0.509161114692687988 4.54612112045288086 -1.26078057289123535
1.02501904964447021 2.27971029281616211 -1.56152081489562988
0.713923275470733643 4.47594928741455078 -1.08277320861816406
1.72711539268493652 3.54444432258605957 -1.42238712310791016
1.19485867023468018 2.71114110946655273 -1.09287929534912109
-0.151405036449432373 2.77389001846313477 -1.14134871959686279
-0.443377494812011719 1.28306162357330322 -0.985499680042266846
1.45442235469818115 3.8623039722442627 -0.918799161911010742
0.146796807646751404 4.74684381484985352 -0.740499556064605713
1.37956225872039795 4.06031465530395508 -1.04655873775482178
1.54058659076690674 3.75540947914123535 -1.14299905300140381
0.516409814357757568 2.23760366439819336 -1.09162139892578125
1.41588687896728516 2.64666914939880371 -1.51513123512268066
-0.62829899787902832 5.25306129455566406 -0.355799943208694458
-1.03771817684173584 4.63953495025634766 -0.467960238456726074
-1.75709092617034912 3.47728490829467773 -0.582678735256195068
0.0598892271518707275 2.76650285720825195 -1.15757977962493896
-1.82619595527648926 3.31828737258911133 -1.1201251745223999
0.413191139698028564 2.91842412948608398 -1.1208961009979248
0.0648062229156494141 1.36624681949615479 -1.10395598411560059
-0.947482585906982422 5.20855283737182617 -1.19516229629516602
0.817749619483947754 4.39908599853515625 -0.250195473432540894
-0.150369212031364441 1.95697355270385742 -1.00386154651641846
-1.41481435298919678 4.06164264678955078 -0.612349331378936768
0.6816864013671875 2.33398818969726562 -1.12081408500671387
-0.365905880928039551 3.02458834648132324 -1.08975517749786377
0.660155534744262695 3.35537624359130859 -1.19852280616760254
1.02134990692138672 2.36987447738647461 -1.00384604930877686
-1.7414172887802124 3.50794577598571777 -0.961805462837219238
-0.543284058570861816 1.4232177734375 -1.06955170631408691
0.823586940765380859 4.36802339553833008 -0.621568202972412109
0.685217022895812988 4.58050441741943359 -1.45596003532409668
-1.26225006580352783 2.39354920387268066 -1.08845353126525879
0.208603143692016602 1.63799571990966797 -1.20218634605407715
0.934901714324951172 4.42805767059326172 -0.99907606840133667
-1.41809463500976562 4.11192893981933594 -1.45772981643676758
-0.0585071071982383728 5.11580944061279297 -0.871088981628417969
-1.03090500831604004 2.44293475151062012 -1.11764693260192871
1.50808799266815186 3.01305603981018066 -1.25011992454528809
-0.734494447708129883 5.32381296157836914 -1.26178240776062012
0.900565385818481445 3.03615546226501465 -1.23618316650390625
-0.25202631950378418 4.96870088577270508 -1.21609640121459961
0.97172921895980835 4.25397777557373047 -0.277736067771911621
-0.792308688163757324 5.08621883392333984 -0.727765202522277832
