ply
format ascii 1.0
element vertex 256
comment vertices
property float x
property float y
property float z
end_header
1.99172461032867432 0.444944053888320923 0.997090995311737061
-1.04733610153198242 -2.85027289390563965 0.580996870994567871
-0.534743070602416992 3.08005952835083008 1.27340316772460938
2.00935840606689453 -2.76614737510681152 0.559804439544677734
-1.06797683238983154 0.0911136791110038757 1.03168511390686035
1.93241357803344727 2.67798328399658203 1.22843337059020996
0.385925531387329102 -1.21440470218658447 0.214040949940681458
0.322335243225097656 1.42985498905181885 0.601299107074737549
2.00723385810852051 -1.24073219299316406 0.860114514827728271
0.479861468076705933 -2.76999759674072266 0.559960126876831055
-1.06330752372741699 -1.3178325891494751 0.842552304267883301
-1.02016317844390869 1.78306841850280762 1.04544162750244141
0.322727113962173462 0.149781912565231323 0.136812299489974976
0.64594268798828125 2.88768553733825684 0.680860996246337891
1.88645029067993164 1.71395277976989746 1.10697734355926514
1.31683623790740967 -0.252073466777801514 0.209001347422599792
-0.29335707426071167 -2.01166248321533203 0.269492059946060181
1.41735076904296875 -1.97394442558288574 0.788464844226837158
1.21159327030181885 1.08831357955932617 0.528951287269592285
-1.06722545623779297 0.914174199104309082 0.527540087699890137
-0.513726234436035156 -0.282688438892364502 0.355514824390411377
0.0276562515646219254 2.25462818145751953 0.919756054878234863
1.84547984600067139 -0.398240655660629272 1.06141293048858643
1.17983424663543701 3.1701819896697998 1.53145790100097656
1.24004065990447998 -0.972951769828796387 0.531508386135101318
1.20476686954498291 2.00775337219238281 0.808512628078460693
0.966058433055877686 0.350499182939529419 0.512904882431030273
-0.83836597204208374 -1.09551107883453369 1.61571633815765381
0.0340878665447235107 0.681732475757598877 0.600532412528991699
0.51071244478225708 -1.92547428607940674 0.442790240049362183
1.19411981105804443 -2.79974007606506348 0.601675093173980713
-0.496737688779830933 -1.14367949962615967 0.384813487529754639
-1.07043313980102539 -0.580537676811218262 0.875396668910980225
-1.08801043033599854 -2.03760886192321777 0.610130131244659424
0.130386978387832642 2.96639227867126465 1.14966440200805664
0.651425600051879883 -0.603825688362121582 0.0329496338963508606
1.35739254951477051 2.64691472053527832 0.698614180088043213
-0.941347241401672363 2.42133355140686035 1.21531319618225098
-1.03908395767211914 0.309676587581634521 0.56306159496307373
-0.519751787185668945 -2.73698186874389648 0.322361350059509277
0.620570063591003418 2.22206234931945801 0.729631900787353516
1.88430154323577881 1.17643547058105469 0.646522760391235352
1.81393682956695557 0.294581890106201172 0.28735506534576416
1.91120243072509766 -2.21601319313049316 0.939855217933654785
1.26786267757415771 -0.510669350624084473 0.698486685752868652
1.91768336296081543 2.39713573455810547 1.15247178077697754
-0.170754656195640564 1.21412622928619385 0.564293563365936279
0.876501977443695068 -0.349132686853408813 0.389938294887542725
1.8566519021987915 1.18126404285430908 1.33327889442443848
-1.0263817310333252 0.689621329307556152 0.966241598129272461
-0.012381313368678093 -0.931361734867095947 0.0145878735929727554
1.91074883937835693 -1.6500086784362793 0.860469341278076172
-0.113507457077503204 -1.54701805114746094 0.120649904012680054
-0.0507720708847045898 -2.43758678436279297 0.426554203033447266
1.76608085632324219 0.738685548305511475 0.324019074440002441
-0.975709855556488037 1.39406919479370117 0.575957119464874268
0.953822970390319824 1.69619095325469971 0.494805216789245605
-1.03330016136169434 -0.303542882204055786 1.42647504806518555
1.30233252048492432 -1.45347082614898682 0.782819628715515137
0.70831000804901123 3.12409257888793945 1.41207766532897949
-1.10170269012451172 -0.174731969833374023 0.68450617790222168
0.499876827001571655 0.605662405490875244 0.491678714752197266
0.25782206654548645 -0.282073348760604858 0.223224267363548279
1.95279061794281006 2.47717189788818359 0.729916572570800781
1.93362724781036377 -0.979024410247802734 0.392737865447998047
1.25248897075653076 1.53742122650146484 0.874925911426544189
-1.0645451545715332 1.2080991268157959 0.990145325660705566
-0.603115200996398926 -1.84708559513092041 0.538692057132720947
0.01898232102394104 -2.89092373847961426 0.588610053062438965
1.18422603607177734 0.368833422660827637 0.119745939970016479
-1.00402092933654785 -0.929783880710601807 0.686001777648925781
1.47258543968200684 -0.543020486831665039 0.471658706665039062
0.854609847068786621 -2.21010231971740723 0.53045964241027832
0.235616475343704224 2.60987663269042969 0.779861867427825928
0.95880436897277832 -1.30922698974609375 0.485146164894104004
1.151481032371521 -0.532508432865142822 0.379417836666107178
1.9255596399307251 0.0847380459308624268 1.02569055557250977
0.280779153108596802 -2.33521533012390137 0.652278721332550049
0.0402116701006889343 0.261267513036727905 0.513035237789154053
1.65503740310668945 3.14499568939208984 1.43812775611877441
-0.506617963314056396 0.186888277530670166 0.49832308292388916
1.27442646026611328 0.0113019272685050964 0.484826207160949707
2.00186872482299805 0.406868249177932739 0.477138698101043701
1.02657890319824219 2.43552970886230469 0.829117655754089355
1.39704525470733643 0.414992690086364746 0.480316966772079468
2.00515437126159668 0.746667385101318359 1.24109148979187012
0.845437109470367432 -2.70849800109863281 0.506265342235565186
-1.05801331996917725 -1.67687535285949707 0.600013554096221924
-1.0747685432434082 -1.84741091728210449 0.933780431747436523
1.49206769466400146 -2.6339879035949707 0.484925925731658936
-1.02840554714202881 -0.93818134069442749 1.09160470962524414
-0.22387637197971344 -0.0870742723345756531 0.197208672761917114
1.02943944931030273 3.16873741149902344 1.10362482070922852
0.917850375175476074 -1.83460843563079834 0.439422726631164551
-0.867326140403747559 -0.102923817932605743 0.295836865901947021
0.637783706188201904 0.164270728826522827 0.467923611402511597
-0.828348636627197266 2.76758670806884766 1.24799871444702148
1.65568768978118896 -0.754352152347564697 0.982409536838531494
-1.01250910758972168 2.25687718391418457 0.842374026775360107
-0.779213190078735352 -1.41016209125518799 0.369045108556747437
-1.09786522388458252 0.369491815567016602 0.812877833843231201
-0.731709182262420654 0.826997220516204834 0.556656479835510254
-0.800278782844543457 -2.54911112785339355 0.483796834945678711
-0.534001350402832031 2.23202610015869141 0.998849332332611084
1.75133728981018066 1.44679164886474609 0.740066587924957275
0.686510801315307617 1.4210580587387085 0.460049688816070557
1.07244646549224854 0.022543005645275116 0.196273893117904663
-0.824473798274993896 1.61273872852325439 0.980556964874267578
-0.657787024974822998 0.482641875743865967 0.350636899471282959
-1.11022055149078369 -2.36328768730163574 0.63893735408782959
0.376600593328475952 -0.834382832050323486 -0.00332376733422279358
-0.00144233368337154388 1.47519052028656006 0.71665501594543457
0.723269045352935791 -0.255592584609985352 0.190453618764877319
-1.08017861843109131 0.594922900199890137 0.469702541828155518
0.858457446098327637 1.92635548114776611 0.763111710548400879
-0.208832785487174988 3.03297972679138184 1.23868894577026367
0.879226148128509521 0.464472442865371704 0.0848157033324241638
1.4251251220703125 -1.67360854148864746 0.492162138223648071
-1.10414612293243408 -0.191302388906478882 1.00694715976715088
1.96818387508392334 -2.43116521835327148 0.65269237756729126
1.09856224060058594 2.7940671443939209 0.927842319011688232
-0.201721295714378357 -1.18097877502441406 0.102827750146389008
1.39361763000488281 0.049740619957447052 0.143888339400291443
0.662042081356048584 -2.88022160530090332 0.382074028253555298
-0.586136937141418457 0.0769725218415260315 0.184009820222854614
-1.08759152889251709 -0.455691605806350708 0.667236804962158203
1.59809350967407227 -2.04744553565979004 0.776681423187255859
1.07086145877838135 -0.402070164680480957 0.483030200004577637
1.87800979614257812 1.41664671897888184 0.911451756954193115
-1.02052748203277588 0.590316474437713623 0.693043291568756104
0.606116831302642822 0.0231058225035667419 0.124384693801403046
1.51365268230438232 -0.358982235193252563 0.901636719703674316
1.81294035911560059 -1.53710854053497314 0.785331606864929199
-0.891188144683837891 2.07226157188415527 1.07308566570281982
1.83203768730163574 -0.943389654159545898 1.02812755107879639
0.769932985305786133 -1.18907463550567627 0.291572988033294678
-1.04230654239654541 1.60521388053894043 0.766194820404052734
1.23902797698974609 -0.584458410739898682 0.379668176174163818
1.02824437618255615 -0.849427759647369385 0.215028449892997742
-1.05585610866546631 -1.01751708984375 0.871090173721313477
1.20396280288696289 -2.0723576545715332 0.608866870403289795
1.94479334354400635 2.56427359580993652 1.19949245452880859
0.159230455756187439 0.945221662521362305 0.654251694679260254
0.194417282938957214 2.21273946762084961 0.711381375789642334
-1.08284401893615723 1.25739908218383789 0.708071351051330566
-0.396391719579696655 -0.457757174968719482 0.169914543628692627
-0.0582596138119697571 -2.18220639228820801 0.331595391035079956
1.78801131248474121 1.79475462436676025 0.891273856163024902
1.98576414585113525 0.910907626152038574 1.0662606954574585
-1.0790024995803833 0.118013113737106323 0.766332149505615234
-0.100524142384529114 -1.82128870487213135 0.144380658864974976
1.89913475513458252 1.96549904346466064 1.20611083507537842
-1.02480173110961914 0.904962241649627686 0.861119925975799561
-1.0136263370513916 -0.569484889507293701 1.36884820461273193
1.32157444953918457 -0.392357766628265381 0.50571829080581665
0.851272463798522949 2.67745590209960938 0.766949594020843506
1.51537024974822998 -2.79603123664855957 0.53451848030090332
0.667183816432952881 -0.314280480146408081 0.34223511815071106
0.17790086567401886 2.99990177154541016 0.981588900089263916
-0.195735543966293335 0.36897045373916626 0.607276856899261475
1.00231170654296875 3.1718752384185791 1.47768294811248779
-0.966665804386138916 -0.34057953953742981 0.541364669799804688
1.94278168678283691 -1.99082863330841064 0.896154522895812988
-0.0145509745925664902 -0.202455818653106689 0.152777388691902161
0.19806922972202301 -0.235660403966903687 0.208543181419372559
-0.860202252864837646 -1.27115511894226074 1.4028545618057251
-1.04818618297576904 1.44655954837799072 1.16472840309143066
0.317881971597671509 3.0019538402557373 1.18236625194549561
-0.510658502578735352 -2.10189723968505859 0.385287702083587646
1.40177667140960693 1.20967626571655273 0.645642578601837158
0.515998423099517822 -2.66161346435546875 0.598415851593017578
0.452445149421691895 2.65980219841003418 0.680113375186920166
-1.08519423007965088 -0.321034044027328491 0.807611167430877686
1.7283625602722168 1.17158901691436768 0.619520306587219238
1.4615103006362915 1.24157726764678955 0.889553606510162354
1.57347500324249268 2.52237772941589355 0.835408627986907959
1.23678278923034668 -0.580583810806274414 0.458343803882598877
1.89929664134979248 0.775958061218261719 0.510930955410003662
1.93693864345550537 -1.18550491333007812 0.708147287368774414
-0.991099834442138672 -2.22338199615478516 0.574228167533874512
1.93006038665771484 -1.24486339092254639 0.798611462116241455
1.95128834247589111 -1.35174107551574707 0.787890970706939697
-0.306832194328308105 -1.68420016765594482 0.0773463696241378784
1.43403196334838867 -1.88779222965240479 0.750389635562896729
1.25316751003265381 0.269792020320892334 0.329808980226516724
1.41177582740783691 -2.10489344596862793 0.900721430778503418
1.04349970817565918 -0.440554499626159668 0.0559848025441169739
2.00693893432617188 0.464108288288116455 0.738273143768310547
-1.02541100978851318 -1.39197790622711182 0.654545366764068604
-0.627799153327941895 -0.97203439474105835 0.422011375427246094
-0.965245544910430908 -1.13120973110198975 0.520192921161651611
0.876240134239196777 -0.689741909503936768 0.147515684366226196
0.769880890846252441 2.3995978832244873 0.757462382316589355
0.272395610809326172 2.90357089042663574 0.952630877494812012
-1.10182046890258789 0.447656869888305664 0.621420383453369141
-1.06410574913024902 -2.1708378791809082 0.710604548454284668
-1.00170660018920898 1.42846465110778809 0.938740432262420654
1.14876234531402588 -0.623937487602233887 0.449058622121810913
-1.02420806884765625 2.03675436973571777 0.918098926544189453
1.96806395053863525 0.429984211921691895 0.249642848968505859
-0.276813656091690063 0.0553537085652351379 0.361308634281158447
0.945070445537567139 -0.32029259204864502 0.38023453950881958
0.407218247652053833 -2.84930729866027832 0.498774141073226929
0.993728816509246826 -0.201149672269821167 0.469511091709136963
-1.11247932910919189 -0.0428666248917579651 0.840321719646453857
0.203688055276870728 2.45219898223876953 0.916330158710479736
1.36867403984069824 -1.88498020172119141 0.770874381065368652
1.20164871215820312 3.18998122215270996 1.31092345714569092
-1.00768733024597168 0.00658964738249778748 1.36169743537902832
1.22706174850463867 -0.497130215167999268 0.485436886548995972
1.9550626277923584 -1.10485529899597168 0.90176016092300415
0.597422122955322266 -2.58391594886779785 0.516346573829650879
-0.997724831104278564 -1.14829659461975098 1.28885757923126221
1.05934500694274902 1.83568358421325684 0.609326601028442383
-1.06387495994567871 -1.84047198295593262 0.703646540641784668
1.42964541912078857 1.16366279125213623 0.451132655143737793
1.37037837505340576 -1.27461159229278564 0.76550447940826416
1.0647503137588501 -1.10641348361968994 0.53576958179473877
0.501147031784057617 1.30078732967376709 0.5655326247215271
0.645122826099395752 -0.184607446193695068 0.223344087600708008
-1.12254941463470459 -2.2863776683807373 0.545588552951812744
-1.11043107509613037 0.281671077013015747 0.928813397884368896
1.00294613838195801 0.371153920888900757 0.295640021562576294
1.63438785076141357 0.83334881067276001 0.423891663551330566
0.789713442325592041 2.12334585189819336 0.801380157470703125
-0.535957694053649902 -0.0156737491488456726 0.475551992654800415
1.68688595294952393 -1.9197310209274292 0.87627863883972168
0.922447383403778076 -0.343979597091674805 0.387733638286590576
2.02013850212097168 -2.1982429027557373 0.7813834547996521
-1.09338986873626709 0.560633242130279541 0.873575687408447266
-1.0576019287109375 -0.712691783905029297 0.714125931262969971
0.568967223167419434 3.06191778182983398 1.15161275863647461
0.796613931655883789 -2.75748586654663086 0.571077167987823486
2.02147173881530762 0.531028330326080322 0.836924970149993896
1.08338713645935059 -2.73075747489929199 0.468084603548049927
1.35124337673187256 -2.78217649459838867 0.505294859409332275
-1.06497693061828613 0.716962039470672607 0.790194571018218994
-1.10062038898468018 -1.48248255252838135 0.751338064670562744
-1.07631516456604004 -0.855770349502563477 0.920985877513885498
1.82741117477416992 1.21580278873443604 0.911074399948120117
-1.07595658302307129 1.41307747364044189 0.767749369144439697
-0.333587437868118286 -0.227174118161201477 0.126517981290817261
0.257534027099609375 -2.86923694610595703 0.569694757461547852
0.933771669864654541 -0.319091498851776123 0.486076802015304565
-0.671195030212402344 0.421385824680328369 0.537262380123138428
-1.03658270835876465 0.92244952917098999 0.995009660720825195
0.886947214603424072 3.18469977378845215 1.25756275653839111
1.88085484504699707 2.5318450927734375 1.07733416557312012
1.92422151565551758 2.63349676132202148 0.739291369915008545
0.477680474519729614 -1.7357933521270752 0.450183868408203125
-1.03453671932220459 1.96478092670440674 1.06812214851379395
1.50741088390350342 0.4310036301612854 0.327334225177764893
1.50447726249694824 -1.94109320640563965 0.762999475002288818
1.84281814098358154 0.472904443740844727 1.2006763219833374
1.75545549392700195 -0.362359285354614258 0.894094586372375488
0.166253060102462769 0.394990086555480957 0.549993932247161865
