ply
format ascii 1.0
element vertex 52
comment vertices
property float x
property float y
property float z
end_header
1.89792501926422119 2.1999046802520752 1.01602613925933838
1.2767099142074585 -0.599972367286682129 0.367528021335601807
0.945794284343719482 -2.74609732627868652 0.55360722541809082
1.98018467426300049 0.345239430665969849 0.954700112342834473
1.97244679927825928 -1.09686756134033203 0.87763369083404541
1.95539343357086182 2.5875401496887207 1.11023461818695068
0.791428148746490479 -0.317234724760055542 0.396025627851486206
1.39271914958953857 -1.86342382431030273 0.727491140365600586
1.24895572662353516 -2.7094876766204834 0.486642032861709595
0.271679878234863281 -0.370789170265197754 0.203585594892501831
-1.0524747371673584 0.296226620674133301 0.945352435111999512
1.04989206790924072 -0.460249543190002441 0.501146912574768066
0.768860995769500732 -0.350517630577087402 0.409630715847015381
1.05056023597717285 -0.749449431896209717 0.443609774112701416
1.91300749778747559 2.55563998222351074 1.05326223373413086
2.01421403884887695 0.577143073081970215 0.854075312614440918
1.57349872589111328 -1.83611345291137695 0.802103638648986816
1.28548479080200195 -0.585036337375640869 0.47033613920211792
-1.07228028774261475 0.180937841534614563 0.840936243534088135
1.90339994430541992 2.55144238471984863 1.02036762237548828
-0.977605342864990234 0.238139376044273376 0.829718112945556641
1.11714112758636475 -0.386052548885345459 0.380257129669189453
0.869802594184875488 -2.74798774719238281 0.525879561901092529
1.31951355934143066 -0.602095901966094971 0.38500744104385376
1.21641600131988525 -0.5554160475730896 0.438863426446914673
1.94691145420074463 2.78838157653808594 1.15526938438415527
1.41209518909454346 -1.88580489158630371 0.696868419647216797
0.853407442569732666 -0.321143418550491333 0.485213607549667358
1.24818432331085205 -2.77172493934631348 0.520267128944396973
1.99925267696380615 0.377364754676818848 0.881835758686065674
1.16388654708862305 -2.73849582672119141 0.53207474946975708
-1.03250479698181152 0.36845552921295166 0.911378562450408936
0.974856972694396973 -0.331021040678024292 0.62511366605758667
1.40890634059906006 -1.87340199947357178 0.711043596267700195
1.99956607818603516 0.262472927570343018 0.876546204090118408
1.1918027400970459 -0.600875258445739746 0.456501275300979614
1.16483986377716064 -2.76381564140319824 0.491155266761779785
-1.04677081108093262 0.451002657413482666 1.01796340942382812
0.999316990375518799 -0.319424033164978027 0.421107232570648193
1.404532790184021 -2.74719953536987305 0.51866072416305542
1.20991170406341553 -0.556559860706329346 0.431222915649414062
1.94127845764160156 2.59266400337219238 1.10039758682250977
0.808477580547332764 -0.357422590255737305 0.424368143081665039
2.01484823226928711 -1.2721787691116333 0.780544281005859375
0.85268324613571167 -0.354462653398513794 0.466889232397079468
-1.00781846046447754 0.357635289430618286 0.970543920993804932
1.90654206275939941 -0.932415127754211426 0.971038818359375
0.860438644886016846 -0.332677304744720459 0.421487510204315186
1.97913849353790283 0.352184265851974487 0.901403427124023438
1.17449414730072021 -0.505428791046142578 0.550168752670288086
1.38011503219604492 -1.88850903511047363 0.693034768104553223
0.970518946647644043 -2.77092266082763672 0.533560514450073242
