ply
format ascii 1.0
element vertex 29
comment vertices
property float x
property float y
property float z
end_header
1.99172461032867432 0.444944053888320923 0.997090995311737061
1.93241357803344727 2.67798328399658203 1.22843337059020996
2.00723385810852051 -1.24073219299316406 0.860114514827728271
1.26786267757415771 -0.510669350624084473 0.698486685752868652
1.91768336296081543 2.39713573455810547 1.15247178077697754
0.876501977443695068 -0.349132686853408813 0.389938294887542725
0.25782206654548645 -0.282073348760604858 0.223224267363548279
1.93362724781036377 -0.979024410247802734 0.392737865447998047
1.151481032371521 -0.532508432865142822 0.379417836666107178
2.00186872482299805 0.406868249177932739 0.477138698101043701
0.723269045352935791 -0.255592584609985352 0.190453618764877319
1.07086145877838135 -0.402070164680480957 0.483030200004577637
1.23902797698974609 -0.584458410739898682 0.379668176174163818
1.94479334354400635 2.56427359580993652 1.19949245452880859
1.32157444953918457 -0.392357766628265381 0.50571829080581665
0.667183816432952881 -0.314280480146408081 0.34223511815071106
1.23678278923034668 -0.580583810806274414 0.458343803882598877
1.93693864345550537 -1.18550491333007812 0.708147287368774414
1.95128834247589111 -1.35174107551574707 0.787890970706939697
2.00693893432617188 0.464108288288116455 0.738273143768310547
1.14876234531402588 -0.623937487602233887 0.449058622121810913
1.96806395053863525 0.429984211921691895 0.249642848968505859
0.945070445537567139 -0.32029259204864502 0.38023453950881958
1.22706174850463867 -0.497130215167999268 0.485436886548995972
1.9550626277923584 -1.10485529899597168 0.90176016092300415
0.922447383403778076 -0.343979597091674805 0.387733638286590576
2.02147173881530762 0.531028330326080322 0.836924970149993896
0.933771669864654541 -0.319091498851776123 0.486076802015304565
1.88085484504699707 2.5318450927734375 1.07733416557312012
