ply
format ascii 1.0
element vertex 256
comment vertices
property float x
property float y
property float z
end_header
-0.915547192096710205 -2.80878496170043945 0.552221119403839111
1.74160921573638916 3.20088911056518555 1.38741755485534668
1.89899826049804688 -0.389840006828308105 0.99683302640914917
-1.00978422164916992 1.16039168834686279 1.13240671157836914
1.82890117168426514 -2.68295097351074219 0.151359140872955322
0.0471924468874931335 -0.80387413501739502 0.233808264136314392
-0.377895772457122803 2.98958611488342285 1.26376008987426758
0.750852346420288086 1.74972844123840332 0.772660017013549805
0.513986825942993164 -2.21449780464172363 0.305504202842712402
1.88784551620483398 1.04900002479553223 0.884862184524536133
-1.09571683406829834 -0.161840170621871948 0.823713779449462891
0.760909438133239746 0.428905367851257324 0.574543535709381104
-0.973728954792022705 -1.40468955039978027 0.750534951686859131
1.46997678279876709 -1.66959536075592041 0.692918837070465088
0.711148679256439209 3.04995417594909668 0.62499392032623291
1.89792501926422119 2.1999046802520752 1.01602613925933838
-0.236497864127159119 0.36692357063293457 0.890974998474121094
1.2767099142074585 -0.599972367286682129 0.367528021335601807
-0.78779071569442749 2.26111769676208496 1.18505001068115234
0.0830215141177177429 1.12952196598052979 0.556829571723937988
-0.227774322032928467 -1.63320231437683105 0.223522350192070007
0.945794284343719482 -2.74609732627868652 0.55360722541809082
0.103077180683612823 -2.88159584999084473 0.434877216815948486
0.140522703528404236 2.24569988250732422 0.701280474662780762
0.703162848949432373 -0.510748028755187988 0.839263796806335449
-0.873163461685180664 -0.750308036804199219 0.476873219013214111
-1.02379858493804932 0.502867579460144043 0.757741391658782959
1.28264117240905762 2.69281816482543945 0.951508820056915283
0.334729760885238647 3.02173304557800293 1.43921756744384766
-0.815510988235473633 -1.05159378051757812 1.38693022727966309
1.98018467426300049 0.345239430665969849 0.954700112342834473
1.90497636795043945 -2.05940747261047363 0.787138700485229492
1.30208182334899902 0.0407571084797382355 0.245529443025588989
0.854200422763824463 -1.56697380542755127 0.234388798475265503
1.97244679927825928 -1.09686756134033203 0.87763369083404541
0.0953518226742744446 3.13628530502319336 0.646547019481658936
-1.05540943145751953 -2.157440185546875 0.739651143550872803
-0.360305726528167725 -0.301373839378356934 0.601399123668670654
0.196471750736236572 0.151965901255607605 0.425645619630813599
-0.820961594581604004 -3.27378511428833008 0.312341988086700439
1.00970458984375 3.15835690498352051 1.34740138053894043
1.32286739349365234 -0.35480731725692749 0.783526897430419922
1.12463724613189697 -2.17205500602722168 0.313586831092834473
0.71412050724029541 -0.943271160125732422 0.197493314743041992
1.95539343357086182 2.5875401496887207 1.11023461818695068
-0.987858593463897705 0.597210526466369629 1.18442809581756592
1.85202765464782715 1.57502436637878418 0.799583017826080322
0.791428148746490479 -0.317234724760055542 0.396025627851486206
0.322328805923461914 -1.3049929141998291 0.192699790000915527
1.42414760589599609 -0.972951948642730713 0.763703525066375732
1.14632606506347656 3.36363935470581055 0.684079170227050781
0.628679037094116211 2.51385402679443359 0.752236247062683105
-0.551413774490356445 1.13992404937744141 0.941461920738220215
-0.247753918170928955 -2.47708988189697266 0.282399684190750122
-0.939727842807769775 1.73386132717132568 1.22479057312011719
-0.715722262859344482 2.90316557884216309 1.18377208709716797
-0.675263583660125732 0.221280977129936218 0.543293297290802002
1.39271914958953857 -1.86342382431030273 0.727491140365600586
1.11865389347076416 0.753016471862792969 0.694062232971191406
1.24895572662353516 -2.7094876766204834 0.486642032861709595
-0.561412513256072998 -1.99319148063659668 0.307676970958709717
0.271679878234863281 -0.370789170265197754 0.203585594892501831
1.51651883125305176 0.0374017283320426941 0.759850203990936279
-0.999688208103179932 -0.880445003509521484 0.763273119926452637
0.32630544900894165 2.9168241024017334 0.708661675453186035
1.98226702213287354 -1.58933126926422119 0.801310956478118896
-0.362649023532867432 2.36999917030334473 1.23654723167419434
-0.52884596586227417 -2.84799695014953613 0.180428355932235718
1.6906883716583252 -0.338271260261535645 0.497238188982009888
1.0338970422744751 -0.321679621934890747 0.71323549747467041
1.82331347465515137 0.384517878293991089 0.840811312198638916
1.52049398422241211 1.89122748374938965 0.739698171615600586
0.505532920360565186 -2.764862060546875 0.557391583919525146
-1.0524747371673584 0.296226620674133301 0.945352435111999512
-0.166137099266052246 0.783017158508300781 0.610655605792999268
1.33779597282409668 3.16498470306396484 0.998316347599029541
1.33459854125976562 -1.88443839550018311 0.630721211433410645
2.02629828453063965 -2.43645071983337402 0.433665633201599121
1.91586601734161377 1.4762951135635376 1.03121376037597656
0.0705371499061584473 2.94879484176635742 1.05290818214416504
0.110508307814598083 1.51669037342071533 0.621708154678344727
0.162266820669174194 -2.43104267120361328 0.368387937545776367
0.0707861930131912231 -1.86282670497894287 0.221221208572387695
1.83955800533294678 -0.732964396476745605 0.965817630290985107
-0.936519145965576172 0.860849261283874512 1.00021123886108398
1.04989206790924072 -0.460249543190002441 0.501146912574768066
0.768860995769500732 -0.350517630577087402 0.409630715847015381
-0.99183952808380127 -1.81384563446044922 0.571164846420288086
1.85149884223937988 -0.953252851963043213 0.267078816890716553
0.8162803053855896 3.3638758659362793 0.94369274377822876
-0.325313478708267212 -0.905664026737213135 0.325930178165435791
0.392393797636032104 -0.756831884384155273 0.117896690964698792
-0.992081046104431152 -0.474847555160522461 0.726478934288024902
0.541904747486114502 3.09743475914001465 0.918555259704589844
1.05056023597717285 -0.749449431896209717 0.443609774112701416
0.936538100242614746 2.68567609786987305 0.812597036361694336
0.421382546424865723 1.89119887351989746 0.618906974792480469
1.91300749778747559 2.55563998222351074 1.05326223373413086
-0.214088201522827148 -2.07213258743286133 0.240786060690879822
-0.990531682968139648 -1.13428699970245361 0.629939734935760498
-0.678057014942169189 1.46580624580383301 0.923226535320281982
2.01421403884887695 0.577143073081970215 0.854075312614440918
1.57349872589111328 -1.83611345291137695 0.802103638648986816
0.0836349204182624817 -1.58269143104553223 0.35160219669342041
1.00462806224822998 2.99809122085571289 0.532204568386077881
0.93415367603302002 -2.61864495277404785 0.474358797073364258
-1.01030504703521729 -2.38779997825622559 0.595801115036010742
1.90380918979644775 -0.010287553071975708 0.882166743278503418
1.28548479080200195 -0.585036337375640869 0.47033613920211792
1.45780539512634277 3.05089640617370605 1.377685546875
-0.448672592639923096 -0.625604510307312012 0.545522093772888184
-0.315946877002716064 0.0683408230543136597 0.76181483268737793
1.508209228515625 -2.34604883193969727 0.416834056377410889
1.79401576519012451 -0.171722978353500366 0.916085004806518555
-1.07228028774261475 0.180937841534614563 0.840936243534088135
-0.969718694686889648 -1.53783738613128662 0.584410607814788818
-0.706678628921508789 2.65041661262512207 1.30872571468353271
1.1110769510269165 0.441627770662307739 0.65963369607925415
1.53048288822174072 2.94672203063964844 0.876063644886016846
0.987223505973815918 -1.28360581398010254 0.124759994447231293
1.0896308422088623 3.1679539680480957 0.84559786319732666
1.01410424709320068 0.0344815440475940704 0.323767602443695068
-0.801025271415710449 1.94575536251068115 1.27998971939086914
-0.794044852256774902 1.33491194248199463 1.1537020206451416
-1.00483369827270508 -0.133506819605827332 0.769162476062774658
0.0451443120837211609 -0.203800037503242493 0.395600438117980957
1.43081378936767578 -0.242626950144767761 0.363990098237991333
-0.981863856315612793 -2.93020081520080566 0.638688445091247559
0.440695673227310181 -0.0249341875314712524 0.302393883466720581
-0.58800041675567627 -1.68439161777496338 0.290369093418121338
1.36284303665161133 -1.33507382869720459 0.690345466136932373
1.60076844692230225 -1.31071996688842773 0.692879736423492432
0.128640413284301758 -1.57198250293731689 0.0697217434644699097
-0.608435750007629395 -0.194742560386657715 0.638413190841674805
0.253782361745834351 -2.68202352523803711 0.403067469596862793
1.90339994430541992 2.55144238471984863 1.02036762237548828
-0.977605342864990234 0.238139376044273376 0.829718112945556641
0.650002956390380859 0.172612220048904419 0.544846117496490479
-1.06275498867034912 0.595057904720306396 1.01716089248657227
-1.00783312320709229 -2.50732636451721191 0.672294437885284424
1.88833487033843994 -0.706299841403961182 1.10720372200012207
1.11714112758636475 -0.386052548885345459 0.380257129669189453
0.869802594184875488 -2.74798774719238281 0.525879561901092529
1.31951355934143066 -0.602095901966094971 0.38500744104385376
0.340093761682510376 -2.4572138786315918 0.524882674217224121
0.384055525064468384 -1.02196824550628662 0.164587661623954773
2.0351262092590332 -2.6107175350189209 0.348358601331710815
1.92140018939971924 -2.25702500343322754 0.789385616779327393
0.215194284915924072 -2.1006617546081543 0.338391572237014771
-0.0823498368263244629 0.733789920806884766 0.903018057346343994
-0.955276310443878174 -1.14301371574401855 0.758552789688110352
1.21641600131988525 -0.5554160475730896 0.438863426446914673
-0.467792361974716187 3.02573132514953613 1.10001206398010254
-0.583760619163513184 0.49170529842376709 0.607573807239532471
0.966306090354919434 -0.696041524410247803 0.150139153003692627
-0.971448183059692383 0.887474596500396729 1.18888640403747559
1.16311001777648926 2.97521352767944336 0.82933199405670166
1.63479411602020264 -0.923305869102478027 0.243740826845169067
-0.311221957206726074 -2.970977783203125 0.334967672824859619
1.89997017383575439 1.38180530071258545 0.901410698890686035
-0.648125112056732178 -3.04554319381713867 0.321536064147949219
-0.949996888637542725 -3.04086589813232422 0.563398599624633789
0.743055880069732666 3.13436579704284668 1.39366054534912109
0.273499667644500732 3.0686500072479248 0.626104950904846191
1.88721799850463867 1.87717354297637939 1.05669486522674561
1.94691145420074463 2.78838157653808594 1.15526938438415527
0.629978656768798828 -0.785106241703033447 0.425285369157791138
-0.613523960113525391 2.97925305366516113 1.28288841247558594
-0.53627091646194458 2.8713228702545166 1.17205548286437988
1.41209518909454346 -1.88580489158630371 0.696868419647216797
0.853407442569732666 -0.321143418550491333 0.485213607549667358
0.295008689165115356 -0.861940145492553711 0.390067249536514282
1.24818432331085205 -2.77172493934631348 0.520267128944396973
1.60532176494598389 -2.02183818817138672 0.855676770210266113
-1.02671897411346436 -1.64536643028259277 0.795910537242889404
1.99925267696380615 0.377364754676818848 0.881835758686065674
-0.68099057674407959 0.804147064685821533 0.841488242149353027
-0.931446969509124756 1.07877779006958008 0.957920491695404053
1.81551492214202881 -0.497580587863922119 0.973837018013000488
0.027522968128323555 2.06648874282836914 0.803239047527313232
1.21287047863006592 3.15442132949829102 1.31987977027893066
1.25787854194641113 -0.349755048751831055 0.805573463439941406
1.16388654708862305 -2.73849582672119141 0.53207474946975708
-1.03250479698181152 0.36845552921295166 0.911378562450408936
0.974856972694396973 -0.331021040678024292 0.62511366605758667
1.96728682518005371 -2.57130527496337891 0.131884068250656128
-1.03103327751159668 -0.35705527663230896 0.811679065227508545
1.15235650539398193 3.09342193603515625 0.662181496620178223
0.126378148794174194 -2.58070135116577148 0.507852494716644287
0.771259605884552002 2.82863664627075195 0.751192331314086914
-1.01350188255310059 0.331679463386535645 0.734641909599304199
0.844377338886260986 3.13863515853881836 0.940026164054870605
0.469652861356735229 3.09276151657104492 0.591760039329528809
-1.02089929580688477 -1.87072277069091797 0.735819101333618164
-0.444301217794418335 0.173688903450965881 0.583660244941711426
1.92634820938110352 -2.2120060920715332 0.607035994529724121
-0.310380369424819946 -0.67006838321685791 0.31504783034324646
1.07025802135467529 3.33212685585021973 0.970450758934020996
1.40890634059906006 -1.87340199947357178 0.711043596267700195
-0.123581387102603912 2.93077468872070312 1.22092711925506592
1.99956607818603516 0.262472927570343018 0.876546204090118408
-0.942798972129821777 -0.956961095333099365 0.671425879001617432
1.1918027400970459 -0.600875258445739746 0.456501275300979614
1.16483986377716064 -2.76381564140319824 0.491155266761779785
0.718344032764434814 -2.27149057388305664 0.351131081581115723
-0.986044645309448242 -0.612639367580413818 0.801875293254852295
-1.01783907413482666 -2.38960599899291992 0.709480464458465576
-1.0249476432800293 0.987146496772766113 1.06407999992370605
0.198762610554695129 2.9925694465637207 1.02037143707275391
-0.525655865669250488 -0.979518473148345947 0.348531812429428101
-1.04677081108093262 0.451002657413482666 1.01796340942382812
0.999316990375518799 -0.319424033164978027 0.421107232570648193
0.957915425300598145 3.41526126861572266 0.630913138389587402
1.404532790184021 -2.74719953536987305 0.51866072416305542
0.14419884979724884 2.93778324127197266 1.19866251945495605
0.445619732141494751 2.41210627555847168 0.785442948341369629
-1.08912503719329834 0.0909032151103019714 0.857926309108734131
-0.592817127704620361 -0.481504440307617188 0.64603954553604126
-0.983734726905822754 -1.18083846569061279 0.657021939754486084
-0.252078652381896973 -1.84729230403900146 0.271304130554199219
1.20991170406341553 -0.556559860706329346 0.431222915649414062
0.651358723640441895 -2.85126805305480957 0.489171057939529419
-0.622610151767730713 -0.0197184793651103973 0.739590346813201904
-0.995021462440490723 0.480894148349761963 0.798335433006286621
-0.88958972692489624 1.17324280738830566 1.20136904716491699
1.86664283275604248 -0.481442034244537354 1.10326135158538818
-0.914400339126586914 -0.93773341178894043 0.844826161861419678
1.92194116115570068 -1.05251312255859375 0.528747379779815674
-0.992470324039459229 -1.65632462501525879 0.690285980701446533
-1.00979733467102051 -1.02588939666748047 0.680166542530059814
1.94127845764160156 2.59266400337219238 1.10039758682250977
0.808477580547332764 -0.357422590255737305 0.424368143081665039
2.01484823226928711 -1.2721787691116333 0.780544281005859375
0.85268324613571167 -0.354462653398513794 0.466889232397079468
-1.01791501045227051 -0.189275488257408142 0.734317362308502197
0.321212828159332275 2.96249127388000488 0.542894542217254639
-0.0298782214522361755 2.94302678108215332 1.13756728172302246
-0.982585370540618896 0.0600441694259643555 0.605431020259857178
0.582444548606872559 1.75117194652557373 0.689486265182495117
1.51451206207275391 -2.60837173461914062 0.42151990532875061
1.51123237609863281 3.16096353530883789 1.53024172782897949
-0.939503729343414307 1.53323590755462646 1.14463412761688232
1.22721397876739502 -2.40425562858581543 0.448478430509567261
-0.486987382173538208 0.156602025032043457 0.783138453960418701
-0.978314101696014404 0.724377453327178955 1.10658693313598633
0.702372074127197266 0.0563815683126449585 0.3448372483253479
-1.00781846046447754 0.357635289430618286 0.970543920993804932
1.90654206275939941 -0.932415127754211426 0.971038818359375
-0.871625185012817383 -2.98317646980285645 0.366416752338409424
0.860438644886016846 -0.332677304744720459 0.421487510204315186
-0.909712433815002441 -1.27273786067962646 0.802894473075866699
1.97913849353790283 0.352184265851974487 0.901403427124023438
1.17449414730072021 -0.505428791046142578 0.550168752670288086
1.12519335746765137 3.17694997787475586 1.09350287914276123
1.38011503219604492 -1.88850903511047363 0.693034768104553223
0.970518946647644043 -2.77092266082763672 0.533560514450073242
