ply
format ascii 1.0
element vertex 256
comment vertices
property float x
property float y
property float z
end_header
-0.869609832763671875 -2.67671513557434082 0.512025952339172363
1.75309360027313232 3.18366265296936035 1.2295079231262207
1.98800182342529297 -0.412808686494827271 0.873376429080963135
-1.00978422164916992 1.18336033821105957 1.12092232704162598
1.79731929302215576 -2.74898600578308105 0.464307218790054321
-0.00161597132682800293 -0.798131942749023438 0.251034766435623169
-0.380766868591308594 3.11878490447998047 1.26376008987426758
0.768078863620758057 1.74972844123840332 0.700882911682128906
0.505373597145080566 -2.20301342010498047 0.190660864114761353
1.91368532180786133 0.99732053279876709 0.90783083438873291
-1.09858787059783936 -0.167582333087921143 0.878264367580413818
0.769522666931152344 0.42316320538520813 0.488411039113998413
-0.999568700790405273 -1.43052935600280762 0.756277143955230713
1.46423459053039551 -1.56910741329193115 0.675692319869995117
0.705406486988067627 3.06430959701538086 0.63934934139251709
1.91802263259887695 2.07070589065551758 1.02176833152770996
-0.227884620428085327 0.352568149566650391 0.830682277679443359
1.25374126434326172 -0.697589218616485596 0.218231707811355591
-0.790661811828613281 2.2324068546295166 1.1419837474822998
0.0858925953507423401 1.12090873718261719 0.591282546520233154
-0.253614068031311035 -1.62171792984008789 0.223522350192070007
0.919954538345336914 -2.84371423721313477 0.567962646484375
0.0714952647686004639 -2.88446688652038574 0.345873624086380005
0.14626486599445343 2.27153968811035156 0.640987753868103027
0.731873691082000732 -0.51649022102355957 0.801939725875854492
-0.827226102352142334 -0.75317913293838501 0.453904539346694946
-1.06686484813690186 0.55454707145690918 0.683093249797821045
1.29125440120697021 2.69856023788452148 0.905571460723876953
0.340471923351287842 3.0533149242401123 1.31001877784729004
-0.804026663303375244 -0.997043192386627197 1.28644227981567383
2.06057500839233398 0.305044263601303101 0.974797666072845459
1.94517147541046143 -2.08237624168395996 0.692392945289611816
1.31930828094482422 0.0579836070537567139 0.259884864091873169
0.816876351833343506 -1.59568464756011963 0.234388798475265503
1.93512272834777832 -1.10548079013824463 0.777145802974700928
0.0695120692253112793 3.21093344688415527 0.729808449745178223
-1.00085890293121338 -2.09714746475219727 0.785588502883911133
-0.357434630393981934 -0.330084681510925293 0.566946148872375488
0.182116329669952393 0.134739398956298828 0.394063711166381836
-0.812348365783691406 -3.28239846229553223 0.341052830219268799
0.99534916877746582 3.18419671058654785 1.18662071228027344
1.34296500682830811 -0.409357905387878418 0.766300380229949951
1.11602401733398438 -2.18641042709350586 0.233196496963500977
0.708378314971923828 -0.943271160125732422 0.23768848180770874
1.9525223970413208 2.62486433982849121 1.26240205764770508
-0.91033935546875 0.577112913131713867 1.25333404541015625
1.74579751491546631 1.50324726104736328 0.704837262630462646
0.797170341014862061 -0.165067315101623535 0.22950279712677002
0.28787580132484436 -1.3136061429977417 0.192699790000915527
1.40117895603179932 -0.970080852508544922 0.691926419734954834
1.16068148612976074 3.36076831817626953 0.623786389827728271
0.631550133228302002 2.50236964225769043 0.677588105201721191
-0.539929449558258057 1.13418185710906982 0.869684815406799316
-0.253496080636978149 -2.47134780883789062 0.247946694493293762
-0.951212167739868164 1.70515048503875732 1.17885327339172363
-0.761659622192382812 2.79980659484863281 1.10912394523620605
-0.692490100860595703 0.218409895896911621 0.5519065260887146
1.42717218399047852 -2.07014179229736328 0.733233332633972168
1.11004066467285156 0.767371892929077148 0.62802731990814209
1.33508825302124023 -2.57167577743530273 0.49525529146194458
-0.578639030456542969 -1.9874492883682251 0.287579387426376343
0.294648528099060059 -0.342078328132629395 0.358624100685119629
1.51364779472351074 0.0488860607147216797 0.705299615859985352
-1.05423879623413086 -0.877573907375335693 0.85227668285369873
0.303336769342422485 2.81346511840820312 0.791923105716705322
1.94494295120239258 -1.56923365592956543 0.761115789413452148
-0.354035764932632446 2.37574124336242676 1.20496535301208496
-0.523103773593902588 -2.82789945602416992 0.186170518398284912
1.68494617938995361 -0.34688451886177063 0.497238188982009888
1.00805723667144775 -0.129317045211791992 0.75917285680770874
1.64243519306182861 0.433326303958892822 0.860908865928649902
1.54920482635498047 1.88835644721984863 0.710987329483032227
0.502661824226379395 -2.76773309707641602 0.502840995788574219
-1.09266984462738037 0.235933870077133179 1.06880903244018555
-0.166137099266052246 0.777274966239929199 0.619268834590911865
1.36363577842712402 3.17934012413024902 0.940894663333892822
1.13362264633178711 -1.85285651683807373 0.533104360103607178
2.08084893226623535 -2.44506406784057617 0.554251134395599365
1.89002621173858643 1.48203730583190918 1.08863544464111328
0.0303419828414916992 2.94592380523681641 1.06726360321044922
0.110508307814598083 1.52530360221862793 0.621708154678344727
0.147911399602890015 -2.39084744453430176 0.227704852819442749
0.067915111780166626 -1.85708451271057129 0.149444118142127991
1.75055444240570068 -0.735835492610931396 0.828005611896514893
-0.833160161972045898 0.85510706901550293 0.977242588996887207
1.04702103137969971 -0.388472467660903931 0.458080679178237915
0.702826082706451416 -0.56010669469833374 0.343595802783966064
-1.00045275688171387 -1.84829866886138916 0.47641909122467041
1.80556154251098633 -0.904444456100463867 0.462312459945678711
0.807667076587677002 3.39545774459838867 0.9149819016456604
-0.356895387172698975 -0.917148351669311523 0.33741450309753418
0.398135960102081299 -0.728121042251586914 0.166705101728439331
-0.940401554107666016 -0.48633188009262085 0.703510284423828125
0.518936097621917725 3.06011056900024414 0.978847980499267578
0.970169961452484131 -0.792515695095062256 0.466578453779220581
0.945151329040527344 2.68854713439941406 0.74656212329864502
0.432866871356964111 1.88832783699035645 0.624649167060852051
1.76658225059509277 2.65325689315795898 0.955645442008972168
-0.245670124888420105 -2.07787466049194336 0.206333056092262268
-0.953207612037658691 -1.14290022850036621 0.561033725738525391
-0.660830497741699219 1.46006405353546143 0.860062718391418457
1.90224182605743408 0.651791214942932129 0.940207779407501221
1.70843970775604248 -1.84759783744812012 0.787748217582702637
0.0520530045032501221 -1.58556246757507324 0.374570846557617188
1.00462806224822998 2.99809122085571289 0.486267238855361938
1.00018858909606934 -2.45499324798583984 0.411194950342178345
-1.07921099662780762 -2.27869892120361328 0.506797552108764648
1.92390680313110352 -0.0791935548186302185 0.908006489276885986
1.50655817985534668 -0.639586925506591797 0.576566219329833984
1.46928977966308594 3.01931452751159668 1.30303740501403809
-0.451543688774108887 -0.65144425630569458 0.559877514839172363
-0.318817973136901855 0.0511143207550048828 0.724490761756896973
1.55988872051239014 -2.35466217994689941 0.385252147912979126
1.6389772891998291 -0.272210896015167236 0.815597057342529297
-1.03495621681213379 0.143613755702972412 0.760545909404754639
-0.949621140956878662 -1.51486873626708984 0.446598619222640991
-0.689452111721038818 2.55279970169067383 1.30011248588562012
1.09672152996063232 0.447369933128356934 0.619438529014587402
1.56493592262268066 2.95533537864685059 0.832997381687164307
0.958512663841247559 -1.30944561958312988 0.219505742192268372
1.03508031368255615 3.18230938911437988 0.857082188129425049
1.00549101829528809 0.0517080426216125488 0.329509764909744263
-0.74360358715057373 1.92852890491485596 1.25702106952667236
-0.722267746925354004 1.32629871368408203 1.13647556304931641
-0.927314460277557373 -0.116280317306518555 0.622737228870391846
0.0164334774017333984 -0.22102653980255127 0.409955859184265137
1.42794275283813477 -0.196689620614051819 0.392700940370559692
-1.10532045364379883 -2.80674433708190918 0.653043866157531738
0.417726993560791016 -0.0220631062984466553 0.285167396068572998
-0.60522693395614624 -1.68726265430450439 0.313337743282318115
1.30542135238647461 -1.31497621536254883 0.687474370002746582
1.60938167572021484 -1.31359100341796875 0.718719482421875
0.114284992218017578 -1.54901385307312012 0.0869482383131980896
-0.622791171073913574 -0.209097981452941895 0.612573444843292236
0.256653457880020142 -2.66479706764221191 0.279610872268676758
1.9349818229675293 2.40501713752746582 1.0691760778427124
-0.776629507541656494 0.246752619743347168 0.852686762809753418
0.647131860256195068 0.158256798982620239 0.501779854297637939
-1.02543091773986816 0.635253071784973145 0.979836821556091309
-1.08822345733642578 -2.49871301651000977 0.698134183883666992
1.89407706260681152 -0.697686612606048584 1.07849287986755371
1.18317604064941406 -0.317146539688110352 0.210863232612609863
0.752088189125061035 -2.60730457305908203 0.560332536697387695
1.52910268306732178 -0.559029638767242432 0.301746010780334473
0.328609436750411987 -2.42563199996948242 0.444492340087890625
0.378313362598419189 -1.01048386096954346 0.193298488855361938
2.0351262092590332 -2.70259213447570801 0.664177775382995605
1.89556038379669189 -2.36899733543395996 0.754932641983032227
0.200838863849639893 -2.09204840660095215 0.232161492109298706
-0.0622522532939910889 0.705079078674316406 0.871436119079589844
-0.963889539241790771 -1.17172455787658691 0.859040737152099609
1.22215819358825684 -0.60135340690612793 0.510640501976013184
-0.482147783041000366 2.96256756782531738 1.05407476425170898
-0.592373847961425781 0.47734987735748291 0.5903472900390625
0.977790415287017822 -0.684557199478149414 0.184592142701148987
-0.936995208263397217 0.89034569263458252 1.23195266723632812
1.19469189643859863 2.946502685546875 0.835074186325073242
1.55153274536132812 -0.931919097900390625 0.361455231904983521
-0.308350861072540283 -2.95949339866638184 0.294772505760192871
1.90858340263366699 1.26983308792114258 0.878442049026489258
-0.642382919788360596 -3.03692984580993652 0.312922805547714233
-0.961481213569641113 -2.95186233520507812 0.474395036697387695
0.731571555137634277 3.12288141250610352 1.18981361389160156
0.31369483470916748 3.09161877632141113 0.806983232498168945
1.89583122730255127 1.81688082218170166 0.944722652435302734
1.7976151704788208 2.84006118774414062 1.28159701824188232
0.62136542797088623 -0.782235145568847656 0.4568672776222229
-0.633621573448181152 3.05390119552612305 1.27140402793884277
-0.510431170463562012 2.71915555000305176 1.14334464073181152
1.35180246829986572 -1.82264101505279541 0.702610611915588379
0.798856854438781738 -0.381436169147491455 0.531150937080383301
0.263426780700683594 -0.85906904935836792 0.367098569869995117
1.34580111503601074 -2.811920166015625 0.586302042007446289
1.67422771453857422 -2.12232613563537598 0.781028628349304199
-1.04394543170928955 -1.67407727241516113 0.818879187107086182
1.94183099269866943 0.420431017875671387 0.789961099624633789
-0.675248384475708008 0.786920547485351562 0.798421978950500488
-0.899865031242370605 1.05006694793701172 0.8402060866355896
1.71502697467803955 -0.494709491729736328 0.884833455085754395
0.0476205497980117798 2.07510209083557129 0.748688459396362305
1.23871028423309326 3.19461655616760254 1.20216536521911621
1.24352312088012695 -0.188974380493164062 0.78547590970993042
1.12082028388977051 -2.72701144218444824 0.635433733463287354
-1.00666499137878418 0.379939854145050049 0.897023141384124756
1.00356781482696533 -0.365474045276641846 0.716988325119018555
1.93857598304748535 -2.56269192695617676 0.401765912771224976
-0.959256231784820557 -0.359926372766494751 0.906424820423126221
1.1638408899307251 3.08767986297607422 0.639212846755981445
0.097667306661605835 -2.55199050903320312 0.415977835655212402
0.7798728346824646 2.8372499942779541 0.667930901050567627
-0.958951354026794434 0.337421625852584839 0.651380479335784912
0.80992436408996582 3.14150619506835938 0.905573189258575439
0.475395023822784424 3.11285901069641113 0.640568435192108154
-0.980704128742218018 -1.87072277069091797 0.715721487998962402
-0.464398801326751709 0.190915405750274658 0.54920727014541626
1.8517000675201416 -2.28952527046203613 0.543872177600860596
-0.324735790491104126 -0.690165996551513672 0.326532155275344849
1.06738698482513428 3.39241957664489746 0.941739916801452637
1.56681597232818604 -1.80449604988098145 0.613426744937896729
-0.19535847008228302 2.99106740951538086 1.23241150379180908
1.95937097072601318 0.156242847442626953 0.83635103702545166
-0.908345997333526611 -0.954089999198913574 0.677168071269989014
1.32387256622314453 -0.382672935724258423 0.459372371435165405
1.19067966938018799 -2.71500730514526367 0.405022770166397095
0.712601840496063232 -2.27149057388305664 0.23341667652130127
-1.0233687162399292 -0.612639367580413818 0.86503911018371582
-0.97190171480178833 -2.31208682060241699 0.746804535388946533
-1.0249476432800293 0.981404304504394531 1.0353691577911377
0.227473437786102295 3.10167050361633301 1.00888705253601074
-0.554366707801818848 -0.993873894214630127 0.382984817028045654
-1.0438997745513916 0.439518332481384277 1.12419354915618896
1.1572265625 -0.150030136108398438 0.343587994575500488
0.960786521434783936 3.41813230514526367 0.570620357990264893
1.50789177417755127 -2.66968035697937012 0.570340216159820557
0.14419884979724884 3.06411099433898926 1.23024439811706543
0.445619732141494751 2.40923523902893066 0.719408035278320312
-1.08051180839538574 0.0593212991952896118 0.955543160438537598
-0.598559319972991943 -0.518828511238098145 0.628813028335571289
-1.08709371089935303 -1.25261557102203369 0.67711949348449707
-0.266434073448181152 -1.8271946907043457 0.248335465788841248
1.17545866966247559 -0.794859766960144043 0.448449403047561646
0.634132206439971924 -2.90294766426086426 0.420265048742294312
-0.628352344036102295 -0.022589564323425293 0.699395179748535156
-0.880178153514862061 0.521089315414428711 0.761011362075805664
-0.840781331062316895 1.17324280738830566 1.23582208156585693
1.83793199062347412 -0.415407121181488037 1.0257420539855957
-0.862720847129821777 -0.900409340858459473 0.913732171058654785
1.92194116115570068 -0.989349305629730225 0.603395521640777588
-1.0183100700378418 -1.69364869594573975 0.621379971504211426
-1.07296121120452881 -1.05172920227050781 0.734717130661010742
1.87237250804901123 2.73621821403503418 1.10326862335205078
0.716602921485900879 -0.25119251012802124 0.404270559549331665
2.00910615921020508 -1.38127994537353516 0.771931052207946777
0.921589255332946777 -0.239619314670562744 0.423822969198226929
-1.09543430805206299 -0.212244153022766113 0.662540256977081299
0.338439315557479858 2.89932751655578613 0.617542684078216553
-0.098784223198890686 3.12103390693664551 1.12034082412719727
-0.919421553611755371 0.0600441694259643555 0.53652501106262207
0.582444548606872559 1.73968756198883057 0.63780677318572998
1.60925781726837158 -2.54233694076538086 0.407164484262466431
1.52271676063537598 3.1810610294342041 1.39817190170288086
-0.884953141212463379 1.55046236515045166 1.08147025108337402
1.17553448677062988 -2.37841582298278809 0.442736268043518066
-0.495600640773773193 0.156602025032043457 0.737201094627380371
-0.897923767566680908 0.721506357192993164 1.09797370433807373
0.693758845329284668 0.0592526495456695557 0.3448372483253479
-0.915943741798400879 0.297342538833618164 1.12845349311828613
1.87208902835845947 -0.8692513108253479 0.890648484230041504
-0.73955535888671875 -2.87407541275024414 0.303252905607223511
0.99537956714630127 -0.292482137680053711 0.19754299521446228
-0.803482353687286377 -1.27273786067962646 0.851702868938446045
1.81261563301086426 0.38376617431640625 0.927243173122406006
1.17449414730072021 -0.315937280654907227 0.653527736663818359
1.10509574413299561 3.22575831413269043 1.0245969295501709
1.54376673698425293 -1.98899698257446289 0.598289012908935547
0.930323779582977295 -2.63311076164245605 0.599595427513122559
