ply
format ascii 1.0
element vertex 256
comment vertices
property float x
property float y
property float z
end_header
1.87265145778656006 0.465097993612289429 0.894812047481536865
-1.05994057655334473 -2.78685212135314941 0.525936603546142578
-0.575150489807128906 3.06235766410827637 1.19571375846862793
1.99900472164154053 -2.76964902877807617 0.513198554515838623
-1.06196582317352295 0.137183845043182373 1.11505842208862305
1.87448978424072266 2.82026195526123047 1.24748432636260986
0.387735843658447266 -1.2238013744354248 0.207565352320671082
0.325582176446914673 1.44859027862548828 0.627517342567443848
1.97047090530395508 -1.17713403701782227 0.832949995994567871
0.471073329448699951 -2.81603407859802246 0.579957544803619385
-1.08806538581848145 -1.32789444923400879 0.804070115089416504
-1.00475966930389404 1.72202372550964355 1.068930983543396
0.30867728590965271 0.147599309682846069 0.156053557991981506
0.664763331413269043 2.88339710235595703 0.79159623384475708
1.89871418476104736 1.66777682304382324 1.01175761222839355
1.33405876159667969 -0.28299868106842041 0.169494092464447021
-0.291465729475021362 -2.0243382453918457 0.238627225160598755
1.35505294799804688 -1.98308694362640381 0.70657271146774292
1.23133707046508789 1.12642407417297363 0.501471102237701416
-1.06955265998840332 0.930375874042510986 0.531726539134979248
-0.512274503707885742 -0.272710680961608887 0.376552879810333252
0.0185928046703338623 2.27042365074157715 0.99917900562286377
1.79842293262481689 -0.377296924591064453 1.02567136287689209
1.14398837089538574 3.1446678638458252 1.42072117328643799
1.24745380878448486 -0.996531665325164795 0.532098174095153809
1.1990731954574585 2.01826071739196777 0.849768340587615967
0.981620728969573975 0.335629850625991821 0.50657123327255249
-0.862265467643737793 -1.06037318706512451 1.50226795673370361
0.0299777388572692871 0.688771605491638184 0.62406468391418457
0.532863855361938477 -1.93995499610900879 0.404895961284637451
1.21273291110992432 -2.72028994560241699 0.54012906551361084
-0.484905242919921875 -1.14523863792419434 0.401636481285095215
-1.08231782913208008 -0.590929388999938965 0.907788634300231934
-1.07443904876708984 -2.03053617477416992 0.565761566162109375
0.113909035921096802 3.03342008590698242 1.17507576942443848
0.640815138816833496 -0.606722414493560791 0.0550086498260498047
1.34765493869781494 2.67508697509765625 0.793619215488433838
-0.869144082069396973 2.36071133613586426 1.13076090812683105
-0.905246615409851074 0.305367350578308105 0.509257853031158447
-0.488591790199279785 -2.74074983596801758 0.259889602661132812
0.611496329307556152 2.23012828826904297 0.760838747024536133
1.94342982769012451 1.1568673849105835 0.652782738208770752
1.71748948097229004 0.230570971965789795 0.349008619785308838
1.91934645175933838 -2.21331667900085449 0.771192073822021484
1.22985923290252686 -0.389621138572692871 0.755916953086853027
1.91411042213439941 2.22652173042297363 1.16141808032989502
-0.179151684045791626 1.21442997455596924 0.621709942817687988
0.844056844711303711 -0.231175437569618225 0.411129087209701538
1.86392438411712646 1.17644941806793213 1.22205245494842529
-0.960081934928894043 0.72318875789642334 1.01305878162384033
-0.0212044715881347656 -0.935080230236053467 0.0360017865896224976
1.87940406799316406 -1.67592000961303711 0.685975968837738037
-0.10736711323261261 -1.54676103591918945 0.126368492841720581
-0.0511974543333053589 -2.46294808387756348 0.390159100294113159
1.7783275842666626 0.746864140033721924 0.35183405876159668
-0.806792497634887695 1.36739981174468994 0.616038382053375244
0.930498003959655762 1.71538615226745605 0.560117959976196289
-1.02654731273651123 -0.295013964176177979 1.35795021057128906
1.31563103199005127 -1.4067227840423584 0.797695279121398926
0.65674668550491333 3.13548946380615234 1.20788812637329102
-1.07978630065917969 -0.130665719509124756 0.635065138339996338
0.492473125457763672 0.628178596496582031 0.514963388442993164
0.276325404644012451 -0.319174200296401978 0.254251837730407715
1.91419637203216553 2.53715872764587402 0.798553586006164551
1.95265448093414307 -0.863561630249023438 0.476947665214538574
1.25870203971862793 1.54926860332489014 0.866056919097900391
-1.03906679153442383 1.23100364208221436 0.997446358203887939
-0.634558200836181641 -1.84971868991851807 0.499257951974868774
0.0172935929149389267 -2.89811372756958008 0.5440024733543396
1.20920860767364502 0.383409351110458374 0.10833904892206192
-0.946163177490234375 -0.895175457000732422 0.606729984283447266
1.56444859504699707 -0.601817965507507324 0.545341730117797852
0.863935112953186035 -2.22184109687805176 0.508125901222229004
0.214198037981987 2.61942243576049805 0.803936123847961426
0.974942207336425781 -1.31838667392730713 0.430047690868377686
1.0476762056350708 -0.597642421722412109 0.241911575198173523
1.91765499114990234 0.0425784550607204437 0.955023407936096191
0.289479553699493408 -2.3436119556427002 0.613066673278808594
0.034919440746307373 0.27978670597076416 0.513934731483459473
1.59596526622772217 3.11709284782409668 1.34562563896179199
-0.500969409942626953 0.20254218578338623 0.488134533166885376
1.34936368465423584 0.00228866934776306152 0.471460640430450439
2.07907533645629883 0.360812127590179443 0.495357394218444824
1.00990986824035645 2.44965910911560059 0.851059556007385254
1.41652750968933105 0.443799793720245361 0.51300513744354248
2.00592303276062012 0.777692019939422607 1.11147761344909668
0.819675803184509277 -2.64549350738525391 0.499761402606964111
-1.02124714851379395 -1.63992190361022949 0.536378681659698486
-1.09288239479064941 -1.81835699081420898 0.898335278034210205
1.55572748184204102 -2.524993896484375 0.546590447425842285
-1.05673658847808838 -0.91645050048828125 1.12471771240234375
-0.22590366005897522 -0.0696148872375488281 0.206719741225242615
0.985567450523376465 3.094207763671875 1.00344133377075195
0.935699164867401123 -1.85016012191772461 0.418585777282714844
-0.837387144565582275 -0.0928779840469360352 0.262324929237365723
0.651169836521148682 0.157066971063613892 0.421188384294509888
-0.786926150321960449 2.74207115173339844 1.16803443431854248
1.62197244167327881 -0.71367955207824707 1.0062490701675415
-0.976009130477905273 2.19731473922729492 0.804662168025970459
-0.767342686653137207 -1.39633297920227051 0.373667508363723755
-1.0724872350692749 0.407333612442016602 0.84006047248840332
-0.707535862922668457 0.841951608657836914 0.580980896949768066
-0.780241489410400391 -2.52952098846435547 0.359945058822631836
-0.520193517208099365 2.23418331146240234 1.09524440765380859
1.61474180221557617 1.45060360431671143 0.817154407501220703
0.681185245513916016 1.44304466247558594 0.515547037124633789
1.08900570869445801 -0.00535613298416137695 0.151141256093978882
-0.690806806087493896 1.601479172706604 0.924615681171417236
-0.6401405930519104 0.512734591960906982 0.357371866703033447
-1.038909912109375 -2.38901257514953613 0.570354461669921875
0.368000447750091553 -0.836001932621002197 0.0118144191801548004
-0.0102001428604125977 1.48999392986297607 0.776277363300323486
0.885116875171661377 -0.28339463472366333 0.0555061325430870056
-1.07031631469726562 0.592684030532836914 0.400565475225448608
0.842332899570465088 1.93959450721740723 0.811997771263122559
-0.230331122875213623 3.00102019309997559 1.16990542411804199
0.873623251914978027 0.465670377016067505 0.102318793535232544
1.38701200485229492 -1.60356473922729492 0.531086385250091553
-1.14686143398284912 -0.183382794260978699 1.06481671333312988
1.99897980690002441 -2.41831374168395996 0.523071408271789551
1.07420885562896729 2.77886295318603516 0.984611451625823975
-0.209115445613861084 -1.18201518058776855 0.136126220226287842
1.40639817714691162 0.0641583055257797241 0.131232738494873047
0.647216796875 -2.97500705718994141 0.360465973615646362
-0.579947710037231445 0.0970278382301330566 0.194563046097755432
-1.05181574821472168 -0.449959367513656616 0.616116821765899658
1.6883234977722168 -2.03502607345581055 0.637871325016021729
1.13894128799438477 -0.349957525730133057 0.450384259223937988
1.91016077995300293 1.36839723587036133 0.879640698432922363
-0.90888369083404541 0.619305133819580078 0.681463837623596191
0.608243346214294434 0.0166567564010620117 0.146805241703987122
1.48165583610534668 -0.332077354192733765 0.928221344947814941
1.65954816341400146 -1.4591374397277832 0.715782999992370605
-0.744491875171661377 2.02787685394287109 1.04092192649841309
1.80191934108734131 -0.949842631816864014 1.05030357837677002
0.7777862548828125 -1.1854853630065918 0.247187957167625427
-1.01715970039367676 1.59429264068603516 0.798446059226989746
1.42235767841339111 -0.543696582317352295 0.288757562637329102
1.04218435287475586 -0.888203918933868408 0.172713533043861389
-1.07836103439331055 -1.03043532371520996 0.837333559989929199
1.16927468776702881 -2.08749580383300781 0.498080223798751831
1.94884753227233887 2.52021360397338867 1.13375568389892578
0.150096774101257324 0.953123331069946289 0.682282984256744385
0.195758163928985596 2.22954273223876953 0.766215205192565918
-1.04591667652130127 1.21033883094787598 0.686614692211151123
-0.404696255922317505 -0.469328522682189941 0.190688654780387878
-0.0581584721803665161 -2.19724488258361816 0.273372620344161987
1.70054137706756592 1.78851497173309326 0.840485095977783203
1.93158531188964844 0.950480401515960693 0.90011298656463623
-1.08504664897918701 0.131868094205856323 0.738914132118225098
-0.0956283360719680786 -1.82635927200317383 0.145803064107894897
1.92141950130462646 1.94751429557800293 1.18396902084350586
-0.963782131671905518 0.95239788293838501 0.853584587574005127
-1.01508593559265137 -0.560650289058685303 1.2727811336517334
1.41159582138061523 -0.26762920618057251 0.503756165504455566
0.848863303661346436 2.67921733856201172 0.831778287887573242
1.58417296409606934 -2.79317045211791992 0.483097225427627563
0.650058269500732422 -0.277594983577728271 0.222072705626487732
0.179002746939659119 3.04652738571166992 0.910073339939117432
-0.194738030433654785 0.387337803840637207 0.613644659519195557
0.87054753303527832 3.11127996444702148 1.37225234508514404
-0.860183894634246826 -0.318590283393859863 0.478884965181350708
1.95486867427825928 -1.92504680156707764 0.752348363399505615
0.000225067138671875 -0.209038481116294861 0.167983412742614746
0.214288637042045593 -0.0861395597457885742 0.37121465802192688
-0.841720700263977051 -1.24127960205078125 1.3057330846786499
-1.1335214376449585 1.41641414165496826 1.16446018218994141
0.369230568408966064 3.05824804306030273 1.12228333950042725
-0.511536240577697754 -2.11101102828979492 0.349704235792160034
1.41350781917572021 1.25189173221588135 0.637839972972869873
0.513460993766784668 -2.56575608253479004 0.635416090488433838
0.46499180793762207 2.66256499290466309 0.757372498512268066
-1.06461405754089355 -0.314115554094314575 0.835363268852233887
1.68807506561279297 1.15168678760528564 0.659107685089111328
1.46556770801544189 1.25696408748626709 0.890679001808166504
1.52542686462402344 2.53392267227172852 0.910156369209289551
1.23584699630737305 -0.747774124145507812 0.586642026901245117
1.85893189907073975 0.787001311779022217 0.589409172534942627
1.97323644161224365 -1.10097301006317139 0.561776101589202881
-0.901662826538085938 -2.18444728851318359 0.465928494930267334
1.74012172222137451 -1.18231797218322754 0.731112182140350342
1.89459335803985596 -1.42829024791717529 0.794309377670288086
-0.308277219533920288 -1.68393146991729736 0.0823641270399093628
1.40993642807006836 -1.74508142471313477 0.743912756443023682
1.3245995044708252 0.285838425159454346 0.303011208772659302
1.36069977283477783 -2.22652840614318848 0.740862071514129639
1.07511329650878906 -0.468149185180664062 0.0356880351901054382
2.05979156494140625 0.502182483673095703 0.692202270030975342
-0.980029523372650146 -1.40527749061584473 0.581366539001464844
-0.606870353221893311 -0.939081430435180664 0.432645708322525024
-0.927790224552154541 -1.09812688827514648 0.477325588464736938
0.87319648265838623 -0.70332711935043335 0.117302000522613525
0.763020575046539307 2.40479278564453125 0.812969446182250977
0.29053807258605957 2.83402824401855469 0.868829011917114258
-1.07384538650512695 0.470711052417755127 0.60236281156539917
-1.10758185386657715 -2.1755983829498291 0.748150229454040527
-0.892730414867401123 1.41288971900939941 1.01709520816802979
0.992900252342224121 -0.818158626556396484 0.390593171119689941
-0.934257388114929199 1.97166943550109863 0.850022077560424805
1.94014203548431396 0.366473913192749023 0.308617949485778809
-0.283997952938079834 0.0730760097503662109 0.380987465381622314
1.04246759414672852 -0.238981276750564575 0.271555423736572266
0.34364733099937439 -2.91814422607421875 0.416213899850845337
1.07145106792449951 -0.0275800228118896484 0.380031317472457886
-1.13992726802825928 -0.0382314771413803101 0.887169837951660156
0.205651074647903442 2.45891833305358887 0.966727375984191895
1.2117760181427002 -1.81490612030029297 0.652201473712921143
1.20724391937255859 3.17101812362670898 1.20588314533233643
-1.07425773143768311 0.0187737196683883667 1.3050769567489624
1.16540098190307617 -0.589663684368133545 0.447889626026153564
1.99966394901275635 -0.958464443683624268 0.831364154815673828
0.67299652099609375 -2.4844825267791748 0.465921580791473389
-0.999743878841400146 -1.09769868850708008 1.23620223999023438
1.06855952739715576 1.86712324619293213 0.638595819473266602
-1.09998393058776855 -1.83843398094177246 0.668375313282012939
1.45913755893707275 1.20680618286132812 0.429566830396652222
1.39208889007568359 -1.20604753494262695 0.784496665000915527
1.083321213722229 -1.1250079870223999 0.479202091693878174
0.494294792413711548 1.32210850715637207 0.589276611804962158
0.786024212837219238 -0.102595172822475433 0.137118875980377197
-1.08739733695983887 -2.25568437576293945 0.38933679461479187
-1.12136077880859375 0.328413426876068115 1.03187072277069092
1.01680135726928711 0.369130760431289673 0.301092207431793213
1.64027345180511475 0.846088171005249023 0.474734306335449219
0.782139003276824951 2.14202356338500977 0.845019817352294922
-0.529955267906188965 -0.00473928451538085938 0.476427137851715088
1.73096024990081787 -1.82126700878143311 0.711402356624603271
0.931972920894622803 -0.420389890670776367 0.400840282440185547
2.04182696342468262 -2.18901944160461426 0.604496598243713379
-1.1382976770401001 0.59137415885925293 0.90761864185333252
-1.00343823432922363 -0.706131935119628906 0.667259812355041504
0.599441111087799072 2.97522401809692383 1.09130609035491943
0.79794776439666748 -2.84253716468811035 0.550805032253265381
1.91685378551483154 0.625838994979858398 0.76845860481262207
1.08905303478240967 -2.59160280227661133 0.443627029657363892
1.39689898490905762 -2.67993569374084473 0.465870261192321777
-1.04032361507415771 0.774119853973388672 0.80358511209487915
-1.11158525943756104 -1.50365304946899414 0.711368083953857422
-1.08974337577819824 -0.848833084106445312 0.919417142868041992
1.84118592739105225 1.18354511260986328 0.876842200756072998
-1.00509560108184814 1.4034264087677002 0.753005146980285645
-0.32876884937286377 -0.223701298236846924 0.142098307609558105
0.216246217489242554 -2.85541868209838867 0.550310730934143066
0.972947359085083008 -0.26967349648475647 0.552017092704772949
-0.66015392541885376 0.440839171409606934 0.535765111446380615
-1.03709256649017334 0.933599352836608887 1.03143322467803955
0.831356406211853027 3.15709900856018066 1.12787413597106934
1.71284937858581543 2.53206038475036621 0.95380103588104248
1.95052087306976318 2.72573351860046387 0.802760124206542969
0.497489631175994873 -1.75158357620239258 0.410279214382171631
-0.926276683807373047 1.89269590377807617 1.02453792095184326
1.56326580047607422 0.456917524337768555 0.390608608722686768
1.53798389434814453 -1.85710585117340088 0.656416058540344238
1.83336043357849121 0.492218375205993652 1.07983040809631348
1.74339008331298828 -0.334368258714675903 0.847999930381774902
0.156243786215782166 0.420523762702941895 0.556600868701934814
