ply
format ascii 1.0
element vertex 20
comment vertices
property float x
property float y
property float z
end_header
1.33055305480957031 1.81043803691864014 -1.07050395011901855
0.814041972160339355 0.954158008098602295 -1.07050395011901855
0.20359000563621521 2.31376099586486816 -0.610332012176513672
1.05844700336456299 1.79489803314208984 -0.610332012176513672
-0.207319006323814392 1.88364899158477783 -1.01923704147338867
0.680710017681121826 1.42386102676391602 -1.01923704147338867
-0.49035799503326416 1.6378779411315918 -0.973900973796844482
0.416851997375488281 1.21720004081726074 -0.973900973796844482
-0.423516005277633667 1.32334697246551514 -1.24326300621032715
0.402911007404327393 0.760303020477294922 -1.24326300621032715
-0.37048301100730896 1.40476095676422119 -1.24630200862884521
0.428600996732711792 0.803542017936706543 -1.24630200862884521
-0.110172003507614136 1.59489595890045166 -1.24362897872924805
0.741389989852905273 1.07064294815063477 -1.24362897872924805
-0.170064002275466919 1.53147399425506592 -1.2369539737701416
0.639447987079620361 0.944369971752166748 -1.2369539737701416
-0.270630985498428345 1.46201395988464355 -1.23954904079437256
0.587700009346008301 0.948916971683502197 -1.23954904079437256
-0.584118008613586426 1.36828494071960449 -1.24836504459381104
0.291985005140304565 0.886161983013153076 -1.24836504459381104
