ply
format ascii 1.0
element vertex 80
comment vertices
property float x
property float y
property float z
end_header
1.66437423229217529 1.87580275535583496 -0.833434998989105225
1.42843914031982422 1.48466587066650391 -0.833434998989105225
0.996731698513031006 1.74507319927215576 -0.833434998989105225
1.23266685009002686 2.13621020317077637 -0.833434998989105225
1.66437423229217529 1.87580275535583496 -1.30757296085357666
1.42843914031982422 1.48466587066650391 -1.30757296085357666
0.996731698513031006 1.74507319927215576 -1.30757296085357666
1.23266685009002686 2.13621020317077637 -1.30757296085357666
0.0716332197189331055 2.85421895980834961 0.0996019989252090454
0.743940889835357666 2.44615602493286133 0.0996019989252090454
0.335546791553497314 1.77330291271209717 0.0996019989252090454
-0.336760878562927246 2.181365966796875 0.0996019989252090454
0.0716332197189331055 2.85421895980834961 -1.3202660083770752
0.743940889835357666 2.44615602493286133 -1.3202660083770752
0.335546791553497314 1.77330291271209717 -1.3202660083770752
-0.336760878562927246 2.181365966796875 -1.3202660083770752
-0.396771103143692017 2.14390826225280762 -0.708461999893188477
0.114561200141906738 1.87915968894958496 -0.708461999893188477
-0.0178669057786464691 1.62338972091674805 -0.708461999893188477
-0.529199182987213135 1.8881382942199707 -0.708461999893188477
-0.396771103143692017 2.14390826225280762 -1.33001196384429932
0.114561200141906738 1.87915968894958496 -1.33001196384429932
-0.0178669057786464691 1.62338972091674805 -1.33001196384429932
-0.529199182987213135 1.8881382942199707 -1.33001196384429932
-0.571439981460571289 1.84063303470611572 -0.618924975395202637
-0.283213943243026733 1.70698118209838867 -0.618924975395202637
-0.409276008605957031 1.43512296676635742 -0.618924975395202637
-0.697502076625823975 1.56877481937408447 -0.618924975395202637
-0.571439981460571289 1.84063303470611572 -1.32887697219848633
-0.283213943243026733 1.70698118209838867 -1.32887697219848633
-0.409276008605957031 1.43512296676635742 -1.32887697219848633
-0.697502076625823975 1.56877481937408447 -1.32887697219848633
-0.435648411512374878 1.41199982166290283 -1.1535029411315918
-0.33657306432723999 1.34449982643127441 -1.1535029411315918
-0.411383569240570068 1.23469412326812744 -1.1535029411315918
-0.510458946228027344 1.30219411849975586 -1.1535029411315918
-0.435648411512374878 1.41199982166290283 -1.33302295207977295
-0.33657306432723999 1.34449982643127441 -1.33302295207977295
-0.411383569240570068 1.23469412326812744 -1.33302295207977295
-0.510458946228027344 1.30219411849975586 -1.33302295207977295
-0.381881356239318848 1.47799348831176758 -1.16062498092651367
-0.296959489583969116 1.41409945487976074 -1.16062498092651367
-0.359084665775299072 1.33152854442596436 -1.16062498092651367
-0.444006532430648804 1.39542245864868164 -1.16062498092651367
-0.381881356239318848 1.47799348831176758 -1.33197903633117676
-0.296959489583969116 1.41409945487976074 -1.33197903633117676
-0.359084665775299072 1.33152854442596436 -1.33197903633117676
-0.444006532430648804 1.39542245864868164 -1.33197903633117676
-0.13482879102230072 1.67419779300689697 -1.14567005634307861
-0.0282625649124383926 1.60859167575836182 -1.14567005634307861
-0.0855152159929275513 1.5155942440032959 -1.14567005634307861
-0.192081436514854431 1.58120036125183105 -1.14567005634307861
-0.13482879102230072 1.67419779300689697 -1.34158802032470703
-0.0282625649124383926 1.60859167575836182 -1.34158802032470703
-0.0855152159929275513 1.5155942440032959 -1.34158802032470703
-0.192081436514854431 1.58120036125183105 -1.34158802032470703
-0.179795637726783752 1.61811816692352295 -1.14721298217773438
-0.0846828669309616089 1.54913699626922607 -1.14721298217773438
-0.160332366824150085 1.44482982158660889 -1.14721298217773438
-0.255445122718811035 1.51381099224090576 -1.14721298217773438
-0.179795637726783752 1.61811816692352295 -1.32669496536254883
-0.0846828669309616089 1.54913699626922607 -1.32669496536254883
-0.160332366824150085 1.44482982158660889 -1.32669496536254883
-0.255445122718811035 1.51381099224090576 -1.32669496536254883
-0.285393089056015015 1.53678977489471436 -1.14979803562164307
-0.197778135538101196 1.48441493511199951 -1.14979803562164307
-0.255868911743164062 1.38723814487457275 -1.14979803562164307
-0.343483865261077881 1.43961310386657715 -1.14979803562164307
-0.285393089056015015 1.53678977489471436 -1.32930004596710205
-0.197778135538101196 1.48441493511199951 -1.32930004596710205
-0.255868911743164062 1.38723814487457275 -1.32930004596710205
-0.343483865261077881 1.43961310386657715 -1.32930004596710205
-0.610968887805938721 1.45173227787017822 -1.15854501724243164
-0.499255180358886719 1.39025580883026123 -1.15854501724243164
-0.557267129421234131 1.28483772277832031 -1.15854501724243164
-0.668980836868286133 1.3463141918182373 -1.15854501724243164
-0.610968887805938721 1.45173227787017822 -1.33818495273590088
-0.499255180358886719 1.39025580883026123 -1.33818495273590088
-0.557267129421234131 1.28483772277832031 -1.33818495273590088
-0.668980836868286133 1.3463141918182373 -1.33818495273590088
