ply
format ascii 1.0
element vertex 256
comment vertices
property float x
property float y
property float z
end_header
0.451719850301742554 1.93580377101898193 -1.68643784523010254
3.90679717063903809 6.34061527252197266 -0.715004086494445801
0.612117528915405273 4.79862833023071289 -0.194308355450630188
2.29957413673400879 3.46838235855102539 -1.51775872707366943
-1.46755862236022949 2.3342289924621582 -0.419151365756988525
0.805540502071380615 6.55055904388427734 -1.21589517593383789
2.57187819480895996 5.10327053070068359 0.107803128659725189
-0.378154665231704712 3.59991574287414551 -0.981483817100524902
3.00474929809570312 4.9014277458190918 -1.55778539180755615
-1.01704108715057373 1.44061899185180664 -1.63470780849456787
1.03311800956726074 3.15241765975952148 -0.835373878479003906
1.34215927124023438 6.11238622665405273 0.0706815123558044434
1.87101733684539795 1.99131882190704346 -1.62279808521270752
1.66212213039398193 4.60930585861206055 -1.03624391555786133
-0.542927980422973633 1.2206348180770874 -0.52528458833694458
-0.0759724527597427368 2.46788191795349121 -0.755070984363555908
-0.840396463871002197 2.61117196083068848 -1.56646847724914551
2.22034478187561035 5.91437673568725586 -0.589431524276733398
3.20605683326721191 5.47555112838745117 -0.618766903877258301
0.55202639102935791 4.73566102981567383 -1.20375335216522217
-0.105184905230998993 1.07302665710449219 -1.59791123867034912
-0.0989698171615600586 4.12935829162597656 -0.213499516248703003
1.51250600814819336 2.93748760223388672 -1.69341742992401123
1.10224997997283936 1.29716861248016357 -1.64481806755065918
-0.773068070411682129 3.05110001564025879 -0.379721701145172119
0.176732748746871948 1.62451362609863281 -0.887601256370544434
1.40210354328155518 5.92733287811279297 -0.999091982841491699
2.69466662406921387 4.28590965270996094 -1.07726705074310303
2.49859523773193359 5.09666633605957031 -0.934725284576416016
0.697895824909210205 2.34954023361206055 -0.977167248725891113
-0.630145430564880371 1.97090709209442139 -1.12111711502075195
1.8960118293762207 5.54401159286499023 0.0529302880167961121
0.817330598831176758 6.46143817901611328 -0.410697758197784424
-1.44762945175170898 2.2525932788848877 -1.19939446449279785
0.322059214115142822 3.94201111793518066 -0.917772173881530762
2.24384522438049316 2.70041513442993164 -1.60776448249816895
1.19597971439361572 2.28198051452636719 -1.68556416034698486
1.60338103771209717 3.60973024368286133 -1.60554134845733643
-0.905986547470092773 2.5593101978302002 -0.827396214008331299
1.08444809913635254 4.71364021301269531 -0.656968116760253906
0.340661108493804932 2.97252488136291504 -0.778804302215576172
0.746574223041534424 2.72689557075500488 -1.53157079219818115
-1.13686811923980713 1.80985748767852783 -0.781711816787719727
3.8994448184967041 6.03020095825195312 -1.26123476028442383
-0.547804713249206543 1.16631400585174561 -1.16193222999572754
-0.285585790872573853 1.67410778999328613 -1.543648362159729
1.60208463668823242 5.82524585723876953 -0.42672303318977356
-0.720897376537322998 3.14748716354370117 -1.20836329460144043
3.12700438499450684 5.40950536727905273 -1.24563038349151611
0.478583633899688721 1.16919004917144775 -1.6449425220489502
-0.399741888046264648 3.50530409812927246 -0.37544095516204834
0.282538026571273804 4.46615505218505859 -0.661533892154693604
3.12449765205383301 4.61557626724243164 -0.859810531139373779
-1.1088404655456543 2.04212355613708496 -1.59987318515777588
2.29340481758117676 5.36903095245361328 -0.303380310535430908
1.72796475887298584 4.85569906234741211 -0.55621802806854248
1.63897240161895752 1.5067514181137085 -1.56467020511627197
-0.190108627080917358 3.05212163925170898 -0.831974565982818604
2.46200418472290039 5.98729133605957031 -0.12209116667509079
2.08504962921142578 5.40939712524414062 -0.861407339572906494
-0.334165394306182861 2.03247833251953125 -0.638895213603973389
-0.607152462005615234 0.968977093696594238 -1.67164170742034912
1.98397862911224365 3.95276808738708496 -1.5926363468170166
-0.202740386128425598 2.16170477867126465 -1.46699762344360352
0.273517727851867676 2.1166081428527832 -0.806680142879486084
-0.697534859180450439 1.56571722030639648 -0.853423416614532471
1.05599379539489746 6.26172161102294922 -0.926740527153015137
1.08706188201904297 1.77277684211730957 -1.67777717113494873
-0.264062821865081787 1.52562844753265381 -1.03507089614868164
0.225120872259140015 4.44759464263916016 -0.128220260143280029
-0.944585323333740234 2.29691171646118164 -1.2082904577255249
0.774290084838867188 2.77706599235534668 -0.797417879104614258
1.84395182132720947 2.51268529891967773 -1.69480061531066895
0.615563035011291504 4.28212594985961914 -0.899266242980957031
-0.0514803975820541382 3.69090151786804199 -0.692823529243469238
1.15086019039154053 6.17976808547973633 -0.325375646352767944
0.654843389987945557 2.33215141296386719 -1.69256412982940674
1.10704159736633301 3.0042273998260498 -1.54955339431762695
3.08857083320617676 4.52109909057617188 -1.37029480934143066
1.60809850692749023 5.80906772613525391 0.236332595348358154
2.64598441123962402 5.15010261535644531 -0.422472715377807617
-0.607282519340515137 3.28608179092407227 -0.696284174919128418
-0.533457279205322266 2.81172895431518555 -0.778998970985412598
1.49671173095703125 3.32073593139648438 -1.31704878807067871
0.355693906545639038 2.52381467819213867 -0.797141075134277344
1.92057991027832031 3.33236169815063477 -1.62016582489013672
0.123473599553108215 1.47042810916900635 -1.26945400238037109
0.218654721975326538 1.48875832557678223 -1.66911745071411133
1.90008985996246338 4.36101865768432617 -0.822720468044281006
-0.803627908229827881 1.5203702449798584 -1.30042529106140137
-0.075877852737903595 3.81995463371276855 -1.13230681419372559
0.256468594074249268 4.04546880722045898 -0.534332811832427979
1.92221808433532715 5.8920130729675293 -0.193340450525283813
0.980258405208587646 6.31084394454956055 0.0138596892356872559
1.74884819984436035 5.55168390274047852 -0.702370166778564453
2.27919316291809082 5.3292231559753418 0.228664487600326538
2.63816046714782715 5.0208439826965332 -1.60265934467315674
0.658683598041534424 3.25284314155578613 -0.830892682075500488
3.22310686111450195 5.091583251953125 -0.659479200839996338
-1.15976428985595703 2.53624081611633301 -0.537369489669799805
-0.749972343444824219 2.7711033821105957 -1.10543954372406006
-0.168611392378807068 3.73771953582763672 -0.179674789309501648
0.0483544468879699707 1.85196185111999512 -1.50651466846466064
0.564374148845672607 4.74651813507080078 -0.567439794540405273
1.14349091053009033 4.49800634384155273 -0.963410317897796631
1.49037516117095947 4.56099796295166016 -0.557488441467285156
-1.32577800750732422 2.34866547584533691 -1.59764206409454346
0.620097696781158447 1.51255393028259277 -1.69858717918395996
2.17261791229248047 5.14214134216308594 -1.10243523120880127
1.48018419742584229 4.32556962966918945 -0.918302237987518311
1.25336360931396484 5.99738883972167969 -0.682111620903015137
0.495857208967208862 1.93645024299621582 -1.01964163780212402
3.12228107452392578 5.44806098937988281 -0.273440718650817871
0.767698407173156738 6.40403366088867188 -0.757056236267089844
1.4396291971206665 1.79711151123046875 -1.68425297737121582
-0.61911541223526001 1.45807778835296631 -1.589508056640625
1.33972454071044922 3.10654878616333008 -0.991236388683319092
-1.02225840091705322 1.81614518165588379 -1.10830497741699219
-0.0138302892446517944 1.92823255062103271 -0.79290461540222168
1.04082536697387695 2.67746257781982422 -1.69669818878173828
-0.420012712478637695 1.22889840602874756 -0.854504942893981934
0.340358555316925049 4.28837251663208008 -1.09652018547058105
2.18592572212219238 5.17740774154663086 -0.636704802513122559
3.24181818962097168 5.33745956420898438 -0.925046801567077637
-1.46546494960784912 2.17648029327392578 -0.871804237365722656
1.4232860803604126 2.61440849304199219 -1.67505395412445068
1.59514188766479492 2.16890406608581543 -1.69264614582061768
1.53502976894378662 5.81708955764770508 -0.100979790091514587
2.58587408065795898 4.96227312088012695 -1.22504031658172607
1.34092259407043457 3.41364550590515137 -1.61316764354705811
1.80031871795654297 4.88965129852294922 -0.8724936842918396
-0.34119105339050293 1.84215259552001953 -1.04297566413879395
2.21690654754638672 3.18363142013549805 -1.65123772621154785
-0.793189764022827148 1.42893421649932861 -0.575704753398895264
-0.85483396053314209 2.78923583030700684 -0.546782851219177246
2.13844132423400879 5.54357528686523438 -0.578818261623382568
2.50629806518554688 5.9089508056640625 -0.452473968267440796
1.48342418670654297 4.77151012420654297 -0.794271290302276611
1.03008139133453369 2.87917518615722656 -0.995423555374145508
-0.842832565307617188 2.28862452507019043 -1.50749564170837402
-1.41750609874725342 2.0181734561920166 -1.65110146999359131
1.89909899234771729 3.02913904190063477 -1.69312465190887451
-0.0627663582563400269 3.88951587677001953 -0.423568636178970337
-1.2929387092590332 2.51110076904296875 -1.34469413757324219
-0.241098076105117798 3.42192339897155762 -0.782575011253356934
0.772710263729095459 1.19010245800018311 -1.66140639781951904
-0.199073314666748047 1.42413115501403809 -1.3036344051361084
-1.02898621559143066 2.68711948394775391 -1.14010834693908691
-1.10788631439208984 2.3480231761932373 -0.817691922187805176
1.05425333976745605 6.34944009780883789 -1.20534801483154297
-0.596262633800506592 3.30057024955749512 -0.331444293260574341
2.20754003524780273 5.49575948715209961 -0.0618013143539428711
0.593058884143829346 4.59840536117553711 -0.808019518852233887
-0.817842006683349609 2.22234964370727539 -0.966461777687072754
1.88929617404937744 5.62335014343261719 -0.472799301147460938
-0.513501167297363281 2.53809237480163574 -0.819278478622436523
-1.16938614845275879 1.77659261226654053 -1.64939761161804199
0.843840122222900391 1.90350830554962158 -1.68928265571594238
-0.889841377735137939 2.87244915962219238 -0.890433251857757568
-0.120939597487449646 3.98308229446411133 -0.914586305618286133
-0.758022427558898926 2.46745657920837402 -1.09911322593688965
-0.232945710420608521 3.37395143508911133 -1.05333566665649414
0.636424720287322998 2.54412603378295898 -0.750515937805175781
0.0853829756379127502 2.66925883293151855 -0.661902964115142822
2.18684887886047363 5.90675735473632812 -0.136411949992179871
0.156164869666099548 4.15684223175048828 -0.30932164192199707
-0.35473296046257019 1.1737593412399292 -1.61638224124908447
1.77715611457824707 1.73905110359191895 -1.62414515018463135
0.214606121182441711 2.06137537956237793 -1.50352108478546143
2.4650719165802002 5.22556304931640625 -0.157698482275009155
-0.682020187377929688 1.37207555770874023 -1.03635287284851074
-0.167185857892036438 1.91645634174346924 -1.36396360397338867
1.25530910491943359 5.99447488784790039 -0.151426225900650024
1.32920122146606445 1.55567717552185059 -1.67317295074462891
1.27050697803497314 1.99997842311859131 -1.69630002975463867
0.565756678581237793 2.22236490249633789 -0.787480592727661133
0.412282079458236694 2.26394987106323242 -1.62015831470489502
-0.248489201068878174 1.41741609573364258 -1.57902348041534424
0.599712491035461426 2.98799753189086914 -0.812865316867828369
1.9182659387588501 3.59289860725402832 -1.59546542167663574
-0.106613919138908386 2.20802736282348633 -0.751259505748748779
-0.107481598854064941 1.68511545658111572 -0.90047919750213623
1.25092148780822754 6.21423864364624023 -1.10023510456085205
-0.302275210618972778 3.73206925392150879 -0.74205470085144043
-0.398701906204223633 3.20491504669189453 -0.826650738716125488
1.42473125457763672 3.1808171272277832 -1.68714797496795654
1.05364537239074707 6.21282577514648438 -0.675381779670715332
0.783077120780944824 6.47172737121582031 -0.0140155032277107239
-0.795628666877746582 1.13941991329193115 -1.64851212501525879
0.244738519191741943 1.74112427234649658 -1.69455313682556152
2.07075810432434082 2.39679074287414551 -1.70541155338287354
0.515855669975280762 2.77009224891662598 -0.710756301879882812
0.141636103391647339 1.40539932250976562 -1.01197123527526855
0.142529755830764771 2.35270953178405762 -0.795317888259887695
0.394674241542816162 4.51871967315673828 -0.295890629291534424
1.68659436702728271 2.76073956489562988 -1.71042931079864502
-1.21010291576385498 2.28343915939331055 -1.1329110860824585
0.812698662281036377 2.56846857070922852 -0.95205998420715332
3.18665504455566406 5.29247045516967773 -1.45561683177947998
2.08136510848999023 5.52096080780029297 -0.339346110820770264
-0.121164709329605103 1.75734210014343262 -1.13493084907531738
-0.343541592359542847 2.71848559379577637 -0.900651693344116211
1.49159801006317139 5.79163312911987305 -0.64107215404510498
0.181576400995254517 4.25779342651367188 -0.735895872116088867
-0.478455066680908203 1.94935762882232666 -0.874301493167877197
0.248645007610321045 1.24325132369995117 -1.62913739681243896
-0.553757071495056152 1.57457423210144043 -1.05899989604949951
1.77798044681549072 3.78814840316772461 -1.60523045063018799
-0.681873917579650879 1.27744662761688232 -0.725394845008850098
0.481483161449432373 4.27929544448852539 -0.701527655124664307
2.7059016227722168 5.07093286514282227 -0.205512046813964844
-0.694636285305023193 2.97105717658996582 -0.982121109962463379
0.857367575168609619 6.37180471420288086 -1.07258689403533936
0.858467280864715576 3.00032281875610352 -0.799217343330383301
-0.942040979862213135 1.65358507633209229 -1.5790867805480957
1.70111000537872314 5.72972297668457031 -0.240624815225601196
0.783126115798950195 2.51706218719482422 -1.61940622329711914
0.943159103393554688 1.5944216251373291 -1.69899189472198486
0.491632282733917236 4.52928018569946289 -0.590644598007202148
-1.37425374984741211 2.28373908996582031 -0.690517961978912354
0.486241340637207031 1.70936441421508789 -1.69407904148101807
1.70744085311889648 5.75504875183105469 0.0365594327449798584
-0.383144140243530273 1.32084345817565918 -1.20052802562713623
0.0422022342681884766 3.82286214828491211 -0.93671262264251709
1.23313987255096436 2.89530491828918457 -1.70517086982727051
-1.11015093326568604 2.3863673210144043 -1.39336800575256348
-0.229262650012969971 1.83721339702606201 -0.786128580570220947
0.913598775863647461 6.29452753067016602 -0.294148087501525879
0.839068949222564697 2.126953125 -1.70392751693725586
1.38358604907989502 5.87384891510009766 -0.430939257144927979
2.4483942985534668 5.15703248977661133 -0.527401924133300781
0.196384906768798828 1.8632199764251709 -0.830180108547210693
0.341126203536987305 4.10467529296875 -0.756263256072998047
-0.058638840913772583 1.54438877105712891 -1.13426828384399414
0.92935025691986084 2.87620067596435547 -1.58234143257141113
0.579348862171173096 2.1648707389831543 -1.00217306613922119
-0.46794813871383667 1.16250896453857422 -1.36756837368011475
-0.608756184577941895 1.77560806274414062 -0.909855842590332031
0.912087619304656982 6.36497306823730469 -0.596267342567443848
0.339467167854309082 3.72403597831726074 -0.901160955429077148
1.97200870513916016 2.20460724830627441 -1.66804993152618408
0.399866074323654175 4.52245330810546875 -0.877750396728515625
1.24475741386413574 6.07670497894287109 -0.931122064590454102
1.70739877223968506 3.33090972900390625 -1.66560006141662598
1.31680524349212646 4.57290029525756836 -0.854719400405883789
-0.957137048244476318 2.15868926048278809 -1.37726342678070068
-0.34254610538482666 2.18650436401367188 -0.789872050285339355
2.30385255813598633 5.14670610427856445 -0.814627408981323242
-0.545393764972686768 3.06765270233154297 -0.748647570610046387
-1.04179859161376953 2.41119074821472168 -1.01195001602172852
1.92024779319763184 5.67895746231079102 -0.172663092613220215
0.58630526065826416 4.80411577224731445 -1.0038604736328125
-0.0668225288391113281 1.31062984466552734 -1.57571315765380859
-0.333924412727355957 3.41548538208007812 -0.593545079231262207
-0.234461590647697449 3.77903175354003906 -0.93562781810760498
-0.764590144157409668 2.23679494857788086 -1.31960952281951904
