ply
format ascii 1.0
element vertex 256
comment vertices
property float x
property float y
property float z
end_header
1.13021492958068848 1.92001843452453613 -1.86974167823791504
4.06597232818603516 6.37987422943115234 -0.781449317932128906
1.08328044414520264 4.86294269561767578 -0.473151087760925293
-0.891156494617462158 2.50823497772216797 -0.732526302337646484
2.67292261123657227 3.85154986381530762 -1.89684772491455078
1.45897293090820312 6.70399379730224609 -1.4951472282409668
2.38484477996826172 5.94498491287231445 -0.239680230617523193
0.344889998435974121 3.54096603393554688 -1.29681801795959473
3.83628702163696289 4.72262001037597656 -1.21214103698730469
0.0726765990257263184 1.18757772445678711 -0.970344305038452148
1.77618789672851562 2.94277739524841309 -1.08426737785339355
2.49536371231079102 2.15196037292480469 -1.88401389122009277
-0.595370173454284668 1.86706554889678955 -1.89697599411010742
2.33778715133666992 4.85866165161132812 -1.11641693115234375
0.195540726184844971 2.31396174430847168 -1.15454936027526855
3.29723215103149414 5.21373128890991211 -0.387892693281173706
1.51674985885620117 6.65695953369140625 -0.425406992435455322
0.931058824062347412 4.37475442886352539 -1.34471726417541504
2.9485626220703125 5.96576690673828125 -1.03991222381591797
0.493408322334289551 1.11200249195098877 -1.83630156517028809
0.446399658918380737 4.14705848693847656 -0.455943286418914795
1.85413134098052979 1.34228062629699707 -1.89156639575958252
2.25118565559387207 3.02909612655639648 -1.91635560989379883
-0.222229361534118652 3.11690354347229004 -0.635111391544342041
3.1562950611114502 5.23314809799194336 -1.51662731170654297
2.00043725967407227 6.14141750335693359 -1.06089544296264648
-0.721249938011169434 2.7179255485534668 -1.57462751865386963
4.35850954055786133 6.04585170745849609 -1.51064896583557129
3.84205436706542969 5.59385395050048828 -0.873102664947509766
1.50351667404174805 2.60993599891662598 -1.90901148319244385
0.4709758460521698 2.28358793258666992 -1.89472818374633789
1.49114584922790527 3.63616847991943359 -1.14783525466918945
0.657123684883117676 2.88357400894165039 -1.14739871025085449
1.61455154418945312 4.74436092376708984 -1.1061636209487915
-0.253537178039550781 1.22405481338500977 -1.84665870666503906
0.444161504507064819 1.67997062206268311 -1.40047824382781982
-0.40460890531539917 1.95621979236602783 -1.0871967077255249
-0.223107635974884033 3.17401623725891113 -1.40211617946624756
1.48725199699401855 2.2491912841796875 -1.35319924354553223
1.13920783996582031 1.25855052471160889 -1.83929896354675293
3.7803490161895752 5.42957210540771484 -1.53506159782409668
2.89536428451538086 2.98199796676635742 -1.90187966823577881
2.82079410552978516 5.59953069686889648 -0.551201105117797852
3.43221163749694824 4.35916423797607422 -1.49526119232177734
1.83766055107116699 1.94878971576690674 -1.84398412704467773
0.137470781803131104 3.58152174949645996 -0.507677078247070312
0.539371371269226074 4.06806755065917969 -1.02304458618164062
-0.263537108898162842 2.24844741821289062 -1.61512112617492676
2.05312609672546387 4.36734628677368164 -1.22263884544372559
3.37089133262634277 5.13272190093994141 -0.955001711845397949
1.23447871208190918 3.07202243804931641 -1.04342305660247803
1.93699145317077637 6.29875993728637695 -0.346462607383728027
0.137356221675872803 1.60864686965942383 -1.88750171661376953
0.994280338287353516 1.71305429935455322 -1.37877178192138672
3.56760287284851074 4.98726797103881836 -1.77428507804870605
2.43660306930541992 5.85547113418579102 -0.920128583908081055
-0.498764336109161377 2.59481406211853027 -1.08676981925964355
0.816243886947631836 4.4799342155456543 -0.721171736717224121
3.12969660758972168 6.05178356170654297 -0.55312502384185791
2.1192164421081543 2.52585744857788086 -1.86544680595397949
1.48394620418548584 6.59781885147094727 -0.941619157791137695
1.11050891876220703 4.85338354110717773 -1.05584228038787842
2.27383923530578613 1.68032896518707275 -1.86915230751037598
1.87615203857421875 6.412506103515625 -1.50040543079376221
2.1978609561920166 3.10084867477416992 -1.3176567554473877
0.156216084957122803 2.91220760345458984 -1.20057201385498047
0.660513341426849365 1.58484148979187012 -1.86334037780761719
2.91303348541259766 5.47198915481567383 -1.06132745742797852
-0.851062953472137451 2.29045438766479492 -1.36221909523010254
2.64494061470031738 4.50917911529541016 -1.27651143074035645
-0.115497946739196777 1.46348476409912109 -1.45918190479278564
2.29366588592529297 3.57502937316894531 -1.9141230583190918
2.57430648803710938 2.61561059951782227 -1.85998964309692383
0.0311017632484436035 3.31898236274719238 -1.01971733570098877
0.736079871654510498 1.32740616798400879 -1.41920042037963867
-0.755849957466125488 2.31582212448120117 -1.80434679985046387
3.80167770385742188 4.60672855377197266 -1.78123569488525391
0.928838610649108887 3.95770525932312012 -1.1962127685546875
0.0817205309867858887 1.9259641170501709 -1.37153315544128418
1.81707262992858887 2.97426438331604004 -1.88857853412628174
1.53695368766784668 1.64223504066467285 -1.8927452564239502
2.1990668773651123 6.04229545593261719 -0.612933576107025146
0.130897343158721924 1.133056640625 -1.61709415912628174
1.49113047122955322 2.17827939987182617 -1.864593505859375
-0.554736316204071045 2.731048583984375 -0.654371798038482666
-0.224873006343841553 2.9038243293762207 -0.98543846607208252
0.305565208196640015 3.78475117683410645 -0.851189911365509033
2.59398961067199707 3.25078701972961426 -1.87081778049468994
1.75824820995330811 6.40786361694335938 -0.690709471702575684
1.88235902786254883 3.32072734832763672 -0.993853271007537842
1.75556015968322754 2.54362916946411133 -1.3568108081817627
-0.157627403736114502 1.50439929962158203 -0.973715662956237793
2.00988340377807617 4.80396747589111328 -0.910337090492248535
0.469713747501373291 1.93517923355102539 -1.68987226486206055
2.68442845344543457 5.96936655044555664 -0.656405329704284668
0.559475958347320557 3.84489727020263672 -1.33980894088745117
3.04979300498962402 5.47755575180053711 -0.283542871475219727
3.14102578163146973 5.34679603576660156 -0.758326053619384766
-0.243330240249633789 1.59172987937927246 -1.82766401767730713
0.461949408054351807 2.54913544654846191 -1.18819868564605713
1.1901392936706543 2.35918045043945312 -1.86500024795532227
-0.383689463138580322 2.50592803955078125 -1.40564823150634766
1.14600563049316406 4.84221935272216797 -1.40369641780853271
2.14898204803466797 2.14842867851257324 -1.85551011562347412
3.4391937255859375 5.07920646667480469 -1.38701748847961426
0.478340029716491699 2.12362813949584961 -1.0964125394821167
1.7850799560546875 2.41683554649353027 -1.87417125701904297
3.83507394790649414 5.60238933563232422 -0.530660808086395264
2.04151058197021484 4.70402669906616211 -1.23543202877044678
1.69992399215698242 6.427886962890625 -1.2135089635848999
3.71681928634643555 5.28246545791625977 -0.881422162055969238
3.70295619964599609 5.49140024185180664 -1.15726745128631592
0.539164423942565918 3.28828954696655273 -1.20356094837188721
-0.248447835445404053 2.82178306579589844 -1.29820442199707031
0.69879615306854248 4.33472347259521484 -1.12540090084075928
0.429996579885482788 1.44423484802246094 -1.69018471240997314
-0.819504380226135254 2.41436147689819336 -1.03057897090911865
2.35264968872070312 3.19131326675415039 -1.58316850662231445
0.75751650333404541 2.62868976593017578 -0.982561171054840088
3.14750766754150391 5.30132770538330078 -1.20766854286193848
2.90581488609313965 5.46858739852905273 -1.37732124328613281
2.03965616226196289 3.26174783706665039 -1.91099035739898682
1.01072657108306885 4.71672630310058594 -0.787344217300415039
2.34582376480102539 4.64369964599609375 -1.33761358261108398
-0.0320419073104858398 3.35887289047241211 -0.651745796203613281
1.15833103656768799 1.56399083137512207 -1.86805987358093262
2.15343165397644043 1.39484179019927979 -1.84681880474090576
0.182896643877029419 2.09746646881103516 -0.93893200159072876
0.712847232818603516 1.98369181156158447 -1.86864078044891357
1.55059587955474854 1.33554673194885254 -1.87808263301849365
1.0009920597076416 4.48658514022827148 -1.07111680507659912
1.25898408889770508 2.0520319938659668 -1.38574600219726562
0.597989141941070557 4.19240474700927734 -0.755411207675933838
0.762017428874969482 1.24498951435089111 -1.85297477245330811
3.43206977844238281 5.13854789733886719 -0.662668526172637939
0.379593729972839355 3.85772395133972168 -0.461032569408416748
0.625406384468078613 1.50996923446655273 -1.21711301803588867
2.4433753490447998 5.85348987579345703 -0.541295111179351807
-0.06906890869140625 1.000388503074646 -1.82674336433410645
0.0781057476997375488 1.31627285480499268 -1.83436989784240723
0.244721293449401855 3.26592683792114258 -1.20563006401062012
2.57025384902954102 4.92900657653808594 -0.966320276260375977
1.99787640571594238 6.19266891479492188 -0.742386102676391602
1.91940212249755859 2.77129435539245605 -1.37922680377960205
0.797572314739227295 4.5766606330871582 -0.457760542631149292
3.10741996765136719 5.9293818473815918 -0.803340733051300049
1.89659678936004639 1.67695891857147217 -1.86429715156555176
0.127899885177612305 3.52813243865966797 -0.864055395126342773
2.86585450172424316 3.30231714248657227 -1.87811291217803955
-0.500708103179931641 2.12221360206604004 -1.87505865097045898
1.71336507797241211 6.45008611679077148 -0.375843673944473267
1.55260396003723145 1.91408121585845947 -1.85716569423675537
1.89471554756164551 2.71521186828613281 -1.89481687545776367
-0.294027090072631836 2.26530218124389648 -1.32205069065093994
4.11346530914306641 6.35332965850830078 -1.044700026512146
-0.691626131534576416 2.50345802307128906 -1.32667160034179688
-0.0268311500549316406 3.10711956024169922 -1.18413400650024414
0.606147885322570801 4.10660982131958008 -1.37062263488769531
2.63120388984680176 2.97590088844299316 -1.88004982471466064
0.420540571212768555 3.84173417091369629 -1.09177768230438232
2.73880696296691895 3.59587669372558594 -1.9066624641418457
2.35892176628112793 2.79000592231750488 -1.90085363388061523
0.070902705192565918 2.67720437049865723 -1.12065494060516357
2.11788654327392578 6.10455513000488281 -0.371560931205749512
0.705754876136779785 4.3231658935546875 -0.544209182262420654
2.60906696319580078 5.64596652984619141 -0.40624845027923584
2.64463424682617188 5.71980810165405273 -0.841232776641845703
0.9470253586769104 1.71263790130615234 -1.89436149597167969
1.77571272850036621 6.39542865753173828 -0.969694435596466064
2.03975820541381836 3.1299746036529541 -1.12016129493713379
3.14970684051513672 5.43356609344482422 -0.520132064819335938
2.52615642547607422 4.86078357696533203 -1.28553366661071777
0.479499876499176025 1.76292741298675537 -1.87483072280883789
-0.362519919872283936 2.94247698783874512 -0.779316186904907227
1.69898462295532227 3.18333125114440918 -1.09438753128051758
1.42100358009338379 6.62296772003173828 -1.18243014812469482
2.33069896697998047 1.96607422828674316 -1.88581883907318115
1.66753268241882324 6.57982444763183594 -1.54215562343597412
1.12535405158996582 4.3046875 -1.18001461029052734
2.80594992637634277 2.69729208946228027 -1.85341441631317139
0.452254772186279297 3.99753880500793457 -0.723500549793243408
1.76645433902740479 4.8309016227722168 -0.923319816589355469
0.276947289705276489 3.58900737762451172 -1.06680727005004883
2.33556246757507324 2.33703279495239258 -1.88105940818786621
1.93308615684509277 6.24514389038085938 -1.33147132396697998
2.07522225379943848 1.89640605449676514 -1.85691118240356445
0.839357852935791016 4.34362554550170898 -0.930809974670410156
1.89615225791931152 2.18162775039672852 -1.84940898418426514
0.25736159086227417 1.07050955295562744 -1.82623255252838135
2.43317508697509766 3.77000784873962402 -1.92086207866668701
0.143141329288482666 3.0945746898651123 -1.35504233837127686
-0.201952815055847168 3.13989019393920898 -0.97651219367980957
-0.538171112537384033 2.69644498825073242 -1.29711067676544189
2.93874549865722656 5.93946456909179688 -0.637809574604034424
2.25759363174438477 5.96613454818725586 -1.02560186386108398
-0.510683417320251465 2.7381281852722168 -0.903291821479797363
1.59496819972991943 6.57097816467285156 -0.679019391536712646
-0.740047633647918701 2.35392165184020996 -1.57788622379302979
0.602337896823883057 1.50542747974395752 -1.47592794895172119
1.67092311382293701 2.79828858375549316 -1.89469623565673828
0.325647681951522827 1.69720292091369629 -1.20555639266967773
2.04559230804443359 2.88632583618164062 -1.90988707542419434
1.28108787536621094 2.09536314010620117 -1.86454093456268311
-0.240960776805877686 3.03776264190673828 -1.18603110313415527
2.22227001190185547 4.91586112976074219 -0.934166133403778076
1.56255722045898438 6.56984996795654297 -1.34597241878509521
-0.656880617141723633 2.55544662475585938 -0.937057971954345703
2.10991430282592773 6.05721855163574219 -1.23325216770172119
-0.462438523769378662 1.59785974025726318 -1.8439021110534668
-0.718764007091522217 2.11294937133789062 -1.88634657859802246
3.39423656463623047 5.10149669647216797 -1.16941380500793457
-0.112116038799285889 1.41944253444671631 -1.85657477378845215
0.587407112121582031 1.38034772872924805 -1.86515450477600098
0.96566474437713623 1.38373327255249023 -1.86283230781555176
0.399633288383483887 1.55532598495483398 -1.8718409538269043
2.30626177787780762 3.23667025566101074 -1.91799569129943848
0.270448774099349976 3.76499652862548828 -0.641270995140075684
1.37844443321228027 1.50293993949890137 -1.86796832084655762
-0.665883243083953857 2.5519251823425293 -0.680161178112030029
1.89940810203552246 4.7023320198059082 -1.06042337417602539
-0.0454822778701782227 2.80840802192687988 -1.24772262573242188
0.958078622817993164 4.67163181304931641 -0.551032185554504395
0.474456250667572021 1.98105859756469727 -1.89310336112976074
0.709100246429443359 4.17790985107421875 -0.973919689655303955
1.84673976898193359 4.62881851196289062 -1.24686074256896973
2.87436079978942871 5.80966520309448242 -0.926070928573608398
3.43389749526977539 5.06413078308105469 -1.6371077299118042
1.30721354484558105 1.81526756286621094 -1.85999107360839844
0.760548710823059082 1.40399980545043945 -1.60757160186767578
-0.401410043239593506 1.92027568817138672 -1.86317884922027588
2.8038938045501709 5.76618766784667969 -0.723209142684936523
1.45726215839385986 2.41627883911132812 -1.86766433715820312
-0.0826586484909057617 3.23929929733276367 -0.845641374588012695
3.26311755180358887 5.19405937194824219 -1.33544635772705078
0.955867886543273926 1.1766660213470459 -1.8595045804977417
1.67650747299194336 1.49274194240570068 -1.86814534664154053
0.248243421316146851 1.81549859046936035 -1.35077273845672607
2.11816644668579102 6.0437164306640625 -0.800941109657287598
1.36606788635253906 1.26148426532745361 -1.86730825901031494
3.0072474479675293 5.47335386276245117 -0.832115650177001953
3.80848145484924316 5.54903221130371094 -1.37940609455108643
2.2167963981628418 4.84868049621582031 -1.2722628116607666
1.72699975967407227 1.77641725540161133 -1.85359978675842285
3.16892409324645996 5.31839370727539062 -0.949424982070922852
1.058990478515625 2.21636366844177246 -1.84323751926422119
0.900315999984741211 4.59529590606689453 -0.892580032348632812
-0.917079269886016846 2.34217429161071777 -1.18311512470245361
0.838495373725891113 1.47253298759460449 -1.33925902843475342
2.71793627738952637 5.97583246231079102 -0.846934199333190918
2.37978792190551758 5.91002750396728516 -0.714982509613037109
2.54633212089538574 5.74884605407714844 -1.03825640678405762
0.975695252418518066 2.0332183837890625 -1.84518074989318848
1.13060545921325684 4.8623957633972168 -0.826723098754882812
2.5731964111328125 3.49936580657958984 -1.89017438888549805
0.791193306446075439 4.17836523056030273 -1.18764936923980713
0.400168061256408691 1.34258460998535156 -1.85896706581115723
