ply
format ascii 1.0
element vertex 99
comment vertices
property float x
property float y
property float z
end_header
0.359188169240951538 2.58431744575500488 -1.0567549467086792
-0.689379274845123291 2.85672211647033691 -1.00592219829559326
0.0444908291101455688 3.60450053215026855 -1.06330525875091553
-0.551008343696594238 1.29267311096191406 -1.00415527820587158
0.644093871116638184 3.94501566886901855 -0.900877475738525391
-0.0602500811219215393 2.99236583709716797 -0.856250882148742676
1.23036098480224609 4.43211555480957031 -1.00144720077514648
-0.858282566070556641 2.3186337947845459 -0.972900390625
1.68187546730041504 4.35188531875610352 -0.8618202805519104
0.229718923568725586 2.97172951698303223 -1.17311549186706543
0.726845622062683105 2.89234399795532227 -1.04638445377349854
-0.198005110025405884 3.3182220458984375 -0.970657885074615479
-0.200312629342079163 2.7948911190032959 -1.11858797073364258
0.254341274499893188 3.87129330635070801 -0.981327652931213379
0.706478238105773926 2.54313087463378906 -1.05325436592102051
-0.398136556148529053 3.01754331588745117 -0.957181870937347412
1.0424504280090332 3.05760812759399414 -1.03267550468444824
-0.371646225452423096 1.61460363864898682 -1.03610098361968994
-0.612683534622192383 2.49388360977172852 -1.07461357116699219
0.444278180599212646 4.15473365783691406 -1.031899094581604
-0.889537155628204346 2.61310410499572754 -0.996357977390289307
0.03598785400390625 2.67385101318359375 -1.04493200778961182
0.455019474029541016 2.88030552864074707 -1.05812382698059082
1.64156055450439453 4.55425786972045898 -1.02301025390625
0.573466658592224121 2.32760000228881836 -1.04736852645874023
-0.141717612743377686 3.04664063453674316 -1.08471310138702393
0.68657606840133667 4.17887401580810547 -0.954173922538757324
0.103776030242443085 3.27173781394958496 -0.935089051723480225
-0.414208143949508667 2.79175519943237305 -0.880555510520935059
-0.598320066928863525 1.56330430507659912 -0.982696294784545898
1.48066914081573486 4.46747970581054688 -0.877339482307434082
1.82925498485565186 4.60506916046142578 -0.804091274738311768
0.427434980869293213 3.97876834869384766 -0.893474340438842773
-0.483226507902145386 2.51509785652160645 -0.891646206378936768
0.182414427399635315 2.8133702278137207 -0.968736767768859863
0.330431580543518066 3.26558542251586914 -1.10044300556182861
0.177866578102111816 2.473907470703125 -1.05268144607543945
-0.122430168092250824 3.48079681396484375 -1.0893784761428833
-0.511670351028442383 1.45131599903106689 -1.13195121288299561
-0.49905771017074585 2.66310906410217285 -1.03022301197052002
-0.885303914546966553 2.11683845520019531 -1.00770807266235352
0.747778534889221191 3.08387899398803711 -1.01025688648223877
0.521387159824371338 2.69282412528991699 -1.07035517692565918
0.245109915733337402 2.73141145706176758 -1.12652409076690674
-0.720421791076660156 2.46727991104125977 -0.923324465751647949
-0.717538177967071533 2.66310906410217285 -1.03022301197052002
-0.0568297132849693298 3.21446657180786133 -1.01893818378448486
0.446675539016723633 3.05636096000671387 -1.05991089344024658
-0.881825804710388184 2.45357108116149902 -1.08136641979217529
0.260119855403900146 2.67517971992492676 -0.903157711029052734
0.870474696159362793 2.98984241485595703 -1.07940769195556641
-0.560370504856109619 3.05965352058410645 -0.949808716773986816
-0.510892271995544434 2.92049288749694824 -1.03113913536071777
0.460259377956390381 2.77095699310302734 -0.934671282768249512
0.427979528903961182 3.82013869285583496 -0.925594329833984375
0.854879021644592285 3.29065299034118652 -1.05331158638000488
1.41717433929443359 4.3710026741027832 -0.984598875045776367
-0.67202991247177124 1.35577797889709473 -0.92981410026550293
0.277927935123443604 2.52538061141967773 -1.17121851444244385
-0.725718379020690918 2.29797530174255371 -1.04472959041595459
0.375863313674926758 2.7997748851776123 -1.15802335739135742
0.188456714153289795 2.63012337684631348 -1.02535629272460938
0.619910120964050293 2.99024462699890137 -1.06678593158721924
-0.0669271349906921387 3.34652423858642578 -1.08500933647155762
0.49905771017074585 2.54931974411010742 -1.04940164089202881
-0.466139853000640869 1.39347302913665771 -0.945715665817260742
-0.897432863712310791 2.47560811042785645 -0.942348182201385498
1.76932621002197266 4.51945400238037109 -0.975530624389648438
-0.903363883495330811 2.21796536445617676 -1.10155832767486572
0.403422534465789795 4.01371002197265625 -1.02535295486450195
0.326946854591369629 3.14491629600524902 -1.16814124584197998
0.277614712715148926 2.8746955394744873 -1.04706490039825439
1.61819672584533691 4.43537664413452148 -0.962813138961791992
0.576168537139892578 2.8288571834564209 -1.03836619853973389
0.303573548793792725 2.43119192123413086 -1.04916024208068848
0.367957234382629395 2.72150611877441406 -1.05160665512084961
-0.626598715782165527 2.39751243591308594 -0.985959351062774658
0.648406863212585449 4.05120658874511719 -0.977539718151092529
0.184018760919570923 3.36978483200073242 -0.961570024490356445
-0.00841820985078811646 2.91586041450500488 -0.955593526363372803
0.634353876113891602 4.17609834671020508 -1.07134997844696045
-1.02953517436981201 2.21619796752929688 -1.00136935710906982
-0.642624557018280029 1.3808596134185791 -1.05068397521972656
-0.412097394466400146 1.42617392539978027 -1.05771028995513916
1.30741357803344727 4.17799234390258789 -1.06070971488952637
-0.520915985107421875 2.7819063663482666 -1.0428776741027832
0.341216504573822021 2.62799811363220215 -1.16817235946655273
0.507113039493560791 4.06822490692138672 -0.903766393661499023
-0.732332706451416016 2.54450607299804688 -1.04124069213867188
-0.174970239400863647 3.2187201976776123 -1.03860151767730713
0.476997971534729004 4.2019352912902832 -0.928697705268859863
-0.377941340208053589 2.90129470825195312 -0.952719926834106445
1.27944445610046387 4.38926553726196289 -0.903444886207580566
0.605732738971710205 2.60166335105895996 -1.04439330101013184
-0.104571178555488586 3.38779377937316895 -0.972873330116271973
-0.0625131130218505859 2.73265695571899414 -1.05408072471618652
-0.57771766185760498 1.415824294090271 -0.96241307258605957
-0.729908466339111328 2.33485198020935059 -0.936895191669464111
-0.78027498722076416 2.43927621841430664 -1.01540064811706543
