ply
format ascii 1.0
element vertex 256
comment vertices
property float x
property float y
property float z
end_header
-1.19315719604492188 2.86520528793334961 -1.00950336456298828
3.58310413360595703 6.38285303115844727 -0.969204962253570557
-0.475705504417419434 5.51655721664428711 -1.08882546424865723
0.356909602880477905 3.19002270698547363 -0.850762605667114258
2.84211111068725586 4.30497646331787109 -1.1244889497756958
-1.95987856388092041 -0.788665771484375 -1.32901275157928467
1.12493348121643066 1.24340248107910156 -1.28170371055603027
3.24343585968017578 2.68922114372253418 -1.05070328712463379
-1.32056736946105957 0.977933824062347412 -1.02217543125152588
1.32904720306396484 4.45836687088012695 -1.01577198505401611
-0.376634091138839722 2.98941898345947266 -1.02853333950042725
3.02674412727355957 3.22234344482421875 -0.963471770286560059
0.974753916263580322 3.10196065902709961 -1.07339239120483398
1.16638851165771484 4.61827850341796875 -1.2910836935043335
-3.59934186935424805 2.94312930107116699 -1.03599047660827637
0.56334608793258667 3.12410807609558105 -1.35955905914306641
2.37746977806091309 1.16955113410949707 -0.973970353603363037
3.11948442459106445 4.62312984466552734 -1.05331969261169434
1.59055280685424805 5.39091157913208008 -0.922493577003479004
-0.244329869747161865 1.91474616527557373 -1.026397705078125
0.308651655912399292 3.66229534149169922 -1.14182519912719727
0.797174811363220215 1.41428852081298828 -1.03178262710571289
0.623798370361328125 5.2327880859375 -1.03303945064544678
0.0853295326232910156 0.821676731109619141 -0.935358583927154541
1.00150132179260254 3.6670231819152832 -1.1511695384979248
1.30221974849700928 3.18209695816040039 -0.965027987957000732
2.81163597106933594 4.46218967437744141 -0.739928364753723145
0.0982978343963623047 3.57853221893310547 -1.01764655113220215
0.438011467456817627 2.5695347785949707 -1.06810629367828369
-0.869031667709350586 2.42749929428100586 -1.02951264381408691
3.12312221527099609 1.96292972564697266 -1.41573989391326904
3.5968937873840332 6.19934654235839844 -1.06787681579589844
0.727418184280395508 3.18773651123046875 -1.05486559867858887
-1.03567743301391602 1.78527283668518066 -1.06613540649414062
2.43327951431274414 2.90105652809143066 -0.691399574279785156
-0.550442934036254883 1.36552441120147705 -0.95510256290435791
-0.252286732196807861 3.74480414390563965 -0.983654260635375977
0.758386731147766113 1.4022144079208374 -1.02520632743835449
-0.727169394493103027 1.80516290664672852 -0.950838804244995117
1.82296252250671387 4.4710536003112793 -1.12405943870544434
0.280013769865036011 1.90302944183349609 -1.00918149948120117
3.38462567329406738 4.30307817459106445 -0.980728745460510254
1.16811347007751465 3.36493301391601562 -1.08079874515533447
-1.1107412576675415 2.73108386993408203 -0.9705352783203125
1.62611711025238037 3.52190351486206055 -1.04112339019775391
0.409929156303405762 4.05890655517578125 -1.05964207649230957
-0.106056720018386841 3.40696620941162109 -0.955386042594909668
1.03063654899597168 2.25345492362976074 -1.46686816215515137
3.48569774627685547 4.29664707183837891 -1.21607756614685059
0.911322355270385742 2.61183047294616699 -1.04811286926269531
-0.0552135109901428223 5.66724872589111328 -1.08437657356262207
-3.20279216766357422 1.70056211948394775 -0.990900754928588867
1.68994903564453125 3.07885432243347168 -1.13705801963806152
1.49985635280609131 3.14867591857910156 -1.10659217834472656
2.20465898513793945 4.30268478393554688 -1.10690200328826904
-1.58791208267211914 2.14212417602539062 -1.06495606899261475
0.619697213172912598 2.22149467468261719 -0.984633684158325195
3.20794129371643066 4.12823581695556641 -1.17410337924957275
-0.442608892917633057 1.26881051063537598 -1.0812075138092041
-0.523379385471343994 2.76706719398498535 -1.01087594032287598
-0.520462334156036377 2.50211334228515625 -1.06005346775054932
0.271053433418273926 2.39826345443725586 -0.90455096960067749
-1.04652345180511475 2.15474224090576172 -0.999617397785186768
0.350924074649810791 4.10480737686157227 -0.924165248870849609
0.603795766830444336 2.36428022384643555 -1.03940093517303467
2.79915428161621094 1.7512357234954834 -0.985417485237121582
0.171974599361419678 2.26383662223815918 -1.0099261999130249
0.803310692310333252 3.39750099182128906 -1.01727259159088135
1.94002342224121094 5.71144437789916992 -1.09949290752410889
1.60155558586120605 4.45305299758911133 -0.436435818672180176
-0.693213343620300293 2.0758519172668457 -1.00812721252441406
0.643836796283721924 2.92740249633789062 -1.09998857975006104
1.12854433059692383 4.57284402847290039 -1.09936141967773438
2.3466181755065918 2.77207517623901367 -1.04698288440704346
-0.575957179069519043 5.03208017349243164 -1.01218724250793457
-0.162595793604850769 3.29110980033874512 -1.09827721118927002
-0.20010840892791748 3.18867230415344238 -0.930333435535430908
0.321074217557907104 3.81383085250854492 -1.07119762897491455
0.25010266900062561 3.2091059684753418 -1.0330575704574585
2.61666584014892578 3.3529353141784668 -0.829310178756713867
-0.856249332427978516 2.50522422790527344 -0.941402792930603027
-0.740512371063232422 2.67273092269897461 -1.1930164098739624
1.66141808032989502 4.54278850555419922 -0.975033342838287354
-0.873082399368286133 3.36176371574401855 -0.977834403514862061
-0.195312619209289551 2.82404565811157227 -0.986140787601470947
1.31457066535949707 3.4154973030090332 -1.27566885948181152
3.06609821319580078 4.49216175079345703 -1.07764410972595215
-0.014629388228058815 2.48069381713867188 -1.06266140937805176
-0.742152094841003418 1.97083091735839844 -1.06469309329986572
2.63665008544921875 3.51079678535461426 -1.23449361324310303
1.96799588203430176 3.57840108871459961 -1.04093360900878906
5.07436370849609375 3.75465536117553711 -0.997161328792572021
-1.21335387229919434 2.1721041202545166 -1.15631461143493652
0.680389642715454102 5.82044219970703125 -1.04579472541809082
-0.696626782417297363 3.27217602729797363 -0.962220072746276855
-0.0971798151731491089 1.73208439350128174 -1.03029251098632812
-0.875794947147369385 1.93257999420166016 -1.09230434894561768
-0.774352729320526123 3.24110841751098633 -1.00184774398803711
0.302235782146453857 2.2836606502532959 -1.1291123628616333
1.41084003448486328 3.87951850891113281 -0.810291945934295654
-1.066489577293396 1.61771941184997559 -1.02168440818786621
-0.583455920219421387 1.38208472728729248 -1.02122914791107178
-0.241603046655654907 1.46022868156433105 -1.03715503215789795
-1.460532546043396 3.76500654220581055 -1.02791202068328857
0.390886306762695312 1.53744363784790039 -1.45984494686126709
0.279494047164916992 2.52272415161132812 -0.987023115158081055
1.48630130290985107 4.06824207305908203 -0.940675497055053711
-0.121332645416259766 4.18880558013916016 -0.984031856060028076
3.39591145515441895 3.97791194915771484 -1.05032896995544434
2.59058856964111328 3.39659261703491211 -1.41254818439483643
1.30436193943023682 1.30034017562866211 -1.04342007637023926
3.19626641273498535 5.41507291793823242 -1.04271507263183594
-0.262396454811096191 3.04300904273986816 -0.866585612297058105
4.30685186386108398 3.09159684181213379 -1.13921189308166504
0.277587801218032837 2.44565248489379883 -1.03153145313262939
1.00539219379425049 4.35911083221435547 -1.01324498653411865
0.708642542362213135 3.45136070251464844 -1.06147134304046631
2.18145322799682617 5.63372373580932617 -0.186594337224960327
0.904387891292572021 2.88202381134033203 -1.08003652095794678
0.543702244758605957 4.05192422866821289 -0.547674119472503662
-0.86442112922668457 2.48480629920959473 -1.00677895545959473
3.34897184371948242 4.59572267532348633 -0.936420202255249023
0.648351430892944336 2.71698331832885742 -1.08088564872741699
0.587191343307495117 2.3576512336730957 -0.920398950576782227
-1.40307927131652832 0.861891269683837891 -0.998704969882965088
0.368363469839096069 4.04301738739013672 -1.12016630172729492
0.0788266658782958984 3.53679847717285156 -1.06401729583740234
-1.15518379211425781 0.73637700080871582 -1.00980567932128906
2.84096837043762207 4.22034692764282227 -1.10129773616790771
3.4046025276184082 3.15399718284606934 -1.00917017459869385
-0.135763645172119141 0.792340278625488281 -0.988206207752227783
0.451464295387268066 4.16043996810913086 -1.01948380470275879
-0.714770019054412842 3.18789482116699219 -0.857538521289825439
-0.487509429454803467 1.3636246919631958 -0.979353785514831543
-1.02364516258239746 0.337668895721435547 -1.13974535465240479
1.31363964080810547 4.52152299880981445 -1.0977020263671875
2.76083660125732422 3.04348325729370117 -0.483635604381561279
-0.396473020315170288 3.02321195602416992 -0.990534842014312744
0.111078381538391113 2.79951071739196777 -0.994328320026397705
0.378849059343338013 2.38901829719543457 -1.02506506443023682
1.65201437473297119 4.48589468002319336 -1.08364856243133545
-1.35141301155090332 2.1161808967590332 -1.07435929775238037
-0.378365159034729004 2.8073275089263916 -1.04219472408294678
0.314686119556427002 0.890321493148803711 -1.11713719367980957
1.1527332067489624 2.9972081184387207 -1.06034219264984131
0.00137950479984283447 2.24225401878356934 -1.04791569709777832
0.0276858806610107422 6.01320266723632812 -1.08366513252258301
1.56939554214477539 3.3521876335144043 -1.34411978721618652
-0.847154557704925537 2.47950196266174316 -1.04072427749633789
2.03526687622070312 4.49124860763549805 -1.14767229557037354
0.80219423770904541 3.24854874610900879 -1.08561539649963379
4.15094757080078125 6.46667003631591797 -1.18616282939910889
-0.282394766807556152 3.03288578987121582 -1.05836498737335205
1.14148879051208496 5.31300115585327148 -1.06007766723632812
-0.489964812994003296 2.94267868995666504 -1.02108621597290039
-0.573651015758514404 1.34698498249053955 -1.00021743774414062
0.328037679195404053 2.07495021820068359 -0.968270301818847656
0.816243171691894531 1.5420536994934082 -1.32701611518859863
0.46641579270362854 2.80691885948181152 -1.10193252563476562
0.106908202171325684 3.82530021667480469 -0.995316207408905029
2.79989433288574219 4.2024846076965332 -1.2568511962890625
0.0855276137590408325 2.02579116821289062 -1.00866556167602539
0.0114757418632507324 2.81278038024902344 -1.04582571983337402
1.22090470790863037 4.40726184844970703 -0.97152632474899292
0.681018233299255371 2.52608823776245117 -1.04878771305084229
0.300147354602813721 2.21962809562683105 -1.0436406135559082
-0.446927487850189209 1.31644153594970703 -0.993371009826660156
-0.487248897552490234 3.54025053977966309 -1.00871968269348145
-0.95678335428237915 1.52290606498718262 -1.00624477863311768
-1.34911048412322998 2.38403582572937012 -1.0981823205947876
-2.35132980346679688 1.42446386814117432 -1.00960206985473633
-0.568206250667572021 1.34293365478515625 -0.979043245315551758
2.4586484432220459 4.44854736328125 -0.186085760593414307
0.919663786888122559 2.65186357498168945 -1.46833741664886475
1.33515191078186035 5.13029670715332031 -0.928850650787353516
-0.73292994499206543 2.6617734432220459 -1.02785146236419678
0.408958852291107178 3.03782272338867188 -1.01102352142333984
-1.57949507236480713 2.10133147239685059 -1.09313488006591797
0.0961437448859214783 1.66561448574066162 -1.06937313079833984
0.172570839524269104 3.45644998550415039 -1.15115690231323242
2.06794524192810059 2.64501452445983887 -1.15203142166137695
2.40941810607910156 4.16319751739501953 -1.08718037605285645
-1.68050765991210938 2.36010646820068359 -1.01343011856079102
2.87342238426208496 3.78613805770874023 -0.999100208282470703
-2.71027493476867676 1.95633268356323242 -1.05036556720733643
0.307842254638671875 3.98149728775024414 -0.844529032707214355
2.0875241756439209 3.94117259979248047 -0.889047026634216309
1.75660264492034912 2.86147189140319824 -1.0016779899597168
0.310673713684082031 3.35346674919128418 -0.994808435440063477
0.149198591709136963 5.21242094039916992 -1.15828990936279297
1.64289760589599609 1.68167471885681152 -1.00024735927581787
3.61135220527648926 2.48922872543334961 -1.31696677207946777
1.88026857376098633 3.08087277412414551 -0.886518299579620361
-0.843150019645690918 1.77765476703643799 -1.06689071655273438
1.20915758609771729 3.41500616073608398 -1.02771878242492676
3.14505791664123535 2.66161441802978516 -1.02277874946594238
0.4419727623462677 2.3926703929901123 -1.04750871658325195
-0.132425189018249512 3.4367215633392334 -1.13838672637939453
3.35726213455200195 4.60897541046142578 -1.11533546447753906
3.22009372711181641 5.39521217346191406 -0.286090373992919922
-0.817912936210632324 2.47083520889282227 -1.00119388103485107
-1.24179220199584961 3.54890584945678711 -1.05258500576019287
0.213287919759750366 2.39093971252441406 -1.09974753856658936
1.18431401252746582 6.13476800918579102 -1.07789254188537598
-0.48743051290512085 1.63146722316741943 -1.02354907989501953
2.03645634651184082 1.93602621555328369 -1.01083815097808838
-0.457992315292358398 1.92121171951293945 -1.07682764530181885
-0.0715878009796142578 1.59743165969848633 -1.25469744205474854
2.00138449668884277 5.61962509155273438 -0.909882545471191406
0.657137393951416016 4.8250422477722168 -1.23734200000762939
-1.12521791458129883 1.63714885711669922 -1.010009765625
-0.885684430599212646 2.44105911254882812 -1.06397461891174316
2.35786199569702148 3.04371070861816406 -1.02833747863769531
-0.749837279319763184 2.60837721824645996 -1.03743565082550049
2.10075736045837402 4.96875143051147461 -0.408436805009841919
1.43080532550811768 4.44849300384521484 -1.03538322448730469
-0.862699031829833984 2.49383258819580078 -0.85093456506729126
-1.18903970718383789 3.4909825325012207 -0.975426793098449707
2.03998184204101562 3.42703104019165039 -1.1264491081237793
2.45861220359802246 4.00669336318969727 -0.70835798978805542
1.94926023483276367 4.80348539352416992 -1.10484278202056885
3.02147912979125977 4.73904991149902344 -1.05750191211700439
1.34727776050567627 4.97960519790649414 -0.764739036560058594
3.69090366363525391 2.24030756950378418 -1.31066381931304932
0.539482831954956055 4.32362031936645508 -0.9198874831199646
0.390419840812683105 4.05178213119506836 -1.10071420669555664
-0.995832860469818115 1.19855105876922607 -0.998911023139953613
1.43871784210205078 4.15976905822753906 -1.12050604820251465
0.0329685434699058533 2.39982891082763672 -1.09451162815093994
-0.10248740017414093 2.0327601432800293 -1.05784928798675537
1.25528979301452637 3.13998699188232422 -1.09754002094268799
0.399936079978942871 4.09736728668212891 -0.934026062488555908
-0.142617374658584595 3.32516169548034668 -1.03599715232849121
0.848892927169799805 3.00796341896057129 -1.08274972438812256
2.16204214096069336 4.77270889282226562 -0.195672899484634399
-0.0396872758865356445 2.64528894424438477 -1.03221869468688965
-0.577900528907775879 1.37345457077026367 -0.997159242630004883
0.220479071140289307 0.876248359680175781 -1.13800477981567383
-1.00236153602600098 2.39777517318725586 -0.971787154674530029
0.271157205104827881 2.56973671913146973 -1.05876350402832031
0.245362341403961182 2.62843608856201172 -1.00142598152160645
2.25923824310302734 4.85893726348876953 -0.930527985095977783
0.424770087003707886 4.01571464538574219 -0.982205033302307129
0.590047776699066162 1.52243709564208984 -1.41557443141937256
1.58541774749755859 3.2713322639465332 -1.17549371719360352
0.504731237888336182 2.53615880012512207 -1.05985164642333984
1.07195425033569336 3.24703645706176758 -1.36903238296508789
1.29392135143280029 3.85043120384216309 -1.22650051116943359
-0.92705237865447998 1.0892798900604248 -1.00561404228210449
0.0380398035049438477 3.64166641235351562 -0.97869575023651123
-0.939629793167114258 2.44750308990478516 -0.987974345684051514
0.120489299297332764 2.04193830490112305 -1.45755743980407715
1.93527936935424805 5.13549518585205078 -0.455016851425170898
3.11110091209411621 4.2912750244140625 -0.2641792893409729
-0.673174381256103516 3.78871655464172363 -0.999104082584381104
-0.00416517257690429688 4.18561410903930664 -1.01426172256469727
