ply
format ascii 1.0
element vertex 256
comment vertices
property float x
property float y
property float z
end_header
0.395006000995635986 1.91860055923461914 -1.74931228160858154
3.8936305046081543 6.3765254020690918 -0.677153110504150391
0.564294278621673584 4.79650115966796875 -0.0564294233918190002
2.70861244201660156 4.28863668441772461 -1.0721590518951416
-1.46716511249542236 2.37003588676452637 -0.395006000995635986
0.846441388130187988 6.43295478820800781 -1.12858855724334717
2.03145933151245117 2.65218305587768555 -1.69288277626037598
2.20074772834777832 5.92508983612060547 -0.112858846783638
0.112858861684799194 3.44219493865966797 -1.01572966575622559
-1.0721590518951416 1.41073572635650635 -1.69288277626037598
1.07215917110443115 2.59575366973876953 -0.790012001991271973
1.46716511249542236 4.23220682144165039 -0.846441388130187988
3.21647739410400391 5.30436611175537109 -0.507864832878112793
-0.338576555252075195 2.03145933151245117 -0.733582556247711182
1.52359449863433838 1.46716511249542236 -1.63645339012145996
1.07215917110443115 6.32009601593017578 0.0564294308423995972
2.1443183422088623 5.36079549789428711 -1.0721590518951416
-0.677153110504150391 3.16004800796508789 -0.282147139310836792
0.564294278621673584 4.68364238739013672 -1.18501794338226318
2.03145933151245117 3.72434210777282715 -1.63645339012145996
-0.112858846783638 4.00648927688598633 -0.169288277626037598
1.12858855724334717 3.16004800796508789 -1.63645339012145996
-1.24144744873046875 2.53932428359985352 -1.35430622100830078
3.16004800796508789 5.30436611175537109 -1.46716511249542236
2.53932428359985352 5.07864856719970703 0.112858861684799194
-0.169288277626037598 1.18501794338226318 -1.63645339012145996
1.41073572635650635 5.86866044998168945 -0.733582556247711182
-0.507864832878112793 1.18501794338226318 -0.846441388130187988
1.24144744873046875 2.31360650062561035 -1.69288277626037598
0.95930027961730957 3.44219493865966797 -0.790012001991271973
-1.12858855724334717 1.74931228160858154 -0.846441388130187988
0.507864832878112793 2.03145933151245117 -0.902870833873748779
-0.338576555252075195 2.8214714527130127 -0.902870833873748779
0.677153110504150391 1.24144744873046875 -1.58002400398254395
3.8936305046081543 5.98151922225952148 -1.29787683486938477
0.564294278621673584 4.06291866302490234 -0.790012001991271973
0.564294278621673584 2.59575366973876953 -1.52359449863433838
1.52359449863433838 5.81223106384277344 0.225717708468437195
-0.282147139310836792 1.86217105388641357 -1.52359449863433838
2.59575366973876953 4.965789794921875 -1.63645339012145996
-0.902870833873748779 2.42646527290344238 -0.790012001991271973
0.45143541693687439 2.8214714527130127 -0.846441388130187988
2.70861244201660156 4.90935993194580078 -0.620723724365234375
-1.41073572635650635 1.97502994537353516 -1.63645339012145996
3.10361838340759277 4.51435422897338867 -1.52359449863433838
1.86217105388641357 1.97502994537353516 -1.63645339012145996
1.46716511249542236 3.16004800796508789 -1.12858855724334717
-0.677153110504150391 2.37003588676452637 -1.41073572635650635
2.20074772834777832 5.36079549789428711 -0.282147139310836792
0.112858861684799194 1.63645339012145996 -1.0721590518951416
1.69288277626037598 4.68364238739013672 -0.564294278621673584
3.16004800796508789 4.6272130012512207 -0.846441388130187988
1.69288277626037598 3.21647739410400391 -1.74931228160858154
0.95930027961730957 6.32009601593017578 -0.507864832878112793
-0.733582556247711182 0.95930027961730957 -1.58002400398254395
0.225717708468437195 4.40149545669555664 -0.395006000995635986
0.0564294308423995972 2.37003588676452637 -0.95930027961730957
-0.282147139310836792 3.5550539493560791 -0.45143541693687439
1.12858855724334717 4.6272130012512207 -0.677153110504150391
-0.790012001991271973 1.58002400398254395 -1.24144744873046875
-1.46716511249542236 2.1443183422088623 -1.01572966575622559
1.69288277626037598 5.69937229156494141 -0.282147139310836792
0.95930027961730957 1.86217105388641357 -1.69288277626037598
2.20074772834777832 3.16004800796508789 -1.63645339012145996
0.112858861684799194 3.83720111846923828 -0.677153110504150391
0.620723724365234375 4.74007177352905273 -0.677153110504150391
2.53932428359985352 5.02221918106079102 -1.12858855724334717
2.20074772834777832 5.86866044998168945 -0.620723724365234375
1.29787683486938477 6.15080738067626953 -1.12858855724334717
0.169288277626037598 2.20074772834777832 -1.41073572635650635
1.86217105388641357 5.47365427017211914 0.112858861684799194
1.24144744873046875 5.92508983612060547 -0.169288277626037598
-0.733582556247711182 2.03145933151245117 -1.0721590518951416
0.169288277626037598 1.52359449863433838 -1.58002400398254395
-1.01572966575622559 2.65218305587768555 -0.395006000995635986
3.21647739410400391 5.19150733947753906 -1.01572966575622559
1.35430622100830078 2.76504182815551758 -1.69288277626037598
0.790012001991271973 2.37003588676452637 -1.0721590518951416
-0.507864832878112793 1.24144744873046875 -1.29787683486938477
1.58002400398254395 3.61148333549499512 -1.58002400398254395
2.70861244201660156 5.19150733947753906 -0.282147139310836792
0.733582556247711182 6.54581356048583984 -0.112858846783638
1.74931228160858154 5.58651351928710938 -0.733582556247711182
1.41073572635650635 1.91860055923461914 -1.63645339012145996
-0.95930027961730957 1.86217105388641357 -1.52359449863433838
0.95930027961730957 2.99075961112976074 -0.902870833873748779
-0.620723724365234375 1.46716511249542236 -1.63645339012145996
-0.677153110504150391 1.63645339012145996 -0.846441388130187988
-0.677153110504150391 2.8214714527130127 -0.564294278621673584
0.0564294308423995972 2.87790083885192871 -0.733582556247711182
0.733582556247711182 2.20074772834777832 -1.74931228160858154
-0.225717708468437195 3.32933616638183594 -0.790012001991271973
-0.282147139310836792 1.63645339012145996 -0.95930027961730957
1.07215917110443115 1.46716511249542236 -1.69288277626037598
0.564294278621673584 3.66791272163391113 -0.902870833873748779
-0.395006000995635986 2.42646527290344238 -0.95930027961730957
-0.112858846783638 2.03145933151245117 -1.18501794338226318
1.63645339012145996 2.4828948974609375 -1.69288277626037598
2.31360650062561035 5.19150733947753906 -0.620723724365234375
0.902870833873748779 2.59575366973876953 -1.69288277626037598
2.31360650062561035 5.36079549789428711 0.225717708468437195
3.72529029846191406e-09 1.91860055923461914 -0.846441388130187988
2.4828948974609375 5.86866044998168945 -0.338576555252075195
1.01572966575622559 6.20723676681518555 -0.902870833873748779
0.45143541693687439 2.37003588676452637 -0.790012001991271973
0.338576555252075195 4.51435422897338867 -0.0564294233918190002
2.99075961112976074 4.85293054580688477 -1.58002400398254395
0.677153110504150391 1.58002400398254395 -1.69288277626037598
-1.35430622100830078 2.20074772834777832 -1.35430622100830078
0.338576555252075195 1.18501794338226318 -1.63645339012145996
0.282147139310836792 3.95005989074707031 -0.95930027961730957
2.08788871765136719 5.41722488403320312 -0.733582556247711182
-0.902870833873748779 2.31360650062561035 -1.12858855724334717
-0.507864832878112793 3.21647739410400391 -0.564294278621673584
-1.18501794338226318 2.42646527290344238 -0.564294278621673584
0.45143541693687439 2.20074772834777832 -1.58002400398254395
1.97502994537353516 5.86866044998168945 -0.338576555252075195
-0.169288277626037598 1.52359449863433838 -1.24144744873046875
-1.18501794338226318 2.31360650062561035 -0.902870833873748779
1.35430622100830078 3.38576555252075195 -1.58002400398254395
0.677153110504150391 2.59575366973876953 -0.790012001991271973
1.97502994537353516 3.38576555252075195 -1.63645339012145996
0.45143541693687439 4.6272130012512207 -0.395006000995635986
1.18501794338226318 4.34506607055664062 -0.902870833873748779
1.74931228160858154 4.28863668441772461 -0.95930027961730957
-0.169288277626037598 2.1443183422088623 -1.46716511249542236
1.01572966575622559 2.87790083885192871 -1.58002400398254395
-0.620723724365234375 2.70861244201660156 -0.846441388130187988
1.24144744873046875 3.10361838340759277 -0.846441388130187988
-0.45143541693687439 1.91860055923461914 -1.01572966575622559
3.72529029846191406e-09 3.16004800796508789 -0.95930027961730957
2.08788871765136719 5.58651351928710938 -0.112858846783638
0.225717708468437195 4.11934804916381836 -0.507864832878112793
1.18501794338226318 6.20723676681518555 -0.338576555252075195
3.72529029846191406e-09 1.74931228160858154 -1.46716511249542236
0.790012001991271973 6.43295478820800781 -0.733582556247711182
2.42646527290344238 5.24793672561645508 -0.112858846783638
0.620723724365234375 4.34506607055664062 -0.846441388130187988
1.63645339012145996 2.8214714527130127 -1.74931228160858154
1.91860055923461914 2.25717711448669434 -1.69288277626037598
2.4828948974609375 5.07864856719970703 -0.846441388130187988
-0.338576555252075195 3.61148333549499512 -0.169288277626037598
1.52359449863433838 5.86866044998168945 -0.112858846783638
1.91860055923461914 3.04718899726867676 -1.69288277626037598
-0.112858846783638 3.78077173233032227 -0.395006000995635986
-0.846441388130187988 2.93433022499084473 -0.338576555252075195
0.282147139310836792 2.59575366973876953 -0.733582556247711182
2.31360650062561035 5.07864856719970703 -1.29787683486938477
-0.507864832878112793 1.18501794338226318 -1.58002400398254395
-0.790012001991271973 2.03145933151245117 -1.35430622100830078
0.282147139310836792 3.66791272163391113 -0.846441388130187988
-0.169288277626037598 2.20074772834777832 -0.902870833873748779
0.677153110504150391 1.86217105388641357 -1.74931228160858154
-0.338576555252075195 1.58002400398254395 -1.52359449863433838
2.70861244201660156 4.965789794921875 -1.35430622100830078
0.225717708468437195 4.23220682144165039 -0.169288277626037598
1.29787683486938477 6.15080738067626953 0.0564294308423995972
1.63645339012145996 2.20074772834777832 -1.69288277626037598
1.41073572635650635 5.86866044998168945 -0.45143541693687439
-0.677153110504150391 1.41073572635650635 -1.01572966575622559
1.69288277626037598 1.74931228160858154 -1.63645339012145996
3.21647739410400391 5.13507795333862305 -0.733582556247711182
-1.46716511249542236 2.20074772834777832 -0.620723724365234375
1.91860055923461914 5.58651351928710938 -0.395006000995635986
0.395006000995635986 1.63645339012145996 -1.69288277626037598
0.733582556247711182 2.87790083885192871 -0.790012001991271973
1.41073572635650635 5.92508983612060547 -1.01572966575622559
1.58002400398254395 4.45792484283447266 -0.677153110504150391
-0.95930027961730957 1.74931228160858154 -1.12858855724334717
0.338576555252075195 1.86217105388641357 -1.01572966575622559
1.69288277626037598 5.69937229156494141 0.0564294308423995972
1.12858855724334717 2.8214714527130127 -1.01572966575622559
3.72529029846191406e-09 2.59575366973876953 -0.846441388130187988
-1.18501794338226318 2.03145933151245117 -1.52359449863433838
0.282147139310836792 2.1443183422088623 -0.846441388130187988
1.46716511249542236 3.10361838340759277 -1.69288277626037598
0.169288277626037598 1.86217105388641357 -1.63645339012145996
-1.24144744873046875 2.53932428359985352 -0.338576555252075195
-0.620723724365234375 2.4828948974609375 -1.0721590518951416
0.846441388130187988 6.48938417434692383 -0.338576555252075195
-1.18501794338226318 1.63645339012145996 -1.63645339012145996
3.16004800796508789 5.41722488403320312 -0.282147139310836792
0.507864832878112793 4.51435422897338867 -0.620723724365234375
2.42646527290344238 6.0379486083984375 -0.0564294233918190002
1.07215917110443115 6.32009601593017578 -1.12858855724334717
-0.169288277626037598 2.99075961112976074 -0.733582556247711182
0.846441388130187988 6.32009601593017578 -0.112858846783638
-1.18501794338226318 2.37003588676452637 -1.18501794338226318
-0.169288277626037598 1.86217105388641357 -1.01572966575622559
1.18501794338226318 6.15080738067626953 -0.733582556247711182
0.282147139310836792 3.38576555252075195 -0.846441388130187988
1.18501794338226318 2.59575366973876953 -1.74931228160858154
0.0564294308423995972 3.95005989074707031 -0.338576555252075195
-0.45143541693687439 3.38576555252075195 -0.395006000995635986
2.1443183422088623 5.41722488403320312 0.0564294308423995972
2.20074772834777832 5.19150733947753906 -0.902870833873748779
2.1443183422088623 5.53008365631103516 -0.45143541693687439
0.225717708468437195 1.97502994537353516 -1.35430622100830078
0.846441388130187988 1.41073572635650635 -1.63645339012145996
0.95930027961730957 2.1443183422088623 -1.69288277626037598
3.95005989074707031 6.32009601593017578 -0.902870833873748779
1.07215917110443115 4.57078361511230469 -0.902870833873748779
3.72529029846191406e-09 1.35430622100830078 -1.58002400398254395
1.35430622100830078 1.63645339012145996 -1.63645339012145996
-0.95930027961730957 2.70861244201660156 -0.620723724365234375
0.112858861684799194 1.12858855724334717 -1.69288277626037598
-0.507864832878112793 1.58002400398254395 -1.01572966575622559
1.18501794338226318 1.80574166774749756 -1.63645339012145996
0.846441388130187988 2.42646527290344238 -0.846441388130187988
-0.395006000995635986 3.44219493865966797 -0.620723724365234375
-1.41073572635650635 2.31360650062561035 -0.846441388130187988
0.169288277626037598 2.76504182815551758 -0.902870833873748779
1.35430622100830078 4.51435422897338867 -0.677153110504150391
2.1443183422088623 2.93433022499084473 -1.63645339012145996
1.80574166774749756 3.78077173233032227 -1.63645339012145996
-0.395006000995635986 1.35430622100830078 -0.95930027961730957
3.10361838340759277 5.30436611175537109 -1.24144744873046875
-0.677153110504150391 2.42646527290344238 -0.846441388130187988
2.42646527290344238 5.30436611175537109 -0.338576555252075195
-0.677153110504150391 1.35430622100830078 -0.790012001991271973
1.63645339012145996 5.69937229156494141 -0.564294278621673584
0.620723724365234375 4.68364238739013672 -0.95930027961730957
0.225717708468437195 3.66791272163391113 -1.0721590518951416
1.24144744873046875 5.98151922225952148 -0.564294278621673584
0.45143541693687439 1.41073572635650635 -1.69288277626037598
-0.846441388130187988 1.12858855724334717 -1.69288277626037598
1.41073572635650635 2.1443183422088623 -1.69288277626037598
-0.507864832878112793 2.93433022499084473 -0.677153110504150391
3.72529029846191406e-09 1.97502994537353516 -1.52359449863433838
-0.95930027961730957 1.63645339012145996 -1.58002400398254395
0.395006000995635986 4.11934804916381836 -1.0721590518951416
-0.395006000995635986 2.20074772834777832 -1.01572966575622559
1.01572966575622559 2.37003588676452637 -1.69288277626037598
0.225717708468437195 2.37003588676452637 -0.790012001991271973
2.20074772834777832 5.92508983612060547 -0.338576555252075195
1.41073572635650635 2.4828948974609375 -1.69288277626037598
2.20074772834777832 3.38576555252075195 -1.63645339012145996
0.790012001991271973 2.1443183422088623 -1.0721590518951416
0.282147139310836792 4.28863668441772461 -0.620723724365234375
-0.112858846783638 3.49862456321716309 -0.733582556247711182
2.8214714527130127 4.965789794921875 -1.63645339012145996
0.507864832878112793 3.83720111846923828 -0.790012001991271973
0.902870833873748779 2.76504182815551758 -0.846441388130187988
0.112858861684799194 3.49862456321716309 -0.790012001991271973
-0.45143541693687439 1.12858855724334717 -1.12858855724334717
0.0564294308423995972 1.46716511249542236 -1.18501794338226318
-0.225717708468437195 1.41073572635650635 -1.58002400398254395
-0.790012001991271973 1.35430622100830078 -1.69288277626037598
-1.29787683486938477 1.80574166774749756 -1.58002400398254395
0.733582556247711182 4.00648927688598633 -0.902870833873748779
0.507864832878112793 2.53932428359985352 -0.902870833873748779
-0.564294278621673584 1.46716511249542236 -1.18501794338226318
1.86217105388641357 2.53932428359985352 -1.74931228160858154
0.677153110504150391 2.31360650062561035 -1.58002400398254395
1.58002400398254395 5.69937229156494141 -0.790012001991271973
1.35430622100830078 5.92508983612060547 0.169288277626037598
