ply
format ascii 1.0
element vertex 256
comment vertices
property float x
property float y
property float z
end_header
0.359188169240951538 2.58431744575500488 -1.0567549467086792
1.89737653732299805 4.50392627716064453 -1.80199968814849854
0.0487725734710693359 5.54073858261108398 -1.3092193603515625
-0.992658555507659912 6.34572744369506836 -1.1238701343536377
2.16879677772521973 4.28413724899291992 -0.865118920803070068
0.369884997606277466 4.47651910781860352 -0.627707123756408691
-1.06886088848114014 1.79523801803588867 -1.00682663917541504
1.30921995639801025 3.97886919975280762 -0.329334110021591187
3.48999452590942383 4.87793874740600586 -0.847254276275634766
2.55777907371520996 2.95932650566101074 -1.06312167644500732
1.90575897693634033 3.72518658638000488 -0.862776577472686768
2.10529685020446777 1.66878080368041992 -1.13417136669158936
-0.689379274845123291 2.85672211647033691 -1.00592219829559326
1.40051591396331787 5.02778863906860352 -0.95314633846282959
0.0444908291101455688 3.60450053215026855 -1.06330525875091553
1.23279523849487305 3.8220984935760498 -1.08070278167724609
2.66918182373046875 4.18507003784179688 -0.628244757652282715
2.90654349327087402 1.93686580657958984 -1.66381144523620605
3.08487677574157715 4.14368438720703125 -1.01146149635314941
-0.255541115999221802 1.94404244422912598 -1.06071567535400391
2.10762238502502441 5.79391574859619141 -0.698919415473937988
-2.19702744483947754 0.647943496704101562 -1.39121043682098389
1.22306370735168457 4.73568630218505859 -1.10749650001525879
0.498546361923217773 -1.22639989852905273 -2.15786218643188477
0.698202252388000488 3.2888948917388916 -1.08015739917755127
-0.551008343696594238 1.29267311096191406 -1.00415527820587158
2.10805940628051758 4.99931192398071289 -1.05245053768157959
0.644093871116638184 3.94501566886901855 -0.900877475738525391
0.881890237331390381 2.2424159049987793 -1.06067454814910889
-0.0602500811219215393 2.99236583709716797 -0.856250882148742676
1.23036098480224609 4.43211555480957031 -1.00144720077514648
1.60547709465026855 0.0339293479919433594 -1.365226149559021
1.78327775001525879 4.09467458724975586 -0.614916205406188965
-0.858282566070556641 2.3186337947845459 -0.972900390625
-0.28029102087020874 2.4888153076171875 -0.970340371131896973
1.11900591850280762 2.72735381126403809 -0.984610199928283691
1.82834923267364502 3.97093009948730469 -0.625025808811187744
4.39787530899047852 3.510498046875 -0.675847947597503662
1.68187546730041504 4.35188531875610352 -0.8618202805519104
2.43621087074279785 4.59696674346923828 -1.10370993614196777
0.981767356395721436 -1.32489204406738281 -2.08619189262390137
3.8839569091796875 5.94839859008789062 -1.12281119823455811
4.36490917205810547 3.12321996688842773 -1.57151186466217041
4.18973875045776367 2.65663385391235352 -1.56002211570739746
3.33026647567749023 5.27648353576660156 -0.937623858451843262
1.39709270000457764 4.12258148193359375 -0.834201335906982422
0.229718923568725586 2.97172951698303223 -1.17311549186706543
2.17786836624145508 3.11395955085754395 -1.67892336845397949
-0.656241297721862793 1.78691971302032471 -1.05583381652832031
2.00518131256103516 5.23130273818969727 -0.924634575843811035
1.0516430139541626 2.73027515411376953 -1.60092687606811523
0.814649999141693115 1.85885822772979736 -1.17472004890441895
3.1977388858795166 4.50809144973754883 -1.14949274063110352
1.48500263690948486 5.53177499771118164 -0.842514395713806152
0.726845622062683105 2.89234399795532227 -1.04638445377349854
1.63650894165039062 -1.41457319259643555 -2.07425618171691895
1.18208372592926025 0.888885974884033203 -1.27609264850616455
2.71028995513916016 4.21704769134521484 -1.07672274112701416
0.455582022666931152 3.14186978340148926 -0.935332536697387695
1.30269205570220947 -2.49589681625366211 -1.99196231365203857
0.314923018217086792 3.3843996524810791 -0.922188937664031982
-0.198005110025405884 3.3182220458984375 -0.970657885074615479
-0.529765129089355469 2.28914308547973633 -0.783867001533508301
2.29795646667480469 3.99093961715698242 -1.03609657287597656
3.20428752899169922 1.8643946647644043 -1.43306803703308105
1.42787015438079834 4.14646339416503906 -1.07345092296600342
2.45948696136474609 5.1031794548034668 -0.65373992919921875
-0.200312629342079163 2.7948911190032959 -1.11858797073364258
0.254341274499893188 3.87129330635070801 -0.981327652931213379
0.706478238105773926 2.54313087463378906 -1.05325436592102051
-0.0629751086235046387 2.27095794677734375 -1.11702108383178711
-0.0726467370986938477 1.17875003814697266 -1.52552652359008789
5.27986717224121094 -0.214406013488769531 -1.35699272155761719
-0.398136556148529053 3.01754331588745117 -0.957181870937347412
2.01678156852722168 4.72374248504638672 -0.861061751842498779
1.0424504280090332 3.05760812759399414 -1.03267550468444824
-0.371646225452423096 1.61460363864898682 -1.03610098361968994
2.49778890609741211 3.4749903678894043 -1.84697973728179932
-0.615829944610595703 2.12640190124511719 -1.07092094421386719
-0.612683534622192383 2.49388360977172852 -1.07461357116699219
0.444278180599212646 4.15473365783691406 -1.031899094581604
-0.897009730339050293 5.00327396392822266 -0.889152705669403076
1.31393551826477051 1.01765203475952148 -1.43235504627227783
2.28611326217651367 1.17800998687744141 -1.63476252555847168
-1.0591198205947876 2.13852977752685547 -1.09759807586669922
-0.889537155628204346 2.61310410499572754 -0.996357977390289307
1.08837985992431641 1.9524688720703125 -1.10882687568664551
-0.0926079750061035156 2.34288859367370605 -0.801373720169067383
2.28306889533996582 4.77113533020019531 -0.936064362525939941
2.93420028686523438 4.37319374084472656 -0.971708953380584717
0.03598785400390625 2.67385101318359375 -1.04493200778961182
1.95409560203552246 4.29528713226318359 -1.03432917594909668
1.15815460681915283 3.6243596076965332 -0.685442447662353516
0.455019474029541016 2.88030552864074707 -1.05812382698059082
1.64156055450439453 4.55425786972045898 -1.02301025390625
1.34826743602752686 0.326299667358398438 -1.46020603179931641
1.85823416709899902 2.76441669464111328 -1.40451741218566895
2.47177886962890625 2.91979408264160156 -1.68837320804595947
0.573466658592224121 2.32760000228881836 -1.04736852645874023
0.959594011306762695 2.55222511291503906 -1.06600415706634521
2.54708385467529297 4.45196723937988281 -0.836755156517028809
-0.141717612743377686 3.04664063453674316 -1.08471310138702393
3.13562679290771484 4.87667179107666016 -1.02252638339996338
3.28748750686645508 3.53546380996704102 -0.79069066047668457
1.07587409019470215 2.88391208648681641 -1.19402456283569336
1.9077298641204834 4.29613637924194336 -0.787388026714324951
0.68657606840133667 4.17887401580810547 -0.954173922538757324
3.21525382995605469 2.87668991088867188 -1.27241742610931396
1.63393902778625488 4.9035334587097168 -0.772963404655456543
0.103776030242443085 3.27173781394958496 -0.935089051723480225
-1.08978807926177979 -0.493595123291015625 -2.25123190879821777
-0.414208143949508667 2.79175519943237305 -0.880555510520935059
-0.598320066928863525 1.56330430507659912 -0.982696294784545898
1.88305318355560303 5.09472751617431641 -0.60254436731338501
2.05745077133178711 4.69629335403442383 -0.815946757793426514
1.42541265487670898 4.44147920608520508 -0.726137042045593262
1.03347766399383545 6.32144641876220703 -1.02945113182067871
1.48066914081573486 4.46747970581054688 -0.877339482307434082
2.62484645843505859 1.324676513671875 -1.31575953960418701
1.82925498485565186 4.60506916046142578 -0.804091274738311768
2.22776627540588379 0.0118842124938964844 -1.11009037494659424
0.0673462748527526855 1.03084945678710938 -1.41544806957244873
0.427434980869293213 3.97876834869384766 -0.893474340438842773
-0.483226507902145386 2.51509785652160645 -0.891646206378936768
1.00325453281402588 1.64123380184173584 -1.19736957550048828
0.261715292930603027 3.5858314037322998 -0.857936561107635498
0.182414427399635315 2.8133702278137207 -0.968736767768859863
2.17472076416015625 4.10107707977294922 -0.75089108943939209
0.330431580543518066 3.26558542251586914 -1.10044300556182861
0.0347042977809906006 2.09566307067871094 -1.04507303237915039
0.177866578102111816 2.473907470703125 -1.05268144607543945
2.49239921569824219 4.06032609939575195 -0.824227690696716309
3.12608528137207031 4.43780660629272461 -0.915865778923034668
-0.122430168092250824 3.48079681396484375 -1.0893784761428833
-0.511670351028442383 1.45131599903106689 -1.13195121288299561
-0.496302425861358643 2.30501890182495117 -0.984999179840087891
3.41850614547729492 5.06848859786987305 -0.856408357620239258
-0.49905771017074585 2.66310906410217285 -1.03022301197052002
-0.0926711559295654297 -0.343594551086425781 -1.22755563259124756
1.05943167209625244 5.78865480422973633 -0.908550024032592773
-0.885303914546966553 2.11683845520019531 -1.00770807266235352
0.0469701290130615234 6.08427667617797852 -1.01586353778839111
1.95797157287597656 4.91108322143554688 -0.855782747268676758
0.747778534889221191 3.08387899398803711 -1.01025688648223877
0.521387159824371338 2.69282412528991699 -1.07035517692565918
2.08226633071899414 4.15010213851928711 -1.02963495254516602
-0.483017146587371826 1.86529636383056641 -1.06208610534667969
2.77842187881469727 4.29431009292602539 -0.737484991550445557
0.245109915733337402 2.73141145706176758 -1.12652409076690674
-0.964657843112945557 1.94254541397094727 -0.954202353954315186
-0.720421791076660156 2.46727991104125977 -0.923324465751647949
4.33963489532470703 5.29368019104003906 -0.792921185493469238
0.195980310440063477 -2.35200834274291992 -2.01647186279296875
1.00455141067504883 3.85521340370178223 -1.55043339729309082
3.18765020370483398 4.24417638778686523 -0.736748993396759033
-0.717538177967071533 2.66310906410217285 -1.03022301197052002
-0.0568297132849693298 3.21446657180786133 -1.01893818378448486
-0.296796619892120361 0.516401290893554688 -1.45151019096374512
0.446675539016723633 3.05636096000671387 -1.05991089344024658
1.46888172626495361 1.72445106506347656 -0.497383326292037964
-0.245939627289772034 2.6252591609954834 -1.12684261798858643
0.533540248870849609 1.90232992172241211 -1.48988735675811768
-0.881825804710388184 2.45357108116149902 -1.08136641979217529
-0.665894448757171631 1.95896220207214355 -1.07814288139343262
-0.0629196539521217346 2.8888554573059082 -1.0696793794631958
-0.247280478477478027 2.29764986038208008 -0.860899925231933594
0.260119855403900146 2.67517971992492676 -0.903157711029052734
0.952791929244995117 -0.529616832733154297 -1.32755792140960693
4.16183948516845703 -2.66765785217285156 -2.14911198616027832
0.68193972110748291 2.18530654907226562 -1.51142609119415283
0.870474696159362793 2.98984241485595703 -1.07940769195556641
1.37666022777557373 5.18287897109985352 -0.892460227012634277
0.736487627029418945 2.36716556549072266 -1.05591630935668945
-0.560370504856109619 3.05965352058410645 -0.949808716773986816
2.0526270866394043 4.40471172332763672 -0.808150053024291992
1.99483311176300049 5.06146574020385742 -0.945774734020233154
1.40671658515930176 4.91434240341186523 -0.830376982688903809
-0.510892271995544434 2.92049288749694824 -1.03113913536071777
0.460259377956390381 2.77095699310302734 -0.934671282768249512
-0.0925911068916320801 2.57163000106811523 -1.04629814624786377
0.832920551300048828 2.65423274040222168 -1.06820023059844971
0.427979528903961182 3.82013869285583496 -0.925594329833984375
2.05941057205200195 3.9339897632598877 -1.45774936676025391
0.854879021644592285 3.29065299034118652 -1.05331158638000488
2.08210611343383789 2.87979269027709961 -1.49263596534729004
1.41717433929443359 4.3710026741027832 -0.984598875045776367
1.29766309261322021 4.5329432487487793 -0.753602266311645508
-0.67202991247177124 1.35577797889709473 -0.92981410026550293
1.11414217948913574 1.77191424369812012 -1.19547593593597412
0.981024384498596191 2.04283976554870605 -1.04650187492370605
0.277927935123443604 2.52538061141967773 -1.17121851444244385
-0.725718379020690918 2.29797530174255371 -1.04472959041595459
0.375863313674926758 2.7997748851776123 -1.15802335739135742
2.40219211578369141 5.15149545669555664 -0.826653718948364258
2.83614635467529297 2.57690620422363281 -1.83692002296447754
0.188456714153289795 2.63012337684631348 -1.02535629272460938
4.37750864028930664 4.08566141128540039 -0.742088615894317627
0.619910120964050293 2.99024462699890137 -1.06678593158721924
-0.34054940938949585 1.92962396144866943 -0.94280773401260376
-0.0669271349906921387 3.34652423858642578 -1.08500933647155762
-0.40542370080947876 1.98803222179412842 -1.0649268627166748
0.49905771017074585 2.54931974411010742 -1.04940164089202881
-0.466139853000640869 1.39347302913665771 -0.945715665817260742
2.08338570594787598 2.74355649948120117 -1.56036257743835449
-0.897432863712310791 2.47560811042785645 -0.942348182201385498
-0.135100424289703369 2.79735851287841797 -0.9897041916847229
1.02546525001525879 6.17378473281860352 -1.08607053756713867
1.76932621002197266 4.51945400238037109 -0.975530624389648438
-0.903363883495330811 2.21796536445617676 -1.10155832767486572
0.838922262191772461 2.82175087928771973 -1.08741283416748047
0.403422534465789795 4.01371002197265625 -1.02535295486450195
0.326946854591369629 3.14491629600524902 -1.16814124584197998
-0.183377921581268311 2.49267578125 -0.872119903564453125
0.277614712715148926 2.8746955394744873 -1.04706490039825439
0.927334010601043701 1.93740403652191162 -1.17218196392059326
1.61819672584533691 4.43537664413452148 -0.962813138961791992
2.46509289741516113 -0.247433185577392578 -1.34969520568847656
1.05555546283721924 1.83754193782806396 -1.0484931468963623
-0.391925275325775146 2.59076261520385742 -0.996370315551757812
0.576168537139892578 2.8288571834564209 -1.03836619853973389
0.303573548793792725 2.43119192123413086 -1.04916024208068848
1.56128489971160889 2.17598152160644531 -1.55073440074920654
0.367957234382629395 2.72150611877441406 -1.05160665512084961
-0.626598715782165527 2.39751243591308594 -0.985959351062774658
2.0609745979309082 4.24596023559570312 -0.941938281059265137
-0.170039534568786621 2.36678051948547363 -0.941748917102813721
0.648406863212585449 4.05120658874511719 -0.977539718151092529
1.07883667945861816 5.91173982620239258 -0.947188436985015869
0.184018760919570923 3.36978483200073242 -0.961570024490356445
-0.00841820985078811646 2.91586041450500488 -0.955593526363372803
1.52225518226623535 4.98250198364257812 -0.672090470790863037
-0.313644915819168091 1.99563419818878174 -1.16339635848999023
0.634353876113891602 4.17609834671020508 -1.07134997844696045
-1.02953517436981201 2.21619796752929688 -1.00136935710906982
-0.642624557018280029 1.3808596134185791 -1.05068397521972656
-0.412097394466400146 1.42617392539978027 -1.05771028995513916
2.42237401008605957 4.873504638671875 -0.832334816455841064
1.30741357803344727 4.17799234390258789 -1.06070971488952637
-0.520915985107421875 2.7819063663482666 -1.0428776741027832
2.21422004699707031 3.66277670860290527 -1.5466761589050293
0.341216504573822021 2.62799811363220215 -1.16817235946655273
0.507113039493560791 4.06822490692138672 -0.903766393661499023
-0.732332706451416016 2.54450607299804688 -1.04124069213867188
-0.174970239400863647 3.2187201976776123 -1.03860151767730713
0.476997971534729004 4.2019352912902832 -0.928697705268859863
-0.377941340208053589 2.90129470825195312 -0.952719926834106445
1.27944445610046387 4.38926553726196289 -0.903444886207580566
0.605732738971710205 2.60166335105895996 -1.04439330101013184
1.93251347541809082 4.26944112777709961 -0.922642290592193604
-0.104571178555488586 3.38779377937316895 -0.972873330116271973
2.29046630859375 3.97943854331970215 -1.30035996437072754
2.01433730125427246 4.82428979873657227 -0.917260289192199707
-0.0625131130218505859 2.73265695571899414 -1.05408072471618652
-0.57771766185760498 1.415824294090271 -0.96241307258605957
-0.729908466339111328 2.33485198020935059 -0.936895191669464111
-0.78027498722076416 2.43927621841430664 -1.01540064811706543
