ply
format ascii 1.0
element vertex 90
comment vertices
property float x
property float y
property float z
end_header
0.387993007898330688 2.61449766159057617 -1.0742037296295166
-0.0972850620746612549 3.48092842102050781 -0.98164069652557373
-0.817857325077056885 2.52861142158508301 -1.06103181838989258
-0.567063212394714355 1.34564805030822754 -0.994727015495300293
1.35595118999481201 4.42623472213745117 -0.923443317413330078
0.439046919345855713 4.00252151489257812 -1.00621438026428223
0.0476372838020324707 2.44118404388427734 -0.994424104690551758
-0.418652385473251343 3.14514732360839844 -0.954583406448364258
1.60936403274536133 4.49199295043945312 -0.941691577434539795
0.395503193140029907 4.05395126342773438 -0.979573667049407959
-0.501216590404510498 1.36441826820373535 -0.984588623046875
-0.492524802684783936 2.86767339706420898 -1.09206247329711914
0.483849972486495972 2.92773938179016113 -1.08792829513549805
-0.751671433448791504 2.5363459587097168 -0.865620911121368408
0.265754997730255127 2.66367030143737793 -1.01089239120483398
-0.4500998854637146 3.05379056930541992 -0.946985602378845215
0.499590039253234863 4.00737380981445312 -0.993073105812072754
-0.865653276443481445 2.50028610229492188 -1.03832221031188965
0.418770819902420044 2.39672994613647461 -0.975448846817016602
0.345451831817626953 2.79384517669677734 -1.04953908920288086
0.423462450504302979 3.95600986480712891 -1.07558989524841309
0.545460045337677002 2.49784660339355469 -0.985623478889465332
0.508572280406951904 2.68355894088745117 -1.04660797119140625
1.64537370204925537 4.55074739456176758 -0.961222589015960693
0.419106423854827881 4.01723766326904297 -0.969877779483795166
-0.556550741195678711 1.40912830829620361 -0.975495576858520508
-0.629408776760101318 2.70035290718078613 -0.994194507598876953
0.42548331618309021 4.09063005447387695 -0.974995613098144531
0.370140105485916138 2.64963626861572266 -1.01547300815582275
-0.785369038581848145 2.47926545143127441 -1.02881383895874023
-0.39383387565612793 3.07330942153930664 -0.960900366306304932
-0.854415237903594971 2.46988511085510254 -0.995377242565155029
-0.534686088562011719 1.3704981803894043 -0.94125211238861084
-0.413369238376617432 2.9687507152557373 -0.92249220609664917
0.307837039232254028 2.57322168350219727 -1.01041102409362793
-0.106557346880435944 3.43682718276977539 -0.986479222774505615
0.262563467025756836 2.39511895179748535 -1.02195620536804199
1.46389961242675781 4.49590778350830078 -0.986163556575775146
0.46921539306640625 2.30582571029663086 -1.02683436870574951
1.60825634002685547 4.50145959854125977 -0.977459311485290527
1.67578804492950439 4.56296539306640625 -0.974209606647491455
-0.421716392040252686 3.05628752708435059 -0.981112122535705566
-0.894354701042175293 2.39562106132507324 -1.05196976661682129
-0.546455979347229004 1.32395732402801514 -1.02153515815734863
0.392717480659484863 2.53239989280700684 -0.970601320266723633
0.43348848819732666 2.51497650146484375 -1.06741547584533691
-0.839621245861053467 2.50467395782470703 -1.08424007892608643
1.55460786819458008 4.52121114730834961 -0.919567227363586426
-0.442626476287841797 3.01964187622070312 -0.917366325855255127
1.47604823112487793 4.45381927490234375 -0.96082770824432373
1.29799902439117432 4.44125556945800781 -0.975119113922119141
0.35622173547744751 2.69012212753295898 -1.05941915512084961
0.602239549160003662 2.76959228515625 -1.07805097103118896
1.49073994159698486 4.45206785202026367 -0.971071302890777588
-0.714909553527832031 2.51279187202453613 -1.10941731929779053
0.368080794811248779 2.49551725387573242 -1.02845478057861328
0.425010859966278076 4.03008508682250977 -0.97850334644317627
0.45290827751159668 2.6438148021697998 -1.04301023483276367
-0.832903206348419189 2.49967265129089355 -1.03942084312438965
-0.484058916568756104 3.04690432548522949 -0.965171098709106445
0.472223669290542603 2.54631996154785156 -1.00957012176513672
0.320901483297348022 2.90062212944030762 -1.09738945960998535
-0.58370661735534668 1.37205147743225098 -0.956170320510864258
0.496095269918441772 2.73796319961547852 -1.06995916366577148
1.63644933700561523 4.50439929962158203 -0.96579444408416748
0.311430513858795166 2.7368776798248291 -1.03307056427001953
0.427729159593582153 3.98121953010559082 -0.942763984203338623
-0.81613612174987793 2.49609088897705078 -1.0056833028793335
-0.864205718040466309 2.48653459548950195 -1.03645491600036621
0.49164995551109314 2.60058426856994629 -1.06453037261962891
-0.394821465015411377 2.97421360015869141 -1.02588629722595215
-0.542106807231903076 1.366341233253479 -0.9499167799949646
0.375295460224151611 2.46401190757751465 -0.977442383766174316
0.372765421867370605 2.59501767158508301 -1.02968347072601318
-0.862555384635925293 2.49037742614746094 -1.02052187919616699
0.555950284004211426 2.69370841979980469 -1.01523327827453613
0.39831233024597168 4.03740739822387695 -0.995984554290771484
-0.128298446536064148 3.45143246650695801 -0.977579951286315918
0.378830552101135254 2.71283054351806641 -1.02205657958984375
0.385418564081192017 2.5010983943939209 -1.02146172523498535
0.47886735200881958 2.42822957038879395 -1.01258158683776855
1.61153149604797363 4.50418615341186523 -0.970480024814605713
0.526601076126098633 4.10831832885742188 -0.955748975276947021
0.112646102905273438 2.85571026802062988 -1.10196661949157715
-0.524860203266143799 1.35388469696044922 -0.918481171131134033
1.55765461921691895 4.50569295883178711 -0.961232781410217285
-0.324603557586669922 3.22043180465698242 -1.01482677459716797
1.60965752601623535 4.4842524528503418 -0.920929491519927979
0.456114262342453003 2.66959214210510254 -1.04366636276245117
0.29241567850112915 2.45027780532836914 -1.03965747356414795
