ply
format ascii 1.0
element vertex 256
comment vertices
property float x
property float y
property float z
end_header
-1.32883548736572266 3.78695774078369141 -0.767283499240875244
1.81071782112121582 2.83403921127319336 -0.21898236870765686
0.191085174679756165 1.35156083106994629 -1.12210202217102051
1.21412944793701172 3.16186094284057617 -0.546854078769683838
0.270732343196868896 3.08172345161437988 -1.14681410789489746
-1.08208799362182617 2.42599344253540039 -1.08610856533050537
1.03188693523406982 4.37513065338134766 -0.995458900928497314
-3.22457122802734375 2.9267418384552002 -0.719755232334136963
0.929245650768280029 2.32175254821777344 -1.11601698398590088
-0.313453942537307739 3.8990631103515625 -1.09707415103912354
-0.214887052774429321 2.20041847229003906 -1.20021569728851318
-1.95663774013519287 2.98582983016967773 -0.982035040855407715
1.13882005214691162 3.29333901405334473 -1.12939798831939697
0.863103389739990234 3.21895170211791992 -0.39323955774307251
-0.783943772315979004 4.49006891250610352 -0.962267696857452393
0.352873742580413818 4.48594570159912109 -1.04021155834197998
2.60967063903808594 3.61190414428710938 -1.09118342399597168
0.529497325420379639 4.48177433013916016 -0.753576338291168213
0.261415243148803711 0.687894821166992188 -1.01127398014068604
0.55043637752532959 1.82451415061950684 -1.13264834880828857
1.61663520336151123 3.69187164306640625 -0.438993990421295166
-0.761211752891540527 2.7979896068572998 -1.14898860454559326
-0.841166496276855469 3.49535417556762695 -1.25746726989746094
-0.703908681869506836 3.71223950386047363 -1.05736684799194336
0.79861980676651001 2.72719979286193848 -1.12194454669952393
-2.1713714599609375 4.12315464019775391 -1.07994437217712402
-0.185642287135124207 2.76826858520507812 -1.15989100933074951
0.644361257553100586 2.22048425674438477 -1.10989189147949219
1.26797842979431152 3.77350568771362305 -1.05134427547454834
0.717566251754760742 3.49031519889831543 -1.09435498714447021
-1.43271732330322266 3.36517024040222168 -1.10331106185913086
0.926784753799438477 4.89151096343994141 -0.607946217060089111
-0.719005465507507324 1.89773547649383545 -1.17326951026916504
0.583674311637878418 2.01245641708374023 -1.02186381816864014
-0.247272104024887085 3.34808778762817383 -1.18042778968811035
-1.7497631311416626 4.21189117431640625 -1.02346718311309814
0.847849369049072266 4.46198081970214844 -0.70809096097946167
2.11367344856262207 2.05627059936523438 -0.951597690582275391
-0.71050262451171875 4.02424192428588867 -1.13057684898376465
-3.93345451354980469 -0.697014570236206055 -1.35392701625823975
0.611887812614440918 4.16111087799072266 -1.02734947204589844
-1.54945468902587891 1.05509662628173828 -0.923278748989105225
-0.730419516563415527 2.33954906463623047 -1.15692317485809326
-2.17588043212890625 2.61411714553833008 -0.812445580959320068
-0.221995890140533447 1.83140087127685547 -1.18077945709228516
1.13105165958404541 2.65906786918640137 -1.08349382877349854
-1.55253267288208008 3.87284255027770996 -1.15858376026153564
0.864480495452880859 3.20025348663330078 -0.745386123657226562
0.0544061549007892609 2.47382545471191406 -1.1523740291595459
-3.18772745132446289 0.743066787719726562 -1.30218601226806641
0.7589607834815979 3.39253830909729004 -1.10058319568634033
0.620264291763305664 4.07091140747070312 -1.02868068218231201
1.56442165374755859 4.19260835647583008 -0.871126711368560791
0.975046753883361816 1.54616975784301758 -1.2870173454284668
0.15285181999206543 4.38458156585693359 -0.578882336616516113
-3.28878641128540039 1.89304399490356445 -0.988254725933074951
0.586195588111877441 3.80858016014099121 -0.420280754566192627
-0.803683280944824219 3.14851045608520508 -0.728766083717346191
0.146842613816261292 2.75668740272521973 -1.19146311283111572
1.42956674098968506 2.65800833702087402 -0.578417062759399414
0.706145048141479492 2.17065596580505371 -1.09261107444763184
-2.62692117691040039 2.31003141403198242 -1.19939541816711426
1.34730851650238037 3.22324419021606445 -0.921897828578948975
0.237935677170753479 1.39795231819152832 -1.102516770362854
-1.51558005809783936 4.48734951019287109 -0.874524056911468506
-0.124059319496154785 4.07534694671630859 -1.02218341827392578
0.135684192180633545 1.99471104145050049 -1.15454483032226562
-0.33802497386932373 2.49315953254699707 -1.15670537948608398
-1.48612308502197266 2.64459753036499023 -1.04064929485321045
0.539931654930114746 4.59596586227416992 -0.630938291549682617
0.703779280185699463 3.49049568176269531 -1.13047969341278076
0.989180862903594971 2.97991657257080078 -1.12861049175262451
-1.80992603302001953 4.14399290084838867 -0.643180608749389648
-1.3456190824508667 3.0621635913848877 -0.994042694568634033
-0.871904969215393066 3.60664629936218262 -0.829018533229827881
-1.02189803123474121 -0.589090347290039062 -1.31836795806884766
-0.939528882503509521 2.12262439727783203 -1.15936541557312012
1.13514471054077148 4.28179311752319336 -0.715393960475921631
0.662706375122070312 3.52023625373840332 -1.14430248737335205
0.712938308715820312 5.09965038299560547 -0.425534248352050781
1.86796045303344727 3.71615195274353027 -1.07125246524810791
-0.426288366317749023 1.3926234245300293 -0.901271522045135498
-0.361568540334701538 4.01918220520019531 -0.97201693058013916
0.705936312675476074 2.20501184463500977 -1.09322988986968994
-0.337051957845687866 1.94980084896087646 -1.21021556854248047
-2.79899454116821289 1.28033924102783203 -1.05337107181549072
1.33459389209747314 4.20293426513671875 -1.07019650936126709
-0.341301560401916504 4.61658525466918945 -0.985344588756561279
0.504004895687103271 2.5478675365447998 -1.19111514091491699
0.97546154260635376 4.42916488647460938 -0.390050590038299561
1.11728739738464355 4.12343597412109375 -0.924110889434814453
-1.34011256694793701 4.08946609497070312 -1.1306682825088501
-0.260980367660522461 3.19955682754516602 -0.483318477869033813
-0.31160387396812439 3.78906679153442383 -1.12605023384094238
1.12911486625671387 2.64699673652648926 -1.08619916439056396
-1.37450194358825684 3.56995368003845215 -1.14352285861968994
1.86328792572021484 4.24716901779174805 -0.815924465656280518
-1.29779982566833496 3.3491675853729248 -0.921914041042327881
-0.964625358581542969 4.26360750198364258 -0.958978712558746338
-1.88412845134735107 2.66945743560791016 -1.12789404392242432
0.911004722118377686 4.29978609085083008 -0.907271981239318848
1.19394302368164062 3.67497944831848145 -1.13300657272338867
-1.88811945915222168 4.71410942077636719 -0.836259543895721436
-1.15418076515197754 3.79344010353088379 -0.991951346397399902
0.125190526247024536 3.21381473541259766 -1.13987576961517334
-1.09150016307830811 2.46134376525878906 -1.10482263565063477
0.3141937255859375 3.01812410354614258 -0.851485669612884521
1.13539505004882812 2.63347935676574707 -1.10046899318695068
0.963972210884094238 4.0056605339050293 -1.15223371982574463
-0.646410882472991943 4.56093978881835938 -0.594872593879699707
-0.0636284351348876953 2.64853167533874512 -1.08987748622894287
-0.0298632588237524033 2.93349289894104004 -1.15147662162780762
-0.21477489173412323 4.26587820053100586 -0.928232789039611816
0.304299205541610718 4.86267471313476562 -0.35397183895111084
0.613898694515228271 3.08466076850891113 -1.08101785182952881
-1.19965386390686035 2.67854523658752441 -0.824710667133331299
-1.78541088104248047 3.74068760871887207 -0.869020402431488037
0.752204537391662598 3.48494887351989746 -1.13898766040802002
-1.20170152187347412 3.81161618232727051 -1.02438783645629883
-0.297734737396240234 2.81095790863037109 -1.01610481739044189
1.37900817394256592 4.21704006195068359 -0.50134432315826416
-0.935829043388366699 3.16953110694885254 -0.676817774772644043
-0.48523944616317749 2.70107293128967285 -1.1419680118560791
-1.25272679328918457 4.01207780838012695 -1.0091012716293335
0.720507383346557617 4.68729925155639648 -0.807722628116607666
1.79104375839233398 3.27462148666381836 -0.25606834888458252
-0.885127902030944824 0.995409965515136719 -1.0368351936340332
-0.446243792772293091 2.19346427917480469 -1.16993308067321777
-0.142279759049415588 2.72719287872314453 -0.790331482887268066
0.427648425102233887 3.15777587890625 -1.08389294147491455
1.09518837928771973 2.54260540008544922 -0.800721049308776855
-1.14941787719726562 3.27300024032592773 -1.19524800777435303
0.772070169448852539 4.59108448028564453 -0.534044563770294189
-1.27006006240844727 4.30710792541503906 -1.09567391872406006
-2.91247224807739258 2.37814569473266602 -1.02432310581207275
-1.60825860500335693 2.96096372604370117 -1.06785750389099121
2.07139229774475098 4.13049745559692383 -0.927292048931121826
1.50039553642272949 3.86417031288146973 -0.94530874490737915
0.929461061954498291 3.52812719345092773 -1.13787698745727539
-1.72033488750457764 3.40896701812744141 -0.988487005233764648
2.07686281204223633 3.04270195960998535 -0.802305996417999268
-0.102422669529914856 2.41440749168395996 -1.20296382904052734
-0.0247790049761533737 2.61984968185424805 -1.17724692821502686
0.934051752090454102 4.28743791580200195 -0.679030179977416992
-0.140681162476539612 3.16112422943115234 -1.17531764507293701
-0.86530536413192749 4.76559543609619141 -0.915734469890594482
-3.23880720138549805 2.0318455696105957 -1.04440474510192871
-0.796354770660400391 2.56004643440246582 -1.1553809642791748
-0.545629680156707764 5.0348663330078125 -0.976691782474517822
0.196631163358688354 2.32359814643859863 -1.21244668960571289
-2.36483240127563477 2.58444118499755859 -0.681122243404388428
0.705445528030395508 2.18667817115783691 -1.11752450466156006
-0.926186561584472656 3.69746112823486328 -1.16284310817718506
2.29081130027770996 1.99408555030822754 -1.22069680690765381
-0.486110210418701172 4.29160737991333008 -1.05650937557220459
-1.79699194431304932 2.78161859512329102 -0.99327319860458374
-1.283721923828125 3.67908525466918945 -1.22611463069915771
-0.589343011379241943 1.69010376930236816 -1.11216282844543457
-2.26145124435424805 3.48545289039611816 -1.00034856796264648
0.482569992542266846 3.59913301467895508 -0.252471923828125
0.900071382522583008 3.79189682006835938 -0.886153578758239746
-1.23413765430450439 3.91412186622619629 -1.12507712841033936
-0.121582686901092529 4.65947151184082031 -0.966237187385559082
-2.44978523254394531 2.11206293106079102 -1.03870844841003418
0.742462098598480225 4.54998064041137695 -0.443445026874542236
-1.5504000186920166 2.61781954765319824 -1.02744543552398682
-3.15318679809570312 1.84866487979888916 -1.28303289413452148
0.595422089099884033 3.79317378997802734 -0.624292314052581787
-1.20138335227966309 2.39143514633178711 -1.02300441265106201
0.173012897372245789 2.58234691619873047 -1.19777989387512207
1.35000216960906982 4.17282962799072266 -0.589696943759918213
-0.254397392272949219 3.44731712341308594 -0.725051641464233398
0.66222679615020752 2.1934819221496582 -1.12363910675048828
0.798581302165985107 4.97771406173706055 -0.373475432395935059
-0.976137995719909668 3.27485179901123047 -0.885127425193786621
1.11390781402587891 2.6398162841796875 -1.10560047626495361
-0.304439365863800049 3.87147045135498047 -1.0952070951461792
0.810832738876342773 4.04720067977905273 -1.16753196716308594
-1.36723172664642334 2.10289335250854492 -1.21411895751953125
-0.0210700631141662598 1.80686044692993164 -0.638376474380493164
1.27476251125335693 3.85308694839477539 -0.956313669681549072
-0.764516174793243408 3.72634530067443848 -0.361288368701934814
0.611670911312103271 3.97148680686950684 -0.600933492183685303
0.706909537315368652 2.14415788650512695 -1.10162556171417236
-0.678145647048950195 0.831810951232910156 -0.831834554672241211
1.67751777172088623 3.06050634384155273 -0.425278276205062866
-1.92953753471374512 4.19348526000976562 -0.988048374652862549
0.407444268465042114 3.28154444694519043 -1.14100515842437744
1.14842772483825684 2.09598302841186523 -1.04750871658325195
-0.0708099007606506348 1.94312596321105957 -1.16445779800415039
-0.428082942962646484 3.00198602676391602 -0.917927026748657227
0.176329821348190308 3.66699743270874023 -0.707469344139099121
-1.19863986968994141 4.53700685501098633 -0.932900667190551758
0.0607324689626693726 2.7604210376739502 -1.16557788848876953
1.0417168140411377 2.79275107383728027 -1.08026039600372314
-0.519989073276519775 2.37921571731567383 -1.16201841831207275
-0.959545791149139404 3.25215578079223633 -0.656913399696350098
-0.110326170921325684 3.96193504333496094 -0.865790188312530518
-1.39367270469665527 4.43968296051025391 -0.959267318248748779
-1.66939020156860352 1.40860462188720703 -1.21204471588134766
0.23566281795501709 1.35916101932525635 -1.10020959377288818
0.302867531776428223 4.62685632705688477 -0.908188045024871826
1.46507942676544189 4.08183145523071289 -0.779488682746887207
-2.64774322509765625 1.0368950366973877 -1.32715034484863281
-0.267326384782791138 2.61002516746520996 -1.15179598331451416
2.16783809661865234 1.99255549907684326 -0.834802627563476562
0.88517075777053833 3.17416834831237793 -1.13128316402435303
0.164349943399429321 1.44339919090270996 -1.16154718399047852
-1.08019435405731201 2.4556586742401123 -1.11265647411346436
0.247955828905105591 2.86114954948425293 -1.16751480102539062
-1.06338405609130859 3.90114998817443848 -0.972811520099639893
0.0929390788078308105 1.55181765556335449 -1.02379131317138672
-0.23388296365737915 3.96622729301452637 -0.978974461555480957
-1.84948420524597168 3.35864686965942383 -0.798970341682434082
0.109164774417877197 4.57599687576293945 -0.850426614284515381
0.36409991979598999 3.82490277290344238 -0.485068291425704956
0.865938305854797363 4.50200700759887695 -0.555719256401062012
-3.54882049560546875 -1.53143525123596191 -1.36271369457244873
0.734259366989135742 3.63948225975036621 -0.328324496746063232
-1.84896504878997803 1.61374545097351074 -1.03127729892730713
0.665183603763580322 4.11637020111083984 -0.769878804683685303
-1.23509883880615234 4.01647758483886719 -0.975047826766967773
-1.06050670146942139 2.40600776672363281 -1.10150623321533203
1.08093595504760742 3.64884853363037109 -0.509930074214935303
0.622943282127380371 4.83578109741210938 -0.75689995288848877
-2.26351308822631836 1.7938079833984375 -0.913049817085266113
0.381166994571685791 1.93857932090759277 -1.13581502437591553
-1.53410196304321289 2.98926091194152832 -0.876656651496887207
1.06834650039672852 4.26080131530761719 -0.777760922908782959
0.427276581525802612 4.62388896942138672 -0.50606304407119751
-2.22521686553955078 2.8296663761138916 -1.08013391494750977
0.739039003849029541 3.46085333824157715 -0.420531034469604492
0.804528951644897461 3.44310474395751953 -0.66511303186416626
0.508308529853820801 3.21156954765319824 -1.09437215328216553
-0.270567923784255981 4.44420003890991211 -0.95274662971496582
-0.959147453308105469 2.00429201126098633 -1.00517380237579346
1.30841481685638428 3.86166214942932129 -0.555697619915008545
0.773068070411682129 3.45815587043762207 -1.11717724800109863
0.733616471290588379 2.1992180347442627 -1.1357877254486084
-1.2193988561630249 4.67939472198486328 -0.958628475666046143
0.105737298727035522 4.364044189453125 -0.44994044303894043
-2.03403711318969727 0.694359302520751953 -1.3024827241897583
-1.7032935619354248 3.22483253479003906 -1.04490125179290771
-1.12464284896850586 2.16850137710571289 -0.893324613571166992
1.12514030933380127 2.64435553550720215 -1.08322441577911377
-0.255540966987609863 2.32713961601257324 -1.16807377338409424
0.459378063678741455 4.91507577896118164 -0.517276883125305176
0.0980923920869827271 2.63973045349121094 -1.15694379806518555
-0.851322591304779053 2.21518993377685547 -1.16497886180877686
6.98566436767578125e-05 4.22062587738037109 -0.978762924671173096
-1.7072145938873291 3.8020317554473877 -1.06876683235168457
1.25916528701782227 3.10667991638183594 -0.494478195905685425
1.21286332607269287 3.9059908390045166 -0.726393222808837891
-1.13272619247436523 4.13546466827392578 -1.08565568923950195
1.56007325649261475 3.52120137214660645 -0.445371478796005249
-0.245086401700973511 2.09614920616149902 -1.18217778205871582
