ply
format ascii 1.0
element vertex 256
comment vertices
property float x
property float y
property float z
end_header
0.395006000995635986 1.91860055923461914 -1.69288277626037598
3.8936305046081543 6.3765254020690918 -0.677153110504150391
0.507864832878112793 4.79650115966796875 -0.0564294233918190002
2.65218305587768555 4.23220682144165039 -1.12858855724334717
-1.46716511249542236 2.37003588676452637 -0.395006000995635986
0.790012001991271973 6.54581356048583984 -1.29787683486938477
2.20074772834777832 5.92508983612060547 -0.112858846783638
-0.112858846783638 3.44219493865966797 -0.902870833873748779
2.03145933151245117 2.37003588676452637 -1.69288277626037598
-0.564294278621673584 1.18501794338226318 -0.790012001991271973
1.18501794338226318 3.16004800796508789 -0.846441388130187988
0.733582556247711182 6.48938417434692383 3.72529029846191406e-09
3.21647739410400391 5.30436611175537109 -0.733582556247711182
1.35430622100830078 4.40149545669555664 -0.95930027961730957
-1.41073572635650635 1.97502994537353516 -1.58002400398254395
-0.395006000995635986 2.31360650062561035 -0.95930027961730957
2.08788871765136719 5.36079549789428711 -1.0721590518951416
1.41073572635650635 1.46716511249542236 -1.69288277626037598
1.91860055923461914 3.61148333549499512 -1.58002400398254395
1.07215917110443115 2.65218305587768555 -1.69288277626037598
0.564294278621673584 2.37003588676452637 -0.790012001991271973
2.59575366973876953 5.07864856719970703 0.112858861684799194
1.35430622100830078 5.86866044998168945 -0.790012001991271973
-0.733582556247711182 3.04718899726867676 -0.338576555252075195
0.45143541693687439 4.17577743530273438 -0.902870833873748779
-0.282147139310836792 1.24144744873046875 -1.63645339012145996
-0.0564294233918190002 4.11934804916381836 -0.169288277626037598
2.99075961112976074 4.90935993194580078 -1.58002400398254395
0.169288277626037598 1.63645339012145996 -0.902870833873748779
1.35430622100830078 5.98151922225952148 0.0564294308423995972
-1.12858855724334717 1.74931228160858154 -0.846441388130187988
0.677153110504150391 1.24144744873046875 -1.63645339012145996
3.8936305046081543 6.0379486083984375 -1.29787683486938477
2.65218305587768555 4.965789794921875 -0.95930027961730957
-1.01572966575622559 1.41073572635650635 -1.58002400398254395
1.80574166774749756 4.85293054580688477 -0.733582556247711182
-0.0564294233918190002 2.8214714527130127 -0.677153110504150391
1.29787683486938477 3.38576555252075195 -1.58002400398254395
2.20074772834777832 2.99075961112976074 -1.69288277626037598
0.846441388130187988 6.3765254020690918 -0.620723724365234375
0.507864832878112793 3.32933616638183594 -0.902870833873748779
-0.902870833873748779 2.59575366973876953 -0.733582556247711182
3.16004800796508789 4.6272130012512207 -0.846441388130187988
-1.29787683486938477 2.53932428359985352 -1.35430622100830078
-0.846441388130187988 2.08788871765136719 -1.35430622100830078
2.25717711448669434 5.36079549789428711 -0.338576555252075195
-0.169288277626037598 1.91860055923461914 -1.46716511249542236
1.24144744873046875 2.08788871765136719 -1.69288277626037598
0.564294278621673584 4.74007177352905273 -1.01572966575622559
0.564294278621673584 2.4828948974609375 -1.46716511249542236
-0.338576555252075195 3.61148333549499512 -0.169288277626037598
-0.507864832878112793 1.74931228160858154 -0.902870833873748779
1.07215917110443115 2.53932428359985352 -0.902870833873748779
1.69288277626037598 2.8214714527130127 -1.74931228160858154
1.91860055923461914 5.47365427017211914 0.0564294308423995972
3.10361838340759277 5.36079549789428711 -1.24144744873046875
0.338576555252075195 4.40149545669555664 -0.45143541693687439
2.20074772834777832 5.86866044998168945 -0.620723724365234375
1.69288277626037598 5.69937229156494141 -0.45143541693687439
-1.41073572635650635 2.1443183422088623 -1.0721590518951416
0.0564294308423995972 2.08788871765136719 -0.733582556247711182
0.169288277626037598 3.83720111846923828 -0.677153110504150391
0.95930027961730957 1.63645339012145996 -1.63645339012145996
3.10361838340759277 5.41722488403320312 -0.282147139310836792
1.18501794338226318 6.20723676681518555 -0.338576555252075195
0.169288277626037598 1.52359449863433838 -1.58002400398254395
2.65218305587768555 5.13507795333862305 -0.45143541693687439
-0.395006000995635986 3.27290678024291992 -0.564294278621673584
0.620723724365234375 4.79650115966796875 -0.507864832878112793
1.01572966575622559 4.74007177352905273 -0.902870833873748779
1.12858855724334717 6.20723676681518555 -1.01572966575622559
-0.507864832878112793 1.12858855724334717 -1.24144744873046875
0.338576555252075195 2.76504182815551758 -0.902870833873748779
-0.45143541693687439 2.87790083885192871 -0.902870833873748779
1.69288277626037598 2.03145933151245117 -1.63645339012145996
-0.620723724365234375 0.95930027961730957 -1.63645339012145996
1.74931228160858154 4.23220682144165039 -0.902870833873748779
2.31360650062561035 3.44219493865966797 -1.52359449863433838
0.507864832878112793 1.97502994537353516 -0.95930027961730957
-0.225717708468437195 1.52359449863433838 -1.12858855724334717
2.31360650062561035 5.07864856719970703 -1.29787683486938477
0.620723724365234375 3.72434210777282715 -0.790012001991271973
-0.507864832878112793 1.58002400398254395 -1.52359449863433838
0.790012001991271973 2.03145933151245117 -1.63645339012145996
2.31360650062561035 5.13507795333862305 -0.790012001991271973
0.846441388130187988 2.87790083885192871 -0.846441388130187988
2.59575366973876953 5.02221918106079102 -1.58002400398254395
-0.790012001991271973 2.37003588676452637 -1.0721590518951416
-0.846441388130187988 1.46716511249542236 -0.733582556247711182
2.31360650062561035 5.36079549789428711 0.169288277626037598
-0.790012001991271973 1.41073572635650635 -1.24144744873046875
0.282147139310836792 3.61148333549499512 -1.0721590518951416
0.225717708468437195 4.51435422897338867 -0.0564294233918190002
3.10361838340759277 4.57078361511230469 -1.41073572635650635
1.74931228160858154 3.27290678024291992 -1.63645339012145996
1.35430622100830078 2.99075961112976074 -1.69288277626037598
0.169288277626037598 2.08788871765136719 -1.41073572635650635
1.63645339012145996 5.81223106384277344 0.225717708468437195
-1.18501794338226318 2.37003588676452637 -0.790012001991271973
0.112858861684799194 3.04718899726867676 -0.95930027961730957
2.4828948974609375 5.92508983612060547 -0.395006000995635986
1.58002400398254395 4.68364238739013672 -1.01572966575622559
1.12858855724334717 6.26366662979125977 0.0564294308423995972
-1.18501794338226318 2.20074772834777832 -1.41073572635650635
-0.169288277626037598 1.80574166774749756 -0.790012001991271973
-1.01572966575622559 1.74931228160858154 -1.46716511249542236
1.41073572635650635 2.53932428359985352 -1.69288277626037598
1.74931228160858154 1.69288277626037598 -1.69288277626037598
0.112858861684799194 2.42646527290344238 -0.790012001991271973
0.0564294308423995972 1.18501794338226318 -1.58002400398254395
1.97502994537353516 3.95005989074707031 -1.63645339012145996
1.01572966575622559 1.29787683486938477 -1.69288277626037598
-0.620723724365234375 2.08788871765136719 -0.846441388130187988
0.790012001991271973 2.37003588676452637 -1.69288277626037598
1.24144744873046875 4.6272130012512207 -0.677153110504150391
1.35430622100830078 5.86866044998168945 -0.45143541693687439
-0.169288277626037598 1.58002400398254395 -1.46716511249542236
1.74931228160858154 5.53008365631103516 -0.733582556247711182
1.35430622100830078 3.10361838340759277 -1.12858855724334717
-0.677153110504150391 2.37003588676452637 -1.41073572635650635
-0.564294278621673584 3.32933616638183594 -0.282147139310836792
1.41073572635650635 1.80574166774749756 -1.63645339012145996
2.1443183422088623 5.41722488403320312 -0.733582556247711182
1.58002400398254395 3.5550539493560791 -1.58002400398254395
-0.169288277626037598 3.78077173233032227 -0.395006000995635986
1.07215917110443115 2.93433022499084473 -1.52359449863433838
1.69288277626037598 2.37003588676452637 -1.69288277626037598
-0.564294278621673584 2.08788871765136719 -1.18501794338226318
2.03145933151245117 5.69937229156494141 -0.282147139310836792
1.52359449863433838 4.45792484283447266 -0.677153110504150391
-0.282147139310836792 1.29787683486938477 -0.902870833873748779
0.225717708468437195 4.11934804916381836 -0.507864832878112793
0.902870833873748779 6.32009601593017578 -0.282147139310836792
0.790012001991271973 2.4828948974609375 -1.01572966575622559
-1.01572966575622559 2.65218305587768555 -0.45143541693687439
-0.733582556247711182 1.29787683486938477 -1.63645339012145996
-0.338576555252075195 2.93433022499084473 -0.620723724365234375
0.790012001991271973 6.48938417434692383 -0.902870833873748779
0.282147139310836792 4.40149545669555664 -0.790012001991271973
-1.01572966575622559 1.74931228160858154 -1.12858855724334717
1.18501794338226318 2.87790083885192871 -0.95930027961730957
0.733582556247711182 4.06291866302490234 -0.902870833873748779
3.72529029846191406e-09 3.21647739410400391 -0.733582556247711182
-0.677153110504150391 2.37003588676452637 -0.790012001991271973
0.395006000995635986 1.18501794338226318 -1.58002400398254395
0.0564294308423995972 1.46716511249542236 -1.18501794338226318
1.52359449863433838 5.81223106384277344 -0.112858846783638
1.07215917110443115 6.20723676681518555 -0.677153110504150391
1.91860055923461914 2.65218305587768555 -1.69288277626037598
2.65218305587768555 4.90935993194580078 -1.24144744873046875
0.564294278621673584 2.65218305587768555 -0.733582556247711182
2.20074772834777832 2.70861244201660156 -1.63645339012145996
3.16004800796508789 5.19150733947753906 -1.01572966575622559
0.677153110504150391 1.58002400398254395 -1.63645339012145996
1.91860055923461914 3.04718899726867676 -1.69288277626037598
2.08788871765136719 3.27290678024291992 -1.58002400398254395
1.18501794338226318 2.37003588676452637 -1.69288277626037598
-0.620723724365234375 1.41073572635650635 -1.01572966575622559
-0.620723724365234375 2.87790083885192871 -0.677153110504150391
-0.846441388130187988 2.08788871765136719 -1.0721590518951416
0.902870833873748779 3.16004800796508789 -0.846441388130187988
0.620723724365234375 4.57078361511230469 -0.677153110504150391
0.0564294308423995972 3.72434210777282715 -0.902870833873748779
-0.338576555252075195 2.65218305587768555 -1.01572966575622559
0.282147139310836792 2.20074772834777832 -0.846441388130187988
2.20074772834777832 5.47365427017211914 -0.0564294233918190002
0.169288277626037598 3.44219493865966797 -0.902870833873748779
1.69288277626037598 4.68364238739013672 -0.564294278621673584
0.902870833873748779 6.3765254020690918 -1.12858855724334717
0.677153110504150391 2.20074772834777832 -0.95930027961730957
2.42646527290344238 5.24793672561645508 -0.169288277626037598
0.564294278621673584 2.1443183422088623 -1.69288277626037598
-0.45143541693687439 2.4828948974609375 -0.733582556247711182
3.21647739410400391 5.30436611175537109 -1.46716511249542236
-1.24144744873046875 2.53932428359985352 -0.395006000995635986
0.846441388130187988 2.37003588676452637 -0.790012001991271973
1.29787683486938477 3.21647739410400391 -1.35430622100830078
-0.620723724365234375 1.80574166774749756 -1.12858855724334717
-1.12858855724334717 1.97502994537353516 -1.52359449863433838
-0.0564294233918190002 1.69288277626037598 -1.01572966575622559
2.08788871765136719 5.58651351928710938 -0.507864832878112793
1.91860055923461914 5.92508983612060547 -0.225717708468437195
1.69288277626037598 4.45792484283447266 -1.0721590518951416
-0.677153110504150391 2.59575366973876953 -0.902870833873748779
-1.41073572635650635 2.08788871765136719 -1.35430622100830078
0.0564294308423995972 3.61148333549499512 -0.677153110504150391
1.07215917110443115 1.86217105388641357 -1.63645339012145996
-0.169288277626037598 1.80574166774749756 -1.24144744873046875
2.65218305587768555 5.02221918106079102 -0.225717708468437195
1.24144744873046875 5.98151922225952148 -0.169288277626037598
2.42646527290344238 6.0379486083984375 -0.112858846783638
0.338576555252075195 2.25717711448669434 -1.46716511249542236
0.45143541693687439 4.74007177352905273 -0.338576555252075195
0.338576555252075195 1.91860055923461914 -0.790012001991271973
-0.338576555252075195 1.97502994537353516 -0.846441388130187988
0.733582556247711182 2.65218305587768555 -1.52359449863433838
1.58002400398254395 3.04718899726867676 -1.74931228160858154
3.72529029846191406e-09 1.74931228160858154 -1.46716511249542236
3.95005989074707031 6.32009601593017578 -0.902870833873748779
-1.41073572635650635 2.31360650062561035 -0.620723724365234375
0.169288277626037598 4.17577743530273438 -0.282147139310836792
0.0564294308423995972 1.86217105388641357 -0.846441388130187988
1.41073572635650635 5.92508983612060547 -1.01572966575622559
-0.790012001991271973 1.52359449863433838 -1.58002400398254395
-1.46716511249542236 2.20074772834777832 -0.846441388130187988
0.620723724365234375 1.80574166774749756 -1.69288277626037598
1.18501794338226318 4.57078361511230469 -0.902870833873748779
-0.225717708468437195 3.5550539493560791 -0.733582556247711182
1.52359449863433838 4.23220682144165039 -0.95930027961730957
2.93433022499084473 4.6272130012512207 -0.902870833873748779
-0.112858846783638 3.04718899726867676 -0.620723724365234375
2.37003588676452637 5.07864856719970703 -1.0721590518951416
0.395006000995635986 3.78077173233032227 -0.95930027961730957
-0.282147139310836792 1.74931228160858154 -1.01572966575622559
-1.18501794338226318 1.63645339012145996 -1.58002400398254395
-0.507864832878112793 1.12858855724334717 -1.52359449863433838
3.21647739410400391 5.36079549789428711 -0.507864832878112793
-0.620723724365234375 1.58002400398254395 -0.790012001991271973
-0.225717708468437195 2.87790083885192871 -0.95930027961730957
0.45143541693687439 1.52359449863433838 -1.63645339012145996
-0.338576555252075195 3.5550539493560791 -0.395006000995635986
0.112858861684799194 2.76504182815551758 -0.846441388130187988
-0.225717708468437195 2.42646527290344238 -0.846441388130187988
1.63645339012145996 1.52359449863433838 -1.58002400398254395
-1.24144744873046875 2.25717711448669434 -1.18501794338226318
0.507864832878112793 4.45792484283447266 -0.846441388130187988
0.564294278621673584 4.06291866302490234 -0.733582556247711182
-0.95930027961730957 2.37003588676452637 -0.733582556247711182
1.58002400398254395 4.74007177352905273 -0.790012001991271973
1.63645339012145996 2.59575366973876953 -1.69288277626037598
-1.0721590518951416 2.37003588676452637 -1.29787683486938477
2.76504182815551758 5.02221918106079102 -0.620723724365234375
1.29787683486938477 6.09437799453735352 -0.902870833873748779
0.790012001991271973 6.48938417434692383 -0.395006000995635986
1.24144744873046875 6.0379486083984375 -0.677153110504150391
2.37003588676452637 5.81223106384277344 -0.225717708468437195
3.21647739410400391 5.07864856719970703 -0.677153110504150391
0.507864832878112793 2.1443183422088623 -0.790012001991271973
-0.169288277626037598 2.1443183422088623 -1.46716511249542236
1.35430622100830078 2.76504182815551758 -1.69288277626037598
2.20074772834777832 5.92508983612060547 -0.338576555252075195
-0.0564294233918190002 3.8936305046081543 -0.169288277626037598
2.53932428359985352 5.07864856719970703 -1.29787683486938477
1.58002400398254395 5.64294290542602539 -0.790012001991271973
1.80574166774749756 3.78077173233032227 -1.63645339012145996
1.01572966575622559 2.76504182815551758 -0.902870833873748779
-0.112858846783638 2.70861244201660156 -0.846441388130187988
-0.902870833873748779 2.8214714527130127 -0.395006000995635986
0.95930027961730957 2.1443183422088623 -1.69288277626037598
-0.112858846783638 1.29787683486938477 -1.52359449863433838
0.225717708468437195 1.80574166774749756 -1.63645339012145996
1.01572966575622559 6.32009601593017578 -0.507864832878112793
0.846441388130187988 1.41073572635650635 -1.63645339012145996
-0.395006000995635986 1.46716511249542236 -0.95930027961730957
-0.45143541693687439 1.12858855724334717 -0.95930027961730957
-0.282147139310836792 1.41073572635650635 -1.41073572635650635
