ply
format ascii 1.0
element vertex 256
comment vertices
property float x
property float y
property float z
end_header
-2.10334253311157227 1.84953963756561279 -1.04308414459228516
4.04875659942626953 5.06263494491577148 -1.25314843654632568
-1.06866216659545898 5.46071577072143555 -1.26079463958740234
0.69989931583404541 1.97654056549072266 -1.03020620346069336
2.74720215797424316 4.20876979827880859 -0.983496785163879395
-2.17106509208679199 1.19668066501617432 -1.00582027435302734
1.54159021377563477 3.23756527900695801 -0.96458888053894043
2.90166354179382324 2.43948554992675781 -0.989067733287811279
-1.34410011768341064 0.357528030872344971 -1.04778850078582764
1.29011261463165283 4.49672985076904297 -0.886192798614501953
0.842020392417907715 3.05371260643005371 -1.08499860763549805
4.08677005767822266 1.90690946578979492 -1.17806828022003174
-0.454338371753692627 3.0073997974395752 -0.952408015727996826
2.37558937072753906 0.989951014518737793 -1.29267323017120361
3.23679327964782715 5.46904945373535156 -0.942024946212768555
-2.52124214172363281 2.58600640296936035 -1.09541177749633789
1.03165650367736816 4.96809864044189453 -1.44978940486907959
0.907177150249481201 4.97128582000732422 -0.995207607746124268
1.98676490783691406 5.24164819717407227 -0.87533104419708252
-0.289225012063980103 1.87311220169067383 -1.01805746555328369
1.13469839096069336 5.74753808975219727 -0.776312351226806641
0.0398555733263492584 3.71968483924865723 -1.05716204643249512
0.0865650177001953125 2.7921135425567627 -1.02737462520599365
3.79773330688476562 3.05583095550537109 -1.12321352958679199
2.18040132522583008 3.14519977569580078 -1.07420027256011963
-0.386496394872665405 1.44679379463195801 -1.0123751163482666
0.940885543823242188 3.84755754470825195 -0.992576181888580322
-0.699752986431121826 0.791617751121520996 -1.01463985443115234
0.260140597820281982 2.44388294219970703 -1.11045348644256592
-0.910498738288879395 2.46677279472351074 -0.967183709144592285
0.685091972351074219 0.123160123825073242 -1.02685642242431641
-0.848155200481414795 1.71509647369384766 -0.884704709053039551
3.15165185928344727 4.65247726440429688 -0.961321532726287842
1.95553815364837646 4.31891441345214844 -1.03329861164093018
-0.387684226036071777 3.67041587829589844 -1.09772253036499023
0.340326666831970215 1.79946422576904297 -1.02988302707672119
-0.558405399322509766 1.37819600105285645 -0.978504061698913574
4.8230586051940918 3.84006929397583008 -1.00083279609680176
4.02573347091674805 3.92151165008544922 -0.98325502872467041
1.71274924278259277 2.64139938354492188 -1.03515160083770752
3.86449027061462402 5.78057336807250977 -0.89001929759979248
1.82224166393280029 1.78055310249328613 -1.02752685546875
-1.02413356304168701 1.85921943187713623 -1.00122749805450439
2.0599207878112793 5.02087926864624023 -0.29610145092010498
0.39318576455116272 4.05092859268188477 -0.884936213493347168
1.69876956939697266 4.03929519653320312 -1.53177511692047119
0.0695289596915245056 1.52990543842315674 -1.05365085601806641
-0.181124657392501831 2.06940245628356934 -1.10337615013122559
0.12613368034362793 1.82054519653320312 -1.08177804946899414
-0.54551321268081665 4.49585723876953125 -1.27920806407928467
1.38309228420257568 5.36691617965698242 -0.565143287181854248
-1.68099474906921387 3.61731338500976562 -1.00871419906616211
3.22264742851257324 4.20849609375 -1.0535588264465332
-1.48253130912780762 2.18682384490966797 -1.00743484497070312
2.20684432983398438 4.62540197372436523 -0.926294863224029541
-0.460687875747680664 3.69549965858459473 -1.05471897125244141
1.96125578880310059 5.62732601165771484 -1.26411402225494385
0.697798609733581543 2.68783974647521973 -1.0251460075378418
3.05594038963317871 4.54279899597167969 -0.984958529472351074
3.03925991058349609 5.23465299606323242 -0.993561387062072754
0.212868869304656982 2.11470866203308105 -1.05960702896118164
-0.538715779781341553 1.4022529125213623 -1.073433518409729
-0.156502991914749146 3.56737685203552246 -0.815996468067169189
-0.159665390849113464 3.43983221054077148 -0.953766763210296631
0.0824375152587890625 2.95105957984924316 -1.05696511268615723
3.61721134185791016 4.32358455657958984 -1.11666250228881836
0.383160531520843506 2.91927099227905273 -1.09652340412139893
2.63015413284301758 4.64700174331665039 -1.01997876167297363
2.59318351745605469 5.02982807159423828 -0.498344779014587402
2.14583539962768555 1.7552335262298584 -0.947665393352508545
-0.753836870193481445 0.449826478958129883 -1.04522359371185303
-0.550581097602844238 2.67656421661376953 -1.01779305934906006
-0.576414108276367188 1.53746926784515381 -1.05587959289550781
1.57166051864624023 3.93051385879516602 -0.930870771408081055
-0.971464812755584717 2.41113543510437012 -0.773422658443450928
-0.520408928394317627 2.9798734188079834 -0.683868765830993652
0.214589178562164307 5.56309986114501953 -1.05823016166687012
3.63561010360717773 4.88210773468017578 -0.808794021606445312
-1.05562925338745117 1.40533208847045898 -1.02447104454040527
-0.545213580131530762 3.45627474784851074 -1.05949306488037109
-0.54629671573638916 1.32664859294891357 -0.98693382740020752
-1.15636014938354492 2.60984063148498535 -1.50406098365783691
-1.08280420303344727 2.35421323776245117 -0.955862343311309814
1.82468044757843018 3.99326419830322266 -0.801828265190124512
1.81244993209838867 0.705973982810974121 -1.1863548755645752
0.397382080554962158 1.43972229957580566 -1.08322358131408691
1.06841349601745605 3.03747892379760742 -1.0523606538772583
-0.927474617958068848 2.47166228294372559 -0.925792276859283447
0.373951613903045654 4.00058126449584961 -0.912941992282867432
0.810167133808135986 5.20266628265380859 -0.663694143295288086
-1.06772172451019287 1.34926533699035645 -1.03332269191741943
3.34779453277587891 4.8141627311706543 -1.01421642303466797
1.84416651725769043 3.48860406875610352 -0.64500272274017334
0.253407478332519531 4.02816104888916016 -0.863403379917144775
2.24292993545532227 5.02709293365478516 -0.925414979457855225
1.70001208782196045 4.48775672912597656 -0.900627613067626953
-1.77917730808258057 2.21415901184082031 -1.07190918922424316
-1.36558663845062256 4.18744564056396484 -1.09201264381408691
-0.103791400790214539 1.6758495569229126 -1.07366347312927246
-1.30136048793792725 2.37008142471313477 -1.06333804130554199
0.349418878555297852 2.81753182411193848 -0.923870444297790527
-0.785859167575836182 0.436789333820343018 -1.02497529983520508
-0.843130528926849365 2.36947274208068848 -1.01486754417419434
0.44638216495513916 3.34282732009887695 -0.946313858032226562
0.432936757802963257 2.40035390853881836 -1.04003798961639404
1.3097221851348877 1.50782299041748047 -1.06722772121429443
2.7500145435333252 1.56641483306884766 -1.1443629264831543
2.94988393783569336 2.08281064033508301 -1.00303864479064941
-0.0767123103141784668 1.90910458564758301 -1.09612596035003662
-0.265034675598144531 3.26287961006164551 -0.753602743148803711
3.30425405502319336 5.25799798965454102 -0.792294204235076904
1.55752301216125488 5.53286218643188477 -0.845236420631408691
-0.496417701244354248 5.34178924560546875 -1.14444243907928467
3.65191459655761719 3.35474467277526855 -1.0368579626083374
2.01311516761779785 2.49187159538269043 -1.0474628210067749
2.65940999984741211 4.03000354766845703 -0.656963050365447998
-1.54411590099334717 2.21182847023010254 -0.811231374740600586
0.220263257622718811 2.91789698600769043 -0.935024023056030273
1.86161041259765625 5.43134117126464844 -0.527324140071868896
-0.257943511009216309 2.44612717628479004 -1.09727489948272705
-0.8554840087890625 2.45843958854675293 -1.03896701335906982
-1.45177161693572998 3.34965705871582031 -1.10634660720825195
1.02636992931365967 5.16098880767822266 -0.942128896713256836
1.57719898223876953 4.25213146209716797 -0.589148998260498047
4.37326526641845703 3.11582756042480469 -0.992203295230865479
-1.35739624500274658 1.5635371208190918 -1.0617135763168335
-0.829450070858001709 1.92505466938018799 -1.02537298202514648
1.8692626953125 5.90374755859375 -0.986859917640686035
-1.12243866920471191 2.31979036331176758 -0.948523223400115967
0.443148970603942871 2.59973049163818359 -1.01668107509613037
-0.18600928783416748 1.3883204460144043 -1.0119558572769165
1.85569918155670166 2.52959060668945312 -1.04182004928588867
-3.20049953460693359 2.94135761260986328 -1.0122988224029541
0.733049333095550537 3.10879373550415039 -1.11220324039459229
-1.77313685417175293 2.00696158409118652 -1.06730890274047852
-0.189078986644744873 1.72556781768798828 -1.03609347343444824
-1.54906511306762695 3.23790311813354492 -1.05167067050933838
-0.538722813129425049 2.87544441223144531 -0.983240485191345215
0.515509665012359619 2.67856788635253906 -1.06150162220001221
0.051526825875043869 1.9576423168182373 -1.11737513542175293
2.998291015625 5.018829345703125 -0.871368825435638428
-0.154937341809272766 1.50458431243896484 -1.04953742027282715
1.7884528636932373 5.32270336151123047 -1.52471053600311279
0.530305266380310059 1.99419379234313965 -1.10485398769378662
0.688514828681945801 4.32624292373657227 -0.870531320571899414
0.841010689735412598 4.65580558776855469 -0.873698294162750244
3.87594270706176758 2.64278817176818848 -0.961254417896270752
0.90946882963180542 5.83477544784545898 -1.14198541641235352
0.70022284984588623 2.83189487457275391 -1.07247364521026611
0.150171875953674316 2.14088058471679688 -1.09178757667541504
3.93192362785339355 2.50511336326599121 -1.13417887687683105
0.419217318296432495 4.26865339279174805 -0.781167685985565186
-1.06042051315307617 2.41049933433532715 -0.540840208530426025
0.393160462379455566 4.09075689315795898 -1.04835772514343262
0.126082688570022583 1.25290513038635254 -1.07928967475891113
0.104105293750762939 1.02480411529541016 -1.09412097930908203
-0.933275163173675537 2.40359210968017578 -0.978896617889404297
-0.571893811225891113 1.37789428234100342 -1.01724898815155029
1.49184083938598633 3.66165995597839355 -1.03077816963195801
-0.041401982307434082 3.43338394165039062 -1.08828139305114746
0.221511036157608032 4.04104328155517578 -0.6549111008644104
-1.2048637866973877 1.28351318836212158 -1.04366707801818848
2.5115509033203125 1.27996909618377686 -1.1237034797668457
1.86875259876251221 4.96811866760253906 -0.234569013118743896
-0.339849233627319336 3.18585085868835449 -0.876970052719116211
3.0932471752166748 4.51282644271850586 -1.07309377193450928
-0.54662930965423584 2.90536379814147949 -0.88740837574005127
1.38201284408569336 5.69704580307006836 -0.511512339115142822
2.26714634895324707 5.60916614532470703 -0.969702661037445068
0.954749226570129395 2.98325395584106445 -1.03125166893005371
-0.580167651176452637 1.34997129440307617 -0.970216095447540283
1.77314293384552002 5.40171003341674805 -0.796784043312072754
-0.0675449371337890625 2.65349578857421875 -1.07583487033843994
2.91252517700195312 4.37140703201293945 -1.01058459281921387
0.416695386171340942 0.0956380367279052734 -1.10059201717376709
2.84977388381958008 4.81348848342895508 -0.972249448299407959
0.366391092538833618 2.53817367553710938 -0.895951747894287109
0.8426017165184021 3.58466196060180664 -1.09108400344848633
-0.938375711441040039 2.46480846405029297 -0.985867619514465332
3.07496809959411621 1.65645360946655273 -0.919862627983093262
-2.19725656509399414 1.431144118309021 -1.01985812187194824
-0.689888834953308105 1.6360621452331543 -1.04027295112609863
-0.543720245361328125 1.3864058256149292 -0.988555669784545898
3.42698764801025391 4.98764181137084961 -0.987502872943878174
-0.698733806610107422 0.786678850650787354 -1.02256286144256592
1.12358748912811279 4.93544387817382812 -0.589693546295166016
-0.885767161846160889 2.4588165283203125 -0.96055448055267334
2.44904184341430664 5.42174243927001953 -0.801082968711853027
0.377562373876571655 4.04713153839111328 -0.921464204788208008
1.22288227081298828 4.42861366271972656 -0.912931919097900391
0.168375670909881592 2.52799701690673828 -1.01655197143554688
-0.379756420850753784 3.16953325271606445 -0.966830015182495117
2.89596414566040039 1.81256937980651855 -1.06618905067443848
-0.454327166080474854 3.12339949607849121 -0.676878929138183594
0.381116628646850586 2.52456402778625488 -1.08258175849914551
0.300760030746459961 2.23573756217956543 -1.06730031967163086
1.94695425033569336 5.28612041473388672 -0.343071579933166504
3.07884764671325684 4.99807453155517578 -0.506384193897247314
4.44447135925292969 6.15635156631469727 -1.14835715293884277
-0.457239091396331787 2.26563549041748047 -1.0852806568145752
-0.440569877624511719 3.42216897010803223 -1.37848019599914551
-0.826975107192993164 1.07513737678527832 -1.0314030647277832
2.61930513381958008 5.169769287109375 -0.757789969444274902
1.32152795791625977 0.249956846237182617 -1.19399344921112061
0.545444011688232422 5.33229732513427734 -1.0974276065826416
-0.0415052846074104309 3.74551224708557129 -0.906730294227600098
-1.48680543899536133 0.265288293361663818 -1.02111852169036865
1.3285210132598877 3.56617164611816406 -0.962783753871917725
-0.679102182388305664 2.66969442367553711 -0.72535860538482666
2.17360854148864746 5.18939971923828125 -0.690569579601287842
2.76532769203186035 5.04038619995117188 -0.591595828533172607
1.10111403465270996 1.61651444435119629 -1.11692464351654053
3.30450177192687988 5.41476249694824219 -0.741777181625366211
1.7669062614440918 3.77897453308105469 -1.34092247486114502
0.339718639850616455 2.66163158416748047 -1.0945432186126709
0.660580873489379883 3.05996274948120117 -1.07165074348449707
-0.111173540353775024 3.50786995887756348 -0.952138960361480713
-0.204354166984558105 2.90069389343261719 -1.01017999649047852
0.843841969966888428 1.82741189002990723 -1.07823312282562256
-0.598006606101989746 1.16655802726745605 -1.00560891628265381
0.221357017755508423 3.16222143173217773 -0.891594886779785156
2.17400097846984863 5.15178871154785156 -0.391854852437973022
3.23544979095458984 2.4406890869140625 -0.992823421955108643
2.22271203994750977 1.61984443664550781 -1.09772729873657227
-0.322924435138702393 1.24618673324584961 -1.03850042819976807
-1.23591947555541992 2.35683345794677734 -0.774948000907897949
-0.432294070720672607 1.86712527275085449 -1.08344411849975586
4.98102188110351562 3.97987794876098633 -0.971247553825378418
2.26729011535644531 3.29089522361755371 -0.733176827430725098
-1.98958110809326172 1.28492939472198486 -1.04401159286499023
-0.66630476713180542 1.16100692749023438 -1.0453948974609375
-0.896113157272338867 2.54692316055297852 -0.70580822229385376
1.86506128311157227 5.61656093597412109 -0.93795013427734375
-0.127869844436645508 5.69951391220092773 -1.05342841148376465
-0.518248260021209717 1.5372389554977417 -1.04201459884643555
0.816217184066772461 2.1381535530090332 -1.0307542085647583
1.66424846649169922 5.07376194000244141 -0.877963781356811523
-0.869301319122314453 1.58451712131500244 -1.07067668437957764
0.324385643005371094 3.56968879699707031 -1.05421721935272217
0.379342228174209595 4.05351924896240234 -0.90127408504486084
2.84056425094604492 3.57359147071838379 -1.02529942989349365
2.21201491355895996 4.40983438491821289 -1.019431471824646
2.2663123607635498 0.650170803070068359 -1.17427730560302734
-1.19810116291046143 2.01565122604370117 -0.728987991809844971
0.283002495765686035 1.88629329204559326 -1.07382059097290039
-0.120182029902935028 3.45238018035888672 -0.988347232341766357
1.23271811008453369 2.06164312362670898 -1.04576563835144043
2.01543855667114258 5.30643129348754883 -0.610835731029510498
3.61005997657775879 5.39665794372558594 -0.895794689655303955
0.283701777458190918 5.4645085334777832 -1.12781357765197754
0.458511114120483398 5.74864530563354492 -1.03207230567932129
1.7255551815032959 4.91787910461425781 -0.553501367568969727
3.75847268104553223 4.672821044921875 -0.912451624870300293
0.0921618938446044922 3.63335704803466797 -1.06233727931976318
2.69106197357177734 4.48889493942260742 -0.864591598510742188
-0.588334381580352783 1.70120322704315186 -1.07871365547180176
