ply
format ascii 1.0
element vertex 256
comment vertices
property float x
property float y
property float z
end_header
1.0888516902923584 1.95908713340759277 -1.92849433422088623
3.99008560180664062 6.40516853332519531 -0.807375609874725342
1.03720247745513916 4.92827606201171875 -0.540126681327819824
-0.984190523624420166 2.57061100006103516 -0.791452348232269287
2.66436433792114258 3.9073331356048584 -1.93393898010253906
1.44281280040740967 6.79037666320800781 -1.54045891761779785
2.35392022132873535 5.99524068832397461 -0.291893929243087769
0.278174221515655518 3.6021885871887207 -1.33812451362609863
3.82342815399169922 4.74390411376953125 -1.22581231594085693
0.0636340975761413574 1.16540884971618652 -0.969422519207000732
1.71437132358551025 2.97570419311523438 -1.14057517051696777
2.4439389705657959 2.16185808181762695 -1.93339765071868896
-0.658032715320587158 1.92781054973602295 -1.94401562213897705
2.29485726356506348 4.92780876159667969 -1.22447419166564941
0.179234325885772705 2.39637613296508789 -1.19225859642028809
3.21551513671875 5.25144147872924805 -0.434542596340179443
1.44255208969116211 6.7576136589050293 -0.475233137607574463
0.919607877731323242 4.43974113464355469 -1.39065456390380859
2.93134546279907227 6.03601503372192383 -1.07590258121490479
0.441506266593933105 1.1428837776184082 -1.93171584606170654
0.40079459547996521 4.21862077713012695 -0.521767377853393555
1.82257437705993652 1.35666465759277344 -1.98098850250244141
2.21868300437927246 3.06281256675720215 -1.99784529209136963
-0.262750566005706787 3.16408681869506836 -0.735391139984130859
3.08770442008972168 5.31918525695800781 -1.54810583591461182
1.91274726390838623 6.22570705413818359 -1.13257312774658203
-0.739099323749542236 2.80868768692016602 -1.61175203323364258
4.34981346130371094 6.06514406204223633 -1.52194297313690186
3.81695818901062012 5.63987541198730469 -0.911856114864349365
1.50119507312774658 2.67391371726989746 -1.97585248947143555
0.448019862174987793 2.32998061180114746 -1.91927754878997803
1.47899603843688965 3.63863492012023926 -1.14616358280181885
0.645838677883148193 2.90567493438720703 -1.15793430805206299
1.53431367874145508 4.81648921966552734 -1.1529768705368042
-0.265923112630844116 1.28295516967773438 -1.89950406551361084
0.39364159107208252 1.73418056964874268 -1.43043303489685059
-0.409048587083816528 1.96330738067626953 -1.10154461860656738
-0.26316949725151062 3.25472426414489746 -1.45423221588134766
1.46648776531219482 2.27676844596862793 -1.35621726512908936
1.08365726470947266 1.28570866584777832 -1.92454242706298828
3.75269222259521484 5.48451328277587891 -1.56598746776580811
2.84682488441467285 2.98666477203369141 -1.92787790298461914
2.73496651649475098 5.67753076553344727 -0.595290720462799072
3.41944193840026855 4.35598897933959961 -1.52673602104187012
1.80044436454772949 1.98959004878997803 -1.93462848663330078
0.0846719741821289062 3.61851692199707031 -0.595743715763092041
0.485721945762634277 4.10911226272583008 -1.09440422058105469
-0.314759254455566406 2.26857852935791016 -1.60785102844238281
2.00639438629150391 4.37564277648925781 -1.26171875
3.31237936019897461 5.2057647705078125 -1.02300488948822021
1.22780525684356689 3.07257962226867676 -1.04572463035583496
1.86664319038391113 6.35583925247192383 -0.398147046566009521
0.141343623399734497 1.69263327121734619 -1.95499026775360107
0.96814960241317749 1.76047348976135254 -1.44044363498687744
3.52170944213867188 5.02773952484130859 -1.81463170051574707
2.36905455589294434 5.93725299835205078 -0.9623260498046875
-0.56554567813873291 2.64207577705383301 -1.1770470142364502
0.761693179607391357 4.51757431030273438 -0.799461722373962402
3.07412552833557129 6.10394716262817383 -0.613368690013885498
2.08271241188049316 2.59406113624572754 -1.95835232734680176
1.44368422031402588 6.71031379699707031 -1.0090634822845459
1.08878600597381592 4.91907405853271484 -1.09562671184539795
2.23791623115539551 1.67296063899993896 -1.94295132160186768
1.83088850975036621 6.45251798629760742 -1.53469705581665039
2.15553998947143555 3.12555122375488281 -1.33172953128814697
0.0956284701824188232 2.95257019996643066 -1.27561068534851074
0.622215628623962402 1.63645660877227783 -1.94089853763580322
2.84321737289428711 5.57344770431518555 -1.12546932697296143
-0.949654936790466309 2.33755159378051758 -1.44347167015075684
2.6349179744720459 4.51378917694091797 -1.27806663513183594
-0.12627759575843811 1.46110713481903076 -1.46366751194000244
2.28168725967407227 3.62257981300354004 -1.98370885848999023
2.52760982513427734 2.65106034278869629 -1.94947326183319092
-0.0125539936125278473 3.39685893058776855 -1.09956455230712891
0.665252089500427246 1.35127782821655273 -1.46755850315093994
-0.783589363098144531 2.37544441223144531 -1.83497929573059082
3.76615548133850098 4.61643695831298828 -1.78728258609771729
0.859723925590515137 3.97168684005737305 -1.2062065601348877
0.042507268488407135 2.01068949699401855 -1.41641485691070557
1.80280017852783203 3.03540444374084473 -1.96071767807006836
1.50346565246582031 1.6733241081237793 -1.96249234676361084
2.13694214820861816 6.14208841323852539 -0.660606801509857178
0.0865694060921669006 1.18671762943267822 -1.74316227436065674
1.46573615074157715 2.21207094192504883 -1.952903151512146
-0.59564518928527832 2.77319073677062988 -0.73808521032333374
-0.28650018572807312 2.93283939361572266 -1.07468295097351074
0.239785522222518921 3.83285903930664062 -0.926277756690979004
2.55380845069885254 3.29769563674926758 -1.96621346473693848
1.68944799900054932 6.50475406646728516 -0.751795709133148193
1.84071838855743408 3.38787961006164551 -1.0374763011932373
1.72824347019195557 2.53812646865844727 -1.39979684352874756
-0.170354336500167847 1.56781184673309326 -1.01556730270385742
1.95794916152954102 4.86577606201171875 -1.00289344787597656
0.394673585891723633 2.02500033378601074 -1.79555988311767578
2.64957308769226074 6.05319595336914062 -0.702362477779388428
0.517384886741638184 3.86331701278686523 -1.39291656017303467
2.9673464298248291 5.57600927352905273 -0.348310768604278564
3.09332942962646484 5.4559173583984375 -0.810260236263275146
-0.281733483076095581 1.62371861934661865 -1.87748384475708008
0.440574437379837036 2.56883883476257324 -1.24593794345855713
1.18285679817199707 2.4148862361907959 -1.92737758159637451
-0.439108788967132568 2.56465005874633789 -1.43755471706390381
1.12469363212585449 4.88544893264770508 -1.40039634704589844
2.08734035491943359 2.19372749328613281 -1.9201512336730957
3.37705087661743164 5.12155914306640625 -1.43716526031494141
0.420698493719100952 2.14507102966308594 -1.1396414041519165
1.74753117561340332 2.47196507453918457 -1.95547688007354736
3.77884364128112793 5.66107606887817383 -0.577990710735321045
2.02406048774719238 4.75380086898803711 -1.31646418571472168
1.61187124252319336 6.52195882797241211 -1.27754175662994385
3.67356777191162109 5.30554962158203125 -0.954220890998840332
3.63853263854980469 5.55111885070800781 -1.21429860591888428
0.493580102920532227 3.31062126159667969 -1.22096920013427734
-0.287346839904785156 2.87263083457946777 -1.37614583969116211
0.672366142272949219 4.39892101287841797 -1.19455337524414062
0.371097326278686523 1.54437601566314697 -1.80368661880493164
-0.882428944110870361 2.47475576400756836 -1.10142922401428223
2.34471392631530762 3.21828699111938477 -1.59229195117950439
0.713989734649658203 2.63911318778991699 -0.996673524379730225
3.07239389419555664 5.41384363174438477 -1.30233490467071533
2.83505654335021973 5.5641326904296875 -1.40066075325012207
2.02041339874267578 3.30149173736572266 -1.9841388463973999
0.970429778099060059 4.76992988586425781 -0.840394735336303711
2.28011417388916016 4.66022253036499023 -1.40360331535339355
-0.0754759758710861206 3.38477587699890137 -0.745332062244415283
1.12384653091430664 1.60499393939971924 -1.95049500465393066
2.12140822410583496 1.40066719055175781 -1.90026533603668213
0.152593508362770081 2.12278532981872559 -0.959693074226379395
0.675372481346130371 2.02801322937011719 -1.93065822124481201
1.51732122898101807 1.34810423851013184 -1.94526994228363037
0.93556368350982666 4.51232099533081055 -1.15234208106994629
1.24718248844146729 2.07094120979309082 -1.42473721504211426
0.53248906135559082 4.25586271286010742 -0.82759779691696167
0.712117135524749756 1.29480648040771484 -1.92684686183929443
3.3801114559173584 5.20729970932006836 -0.725714027881622314
0.319889485836029053 3.9040830135345459 -0.557650148868560791
0.54730832576751709 1.56920421123504639 -1.29293620586395264
2.36544203758239746 5.95694828033447266 -0.603210210800170898
-0.120612457394599915 1.01091420650482178 -1.90767574310302734
0.055541452020406723 1.37867307662963867 -1.88635599613189697
0.185611069202423096 3.3272709846496582 -1.27482104301452637
2.56368875503540039 4.97558689117431641 -1.02412819862365723
1.9329831600189209 6.29570770263671875 -0.784972846508026123
1.89659023284912109 2.80695557594299316 -1.4371180534362793
0.720999717712402344 4.62612104415893555 -0.547101318836212158
3.08425760269165039 5.99666881561279297 -0.865688681602478027
1.84319102764129639 1.71637952327728271 -1.94463014602661133
0.0772452503442764282 3.56127643585205078 -0.930697083473205566
2.84560465812683105 3.34529304504394531 -1.89467453956604004
-0.52762991189956665 2.14653515815734863 -1.91636478900909424
1.63715648651123047 6.53189563751220703 -0.428041696548461914
1.5014958381652832 1.96743214130401611 -1.93727993965148926
1.85197246074676514 2.76424074172973633 -1.96970188617706299
-0.350245445966720581 2.28761053085327148 -1.39750432968139648
4.09911441802978516 6.38591289520263672 -1.04900479316711426
-0.765906572341918945 2.58539199829101562 -1.42089164257049561
-0.0962761938571929932 3.17303586006164551 -1.26830732822418213
0.559479475021362305 4.20301675796508789 -1.43978333473205566
2.58777642250061035 3.01760125160217285 -1.97625529766082764
0.363144516944885254 3.91299676895141602 -1.15794229507446289
2.70877242088317871 3.59275174140930176 -1.945670485496521
2.31612443923950195 2.83501219749450684 -1.9664071798324585
0.0298818908631801605 2.71231961250305176 -1.19611358642578125
2.03307008743286133 6.19738578796386719 -0.419813334941864014
0.657875120639801025 4.37026691436767578 -0.641338825225830078
2.52503752708435059 5.69189977645874023 -0.448740452527999878
2.55005145072937012 5.79711723327636719 -0.928965210914611816
0.916301608085632324 1.75806975364685059 -1.96295332908630371
1.71441972255706787 6.47301197052001953 -1.00880515575408936
1.97045648097991943 3.15112209320068359 -1.15481483936309814
3.1171257495880127 5.53848934173583984 -0.57466202974319458
2.51118803024291992 4.87900829315185547 -1.29973852634429932
0.43818211555480957 1.83315730094909668 -1.94024467468261719
-0.396951109170913696 2.98183321952819824 -0.866666316986083984
1.6564103364944458 3.21232151985168457 -1.16106748580932617
1.35706710815429688 6.71529340744018555 -1.22431325912475586
2.27483797073364258 1.98497188091278076 -1.97160887718200684
1.64348602294921875 6.65364265441894531 -1.589682936668396
1.06592786312103271 4.3644709587097168 -1.22352111339569092
2.76990604400634766 2.74428963661193848 -1.88467299938201904
0.394035845994949341 4.04612016677856445 -0.808398187160491943
1.70428204536437988 4.91141605377197266 -1.00655996799468994
0.212165787816047668 3.63400840759277344 -1.15482723712921143
2.27571439743041992 2.35245537757873535 -1.96401655673980713
1.88517379760742188 6.32183694839477539 -1.36853599548339844
2.02374124526977539 1.92789375782012939 -1.93580770492553711
0.777688443660736084 4.40014362335205078 -1.01776981353759766
1.84565949440002441 2.23009395599365234 -1.9265294075012207
0.217472374439239502 1.09593486785888672 -1.92031407356262207
2.397674560546875 3.82809710502624512 -1.99209010601043701
0.0788944810628890991 3.15239644050598145 -1.40117835998535156
-0.272932946681976318 3.21693754196166992 -1.04815053939819336
-0.547976434230804443 2.7865302562713623 -1.36552858352661133
2.86515307426452637 6.0117793083190918 -0.739747226238250732
2.2037353515625 6.04948759078979492 -1.06435739994049072
-0.557825446128845215 2.77530455589294434 -0.969415664672851562
1.53440594673156738 6.68452262878417969 -0.746463775634765625
-0.839942812919616699 2.39144086837768555 -1.65269911289215088
0.538262248039245605 1.59317219257354736 -1.55534350872039795
1.66421282291412354 2.86041879653930664 -1.970703125
0.233159899711608887 1.78656971454620361 -1.29249536991119385
2.00040674209594727 2.94136929512023926 -1.98816514015197754
1.23645782470703125 2.13483762741088867 -1.93404734134674072
-0.302582085132598877 3.1158897876739502 -1.26847624778747559
2.1887049674987793 4.9868159294128418 -0.990006744861602783
1.53498196601867676 6.67512607574462891 -1.40548253059387207
-0.709578871726989746 2.61449861526489258 -1.02013170719146729
2.04847383499145508 6.1214604377746582 -1.26804935932159424
-0.499320626258850098 1.6702803373336792 -1.90994107723236084
-0.7715301513671875 2.17596721649169922 -1.92984044551849365
3.32074379920959473 5.14346027374267578 -1.22638154029846191
-0.126742824912071228 1.46849632263183594 -1.93684351444244385
0.538888037204742432 1.41844820976257324 -1.93143749237060547
0.914416790008544922 1.43841564655303955 -1.93564510345458984
0.364714145660400391 1.62371921539306641 -1.94764375686645508
2.25763916969299316 3.2749781608581543 -2.01068830490112305
0.226697534322738647 3.81182599067687988 -0.730309724807739258
1.33827888965606689 1.54380548000335693 -1.95377612113952637
-0.717065751552581787 2.6032865047454834 -0.76879572868347168
1.82229065895080566 4.73882102966308594 -1.16747045516967773
-0.102612882852554321 2.87508130073547363 -1.32394742965698242
0.920181453227996826 4.70224189758300781 -0.631400525569915771
0.466990500688552856 2.05282473564147949 -1.9478614330291748
0.652258038520812988 4.23630189895629883 -1.05870628356933594
1.78801798820495605 4.65881824493408203 -1.30209195613861084
2.80037736892700195 5.87584829330444336 -0.999124348163604736
3.3372046947479248 5.10698604583740234 -1.66439998149871826
1.25497353076934814 1.85242187976837158 -1.92206549644470215
0.678553581237792969 1.478767991065979 -1.69562733173370361
-0.443121850490570068 1.95623159408569336 -1.90672922134399414
2.74036693572998047 5.81763172149658203 -0.809055030345916748
1.4379962682723999 2.48466324806213379 -1.94089162349700928
-0.125008881092071533 3.28080964088439941 -0.913696467876434326
3.1880795955657959 5.29365396499633789 -1.40639412403106689
0.901057302951812744 1.19800770282745361 -1.94417798519134521
1.62959039211273193 1.51900815963745117 -1.95288634300231934
0.161550253629684448 1.88435840606689453 -1.38491535186767578
2.02081561088562012 6.14790248870849609 -0.87076646089553833
1.3163456916809082 1.26950061321258545 -1.95525026321411133
2.92651462554931641 5.56793975830078125 -0.892581343650817871
3.77387785911560059 5.62082433700561523 -1.43255853652954102
2.19846010208129883 4.91988849639892578 -1.34098780155181885
1.6852569580078125 1.81406509876251221 -1.93493175506591797
3.09345650672912598 5.41167736053466797 -0.999266862869262695
1.04813277721405029 2.28505158424377441 -1.89733946323394775
0.852119147777557373 4.63111162185668945 -0.955056369304656982
-1.01161932945251465 2.3849327564239502 -1.25064849853515625
0.776287317276000977 1.51755106449127197 -1.43255484104156494
2.6923363208770752 6.05892658233642578 -0.894863426685333252
2.31634092330932617 5.99185895919799805 -0.767965853214263916
2.50509333610534668 5.78296089172363281 -1.05387532711029053
0.95613175630569458 2.07719254493713379 -1.89306354522705078
1.09397828578948975 4.91940879821777344 -0.889283299446105957
2.52887916564941406 3.55359482765197754 -1.95412707328796387
0.718687117099761963 4.23976421356201172 -1.25908577442169189
0.366245388984680176 1.38364303112030029 -1.9385678768157959
