ply
format ascii 1.0
element vertex 7
comment vertices
property float x
property float y
property float z
end_header
-0.64414602518081665 4.28540277481079102 -0.133924335241317749
-0.589022934436798096 4.60059213638305664 -0.196691930294036865
-0.662964403629302979 4.11505365371704102 -0.226204574108123779
-0.706128954887390137 4.41640281677246094 -0.330674886703491211
-0.624170839786529541 4.08837890625 -0.191592469811439514
-0.723710179328918457 4.35259771347045898 -0.331114530563354492
-0.628693759441375732 4.45040273666381836 -0.111116141080856323
