ply
format ascii 1.0
element vertex 256
comment vertices
property float x
property float y
property float z
end_header
0.387993007898330688 2.61449766159057617 -1.0742037296295166
3.38307595252990723 4.30733680725097656 -1.04175138473510742
0.235074430704116821 6.29717445373535156 -0.892393112182617188
2.70238757133483887 3.95049428939819336 -1.04991531372070312
0.558074891567230225 4.49215888977050781 -0.970084726810455322
-1.46504950523376465 1.70670676231384277 -1.02717936038970947
1.91154277324676514 0.791782796382904053 -1.21704936027526855
1.06845974922180176 2.58943986892700195 -0.941868901252746582
3.9671778678894043 3.38293266296386719 -1.35536324977874756
1.78208112716674805 4.78070831298828125 -1.02798378467559814
-0.0972850620746612549 3.48092842102050781 -0.98164069652557373
1.11805319786071777 3.43815374374389648 -1.04394972324371338
-0.817857325077056885 2.52861142158508301 -1.06103181838989258
-0.234156876802444458 1.69932198524475098 -0.97767341136932373
1.7081751823425293 5.74044609069824219 -0.969112873077392578
1.28274202346801758 1.74255383014678955 -1.03858959674835205
0.80987018346786499 -1.33922958374023438 -1.28633856773376465
2.07200956344604492 0.259388446807861328 -1.34941244125366211
2.67882847785949707 6.02590560913085938 -1.0366591215133667
-0.567063212394714355 1.34564805030822754 -0.994727015495300293
1.23400449752807617 7.05687046051025391 -0.909721195697784424
1.35595118999481201 4.42623472213745117 -0.923443317413330078
1.1621546745300293 4.44276046752929688 -1.00231695175170898
-0.263925015926361084 2.90127372741699219 -1.03603649139404297
0.374270886182785034 3.2275390625 -1.24327623844146729
2.24330639839172363 3.86807608604431152 -1.02517819404602051
0.439046919345855713 4.00252151489257812 -1.00621438026428223
1.43025469779968262 2.82083415985107422 -1.07111477851867676
3.60268449783325195 4.38349056243896484 -1.14603257179260254
-0.930662155151367188 2.12144613265991211 -1.06035590171813965
3.79132461547851562 4.81514787673950195 -1.00370872020721436
0.735761344432830811 2.8328406810760498 -1.03061342239379883
1.00274348258972168 2.23618006706237793 -1.10300397872924805
0.616719841957092285 1.15438985824584961 -1.44014489650726318
1.23599457740783691 1.23804795742034912 -1.09165060520172119
2.06807088851928711 5.10453557968139648 -0.721864223480224609
2.11522245407104492 4.99511623382568359 -0.975649118423461914
4.22626638412475586 4.20068168640136719 -1.48603606224060059
2.44973206520080566 -0.192136764526367188 -1.25845527648925781
-0.250291824340820312 2.24770689010620117 -1.37621510028839111
1.16732883453369141 5.3934326171875 -1.31988823413848877
2.41222834587097168 4.57841825485229492 -0.928366422653198242
0.0476372838020324707 2.44118404388427734 -0.994424104690551758
1.29458165168762207 3.70232343673706055 -0.98827064037322998
-0.328218162059783936 2.43124628067016602 -1.02962243556976318
-0.418652385473251343 3.14514732360839844 -0.954583406448364258
1.31468605995178223 3.59301853179931641 -0.92824399471282959
0.0889246761798858643 3.51776766777038574 -1.40329837799072266
2.96797490119934082 5.94913530349731445 -0.87434077262878418
0.165264904499053955 3.20810794830322266 -0.98056107759475708
-0.758398234844207764 1.86364483833312988 -1.04340791702270508
1.60936403274536133 4.49199295043945312 -0.941691577434539795
2.60458469390869141 3.72711896896362305 -0.914002478122711182
3.63075804710388184 5.52723217010498047 -0.962971866130828857
2.37769865989685059 3.97699356079101562 -0.746802747249603271
1.77147126197814941 5.65152406692504883 -0.961356222629547119
0.395503193140029907 4.05395126342773438 -0.979573667049407959
-0.501216590404510498 1.36441826820373535 -0.984588623046875
-0.492524802684783936 2.86767339706420898 -1.09206247329711914
0.754439711570739746 3.23726773262023926 -1.06133973598480225
2.3126070499420166 1.23408710956573486 -1.18536615371704102
3.14790964126586914 2.02390646934509277 -1.25644659996032715
0.490688890218734741 3.47879552841186523 -1.15188872814178467
0.312548130750656128 3.11995959281921387 -1.36446142196655273
0.483849972486495972 2.92773938179016113 -1.08792829513549805
-0.751671433448791504 2.5363459587097168 -0.865620911121368408
0.863041162490844727 6.90010881423950195 -0.935106217861175537
0.265754997730255127 2.66367030143737793 -1.01089239120483398
1.65101456642150879 4.08247613906860352 -1.21914863586425781
1.45069503784179688 0.786604106426239014 -1.17318475246429443
-0.4500998854637146 3.05379056930541992 -0.946985602378845215
0.499590039253234863 4.00737380981445312 -0.993073105812072754
1.29068684577941895 3.99926209449768066 -1.04739964008331299
1.91639518737792969 4.86398172378540039 -0.8250846266746521
2.56466197967529297 4.71053791046142578 -0.923036396503448486
-0.865653276443481445 2.50028610229492188 -1.03832221031188965
0.418770819902420044 2.39672994613647461 -0.975448846817016602
1.58823513984680176 4.01338005065917969 -0.816159904003143311
1.18989038467407227 2.85329389572143555 -1.08095407485961914
2.94365286827087402 4.42135095596313477 -1.0769575834274292
1.37768971920013428 4.82279777526855469 -0.894813179969787598
0.0882123410701751709 3.64675593376159668 -1.01758623123168945
2.43547439575195312 5.12471437454223633 -0.810789108276367188
0.345451831817626953 2.79384517669677734 -1.04953908920288086
2.02264904975891113 1.72510647773742676 -1.20106744766235352
1.86442506313323975 4.62918996810913086 -1.18324184417724609
0.423462450504302979 3.95600986480712891 -1.07558989524841309
-1.76897335052490234 0.223969459533691406 -1.56099748611450195
1.86578476428985596 1.25419652462005615 -1.13579368591308594
-0.399833559989929199 0.987145900726318359 -1.17352986335754395
0.438861191272735596 3.34679627418518066 -0.978726565837860107
2.43335819244384766 4.23923730850219727 -1.09147095680236816
0.545460045337677002 2.49784660339355469 -0.985623478889465332
2.27264738082885742 5.11203289031982422 -1.10634398460388184
0.508572280406951904 2.68355894088745117 -1.04660797119140625
1.83543944358825684 5.10905981063842773 -0.718526482582092285
1.64537370204925537 4.55074739456176758 -0.961222589015960693
0.419106423854827881 4.01723766326904297 -0.969877779483795166
-0.710724890232086182 2.19942998886108398 -1.04262721538543701
0.0285755619406700134 2.96789741516113281 -1.02890205383300781
-0.556550741195678711 1.40912830829620361 -0.975495576858520508
1.79961633682250977 0.148386478424072266 -1.69785809516906738
1.70362687110900879 5.75876712799072266 -0.852606713771820068
2.70792102813720703 4.21670198440551758 -1.00931680202484131
1.7471461296081543 0.0214862823486328125 -1.4218437671661377
1.68213570117950439 1.55079686641693115 -1.13782680034637451
1.65754389762878418 4.76484155654907227 -0.860105335712432861
-0.629408776760101318 2.70035290718078613 -0.994194507598876953
0.42548331618309021 4.09063005447387695 -0.974995613098144531
-0.030142713338136673 1.89044845104217529 -1.03970777988433838
0.370140105485916138 2.64963626861572266 -1.01547300815582275
-0.785369038581848145 2.47926545143127441 -1.02881383895874023
-0.761908650398254395 3.86299920082092285 -1.17561769485473633
1.07659006118774414 2.95053982734680176 -1.11866247653961182
-0.39383387565612793 3.07330942153930664 -0.960900366306304932
3.17920851707458496 3.97533702850341797 -1.02592265605926514
-0.854415237903594971 2.46988511085510254 -0.995377242565155029
-0.534686088562011719 1.3704981803894043 -0.94125211238861084
0.606384396553039551 3.47553443908691406 -1.0513077974319458
-0.413369238376617432 2.9687507152557373 -0.92249220609664917
0.307837039232254028 2.57322168350219727 -1.01041102409362793
-0.106557346880435944 3.43682718276977539 -0.986479222774505615
0.262563467025756836 2.39511895179748535 -1.02195620536804199
-0.46397775411605835 1.64320063591003418 -1.0012962818145752
1.46389961242675781 4.49590778350830078 -0.986163556575775146
0.759849011898040771 5.80157470703125 -1.0679316520690918
0.870542526245117188 3.72231078147888184 -1.08869576454162598
0.46921539306640625 2.30582571029663086 -1.02683436870574951
0.85473787784576416 4.17028427124023438 -0.977470636367797852
0.563164412975311279 3.8707427978515625 -1.34551835060119629
0.224755585193634033 3.00868606567382812 -1.13567972183227539
1.44812977313995361 4.1670985221862793 -0.910747230052947998
0.6682930588722229 3.46938085556030273 -1.08077478408813477
-1.17530679702758789 -0.553171157836914062 -1.51170158386230469
1.60825634002685547 4.50145959854125977 -0.977459311485290527
1.62531352043151855 4.47528982162475586 -0.851318120956420898
1.67578804492950439 4.56296539306640625 -0.974209606647491455
0.663435816764831543 2.91914963722229004 -1.02088308334350586
-0.421716392040252686 3.05628752708435059 -0.981112122535705566
1.76434016227722168 6.57982444763183594 -0.918202698230743408
0.734169363975524902 2.69370841979980469 -1.01523327827453613
1.67039752006530762 3.15012311935424805 -1.06336712837219238
0.973828971385955811 3.59483218193054199 -1.01450347900390625
1.63109540939331055 4.83085870742797852 -0.876452744007110596
-0.894354701042175293 2.39562106132507324 -1.05196976661682129
-0.546455979347229004 1.32395732402801514 -1.02153515815734863
1.95281696319580078 4.70695829391479492 -0.948024153709411621
4.19418001174926758 2.02829265594482422 -1.38643503189086914
1.2200171947479248 1.86937618255615234 -1.2891383171081543
0.392717480659484863 2.53239989280700684 -0.970601320266723633
0.43348848819732666 2.51497650146484375 -1.06741547584533691
2.71594452857971191 5.36807680130004883 -1.1272585391998291
-1.29324626922607422 1.47506296634674072 -0.974026918411254883
-0.839621245861053467 2.50467395782470703 -1.08424007892608643
-0.0148709006607532501 2.79155826568603516 -1.11639285087585449
1.55460786819458008 4.52121114730834961 -0.919567227363586426
0.929890036582946777 5.21609401702880859 -0.959885835647583008
-0.442626476287841797 3.01964187622070312 -0.917366325855255127
1.69091618061065674 0.953867912292480469 -1.20752632617950439
1.05481123924255371 6.48275089263916016 -0.876656234264373779
0.809078037738800049 2.56240081787109375 -1.01135373115539551
1.47604823112487793 4.45381927490234375 -0.96082770824432373
0.964152634143829346 2.0345757007598877 -0.993507146835327148
-0.364075660705566406 2.70041322708129883 -1.09610545635223389
1.36789727210998535 1.38272452354431152 -1.04051709175109863
0.522330880165100098 3.16231393814086914 -1.02141129970550537
1.29799902439117432 4.44125556945800781 -0.975119113922119141
-0.198458224534988403 2.79575300216674805 -0.973255515098571777
1.58986508846282959 1.7606651782989502 -1.00304961204528809
0.35622173547744751 2.69012212753295898 -1.05941915512084961
0.602239549160003662 2.76959228515625 -1.07805097103118896
0.67347407341003418 -1.10774850845336914 -1.51235318183898926
1.1140904426574707 2.93703675270080566 -1.05674362182617188
1.38837158679962158 1.0232168436050415 -1.12698650360107422
1.49073994159698486 4.45206785202026367 -0.971071302890777588
-0.714909553527832031 2.51279187202453613 -1.10941731929779053
-0.436148136854171753 1.96700048446655273 -1.03474831581115723
2.8799736499786377 2.9216773509979248 -1.10991966724395752
0.594830155372619629 3.61286401748657227 -1.1936720609664917
0.368080794811248779 2.49551725387573242 -1.02845478057861328
0.425010859966278076 4.03008508682250977 -0.97850334644317627
0.45290827751159668 2.6438148021697998 -1.04301023483276367
2.52405667304992676 1.41398191452026367 -1.17445862293243408
0.756548106670379639 3.10078001022338867 -1.04876196384429932
1.18829655647277832 3.82192516326904297 -1.31051361560821533
-0.832903206348419189 2.49967265129089355 -1.03942084312438965
1.7055656909942627 0.773246228694915771 -1.25686550140380859
4.22217178344726562 4.4728851318359375 -1.16109859943389893
-0.484058916568756104 3.04690432548522949 -0.965171098709106445
0.424776673316955566 3.15641427040100098 -1.03153061866760254
0.472223669290542603 2.54631996154785156 -1.00957012176513672
-0.0209548473358154297 2.66500735282897949 -1.11159062385559082
0.320901483297348022 2.90062212944030762 -1.09738945960998535
0.556186378002166748 3.64789199829101562 -1.12072372436523438
-0.167894735932350159 3.0145263671875 -0.990805923938751221
-0.58370661735534668 1.37205147743225098 -0.956170320510864258
3.680999755859375 5.72024202346801758 -1.09037411212921143
0.496095269918441772 2.73796319961547852 -1.06995916366577148
1.63644933700561523 4.50439929962158203 -0.96579444408416748
1.91146326065063477 4.49682426452636719 -0.860053837299346924
2.02748918533325195 4.92379951477050781 -1.03844821453094482
0.311430513858795166 2.7368776798248291 -1.03307056427001953
0.427729159593582153 3.98121953010559082 -0.942763984203338623
0.64762413501739502 2.57360076904296875 -1.39221477508544922
-0.81613612174987793 2.49609088897705078 -1.0056833028793335
-0.864205718040466309 2.48653459548950195 -1.03645491600036621
0.49164995551109314 2.60058426856994629 -1.06453037261962891
1.37418103218078613 2.72605013847351074 -1.08882975578308105
-0.394821465015411377 2.97421360015869141 -1.02588629722595215
0.179045483469963074 3.5733640193939209 -1.14664554595947266
-0.371358305215835571 1.69378530979156494 -0.971619129180908203
0.170517593622207642 3.23756599426269531 -1.05980908870697021
0.204158484935760498 5.65501308441162109 -0.968517303466796875
1.2575232982635498 2.19510936737060547 -1.07416772842407227
-0.542106807231903076 1.366341233253479 -0.9499167799949646
2.24163079261779785 0.950181782245635986 -1.1759103536605835
1.89249110221862793 5.00470447540283203 -0.754432737827301025
0.374217718839645386 3.27791738510131836 -1.02575504779815674
0.375295460224151611 2.46401190757751465 -0.977442383766174316
0.372765421867370605 2.59501767158508301 -1.02968347072601318
-0.862555384635925293 2.49037742614746094 -1.02052187919616699
0.805298328399658203 2.22325015068054199 -1.05238628387451172
0.851131796836853027 3.8455500602722168 -1.00101184844970703
2.87038803100585938 3.92884540557861328 -0.9906463623046875
1.54307293891906738 5.45605945587158203 -0.845698177814483643
0.555950284004211426 2.69370841979980469 -1.01523327827453613
-0.947675943374633789 1.53477334976196289 -1.51269793510437012
0.39831233024597168 4.03740739822387695 -0.995984554290771484
1.08530604839324951 3.6940007209777832 -0.990678131580352783
2.54732513427734375 4.3989863395690918 -1.04336309432983398
-0.128298446536064148 3.45143246650695801 -0.977579951286315918
3.09927129745483398 4.20951652526855469 -1.09209072589874268
0.378830552101135254 2.71283054351806641 -1.02205657958984375
2.01671075820922852 0.878715217113494873 -1.22206521034240723
0.385418564081192017 2.5010983943939209 -1.02146172523498535
0.47886735200881958 2.42822957038879395 -1.01258158683776855
1.61153149604797363 4.50418615341186523 -0.970480024814605713
1.65323197841644287 0.805403292179107666 -1.21092724800109863
3.41433382034301758 3.13488054275512695 -1.18188893795013428
1.45022964477539062 5.10596036911010742 -0.928245782852172852
-1.14419960975646973 2.25374555587768555 -1.38897037506103516
3.45834898948669434 5.09606170654296875 -1.11004281044006348
1.48113906383514404 4.59346151351928711 -0.999736785888671875
0.526601076126098633 4.10831832885742188 -0.955748975276947021
0.112646102905273438 2.85571026802062988 -1.10196661949157715
-0.524860203266143799 1.35388469696044922 -0.918481171131134033
1.55765461921691895 4.50569295883178711 -0.961232781410217285
-0.562384545803070068 2.6075904369354248 -1.04611659049987793
-0.120818912982940674 5.0016322135925293 -1.09454476833343506
2.1354682445526123 4.76085901260375977 -0.944074273109436035
-0.324603557586669922 3.22043180465698242 -1.01482677459716797
1.31610345840454102 1.689583420753479 -1.043892502784729
1.60965752601623535 4.4842524528503418 -0.920929491519927979
0.456114262342453003 2.66959214210510254 -1.04366636276245117
-0.455701231956481934 2.61079597473144531 -1.09717285633087158
0.29241567850112915 2.45027780532836914 -1.03965747356414795
