ply
format ascii 1.0
element vertex 256
comment vertices
property float x
property float y
property float z
end_header
-1.33866620063781738 3.00884151458740234 -1.08967649936676025
4.09902620315551758 5.61644458770751953 -1.33019626140594482
-3.55730247497558594 -0.892205238342285156 -0.423508584499359131
1.78784143924713135 3.02781176567077637 -1.35084235668182373
1.6158682107925415 5.28308343887329102 -0.941224873065948486
-1.93163418769836426 4.48018980026245117 -0.261411935091018677
0.029670223593711853 4.1626739501953125 -1.44030904769897461
-1.99501216411590576 0.34077763557434082 -0.519284605979919434
2.7165379524230957 4.19785308837890625 -1.26775741577148438
-0.538354814052581787 3.9266810417175293 -0.486941725015640259
0.692661166191101074 2.18336343765258789 -1.7694394588470459
-3.36531209945678711 0.907696723937988281 -1.08107328414916992
1.09946370124816895 4.0614323616027832 -1.49373173713684082
-1.58707118034362793 4.07505273818969727 -1.08841216564178467
-1.87851548194885254 2.5013735294342041 -0.463910192251205444
0.638463854789733887 2.31071329116821289 -1.69491970539093018
4.34880352020263672 4.54720830917358398 -1.30509591102600098
-2.17473077774047852 3.14125537872314453 -0.785173416137695312
0.657195389270782471 4.80422449111938477 -1.42971086502075195
3.09776687622070312 3.02663421630859375 -1.14180159568786621
-2.65192270278930664 3.13591194152832031 -0.258649945259094238
-0.755609691143035889 3.99413490295410156 -1.28570926189422607
-0.428170323371887207 3.40251660346984863 -1.27216529846191406
-1.87279903888702393 -1.52846574783325195 -0.928022623062133789
1.75720345973968506 4.57007789611816406 -1.11740720272064209
0.880209863185882568 3.73792505264282227 -1.60296666622161865
1.45294129848480225 3.5733788013458252 -1.33582901954650879
-1.29914045333862305 4.14537906646728516 -0.488707989454269409
-1.27140986919403076 3.61569976806640625 -0.857188761234283447
-3.68098759651184082 -0.279609203338623047 -0.924406766891479492
0.609976649284362793 4.14975738525390625 -1.42374908924102783
-2.02892088890075684 3.12652063369750977 -0.705856263637542725
-0.282166481018066406 4.31130361557006836 -1.08206868171691895
2.09469938278198242 3.98131418228149414 -1.42091608047485352
0.288543283939361572 3.79806613922119141 -1.55275356769561768
-1.28546738624572754 1.85597348213195801 -1.49958658218383789
-2.44896292686462402 3.2865445613861084 -0.542728781700134277
-0.84905010461807251 4.15272855758666992 -0.858226478099822998
-3.20139408111572266 3.35481142997741699 -0.59373927116394043
-2.3155510425567627 2.64968228340148926 -0.709880053997039795
0.85273212194442749 3.61945676803588867 -1.41317653656005859
-1.5706104040145874 4.39975786209106445 -0.76898956298828125
-2.01161050796508789 2.84999513626098633 -0.25941881537437439
1.24897456169128418 4.96508884429931641 -1.36732649803161621
3.61902213096618652 5.18655633926391602 -1.11965298652648926
1.70136106014251709 3.08303213119506836 -1.19983088970184326
-0.758867621421813965 3.82432126998901367 -0.991566061973571777
-1.38177716732025146 3.2078406810760498 -0.791454613208770752
-1.27817690372467041 2.26997137069702148 -0.610641837120056152
1.37302327156066895 2.44566583633422852 -1.8620457649230957
-0.973205685615539551 3.34078836441040039 -1.06705129146575928
-1.60661864280700684 3.90197634696960449 -0.544263124465942383
1.30169963836669922 3.11910724639892578 -1.41442227363586426
-1.71924757957458496 2.71648573875427246 -0.8122977614402771
-2.52774381637573242 3.71998143196105957 -0.273971974849700928
-0.363825619220733643 4.44560956954956055 -1.58919334411621094
1.79027438163757324 3.44473552703857422 -1.54038941860198975
0.239849671721458435 4.39013004302978516 -1.43051290512084961
-2.18802881240844727 2.69275331497192383 -0.719734847545623779
-1.13033652305603027 3.94051361083984375 -1.23229670524597168
1.1369551420211792 4.41291713714599609 -1.29212379455566406
2.18486261367797852 3.67492294311523438 -1.29700541496276855
2.02288484573364258 4.66720199584960938 -1.27154278755187988
1.97884464263916016 4.20176315307617188 -1.25353920459747314
-0.29329836368560791 3.95275759696960449 -1.30713999271392822
0.291334569454193115 3.62343835830688477 -1.52223598957061768
-1.21756327152252197 3.91083455085754395 -0.865597009658813477
-3.30148625373840332 -0.670183181762695312 -0.937496423721313477
-3.09885621070861816 -0.326368331909179688 -0.782638013362884521
1.27788591384887695 3.41718959808349609 -1.4341813325881958
-1.25408256053924561 4.37068033218383789 -1.10504579544067383
1.4440765380859375 4.3253788948059082 -1.29840373992919922
-2.38010525703430176 3.6884148120880127 -0.75265347957611084
-1.98533737659454346 2.36256289482116699 -0.703323543071746826
0.407079100608825684 2.52808570861816406 -1.68163108825683594
-2.31091856956481934 2.83250951766967773 -0.339672505855560303
-0.594229936599731445 4.256378173828125 -1.30235910415649414
1.80126142501831055 3.84192299842834473 -1.4038165807723999
0.823810815811157227 4.37721347808837891 -1.37993538379669189
-1.39280986785888672 2.87556886672973633 -0.855993926525115967
2.11053943634033203 3.33071017265319824 -1.38589143753051758
-2.30716180801391602 3.90088224411010742 -0.695075511932373047
-1.00610089302062988 3.889373779296875 -0.622859179973602295
2.28627872467041016 3.52184057235717773 -1.25637292861938477
-1.56745803356170654 4.05213117599487305 -0.800729811191558838
-0.897956252098083496 3.3933262825012207 -0.828754067420959473
-0.547507226467132568 3.35816764831542969 -1.41730594635009766
-0.910570025444030762 3.58005452156066895 -1.08547639846801758
0.317190200090408325 4.17030143737792969 -1.49430131912231445
-1.20227587223052979 4.22229671478271484 -0.790049135684967041
-0.505477070808410645 3.20128512382507324 -1.03888630867004395
0.373470187187194824 2.75138092041015625 -1.48365437984466553
0.915864408016204834 4.18616580963134766 -1.36014556884765625
-0.71994483470916748 3.04015016555786133 -1.25865840911865234
-1.03927052021026611 2.04473066329956055 -1.72781801223754883
-1.52441644668579102 4.56292819976806641 -0.461267799139022827
-2.12919807434082031 2.6155095100402832 -0.290718346834182739
0.96604001522064209 3.87153935432434082 -1.47161507606506348
-0.796790242195129395 4.14680671691894531 -1.15596723556518555
-2.16249895095825195 3.51786947250366211 -0.136701136827468872
-0.59852832555770874 3.83238577842712402 -1.20045053958892822
-0.163300648331642151 4.16240262985229492 -1.41231262683868408
0.681378602981567383 3.94684076309204102 -1.54484176635742188
-1.09969997406005859 3.24422121047973633 -1.2527698278427124
-2.81979274749755859 3.34601783752441406 -0.494284659624099731
-1.55817711353302002 4.14975738525390625 -0.458887100219726562
-0.901168704032897949 2.99986553192138672 -0.850443065166473389
1.41512823104858398 4.18616580963134766 -1.42450785636901855
-0.519990682601928711 4.07413196563720703 -0.990270793437957764
-1.95878791809082031 2.71683454513549805 -0.588941693305969238
-0.109781071543693542 4.00816059112548828 -1.3985971212387085
-0.313568413257598877 2.06494379043579102 -1.59515094757080078
-1.06475460529327393 3.77110719680786133 -0.952229619026184082
1.32634150981903076 3.60483455657958984 -1.45316088199615479
1.27832424640655518 3.95940852165222168 -1.44336044788360596
1.16250061988830566 1.05538332462310791 -1.72519457340240479
-2.15241169929504395 3.44162774085998535 -0.619729578495025635
0.364255845546722412 3.30007314682006836 -1.56983160972595215
0.351352125406265259 3.84204864501953125 -1.54228866100311279
-2.30729413032531738 2.75837874412536621 -0.452316075563430786
-1.29939305782318115 4.02768135070800781 -0.6828041672706604
3.2111811637878418 5.10317850112915039 -1.28924143314361572
1.44747376441955566 3.18397235870361328 -1.46414721012115479
0.0778733342885971069 2.81281924247741699 -1.5307762622833252
-1.8943631649017334 2.86202383041381836 -0.455012261867523193
0.998763501644134521 4.6853489875793457 -1.25595629215240479
1.15590786933898926 4.40581083297729492 -1.41706323623657227
0.266256272792816162 4.30024194717407227 -1.46714234352111816
1.48714852333068848 1.42162501811981201 -1.85035824775695801
1.60886192321777344 3.3931124210357666 -1.36869633197784424
-1.45651483535766602 1.79170012474060059 -0.667011260986328125
-1.63909804821014404 3.00757408142089844 -0.820030629634857178
-1.52770876884460449 4.33108758926391602 -0.989898562431335449
0.958341538906097412 4.58218955993652344 -1.4014592170715332
4.11643314361572266 5.07117843627929688 -1.23760509490966797
-1.76709651947021484 2.45580577850341797 -0.653656959533691406
-0.493322968482971191 4.06437778472900391 -1.3266603946685791
0.84164959192276001 3.65545177459716797 -1.48718714714050293
-1.02040684223175049 4.11256694793701172 -1.34892821311950684
-2.16383695602416992 3.51330900192260742 -0.674914658069610596
-0.911367893218994141 2.95561742782592773 -1.09021162986755371
-1.92746198177337646 4.71539640426635742 -0.441352605819702148
1.20039606094360352 3.23697233200073242 -1.42135214805603027
1.09173417091369629 3.34702062606811523 -1.34670257568359375
0.333870083093643188 3.29441070556640625 -1.6760256290435791
1.48252010345458984 4.85795259475708008 -1.02610397338867188
-1.44211184978485107 4.03321933746337891 -0.57830512523651123
1.45844650268554688 3.7285916805267334 -1.38966381549835205
0.774805963039398193 4.03299999237060547 -1.41029787063598633
-1.16384589672088623 4.13918447494506836 -0.602794170379638672
-2.76382350921630859 1.19861674308776855 -0.34666973352432251
-0.553263068199157715 3.63243937492370605 -1.16333544254302979
-1.27460908889770508 3.43342304229736328 -0.945086836814880371
-2.23178815841674805 2.98150944709777832 -0.368511378765106201
-1.65539646148681641 4.24913597106933594 -0.587484776973724365
-1.32234096527099609 3.50103616714477539 -0.78098827600479126
-1.66980814933776855 2.66521406173706055 -0.483774781227111816
-0.660235464572906494 4.06405401229858398 -1.15776288509368896
1.16073143482208252 4.29897642135620117 -1.2979438304901123
1.1569826602935791 3.84835505485534668 -1.44016265869140625
-0.196318238973617554 4.06437778472900391 -1.47216463088989258
-1.30704736709594727 4.14378643035888672 -1.14802312850952148
-2.29705905914306641 3.18526053428649902 -0.284730613231658936
1.44372749328613281 3.33261752128601074 -1.44420599937438965
1.68621706962585449 3.22059798240661621 -1.32966923713684082
-2.0125582218170166 3.39319562911987305 -0.518768608570098877
-2.0631706714630127 2.52256298065185547 -0.61740875244140625
-1.7232964038848877 4.36176252365112305 -0.363244891166687012
-1.32110702991485596 3.87156200408935547 -0.992601335048675537
-1.07722020149230957 4.09959697723388672 -1.04080641269683838
-1.21545910835266113 3.59915971755981445 -1.01481914520263672
0.211975634098052979 4.69698190689086914 -1.52888345718383789
-0.771365940570831299 4.13321208953857422 -1.32473278045654297
-1.02360856533050537 3.78092384338378906 -0.738339602947235107
2.78549528121948242 3.85497641563415527 -1.25380778312683105
1.03791177272796631 3.4158942699432373 -1.45826065540313721
3.53691911697387695 5.5209650993347168 -1.20505619049072266
2.01949119567871094 3.48673391342163086 -1.32152104377746582
-0.793585360050201416 3.81684088706970215 -1.0644763708114624
-1.04312026500701904 4.17510652542114258 -0.938249111175537109
0.624242663383483887 4.50856208801269531 -1.395224928855896
-1.51862716674804688 3.93353939056396484 -0.717177033424377441
-1.26385700702667236 4.10291719436645508 -0.948800086975097656
-0.919897615909576416 3.83100008964538574 -0.494006425142288208
-0.97171783447265625 3.83285927772521973 -0.751097381114959717
-2.06451153755187988 2.82407736778259277 -0.397355884313583374
-1.36482036113739014 3.16416788101196289 -1.04616165161132812
-1.92341017723083496 2.62232017517089844 -0.380159676074981689
-1.08169925212860107 4.07921409606933594 -0.732813239097595215
-1.41367805004119873 4.32651472091674805 -0.717956304550170898
1.65888237953186035 3.52732539176940918 -1.34248137474060059
1.22807550430297852 4.24611854553222656 -1.36306846141815186
2.2863154411315918 2.02231502532958984 -1.72017109394073486
1.34501063823699951 3.48300027847290039 -1.35607290267944336
-1.77803874015808105 3.30195283889770508 -0.743780851364135742
1.0704885721206665 4.3062434196472168 -1.3539891242980957
0.94966655969619751 4.52859210968017578 -1.3673865795135498
-1.20893919467926025 3.78400015830993652 -0.861672878265380859
-2.21155619621276855 2.9077296257019043 -0.746980190277099609
0.527876734733581543 4.3049168586730957 -1.43802285194396973
-2.10066699981689453 2.90094661712646484 -0.539002776145935059
-1.01663804054260254 3.12929749488830566 -0.949104845523834229
1.25940561294555664 4.47672748565673828 -1.27557969093322754
-2.13011622428894043 3.02729630470275879 -0.17688441276550293
-0.537615597248077393 3.92516088485717773 -1.19405233860015869
1.99594521522521973 4.00887584686279297 -1.38468062877655029
-1.80864584445953369 4.3330540657043457 -0.869682848453521729
1.57758235931396484 3.18062758445739746 -1.36542725563049316
-0.185888916254043579 2.76442837715148926 -1.42129433155059814
1.20690679550170898 4.53537273406982422 -1.26404571533203125
-0.976334750652313232 4.04164648056030273 -0.935774147510528564
0.15135464072227478 3.97856903076171875 -1.49939215183258057
-1.81686043739318848 2.32056283950805664 -0.605399250984191895
-2.44127917289733887 3.72919487953186035 -0.114414423704147339
-1.18838608264923096 4.0140538215637207 -0.581939160823822021
-1.88889718055725098 2.97016167640686035 -0.732941985130310059
1.06225419044494629 4.05640888214111328 -1.40057814121246338
-1.55641627311706543 3.07237958908081055 -0.822827696800231934
1.24976158142089844 3.57418537139892578 -1.41612386703491211
-1.45573008060455322 3.65551042556762695 -0.739422321319580078
-0.110824555158615112 4.19859075546264648 -1.4405522346496582
3.90561103820800781 5.35607719421386719 -1.2406761646270752
-0.363320589065551758 3.97959804534912109 -1.19133663177490234
-1.17768311500549316 3.85527276992797852 -0.691523194313049316
-1.83807861804962158 4.15619468688964844 -0.504422247409820557
1.43574798107147217 3.37159180641174316 -1.36039447784423828
0.881835043430328369 3.07729244232177734 -1.6786799430847168
0.229760006070137024 4.16870403289794922 -1.46270465850830078
1.33149254322052002 3.2607574462890625 -1.40659308433532715
-1.92023551464080811 2.65550947189331055 -0.489882200956344604
-1.66109609603881836 2.40740346908569336 -0.586974620819091797
0.546338796615600586 4.00794696807861328 -1.51359343528747559
-1.22928380966186523 4.10911273956298828 -0.861504018306732178
-0.809304177761077881 4.24991798400878906 -0.748716354370117188
-1.87630987167358398 2.54553914070129395 -0.719563007354736328
-2.40166211128234863 3.1140291690826416 -0.411742746829986572
-1.18469035625457764 3.34035086631774902 -1.20933938026428223
-1.29738044738769531 3.90407657623291016 -1.15585422515869141
0.045022379606962204 3.60099506378173828 -1.56538891792297363
0.119388096034526825 4.55502891540527344 -1.62459230422973633
0.0593657791614532471 3.89346837997436523 -1.44555449485778809
1.19915246963500977 3.93181085586547852 -1.40692520141601562
-1.08491754531860352 3.63003015518188477 -0.945306718349456787
-1.12285506725311279 4.14141368865966797 -0.458167999982833862
1.75896859169006348 3.23439836502075195 -1.2967219352722168
-1.86585700511932373 4.71433639526367188 -0.319557547569274902
-0.605901002883911133 3.36156988143920898 -1.18742275238037109
1.26485645771026611 4.35827207565307617 -1.29672276973724365
-2.17808246612548828 2.64372849464416504 -0.814302623271942139
1.49524343013763428 1.7149735689163208 -1.93438553810119629
-0.863420963287353516 3.89835000038146973 -0.937822222709655762
-2.25733327865600586 3.57238483428955078 -0.57252812385559082
2.12164115905761719 3.39020204544067383 -1.23247969150543213
-2.01856613159179688 2.85418415069580078 -0.680876255035400391
0.176733076572418213 4.24286317825317383 -1.42826449871063232
0.753037929534912109 4.05197668075561523 -1.45853042602539062
