ply
format ascii 1.0
element vertex 62
comment vertices
property float x
property float y
property float z
end_header
1.32904720306396484 4.45836687088012695 -1.01577198505401611
-0.376634091138839722 2.98941898345947266 -1.02853333950042725
-0.244329869747161865 1.91474616527557373 -1.026397705078125
0.438011467456817627 2.5695347785949707 -1.06810629367828369
-0.869031667709350586 2.42749929428100586 -1.02951264381408691
-1.03567743301391602 1.78527283668518066 -1.06613540649414062
-0.550442934036254883 1.36552441120147705 -0.95510256290435791
0.280013769865036011 1.90302944183349609 -1.00918149948120117
0.409929156303405762 4.05890655517578125 -1.05964207649230957
-0.106056720018386841 3.40696620941162109 -0.955386042594909668
-0.520462334156036377 2.50211334228515625 -1.06005346775054932
0.603795766830444336 2.36428022384643555 -1.03940093517303467
0.171974599361419678 2.26383662223815918 -1.0099261999130249
0.643836796283721924 2.92740249633789062 -1.09998857975006104
-0.162595793604850769 3.29110980033874512 -1.09827721118927002
0.321074217557907104 3.81383085250854492 -1.07119762897491455
-0.856249332427978516 2.50522422790527344 -0.941402792930603027
1.66141808032989502 4.54278850555419922 -0.975033342838287354
-0.0971798151731491089 1.73208439350128174 -1.03029251098632812
0.302235782146453857 2.2836606502532959 -1.1291123628616333
-0.583455920219421387 1.38208472728729248 -1.02122914791107178
0.904387891292572021 2.88202381134033203 -1.08003652095794678
-0.86442112922668457 2.48480629920959473 -1.00677895545959473
0.648351430892944336 2.71698331832885742 -1.08088564872741699
0.368363469839096069 4.04301738739013672 -1.12016630172729492
-0.487509429454803467 1.3636246919631958 -0.979353785514831543
-0.396473020315170288 3.02321195602416992 -0.990534842014312744
0.378849059343338013 2.38901829719543457 -1.02506506443023682
1.65201437473297119 4.48589468002319336 -1.08364856243133545
-0.378365159034729004 2.8073275089263916 -1.04219472408294678
0.00137950479984283447 2.24225401878356934 -1.04791569709777832
-0.847154557704925537 2.47950196266174316 -1.04072427749633789
-0.282394766807556152 3.03288578987121582 -1.05836498737335205
-0.489964812994003296 2.94267868995666504 -1.02108621597290039
-0.573651015758514404 1.34698498249053955 -1.00021743774414062
0.46641579270362854 2.80691885948181152 -1.10193252563476562
0.0855276137590408325 2.02579116821289062 -1.00866556167602539
1.22090470790863037 4.40726184844970703 -0.97152632474899292
0.681018233299255371 2.52608823776245117 -1.04878771305084229
0.300147354602813721 2.21962809562683105 -1.0436406135559082
-0.568206250667572021 1.34293365478515625 -0.979043245315551758
-0.73292994499206543 2.6617734432220459 -1.02785146236419678
0.0961437448859214783 1.66561448574066162 -1.06937313079833984
-0.843150019645690918 1.77765476703643799 -1.06689071655273438
-0.132425189018249512 3.4367215633392334 -1.13838672637939453
-0.817912936210632324 2.47083520889282227 -1.00119388103485107
0.213287919759750366 2.39093971252441406 -1.09974753856658936
-0.48743051290512085 1.63146722316741943 -1.02354907989501953
-0.885684430599212646 2.44105911254882812 -1.06397461891174316
-0.749837279319763184 2.60837721824645996 -1.03743565082550049
1.43080532550811768 4.44849300384521484 -1.03538322448730469
0.390419840812683105 4.05178213119506836 -1.10071420669555664
0.0329685434699058533 2.39982891082763672 -1.09451162815093994
-0.10248740017414093 2.0327601432800293 -1.05784928798675537
0.399936079978942871 4.09736728668212891 -0.934026062488555908
-0.142617374658584595 3.32516169548034668 -1.03599715232849121
0.848892927169799805 3.00796341896057129 -1.08274972438812256
-0.577900528907775879 1.37345457077026367 -0.997159242630004883
0.271157205104827881 2.56973671913146973 -1.05876350402832031
0.424770087003707886 4.01571464538574219 -0.982205033302307129
0.504731237888336182 2.53615880012512207 -1.05985164642333984
-0.939629793167114258 2.44750308990478516 -0.987974345684051514
