ply
format ascii 1.0
element vertex 256
comment vertices
property float x
property float y
property float z
end_header
0.359184831380844116 2.58431410789489746 -1.05675828456878662
3.68668389320373535 6.29323339462280273 -0.907347679138183594
0.943424582481384277 4.64608001708984375 1.37474346160888672
0.796648800373077393 6.34572410583496094 -1.12387347221374512
2.1687934398651123 4.2841339111328125 -0.86512225866317749
0.369881659746170044 4.47651576995849609 -0.627710461616516113
-1.06886422634124756 1.79523468017578125 -1.00682997703552246
2.2038719654083252 5.76817655563354492 -0.329337447881698608
3.48999118804931641 4.87793540954589844 -0.847257614135742188
1.66312038898468018 2.95932316780090332 -1.06312501430511475
1.01110029220581055 5.51449394226074219 0.0318754464387893677
1.21063816547393799 1.6687774658203125 -1.13417470455169678
-0.689382612705230713 2.85671877861022949 -1.00592553615570068
1.40051257610321045 5.02778530120849609 -0.953149676322937012
0.044487491250038147 3.60449719429016113 -1.06330859661102295
1.23279190063476562 3.82209515571594238 -1.08070611953735352
1.77452313899993896 5.07972192764282227 0.266407221555709839
2.9065401554107666 5.51548385620117188 -0.769159376621246338
3.08487343788146973 4.14368104934692383 -1.01146483421325684
-0.255544453859329224 1.94403910636901855 -1.06071901321411133
1.21296370029449463 5.79391241073608398 -0.69892275333404541
0.486935466527938843 6.01587200164794922 -0.496558427810668945
1.22306036949157715 4.73568296432495117 0.681810915470123291
2.28785371780395508 5.03618431091308594 -0.368554830551147461
0.698198914527893066 3.28889155387878418 -1.08016073703765869
-0.55101168155670166 1.29266977310180664 -1.004158616065979
2.10805606842041016 4.99930858612060547 -1.05245387554168701
0.644090533256530762 3.94501233100891113 -0.900880813598632812
0.881886899471282959 2.24241256713867188 -1.06067788600921631
-0.0602534189820289612 2.99236249923706055 -0.856254220008850098
1.23035764694213867 4.43211221694946289 -1.00145053863525391
1.60547375679016113 5.40185785293579102 -0.470574140548706055
0.888619005680084229 4.98932647705078125 0.279735833406448364
-0.858285903930664062 2.31863045692443848 -0.972903728485107422
-0.280294358730316162 2.48881196975708008 -0.970343708992004395
1.1190025806427002 2.72735047340393066 -0.984613537788391113
1.8283458948135376 4.86558198928833008 -0.625029146671295166
2.60856127738952637 4.40514993667602539 -0.675851285457611084
1.68187212944030762 4.35188198089599609 -0.861823618412017822
2.43620753288269043 4.59696340560913086 -1.1037132740020752
0.981764018535614014 5.83234739303588867 -0.296884626150131226
3.88395357131958008 5.9483952522277832 -1.12281453609466553
2.57559490203857422 5.80718278884887695 -0.676859855651855469
2.40042471885681152 5.34059667587280273 -0.665370166301727295
3.33026313781738281 5.27648019790649414 -0.937627196311950684
1.39708936214447021 5.01723337173461914 0.0604506731033325195
0.229715585708618164 2.9717261791229248 -1.17311882972717285
3.07252025604248047 4.90326690673828125 -0.784271359443664551
-0.656244635581970215 1.78691637516021729 -1.05583715438842773
1.11052250862121582 6.12595462799072266 -0.924637913703918457
1.05163967609405518 5.41423797607421875 -0.706274867057800293
0.814646661281585693 1.85885488986968994 -1.17472338676452637
3.19773554801940918 4.50808811187744141 -1.14949607849121094
1.48499929904937744 5.53177165985107422 -0.842517733573913574
0.726842284202575684 2.89234066009521484 -1.04638779163360596
1.6365056037902832 5.74266624450683594 -0.284948736429214478
2.0767357349395752 5.36215925216674805 -0.381440639495849609
2.71028661727905273 4.21704435348510742 -1.07672607898712158
1.35023403167724609 3.14186644554138184 -0.935335874557495117
1.30268871784210205 5.55599832534790039 -0.20265495777130127
0.31491968035697937 3.38439631462097168 -0.922192275524139404
-0.198008447885513306 3.31821870803833008 -0.9706612229347229
-0.529768466949462891 2.28913974761962891 -0.783870339393615723
2.29795312881469727 3.990936279296875 -1.03609991073608398
2.30962896347045898 4.54835748672485352 -0.538416087627410889
1.42786681652069092 4.14646005630493164 -1.07345426082611084
1.56482827663421631 5.10317611694335938 -0.653743267059326172
-0.200315967202186584 2.79488778114318848 -1.11859130859375
0.254337936639785767 3.87128996849060059 -0.981330990791320801
0.706474900245666504 2.54312753677368164 -1.05325770378112793
-0.0629784464836120605 2.27095460891723633 -1.11702442169189453
0.822005271911621094 5.6520233154296875 -0.630874454975128174
2.59589767456054688 5.15352249145507812 -0.462340652942657471
-0.398139894008636475 3.01753997802734375 -0.957185208797454834
2.01677823066711426 4.7237391471862793 -0.861065089702606201
1.04244709014892578 3.05760478973388672 -1.03267884254455566
-0.371649563312530518 1.61460030078887939 -1.03610432147979736
3.3924407958984375 6.15895318984985352 -0.952327728271484375
-0.615833282470703125 2.12639856338500977 -1.07092428207397461
-0.612686872482299805 2.49388027191162109 -1.07461690902709961
0.444274842739105225 4.15473031997680664 -1.03190243244171143
0.892297625541687012 5.89792585372924805 -0.889156043529510498
1.31393218040466309 5.49092531204223633 -0.537703037261962891
3.18076515197753906 5.65128326416015625 -0.740110516548156738
-1.05912315845489502 2.13852643966674805 -1.09760141372680664
-0.889540493488311768 2.61310076713562012 -0.996361315250396729
1.08837652206420898 1.95246553421020508 -1.10883021354675293
-0.0926113128662109375 2.34288525581359863 -0.801377058029174805
2.2830655574798584 4.77113199234008789 -0.936067700386047363
2.93419694900512695 4.37319040298461914 -0.971712291240692139
0.0359845161437988281 2.67384767532348633 -1.04493534564971924
1.95409226417541504 4.29528379440307617 -1.0343325138092041
2.05280661582946777 4.51901149749755859 -0.685445785522460938
0.455016136169433594 2.88030219078063965 -1.05812716484069824
1.64155721664428711 4.55425453186035156 -1.02301359176635742
2.2429194450378418 4.79957294464111328 -0.565554022789001465
1.8582308292388916 5.4483795166015625 -0.509865403175354004
2.47177553176879883 5.60375690460205078 -0.793721199035644531
0.573463320732116699 2.32759666442871094 -1.04737186431884766
0.959590673446655273 2.55222177505493164 -1.06600749492645264
1.65242505073547363 5.3466191291809082 -0.83675849437713623
-0.141720950603485107 3.04663729667663574 -1.08471643924713135
3.13562345504760742 4.87666845321655273 -1.0225297212600708
2.39282870292663574 4.43011569976806641 -0.790693998336791992
1.97052609920501709 5.56787490844726562 -0.299372494220733643
1.90772652626037598 4.29613304138183594 -0.787391364574432373
0.686572730541229248 4.17887067794799805 -0.954177260398864746
2.32059526443481445 5.56065273284912109 -0.377765387296676636
1.63393568992614746 4.90353012084960938 -0.772966742515563965
0.103772692382335663 3.27173447608947754 -0.935092389583587646
0.69951927661895752 5.76898908615112305 -0.461924523115158081
-0.414211481809616089 2.79175186157226562 -0.88055884838104248
-0.598323404788970947 1.5633009672164917 -0.98269963264465332
1.88304984569549561 5.09472417831420898 -0.602547705173492432
1.16279208660125732 5.59094524383544922 -0.815950095653533936
1.42540931701660156 5.33613109588623047 -0.726140379905700684
1.03347432613372803 6.32144308090209961 -1.02945446968078613
1.48066580295562744 4.46747636795043945 -0.877342820167541504
1.73018765449523926 4.90329456329345703 -0.42110753059387207
1.82925164699554443 4.60506582260131836 -0.804094612598419189
2.22776293754577637 5.37981271743774414 -0.215438321232795715
0.961998283863067627 5.50412273406982422 -0.520796060562133789
0.427431643009185791 3.97876501083374023 -0.893477678298950195
-0.483229845762252808 2.51509451866149902 -0.891649544239044189
1.00325119495391846 1.64123046398162842 -1.1973729133605957
0.261711955070495605 3.58582806587219238 -0.85793989896774292
0.182411089539527893 2.81336688995361328 -0.968740105628967285
2.17471742630004883 4.1010737419128418 -0.750894427299499512
0.330428242683410645 3.26558208465576172 -1.10044634342193604
0.0347009599208831787 2.09565973281860352 -1.04507637023925781
0.177863240242004395 2.47390413284301758 -1.05268478393554688
1.59774041175842285 4.95497798919677734 0.0704243257641792297
3.12608194351196289 4.43780326843261719 -0.91586911678314209
-0.122433505952358246 3.48079347610473633 -1.08938181400299072
-0.511673688888549805 1.45131266117095947 -1.13195455074310303
-0.496305763721466064 2.30501556396484375 -0.985002517700195312
3.4185028076171875 5.06848526000976562 -0.85641169548034668
-0.499061048030853271 2.66310572624206543 -1.03022634983062744
0.801980853080749512 5.91898965835571289 -0.332903593778610229
1.05942833423614502 5.78865146636962891 -0.908553361892700195
-0.885307252407073975 2.11683511734008789 -1.00771141052246094
0.941622138023376465 6.08427333831787109 -1.01586687564849854
1.95796823501586914 4.91107988357543945 -0.85578608512878418
0.74777519702911377 3.08387565612792969 -1.01026022434234619
0.521383821964263916 2.69282078742980957 -1.0703585147857666
2.08226299285888672 4.15009880065917969 -1.02963829040527344
-0.483020484447479248 1.86529302597045898 -1.06208944320678711
1.88376331329345703 5.18896198272705078 0.157167002558708191
0.24510657787322998 2.73140811920166016 -1.12652742862701416
-0.964661180973052979 1.94254207611083984 -0.954205691814422607
-0.720425128936767578 2.46727657318115234 -0.923327803611755371
3.4449760913848877 5.29367685317993164 -0.79292452335357666
1.09063231945037842 5.69988679885864258 -0.227164626121520996
1.00454807281494141 5.64452075958251953 -0.655781447887420654
2.29299163818359375 4.24417304992675781 -0.736752331256866455
-0.717541515827178955 2.66310572624206543 -1.03022634983062744
-0.0568330511450767517 3.21446323394775391 -1.01894152164459229
0.59785538911819458 5.88432979583740234 -0.556858181953430176
0.446672201156616211 3.05635762214660645 -1.059914231300354
2.36353373527526855 5.30306911468505859 -0.497386664152145386
-0.245942965149879456 2.62525582313537598 -1.12684595584869385
2.32284760475158691 5.48094797134399414 -0.595235347747802734
-0.881829142570495605 2.4535677433013916 -1.08136975765228271
-0.665897786617279053 1.95895886421203613 -1.07814621925354004
-0.0629229918122291565 2.88885211944580078 -1.06968271732330322
-0.247283816337585449 2.29764652252197266 -0.860903263092041016
0.260116517543792725 2.67517638206481934 -0.903161048889160156
0.952788591384887695 5.73296737670898438 -0.432905912399291992
1.47786986827850342 5.38423728942871094 -0.359804630279541016
1.57659173011779785 4.86926937103271484 -0.616774082183837891
0.870471358299255371 2.98983907699584961 -1.07941102981567383
1.37665688991546631 5.18287563323974609 -0.892463564872741699
0.736484289169311523 2.36716222763061523 -1.05591964721679688
-0.560373842716217041 3.05965018272399902 -0.949812054634094238
2.05262374877929688 4.4047083854675293 -0.808153390884399414
1.99482977390289307 5.06146240234375 -0.945778071880340576
1.40671324729919434 4.91433906555175781 -0.83038032054901123
-0.510895609855651855 2.92048954963684082 -1.0311424732208252
0.460256040096282959 2.77095365524291992 -0.934674620628356934
-0.092594444751739502 2.57162666320800781 -1.04630148410797119
0.832917213439941406 2.65422940254211426 -1.06820356845855713
0.42797619104385376 3.82013535499572754 -0.925597667694091797
1.16475188732147217 5.723297119140625 -0.563097357749938965
0.854875683784484863 3.2906496524810791 -1.0533149242401123
1.18744754791259766 5.56375551223754883 -0.597983956336975098
1.41717100143432617 4.37099933624267578 -0.984602212905883789
2.19231510162353516 4.53293991088867188 -0.75360560417175293
-0.672033250331878662 1.3557746410369873 -0.929817438125610352
1.11413884162902832 1.7719109058380127 -1.19547927379608154
0.98102104663848877 2.04283642768859863 -1.04650521278381348
0.277924597263336182 2.52537727355957031 -1.17122185230255127
-0.72572171688079834 2.29797196388244629 -1.04473292827606201
0.375859975814819336 2.79977154731750488 -1.15802669525146484
3.2968440055847168 5.15149211883544922 -0.82665705680847168
3.73079824447631836 6.15552425384521484 -0.942267954349517822
0.188453376293182373 2.63012003898620605 -1.0253596305847168
3.4828498363494873 4.98031330108642578 -0.742091953754425049
0.619906783103942871 2.99024128913879395 -1.06678926944732666
-0.340552747249603271 1.92962062358856201 -0.942811071872711182
-0.0669304728507995605 3.34652090072631836 -1.08501267433166504
-0.405427038669586182 1.988028883934021 -1.06493020057678223
0.499054372310638428 2.54931640625 -1.04940497875213623
-0.466143190860748291 1.39346969127655029 -0.945719003677368164
1.18872702121734619 5.42751932144165039 -0.665710508823394775
-0.897436201572418213 2.47560477256774902 -0.94235152006149292
-0.135103762149810791 2.79735517501831055 -0.989707529544830322
1.02546191215515137 6.17378139495849609 -1.08607387542724609
1.76932287216186523 4.51945066452026367 -0.975533962249755859
-0.903367221355438232 2.21796202659606934 -1.10156166553497314
0.838918924331665039 2.8217475414276123 -1.08741617202758789
0.403419196605682373 4.01370668411254883 -1.02535629272460938
0.326943516731262207 3.1449129581451416 -1.1681445837020874
-0.183381259441375732 2.49267244338989258 -0.872123241424560547
0.277611374855041504 2.87469220161437988 -1.04706823825836182
0.927330672740936279 1.9374006986618042 -1.17218530178070068
1.61819338798522949 4.43537330627441406 -0.962816476821899414
2.46508955955505371 5.12049531936645508 -0.455043137073516846
1.05555212497711182 1.83753859996795654 -1.04849648475646973
-0.391928613185882568 2.59075927734375 -0.996373653411865234
0.576165199279785156 2.82885384559631348 -1.03836953639984131
0.303570210933685303 2.43118858337402344 -1.0491635799407959
2.45593690872192383 5.75459957122802734 -0.656082391738891602
0.367953896522521973 2.72150278091430664 -1.05160999298095703
-0.626602053642272949 2.39750909805297852 -0.98596268892288208
2.06097126007080078 4.2459568977355957 -0.941941618919372559
-0.170042872428894043 2.36677718162536621 -0.941752254962921143
0.648403525352478027 4.05120325088500977 -0.977543056011199951
1.07883334159851074 5.91173648834228516 -0.947191774845123291
0.184015423059463501 3.369781494140625 -0.961573362350463867
-0.00842154771089553833 2.91585707664489746 -0.955596864223480225
1.52225184440612793 4.9824986457824707 -0.672093808650970459
-0.313648253679275513 1.99563086032867432 -1.16339969635009766
0.63435053825378418 4.17609500885009766 -1.07135331630706787
-1.02953851222991943 2.21619462966918945 -1.00137269496917725
-0.642627894878387451 1.38085627555847168 -1.05068731307983398
-0.412100732326507568 1.42617058753967285 -1.05771362781524658
1.52771532535552979 4.87350130081176758 -0.832338154315948486
1.30741024017333984 4.17798900604248047 -1.06071305274963379
-0.520919322967529297 2.78190302848815918 -1.04288101196289062
1.31956148147583008 5.45208406448364258 -0.65202409029006958
0.3412131667137146 2.62799477577209473 -1.16817569732666016
0.507109701633453369 4.0682215690612793 -0.903769731521606445
-0.732336044311523438 2.54450273513793945 -1.0412440299987793
-0.174973577260971069 3.21871685981750488 -1.03860485553741455
0.476994633674621582 4.20193195343017578 -0.928701043128967285
-0.377944678068161011 2.9012913703918457 -0.952723264694213867
1.27944111824035645 4.38926219940185547 -0.903448224067687988
0.605729401111602783 2.60166001319885254 -1.04439663887023926
1.9325101375579834 4.26943778991699219 -0.922645628452301025
-0.104574516415596008 3.38779044151306152 -0.972876667976379395
2.29046297073364258 5.76874589920043945 -0.405707895755767822
2.01433396339416504 4.82428646087646484 -0.917263627052307129
-0.0625164508819580078 2.73265361785888672 -1.05408406257629395
-0.577720999717712402 1.41582095623016357 -0.962416410446166992
-0.72991180419921875 2.33484864234924316 -0.936898529529571533
-0.780278325080871582 2.43927288055419922 -1.01540398597717285
