ply
format ascii 1.0
element vertex 9
comment vertices
property float x
property float y
property float z
end_header
0.133125782012939453 3.86064767837524414 -3.32814455032348633
0 7.58816957473754883 -2.92876720428466797
0.931880474090576172 4.12689924240112305 -3.19501876831054688
0.399377346038818359 4.65940237045288086 -3.86064767837524414
-0.399377346038818359 5.99066019058227539 -3.72752189636230469
0.931880474090576172 7.32191801071166992 -2.92876720428466797
1.46438360214233398 4.79252815246582031 -3.86064767837524414
-0.399377346038818359 4.65940237045288086 -4.12689924240112305
0.266251564025878906 4.52627658843994141 -3.32814455032348633
