ply
format ascii 1.0
element vertex 256
comment vertices
property float x
property float y
property float z
end_header
0.551813185214996338 2.02374458312988281 -1.54102194309234619
3.94588685035705566 6.36850070953369141 -0.671564221382141113
0.797499775886535645 6.47283458709716797 -1.3663489818572998
0.102716840803623199 4.18671607971191406 -0.291734755039215088
2.76898288726806641 4.30140161514282227 -1.16299450397491455
-1.50812113285064697 2.35017991065979004 -0.42283669114112854
1.6898418664932251 5.7487645149230957 0.140491202473640442
2.1781764030456543 2.68504667282104492 -1.63755285739898682
-0.873057961463928223 1.17759716510772705 -1.51260089874267578
1.35643100738525391 4.438629150390625 -0.966217875480651855
-0.442279040813446045 2.97555208206176758 -1.11550939083099365
3.06539511680603027 5.41569662094116211 -0.169769018888473511
1.06103610992431641 3.12243366241455078 -0.927816152572631836
2.06843829154968262 5.37565803527832031 -1.03768384456634521
-1.53161704540252686 2.13812971115112305 -1.67446684837341309
0.841714024543762207 6.48835039138793945 -0.193672612309455872
1.51164746284484863 1.38258051872253418 -1.5146254301071167
3.14127588272094727 5.30421876907348633 -1.46270012855529785
1.77561342716217041 3.80379295349121094 -1.6723179817199707
-0.349501848220825195 1.96376311779022217 -1.03931009769439697
-0.0143469870090484619 3.91909193992614746 -1.23095822334289551
0.0676955133676528931 1.17766141891479492 -1.60906410217285156
1.30809080600738525 5.98613643646240234 -0.804937839508056641
-0.548514246940612793 3.32661724090576172 -0.299308478832244873
0.595579922199249268 4.72749662399291992 -1.25563478469848633
1.40159690380096436 2.22841525077819824 -1.54997074604034424
2.34748172760009766 5.76575660705566406 -0.35259285569190979
1.41951847076416016 3.06754112243652344 -1.67274022102355957
0.343744754791259766 2.61979222297668457 -1.04098629951477051
-1.08481502532958984 2.50441932678222656 -1.11181747913360596
2.70637035369873047 4.91632699966430664 -0.704706072807312012
3.91042065620422363 6.01491069793701172 -1.31314754486083984
2.58305025100708008 4.8762969970703125 -1.65428328514099121
-1.11276745796203613 1.79711306095123291 -0.94840240478515625
2.33054471015930176 5.15672540664672852 0.0304181277751922607
-0.516855776309967041 1.29816651344299316 -0.849267363548278809
0.851586639881134033 2.66100740432739258 -1.58359062671661377
0.725602149963378906 1.31117057800292969 -1.53935253620147705
-1.01631391048431396 2.80536103248596191 -0.397339135408401489
1.99364995956420898 4.45307731628417969 -1.09628176689147949
0.319417417049407959 1.74633526802062988 -1.00424575805664062
2.22304797172546387 3.34602785110473633 -1.60312902927398682
0.506504058837890625 4.66731643676757812 -0.429551184177398682
-0.11896466463804245 1.86684083938598633 -1.62753748893737793
1.75547134876251221 5.59903192520141602 -0.5015755295753479
0.554610252380371094 4.14026880264282227 -1.03267812728881836
-0.286727368831634521 3.57854247093200684 -0.788892865180969238
1.30339491367340088 6.09357404708862305 -0.140172064304351807
3.13360691070556641 5.30816173553466797 -0.803241550922393799
1.01660013198852539 2.53498268127441406 -1.04735291004180908
0.76170039176940918 6.47876119613647461 -0.75910574197769165
-1.18197035789489746 1.64368581771850586 -1.59432363510131836
2.24111151695251465 5.23740530014038086 -0.513619303703308105
1.54706346988677979 3.16359043121337891 -1.17285263538360596
2.47863602638244629 5.0392155647277832 -1.16082167625427246
-1.52313446998596191 2.23866558074951172 -1.00990355014801025
1.09531307220458984 1.6973264217376709 -1.53532624244689941
3.07397127151489258 4.49150180816650391 -1.53336191177368164
-0.393304646015167236 1.27888882160186768 -1.35865819454193115
-0.748806416988372803 3.09550714492797852 -0.720072031021118164
-0.458052635192871094 2.48199748992919922 -0.99632871150970459
-0.218511998653411865 3.70649099349975586 -0.239389300346374512
-0.906387984752655029 2.51925754547119141 -1.58185672760009766
0.131901010870933533 4.25180530548095703 -0.819756388664245605
0.676779210567474365 2.1902618408203125 -1.08528721332550049
1.76120114326477051 1.79562664031982422 -1.56739282608032227
0.120739176869392395 2.20378565788269043 -0.969627141952514648
1.65239214897155762 2.66763806343078613 -1.57121562957763672
1.22261548042297363 6.27550220489501953 -1.30267131328582764
1.92338621616363525 5.38437414169311523 -0.0489943176507949829
0.340478807687759399 1.60555028915405273 -1.57443654537200928
0.6159820556640625 3.04269003868103027 -1.03420412540435791
1.08835184574127197 6.24921464920043945 -0.502638757228851318
1.84282231330871582 2.26343774795532227 -1.56242203712463379
1.42007267475128174 3.50459170341491699 -1.64217782020568848
-0.181417837738990784 3.3434445858001709 -1.1355893611907959
0.971025347709655762 2.21143722534179688 -1.53139734268188477
0.356114685535430908 3.75993537902832031 -1.04191148281097412
-0.088129289448261261 3.93747138977050781 -0.582106828689575195
2.60388970375061035 5.02950763702392578 -0.306889086961746216
-0.857454836368560791 2.69153213500976562 -0.796869158744812012
-0.84367525577545166 2.91811132431030273 -1.23863601684570312
1.69922244548797607 4.6331171989440918 -0.827775776386260986
-0.221707612276077271 2.25001931190490723 -1.51380074024200439
-0.466100096702575684 1.5712134838104248 -1.64036405086517334
0.546005845069885254 4.71018457412719727 -0.853016018867492676
3.04061508178710938 4.57935047149658203 -1.0461040735244751
-0.0405729040503501892 2.59074258804321289 -0.918392598628997803
-0.727289855480194092 2.02506256103515625 -1.16418349742889404
2.14046716690063477 5.59865045547485352 -0.653233826160430908
1.90253448486328125 2.96500492095947266 -1.66566944122314453
3.01526331901550293 4.8757481575012207 -1.58718383312225342
-1.30753421783447266 2.31028223037719727 -1.36585307121276855
1.04106593132019043 6.30246162414550781 -0.958213567733764648
1.21343147754669189 2.56536602973937988 -1.5249936580657959
-0.0978208780288696289 1.68115901947021484 -1.03357517719268799
-1.17311525344848633 2.5476381778717041 -0.646093010902404785
0.567169487476348877 2.39990043640136719 -1.52618181705474854
0.290797680616378784 2.19155502319335938 -1.32775783538818359
1.54844951629638672 5.81935024261474609 -0.202594280242919922
-0.827190756797790527 1.53555023670196533 -1.44068753719329834
-0.534321725368499756 1.63807547092437744 -0.988664448261260986
-0.115540102124214172 1.54039990901947021 -1.460357666015625
1.03703629970550537 2.97167253494262695 -1.63598942756652832
1.04101300239562988 6.30674076080322266 0.0531312078237533569
-1.14941000938415527 2.00249218940734863 -1.6007540225982666
1.59730219841003418 5.69788122177124023 -0.804929792881011963
1.69639909267425537 3.28756833076477051 -1.67631423473358154
3.07339787483215332 5.06062173843383789 -0.562720775604248047
2.43762516975402832 5.10364770889282227 -0.818320393562316895
1.1810612678527832 1.34687793254852295 -1.59639668464660645
3.10343790054321289 5.42158317565917969 -1.14358627796173096
-0.537954509258270264 3.354278564453125 -0.649658203125
3.19096517562866211 5.43405723571777344 -0.483390331268310547
0.667618930339813232 1.66716861724853516 -1.55782127380371094
1.41613149642944336 5.87423849105834961 -0.511411964893341064
0.323604583740234375 4.41157245635986328 -0.524984538555145264
1.94205868244171143 5.77958822250366211 -0.303115487098693848
0.964815080165863037 2.86173677444458008 -1.09568297863006592
0.378641366958618164 4.496673583984375 -0.185744538903236389
-0.835827767848968506 2.3069922924041748 -1.04854118824005127
2.08073186874389648 3.63563108444213867 -1.60863256454467773
0.657827615737915039 2.72678351402282715 -1.05316805839538574
1.33603274822235107 1.90160071849822998 -1.56731390953063965
-0.236620649695396423 1.09344577789306641 -1.58002102375030518
0.18675464391708374 4.14306402206420898 -1.11239361763000488
-0.0480570197105407715 3.71684598922729492 -0.944661974906921387
-0.598107814788818359 1.04006314277648926 -1.57894313335418701
2.69797277450561523 4.90418004989624023 -1.33686912059783936
2.2411496639251709 2.98249268531799316 -1.57017064094543457
-0.824713349342346191 3.04176592826843262 -0.344827771186828613
0.442878842353820801 4.40457820892333984 -0.91869056224822998
-0.141681835055351257 4.00425863265991211 -0.236234024167060852
-0.260519683361053467 1.42679369449615479 -1.04167020320892334
-1.22025859355926514 2.5832359790802002 -0.349955439567565918
2.23500585556030273 5.21175479888916016 -1.2279740571975708
2.57715702056884766 4.9857020378112793 0.0425098612904548645
-0.441487699747085571 3.16812586784362793 -0.864246368408203125
0.882759511470794678 1.9261777400970459 -1.5334019660949707
0.413534373044967651 2.3061671257019043 -1.00510740280151367
1.69761574268341064 4.46931171417236328 -1.07859122753143311
-1.41520631313323975 2.35348796844482422 -0.76227116584777832
-0.297042042016983032 2.74730014801025391 -1.00420081615447998
-0.396825551986694336 3.5412449836730957 -0.425350308418273926
1.26533722877502441 2.9867398738861084 -1.07556962966918945
-0.161774516105651855 2.21011590957641602 -1.01461315155029297
0.787522614002227783 6.47754383087158203 -1.08101189136505127
2.15042519569396973 5.27122402191162109 -0.780276179313659668
-0.828372597694396973 2.62185835838317871 -1.08361363410949707
1.50662040710449219 5.88834047317504883 -0.992171406745910645
0.872614443302154541 3.31776189804077148 -1.00266814231872559
3.98544931411743164 6.3423771858215332 -0.947965383529663086
-0.154547736048698425 3.07101011276245117 -1.08420979976654053
1.25970900058746338 6.11919450759887695 -1.08243751525878906
-0.691974520683288574 3.01862025260925293 -1.01501274108886719
-0.575031757354736328 1.20654618740081787 -1.16922998428344727
0.90160292387008667 1.51446473598480225 -1.59166467189788818
1.43256795406341553 5.92319917678833008 0.0280757397413253784
0.394283592700958252 2.88626933097839355 -1.06059551239013672
-0.0474539846181869507 3.98855781555175781 -0.942998170852661133
2.66125178337097168 4.93752574920654297 -0.989073753356933594
0.0686132311820983887 1.95228099822998047 -1.05385339260101318
0.305727064609527588 1.87020266056060791 -1.55272126197814941
1.11250030994415283 4.46679782867431641 -0.864317238330841064
0.779320716857910156 2.42294836044311523 -1.00497710704803467
0.346986532211303711 2.06586575508117676 -1.09323084354400635
0.310687899589538574 1.26707696914672852 -1.55669891834259033
1.37802577018737793 2.7321774959564209 -1.64606547355651855
-0.580264270305633545 1.30296933650970459 -1.58891010284423828
-1.40262258052825928 2.50510525703430176 -1.21610426902770996
-1.02995312213897705 1.40589439868927002 -1.54765772819519043
-0.732138633728027344 1.44019222259521484 -0.892311334609985352
2.29306817054748535 5.3303065299987793 -0.159648716449737549
1.07773923873901367 6.24028301239013672 -0.193428188562393188
1.66481828689575195 3.57843971252441406 -1.62017357349395752
-0.569993257522583008 2.71219158172607422 -0.999588489532470703
0.0881203413009643555 2.00466632843017578 -1.55422604084014893
-1.50580334663391113 2.1830742359161377 -1.26947879791259766
0.115419112145900726 1.56868851184844971 -1.11398208141326904
0.00323067605495452881 3.66579151153564453 -1.22085559368133545
1.79834127426147461 5.54980325698852539 -0.759518623352050781
1.95546948909759521 5.79496335983276367 -0.556057214736938477
-0.140452757477760315 1.35984885692596436 -1.63137531280517578
2.05135035514831543 3.16783833503723145 -1.59362328052520752
-1.40761721134185791 1.92828249931335449 -1.66025972366333008
0.125591367483139038 4.23098850250244141 -0.577172756195068359
2.10942363739013672 5.42795848846435547 -0.43869626522064209
1.59441852569580078 2.08474230766296387 -1.55075085163116455
1.59448504447937012 2.89700722694396973 -1.59692549705505371
0.846045851707458496 6.43402957916259766 -0.541856467723846436
1.34450769424438477 1.54245579242706299 -1.56652367115020752
2.35835528373718262 5.72797584533691406 -0.586168050765991211
1.79797685146331787 5.66889476776123047 -0.0536612346768379211
-0.793323636054992676 1.79862725734710693 -1.15616655349731445
1.59506809711456299 2.45174622535705566 -1.6413956880569458
2.01292562484741211 2.42214179039001465 -1.5446847677230835
0.113085120916366577 1.40280115604400635 -1.57509160041809082
-0.27206847071647644 3.55421042442321777 -1.10514962673187256
3.16905879974365234 5.210968017578125 -1.21310913562774658
2.44487714767456055 5.91408538818359375 -0.207398265600204468
-0.996460020542144775 2.51837635040283203 -0.900762677192687988
1.14933252334594727 3.1710810661315918 -1.62457072734832764
0.16650688648223877 2.4745945930480957 -1.03902804851531982
1.02205932140350342 6.43679189682006836 -1.33874738216400146
-0.521771788597106934 1.82902371883392334 -1.11450338363647461
1.54230964183807373 1.73440849781036377 -1.56688570976257324
-0.89387214183807373 2.91656064987182617 -0.552830040454864502
-0.247166723012924194 3.75021004676818848 -0.458393722772598267
1.96690666675567627 3.91465234756469727 -1.63283753395080566
0.988184034824371338 6.34654092788696289 -0.745299458503723145
-0.801272094249725342 1.37411618232727051 -1.59339749813079834
-0.881348848342895508 2.28564190864562988 -1.26496481895446777
2.7946476936340332 4.82143306732177734 -1.61839067935943604
-0.834087550640106201 2.85676741600036621 -0.964056491851806641
1.95079731941223145 5.56114625930786133 -0.301236629486083984
1.50186359882354736 4.30289459228515625 -1.05463218688964844
-1.01099216938018799 2.70026350021362305 -0.645545005798339844
-1.33732175827026367 2.22720932960510254 -1.64940178394317627
1.92997574806213379 5.50863552093505859 -0.583159327507019043
2.43653202056884766 5.16003179550170898 -0.310031324625015259
2.2324833869934082 5.24821376800537109 -0.996603488922119141
3.11613106727600098 5.23648643493652344 -1.00016379356384277
1.58195948600769043 5.77175474166870117 -0.432633936405181885
2.20804905891418457 5.80493450164794922 -0.71109086275100708
0.407111912965774536 4.510986328125 -0.741796016693115234
0.392356574535369873 4.13213300704956055 -1.16486215591430664
-0.878220915794372559 1.31569671630859375 -1.35532796382904053
2.37480998039245605 5.08610677719116211 -1.33496558666229248
-0.0550909042358398438 2.42939162254333496 -1.04830849170684814
-0.135413169860839844 2.00440502166748047 -1.02053594589233398
1.34038341045379639 3.15977048873901367 -1.16747629642486572
0.435263991355895996 4.23586177825927734 -0.799592435359954834
-0.255524516105651855 3.38993430137634277 -0.94858020544052124
0.892450153827667236 3.03903293609619141 -1.01154708862304688
2.1050260066986084 5.38220405578613281 -0.22341686487197876
0.46730649471282959 2.20469093322753906 -1.49649810791015625
-0.599682092666625977 1.39854836463928223 -1.0420691967010498
-0.625948786735534668 3.26364326477050781 -0.491199851036071777
-1.00174081325531006 1.70837748050689697 -1.52804791927337646
0.189177289605140686 2.61493420600891113 -0.89492565393447876
0.861700057983398438 1.71748948097229004 -1.58343505859375
1.91162383556365967 3.52504611015319824 -1.61147212982177734
0.209898173809051514 4.06708621978759766 -0.841512322425842285
1.20324432849884033 6.18892955780029297 0.0334320366382598877
0.573437213897705078 4.72505712509155273 -0.654010474681854248
0.521284818649291992 2.53313493728637695 -1.00435853004455566
0.566260039806365967 4.75396108627319336 -1.04798650741577148
1.23452842235565186 6.16596269607543945 -0.393638789653778076
-0.434204369783401489 1.15159058570861816 -1.55942928791046143
1.07474899291992188 2.45285344123840332 -1.61278343200683594
-1.200927734375 2.49284815788269043 -0.835295617580413818
0.850940287113189697 6.52236175537109375 0.00198090821504592896
1.74522030353546143 5.67774057388305664 -0.319401532411575317
2.71775197982788086 5.02711200714111328 -0.091314464807510376
0.839226603507995605 2.85698318481445312 -1.55640184879302979
1.48097801208496094 3.32100868225097656 -1.68329381942749023
