ply
format ascii 1.0
element vertex 256
comment vertices
property float x
property float y
property float z
end_header
0.425274074077606201 1.90871667861938477 -1.60794103145599365
3.88445878028869629 6.3108978271484375 -0.688714027404785156
0.758252263069152832 6.47119522094726562 -1.32504940032958984
0.0742826536297798157 4.18311214447021484 -0.275834500789642334
2.75043034553527832 4.26241827011108398 -1.08075606822967529
-1.52923667430877686 2.3509678840637207 -0.468678146600723267
1.65867054462432861 5.78633642196655273 0.227128729224205017
2.01942873001098633 2.6287229061126709 -1.62832522392272949
-0.827926158905029297 1.04410779476165771 -1.54634785652160645
1.32647573947906494 4.58207321166992188 -0.907348334789276123
0.765459060668945312 3.11983680725097656 -1.0514531135559082
2.73455333709716797 5.05317211151123047 -0.0365660190582275391
-0.498247325420379639 3.00521206855773926 -0.927208304405212402
1.61551773548126221 1.44476234912872314 -1.49989545345306396
3.11375713348388672 5.4493861198425293 -1.12888741493225098
-1.52564144134521484 2.18193674087524414 -1.67015480995178223
0.817783772945404053 6.54791927337646484 -0.0564910843968391418
1.7458341121673584 3.782745361328125 -1.64507806301116943
2.08393073081970215 5.40938758850097656 -0.840596199035644531
-0.355943977832794189 1.92583954334259033 -0.917639017105102539
1.32736754417419434 5.99583673477172852 -0.775932669639587402
-0.0122542977333068848 3.79011654853820801 -1.08498811721801758
1.11420571804046631 2.49941658973693848 -1.60346496105194092
2.45288515090942383 5.90825605392456055 -0.209173798561096191
2.63677215576171875 4.90695333480834961 -1.64399111270904541
-0.479275435209274292 3.52069640159606934 -0.2591438889503479
0.557364106178283691 4.70715141296386719 -1.20971536636352539
-0.0184910111129283905 1.18758618831634521 -1.50766932964324951
0.193195819854736328 2.51001143455505371 -1.07375884056091309
-1.03659796714782715 2.46216773986816406 -1.09674549102783203
0.882784903049468994 1.28933680057525635 -1.585235595703125
-0.958328604698181152 2.80381965637207031 -0.392522722482681274
2.72125744819641113 4.96098661422729492 -0.731229603290557861
1.9993901252746582 4.39894676208496094 -0.968190252780914307
1.18842995166778564 3.18852138519287109 -1.60430622100830078
-0.991591095924377441 1.7487633228302002 -1.59925949573516846
-0.620958983898162842 1.27842247486114502 -0.947122931480407715
2.22891879081726074 3.31549286842346191 -1.59528112411499023
3.13266324996948242 5.47385215759277344 -0.376341909170150757
0.501027882099151611 4.69288444519042969 -0.212194055318832397
3.86639785766601562 5.95695209503173828 -1.25134634971618652
1.64185452461242676 2.09607553482055664 -1.60120344161987305
-1.06387519836425781 1.85279035568237305 -0.926555395126342773
2.11550712585449219 5.38739490509033203 -0.181658804416656494
0.386872202157974243 4.17775678634643555 -0.821773648262023926
1.26110684871673584 6.12362098693847656 -0.0813224539160728455
0.122712552547454834 1.54763329029083252 -1.04369068145751953
-0.154287621378898621 2.0797877311706543 -1.44803857803344727
1.02375853061676025 1.93120384216308594 -1.60571062564849854
0.800406754016876221 6.46069097518920898 -0.619947314262390137
1.66086781024932861 5.70974016189575195 -0.435244262218475342
0.542149126529693604 2.44397330284118652 -1.52531111240386963
3.10370492935180664 4.47767400741577148 -1.44891023635864258
-1.48557519912719727 2.18588685989379883 -1.10429847240447998
2.2598412036895752 5.25263500213623047 -1.30450856685638428
1.70641303062438965 3.16466140747070312 -1.60668599605560303
1.21746575832366943 6.23945188522338867 -1.31509613990783691
0.755484282970428467 2.62416768074035645 -1.0332798957824707
3.08004426956176758 4.59967947006225586 -0.978858411312103271
2.20118331909179688 5.84909343719482422 -0.680855751037597656
0.245474785566329956 2.01103758811950684 -1.04343271255493164
-0.478349953889846802 1.39202260971069336 -1.37985670566558838
-0.223640292882919312 3.73438525199890137 -0.672881484031677246
-0.191617324948310852 3.35083746910095215 -0.936822116374969482
1.51773953437805176 2.74498867988586426 -1.62274754047393799
3.08748960494995117 5.22250223159790039 -1.52282989025115967
0.351219832897186279 2.9385991096496582 -1.06601381301879883
2.59689807891845703 4.96182727813720703 -1.20140111446380615
2.39244413375854492 5.19884586334228516 -0.557635486125946045
2.34038424491882324 5.30666732788085938 0.187208592891693115
0.401499152183532715 1.26755869388580322 -1.57760179042816162
-0.522673666477203369 2.58335375785827637 -0.991312742233276367
-0.676232814788818359 1.67197644710540771 -1.12600529193878174
0.564846813678741455 4.71979045867919922 -0.630645036697387695
-1.17609894275665283 2.47708296775817871 -0.665754199028015137
-0.710622668266296387 3.0962986946105957 -0.568300008773803711
1.07189404964447021 6.29513454437255859 -0.928009569644927979
3.0430750846862793 5.12086105346679688 -0.549679756164550781
-0.937894701957702637 1.4188162088394165 -1.37861526012420654
0.896244287490844727 2.82916140556335449 -1.54272651672363281
-0.275523453950881958 1.42753398418426514 -1.03693616390228271
1.00635099411010742 6.28691387176513672 -0.320765078067779541
-1.29478204250335693 2.62793612480163574 -1.3303220272064209
2.07840418815612793 5.76282596588134766 -0.245856225490570068
1.26639997959136963 1.54194033145904541 -1.61962521076202393
-0.172332048416137695 3.74616074562072754 -0.260694980621337891
1.13045787811279297 3.06911730766296387 -1.12670660018920898
-0.882768213748931885 2.6618194580078125 -0.811028838157653809
0.336454838514328003 3.8231360912322998 -0.925181031227111816
1.31321573257446289 5.94555854797363281 -0.409978091716766357
0.656395792961120605 1.62197995185852051 -1.60695314407348633
3.06329250335693359 4.83971881866455078 -1.40091824531555176
2.41425418853759766 5.1489253044128418 -0.187828287482261658
0.0568344555795192719 4.02034950256347656 -0.791275978088378906
2.35408377647399902 5.17435312271118164 -0.958921670913696289
1.70639944076538086 4.58394241333007812 -0.857672691345214844
-1.32207834720611572 1.88313198089599609 -1.66616702079772949
1.52482092380523682 3.47484230995178223 -1.63330221176147461
-0.088398374617099762 1.64523184299468994 -1.31802213191986084
0.723189711570739746 2.14971375465393066 -1.59222662448883057
1.47831320762634277 5.83889675140380859 -0.0702594593167304993
-0.348786830902099609 1.06943833827972412 -1.52193677425384521
-0.696989536285400391 2.28481078147888184 -1.04419589042663574
0.342146843671798706 4.47090625762939453 -0.427526980638504028
0.497285753488540649 2.35799360275268555 -1.01063156127929688
1.38115513324737549 1.86631536483764648 -1.5982900857925415
1.83271515369415283 1.81084060668945312 -1.58941209316253662
1.95225334167480469 2.29415345191955566 -1.60981512069702148
-0.0824737697839736938 1.96929764747619629 -1.11291706562042236
-0.417526870965957642 3.47502708435058594 -0.588491261005401611
3.1297304630279541 5.28375959396362305 -0.828769803047180176
1.59530484676361084 5.70482015609741211 -0.762651324272155762
0.795532405376434326 6.51188755035400391 -0.996020853519439697
2.05722880363464355 3.60052585601806641 -1.61740124225616455
1.96711456775665283 2.97481155395507812 -1.6800684928894043
2.61993622779846191 4.94135046005249023 -0.337077677249908447
-1.50700151920318604 2.24806642532348633 -0.777426958084106445
-0.0670890957117080688 3.97097229957580566 -0.494736284017562866
1.92976665496826172 5.53217363357543945 -0.474875390529632568
1.34914839267730713 2.28169965744018555 -1.58156108856201172
-0.892018318176269531 2.46178579330444336 -1.38257837295532227
1.21218311786651611 2.80786681175231934 -1.64683353900909424
1.14802825450897217 6.19239902496337891 -0.576390624046325684
1.73868799209594727 5.68693304061889648 -0.111774057149887085
2.26615333557128906 3.00327730178833008 -1.63370215892791748
0.16953587532043457 1.75513577461242676 -1.56355035305023193
-0.781931877136230469 1.95435357093811035 -1.12518501281738281
1.3219832181930542 6.10466670989990234 -1.05627596378326416
-1.27336931228637695 2.33924722671508789 -0.959521889686584473
-1.21398377418518066 2.15507102012634277 -1.65089988708496094
-0.150328353047370911 1.32403314113616943 -1.27785873413085938
1.74155652523040771 2.49035763740539551 -1.61391043663024902
0.373823642730712891 2.22533106803894043 -1.60163843631744385
1.01974952220916748 3.09193515777587891 -1.38734960556030273
-1.50422942638397217 2.16987299919128418 -1.38860249519348145
-0.167731612920761108 1.71540713310241699 -1.03385841846466064
0.837145328521728516 2.49944472312927246 -1.59597444534301758
-0.71929091215133667 2.85312199592590332 -0.986606717109680176
0.482192665338516235 2.6318516731262207 -1.0488591194152832
0.0302251763641834259 1.89591503143310547 -1.3651658296585083
2.3707740306854248 5.7269444465637207 -0.505883574485778809
0.118329808115959167 1.5084381103515625 -1.43018913269042969
1.0038459300994873 6.36612939834594727 0.0183955729007720947
0.996739745140075684 2.25592708587646484 -1.6056056022644043
0.543553292751312256 4.68622636795043945 -0.941651344299316406
1.98009002208709717 5.84685325622558594 -0.479074478149414062
2.26231050491333008 2.718109130859375 -1.56631910800933838
1.02786695957183838 6.42554330825805664 -1.31795072555541992
0.667857170104980469 2.87476181983947754 -1.0829920768737793
0.0224134176969528198 2.20170974731445312 -1.04103970527648926
3.11683154106140137 5.46515560150146484 -0.117639243602752686
0.391489565372467041 4.49055910110473633 -0.680730879306793213
-1.20005393028259277 2.56736254692077637 -0.424579322338104248
1.77884769439697266 3.49152874946594238 -1.67102515697479248
-0.095620959997177124 4.00353050231933594 -0.206592857837677002
0.916296720504760742 1.5421830415725708 -1.61235725879669189
-0.952081799507141113 2.22122454643249512 -1.11508846282958984
-0.690860629081726074 3.19046592712402344 -0.331889420747756958
1.93594121932983398 3.2704157829284668 -1.63982021808624268
1.71377241611480713 2.90236020088195801 -1.62725973129272461
0.109262056648731232 4.13638067245483398 -0.577662229537963867
-1.13023769855499268 1.54546332359313965 -1.56418180465698242
1.55323219299316406 1.69256126880645752 -1.63823139667510986
1.92860877513885498 5.45130300521850586 -0.03275250643491745
-0.452291369438171387 3.30883908271789551 -0.764662623405456543
3.11889863014221191 4.52973222732543945 -1.21079730987548828
-0.736843347549438477 2.94217729568481445 -0.760678231716156006
1.48259735107421875 5.82645511627197266 -0.551330626010894775
1.46401572227478027 5.92741870880126953 -0.971725940704345703
0.968835055828094482 2.90884208679199219 -1.04494595527648926
-0.798326432704925537 1.31430685520172119 -1.54595828056335449
1.79194343090057373 5.58556652069091797 -0.691151440143585205
1.35620427131652832 2.51846694946289062 -1.62263774871826172
1.96341502666473389 3.88112545013427734 -1.62072348594665527
0.656746447086334229 1.21022331714630127 -1.57293486595153809
2.69061851501464844 4.92846775054931641 -0.965470373630523682
0.241875946521759033 4.41260147094726562 -0.220869570970535278
1.47175788879394531 3.19703936576843262 -1.60675930976867676
-0.901693880558013916 2.66448497772216797 -1.04701483249664307
2.54454469680786133 5.1591343879699707 0.0502698794007301331
0.340206056833267212 1.49233806133270264 -1.59309673309326172
0.706240177154541016 1.84959506988525391 -1.59268307685852051
-0.487045556306838989 1.52193498611450195 -1.01437890529632568
3.15910196304321289 5.22473478317260742 -1.16428184509277344
-0.629203498363494873 1.0185474157333374 -1.42985045909881592
1.48466384410858154 5.79221248626708984 -0.309614956378936768
-0.943908452987670898 2.41657733917236328 -0.890195131301879883
2.1476595401763916 5.65402317047119141 -0.576319634914398193
0.210971236228942871 4.01140546798706055 -0.957675457000732422
1.17848694324493408 4.420989990234375 -0.963191986083984375
0.0699145346879959106 2.5629267692565918 -0.892791390419006348
-0.310369938611984253 3.16672921180725098 -0.986063599586486816
1.90988039970397949 2.07474756240844727 -1.61846613883972168
-0.576878905296325684 3.27478480339050293 -0.571516215801239014
1.55065548419952393 2.37312698364257812 -1.59009814262390137
0.351038336753845215 2.22080016136169434 -1.10254192352294922
1.93400096893310547 5.60174560546875 -0.209975242614746094
2.77169942855834961 5.05412721633911133 -0.447252810001373291
3.91893982887268066 6.30269718170166016 -0.903250694274902344
0.188308835029602051 1.98775982856750488 -1.48215651512145996
0.873443961143493652 6.44369745254516602 -0.252142012119293213
0.546325087547302246 1.43042075634002686 -1.57446563243865967
2.48647069931030273 5.15963029861450195 -0.747213423252105713
1.25202691555023193 1.32825314998626709 -1.59848678112030029
1.03014898300170898 6.35578250885009766 -0.726631343364715576
-0.123374439775943756 3.90456247329711914 -0.787655830383300781
0.216773658990859985 1.16352343559265137 -1.56600832939147949
0.503994405269622803 4.66106510162353516 -0.421954810619354248
-0.857149362564086914 2.91336750984191895 -0.543300926685333252
2.2379612922668457 5.28037834167480469 -0.676206290721893311
2.60413670539855957 5.03644466400146484 -0.575842320919036865
1.16898441314697266 1.7821199893951416 -1.62057089805603027
3.03673052787780762 5.37873935699462891 -0.668355107307434082
1.38894820213317871 5.92854928970336914 0.0949752256274223328
0.276110589504241943 2.69908905029296875 -1.0782473087310791
1.73419308662414551 2.69795107841491699 -1.62402200698852539
-0.114412665367126465 3.65851926803588867 -0.829482555389404297
-1.35830283164978027 2.29826474189758301 -1.62285280227661133
1.43824005126953125 2.07497167587280273 -1.5989840030670166
-0.529854297637939453 1.19857203960418701 -1.42156755924224854
0.212953254580497742 4.30277872085571289 -0.390066027641296387
2.26983046531677246 5.28102684020996094 -0.417257487773895264
2.07917261123657227 2.4591524600982666 -1.53396964073181152
1.62744414806365967 1.87692487239837646 -1.59814548492431641
-0.280140340328216553 1.25921225547790527 -1.41927945613861084
-1.34199535846710205 2.39076876640319824 -0.743603825569152832
-0.460737854242324829 1.95757758617401123 -1.08764088153839111
2.83602523803710938 4.9340662956237793 -1.62523651123046875
2.29704570770263672 5.35494756698608398 -0.100337669253349304
0.176496803760528564 1.3605426549911499 -1.57152175903320312
-0.609791994094848633 3.36157965660095215 -0.264587759971618652
-0.98485863208770752 2.71147298812866211 -0.568853378295898438
1.2269442081451416 6.17903232574462891 -0.760136604309082031
0.892908692359924316 6.44882059097290039 -1.17180478572845459
-0.491832137107849121 1.72344422340393066 -1.07114863395690918
-1.06474781036376953 1.92960953712463379 -1.63726866245269775
2.07031965255737305 5.35261774063110352 -1.03040969371795654
-0.904102683067321777 1.60333454608917236 -1.44342410564422607
1.54492521286010742 3.00656318664550781 -1.62741053104400635
0.450210303068161011 4.0442805290222168 -0.953290700912475586
2.32939267158508301 5.78293180465698242 -0.298703521490097046
2.58077311515808105 4.93374443054199219 -1.39599502086639404
1.45729994773864746 1.49548351764678955 -1.6368488073348999
-1.32251846790313721 2.42489027976989746 -0.479155689477920532
1.21082305908203125 1.97499954700469971 -1.57424986362457275
-0.11551327258348465 3.52447867393493652 -0.979511618614196777
0.412762969732284546 4.49916553497314453 -0.189333617687225342
2.09425258636474609 5.46806859970092773 -0.565419137477874756
3.22658705711364746 5.32086944580078125 -0.992388367652893066
0.921692788600921631 6.43259143829345703 -0.873687505722045898
1.11006832122802734 6.2491302490234375 -1.11085343360900879
2.07493257522583008 5.60619544982910156 -0.356804907321929932
2.47969484329223633 5.84369611740112305 -0.399594485759735107
1.30866193771362305 2.96748471260070801 -1.60965454578399658
2.1650702953338623 5.81484270095825195 -0.406380802392959595
0.942646563053131104 1.76012027263641357 -1.59862470626831055
