ply
format ascii 1.0
element vertex 53
comment vertices
property float x
property float y
property float z
end_header
1.29011261463165283 4.49672985076904297 -0.886192798614501953
0.842020392417907715 3.05371260643005371 -1.08499860763549805
-0.454338371753692627 3.0073997974395752 -0.952408015727996826
-0.289225012063980103 1.87311220169067383 -1.01805746555328369
0.0398555733263492584 3.71968483924865723 -1.05716204643249512
0.260140597820281982 2.44388294219970703 -1.11045348644256592
-0.910498738288879395 2.46677279472351074 -0.967183709144592285
-0.558405399322509766 1.37819600105285645 -0.978504061698913574
0.39318576455116272 4.05092859268188477 -0.884936213493347168
0.0695289596915245056 1.52990543842315674 -1.05365085601806641
0.697798609733581543 2.68783974647521973 -1.0251460075378418
0.212868869304656982 2.11470866203308105 -1.05960702896118164
-0.538715779781341553 1.4022529125213623 -1.073433518409729
-0.159665390849113464 3.43983221054077148 -0.953766763210296631
0.383160531520843506 2.91927099227905273 -1.09652340412139893
-0.550581097602844238 2.67656421661376953 -1.01779305934906006
-0.576414108276367188 1.53746926784515381 -1.05587959289550781
-0.971464812755584717 2.41113543510437012 -0.773422658443450928
-0.54629671573638916 1.32664859294891357 -0.98693382740020752
1.06841349601745605 3.03747892379760742 -1.0523606538772583
-0.927474617958068848 2.47166228294372559 -0.925792276859283447
0.373951613903045654 4.00058126449584961 -0.912941992282867432
0.253407478332519531 4.02816104888916016 -0.863403379917144775
1.70001208782196045 4.48775672912597656 -0.900627613067626953
-0.103791400790214539 1.6758495569229126 -1.07366347312927246
-0.843130528926849365 2.36947274208068848 -1.01486754417419434
0.432936757802963257 2.40035390853881836 -1.04003798961639404
-0.0767123103141784668 1.90910458564758301 -1.09612596035003662
-0.8554840087890625 2.45843958854675293 -1.03896701335906982
-0.18600928783416748 1.3883204460144043 -1.0119558572769165
-0.189078986644744873 1.72556781768798828 -1.03609347343444824
-0.538722813129425049 2.87544441223144531 -0.983240485191345215
0.515509665012359619 2.67856788635253906 -1.06150162220001221
0.051526825875043869 1.9576423168182373 -1.11737513542175293
0.70022284984588623 2.83189487457275391 -1.07247364521026611
0.150171875953674316 2.14088058471679688 -1.09178757667541504
-0.933275163173675537 2.40359210968017578 -0.978896617889404297
-0.339849233627319336 3.18585085868835449 -0.876970052719116211
-0.54662930965423584 2.90536379814147949 -0.88740837574005127
0.954749226570129395 2.98325395584106445 -1.03125166893005371
-0.938375711441040039 2.46480846405029297 -0.985867619514465332
-0.543720245361328125 1.3864058256149292 -0.988555669784545898
-0.885767161846160889 2.4588165283203125 -0.96055448055267334
0.377562373876571655 4.04713153839111328 -0.921464204788208008
1.22288227081298828 4.42861366271972656 -0.912931919097900391
0.168375670909881592 2.52799701690673828 -1.01655197143554688
-0.379756420850753784 3.16953325271606445 -0.966830015182495117
0.300760030746459961 2.23573756217956543 -1.06730031967163086
0.339718639850616455 2.66163158416748047 -1.0945432186126709
-0.111173540353775024 3.50786995887756348 -0.952138960361480713
-0.518248260021209717 1.5372389554977417 -1.04201459884643555
0.379342228174209595 4.05351924896240234 -0.90127408504486084
-0.120182029902935028 3.45238018035888672 -0.988347232341766357
