ply
format ascii 1.0
element vertex 256
comment vertices
property float x
property float y
property float z
end_header
-1.39022064208984375 3.88098239898681641 -0.740731179714202881
1.65724706649780273 3.64297795295715332 -0.0660313069820404053
0.157600879669189453 1.30579245090484619 -1.1385498046875
0.22087976336479187 5.13059806823730469 -0.449111521244049072
0.29825824499130249 3.0855104923248291 -1.17961251735687256
-1.08421945571899414 2.33770418167114258 -1.11594057083129883
1.13982987403869629 4.31762838363647461 -1.06042492389678955
-1.02096426486968994 5.11139488220214844 -0.392654359340667725
1.04321122169494629 2.29835915565490723 -1.15956008434295654
-0.321076095104217529 3.90402531623840332 -1.11124587059020996
-0.13788217306137085 2.219268798828125 -1.20922660827636719
-1.76567208766937256 3.04952049255371094 -0.950013041496276855
1.12327444553375244 3.33249640464782715 -1.16490602493286133
0.739086568355560303 4.4911651611328125 -0.31945192813873291
-0.858757972717285156 4.48592138290405273 -0.903460264205932617
0.462908536195755005 4.65120744705200195 -1.06653821468353271
1.69165408611297607 3.95163822174072266 -0.881514906883239746
-0.169339537620544434 4.43069076538085938 -0.705766499042510986
-0.947217702865600586 4.28602981567382812 -0.27207985520362854
0.495175868272781372 1.83896839618682861 -1.13844358921051025
1.3501356840133667 4.20744657516479492 -0.441534101963043213
-0.656726837158203125 2.77213454246520996 -1.14760088920593262
-1.05185198783874512 3.69063711166381836 -1.1949622631072998
-0.533171415328979492 4.98097038269042969 -0.695428729057312012
0.833295166492462158 2.81130146980285645 -1.18721306324005127
-1.36822450160980225 4.34764909744262695 -0.996310412883758545
-0.134258955717086792 2.78849101066589355 -1.17401480674743652
0.462452918291091919 2.35955524444580078 -1.1288224458694458
1.17791533470153809 3.83163118362426758 -0.954352498054504395
0.68112260103225708 3.54416418075561523 -1.0865941047668457
-1.43350601196289062 3.39765477180480957 -1.03629040718078613
0.596352696418762207 4.90424156188964844 -0.670628070831298828
-0.536904096603393555 1.95687723159790039 -1.15928614139556885
-0.60575568675994873 4.56905364990234375 -0.452590674161911011
-0.105888351798057556 3.34146308898925781 -1.172294020652771
-0.977056384086608887 4.94966411590576172 -0.811620414257049561
0.834216177463531494 4.48824310302734375 -0.777918219566345215
1.60238480567932129 3.83842945098876953 -0.472030282020568848
-0.960820674896240234 4.07891559600830078 -1.03947353363037109
-1.68817019462585449 3.70812106132507324 -0.491287320852279663
0.782444357872009277 4.10609340667724609 -0.969409465789794922
-0.174405664205551147 4.965911865234375 -0.489694118499755859
-0.602090120315551758 2.35806775093078613 -1.16657423973083496
-1.26227819919586182 4.35991859436035156 -0.513669431209564209
-0.068866342306137085 1.82343375682830811 -1.19629788398742676
1.17776310443878174 2.65041875839233398 -1.08059430122375488
-1.36374211311340332 3.88707137107849121 -1.11644041538238525
1.03663527965545654 4.10070228576660156 -0.615299105644226074
0.098574414849281311 2.48566317558288574 -1.1345597505569458
-1.7686079740524292 3.34549236297607422 -0.740603864192962646
0.710005104541778564 3.20192408561706543 -1.16611897945404053
-0.554555654525756836 4.64535188674926758 -0.795479178428649902
1.40010714530944824 4.16607427597045898 -0.89521414041519165
-0.80960381031036377 4.25722360610961914 -0.58458554744720459
0.305594205856323242 4.73306369781494141 -0.625257253646850586
-1.59218680858612061 4.05778884887695312 -0.534151554107666016
0.542430460453033447 4.75296449661254883 -0.379495054483413696
-0.745485544204711914 4.88529396057128906 -0.458273202180862427
0.214132443070411682 2.77718782424926758 -1.24616837501525879
1.06339085102081299 4.30477523803710938 -0.32626187801361084
0.680594146251678467 2.12616539001464844 -1.09364640712738037
-1.63725507259368896 3.65926599502563477 -0.803732514381408691
1.32157754898071289 3.94509124755859375 -0.680405855178833008
0.266479521989822388 1.5993582010269165 -1.08551740646362305
-1.1494598388671875 4.59001255035400391 -0.840491354465484619
-0.665870308876037598 4.13615131378173828 -0.946158289909362793
0.20764470100402832 1.97005748748779297 -1.17094314098358154
-0.262438058853149414 2.49905204772949219 -1.17205774784088135
-1.16858243942260742 4.08649349212646484 -0.761567473411560059
0.572339415550231934 4.59956979751586914 -0.684091806411743164
0.940638840198516846 3.7120361328125 -1.09008073806762695
1.02810525894165039 3.05298161506652832 -1.16172957420349121
-0.707589685916900635 5.16567087173461914 -0.549235105514526367
-1.39445436000823975 3.1564936637878418 -0.87984776496887207
-0.979635894298553467 4.4854588508605957 -0.63931119441986084
-1.18742001056671143 4.11743974685668945 -0.399962455034255981
-0.778084874153137207 2.14510869979858398 -1.16227495670318604
1.20865905284881592 4.29879140853881836 -0.746679425239562988
0.421330392360687256 3.50271129608154297 -1.15811669826507568
0.469712615013122559 5.12049484252929688 -0.55327075719833374
1.48288369178771973 3.85915541648864746 -1.0197603702545166
0.0510110259056091309 4.83691501617431641 -0.549189746379852295
-0.601445317268371582 4.38585758209228516 -0.821803152561187744
0.802588939666748047 2.37146329879760742 -1.07647073268890381
-0.283647090196609497 1.99090898036956787 -1.22594046592712402
-0.991510748863220215 4.79046487808227539 -0.461806803941726685
1.30102920532226562 4.0815277099609375 -1.1222383975982666
-0.757175564765930176 4.76241636276245117 -0.911986410617828369
0.398280739784240723 2.58474946022033691 -1.24135828018188477
0.924878180027008057 4.48612022399902344 -0.500759243965148926
1.13290500640869141 4.10989570617675781 -0.912827253341674805
-1.21648323535919189 4.09348487854003906 -1.10175466537475586
-0.777660965919494629 4.56914806365966797 -0.266736596822738647
-0.360814154148101807 3.66763496398925781 -1.18572402000427246
0.972738683223724365 2.54004263877868652 -1.17022120952606201
-1.3326108455657959 3.62168049812316895 -1.07124590873718262
1.594573974609375 4.23881864547729492 -0.762301921844482422
-1.42899215221405029 3.53179216384887695 -0.787141382694244385
-0.981785058975219727 4.27587413787841797 -0.895550191402435303
-1.61359727382659912 3.27534294128417969 -0.914338052272796631
0.957696676254272461 4.27752351760864258 -0.901380360126495361
1.19581913948059082 3.68441891670227051 -1.14520478248596191
-0.897766828536987305 5.16090059280395508 -0.728474974632263184
-0.947855234146118164 4.70270538330078125 -0.776207387447357178
0.13782365620136261 3.25672578811645508 -1.15686070919036865
-1.02971386909484863 2.56693530082702637 -1.11765849590301514
0.722716152667999268 4.3213801383972168 -0.655152678489685059
1.1677696704864502 2.86522650718688965 -1.17569446563720703
1.0633995532989502 3.91266345977783203 -1.14147496223449707
-0.795728445053100586 4.61143827438354492 -0.575526237487792969
-1.14550650119781494 3.86425948143005371 -0.739093303680419922
-4.63426113128662109e-05 2.96718573570251465 -1.15929496288299561
-0.274826884269714355 4.34703540802001953 -0.882833421230316162
0.341538369655609131 4.9468235969543457 -0.477844923734664917
0.680349946022033691 2.98366236686706543 -1.18072652816772461
-0.535569965839385986 5.06129121780395508 -0.458625137805938721
-1.25662887096405029 4.28726577758789062 -0.759803652763366699
0.912106990814208984 3.34409642219543457 -1.21977674961090088
-1.27598559856414795 3.75763940811157227 -0.910261869430541992
-1.0278928279876709 4.21370029449462891 -0.662220239639282227
1.18301403522491455 4.30786848068237305 -0.534350752830505371
-1.0170060396194458 4.42822647094726562 -0.437007665634155273
-0.33455359935760498 2.6993250846862793 -1.17100834846496582
-1.31739068031311035 4.00406169891357422 -0.939432322978973389
0.563374757766723633 4.75802278518676758 -0.821553170680999756
1.677848219871521 3.81089997291564941 -0.189744919538497925
-0.140728354454040527 4.80018234252929688 -0.623604655265808105
-0.342197179794311523 2.19965004920959473 -1.17683029174804688
0.0763950645923614502 5.03812932968139648 -0.593379497528076172
0.454644858837127686 3.11681723594665527 -1.04861271381378174
0.977236270904541016 4.27693557739257812 -0.511410117149353027
-1.26633715629577637 3.3179161548614502 -1.12386035919189453
0.767503917217254639 4.62821388244628906 -0.631251096725463867
-1.12031900882720947 4.27031660079956055 -1.06976521015167236
-0.979802608489990234 5.01946544647216797 -0.569711208343505859
-0.35005486011505127 4.8979182243347168 -0.669488310813903809
1.63536190986633301 4.14552545547485352 -0.934359431266784668
1.44483160972595215 3.97979569435119629 -0.838329195976257324
1.03435516357421875 3.51031279563903809 -1.15757465362548828
-1.59915602207183838 3.4914543628692627 -0.902885675430297852
1.5177764892578125 4.00787925720214844 -0.526250839233398438
-0.0525541044771671295 2.41162872314453125 -1.23628854751586914
0.00112176686525344849 2.64466571807861328 -1.19220352172851562
0.953028261661529541 4.29540205001831055 -0.703967034816741943
-0.0370652936398983002 3.15529108047485352 -1.18283963203430176
-0.712855517864227295 5.11468982696533203 -0.74954521656036377
-1.64638745784759521 3.90697097778320312 -0.637672722339630127
-0.657500565052032471 2.53616523742675781 -1.15666866302490234
-0.790284812450408936 4.94589662551879883 -0.920418083667755127
0.0901710465550422668 2.30573773384094238 -1.18074846267700195
-0.823615670204162598 5.03890132904052734 -0.388894379138946533
0.875533998012542725 2.21348881721496582 -1.13901054859161377
-1.03516829013824463 3.83662152290344238 -1.08433544635772705
1.47177731990814209 3.84016156196594238 -0.67506253719329834
-0.823196828365325928 4.28452062606811523 -0.983896076679229736
-1.69243597984313965 2.88764548301696777 -0.987224340438842773
-1.24485838413238525 3.7591245174407959 -1.16511130332946777
-1.21632289886474609 4.05026912689208984 -0.564944207668304443
-1.27282416820526123 4.46819353103637695 -0.792200982570648193
0.635050773620605469 4.64055299758911133 -0.275766998529434204
1.14541077613830566 3.97337079048156738 -0.798400640487670898
-1.20000410079956055 3.92166852951049805 -1.05528569221496582
-0.710058987140655518 4.58325767517089844 -0.902766525745391846
-1.66846203804016113 3.50190210342407227 -0.729511857032775879
0.492173939943313599 4.84039115905761719 -0.522635042667388916
-1.49075496196746826 3.36921358108520508 -0.806825816631317139
-1.84744167327880859 3.28758502006530762 -0.885561466217041016
0.65332263708114624 4.45430326461791992 -0.565417647361755371
-0.341591179370880127 5.04272270202636719 -0.572593450546264648
0.203460633754730225 2.56759738922119141 -1.2469717264175415
1.3066403865814209 4.20686435699462891 -0.637409806251525879
-0.839109539985656738 4.4577789306640625 -0.510371267795562744
0.650671303272247314 2.35931158065795898 -1.15357375144958496
0.559251010417938232 4.99241971969604492 -0.486675828695297241
-1.11322188377380371 4.38658618927001953 -0.605192840099334717
1.02351832389831543 2.77660679817199707 -1.18004477024078369
-0.163866594433784485 3.84610462188720703 -1.13314259052276611
0.904828786849975586 3.92830491065979004 -1.08595776557922363
-1.50339043140411377 3.70574498176574707 -0.714210867881774902
0.172307789325714111 4.85731220245361328 -0.438222557306289673
1.28372108936309814 3.95035815238952637 -0.910703539848327637
-0.911508262157440186 4.47717714309692383 -0.294778823852539062
0.58144831657409668 4.62332773208618164 -0.522619247436523438
0.600697576999664307 1.99270462989807129 -1.14154839515686035
-0.00705840438604354858 4.97886991500854492 -0.467682689428329468
1.55677211284637451 3.84864282608032227 -0.289302587509155273
-1.08199441432952881 4.76188087463378906 -0.842848896980285645
0.360324949026107788 3.23232293128967285 -1.15895366668701172
-0.4470081627368927 4.58389520645141602 -0.456879496574401855
0.0378936938941478729 1.93968331813812256 -1.17819511890411377
-0.591345548629760742 4.90622520446777344 -0.488999456167221069
0.241657137870788574 4.87649202346801758 -0.628865480422973633
-1.00083053112030029 4.54937934875488281 -0.885588169097900391
0.0825076103210449219 2.79712605476379395 -1.16400384902954102
0.943085789680480957 2.92180514335632324 -1.17398655414581299
-0.354291021823883057 2.37288165092468262 -1.1752934455871582
-0.803140878677368164 4.70992612838745117 -0.456664830446243286
-0.627264022827148438 4.53966712951660156 -0.602511763572692871
-1.14248120784759521 4.4668431282043457 -0.93054807186126709
-1.4889456033706665 3.85004472732543945 -0.62873387336730957
0.234607875347137451 1.42140793800354004 -1.07605361938476562
0.460502654314041138 4.72139215469360352 -0.932021915912628174
1.39093351364135742 4.08557796478271484 -0.745082855224609375
-1.73868489265441895 3.14150309562683105 -0.833504199981689453
-0.182818233966827393 2.62650918960571289 -1.17512714862823486
1.65658509731292725 3.76024436950683594 -0.35549396276473999
0.981151819229125977 3.19417405128479004 -1.1635127067565918
0.150828331708908081 1.64900422096252441 -1.16469109058380127
-0.95240628719329834 2.44067168235778809 -1.10686111450195312
0.286010205745697021 2.87007570266723633 -1.15588819980621338
-1.23393011093139648 3.90821194648742676 -0.864688515663146973
-0.896970093250274658 4.26754903793334961 -0.409078657627105713
-0.724884629249572754 4.46351194381713867 -0.805875301361083984
-0.815456628799438477 5.06757640838623047 -0.564414143562316895
-0.320886552333831787 4.45328140258789062 -0.79383397102355957
0.362352997064590454 4.79580211639404297 -0.473678022623062134
0.588336944580078125 4.77213573455810547 -0.610122084617614746
-1.60921633243560791 3.78251147270202637 -0.394387751817703247
0.334701448678970337 5.0581822395324707 -0.384673655033111572
-1.23732924461364746 4.19347667694091797 -0.552749395370483398
0.821923613548278809 4.26407146453857422 -0.757815361022949219
-1.15797650814056396 4.0926971435546875 -0.905861258506774902
-0.953050851821899414 2.28513145446777344 -1.14423692226409912
0.787065863609313965 4.51170063018798828 -0.453104317188262939
0.476529121398925781 4.87074947357177734 -0.806367754936218262
-0.888559341430664062 4.88503122329711914 -0.431630879640579224
0.378366738557815552 1.91897523403167725 -1.15658664703369141
-0.876111030578613281 4.78606081008911133 -0.552811503410339355
1.08125185966491699 4.24892234802246094 -0.783070027828216553
0.43074527382850647 4.6786651611328125 -0.589183151721954346
-1.72319495677947998 3.36265778541564941 -0.906719088554382324
0.650050640106201172 4.56305980682373047 -0.400297015905380249
0.836547017097473145 4.33657217025756836 -0.575215280055999756
0.58267819881439209 3.19614744186401367 -1.10882377624511719
-0.648660182952880859 4.78393030166625977 -0.826706945896148682
-1.13537096977233887 4.29444646835327148 -0.502584338188171387
1.18949317932128906 4.16911411285400391 -0.547980844974517822
0.845711290836334229 3.25668716430664062 -1.13371872901916504
0.912626743316650391 2.35609173774719238 -1.16028463840484619
-0.894701540470123291 4.74859619140625 -0.898915410041809082
0.236260265111923218 5.00651454925537109 -0.545444250106811523
-1.56531131267547607 3.71976757049560547 -0.591039299964904785
-0.917794406414031982 4.87109231948852539 -0.715029597282409668
-0.0416759476065635681 4.97401189804077148 -0.624381661415100098
1.10666012763977051 2.51345586776733398 -1.15107321739196777
-0.169478341937065125 2.34450149536132812 -1.16116201877593994
0.465255856513977051 4.92003488540649414 -0.632103502750396729
0.163286536931991577 2.61590957641601562 -1.12487959861755371
-0.661508142948150635 2.2168278694152832 -1.16333413124084473
-0.695376455783843994 4.30303287506103516 -0.877044796943664551
-1.45874321460723877 3.90930080413818359 -1.02045524120330811
1.17884588241577148 4.2642059326171875 -0.387002140283584595
1.23129570484161377 4.04742288589477539 -0.684699654579162598
-1.0877610445022583 4.12765026092529297 -1.02820801734924316
1.40628945827484131 4.08366918563842773 -0.432294845581054688
-0.228294074535369873 2.11864924430847168 -1.1968388557434082
