ply
format ascii 1.0
element vertex 256
comment vertices
property float x
property float y
property float z
end_header
0.436850219964981079 1.80530524253845215 -1.49612414836883545
3.91472864151000977 6.3072514533996582 -0.658817470073699951
0.82178342342376709 6.47056770324707031 0.0158368498086929321
1.90435612201690674 4.35175275802612305 -1.03295063972473145
-0.32253575325012207 3.6369013786315918 -0.250533103942871094
-1.54454600811004639 2.11651372909545898 -1.09834718704223633
2.21140289306640625 2.65729689598083496 -1.57261931896209717
2.36016416549682617 5.80266284942626953 -0.296779155731201172
0.94838261604309082 3.11707949638366699 -0.945508599281311035
-0.710920333862304688 0.993363916873931885 -1.38432860374450684
0.555024862289428711 4.61083650588989258 -0.88669741153717041
2.93082547187805176 5.24616146087646484 -1.28590738773345947
1.03624606132507324 6.38409185409545898 -1.2245182991027832
-0.27445065975189209 2.69986462593078613 -0.978597640991210938
1.54576730728149414 1.43268787860870361 -1.33662056922912598
-0.0129646174609661102 3.78323483467102051 -1.1528317928314209
-1.03636014461517334 2.64961814880371094 -0.39127957820892334
1.51423072814941406 5.81485128402709961 0.16297970712184906
1.55582332611083984 3.47162866592407227 -1.59428298473358154
-0.344017267227172852 1.77697694301605225 -0.882461667060852051
1.33624494075775146 2.39825320243835449 -1.40845727920532227
1.50609433650970459 5.74009084701538086 -0.786512613296508789
2.6402287483215332 5.01090383529663086 0.0514081791043281555
3.03447651863098145 4.38936185836791992 -1.33667922019958496
0.232760727405548096 4.30334711074829102 -0.176543861627578735
2.11025619506835938 5.23139047622680664 -1.04945147037506104
0.604887962341308594 2.30472731590270996 -0.909567534923553467
3.10971570014953613 5.46206188201904297 -0.567801952362060547
-1.04102993011474609 1.69199967384338379 -1.47551536560058594
0.0263182148337364197 1.19642901420593262 -1.3722912073135376
1.26296746730804443 4.45068836212158203 -0.800847411155700684
2.6127016544342041 4.89832687377929688 -0.730490684509277344
-0.898727118968963623 2.31179404258728027 -1.01606476306915283
2.57854509353637695 4.79762840270996094 -1.6178668737411499
0.658895492553710938 2.43414139747619629 -1.5532766580581665
0.888345301151275635 1.34710037708282471 -1.4640805721282959
-0.669027507305145264 1.24114036560058594 -0.77874302864074707
0.97636103630065918 6.26707029342651367 -0.604578852653503418
1.94187843799591064 5.39888143539428711 -0.0494871512055397034
-0.632689476013183594 3.10126113891601562 -0.673290252685546875
1.8737494945526123 2.10435390472412109 -1.48572194576263428
2.22662472724914551 3.2652585506439209 -1.53909790515899658
-1.51981639862060547 2.29406571388244629 -0.484723269939422607
-0.226886332035064697 1.93732190132141113 -1.45583200454711914
3.78989553451538086 6.0254673957824707 -1.17695224285125732
1.16784131526947021 3.03182554244995117 -1.4981619119644165
0.0712844282388687134 2.15355038642883301 -1.01394045352935791
0.533776342868804932 4.05384206771850586 -0.956268846988677979
1.02216231822967529 1.88287520408630371 -1.46113824844360352
-1.44840860366821289 2.01774454116821289 -1.6263127326965332
-0.267247438430786133 3.31757354736328125 -1.00373363494873047
2.22400593757629395 5.25202751159667969 -0.481862574815750122
1.96086859703063965 3.81615543365478516 -1.53465497493743896
1.67677903175354004 2.8742222785949707 -1.50814437866210938
1.22229135036468506 6.14935588836669922 -0.148118495941162109
2.65379452705383301 4.23518896102905273 -1.01187276840209961
0.0111696720123291016 3.9437568187713623 -0.507723033428192139
-1.05629026889801025 1.62965834140777588 -0.959526896476745605
0.451200574636459351 2.76611065864562988 -1.05782079696655273
3.10690450668334961 5.43831157684326172 -0.0604332052171230316
0.102201879024505615 1.58935546875 -1.00722301006317139
0.99368363618850708 2.55153298377990723 -1.08734714984893799
-0.537427723407745361 1.42778944969177246 -1.22836828231811523
0.524340033531188965 4.63816547393798828 -0.396285116672515869
1.64787173271179199 5.69174051284790039 -0.321262717247009277
-1.21972417831420898 2.54105210304260254 -1.24844074249267578
2.45528316497802734 4.88224697113037109 -1.15324699878692627
0.450264722108840942 1.18896234035491943 -1.48336923122406006
-0.895926713943481445 2.75349879264831543 -1.052512526512146
1.22745943069458008 6.04832077026367188 -0.898117780685424805
-0.737019062042236328 1.85854005813598633 -1.11466002464294434
2.32113933563232422 5.2721710205078125 0.134452968835830688
2.09631609916687012 5.62862825393676758 -0.599370002746582031
1.26031768321990967 2.84798026084899902 -0.960702180862426758
1.49819660186767578 1.83511662483215332 -1.41043245792388916
0.0688404589891433716 2.61226272583007812 -0.774441957473754883
0.302822917699813843 4.27217817306518555 -0.699997067451477051
-0.241180717945098877 3.7003626823425293 -0.700395464897155762
2.91960287094116211 5.39600706100463867 -0.911637604236602783
-1.23605406284332275 2.33242678642272949 -0.811646401882171631
-0.570292532444000244 3.34255456924438477 -0.313491642475128174
2.5698082447052002 5.10610675811767578 -0.319687098264694214
0.368595927953720093 3.7071530818939209 -0.920244038105010986
2.92165517807006836 4.54774665832519531 -1.00427770614624023
2.95177102088928223 4.83219242095947266 -1.53101098537445068
0.78050839900970459 6.39628458023071289 -0.938168048858642578
3.02515840530395508 5.09027004241943359 -0.610960543155670166
1.7769775390625 2.47175502777099609 -1.53274405002593994
0.929842650890350342 2.70029425621032715 -1.50838863849639893
-0.347281038761138916 1.09945309162139893 -1.35893166065216064
-0.919848084449768066 1.34507334232330322 -1.40498292446136475
-0.802247822284698486 2.93441510200500488 -0.330988556146621704
-0.214123785495758057 1.52911102771759033 -1.37765789031982422
0.100139975547790527 3.9987483024597168 -0.878188550472259521
-1.10174453258514404 2.04187107086181641 -1.39385342597961426
1.60496270656585693 4.53794717788696289 -0.887988686561584473
-0.253249764442443848 1.37150824069976807 -1.01062273979187012
1.30814504623413086 6.02420282363891602 -0.476811379194259644
-0.270088762044906616 2.12811803817749023 -0.903456151485443115
1.83839321136474609 3.18764376640319824 -1.5543743371963501
0.999857306480407715 2.23757076263427734 -1.45814156532287598
0.584030866622924805 4.58495235443115234 -1.23724913597106934
-0.518693923950195312 2.95166015625 -0.974914014339447021
-0.0812413394451141357 2.28131508827209473 -1.30239391326904297
0.333587735891342163 1.93244779109954834 -0.943868637084960938
-0.898348808288574219 2.70467615127563477 -0.706154942512512207
0.360697835683822632 2.13794302940368652 -1.55469119548797607
1.78031623363494873 5.53828811645507812 -0.776030778884887695
-0.564061403274536133 2.25362896919250488 -1.01047742366790771
0.274402827024459839 2.41601204872131348 -1.02217614650726318
1.96082556247711182 5.77778911590576172 -0.283414661884307861
0.24095471203327179 1.92290627956390381 -1.26252055168151855
1.31317996978759766 3.12172698974609375 -1.11671733856201172
2.37274646759033203 5.07355928421020508 -0.912102699279785156
0.278082430362701416 1.60924839973449707 -1.2784191370010376
0.73618847131729126 1.72865712642669678 -1.4406973123550415
1.26434421539306641 1.53246426582336426 -1.43104660511016846
-0.370376229286193848 3.4279632568359375 -0.537440001964569092
0.673833847045898438 2.88814949989318848 -0.881236433982849121
-0.121300794184207916 3.93342804908752441 -0.232353478670120239
-0.668038010597229004 1.51775312423706055 -0.907348096370697021
-0.63667142391204834 2.6584315299987793 -0.923601031303405762
-1.48158621788024902 2.15800738334655762 -0.788821578025817871
0.813364207744598389 6.42144489288330078 -0.405482053756713867
1.77283239364624023 5.63031768798828125 0.0357388630509376526
-0.0392305143177509308 1.82058906555175781 -1.24496877193450928
1.59709608554840088 2.2073209285736084 -1.45287752151489258
1.96459388732910156 2.83812427520751953 -1.56922674179077148
1.54566359519958496 3.16958332061767578 -1.56294965744018555
1.50477123260498047 2.64384126663208008 -1.45390510559082031
2.28150153160095215 5.11019802093505859 -1.25038933753967285
0.46445167064666748 1.48966050148010254 -1.46606993675231934
-0.167094305157661438 3.58824396133422852 -0.988993465900421143
0.724350273609161377 2.63274598121643066 -1.00088047981262207
0.638015866279602051 2.07681727409362793 -1.55413341522216797
-1.28186583518981934 1.79056084156036377 -1.59744882583618164
2.05242443084716797 5.30780506134033203 -0.697604060173034668
1.7227787971496582 1.6861642599105835 -1.33156144618988037
-0.301830112934112549 1.73825550079345703 -1.19133710861206055
0.420450389385223389 4.37814617156982422 -0.369021296501159668
2.27480220794677734 5.34906673431396484 -0.128726750612258911
1.35761845111846924 5.91257953643798828 -0.0956776663661003113
3.95546841621398926 6.27067995071411133 -0.929880857467651367
2.03196549415588379 2.39192509651184082 -1.46292591094970703
-0.56198728084564209 1.19151926040649414 -1.08864033222198486
2.07244348526000977 3.49208188056945801 -1.52945923805236816
-1.26627647876739502 2.39583396911621094 -0.498671770095825195
1.0230109691619873 6.26806640625 -0.2916259765625
-0.080532953143119812 1.83749818801879883 -0.856907427310943604
1.21586453914642334 2.07723093032836914 -1.42627036571502686
-1.01562595367431641 2.53072094917297363 -0.909120678901672363
-1.10415136814117432 2.2081148624420166 -1.1532740592956543
-0.859868288040161133 1.6668398380279541 -1.2543337345123291
1.22581648826599121 2.62720966339111328 -1.48747658729553223
-1.39647567272186279 2.20890688896179199 -1.44983291625976562
1.0212254524230957 6.30331659317016602 0.0664194300770759583
0.270450770854949951 4.15700817108154297 -1.00369501113891602
2.24293684959411621 2.91912150382995605 -1.56794655323028564
0.41271933913230896 4.48705863952636719 -0.133261650800704956
-0.451490938663482666 3.21488094329833984 -0.853409290313720703
0.455639183521270752 2.1389775276184082 -1.04081511497497559
-1.05366814136505127 2.46008086204528809 -0.664592564105987549
1.44779789447784424 5.81066322326660156 -0.446455121040344238
-0.34081500768661499 2.37022233009338379 -0.96025538444519043
1.02504539489746094 6.20556783676147461 -0.906816780567169189
1.24301779270172119 6.11115407943725586 0.103948228061199188
0.0432313308119773865 2.52485489845275879 -1.01685059070587158
0.615272700786590576 4.65437030792236328 -0.64269411563873291
2.26598882675170898 5.80934906005859375 -0.545958161354064941
0.0812735706567764282 4.0761713981628418 -0.277391821146011353
1.02500629425048828 2.51037120819091797 -1.37357497215270996
-1.28537893295288086 2.39753413200378418 -1.048744797706604
-0.0781368687748908997 3.82247495651245117 -0.875453293323516846
2.71659660339355469 5.02234363555908203 -0.504656493663787842
-0.679932892322540283 1.23807477951049805 -1.42217767238616943
0.836187124252319336 6.51704072952270508 -1.15904736518859863
-0.471214264631271362 1.60521948337554932 -1.06832981109619141
-0.789817214012145996 2.92510771751403809 -0.749011456966400146
1.70395469665527344 5.6164851188659668 -0.550586700439453125
1.20377898216247559 6.22557353973388672 -1.13558506965637207
2.44490885734558105 5.05308008193969727 -0.641843497753143311
2.50646519660949707 4.82842588424682617 -1.38600015640258789
1.17468106746673584 3.05916905403137207 -0.876281499862670898
0.179430767893791199 4.17096614837646484 -0.516776442527770996
-0.101689502596855164 2.3359527587890625 -0.973244905471801758
-0.887397944927215576 1.11461400985717773 -1.49286818504333496
2.08372783660888672 5.43374776840209961 -0.411740094423294067
1.56885325908660889 5.7791285514831543 -0.112209662795066833
0.887448430061340332 2.88872122764587402 -0.986165761947631836
1.76079070568084717 3.68968367576599121 -1.55931961536407471
1.71835899353027344 1.92212593555450439 -1.41383671760559082
1.49323666095733643 4.33739376068115234 -0.94411313533782959
3.14819049835205078 5.36781024932861328 -0.949569225311279297
0.00843908637762069702 1.3777766227722168 -0.986005663871765137
-0.29934537410736084 3.37352514266967773 -0.779078304767608643
1.33616602420806885 2.82386159896850586 -1.5348745584487915
0.766315996646881104 2.3466191291809082 -1.06713128089904785
-0.198986947536468506 3.69385838508605957 -0.432614743709564209
-0.962701559066772461 1.83231186866760254 -0.998600780963897705
1.67691183090209961 5.83755731582641602 -0.898572683334350586
1.32541406154632568 3.19706845283508301 -1.52417564392089844
0.471495866775512695 4.46546459197998047 -0.569956779479980469
0.768058478832244873 6.38936042785644531 -0.713666319847106934
1.11502170562744141 2.74260950088500977 -1.09354007244110107
2.09207344055175781 3.09034061431884766 -1.55663371086120605
-0.46238255500793457 1.18659579753875732 -0.833477616310119629
0.481467008590698242 2.49172878265380859 -1.02876687049865723
-0.886245489120483398 2.17047333717346191 -1.18403434753417969
0.522942483425140381 4.67275428771972656 -0.172162696719169617
1.99972903728485107 2.59511756896972656 -1.5390092134475708
1.13234078884124756 6.15409994125366211 -0.494547128677368164
0.962607920169830322 1.55264091491699219 -1.44769418239593506
2.38175082206726074 5.12884998321533203 -0.019448552280664444
0.875587403774261475 2.40384030342102051 -1.55752420425415039
2.69855594635009766 5.00478982925415039 -0.15940740704536438
0.875294923782348633 2.85313820838928223 -1.36263668537139893
1.19073247909545898 1.74831163883209229 -1.431427001953125
-0.338270604610443115 1.3189774751663208 -1.20267701148986816
0.684447526931762695 1.4115983247756958 -1.47214937210083008
0.42510649561882019 4.21723556518554688 -0.866038799285888672
-0.00949769467115402222 1.47724509239196777 -1.40810894966125488
-0.50173109769821167 3.3091275691986084 -0.670052528381347656
0.122404471039772034 1.93303179740905762 -0.962273478507995605
2.98990678787231445 5.38850259780883789 -1.14120948314666748
1.09416365623474121 1.31415128707885742 -1.4376685619354248
1.49767637252807617 2.96061491966247559 -1.57479262351989746
2.66772270202636719 4.91227865219116211 -0.931938409805297852
1.78544366359710693 3.38456320762634277 -1.60137677192687988
2.22454094886779785 5.16130352020263672 -0.79420846700668335
2.75905966758728027 4.89671850204467773 -1.57710385322570801
-0.773584842681884766 1.43941855430603027 -1.2926943302154541
3.12768769264221191 5.42681550979614258 -0.364834338426589966
0.30321839451789856 3.95873093605041504 -0.959343433380126953
-0.651548445224761963 3.17445731163024902 -0.398659586906433105
-1.02784895896911621 2.43695688247680664 -1.11282241344451904
0.90543210506439209 6.38418722152709961 -0.173169970512390137
-1.24472510814666748 2.23905777931213379 -1.2957005500793457
1.87095403671264648 5.50286245346069336 -0.553176462650299072
0.83812028169631958 2.08667111396789551 -1.53678619861602783
1.9409022331237793 5.58249139785766602 -0.244062349200248718
2.08930301666259766 5.39554023742675781 -0.186209142208099365
-1.49047088623046875 2.12409567832946777 -1.29557716846466064
-0.713823974132537842 3.01071500778198242 -0.516351580619812012
1.39838182926177979 5.90313577651977539 -0.754932582378387451
1.53362357616424561 1.61299717426300049 -1.41651248931884766
-0.350855350494384766 1.9784691333770752 -0.802923202514648438
1.38556075096130371 5.91811943054199219 -0.2909737229347229
2.34906172752380371 5.11005067825317383 -0.425855040550231934
-1.11181437969207764 1.86750757694244385 -1.53679943084716797
-0.745509803295135498 2.82227563858032227 -0.947170794010162354
1.79952132701873779 4.48089838027954102 -0.929688394069671631
-0.669295847415924072 1.6909947395324707 -0.995935976505279541
1.12312304973602295 4.44353437423706055 -0.933238744735717773
1.76296281814575195 2.70614790916442871 -1.54278850555419922
1.40205717086791992 2.03564333915710449 -1.44689607620239258
-0.526141762733459473 1.41672134399414062 -0.987230658531188965
