ply
format ascii 1.0
element vertex 256
comment vertices
property float x
property float y
property float z
end_header
-0.665620625019073486 1.04976022243499756 -0.840553045272827148
5.32899045944213867 1.11657619476318359 -0.523506641387939453
2.28475618362426758 2.98621535301208496 -0.845936834812164307
-0.00136953592300415039 0.576527237892150879 0.0143361389636993408
-0.446843713521957397 3.06667900085449219 -0.865022659301757812
0.95021212100982666 -0.0631905794143676758 -1.10686826705932617
2.23087787628173828 1.15748357772827148 -0.780169129371643066
3.97205924987792969 0.488090634346008301 -0.774008274078369141
1.10752928256988525 3.6666266918182373 0.0225572958588600159
-0.30876004695892334 0.733057737350463867 -0.992793798446655273
1.68453991413116455 1.1477813720703125 -0.129731133580207825
0.0529274791479110718 1.64107894897460938 0.0876255109906196594
2.76747727394104004 1.09714961051940918 -0.907203793525695801
1.64539170265197754 3.96714901924133301 -0.785856127738952637
-3.17928457260131836 1.08081686496734619 -0.643291234970092773
-0.826852500438690186 2.36945796012878418 -0.726492583751678467
4.01270771026611328 1.95560204982757568 -0.913509249687194824
1.81365501880645752 2.4778285026550293 -0.785300016403198242
0.783795952796936035 2.9156947135925293 -0.233962833881378174
2.33019661903381348 2.25912046432495117 -0.849843800067901611
0.862760782241821289 2.40501761436462402 -0.168826580047607422
-1.3693077564239502 1.97683465480804443 -0.927074968814849854
-0.0585408061742782593 1.88540995121002197 -0.401250690221786499
-2.28861379623413086 2.20802640914916992 -0.274829447269439697
0.92241591215133667 0.319288492202758789 -0.00639063119888305664
1.44747638702392578 0.142949104309082031 -1.1653590202331543
1.85495316982269287 3.17856645584106445 -0.471715301275253296
0.708862423896789551 3.70724081993103027 -0.858129739761352539
-0.435554653406143188 1.91434025764465332 -1.06171226501464844
-0.698049545288085938 2.02702236175537109 -0.71825408935546875
0.531291663646697998 3.08278179168701172 0.44762265682220459
1.00088536739349365 1.77826011180877686 -0.626925230026245117
0.11121155321598053 2.10033583641052246 -0.0806518197059631348
-0.621839463710784912 1.26912760734558105 -0.264818161725997925
1.19908714294433594 2.5463416576385498 -0.920703411102294922
1.65680670738220215 2.71001982688903809 -0.0521223992109298706
-3.10741615295410156 -1.07639193534851074 -0.411501705646514893
3.96982955932617188 -1.79202103614807129 -1.1781538724899292
0.104428067803382874 2.08643460273742676 -0.774658381938934326
1.18018269538879395 2.50158572196960449 0.387661159038543701
1.54576480388641357 0.963446199893951416 -0.832811534404754639
4.91128635406494141 1.02191281318664551 -0.632145285606384277
1.7167891263961792 0.323437213897705078 -0.774537444114685059
0.238270878791809082 1.57063901424407959 -0.885576248168945312
2.9715726375579834 1.75456142425537109 -0.943913519382476807
-0.185682088136672974 2.00932455062866211 -0.14703783392906189
-2.42606925964355469 -1.11956274509429932 -1.08412051200866699
0.763728797435760498 3.73661971092224121 -0.635387539863586426
2.07729244232177734 2.74786043167114258 -0.496990025043487549
-1.60088229179382324 -1.17617392539978027 -1.03644204139709473
0.782694816589355469 2.46204376220703125 -0.765726447105407715
-0.362234383821487427 1.63385021686553955 -0.497077584266662598
-0.253462165594100952 2.80726909637451172 -0.431173592805862427
-1.13192510604858398 -2.58449482917785645 -1.32555174827575684
-0.833778142929077148 1.41263270378112793 -1.20682442188262939
0.115894198417663574 1.75541448593139648 -0.23376871645450592
-0.189982011914253235 1.90718686580657959 -0.698600232601165771
2.30151271820068359 0.431005001068115234 -0.495008945465087891
-0.042548835277557373 2.1005856990814209 0.219385936856269836
0.663400530815124512 0.344125032424926758 -1.0223315954208374
0.798122942447662354 2.68102502822875977 -0.144268721342086792
0.900210797786712646 3.0991368293762207 -0.71694338321685791
-1.6385502815246582 -0.861786365509033203 -0.678099572658538818
0.422230064868927002 3.11497187614440918 -0.125813946127891541
-0.758348703384399414 2.48016119003295898 -0.766263365745544434
-2.31406807899475098 0.274273157119750977 -0.622345507144927979
2.4704892635345459 1.33468866348266602 -0.977792143821716309
1.08567929267883301 3.45154953002929688 -0.456600785255432129
-0.665261626243591309 3.22977256774902344 0.424375385046005249
-0.136688396334648132 1.83700096607208252 -0.81357872486114502
-0.72258913516998291 0.99103236198425293 -0.161103874444961548
1.12755239009857178 2.50780534744262695 -0.345135360956192017
2.22277116775512695 -0.970144271850585938 -0.904872238636016846
2.80789422988891602 1.24517977237701416 -0.794160306453704834
3.75968122482299805 -0.46841883659362793 -0.666408419609069824
0.193255126476287842 1.9438319206237793 0.198070496320724487
0.775006413459777832 2.13475465774536133 -0.591476917266845703
1.07546520233154297 1.38256287574768066 -0.76466524600982666
-0.145482927560806274 1.9064939022064209 -0.231163814663887024
-1.16318035125732422 1.99040782451629639 0.254805326461791992
-0.51273810863494873 1.70419168472290039 -0.975688040256500244
1.65503430366516113 2.46977996826171875 -0.52422034740447998
0.902917146682739258 3.28926682472229004 0.239533081650733948
-1.54703736305236816 0.975507795810699463 -1.04616570472717285
2.01118302345275879 2.46460270881652832 -0.920262455940246582
-0.749538183212280273 2.63181781768798828 -0.874373376369476318
-0.0749039053916931152 1.98678863048553467 -0.29343646764755249
0.813360452651977539 2.6774754524230957 -0.0945462137460708618
-0.00366324186325073242 2.30497026443481445 -0.802787065505981445
0.222562998533248901 3.02583932876586914 -0.80583876371383667
0.913836658000946045 3.09758663177490234 0.377489149570465088
-1.1018669605255127 1.52628350257873535 -0.771320164203643799
1.21916425228118896 3.47301387786865234 -0.672465205192565918
1.96592140197753906 2.92272424697875977 -0.647354006767272949
0.991229653358459473 0.386552810668945312 -0.431166976690292358
1.02712774276733398 2.84664058685302734 -0.337470859289169312
1.01698863506317139 2.50725746154785156 -0.305511444807052612
-1.51815605163574219 1.19208407402038574 -0.889106512069702148
0.0321414656937122345 1.88847768306732178 -0.0330857113003730774
-0.231352090835571289 2.02939319610595703 -0.333329975605010986
1.97059476375579834 3.24780035018920898 -0.706161797046661377
1.86502408981323242 2.52692174911499023 -0.459448158740997314
1.10443222522735596 1.15844321250915527 -0.910660743713378906
2.53790044784545898 0.19666600227355957 -1.33753955364227295
0.71357351541519165 3.31378293037414551 -0.545387208461761475
-0.923106491565704346 -1.95317494869232178 -0.798972129821777344
-0.135368585586547852 1.98009443283081055 -0.72553408145904541
2.37684440612792969 1.45561528205871582 -0.811075866222381592
0.543163001537322998 2.92331123352050781 -0.0447776690125465393
1.15914571285247803 3.20453691482543945 -0.108112558722496033
0.29797661304473877 2.42334365844726562 -0.852979779243469238
0.593530774116516113 3.35079383850097656 -0.237924009561538696
1.1141202449798584 2.70047974586486816 0.228317990899085999
-0.115578137338161469 1.80779767036437988 -0.0446652472019195557
-0.0507512986660003662 1.95094943046569824 -0.576470077037811279
1.94312596321105957 2.20418190956115723 -0.808446168899536133
-0.140982091426849365 1.84655344486236572 -0.660568296909332275
1.30795538425445557 3.23404026031494141 -0.549699723720550537
2.01063847541809082 3.49835729598999023 -0.587311208248138428
2.63245248794555664 3.07153558731079102 -0.822006165981292725
0.184220314025878906 3.09390807151794434 0.161233767867088318
2.4165952205657959 2.67742633819580078 -0.931264936923980713
1.86282551288604736 2.75075054168701172 -0.542983472347259521
1.02212142944335938 2.60593819618225098 0.254965037107467651
0.751490235328674316 2.90572381019592285 0.128943338990211487
0.820077598094940186 1.79943692684173584 0.403925180435180664
1.49997091293334961 0.535441279411315918 -0.016991734504699707
-1.21531331539154053 -0.202747583389282227 -0.647940516471862793
-1.0703129768371582 1.25297343730926514 -1.1762009859085083
1.05947279930114746 2.7645103931427002 -0.579890012741088867
1.70677292346954346 2.92106771469116211 -0.435416907072067261
1.63918125629425049 2.78587508201599121 -0.900726556777954102
-0.00211703777313232422 1.99862122535705566 0.141895294189453125
1.99418759346008301 2.92846441268920898 -0.417046427726745605
0.406531363725662231 3.32054567337036133 0.306103944778442383
-0.464308261871337891 2.21069073677062988 -0.72373664379119873
-1.34117746353149414 0.715571761131286621 -1.07510268688201904
-0.0179825723171234131 1.95323193073272705 -0.159066885709762573
2.25471329689025879 -0.00670480728149414062 -0.703054487705230713
-0.451786577701568604 1.77933657169342041 -0.68857187032699585
1.80481493473052979 3.1862785816192627 -0.676513850688934326
0.00201886892318725586 2.62061595916748047 -0.773527622222900391
-0.416027456521987915 1.52333557605743408 -0.411011070013046265
-0.119554251432418823 1.90601623058319092 -0.766838788986206055
0.661756992340087891 3.0985560417175293 -0.764711499214172363
-0.041446000337600708 2.07071280479431152 0.00843975692987442017
0.0974189639091491699 0.960848450660705566 -1.02498888969421387
-0.233664512634277344 1.8828355073928833 -0.562987744808197021
0.920107007026672363 3.36606240272521973 -0.482664257287979126
2.79629635810852051 1.20633077621459961 -0.957319676876068115
-0.00576870515942573547 1.87831258773803711 -0.195990204811096191
1.15019488334655762 3.81846904754638672 -0.620983719825744629
0.590648293495178223 3.20434379577636719 -0.313895910978317261
0.928527593612670898 2.9911644458770752 -0.231255292892456055
-0.438508719205856323 1.67430031299591064 -1.07847559452056885
0.921730875968933105 2.80127453804016113 0.104175746440887451
0.0208567455410957336 1.94975161552429199 -0.18864092230796814
2.16307711601257324 2.85528826713562012 -0.644957363605499268
2.47421598434448242 0.838849306106567383 -0.561877667903900146
-0.163087323307991028 1.90553700923919678 -0.791122913360595703
-0.149901926517486572 1.92682301998138428 -0.372825026512145996
0.384276628494262695 1.81608104705810547 0.19804149866104126
-0.551041245460510254 1.2700427770614624 -0.850544750690460205
-0.104653000831604004 1.90567541122436523 -0.6620941162109375
-0.0308969318866729736 3.32442116737365723 0.206500142812728882
-0.143637269735336304 1.96304190158843994 -0.125019997358322144
1.71720314025878906 2.09237003326416016 0.101401187479496002
-0.134961694478988647 1.99079954624176025 -0.285536497831344604
2.44386816024780273 1.99564993381500244 -0.84681391716003418
-0.327155858278274536 1.68303978443145752 -0.716717183589935303
-0.0337576456367969513 1.97502636909484863 -0.77350229024887085
-0.0954108908772468567 1.9579538106918335 -0.461414426565170288
0.709680318832397461 3.13044452667236328 0.224819302558898926
1.88739371299743652 2.1064455509185791 -0.815524756908416748
0.062067180871963501 3.19948363304138184 -0.334670007228851318
2.03111982345581055 2.70003008842468262 -0.700020015239715576
-0.0725006759166717529 2.04413008689880371 0.0713428780436515808
0.0495904386043548584 2.20104789733886719 -0.818262219429016113
0.206105947494506836 3.03573489189147949 -0.77713620662689209
0.613824546337127686 2.92387747764587402 -0.363315999507904053
1.90108597278594971 4.00223016738891602 -0.777533233165740967
0.840833425521850586 2.83896350860595703 0.21316152811050415
-0.428493291139602661 1.81739223003387451 -0.837538480758666992
0.0925867706537246704 2.02154397964477539 0.0526477470993995667
1.8168342113494873 0.32935786247253418 -0.753823816776275635
1.34522533416748047 2.01944804191589355 -0.644457638263702393
-0.211724862456321716 1.79705095291137695 -0.771330952644348145
0.949237227439880371 3.03299164772033691 -0.495536953210830688
-0.762607812881469727 1.05281639099121094 -0.722199320793151855
0.856470465660095215 2.77605342864990234 -0.189391583204269409
0.550411581993103027 3.01470065116882324 0.122090213000774384
-0.289107739925384521 2.10102534294128418 -0.780699074268341064
0.0154500016942620277 1.82027125358581543 -0.121125727891921997
-2.76322221755981445 0.0834656953811645508 -1.07593309879302979
-1.38418054580688477 0.5899619460105896 -0.905411720275878906
1.66211819648742676 1.96740412712097168 -0.878819882869720459
1.9137425422668457 2.94392848014831543 -0.54028165340423584
0.552819490432739258 3.02891826629638672 -0.212930664420127869
-1.48987841606140137 -0.33229517936706543 -1.06216239929199219
2.64831280708312988 2.56849336624145508 -0.864229738712310791
1.29202604293823242 2.16042828559875488 -0.11412317305803299
0.0243767313659191132 1.91382062435150146 -0.292725175619125366
-0.726025223731994629 1.50798606872558594 -0.942779421806335449
-0.739777684211730957 1.50950229167938232 -1.20493972301483154
1.83885622024536133 2.84018564224243164 -0.459254205226898193
-0.28930780291557312 1.97435736656188965 -0.307743310928344727
4.85089969635009766 1.04967570304870605 -0.607271194458007812
-0.156963080167770386 1.92957639694213867 -0.830716431140899658
1.75207912921905518 0.311940670013427734 -0.354759812355041504
0.822738826274871826 3.04567742347717285 -0.152569487690925598
-0.0287479870021343231 1.78171110153198242 -0.218875914812088013
1.18811535835266113 3.2258753776550293 -0.261040568351745605
-0.422280460596084595 2.56899261474609375 -0.610416233539581299
1.10709524154663086 3.36088085174560547 -0.792825162410736084
0.693344533443450928 3.0211338996887207 -0.0220749489963054657
0.0660291910171508789 1.84672164916992188 0.220628440380096436
-0.0452783554792404175 1.88621652126312256 -0.500207424163818359
2.05722451210021973 2.84565043449401855 -0.917663753032684326
-0.170346111059188843 1.89214980602264404 -0.676276087760925293
-0.0143795013427734375 1.98437142372131348 -0.045789279043674469
1.79716396331787109 2.43488836288452148 -0.215019762516021729
0.911466777324676514 2.56281089782714844 -0.205364331603050232
-0.132123619318008423 1.90169250965118408 -0.764967441558837891
2.18618083000183105 0.0992028713226318359 -0.797897696495056152
-0.0818953439593315125 1.93798089027404785 -0.660838425159454346
-0.000922255218029022217 1.84738433361053467 -0.0784004852175712585
1.60954368114471436 3.58838152885437012 -0.790015459060668945
0.0493096113204956055 2.07251501083374023 0.139940410852432251
0.881743967533111572 3.35262107849121094 -0.232635080814361572
0.787260591983795166 2.80788111686706543 -0.0591828115284442902
-0.0878435820341110229 1.94107592105865479 -0.69227290153503418
1.27780544757843018 3.58142971992492676 -0.608057141304016113
-0.191097065806388855 1.87843477725982666 -0.763489782810211182
-0.161381959915161133 2.01218056678771973 -0.232693374156951904
-0.902607500553131104 1.26839697360992432 -1.18182802200317383
-0.0161822214722633362 2.04116368293762207 -0.242911547422409058
-0.134951025247573853 1.93653059005737305 -0.4212685227394104
-0.26677289605140686 1.97443628311157227 -0.465213477611541748
0.0363460369408130646 1.96468210220336914 0.102017298340797424
1.77541518211364746 2.13757419586181641 0.109356388449668884
-0.124784365296363831 2.02420520782470703 -0.184843957424163818
0.925291657447814941 2.81379508972167969 -0.538378059864044189
0.0177641771733760834 1.9422532320022583 -0.112926185131072998
2.16349124908447266 2.85753011703491211 -0.451622545719146729
-0.0735309720039367676 1.92562222480773926 -0.285865247249603271
0.767941474914550781 2.90216064453125 -0.144460052251815796
-0.285757482051849365 1.77953457832336426 -0.496939361095428467
-0.324894040822982788 1.81234478950500488 -0.831549465656280518
-0.0629344582557678223 1.8909529447555542 -0.670258283615112305
0.856668055057525635 3.10802745819091797 -0.309752672910690308
2.24745678901672363 2.65087985992431641 -0.902643918991088867
2.46906876564025879 3.13306856155395508 -0.858480334281921387
1.98933804035186768 2.82881498336791992 -0.536599278450012207
2.10442852973937988 2.97174549102783203 -0.437231779098510742
-0.0701737850904464722 1.92784011363983154 -0.496921151876449585
1.13035869598388672 2.08551239967346191 -0.918613731861114502
