ply
format ascii 1.0
element vertex 256
comment vertices
property float x
property float y
property float z
end_header
0.387993037700653076 2.57033205032348633 -1.11836934089660645
3.82473230361938477 6.42728710174560547 -0.820923268795013428
0.544233858585357666 6.47383689880371094 -0.759896218776702881
2.79071879386901855 4.08299112319946289 -1.04991531372070312
0.646406173706054688 4.49215888977050781 -0.925919055938720703
-1.28838694095611572 1.75087237358093262 -0.983013749122619629
1.60238337516784668 1.18927347660064697 -1.2612149715423584
2.08426928520202637 5.72519969940185547 -0.367715716361999512
3.12803077697753906 5.28205490112304688 -0.869541287422180176
1.82624673843383789 4.78070831298828125 -1.02798378467559814
-0.0531194135546684265 3.5692596435546875 -0.98164069652557373
1.02972197532653809 3.48231935501098633 -1.08811533451080322
-0.729526042938232422 2.66110825538635254 -1.06103181838989258
-0.189991235733032227 1.78765332698822021 -1.02183902263641357
1.26651883125305176 5.91710853576660156 -0.924947202205657959
1.1060795783996582 1.91921639442443848 -1.08275520801544189
1.16319525241851807 6.34559011459350586 -0.138032138347625732
2.33700323104858398 5.02927637100219727 -0.421934127807617188
2.63466286659240723 5.80507755279541016 -0.904162168502807617
-0.655394434928894043 1.25731682777404785 -1.03889262676239014
0.924845099449157715 7.01270484924316406 -0.821389913558959961
1.31178557872772217 4.38206911087036133 -0.923443317413330078
1.55964529514312744 5.32607316970825195 -0.78148883581161499
-0.131428122520446777 2.90127372741699219 -0.94770514965057373
0.374270915985107422 3.18337345123291016 -1.28744184970855713
2.06664395332336426 4.22140121459960938 -0.93684685230255127
0.527378201484680176 3.82585883140563965 -1.00621438026428223
1.29775786399841309 2.95333099365234375 -1.07111477851867676
3.2493596076965332 4.42765617370605469 -1.1018669605255127
-0.842330873012542725 2.12144613265991211 -1.06035590171813965
3.48216509819030762 4.90347909927368164 -1.00370872020721436
0.77992701530456543 2.87700629234313965 -1.07477903366088867
0.826080918312072754 2.32451128959655762 -1.10300397872924805
1.14670741558074951 5.96844339370727539 -0.468501031398773193
1.19182896614074707 1.45887613296508789 -1.13581621646881104
1.62641453742980957 5.7228546142578125 -0.545201659202575684
2.15938806533813477 5.08344745635986328 -0.975649118423461914
3.69627881050109863 6.05563831329345703 -1.04437971115112305
3.11221647262573242 5.46106386184692383 -0.463473856449127197
0.853848934173583984 6.31094503402709961 -0.492902487516403198
0.769838154315948486 6.32091093063354492 -1.09906005859375
2.2355659008026123 5.37339973449707031 -0.663372635841369629
0.00347167253494262695 2.3970184326171875 -1.0385897159576416
1.29458165168762207 3.79065465927124023 -0.98827064037322998
-0.416549384593963623 2.38708066940307617 -1.07378804683685303
-0.374486744403839111 3.23347854614257812 -0.998749017715454102
1.66801118850708008 4.96215295791625977 -0.619084537029266357
0.177255958318710327 3.60609889030456543 -1.31496715545654297
2.30549049377441406 5.86080408096313477 -0.697678208351135254
0.209430545568466187 3.20810794830322266 -0.936395406723022461
-0.537570059299468994 1.90781044960021973 -1.08757352828979492
1.65352964401245117 4.44782733917236328 -0.809194684028625488
2.03043150901794434 4.56626605987548828 -0.825671195983886719
2.92410802841186523 5.57139778137207031 -0.918806195259094238
1.98020803928375244 5.16946554183959961 -0.525974571704864502
1.59480881690979004 5.65152406692504883 -0.9171905517578125
0.439668834209442139 4.14228248596191406 -0.891242384910583496
-0.457050919532775879 1.54108083248138428 -1.07291984558105469
-0.404193520545959473 2.73517656326293945 -1.13622808456420898
0.798605382442474365 3.23726773262023926 -1.06133973598480225
1.78261947631835938 1.45491528511047363 -1.22953176498413086
2.3970940113067627 4.85050678253173828 -0.682293415069580078
0.446523278951644897 3.47879552841186523 -1.19605433940887451
0.621707558631896973 6.16738796234130859 -0.746142566204071045
0.483850002288818359 3.01607060432434082 -1.0437626838684082
-0.619174540042877197 2.58051156997680664 -0.777289628982543945
0.730544328689575195 6.76761198043823242 -0.846774935722351074
0.0890924930572509766 2.70783591270446777 -1.05505800247192383
1.03269577026367188 6.15826082229614258 -0.689161062240600586
1.2740325927734375 1.18409478664398193 -1.21735036373138428
-0.494265496730804443 2.96545934677124023 -0.946985602378845215
0.720418214797973633 4.05153942108154297 -0.993073105812072754
1.99733686447143555 5.5450592041015625 -0.649908959865570068
1.91639518737792969 5.04064416885375977 -0.78091895580291748
1.41635560989379883 5.94717550277709961 -0.56971132755279541
-0.865653276443481445 2.41195487976074219 -1.03832221031188965
0.418770849704742432 2.30839872360229492 -1.01961445808410645
1.67656636238098145 5.42668008804321289 -0.551166117191314697
1.01322782039642334 3.07412219047546387 -1.12511968612670898
2.98781847953796387 4.37718534469604492 -1.0769575834274292
1.28935849666595459 5.75027608871459961 -0.718150615692138672
0.176543623208999634 3.69092154502868652 -0.929255008697509766
2.30297756195068359 5.12471437454223633 -0.722457826137542725
0.301286220550537109 2.83801078796386719 -1.0937047004699707
2.15514588356018066 5.47918510437011719 -0.450251668691635132
2.65940642356872559 5.55666828155517578 -0.91824805736541748
0.335131227970123291 3.82351303100585938 -1.16392111778259277
0.6159706711769104 6.18632936477661133 -0.5010223388671875
1.5566253662109375 1.43085908889770508 -1.13579368591308594
1.0576322078704834 6.24285602569580078 -0.334382832050323486
0.394695580005645752 3.39096188545227051 -0.978726565837860107
2.12419891357421875 4.85755634307861328 -1.04730534553527832
0.677956938743591309 2.49784660339355469 -1.02978909015655518
2.22848176956176758 5.68618631362915039 -0.841350197792053223
0.552737951278686523 2.72772455215454102 -1.04660797119140625
1.83543944358825684 5.28572225570678711 -0.674360811710357666
1.64537370204925537 4.68324422836303711 -0.828725695610046387
0.330775201320648193 3.92890620231628418 -0.925712108612060547
-0.622393608093261719 2.19942998886108398 -1.08679282665252686
0.0727412104606628418 3.01206302642822266 -0.940570712089538574
-0.689047574996948242 1.5416252613067627 -1.0638267993927002
2.99208831787109375 5.09493684768676758 -0.858711123466491699
1.21780490875244141 6.02376079559326172 -0.720109820365905762
2.26626467704772949 5.67416763305664062 -0.567660510540008545
1.30548989772796631 6.02801179885864258 -0.317702978849411011
1.37297630310058594 1.594962477684021 -1.13782680034637451
1.79004085063934326 4.85317277908325195 -0.815939664840698242
-0.541077494621276855 2.70035290718078613 -0.950028836727142334
0.602145850658416748 4.26729249954223633 -0.974995613098144531
-0.0301426947116851807 1.93461406230926514 -0.99554210901260376
0.325974494218826294 2.64963626861572266 -0.927141726016998291
-0.608706474304199219 2.47926545143127441 -1.07297945022583008
0.651391506195068359 6.38044023513793945 -0.601464450359344482
1.82740581035614014 5.73297452926635742 -0.500343620777130127
-0.261336982250213623 3.11747503280639648 -0.872569084167480469
3.04671168327331543 5.43280267715454102 -0.760928869247436523
-0.810249567031860352 2.55821633338928223 -0.907045960426330566
-0.578851699829101562 1.41466379165649414 -0.94125211238861084
0.82721257209777832 3.43136882781982422 -1.09547340869903564
-0.280872344970703125 2.83625388145446777 -0.834160923957824707
0.175340175628662109 2.52905607223510742 -1.05457663536071777
-0.0623916983604431152 3.39266157150268555 -0.898147940635681152
0.174232244491577148 2.30678772926330566 -1.06612181663513184
-0.419812113046646118 1.73153197765350342 -1.08962750434875488
1.46389961242675781 4.49590778350830078 -0.897832274436950684
0.671517789363861084 6.33156204223632812 -0.935434699058532715
1.1355363130569458 3.76647639274597168 -1.08869576454162598
0.601712286472320557 2.26166009902954102 -1.02683436870574951
0.766406655311584473 4.34694671630859375 -0.933304965496063232
0.783992588520050049 6.25568675994873047 -0.771365106105804443
0.313086867332458496 3.09701728820800781 -1.13567972183227539
1.40396416187286377 5.62456417083740234 -0.645753443241119385
0.49163055419921875 3.55771207809448242 -1.03660917282104492
0.988809049129486084 6.02750778198242188 -0.407560884952545166
1.65242195129394531 4.50145959854125977 -0.977459311485290527
1.6694791316986084 5.22610569000244141 -0.674655616283416748
1.80828499794006348 4.65129661560058594 -0.885878324508666992
0.663435816764831543 3.00748085975646973 -1.0650486946105957
-0.289219498634338379 2.9679563045501709 -0.981112122535705566
0.96935880184173584 6.844818115234375 -0.829871416091918945
0.778335034847259521 2.73787403106689453 -0.971067667007446289
2.02372264862060547 5.40257024765014648 -0.533379495143890381
0.664669573307037354 3.72732901573181152 -0.970337808132171631
1.54276418685913086 5.49334335327148438 -0.743955850601196289
-0.98268592357635498 2.21895861625671387 -1.05196976661682129
-0.546455979347229004 1.36812293529510498 -1.10986638069152832
1.95281696319580078 4.92778635025024414 -0.903858482837677002
3.88502049446105957 6.26819324493408203 -0.81228184700012207
2.27999234199523926 4.96097040176391602 -0.626653790473937988
0.34855186939239502 2.48823428153991699 -0.970601320266723633
0.521819770336151123 2.47081089019775391 -1.11158108711242676
2.76011013984680176 5.50057363510131836 -1.03892731666564941
-1.20491504669189453 1.6075599193572998 -0.974026918411254883
-0.839621245861053467 2.54883956909179688 -1.12840569019317627
-0.0148708820343017578 2.835723876953125 -1.07222723960876465
1.51044225692749023 4.52121114730834961 -0.7429046630859375
1.1065526008605957 5.9227442741394043 -0.783223271369934082
-0.442626446485519409 3.06380748748779297 -0.829035043716430664
1.47008800506591797 1.26302731037139893 -1.20752632617950439
0.70148622989654541 6.48275089263916016 -0.788324952125549316
0.853243708610534668 2.47406959533691406 -1.05551934242248535
1.52021384239196777 4.36548805236816406 -0.828330814838409424
1.00831830501556396 2.0345757007598877 -1.03767275810241699
-0.275744378566741943 2.70041322708129883 -1.05193984508514404
1.19123470783233643 1.60355269908905029 -1.08468270301818848
0.522330880165100098 3.16231393814086914 -1.02141129970550537
1.29799902439117432 4.5295867919921875 -0.886787831783294678
-0.154292583465576172 2.7515873908996582 -0.840758621692657471
1.23654007911682129 1.84899640083312988 -1.04721522331237793
0.267890512943267822 2.69012212753295898 -1.10358476638793945
0.646405220031738281 2.81375789642333984 -1.12221658229827881
1.15929603576660156 6.04708337783813477 -0.319881230592727661
1.99740314483642578 5.63114023208618164 -0.438424825668334961
1.25587475299835205 1.33237624168395996 -1.17115211486816406
1.49073994159698486 4.36373662948608398 -0.971071302890777588
-0.538246989250183105 2.60112309455871582 -1.10941731929779053
-0.436148107051849365 2.01116609573364258 -1.07891392707824707
2.26165485382080078 5.52744960784912109 -0.535766482353210449
0.418167680501937866 3.61286401748657227 -1.14950644969940186
0.279749542474746704 2.45135164260864258 -1.11678600311279297
0.425010889768600464 4.03008508682250977 -0.97850334644317627
0.408742666244506836 2.68798041343688965 -1.04301023483276367
3.09820985794067383 5.43305444717407227 -0.600305438041687012
0.800713777542114258 3.10078001022338867 -1.09292757511138916
0.834971606731414795 6.29520034790039062 -0.648029148578643799
-0.744571924209594727 2.49967265129089355 -1.03942084312438965
1.48473751544952393 1.12657129764556885 -1.30103111267089844
3.86884665489196777 6.37200736999511719 -0.940270423889160156
-0.439893275499343872 3.09106993675231934 -0.965171098709106445
0.380611062049865723 3.15641427040100098 -1.03153061866760254
0.47222369909286499 2.54631996154785156 -1.00957012176513672
-0.0651204586029052734 2.70917296409606934 -1.06742501258850098
0.32090151309967041 2.9889533519744873 -1.05322384834289551
1.17450523376464844 5.81200790405273438 -0.679067373275756836
-0.0353978276252746582 3.0145263671875 -0.858309030532836914
-0.716203510761260986 1.37205147743225098 -1.0003359317779541
2.84185266494750977 5.67607641220092773 -0.9137115478515625
0.49609529972076416 2.8262944221496582 -1.11412477493286133
1.72478055953979492 4.54856491088867188 -0.877463161945343018
1.91146326065063477 4.58515548706054688 -0.771722555160522461
2.15998601913452148 5.67461538314819336 -0.729288816452026367
0.223099291324615479 2.7368776798248291 -0.988904953002929688
0.427729189395904541 3.98121953010559082 -0.85443270206451416
0.956783533096313477 6.06268548965454102 -0.641399085521697998
-0.639473617076873779 2.54025650024414062 -0.961517632007598877
-0.864205718040466309 2.26570653915405273 -1.08062052726745605
0.535815596580505371 2.60058426856994629 -1.10869598388671875
1.50667798519134521 5.68514728546142578 -0.514676511287689209
-0.26232457160949707 2.84171676635742188 -0.981720626354217529
0.179045498371124268 3.5733640193939209 -1.1908111572265625
-0.371358275413513184 1.73795092105865479 -0.971619129180908203
0.214683234691619873 3.23756599426269531 -1.05980908870697021
0.601649165153503418 6.3616633415222168 -0.747689127922058105
0.948363900184631348 2.327606201171875 -1.07416772842407227
-0.497941166162490845 1.32217562198638916 -0.9499167799949646
1.75580883026123047 1.34767246246337891 -1.1759103536605835
1.62749731540679932 5.53469228744506836 -0.666101455688476562
0.374217748641967773 3.27791738510131836 -1.02575504779815674
0.286964207887649536 2.37568068504333496 -1.02160799503326416
0.284434199333190918 2.59501767158508301 -1.02968347072601318
-0.906720995903015137 2.53454303741455078 -0.976356267929077148
0.716967105865478516 2.31158137321472168 -1.05238628387451172
1.11612558364868164 3.8455500602722168 -1.00101184844970703
2.87038803100585938 4.1496734619140625 -0.9906463623046875
1.49890732765197754 5.58855628967285156 -0.801532506942749023
0.644281566143035889 2.73787403106689453 -0.971067667007446289
0.642286777496337891 6.1721644401550293 -0.629385232925415039
0.486643612384796143 4.16990423202514648 -0.995984554290771484
0.776146650314331055 3.95899438858032227 -0.946512460708618164
2.23816561698913574 5.59145832061767578 -0.645872354507446289
-0.128298431634902954 3.49559807777404785 -0.933414280414581299
3.09927129745483398 4.38617897033691406 -1.04792511463165283
0.33466494083404541 2.75699615478515625 -0.977890968322753906
1.66338574886322021 1.27620589733123779 -1.22206521034240723
0.385418593883514404 2.41276717185974121 -1.10979294776916504
0.567198634147644043 2.3840639591217041 -1.0567471981048584
1.61153149604797363 4.59251737594604492 -0.926314353942871094
1.38823819160461426 1.20289397239685059 -1.25509285926818848
3.10517430305480957 5.34316205978393555 -0.740232586860656738
1.53856098651885986 5.41511964797973633 -0.839914500713348389
0.622425556182861328 6.27281808853149414 -0.593989014625549316
2.79586458206176758 5.58188343048095703 -0.889214634895324707
1.26031088829040527 5.87426471710205078 -0.690577387809753418
0.703263580799102783 4.24081516265869141 -0.955748975276947021
0.0684804916381835938 2.89987587928771973 -1.0578010082244873
-0.48069453239440918 1.44221603870391846 -0.962646782398223877
1.55765461921691895 4.46152734756469727 -0.961232781410217285
-0.474053263664245605 2.65175604820251465 -1.04611659049987793
0.674162447452545166 6.4149322509765625 -0.697054088115692139
2.04713702201843262 4.93752145767211914 -0.944074273109436035
-0.28043791651725769 3.26459741592407227 -0.970661163330078125
1.13944101333618164 1.82208037376403809 -1.08805811405181885
1.60965752601623535 4.35175561904907227 -0.876763820648193359
0.456114292144775391 2.66959214210510254 -1.13199758529663086
-0.367369949817657471 2.65496158599853516 -1.05300724506378174
0.159918814897537231 2.4061121940612793 -1.08382308483123779
