ply
format ascii 1.0
element vertex 93
comment vertices
property float x
property float y
property float z
end_header
0.22083580493927002 2.35335111618041992 -1.07127106189727783
-0.139493241906166077 3.50023055076599121 -0.925368785858154297
-0.452668845653533936 1.34274208545684814 -1.00036489963531494
-0.835260093212127686 2.53023433685302734 -0.999419689178466797
1.6184462308883667 4.46887111663818359 -0.944246232509613037
0.411083698272705078 3.9681851863861084 -0.929544270038604736
0.504879593849182129 2.64574909210205078 -0.998286724090576172
-0.810109794139862061 1.95943808555603027 -1.07550942897796631
1.12978875637054443 3.04239797592163086 -0.984140217304229736
-0.987423062324523926 2.36311674118041992 -0.974516630172729492
-0.574318885803222656 1.25127327442169189 -1.00000941753387451
-0.0664803236722946167 2.00940895080566406 -1.05058765411376953
-0.450256139039993286 3.06547760963439941 -0.976962089538574219
1.89764606952667236 4.4706273078918457 -1.00268590450286865
0.280827045440673828 2.7811436653137207 -1.0398402214050293
0.410899192094802856 4.07408666610717773 -0.975432276725769043
-0.871598362922668457 2.45103645324707031 -1.01453113555908203
1.24717295169830322 4.39303016662597656 -0.96072620153427124
-0.633735299110412598 1.5025252103805542 -1.03497731685638428
-0.107091128826141357 2.44762992858886719 -1.03008723258972168
-0.483774542808532715 1.29042994976043701 -0.955728650093078613
-0.0612635537981987 1.55520963668823242 -1.08550703525543213
0.0226044729351997375 3.6246492862701416 -1.00936746597290039
-0.505762577056884766 2.88978910446166992 -0.942677140235900879
-1.0836641788482666 2.09352278709411621 -1.08417534828186035
-0.523420870304107666 1.64103925228118896 -1.04840743541717529
-0.0925471186637878418 3.38044571876525879 -0.991979777812957764
0.503763735294342041 2.8919978141784668 -1.03679931163787842
0.888296127319335938 2.95572066307067871 -0.997687458992004395
-0.869206249713897705 2.4340052604675293 -0.932908833026885986
0.381387919187545776 2.53574419021606445 -1.01666176319122314
1.03502726554870605 3.15447616577148438 -1.00915360450744629
0.139442175626754761 2.19872093200683594 -1.07513785362243652
-0.254557430744171143 3.37389969825744629 -0.955677807331085205
0.369345784187316895 3.98963356018066406 -0.975627660751342773
-0.175987154245376587 1.8646923303604126 -1.08089327812194824
-0.403421700000762939 3.03662705421447754 -0.979757308959960938
0.395357489585876465 2.39095473289489746 -1.02755296230316162
0.196318179368972778 2.55714321136474609 -1.02681100368499756
0.43294033408164978 4.05170917510986328 -0.979853391647338867
-0.640583574771881104 2.66447615623474121 -1.02053284645080566
-0.515554308891296387 2.95992708206176758 -1.00221264362335205
-0.866962075233459473 2.44047021865844727 -1.00622034072875977
0.414547950029373169 4.0483241081237793 -0.881190717220306396
0.267937183380126953 2.20879030227661133 -1.05297863483428955
-1.19141435623168945 2.11155271530151367 -1.01293909549713135
-0.546017825603485107 1.31625354290008545 -0.96138840913772583
-0.0675306394696235657 3.50594949722290039 -1.01235067844390869
0.467012375593185425 4.14725589752197266 -0.945940971374511719
0.127936288714408875 2.01416993141174316 -1.06149065494537354
-1.04561531543731689 1.82892918586730957 -1.03112161159515381
0.0571385696530342102 2.29349756240844727 -1.05139338970184326
0.399417519569396973 4.03650236129760742 -0.943552196025848389
0.320582717657089233 3.84703660011291504 -0.926203072071075439
0.957159459590911865 3.19818568229675293 -0.972721219062805176
-0.0845276117324829102 3.56696796417236328 -0.976522684097290039
-0.820557177066802979 2.48661494255065918 -1.00804126262664795
1.04700660705566406 3.06164956092834473 -1.01910877227783203
-0.432324230670928955 2.95301294326782227 -0.937210142612457275
0.411906331777572632 2.69332647323608398 -1.01230335235595703
-0.506618678569793701 1.30638241767883301 -0.990561246871948242
-0.138952448964118958 3.47625494003295898 -0.991120278835296631
0.323205709457397461 2.62217164039611816 -1.05536818504333496
0.0198153480887413025 2.09653377532958984 -1.07567930221557617
-0.875709772109985352 2.42755460739135742 -1.02374124526977539
-0.751118183135986328 1.78860127925872803 -1.07012009620666504
0.417515188455581665 4.00839519500732422 -0.923965573310852051
-0.184931337833404541 3.29586577415466309 -0.95362246036529541
-0.52717822790145874 1.53474557399749756 -1.03197610378265381
1.08352887630462646 3.15924739837646484 -0.97257077693939209
1.4201347827911377 4.4684605598449707 -0.943657100200653076
-0.478846520185470581 1.27315866947174072 -0.991191744804382324
0.476763248443603516 2.51548576354980469 -1.02823197841644287
1.63893091678619385 4.50521183013916016 -0.934307098388671875
0.705155134201049805 3.0205078125 -0.990261733531951904
1.0955880880355835 3.0659937858581543 -1.00790941715240479
-0.80507129430770874 1.61256170272827148 -1.05132877826690674
-0.119264021515846252 3.41546988487243652 -0.945141732692718506
-0.466604173183441162 2.96664309501647949 -0.986621677875518799
0.281857937574386597 2.46736812591552734 -1.04633009433746338
0.626936018466949463 2.78837084770202637 -1.03494656085968018
0.198124498128890991 3.53033542633056641 -1.07464563846588135
0.797947883605957031 2.78711533546447754 -1.03602433204650879
-0.844001531600952148 2.44745588302612305 -0.995473504066467285
-0.579735457897186279 2.85892915725708008 -0.993832290172576904
0.171291843056678772 2.2463841438293457 -1.09556186199188232
-0.962938189506530762 1.98151016235351562 -1.06522512435913086
-0.88270944356918335 2.42278361320495605 -1.00993490219116211
-0.0235525034368038177 1.95334100723266602 -1.05105435848236084
-0.433980107307434082 3.03207707405090332 -0.937181234359741211
-0.762336492538452148 2.57126951217651367 -0.973437964916229248
0.151332691311836243 2.29540324211120605 -1.03345358371734619
-0.383777022361755371 3.13409113883972168 -0.972066998481750488
