ply
format ascii 1.0
element vertex 256
comment vertices
property float x
property float y
property float z
end_header
0.183998554944992065 1.65632426738739014 -1.12057876586914062
4.12335538864135742 6.31364345550537109 -0.658119320869445801
0.429356276988983154 6.73789405822753906 0.171516001224517822
0.23398253321647644 3.87727832794189453 -0.326591640710830688
-1.94151198863983154 1.97768485546112061 -0.174128696322441101
1.77237510681152344 2.99803638458251953 -1.23320090770721436
3.08673810958862305 5.43315935134887695 -1.3397977352142334
-0.81792747974395752 0.484629929065704346 -0.936579465866088867
2.08947181701660156 1.30017125606536865 -1.47487592697143555
-1.2118828296661377 2.45071721076965332 -1.63316845893859863
3.00371646881103516 4.21472024917602539 -0.708992958068847656
1.21677076816558838 2.6811985969543457 -0.475249350070953369
-0.98620307445526123 2.85179424285888672 -0.403181284666061401
1.31081008911132812 3.81445980072021484 -0.662513196468353271
-0.668221473693847656 1.79491937160491943 -0.639863133430480957
2.01499843597412109 0.719356298446655273 -1.64921140670776367
4.0487828254699707 5.64934825897216797 -0.664329349994659424
1.60818994045257568 5.26889944076538086 -0.468270540237426758
2.77301812171936035 6.18853902816772461 -1.83200609683990479
-0.37848973274230957 3.34791350364685059 -1.07399606704711914
0.907260000705718994 2.23320198059082031 -1.18944656848907471
3.0157618522644043 4.11881446838378906 -0.574904978275299072
-0.990428745746612549 1.36129176616668701 -1.07717764377593994
-0.128900587558746338 2.56235313415527344 -0.822852432727813721
0.170857608318328857 4.37529277801513672 -0.547740280628204346
0.185899138450622559 0.920785069465637207 -1.54102730751037598
3.17002224922180176 5.46059083938598633 -0.374985158443450928
-0.747723698616027832 1.32683873176574707 -1.60954976081848145
-1.96434271335601807 1.91472578048706055 -0.927733421325683594
-0.443437486886978149 1.1210484504699707 -0.827496170997619629
4.00557231903076172 5.635498046875 -1.06804525852203369
0.186022341251373291 2.20346474647521973 -1.13018083572387695
-0.947514355182647705 2.14844179153442383 -1.07583427429199219
2.36531901359558105 1.8425147533416748 -1.35984659194946289
2.8686988353729248 5.04825687408447266 -0.482295215129852295
-1.37810075283050537 1.55311739444732666 -0.603556990623474121
0.98000943660736084 5.50549411773681641 0.1520194411277771
1.68959295749664307 0.807393789291381836 -1.33362901210784912
-0.0736075341701507568 1.6886138916015625 -1.04492688179016113
0.504371523857116699 3.52502250671386719 -0.887788176536560059
2.03997325897216797 4.48504638671875 0.558366179466247559
0.102881461381912231 4.41262149810791016 0.0725278854370117188
-0.683697402477264404 2.52820515632629395 -1.8092503547668457
-0.63460242748260498 0.258295357227325439 -1.51583445072174072
-0.169429168105125427 3.31674361228942871 -0.272659271955490112
-0.945477068424224854 1.48310697078704834 -1.06006252765655518
-1.17263340950012207 2.28490591049194336 -0.510804176330566406
-0.967378795146942139 0.605037093162536621 -0.412940382957458496
2.41088390350341797 4.50803709030151367 -0.637523949146270752
1.35052406787872314 5.29662132263183594 0.201131314039230347
1.63425588607788086 2.46434211730957031 -1.4027707576751709
1.47610974311828613 0.443560957908630371 -1.33704030513763428
0.658756434917449951 1.44120693206787109 -1.06102907657623291
1.91667652130126953 3.5728609561920166 -0.956769704818725586
2.52052021026611328 3.7395939826965332 -0.947618365287780762
1.47058510780334473 6.83871746063232422 -0.506246387958526611
3.14053559303283691 4.00221824645996094 -1.25421953201293945
3.69908952713012695 5.33270025253295898 -1.10954940319061279
-0.570025324821472168 2.87763547897338867 -1.12002384662628174
-0.639909863471984863 0.957669854164123535 -1.42457151412963867
-1.13105106353759766 2.74868679046630859 -0.98340684175491333
-0.558687269687652588 1.02438116073608398 -0.62404024600982666
-0.217995405197143555 3.69808292388916016 -0.511576592922210693
-1.02589857578277588 1.87635326385498047 -1.35955572128295898
0.375233769416809082 2.97977924346923828 -0.728197991847991943
1.7136073112487793 1.12510514259338379 -1.6655808687210083
1.90622568130493164 3.93337655067443848 -0.615788280963897705
-1.06523311138153076 1.41890883445739746 -1.24874210357666016
1.98183417320251465 4.78270864486694336 0.14244455099105835
2.14663124084472656 0.803124547004699707 -1.65793681144714355
1.08496332168579102 2.44133639335632324 -0.91954803466796875
2.88176298141479492 5.03068828582763672 0.116318553686141968
-0.518049716949462891 2.30472993850708008 -0.609836161136627197
1.04022121429443359 5.86594295501708984 0.119187712669372559
-0.643323779106140137 0.85844266414642334 -1.0986180305480957
-0.327261924743652344 0.993585407733917236 -1.57458043098449707
2.79241108894348145 5.64566707611083984 -0.867197751998901367
-0.555324256420135498 3.2012324333190918 -0.574075639247894287
1.8401261568069458 1.58493053913116455 -1.61958980560302734
3.16290521621704102 5.89186811447143555 -1.72785556316375732
-1.78293061256408691 2.2370762825012207 -0.895276963710784912
1.27717673778533936 2.81591224670410156 -1.34217929840087891
-1.41232848167419434 1.97221636772155762 -0.877411365509033203
-0.477595090866088867 1.37727177143096924 -1.29696345329284668
0.197264939546585083 3.19988417625427246 -0.991208195686340332
0.717773675918579102 4.22899103164672852 -0.258048772811889648
-0.775563597679138184 2.57562446594238281 -1.02712082862854004
2.48866081237792969 5.46437263488769531 -0.102512538433074951
0.105301976203918457 2.08545637130737305 -1.06285429000854492
1.09952652454376221 5.44436168670654297 0.388757258653640747
-0.426086902618408203 1.57406973838806152 -0.987324774265289307
-0.5103798508644104 0.44848322868347168 -0.636163473129272461
2.10885071754455566 4.57360410690307617 0.0334539413452148438
-0.024886012077331543 1.68286252021789551 -1.2620699405670166
-0.603973567485809326 1.72584855556488037 -1.57381868362426758
3.50612878799438477 5.61445760726928711 -0.882931053638458252
0.971346616744995117 6.73702430725097656 -0.0318357944488525391
-0.812847673892974854 1.48630285263061523 -0.629682660102844238
-0.884965777397155762 0.410308480262756348 -1.25039148330688477
-2.08628392219543457 2.0177772045135498 -0.6233939528465271
2.93985319137573242 5.46890354156494141 0.369183897972106934
0.417223274707794189 2.5191810131072998 -0.799869060516357422
1.15849995613098145 0.801400661468505859 -1.28918099403381348
2.04110503196716309 4.82187938690185547 -0.245120525360107422
1.41763162612915039 5.03018331527709961 -0.278285026550292969
3.17320632934570312 5.04562044143676758 -0.890627264976501465
-1.17249226570129395 2.75814032554626465 -0.244917616248130798
-0.0375065803527832031 2.13221955299377441 -0.994933366775512695
1.26844561100006104 0.76783454418182373 -1.66449892520904541
0.0281300395727157593 3.96075153350830078 -0.438881874084472656
0.598213911056518555 5.75388288497924805 0.413301229476928711
1.7804713249206543 4.70115184783935547 -0.130712270736694336
2.03438806533813477 0.433344244956970215 -1.46469688415527344
-0.965198159217834473 1.08206355571746826 -0.439004480838775635
0.515198469161987305 1.05767405033111572 -1.29283261299133301
-0.774929702281951904 2.17656278610229492 -0.567093372344970703
-1.13361966609954834 2.56839585304260254 -0.76384282112121582
1.98932802677154541 1.17892324924468994 -1.47517848014831543
-0.250126123428344727 3.66717958450317383 -0.245237946510314941
-0.240253567695617676 2.1925194263458252 -0.907784223556518555
-1.10626327991485596 0.927058637142181396 -1.03036117553710938
-0.582721352577209473 0.845260202884674072 -1.16231620311737061
-0.571680366992950439 3.14234042167663574 -0.181601852178573608
1.38064634799957275 3.53648042678833008 -0.795591771602630615
-1.38447213172912598 1.52039515972137451 -0.895168542861938477
2.52652239799499512 4.50320768356323242 0.423576623201370239
2.49262070655822754 6.79421472549438477 -1.68594634532928467
2.35744524002075195 1.47012221813201904 -1.39081180095672607
1.1298600435256958 5.30828332901000977 -0.0519629716873168945
-0.714628994464874268 0.709033608436584473 -0.692993998527526855
-0.629023075103759766 1.1725924015045166 -0.934578657150268555
-0.667189955711364746 0.875995993614196777 -1.46097779273986816
0.0265121161937713623 4.44408082962036133 -0.270204901695251465
1.04932498931884766 3.8846280574798584 -0.519909858703613281
2.26174306869506836 1.45958888530731201 -1.75232028961181641
0.665692687034606934 2.36948013305664062 -0.880916476249694824
2.09960842132568359 2.29751873016357422 -1.36467528343200684
-0.443210184574127197 0.896099567413330078 -0.698459804058074951
-1.13512754440307617 1.7805168628692627 -1.0278172492980957
-0.334900438785552979 1.89788639545440674 -0.882236003875732422
3.7172083854675293 5.17898273468017578 -1.5864335298538208
-0.374542593955993652 2.77749252319335938 -0.907557785511016846
1.83542239665985107 1.62336051464080811 -1.29469704627990723
-1.37906956672668457 1.84972786903381348 -1.39400398731231689
-1.35653626918792725 2.01745772361755371 -0.980446457862854004
-0.514973938465118408 3.56578159332275391 -0.383101344108581543
-1.49197936058044434 2.0805361270904541 -0.495041728019714355
2.15890717506408691 0.949733972549438477 -1.47619688510894775
-0.148332417011260986 3.75000381469726562 -0.765178442001342773
1.51741671562194824 2.69157171249389648 -1.13837623596191406
1.3203808069229126 1.1167299747467041 -1.29881632328033447
-0.869400620460510254 0.263640522956848145 -1.46822464466094971
-0.237491577863693237 1.24018800258636475 -0.986133813858032227
1.75955963134765625 3.71546339988708496 -0.770350277423858643
1.03869128227233887 1.24248218536376953 -1.26255512237548828
-0.528978645801544189 1.07657968997955322 -1.2970271110534668
-0.713251411914825439 2.8660125732421875 -0.685037553310394287
3.37780547142028809 5.75794219970703125 -1.20836162567138672
0.493600070476531982 3.78420066833496094 -0.696733951568603516
-1.15581262111663818 1.96764683723449707 -1.40683376789093018
-1.18327665328979492 2.23552346229553223 -0.717188775539398193
-0.610611796379089355 3.07468557357788086 -0.915703833103179932
0.185877114534378052 1.78062343597412109 -1.01631760597229004
1.97537314891815186 4.44329261779785156 0.20083916187286377
-0.539358258247375488 1.4217296838760376 -0.724547088146209717
3.05382919311523438 5.70611047744750977 -1.49595975875854492
1.92767190933227539 6.33404016494750977 -0.953607082366943359
-0.374329805374145508 3.34031105041503906 -0.847413301467895508
-0.745275616645812988 1.52696132659912109 -0.48357844352722168
2.71960330009460449 4.95715713500976562 0.0644094944000244141
2.90767836570739746 4.00698328018188477 -1.07064998149871826
0.345259726047515869 6.6959071159362793 0.296929359436035156
1.10349154472351074 0.788830280303955078 -1.08165240287780762
3.00344514846801758 5.8167567253112793 -1.31857168674468994
0.128533214330673218 2.44405460357666016 -0.922798275947570801
2.41077232360839844 5.85725688934326172 -0.813522100448608398
0.677347660064697266 5.78469657897949219 0.161491274833679199
1.55145263671875 0.45385277271270752 -1.32619917392730713
-0.111528307199478149 1.43188738822937012 -1.08064806461334229
-1.0080949068069458 2.47989130020141602 -1.03918778896331787
0.852495491504669189 2.92471480369567871 -0.674308538436889648
0.167269006371498108 0.794130384922027588 -1.4868929386138916
1.77204501628875732 1.71372413635253906 -1.38997507095336914
-0.527450859546661377 0.629411220550537109 -0.830025792121887207
1.77666711807250977 0.28477168083190918 -1.46144676208496094
-1.30879127979278564 1.23454642295837402 -0.948611259460449219
0.732311367988586426 5.85677480697631836 0.145990967750549316
-0.90694195032119751 3.09850525856018066 -0.144903987646102905
3.78915023803710938 6.1579279899597168 -0.434939861297607422
-0.659026622772216797 0.868269443511962891 -0.530751824378967285
2.02372884750366211 1.39458942413330078 -1.60064613819122314
1.40086114406585693 2.52687573432922363 -0.705971658229827881
2.83642864227294922 5.20054483413696289 -0.464002758264541626
-0.936097860336303711 1.91193294525146484 -1.17848289012908936
0.395437359809875488 2.32891964912414551 -1.07501864433288574
0.866189002990722656 0.689365148544311523 -1.51272797584533691
-0.948074221611022949 1.06854307651519775 -1.4189460277557373
1.55289876461029053 3.90345287322998047 -0.575961589813232422
-0.656913161277770996 0.591611564159393311 -0.991718530654907227
-0.433718860149383545 3.67215633392333984 -0.685444533824920654
-0.70446854829788208 1.14921867847442627 -0.717820644378662109
-0.558618307113647461 1.1945873498916626 -1.21190345287322998
-0.0153470486402511597 3.69131612777709961 -0.385382175445556641
-0.296714484691619873 1.7133488655090332 -1.19037902355194092
-0.36756017804145813 2.06859397888183594 -0.639135837554931641
0.286480158567428589 3.35045576095581055 -0.875211715698242188
0.819520890712738037 2.6073610782623291 -0.803788483142852783
0.948778092861175537 4.90472412109375 -0.134090080857276917
0.22722257673740387 3.58068156242370605 -0.776582717895507812
3.00135040283203125 6.02060270309448242 -1.81286239624023438
-0.493387669324874878 1.23659336566925049 -0.800540685653686523
1.64231359958648682 5.10545969009399414 -0.10788959264755249
2.32706260681152344 4.38902187347412109 -0.63934779167175293
-0.734693467617034912 0.508557677268981934 -0.638554871082305908
-0.717147707939147949 1.62852239608764648 -1.58872079849243164
-0.667397022247314453 3.31224226951599121 -0.291079878807067871
0.662800073623657227 1.40665233135223389 -0.982778966426849365
0.272427469491958618 4.26579046249389648 -0.17091679573059082
0.772692203521728516 5.41418170928955078 0.38427436351776123
2.14057207107543945 4.59273815155029297 0.807843685150146484
2.12537264823913574 0.754752755165100098 -1.53031444549560547
-0.772018194198608398 2.6630251407623291 -0.8519095778465271
-0.857565999031066895 0.441440284252166748 -1.57010829448699951
-1.18400585651397705 2.07370257377624512 -0.993746101856231689
0.263509750366210938 2.18074703216552734 -0.999156713485717773
2.11849641799926758 4.31141233444213867 0.0679239034652709961
2.23576641082763672 5.49249982833862305 0.0323234200477600098
0.127938240766525269 2.64079403877258301 -0.875329852104187012
-2.03892183303833008 1.95876014232635498 -0.932568967342376709
-0.972395837306976318 1.61317873001098633 -0.759502649307250977
-1.75426936149597168 2.14460277557373047 -0.935405373573303223
3.21970033645629883 4.65892457962036133 -1.15495109558105469
-1.18653011322021484 1.59727144241333008 -1.06639695167541504
-0.0466920845210552216 3.82820391654968262 -0.298859566450119019
1.05880832672119141 3.97708296775817871 -0.471937298774719238
-0.299471914768218994 2.38484287261962891 -0.76408696174621582
-0.200019046664237976 0.807680130004882812 -1.59590137004852295
2.67987513542175293 5.06012296676635742 -0.000755548477172851562
-1.58971881866455078 2.04262471199035645 -0.691398262977600098
1.90991640090942383 4.48763179779052734 -0.297240793704986572
2.08739733695983887 1.57920491695404053 -1.75731456279754639
-0.877959728240966797 2.36899757385253906 -0.993755817413330078
-1.16794538497924805 1.73688137531280518 -1.22072851657867432
1.00948929786682129 2.39148974418640137 -0.79290473461151123
-1.07662856578826904 1.8763498067855835 -0.934959530830383301
-1.11397087574005127 2.01823091506958008 -1.21647322177886963
3.18248271942138672 5.13555192947387695 -0.0953527763485908508
1.92218804359436035 5.80336856842041016 -0.504513680934906006
2.11813521385192871 4.63760948181152344 -0.41082763671875
-0.535196781158447266 0.982719898223876953 -0.900703132152557373
0.892787396907806396 1.15975499153137207 -0.967598438262939453
-0.463455706834793091 1.07187104225158691 -0.655899107456207275
-0.161498129367828369 1.49216866493225098 -1.32465815544128418
-0.325280368328094482 3.48942232131958008 -0.255213141441345215
-1.01762866973876953 1.5819404125213623 -1.0492250919342041
-1.11556625366210938 0.757955074310302734 -0.980266153812408447
