ply
format ascii 1.0
element vertex 256
comment vertices
property float x
property float y
property float z
end_header
0.734021246433258057 2.04398274421691895 -0.963579773902893066
4.79296302795410156 3.39755582809448242 -1.01494395732879639
0.657149195671081543 4.08148097991943359 -0.507367193698883057
2.91282296180725098 3.2255401611328125 -1.11313009262084961
-1.03323543071746826 -0.100266695022583008 -0.767554521560668945
0.984626650810241699 1.68934726715087891 -0.422511547803878784
-0.650320708751678467 0.0979521870613098145 -1.77976369857788086
3.45319509506225586 1.83187103271484375 -1.86944222450256348
1.45937490463256836 3.66782188415527344 -1.26823902130126953
-0.0386362075805664062 2.57113027572631836 -1.10408163070678711
3.19783973693847656 3.15151524543762207 0.0566528588533401489
4.55651330947875977 3.00173044204711914 -1.7300494909286499
2.53773951530456543 0.803982973098754883 -1.81008720397949219
2.51360893249511719 5.15204000473022461 -0.812146544456481934
1.61417138576507568 5.47311210632324219 -1.63067424297332764
-0.930825710296630859 1.52811884880065918 -1.8783184289932251
1.03615450859069824 2.58996343612670898 -1.19563651084899902
-0.0863938331604003906 1.93409514427185059 -1.03133940696716309
4.57085514068603516 3.76209688186645508 -0.939739048480987549
1.08712530136108398 1.75035274028778076 -1.81472837924957275
1.46740913391113281 0.380993068218231201 -1.82225179672241211
2.08387947082519531 3.63287186622619629 -0.269353032112121582
1.3523552417755127 2.85684919357299805 -0.849825620651245117
2.63249564170837402 4.39143276214599609 -1.44067621231079102
0.168542519211769104 2.94576883316040039 -1.18036293983459473
0.439017236232757568 1.4901573657989502 -1.83068990707397461
2.0729367733001709 1.46758317947387695 -1.80680966377258301
2.98143482208251953 1.57289505004882812 -1.75639927387237549
0.0739970207214355469 1.49273538589477539 -0.639792382717132568
1.59328663349151611 3.50898551940917969 -0.965247750282287598
0.314138174057006836 1.71784090995788574 -0.48900836706161499
-0.0269158482551574707 -0.0436329841613769531 -0.88162541389465332
1.83257377147674561 4.08628463745117188 -0.966710567474365234
0.74790191650390625 1.88966941833496094 -1.78566622734069824
-0.956067502498626709 2.42252826690673828 -1.24540460109710693
0.599474787712097168 1.46257555484771729 -0.925919532775878906
0.324714183807373047 2.76802277565002441 -0.951683282852172852
1.03862941265106201 2.77449822425842285 -1.04895710945129395
3.69181394577026367 4.09934425354003906 -1.64351880550384521
2.56023144721984863 3.42883157730102539 -0.707011699676513672
1.9236292839050293 2.56573367118835449 -1.81116437911987305
-1.2907102108001709 0.482278108596801758 -1.13495779037475586
2.99360489845275879 3.4453129768371582 -1.22218596935272217
0.91869652271270752 1.7250136137008667 -1.25473606586456299
0.566861331462860107 1.28981053829193115 -1.76752614974975586
3.82903194427490234 3.44425415992736816 -1.04902637004852295
0.316654592752456665 2.23943591117858887 -1.03252983093261719
0.11208420991897583 0.939288437366485596 -1.86852395534515381
2.21760177612304688 2.95297145843505859 -1.1325376033782959
2.81994104385375977 4.03904485702514648 -1.71639549732208252
2.37571430206298828 5.04149246215820312 -1.40026545524597168
3.16793131828308105 3.70592975616455078 -1.1201479434967041
0.0343157052993774414 0.639576911926269531 -1.36622095108032227
2.20353269577026367 1.19021689891815186 -1.68788337707519531
1.31934428215026855 1.12760567665100098 -1.76949977874755859
-0.162964403629302979 1.92865431308746338 -1.12738251686096191
1.79146337509155273 3.82589817047119141 -0.760121822357177734
1.32113075256347656 3.3957672119140625 -1.36493885517120361
4.11278438568115234 2.38110947608947754 -0.4815235435962677
1.37504243850708008 1.98938047885894775 -1.12081754207611084
-0.77001422643661499 1.15404033660888672 -1.24357986450195312
2.01939654350280762 3.75209522247314453 -0.304596424102783203
0.694267451763153076 3.73247075080871582 -1.27429807186126709
0.32126888632774353 2.00848388671875 -1.71614336967468262
3.90412473678588867 3.56322765350341797 -0.456952691078186035
0.518356919288635254 4.53297805786132812 -0.97092592716217041
-1.30578207969665527 0.716514468193054199 -1.48051512241363525
2.04640078544616699 4.63280725479125977 -0.32887953519821167
-0.485840737819671631 2.30817794799804688 -1.5344700813293457
-0.620359897613525391 2.2899017333984375 -1.11686360836029053
1.27695024013519287 1.88700187206268311 -1.75106394290924072
3.26071929931640625 3.85488986968994141 -0.915444314479827881
1.14455282688140869 4.1112513542175293 -1.16716790199279785
1.19502222537994385 2.53860378265380859 -0.628361821174621582
1.28725171089172363 2.68289327621459961 -1.20224916934967041
0.0201706886291503906 1.30997562408447266 -0.904547929763793945
0.303180396556854248 2.47774672508239746 -0.718415558338165283
-0.486127376556396484 2.73614954948425293 -1.63859117031097412
1.59259891510009766 1.44160187244415283 -1.74763345718383789
-0.271973609924316406 1.42617940902709961 -1.07154691219329834
3.29216194152832031 2.09963703155517578 -1.86041772365570068
1.69954252243041992 3.28513765335083008 -0.534369885921478271
0.587053179740905762 2.09455227851867676 -1.76760995388031006
0.780411005020141602 1.65361189842224121 -1.09277093410491943
3.85480737686157227 3.48744297027587891 -1.11517834663391113
2.10763144493103027 1.89266109466552734 -1.79720544815063477
2.48386526107788086 2.29276084899902344 -1.80852317810058594
0.670784831047058105 2.37793779373168945 -0.868511557579040527
0.829573571681976318 2.49039649963378906 -0.937169909477233887
0.260338842868804932 2.69242739677429199 -1.12198925018310547
4.22414636611938477 4.26341676712036133 -0.663655638694763184
-0.0384887456893920898 2.03418231010437012 -1.00797224044799805
0.153380364179611206 0.597243189811706543 -1.78627133369445801
-1.05765414237976074 3.07545256614685059 -1.35751605033874512
-0.237336516380310059 1.37932443618774414 -1.41751599311828613
0.0763837695121765137 1.65061104297637939 -1.35544180870056152
1.98195385932922363 3.96225357055664062 -1.2066962718963623
1.62311947345733643 4.71828842163085938 -1.27145731449127197
2.72629189491271973 2.33547782897949219 -1.81222641468048096
0.517142653465270996 2.85251379013061523 -0.936192631721496582
4.47684717178344727 3.26479768753051758 -1.31114184856414795
1.57906627655029297 2.39232921600341797 -1.06915462017059326
1.5515754222869873 4.6371159553527832 -1.09053564071655273
-0.296464085578918457 0.738779067993164062 -1.28828513622283936
-1.67828726768493652 1.86526238918304443 -1.75369930267333984
3.21863079071044922 3.15125393867492676 -0.347526103258132935
0.309185892343521118 2.20617008209228516 -1.07387065887451172
2.10240817070007324 4.27387714385986328 -0.564074158668518066
0.459940016269683838 2.75175714492797852 -1.20573198795318604
0.833003878593444824 1.62020421028137207 -0.430132865905761719
2.7933049201965332 4.9457097053527832 -1.0002448558807373
3.52130317687988281 3.80207252502441406 -1.47865664958953857
0.818502664566040039 1.7113875150680542 -1.75252366065979004
2.49023866653442383 4.49157905578613281 -0.594946801662445068
1.86791539192199707 1.82420706748962402 -1.79670882225036621
-0.0133346617221832275 2.10333156585693359 -1.05933499336242676
1.5975487232208252 -0.151708245277404785 -1.79662692546844482
2.35827326774597168 4.52799081802368164 -0.640925407409667969
0.0781334638595581055 0.913514614105224609 -1.75918006896972656
0.682792365550994873 1.1609504222869873 -1.75949192047119141
0.140939712524414062 1.01430201530456543 -1.89291191101074219
-0.492709517478942871 1.64386522769927979 -1.27199935913085938
-1.21696984767913818 1.02650439739227295 -0.967574715614318848
2.17950534820556641 2.21548771858215332 -1.81231451034545898
3.25925278663635254 4.0085139274597168 -0.740123391151428223
0.500833272933959961 1.2952728271484375 -1.18573510646820068
0.705947637557983398 1.00272965431213379 -1.74763894081115723
2.6027061939239502 3.91518974304199219 -0.881396174430847168
3.07551860809326172 3.89243936538696289 -0.519480884075164795
0.784749150276184082 3.3166508674621582 -1.08523952960968018
1.43197441101074219 1.67926180362701416 -1.75236964225769043
0.0900008082389831543 2.12548542022705078 -0.860373258590698242
0.212071269750595093 2.69980907440185547 -1.00456011295318604
0.700764775276184082 2.2897346019744873 -1.05444538593292236
-1.1667402982711792 0.379971027374267578 -1.0787506103515625
-0.731689333915710449 1.67729926109313965 -1.67606127262115479
4.26009464263916016 4.06402158737182617 -1.72997260093688965
2.10633277893066406 4.79186487197875977 -0.840030193328857422
0.199911355972290039 0.0767013430595397949 -1.67193698883056641
-0.467926621437072754 0.396385669708251953 -1.11026537418365479
2.3056180477142334 2.08925008773803711 -1.81237423419952393
0.715178728103637695 1.48462271690368652 -1.77027285099029541
1.91477560997009277 1.55559182167053223 -1.75937306880950928
1.58773255348205566 3.59511876106262207 -1.15089607238769531
3.26351785659790039 4.14710807800292969 -1.22337400913238525
0.200821459293365479 1.6271216869354248 -0.555395126342773438
0.388547927141189575 2.11118268966674805 -1.04223036766052246
0.160282105207443237 2.66093277931213379 -1.17426049709320068
-0.204081371426582336 1.52592980861663818 -1.34408426284790039
-0.0847029685974121094 2.53126645088195801 -1.29062473773956299
0.682191312313079834 2.47487878799438477 -1.11621284484863281
-0.12708185613155365 1.89868772029876709 -1.01555788516998291
0.303642749786376953 2.07968497276306152 -1.76746284961700439
1.25271213054656982 4.33962535858154297 -0.628150820732116699
1.91457748413085938 0.407441973686218262 -1.77379393577575684
-0.105543017387390137 2.21303272247314453 -1.13045632839202881
-0.43907243013381958 1.82582974433898926 -0.931247830390930176
1.27130043506622314 3.06157660484313965 -0.889348328113555908
1.08156037330627441 2.01898455619812012 -1.75534486770629883
1.70095455646514893 4.26510715484619141 -1.2997279167175293
1.11516892910003662 1.95105338096618652 -1.08063793182373047
-0.672306716442108154 1.13344311714172363 -1.54579401016235352
-0.443886607885360718 1.04343175888061523 -1.17779290676116943
-0.549098372459411621 1.03072237968444824 -0.673159480094909668
1.53292417526245117 2.06767058372497559 -1.80466556549072266
1.05210399627685547 1.00810337066650391 -1.82543838024139404
-0.505940675735473633 1.74230587482452393 -1.25780570507049561
-0.116088151931762695 2.17920422554016113 -0.862769961357116699
0.41660645604133606 1.97896969318389893 -0.930010378360748291
0.988051474094390869 1.72387635707855225 -1.77363252639770508
0.174464821815490723 1.67273855209350586 -0.630758881568908691
3.24889349937438965 3.63214445114135742 -0.436040282249450684
1.03889954090118408 1.87308120727539062 -1.16141116619110107
1.50320816040039062 1.28069281578063965 -1.74706292152404785
0.311920881271362305 1.71635878086090088 -1.86706686019897461
0.461877107620239258 2.49151873588562012 -1.20147860050201416
-1.30448019504547119 1.16595888137817383 -1.19803380966186523
1.09022390842437744 2.44980168342590332 -0.983972907066345215
2.78776955604553223 1.82963323593139648 -1.17784690856933594
1.57116985321044922 1.64466500282287598 -0.484582096338272095
0.61304706335067749 1.1259765625 -1.63432538509368896
2.16409134864807129 3.8171532154083252 -0.48486250638961792
-0.553197681903839111 1.05320751667022705 -1.4858400821685791
2.70538997650146484 0.604576945304870605 -1.78611302375793457
4.3870854377746582 3.41936159133911133 -0.682354748249053955
2.29124665260314941 1.82096219062805176 -1.84689819812774658
-0.0948703959584236145 2.17534303665161133 -1.02000200748443604
1.73612129688262939 2.67930269241333008 -1.18020260334014893
-0.207544296979904175 2.28565502166748047 -1.08083868026733398
3.51380395889282227 4.28987026214599609 -1.30242562294006348
0.270179003477096558 3.32649850845336914 -1.31257033348083496
-0.978581607341766357 0.983943760395050049 -1.76904988288879395
0.390731155872344971 0.895670831203460693 -1.72632956504821777
2.14015340805053711 5.17252445220947266 -1.60800802707672119
-0.438153117895126343 1.2994081974029541 -1.15406548976898193
-0.812763631343841553 0.91260528564453125 -1.05222749710083008
0.664318561553955078 0.450424492359161377 -1.08948063850402832
1.60343194007873535 2.61737394332885742 -1.17994809150695801
2.05751466751098633 3.98395729064941406 -0.949427366256713867
-0.0553683042526245117 0.533515334129333496 -0.764194607734680176
1.04008376598358154 2.20231151580810547 -0.616722464561462402
1.7480849027633667 4.11077785491943359 -0.267826616764068604
2.09490776062011719 1.70999205112457275 -1.8210829496383667
-0.059944450855255127 1.90960383415222168 -1.31317234039306641
1.84549927711486816 3.70858454704284668 -0.746780514717102051
1.96369695663452148 4.37717628479003906 -1.20931029319763184
-1.92491412162780762 1.35346794128417969 -1.8280174732208252
0.442314118146896362 2.35553073883056641 -1.04408812522888184
2.97512674331665039 0.909152805805206299 -1.8589320182800293
-0.449277371168136597 1.18366217613220215 -1.28361761569976807
0.78210151195526123 2.79874348640441895 -1.21479010581970215
0.584453225135803223 1.54357540607452393 -1.14915060997009277
2.05520296096801758 4.35394287109375 -0.855577945709228516
-0.753056347370147705 1.52528786659240723 -1.09493350982666016
0.555715322494506836 2.75107622146606445 -0.560186922550201416
3.59388971328735352 4.00748729705810547 -1.25248849391937256
4.01231288909912109 3.66889238357543945 -1.33317768573760986
-0.135408759117126465 2.93684172630310059 -1.20504927635192871
3.52403998374938965 4.26772499084472656 -1.04275155067443848
0.0342484712600708008 2.08110141754150391 -1.36935412883758545
2.00884294509887695 3.65604734420776367 -1.14780497550964355
-0.135217100381851196 0.0424814224243164062 -1.78603458404541016
3.1632695198059082 4.06813430786132812 -0.679895639419555664
-0.497810006141662598 1.58828902244567871 -1.1302567720413208
2.97045469284057617 1.85578763484954834 -1.83511960506439209
0.439202606678009033 2.28981447219848633 -1.00572443008422852
0.00220512598752975464 1.80955612659454346 -0.956558704376220703
0.749252915382385254 1.84700989723205566 -1.78270018100738525
3.65474367141723633 2.80843949317932129 -0.29900127649307251
2.85947799682617188 1.531563401222229 -1.85451078414916992
2.03757524490356445 4.43746185302734375 -0.808691918849945068
0.192884206771850586 1.06088852882385254 -1.0428997278213501
1.64620101451873779 2.4178767204284668 -0.57936173677444458
3.70239543914794922 3.41815948486328125 -0.560753583908081055
0.378363460302352905 2.06691384315490723 -1.04962944984436035
0.973654747009277344 1.798972487449646 -0.962286233901977539
0.153000444173812866 2.27703952789306641 -1.07296264171600342
-0.577871799468994141 2.54974102973937988 -1.27807974815368652
1.22700762748718262 1.95878148078918457 -1.02832198143005371
0.733156204223632812 1.61774814128875732 -0.945800542831420898
2.43405580520629883 1.15067267417907715 -1.79048633575439453
1.05817532539367676 2.6141505241394043 -0.890428304672241211
2.54088830947875977 3.52642393112182617 -1.30991816520690918
2.01245450973510742 2.67272591590881348 -1.79836881160736084
2.67401385307312012 4.64777565002441406 -0.798459291458129883
0.826000571250915527 1.8425288200378418 -1.74874842166900635
2.3733210563659668 2.55247807502746582 -0.153751716017723083
2.80515742301940918 3.94266366958618164 -0.983580827713012695
0.528177917003631592 3.17436075210571289 -1.24477469921112061
-0.0349616408348083496 1.80736291408538818 -1.13333714008331299
-0.542435050010681152 1.39036524295806885 -1.38227808475494385
-0.807849407196044922 2.24230194091796875 -1.30083036422729492
2.62342023849487305 4.01150226593017578 -0.762535631656646729
2.09641599655151367 1.19321167469024658 -1.74754786491394043
-0.34195178747177124 1.84821772575378418 -1.50819182395935059
-0.300983339548110962 2.76218128204345703 -0.910429418087005615
