ply
format ascii 1.0
element vertex 256
comment vertices
property float x
property float y
property float z
end_header
1.56504237651824951 2.67393684387207031 -1.19703483581542969
2.26051592826843262 2.9034266471862793 -1.45197463035583496
0.130080699920654297 1.59279441833496094 -1.05002796649932861
4.32200336456298828 4.28368473052978516 -1.07032501697540283
-1.74454271793365479 1.90334463119506836 -0.812940597534179688
-0.0770399570465087891 5.86165094375610352 -1.08583545684814453
2.30017209053039551 3.11635875701904297 -1.03995263576507568
-0.0885009169578552246 3.88086104393005371 -0.375594079494476318
3.44316554069519043 4.58937454223632812 -1.08494806289672852
-2.11636972427368164 1.39846086502075195 -1.15818393230438232
0.959543406963348389 3.22883391380310059 -0.710889995098114014
0.826275110244750977 2.94633817672729492 -0.849683642387390137
1.96583926677703857 1.96374678611755371 -1.52474617958068848
3.13978099822998047 3.86787700653076172 -0.522626638412475586
-0.024724423885345459 1.18745052814483643 -0.539661586284637451
-0.00565955042839050293 2.49329614639282227 -0.696318447589874268
0.0837025642395019531 3.34597253799438477 -1.05723917484283447
1.95947182178497314 4.57401943206787109 -1.18548917770385742
3.32452011108398438 5.37609291076660156 -0.732954800128936768
1.27155160903930664 4.04364919662475586 -0.651361048221588135
0.241198241710662842 0.474764823913574219 -1.12391829490661621
-1.57759499549865723 1.22996187210083008 -1.31161403656005859
1.87893056869506836 3.5658566951751709 -1.30344367027282715
1.23671996593475342 1.24679183959960938 -1.46026217937469482
-0.813394010066986084 2.67580199241638184 -0.70581817626953125
0.281083583831787109 1.68802320957183838 -0.844552397727966309
1.70421051979064941 5.56949090957641602 -0.982918500900268555
2.3506782054901123 4.34087848663330078 -0.796792984008789062
2.49769449234008789 5.01143693923950195 -1.07944250106811523
0.672406256198883057 2.42396831512451172 -0.869529128074645996
-0.845924139022827148 2.10407638549804688 -0.848751187324523926
1.48010456562042236 2.18309593200683594 -0.997097790241241455
0.2932586669921875 5.61166095733642578 -1.03700423240661621
-1.33139026165008545 2.22418642044067383 -1.13645792007446289
0.347630709409713745 3.97406935691833496 -0.820746719837188721
3.37324881553649902 2.91046905517578125 -1.07426559925079346
1.79494500160217285 2.57969975471496582 -1.34145450592041016
1.42725443840026855 4.15951299667358398 -1.24322009086608887
-0.906602859497070312 2.50441193580627441 -0.814167141914367676
-0.650585651397705078 4.73375272750854492 -0.487471699714660645
0.32798352837562561 2.99282932281494141 -0.730488777160644531
0.740087270736694336 3.13826370239257812 -1.20639193058013916
-1.55473160743713379 1.9281688928604126 -0.76756894588470459
3.5593864917755127 5.06893444061279297 -1.11579585075378418
0.251670598983764648 0.873842775821685791 -0.68477630615234375
0.211967676877975464 2.40375089645385742 -1.02408671379089355
1.69686007499694824 5.09901189804077148 -0.955765962600708008
1.23493480682373047 3.1138002872467041 -0.647625505924224854
3.2427375316619873 5.51829719543457031 -0.850732088088989258
0.656515896320343018 0.940895199775695801 -1.38181436061859131
-0.3214588463306427 2.95394206047058105 -0.822898328304290771
0.385838091373443604 4.36285543441772461 -0.606778442859649658
3.97557830810546875 4.52101325988769531 -0.456485003232955933
-1.03070449829101562 2.61932277679443359 -1.02703738212585449
2.02595877647399902 3.94339370727539062 -1.16532027721405029
1.78876125812530518 5.045501708984375 -0.384265244007110596
1.70167398452758789 1.49461305141448975 -1.46416687965393066
0.0912961959838867188 2.89496207237243652 -0.643134832382202148
2.62390708923339844 2.56303739547729492 -0.845723092555999756
2.11642670631408691 5.27753019332885742 -1.02834737300872803
-0.249073654413223267 2.16475200653076172 -0.632332682609558105
-0.418763160705566406 0.475036978721618652 -1.26662313938140869
2.41639399528503418 4.54772758483886719 -1.27654612064361572
-0.187574803829193115 2.46864700317382812 -1.21194052696228027
0.30173841118812561 2.17243242263793945 -0.749326705932617188
-0.940908908843994141 1.74614155292510986 -0.592988550662994385
0.988220036029815674 6.14364957809448242 -0.935876905918121338
1.62449145317077637 1.74297440052032471 -1.43761909008026123
-0.202685028314590454 1.54657566547393799 -0.894323110580444336
-0.690592646598815918 1.98014307022094727 -0.961301445960998535
-0.975878417491912842 2.38913536071777344 -0.934877872467041016
0.742195963859558105 2.80953431129455566 -0.744293808937072754
2.13083600997924805 2.50435447692871094 -1.50078201293945312
0.648240089416503906 4.27464485168457031 -0.754076242446899414
0.30854952335357666 3.42761111259460449 -0.62994992733001709
0.824447512626647949 5.29978656768798828 -1.03086042404174805
1.14299845695495605 2.84497976303100586 -1.29895496368408203
0.639748632907867432 3.46203899383544922 -1.14728450775146484
3.43854832649230957 4.54221200942993164 -0.998950183391571045
0.617648541927337646 1.80268287658691406 -0.53890681266784668
2.8048701286315918 3.98205757141113281 -1.04880928993225098
-0.565669238567352295 3.17206430435180664 -0.540615558624267578
-0.617972910404205322 2.821319580078125 -0.742627084255218506
1.13669705390930176 3.56627273559570312 -1.18039464950561523
0.389335334300994873 2.56132292747497559 -0.717299580574035645
2.96474742889404297 4.3110804557800293 -1.1204979419708252
0.756961584091186523 1.56711101531982422 -0.994566559791564941
0.305733352899551392 1.3040611743927002 -1.43291878700256348
1.75442910194396973 4.45285892486572266 -0.782953143119812012
-1.74181830883026123 1.79534828662872314 -0.896755456924438477
2.26598787307739258 3.90526270866394043 -0.51954573392868042
0.397718340158462524 3.96654987335205078 -0.702974438667297363
1.64407038688659668 4.13795137405395508 -1.02282679080963135
-0.319626748561859131 3.04243946075439453 -1.08169078826904297
1.81626057624816895 5.39638710021972656 -0.849950492382049561
1.28325343132019043 3.32490348815917969 -1.2486189603805542
2.53543829917907715 5.14870738983154297 -1.28175461292266846
0.498938024044036865 3.35403776168823242 -0.739745140075683594
3.35624957084655762 5.10604476928710938 -0.764469146728515625
-0.99380028247833252 2.47370100021362305 -0.710775136947631836
-0.220312356948852539 2.81511688232421875 -0.734315395355224609
-0.329322397708892822 2.18474626541137695 -0.930920243263244629
0.0871448889374732971 2.0514671802520752 -1.31121408939361572
0.633574843406677246 4.45956230163574219 -0.803358256816864014
0.896363198757171631 3.56657123565673828 -0.610324621200561523
1.66069817543029785 4.70929622650146484 -0.324518024921417236
-2.00522041320800781 2.38130974769592285 -1.00337386131286621
1.0794062614440918 1.34261167049407959 -1.43469023704528809
2.17847990989685059 5.03730440139770508 -1.19232833385467529
1.57231080532073975 4.38034915924072266 -0.648374676704406738
1.24099898338317871 5.86501789093017578 -0.819632530212402344
0.658401727676391602 2.0040280818939209 -0.862378180027008057
3.30096840858459473 4.04509162902832031 -0.798675835132598877
0.551496386528015137 6.23792123794555664 -0.95054173469543457
1.60348474979400635 1.77364206314086914 -1.53951704502105713
0.183462262153625488 1.84501564502716064 -1.15068221092224121
1.32019209861755371 3.28335261344909668 -0.948027491569519043
-1.45913803577423096 1.95356202125549316 -0.714577674865722656
0.089560285210609436 2.00682258605957031 -0.726474523544311523
1.11666965484619141 3.23263025283813477 -1.29349803924560547
0.0472650825977325439 1.33288824558258057 -0.589706063270568848
1.95896172523498535 4.04812240600585938 -0.495650231838226318
2.20382189750671387 5.04718017578125 -0.849081754684448242
3.34580707550048828 5.26851511001586914 -0.819435000419616699
-1.45858180522918701 2.08173680305480957 -1.03440558910369873
2.26394510269165039 3.10637331008911133 -1.343070387840271
1.73631703853607178 2.07775092124938965 -1.52215027809143066
0.927121758460998535 3.04417300224304199 -1.18505227565765381
2.63477349281311035 4.89624881744384766 -1.27565932273864746
1.00304031372070312 3.89259028434753418 -1.28802633285522461
3.46386885643005371 5.28965950012207031 -0.413350075483322144
-0.197333365678787231 1.90389776229858398 -0.815683960914611816
4.09210395812988281 3.21755409240722656 -1.05942904949188232
-1.41421413421630859 1.58785843849182129 -0.509664297103881836
-0.818656623363494873 2.63726258277893066 -0.678785324096679688
2.39659309387207031 4.67619895935058594 -1.09079861640930176
3.35240912437438965 2.56341671943664551 -1.18699443340301514
1.49794590473175049 5.13632822036743164 -0.456949740648269653
0.909729123115539551 2.95014810562133789 -0.875335574150085449
0.591660141944885254 2.48237180709838867 -0.890313982963562012
-3.11772394180297852 1.95643460750579834 -1.04607093334197998
3.52275776863098145 3.96051144599914551 -1.16547977924346924
0.0957229286432266235 3.40414094924926758 -0.788868129253387451
-1.83150649070739746 2.50938916206359863 -0.874677896499633789
0.317529469728469849 3.28999567031860352 -0.526125788688659668
0.987319052219390869 0.93062281608581543 -1.38014912605285645
0.127306610345840454 1.50040960311889648 -0.960106134414672852
-0.169386923313140869 2.74802350997924805 -0.624235808849334717
-0.957055985927581787 2.44175839424133301 -0.842754602432250977
1.00053751468658447 6.28112411499023438 -1.02583932876586914
-0.639474391937255859 2.66127586364746094 -0.840696573257446289
1.77911889553070068 2.71444511413574219 -1.26443731784820557
0.859157800674438477 4.35709476470947266 -0.764872431755065918
-0.890335261821746826 2.36345362663269043 -0.805806159973144531
1.88076996803283691 5.43977212905883789 -0.687586069107055664
-0.567649006843566895 2.6604311466217041 -0.768055737018585205
-2.01468324661254883 1.90848565101623535 -1.15042531490325928
1.63823962211608887 2.29802751541137695 -1.35112667083740234
-0.765584111213684082 2.74046993255615234 -0.840351462364196777
0.337238132953643799 4.14946079254150391 -0.621953010559082031
-0.519735395908355713 2.68358612060546875 -0.820772528648376465
1.45905816555023193 3.2152259349822998 -0.435712933540344238
0.592491030693054199 2.61682868003845215 -0.730137646198272705
0.119880907237529755 2.69397306442260742 -0.660661935806274414
1.18782615661621094 2.69154477119445801 -1.08859574794769287
0.386554539203643799 2.88303709030151367 -0.908464968204498291
0.155837029218673706 1.07797396183013916 -1.10205769538879395
1.86155915260314941 1.74872469902038574 -1.50785112380981445
0.373008847236633301 2.41052746772766113 -1.25211465358734131
2.57679367065429688 3.25344491004943848 -0.991981863975524902
-1.27415752410888672 1.58419179916381836 -0.602071881294250488
0.285333216190338135 2.18846869468688965 -0.990449309349060059
0.765422523021697998 3.91329216957092285 -1.13445818424224854
1.44229745864868164 1.51430892944335938 -1.49205625057220459
2.07764935493469238 2.19751715660095215 -1.3656768798828125
0.534793436527252197 2.32703828811645508 -0.759088873863220215
0.09330710768699646 2.84954595565795898 -1.22004115581512451
0.399569809436798096 1.5497819185256958 -1.03292512893676758
0.554242312908172607 2.97069787979125977 -0.713610708713531494
2.87609243392944336 4.3314366340637207 -1.10872507095336914
0.00386419147253036499 2.26436662673950195 -0.658570230007171631
-0.0372369885444641113 1.77344334125518799 -0.811625182628631592
1.30088531970977783 6.09169387817382812 -0.997014760971069336
-0.155142456293106079 4.02114772796630859 -0.392054527997970581
-0.234412282705307007 3.10509800910949707 -0.611445784568786621
0.995218276977539062 4.03811931610107422 -1.23366618156433105
1.05002510547637939 6.09349775314331055 -0.892050802707672119
-0.904250502586364746 3.49176502227783203 -1.00136077404022217
-0.815522491931915283 0.985002875328063965 -1.33723342418670654
0.787867188453674316 1.93667221069335938 -1.33189797401428223
2.19726228713989258 2.3522496223449707 -1.56155490875244141
0.479163944721221924 2.78754878044128418 -0.669608235359191895
0.331094324588775635 1.44193470478057861 -0.971430361270904541
0.223499268293380737 2.37854909896850586 -0.652086257934570312
0.251193374395370483 3.29595518112182617 -0.916029691696166992
2.59381484985351562 3.28635692596435547 -1.28483402729034424
-1.22633302211761475 2.23496842384338379 -0.972222030162811279
0.735565125942230225 2.67549324035644531 -0.833504021167755127
4.41132402420043945 4.86269950866699219 -0.931341052055358887
2.16872191429138184 3.77642202377319336 -1.10790514945983887
0.00751909613609313965 1.83009374141693115 -0.890051305294036865
-0.346100330352783203 2.79172253608703613 -0.797347724437713623
1.58947265148162842 5.61667585372924805 -0.830383002758026123
0.279514312744140625 4.13332891464233398 -0.727649986743927002
-0.429615288972854614 2.03487586975097656 -0.799932897090911865
0.357291609048843384 0.951467573642730713 -1.33223927021026611
-0.218098670244216919 1.70285427570343018 -0.700713813304901123
1.74049806594848633 4.47728300094604492 -1.24305617809295654
-1.15257930755615234 1.29395401477813721 -0.649775922298431396
0.491557717323303223 4.20137453079223633 -0.716774582862854004
3.19864749908447266 2.44928860664367676 -0.913017451763153076
-0.585770785808563232 2.86949563026428223 -0.804689228534698486
0.628158450126647949 6.29403114318847656 -1.04316878318786621
0.837450385093688965 3.05294466018676758 -0.704778552055358887
-1.40548539161682129 1.79996263980865479 -1.23991894721984863
1.80668163299560547 3.6179661750793457 -1.09747779369354248
1.32722926139831543 3.07031369209289551 -1.18472635746002197
1.19468927383422852 1.49932432174682617 -1.5116269588470459
0.569843053817749023 4.34762811660766602 -0.643945157527923584
-1.35352849960327148 2.18353772163391113 -0.891733348369598389
1.59076285362243652 1.89991700649261475 -1.18680953979492188
0.897570371627807617 2.71229410171508789 -1.11916351318359375
0.111781150102615356 1.3608773946762085 -0.803824186325073242
0.324912607669830322 3.61817836761474609 -0.690925478935241699
1.39903354644775391 3.49056220054626465 -1.26602888107299805
-0.779778361320495605 2.55590701103210449 -0.911483049392700195
-0.11678805947303772 1.92220461368560791 -0.740999996662139893
0.426938235759735107 5.04628181457519531 -1.02072525024414062
1.85896730422973633 2.6593015193939209 -1.26252222061157227
0.861288368701934814 4.79292392730712891 -1.18513393402099609
2.5596916675567627 4.88817787170410156 -0.754178464412689209
0.262624680995941162 1.93132686614990234 -0.79539954662322998
0.429876178503036499 4.08739423751831055 -0.756742775440216064
-0.00759592652320861816 1.57575321197509766 -1.01558315753936768
0.65973210334777832 3.40295314788818359 -1.20476841926574707
0.654852569103240967 2.24030423164367676 -0.862569272518157959
0.293718636035919189 0.938315272331237793 -0.918958306312561035
-0.576707184314727783 1.86953568458557129 -0.714922785758972168
0.879617214202880859 6.21140050888061523 -0.883399724960327148
0.433821201324462891 3.7749478816986084 -0.763946235179901123
2.13563394546508789 2.15537548065185547 -1.53286242485046387
1.18516230583190918 4.56250667572021484 -0.507592558860778809
1.20859837532043457 5.98929834365844727 -0.915866971015930176
2.56225299835205078 4.18202066421508789 -1.16460037231445312
1.73303937911987305 4.33105993270874023 -0.412139415740966797
-0.461717993021011353 1.83688318729400635 -0.825191199779510498
-0.259962409734725952 2.32434391975402832 -0.70489734411239624
2.22602343559265137 5.08487749099731445 -0.980623483657836914
-0.537358343601226807 2.94623565673828125 -0.733926534652709961
-0.982381343841552734 2.44976997375488281 -0.866080403327941895
1.67512989044189453 3.77730441093444824 -1.13313436508178711
1.34772276878356934 4.52010059356689453 -0.694177150726318359
0.615491986274719238 1.14803540706634521 -1.06051754951477051
-0.0685810744762420654 3.20656776428222656 -0.652886867523193359
0.910443723201751709 3.93155503273010254 -0.395464956760406494
0.185843944549560547 2.83970069885253906 -0.771551191806793213
