ply
format ascii 1.0
element vertex 12
comment vertices
property float x
property float y
property float z
end_header
-0.906602859497070312 2.50441193580627441 -0.814167141914367676
0.648240089416503906 4.27464485168457031 -0.754076242446899414
-0.617972910404205322 2.821319580078125 -0.742627084255218506
-0.99380028247833252 2.47370100021362305 -0.710775136947631836
-0.818656623363494873 2.63726258277893066 -0.678785324096679688
-0.957055985927581787 2.44175839424133301 -0.842754602432250977
-0.890335261821746826 2.36345362663269043 -0.805806159973144531
-0.567649006843566895 2.6604311466217041 -0.768055737018585205
-0.765584111213684082 2.74046993255615234 -0.840351462364196777
-0.519735395908355713 2.68358612060546875 -0.820772528648376465
0.491557717323303223 4.20137453079223633 -0.716774582862854004
-0.982381343841552734 2.44976997375488281 -0.866080403327941895
