ply
format ascii 1.0
element vertex 117
comment vertices
property float x
property float y
property float z
end_header
0.183998554944992065 1.65632426738739014 -1.12057876586914062
4.12335538864135742 6.31364345550537109 -0.658119320869445801
0.429356276988983154 6.73789405822753906 0.171516001224517822
0.23398253321647644 3.87727832794189453 -0.326591640710830688
-1.94151198863983154 1.97768485546112061 -0.174128696322441101
3.08673810958862305 5.43315935134887695 -1.3397977352142334
1.21677076816558838 2.6811985969543457 -0.475249350070953369
-0.98620307445526123 2.85179424285888672 -0.403181284666061401
-0.668221473693847656 1.79491937160491943 -0.639863133430480957
4.0487828254699707 5.64934825897216797 -0.664329349994659424
1.60818994045257568 5.26889944076538086 -0.468270540237426758
2.77301812171936035 6.18853902816772461 -1.83200609683990479
0.907260000705718994 2.23320198059082031 -1.18944656848907471
3.0157618522644043 4.11881446838378906 -0.574904978275299072
-0.990428745746612549 1.36129176616668701 -1.07717764377593994
-0.128900587558746338 2.56235313415527344 -0.822852432727813721
-0.443437486886978149 1.1210484504699707 -0.827496170997619629
0.186022341251373291 2.20346474647521973 -1.13018083572387695
2.8686988353729248 5.04825687408447266 -0.482295215129852295
-1.37810075283050537 1.55311739444732666 -0.603556990623474121
-0.0736075341701507568 1.6886138916015625 -1.04492688179016113
0.102881461381912231 4.41262149810791016 0.0725278854370117188
-0.683697402477264404 2.52820515632629395 -1.8092503547668457
-0.169429168105125427 3.31674361228942871 -0.272659271955490112
-1.17263340950012207 2.28490591049194336 -0.510804176330566406
-0.967378795146942139 0.605037093162536621 -0.412940382957458496
1.63425588607788086 2.46434211730957031 -1.4027707576751709
1.47610974311828613 0.443560957908630371 -1.33704030513763428
1.47058510780334473 6.83871746063232422 -0.506246387958526611
3.69908952713012695 5.33270025253295898 -1.10954940319061279
-0.639909863471984863 0.957669854164123535 -1.42457151412963867
-0.558687269687652588 1.02438116073608398 -0.62404024600982666
0.375233769416809082 2.97977924346923828 -0.728197991847991943
1.90622568130493164 3.93337655067443848 -0.615788280963897705
-0.518049716949462891 2.30472993850708008 -0.609836161136627197
2.79241108894348145 5.64566707611083984 -0.867197751998901367
-0.555324256420135498 3.2012324333190918 -0.574075639247894287
3.16290521621704102 5.89186811447143555 -1.72785556316375732
-0.477595090866088867 1.37727177143096924 -1.29696345329284668
0.717773675918579102 4.22899103164672852 -0.258048772811889648
0.105301976203918457 2.08545637130737305 -1.06285429000854492
-0.426086902618408203 1.57406973838806152 -0.987324774265289307
-0.024886012077331543 1.68286252021789551 -1.2620699405670166
3.50612878799438477 5.61445760726928711 -0.882931053638458252
0.971346616744995117 6.73702430725097656 -0.0318357944488525391
-0.812847673892974854 1.48630285263061523 -0.629682660102844238
0.417223274707794189 2.5191810131072998 -0.799869060516357422
1.15849995613098145 0.801400661468505859 -1.28918099403381348
1.41763162612915039 5.03018331527709961 -0.278285026550292969
3.17320632934570312 5.04562044143676758 -0.890627264976501465
-1.17249226570129395 2.75814032554626465 -0.244917616248130798
-0.0375065803527832031 2.13221955299377441 -0.994933366775512695
1.26844561100006104 0.76783454418182373 -1.66449892520904541
0.0281300395727157593 3.96075153350830078 -0.438881874084472656
-0.965198159217834473 1.08206355571746826 -0.439004480838775635
0.515198469161987305 1.05767405033111572 -1.29283261299133301
-0.774929702281951904 2.17656278610229492 -0.567093372344970703
-1.13361966609954834 2.56839585304260254 -0.76384282112121582
-0.250126123428344727 3.66717958450317383 -0.245237946510314941
-0.240253567695617676 2.1925194263458252 -0.907784223556518555
-0.571680366992950439 3.14234042167663574 -0.181601852178573608
2.49262070655822754 6.79421472549438477 -1.68594634532928467
0.665692687034606934 2.36948013305664062 -0.880916476249694824
-0.334900438785552979 1.89788639545440674 -0.882236003875732422
3.7172083854675293 5.17898273468017578 -1.5864335298538208
-0.374542593955993652 2.77749252319335938 -0.907557785511016846
-1.49197936058044434 2.0805361270904541 -0.495041728019714355
1.51741671562194824 2.69157171249389648 -1.13837623596191406
1.3203808069229126 1.1167299747467041 -1.29881632328033447
-0.237491577863693237 1.24018800258636475 -0.986133813858032227
1.03869128227233887 1.24248218536376953 -1.26255512237548828
3.37780547142028809 5.75794219970703125 -1.20836162567138672
-1.18327665328979492 2.23552346229553223 -0.717188775539398193
0.185877114534378052 1.78062343597412109 -1.01631760597229004
-0.539358258247375488 1.4217296838760376 -0.724547088146209717
3.05382919311523438 5.70611047744750977 -1.49595975875854492
1.92767190933227539 6.33404016494750977 -0.953607082366943359
-0.745275616645812988 1.52696132659912109 -0.48357844352722168
2.90767836570739746 4.00698328018188477 -1.07064998149871826
0.345259726047515869 6.6959071159362793 0.296929359436035156
1.10349154472351074 0.788830280303955078 -1.08165240287780762
3.00344514846801758 5.8167567253112793 -1.31857168674468994
0.128533214330673218 2.44405460357666016 -0.922798275947570801
2.41077232360839844 5.85725688934326172 -0.813522100448608398
-0.111528307199478149 1.43188738822937012 -1.08064806461334229
0.852495491504669189 2.92471480369567871 -0.674308538436889648
-0.90694195032119751 3.09850525856018066 -0.144903987646102905
-0.659026622772216797 0.868269443511962891 -0.530751824378967285
0.395437359809875488 2.32891964912414551 -1.07501864433288574
0.866189002990722656 0.689365148544311523 -1.51272797584533691
-0.948074221611022949 1.06854307651519775 -1.4189460277557373
1.55289876461029053 3.90345287322998047 -0.575961589813232422
-0.70446854829788208 1.14921867847442627 -0.717820644378662109
-0.558618307113647461 1.1945873498916626 -1.21190345287322998
-0.0153470486402511597 3.69131612777709961 -0.385382175445556641
-0.296714484691619873 1.7133488655090332 -1.19037902355194092
-0.36756017804145813 2.06859397888183594 -0.639135837554931641
0.819520890712738037 2.6073610782623291 -0.803788483142852783
0.948778092861175537 4.90472412109375 -0.134090080857276917
3.00135040283203125 6.02060270309448242 -1.81286239624023438
-0.493387669324874878 1.23659336566925049 -0.800540685653686523
0.662800073623657227 1.40665233135223389 -0.982778966426849365
0.272427469491958618 4.26579046249389648 -0.17091679573059082
-0.772018194198608398 2.6630251407623291 -0.8519095778465271
0.263509750366210938 2.18074703216552734 -0.999156713485717773
2.23576641082763672 5.49249982833862305 0.0323234200477600098
0.127938240766525269 2.64079403877258301 -0.875329852104187012
-0.0466920845210552216 3.82820391654968262 -0.298859566450119019
-0.299471914768218994 2.38484287261962891 -0.76408696174621582
-1.58971881866455078 2.04262471199035645 -0.691398262977600098
-0.877959728240966797 2.36899757385253906 -0.993755817413330078
1.00948929786682129 2.39148974418640137 -0.79290473461151123
1.92218804359436035 5.80336856842041016 -0.504513680934906006
-0.535196781158447266 0.982719898223876953 -0.900703132152557373
0.892787396907806396 1.15975499153137207 -0.967598438262939453
-0.463455706834793091 1.07187104225158691 -0.655899107456207275
-1.01762866973876953 1.5819404125213623 -1.0492250919342041
