ply
format ascii 1.0
element vertex 256
comment vertices
property float x
property float y
property float z
end_header
0.480991780757904053 2.15052008628845215 -1.59699761867523193
3.76398801803588867 6.12507009506225586 -0.552957653999328613
0.685058951377868652 6.44411849975585938 -0.82505345344543457
0.160410836338996887 4.11452674865722656 -0.121317826211452484
-1.65269184112548828 2.32924532890319824 -0.40825989842414856
1.98552584648132324 4.01587057113647461 -1.61213934421539307
2.00070667266845703 5.27768421173095703 0.0802957266569137573
-0.726980745792388916 1.07182049751281738 -1.10569024085998535
1.95898401737213135 2.47236061096191406 -1.47406196594238281
-0.896044731140136719 2.77647590637207031 -1.64810717105865479
2.91175961494445801 5.14149761199951172 -1.61244678497314453
1.13747847080230713 3.20152568817138672 -0.607692539691925049
-0.743418514728546143 3.27537775039672852 -0.436524659395217896
1.24258732795715332 4.54930877685546875 -0.605842530727386475
-0.362344264984130859 2.12129044532775879 -0.639926314353942871
1.43590927124023438 1.39461255073547363 -1.43920111656188965
3.13559842109680176 5.27748775482177734 -0.0807867199182510376
1.84477007389068604 5.38443565368652344 -0.995690643787384033
1.17861783504486084 5.94991540908813477 -0.014245237223803997
-0.17013239860534668 3.87030744552612305 -1.06420838832855225
1.12559747695922852 3.14381146430969238 -1.61602747440338135
2.90442109107971191 4.55156707763671875 -0.813866972923278809
-1.13053774833679199 1.81645941734313965 -1.61330187320709229
0.197968930006027222 2.91407990455627441 -0.777068912982940674
0.446223795413970947 4.78481006622314453 -1.07227218151092529
0.320486843585968018 1.28696727752685547 -1.53106033802032471
2.52594614028930664 5.78438282012939453 -0.356972336769104004
-0.315800100564956665 1.8938065767288208 -1.55764198303222656
-1.57463836669921875 2.39764690399169922 -1.20042693614959717
0.0716338455677032471 1.46969079971313477 -0.79504084587097168
3.83560562133789062 6.00300836563110352 -1.32656943798065186
0.873119533061981201 2.58202385902404785 -0.995182633399963379
-0.869431853294372559 2.67660951614379883 -0.900146245956420898
2.17189645767211914 3.18007993698120117 -1.49512636661529541
2.86615204811096191 5.3282923698425293 -0.904209315776824951
-1.31351768970489502 1.75929105281829834 -0.712509453296661377
1.21913695335388184 5.9539189338684082 -0.886915266513824463
1.30496394634246826 2.15816640853881836 -1.47688150405883789
0.321485340595245361 2.15576720237731934 -0.843799710273742676
0.441039502620697021 4.12291288375854492 -0.798779129981994629
2.43976116180419922 5.03062105178833008 -0.417666256427764893
0.369915395975112915 4.72692441940307617 -0.381526082754135132
-0.228343546390533447 2.55192756652832031 -1.65622305870056152
-0.326038837432861328 1.2360917329788208 -1.59389340877532959
-0.242832392454147339 3.62073230743408203 -0.140309944748878479
-0.72099769115447998 1.77371454238891602 -1.0858757495880127
-1.10841476917266846 2.66310310363769531 -0.321445852518081665
-0.954390525817871094 1.09920310974121094 -0.5450478196144104
2.4717249870300293 4.97432804107666016 -1.19648706912994385
1.5887376070022583 5.63918304443359375 -0.327297478914260864
1.57614994049072266 3.5767214298248291 -1.60573470592498779
0.919709622859954834 1.68731129169464111 -1.48070740699768066
0.842655420303344727 2.62426185607910156 -1.63629758358001709
1.68478667736053467 4.45855045318603516 -0.986313223838806152
2.47736001014709473 4.25159454345703125 -1.08626365661621094
0.888085544109344482 6.39142036437988281 -0.290992707014083862
3.09955072402954102 4.60959577560424805 -1.53717386722564697
2.63979291915893555 4.8959345817565918 0.0934095010161399841
-0.39924958348274231 3.3720095157623291 -0.928695082664489746
-0.928688108921051025 1.25556516647338867 -1.59990346431732178
-0.846493840217590332 3.16425704956054688 -1.17631685733795166
-0.435144901275634766 1.53121018409729004 -0.614330947399139404
-0.063656248152256012 4.19733333587646484 -0.618747174739837646
-1.06580781936645508 2.18638420104980469 -1.13643407821655273
0.659363389015197754 3.35614323616027832 -0.805680930614471436
1.39861607551574707 2.68300819396972656 -1.60986220836639404
1.74445700645446777 4.69701480865478516 -0.50726616382598877
-1.19223392009735107 2.34321475028991699 -1.69538867473602295
2.07561159133911133 5.3949131965637207 -0.49531865119934082
1.70612895488739014 1.83091986179351807 -1.46503722667694092
1.29460668563842773 2.92191863059997559 -1.0021892786026001
2.95850944519042969 5.047149658203125 -0.491552740335464478
-0.195422589778900146 2.6124875545501709 -0.694305777549743652
1.10512232780456543 6.26729536056518555 -1.24250257015228271
-0.231078609824180603 1.26896131038665771 -1.11532354354858398
0.141685456037521362 1.79771041870117188 -1.60251128673553467
2.02519607543945312 5.70000791549682617 -0.115848392248153687
-0.416920900344848633 3.69323444366455078 -0.594204604625701904
1.72915840148925781 3.10620784759521484 -1.59916388988494873
1.44188237190246582 5.5202479362487793 0.0895714312791824341
-1.34234416484832764 2.76430821418762207 -1.34467065334320068
1.47226119041442871 3.24898386001586914 -1.25675761699676514
-1.27412033081054688 2.50965499877929688 -0.81537163257598877
0.292351067066192627 1.81678080558776855 -1.11873757839202881
0.165893971920013428 3.75644779205322266 -0.808361172676086426
0.484917789697647095 4.42263984680175781 -0.0957473665475845337
-0.565948367118835449 2.95215725898742676 -0.785398006439208984
2.19863033294677734 5.79091787338256836 -0.623133957386016846
0.479153573513031006 2.55543422698974609 -0.848403215408325195
1.26068317890167236 5.94782543182373047 -0.424888461828231812
-0.0798234790563583374 1.87179148197174072 -0.818173468112945557
-0.534449577331542969 1.14878749847412109 -0.724529922008514404
2.62023067474365234 4.97091102600097656 -0.815462350845336914
0.646466851234436035 2.18121004104614258 -1.09067833423614502
-0.0227231532335281372 2.17106103897094727 -1.61140561103820801
2.39536666870117188 5.26998043060302734 -0.0158535242080688477
0.764179706573486328 6.48174810409545898 -1.24225199222564697
-0.74896770715713501 1.82267403602600098 -0.690026402473449707
-0.641081809997558594 1.66999101638793945 -1.59569430351257324
-1.61975324153900146 2.33450722694396973 -0.794770359992980957
3.12864136695861816 5.39184379577636719 -0.457000374794006348
0.702574789524078369 2.97807955741882324 -0.75342261791229248
0.910346508026123047 2.24903202056884766 -1.59717381000518799
2.17867231369018555 5.28821134567260742 -1.15445530414581299
1.66066062450408936 5.55303001403808594 -0.691771507263183594
3.04170536994934082 5.4012908935546875 -1.23472011089324951
-0.995424985885620117 3.05344605445861816 -0.262099415063858032
0.471791684627532959 2.52400898933410645 -1.62711691856384277
0.814906895160675049 1.32853615283966064 -1.50675618648529053
0.183475464582443237 4.41111612319946289 -0.446485459804534912
0.959481894969940186 6.22918510437011719 -0.614069104194641113
2.13297796249389648 5.19575023651123047 -0.797980546951293945
1.3470691442489624 1.76012623310089111 -1.45020163059234619
-0.930568993091583252 1.4316021203994751 -0.696289718151092529
0.498839706182479858 1.7390667200088501 -1.55057525634765625
-0.735291063785552979 2.48543930053710938 -0.619485914707183838
-0.915616989135742188 3.00273346900939941 -0.718655586242675781
1.57105863094329834 2.40790963172912598 -1.45816290378570557
-0.142403855919837952 4.05003976821899414 -0.302846521139144897
0.133889913558959961 2.52240848541259766 -0.779841840267181396
-0.853158056735992432 1.47788155078887939 -1.34037435054779053
-0.397890746593475342 1.5187077522277832 -1.29368174076080322
-0.523131787776947021 3.3731839656829834 -0.184172958135604858
1.26653933525085449 4.2989959716796875 -0.847344458103179932
-1.42015159130096436 1.75382113456726074 -1.0430140495300293
2.71445536613464355 4.9085841178894043 -0.246112555265426636
0.850182592868804932 6.1650390625 -0.0352617427706718445
2.19434428215026855 2.72195315361022949 -1.45799338817596436
1.37586629390716553 5.73189687728881836 -0.660929858684539795
-0.72281181812286377 1.38627743721008301 -0.986023664474487305
-0.331556588411331177 1.57963335514068604 -0.929096817970275879
-0.202535301446914673 1.56607294082641602 -1.56036210060119629
0.360190868377685547 4.73378324508666992 -0.754394829273223877
0.960480213165283203 4.50344514846801758 -0.771745741367340088
1.88544631004333496 2.8291778564453125 -1.50534737110137939
1.03379189968109131 2.77550816535949707 -0.783239483833312988
1.91634500026702881 3.70001435279846191 -1.57924222946166992
-0.134721741080284119 1.23682188987731934 -0.703880906105041504
-1.18284213542938232 2.15093803405761719 -0.836701273918151855
-0.0449348688125610352 2.18831086158752441 -0.780352354049682617
2.32358217239379883 4.86389970779418945 0.101509377360343933
-0.258283287286758423 3.15514755249023438 -0.74647974967956543
1.41913175582885742 3.03388261795043945 -1.59417450428009033
-1.44591760635375977 2.3593144416809082 -1.48430156707763672
-1.25777184963226318 2.55803132057189941 -1.12627363204956055
-0.283019483089447021 3.97332859039306641 -0.577548444271087646
-1.3362354040145874 2.45943260192871094 -0.350343585014343262
1.81502139568328857 2.20358562469482422 -1.44590950012207031
0.0553059503436088562 4.27172136306762695 -0.889335513114929199
1.32838177680969238 3.40017867088317871 -1.61409652233123779
1.11841356754302979 2.46881365776062012 -1.57462966442108154
-0.616002857685089111 1.32217109203338623 -1.59011626243591309
0.233649343252182007 1.7377629280090332 -0.840808451175689697
1.55182921886444092 4.63201665878295898 -0.788625121116638184
1.14148271083831787 2.82386589050292969 -1.58735096454620361
-0.0711094290018081665 1.45188915729522705 -1.28027689456939697
-0.589274764060974121 3.42024493217468262 -0.640008747577667236
2.31555271148681641 5.73417472839355469 -0.112530000507831573
0.378037303686141968 4.39079189300537109 -0.660833477973937988
-1.18867802619934082 2.34402680397033691 -1.35143005847930908
-1.03316092491149902 2.75032591819763184 -0.587291479110717773
-0.477863818407058716 3.64547586441040039 -0.951871812343597412
0.669125676155090332 2.34394598007202148 -0.852646470069885254
2.38063836097717285 5.07114267349243164 -0.692183852195739746
-0.296394109725952148 1.78017747402191162 -0.66009223461151123
1.67193591594696045 5.37646007537841797 0.165698766708374023
1.0727311372756958 6.1826934814453125 -0.207072168588638306
-0.250024139881134033 3.7953951358795166 -0.793376445770263672
-0.517647266387939453 1.9177321195602417 -0.528915166854858398
2.16537785530090332 5.39192867279052734 -0.231583625078201294
2.97679400444030762 4.50503778457641602 -1.31100642681121826
0.751779615879058838 6.39451932907104492 -0.539341330528259277
0.758034348487854004 1.90621817111968994 -1.52241873741149902
1.86167311668395996 5.54427814483642578 0.0416288897395133972
0.457706540822982788 2.82408952713012695 -0.781089603900909424
1.50666177272796631 5.78425312042236328 -0.108810305595397949
1.03804636001586914 6.15922164916992188 -0.870578289031982422
1.12446177005767822 1.95500719547271729 -1.5004802942276001
0.470483213663101196 1.95463848114013672 -0.951761782169342041
-0.880817711353302002 2.96169066429138184 -0.999386727809906006
0.937601029872894287 3.34166550636291504 -0.724647819995880127
0.246145829558372498 1.54010879993438721 -1.56748008728027344
1.78446495532989502 3.35166406631469727 -1.51411330699920654
-0.472657531499862671 1.30623149871826172 -0.952749550342559814
1.16347646713256836 1.57218706607818604 -1.43003606796264648
-1.04963922500610352 2.12572145462036133 -1.65423166751861572
0.915750265121459961 6.31833744049072266 -1.06782448291778564
-0.796331703662872314 3.27857804298400879 -0.180216938257217407
3.8234245777130127 6.10304784774780273 -0.804686903953552246
-0.677741169929504395 1.44039738178253174 -0.628135383129119873
1.70848560333251953 2.62606501579284668 -1.48469650745391846
1.40514564514160156 3.04836797714233398 -0.808019638061523438
2.27306056022644043 5.73492860794067383 -0.3651084303855896
-0.986657023429870605 2.45330309867858887 -0.944403231143951416
0.931696534156799316 2.97865724563598633 -1.618552565574646
0.567213475704193115 1.49525070190429688 -1.53717231750488281
-0.988873124122619629 1.60698354244232178 -1.60885417461395264
1.49627113342285156 4.70669460296630859 -0.475115269422531128
-0.523797512054443359 1.31001865863800049 -1.19741618633270264
-0.173240333795547485 4.09255886077880859 -0.816947400569915771
-0.658510684967041016 1.63584113121032715 -0.827814817428588867
0.16875159740447998 1.60209918022155762 -1.09529364109039307
-0.0600222349166870117 3.92158627510070801 -0.106345847249031067
0.257502377033233643 2.25746393203735352 -1.58072066307067871
-0.0508184395730495453 2.42141079902648926 -0.638536632061004639
0.12620195746421814 3.98726439476013184 -0.735809385776519775
0.979665040969848633 3.00949597358703613 -0.735651850700378418
0.51420438289642334 4.66396617889404297 -0.119110554456710815
0.20835307240486145 4.2190394401550293 -0.69214475154876709
1.23134887218475342 5.71728229522705078 0.0326680541038513184
-0.131654798984527588 1.57913625240325928 -0.71893918514251709
1.98683667182922363 5.38266468048095703 -0.747688829898834229
2.63508152961730957 5.03757381439208984 -1.36213576793670654
-0.764923810958862305 1.08776557445526123 -0.757116794586181641
-0.268827855587005615 2.03182363510131836 -1.36943328380584717
-0.507626950740814209 3.64313507080078125 -0.380847334861755371
0.679549336433410645 2.41331219673156738 -1.62467515468597412
0.27558058500289917 4.48619365692138672 -0.182362675666809082
1.12597978115081787 6.07283687591552734 -0.669636249542236328
2.25415492057800293 5.23029756546020508 -0.377181380987167358
1.53442192077636719 2.11201310157775879 -1.45704388618469238
-0.635347664356231689 3.12787914276123047 -0.645930469036102295
-0.711605310440063477 1.11094260215759277 -1.60673141479492188
-1.09666311740875244 2.65887093544006348 -0.909149050712585449
0.721894979476928711 2.65947318077087402 -0.843151330947875977
2.55229878425598145 4.91407918930053711 -0.576553285121917725
2.04924392700195312 5.76910400390625 -0.354656904935836792
0.492980062961578369 3.05437684059143066 -0.79071277379989624
-1.69842994213104248 2.31964111328125 -1.02896022796630859
-0.828148126602172852 1.86869382858276367 -0.91440969705581665
-1.47080719470977783 2.64324235916137695 -1.20833086967468262
3.07955360412597656 5.35664176940917969 -1.44956660270690918
-1.2803119421005249 2.54333066940307617 -1.65436375141143799
-0.00121296942234039307 4.20914840698242188 -0.241202890872955322
0.998487472534179688 4.56988239288330078 -0.564795076847076416
0.0648664236068725586 2.75059700012207031 -0.716258525848388672
0.100946024060249329 1.37804758548736572 -1.5401461124420166
2.95572638511657715 5.31203413009643555 -0.704710066318511963
-1.33784210681915283 2.48764228820800781 -0.566753983497619629
2.25288558006286621 5.14499807357788086 -0.97211843729019165
1.68486523628234863 2.82534933090209961 -1.58866691589355469
-0.704675555229187012 2.78777766227722168 -0.757576704025268555
-0.88080984354019165 1.88425922393798828 -1.18100297451019287
1.23125028610229492 2.8620753288269043 -0.787207603454589844
-1.12019813060760498 2.39420485496520996 -0.718026936054229736
-1.26637816429138184 2.34271955490112305 -1.12229084968566895
2.50378513336181641 5.13608980178833008 -0.144910424947738647
1.25086033344268799 6.04765224456787109 -0.234903216361999512
2.33456087112426758 5.16084384918212891 -1.22795915603637695
-0.249563246965408325 1.41034424304962158 -0.828955411911010742
0.690870046615600586 2.18703413009643555 -1.60162127017974854
-0.220289990305900574 1.41421627998352051 -0.617502391338348389
0.311203271150588989 2.03306865692138672 -1.63680911064147949
-0.245277225971221924 3.87347173690795898 -0.352127879858016968
-1.22531330585479736 2.0106809139251709 -1.65186476707458496
-0.921286523342132568 1.81220173835754395 -1.62146329879760742
