ply
format ascii 1.0
element vertex 256
comment vertices
property float x
property float y
property float z
end_header
0.57876962423324585 2.06787633895874023 -0.899295568466186523
3.89936137199401855 6.15246391296386719 -0.720772624015808105
0.777924597263336182 6.5093226432800293 -0.075189247727394104
2.01063776016235352 4.38543939590454102 -0.951591432094573975
-1.65780901908874512 2.31212472915649414 -0.44178164005279541
0.0340921580791473389 4.22446584701538086 -0.0856265798211097717
-0.847290217876434326 0.993808865547180176 -1.59448528289794922
2.11120820045471191 2.7558896541595459 -1.6757969856262207
0.768711268901824951 5.25386285781860352 -1.09596157073974609
-0.482387572526931763 3.10641694068908691 -0.931524455547332764
2.58305621147155762 5.00957393646240234 0.264833986759185791
3.24567461013793945 4.35842370986938477 -1.552482008934021
1.26664471626281738 1.18447494506835938 -1.66627871990203857
2.02085709571838379 5.69890069961547852 -0.6978912353515625
0.96648329496383667 6.49002695083618164 -1.40308713912963867
-1.42136943340301514 2.15236592292785645 -1.69646072387695312
0.807084441184997559 4.00708484649658203 -1.0198742151260376
-0.559017181396484375 1.88668811321258545 -0.927302420139312744
3.06988739967346191 5.10753345489501953 -0.746807634830474854
1.00748443603515625 2.76204657554626465 -1.64914298057556152
0.188576012849807739 1.23281669616699219 -1.64122641086578369
1.49141073226928711 5.77144908905029297 0.0573921054601669312
1.19403040409088135 2.89712810516357422 -0.768336296081542969
2.26425671577453613 5.15408182144165039 -1.34569168090820312
-0.12361617386341095 3.90905904769897461 -0.910753369331359863
-0.498330652713775635 2.22594785690307617 -1.72775232791900635
1.58117365837097168 1.9925311803817749 -1.66605126857757568
2.11166954040527344 3.77174186706542969 -1.54120969772338867
-1.09047532081604004 2.96227478981018066 -0.347809195518493652
1.25753891468048096 4.71552085876464844 -0.647240579128265381
-0.516678690910339355 3.59548521041870117 -0.191158026456832886
-0.6914406418800354 1.09868180751800537 -0.701359093189239502
1.14061009883880615 6.07476043701171875 -0.706651389598846436
0.627337515354156494 1.91827666759490967 -1.69608628749847412
-1.16080975532531738 2.61884927749633789 -1.11369001865386963
0.0878593623638153076 1.47328758239746094 -0.883140027523040771
0.378579765558242798 2.78642940521240234 -0.896818578243255615
0.387805163860321045 4.51866292953491211 -0.706653118133544922
3.04936313629150391 5.04279565811157227 -1.51815974712371826
2.31658458709716797 5.12982463836669922 -0.391874611377716064
1.41180551052093506 3.34537553787231445 -1.6673886775970459
-1.23784077167510986 1.86466395854949951 -0.789651870727539062
2.64821529388427734 4.1678156852722168 -1.09317672252655029
0.354775279760360718 3.46956086158752441 -1.06571710109710693
-0.376103222370147705 1.53482389450073242 -1.63452577590942383
3.19035220146179199 4.45087623596191406 -0.90387570858001709
-0.0985277891159057617 2.38138651847839355 -0.933416485786437988
-0.994652450084686279 1.58638894557952881 -1.66231787204742432
1.4673764705657959 4.14075946807861328 -0.97549128532409668
2.55751562118530273 4.72529745101928711 -1.63732051849365234
1.32385241985321045 6.02059125900268555 -1.26710867881774902
2.60906696319580078 4.81452798843383789 -0.969612777233123779
-0.285587489604949951 1.09960901737213135 -1.28208112716674805
1.50619351863861084 2.78423786163330078 -1.38037252426147461
0.743878304958343506 1.36766445636749268 -1.62940096855163574
-0.634848952293395996 2.55149674415588379 -0.965580344200134277
1.49768710136413574 5.67974996566772461 -0.484498977661132812
0.531120717525482178 4.61876249313354492 -1.22707474231719971
2.9701237678527832 5.20462989807128906 -0.217484861612319946
1.07628715038299561 2.27555060386657715 -0.981299519538879395
-0.8962288498878479 1.5010906457901001 -1.10120487213134766
1.87546789646148682 5.41524219512939453 -0.0631159842014312744
0.274539381265640259 4.16109275817871094 -1.17220413684844971
0.0462945997714996338 1.84338283538818359 -1.62618339061737061
2.6748802661895752 4.77582025527954102 -0.239413022994995117
0.815947830677032471 6.46953964233398438 -0.627147197723388672
-1.55690956115722656 2.29530954360961914 -1.08478343486785889
1.19218289852142334 6.18263673782348633 -0.00282739102840423584
-0.978512406349182129 2.25555825233459473 -1.42350053787231445
-0.960213243961334229 2.98478007316589355 -0.829721987247467041
1.04422295093536377 2.17621231079101562 -1.64577531814575195
1.74331879615783691 4.74090671539306641 -0.708407044410705566
1.02986907958984375 4.43838739395141602 -1.03801751136779785
-0.155049577355384827 3.81368684768676758 -0.443971931934356689
-0.0151618272066116333 3.1690821647644043 -1.03840696811676025
-1.3280256986618042 2.57121038436889648 -0.664694428443908691
-0.712912023067474365 3.29861068725585938 -0.499404251575469971
-1.09545242786407471 2.67556595802307129 -1.59630846977233887
1.21485209465026855 1.64801836013793945 -1.64110541343688965
-0.430167287588119507 1.43308019638061523 -0.890275716781616211
2.15070676803588867 3.33563351631164551 -1.68613517284393311
0.404465734958648682 4.6471409797668457 -0.271396040916442871
0.598125576972961426 2.36711478233337402 -1.67738032341003418
0.467371523380279541 1.65072166919708252 -1.04498398303985596
2.36818099021911621 5.17200660705566406 -0.851230502128601074
1.70533931255340576 2.41507887840270996 -1.66118323802947998
1.73943817615509033 3.05198574066162109 -1.64862310886383057
0.0835396945476531982 4.20862388610839844 -0.521727919578552246
0.776540160179138184 2.60910868644714355 -0.886301636695861816
-0.344942212104797363 3.51856279373168945 -0.931776106357574463
2.36868071556091309 5.68357515335083008 -0.440596997737884521
0.0118000507354736328 1.89141130447387695 -0.958438336849212646
-0.421307951211929321 0.983333230018615723 -1.6688462495803833
-0.960832297801971436 2.99027323722839355 -1.25148153305053711
-0.897267639636993408 1.92303705215454102 -1.18108713626861572
-0.502156257629394531 1.63282787799835205 -1.25121605396270752
2.03641843795776367 5.31484365463256836 -1.0219426155090332
0.981510698795318604 6.34961462020874023 -1.03267991542816162
1.75656640529632568 3.52158999443054199 -1.64058232307434082
0.759227633476257324 2.99567198753356934 -0.880410254001617432
3.08092236518859863 4.96353578567504883 -1.10561478137969971
1.32742929458618164 2.56520605087280273 -0.934305787086486816
1.40973079204559326 4.67705535888671875 -0.999473631381988525
-0.673997461795806885 1.18995046615600586 -1.15105509757995605
-1.58407855033874512 2.51282787322998047 -1.40096354484558105
2.2777869701385498 5.17317628860473633 -0.0161247849464416504
0.25780332088470459 2.30107474327087402 -1.0188140869140625
1.34936201572418213 5.9460601806640625 -0.269272208213806152
0.220705822110176086 3.81660890579223633 -1.04770684242248535
-0.271831750869750977 3.87242674827575684 -0.100533589720726013
1.49710094928741455 5.84675216674804688 -0.80904388427734375
2.54590630531311035 4.89825057983398438 -1.31766605377197266
0.386628508567810059 1.64926266670227051 -1.65808165073394775
1.82096076011657715 5.67851114273071289 -0.324332207441329956
1.35105597972869873 2.45834922790527344 -1.6597137451171875
-0.42655491828918457 2.2480168342590332 -0.935386419296264648
0.525200843811035156 1.09297788143157959 -1.60223674774169922
1.162650465965271 6.21776056289672852 -0.388222962617874146
-0.713830351829528809 1.3941575288772583 -1.59270358085632324
-0.156545713543891907 1.25713884830474854 -1.66725659370422363
-1.15860641002655029 1.92850422859191895 -1.6640627384185791
-1.02854752540588379 2.21526360511779785 -1.05450153350830078
-0.982450902462005615 1.35822951793670654 -0.803377985954284668
1.22442567348480225 3.06252765655517578 -1.64605486392974854
2.60553717613220215 4.83105945587158203 -0.567386150360107422
-0.085294872522354126 1.31296300888061523 -1.12633013725280762
-0.502296805381774902 1.86364638805389404 -1.48832309246063232
2.11246323585510254 5.2937774658203125 -0.685460507869720459
2.11707425117492676 5.43435382843017578 -0.282772958278656006
0.969527781009674072 4.66660594940185547 -0.813567578792572021
0.958663761615753174 1.84572350978851318 -1.63047409057617188
-0.477227210998535156 3.50758838653564453 -0.561761856079101562
0.118975035846233368 2.61189603805541992 -0.952800750732421875
0.578304886817932129 2.38382244110107422 -0.980826377868652344
-1.60528039932250977 2.31571674346923828 -0.748763918876647949
-1.31635046005249023 2.32890462875366211 -1.46349668502807617
2.98281073570251465 4.75581693649291992 -1.61129236221313477
1.78295803070068359 5.51543140411376953 -0.76168358325958252
-0.601774811744689941 1.05079340934753418 -1.42088687419891357
-0.449240535497665405 1.13070034980773926 -0.930183112621307373
1.61578452587127686 2.76166176795959473 -1.66133928298950195
0.111719012260437012 1.52474045753479004 -1.66295528411865234
1.24687254428863525 1.95330822467803955 -1.632851243019104
0.427429854869842529 4.40953636169433594 -0.982916593551635742
2.84659242630004883 5.13762807846069336 -1.03801381587982178
-0.749887824058532715 3.38789629936218262 -0.216151446104049683
-0.253670364618301392 3.72423124313354492 -0.718014955520629883
-0.247926026582717896 2.98480987548828125 -1.06338357925415039
-0.303202778100967407 1.40941798686981201 -1.29886138439178467
-0.689125955104827881 2.94497370719909668 -1.14877724647521973
0.0905547887086868286 4.1084437370300293 -0.796011030673980713
-0.284898042678833008 1.78962063789367676 -0.950475156307220459
0.364517897367477417 2.04274415969848633 -1.67480373382568359
0.915668904781341553 6.37597465515136719 -0.294538497924804688
0.940223455429077148 1.15344011783599854 -1.63167190551757812
-0.928369462490081787 2.7242741584777832 -0.97535550594329834
-1.07600104808807373 2.76015305519104004 -0.688960731029510498
1.00193023681640625 3.14438676834106445 -0.829098105430603027
1.00741541385650635 2.45802664756774902 -1.64259052276611328
1.14502155780792236 6.11849260330200195 -1.05653834342956543
0.841150939464569092 2.05957365036010742 -1.00360286235809326
-1.02774238586425781 1.79187297821044922 -1.39396703243255615
-0.861049950122833252 1.73332977294921875 -0.945948362350463867
-1.26769411563873291 2.74911975860595703 -0.393771559000015259
1.3286135196685791 2.80350041389465332 -1.67039370536804199
0.464590072631835938 1.38036930561065674 -1.65036582946777344
-1.28549456596374512 2.36112809181213379 -1.09151303768157959
-0.879584789276123047 3.09706664085388184 -0.587537229061126709
0.278525054454803467 1.87268376350402832 -0.890217304229736328
0.744693756103515625 1.64062285423278809 -1.66823244094848633
-0.911973237991333008 3.18434429168701172 -0.306831270456314087
2.45311713218688965 5.00877475738525391 -0.185705319046974182
0.655986666679382324 1.84009957313537598 -1.10457634925842285
0.979880213737487793 1.50789523124694824 -1.62618732452392578
-0.548084497451782227 1.91738593578338623 -1.75124835968017578
-0.442728400230407715 2.69651985168457031 -1.09174060821533203
-1.12778568267822266 1.76765143871307373 -1.01819121837615967
1.05914413928985596 2.51851367950439453 -0.862629175186157227
1.0013962984085083 4.16526222229003906 -0.919930219650268555
0.29129403829574585 4.45927000045776367 -0.11437331885099411
-0.0772002339363098145 1.61700582504272461 -1.49650454521179199
1.52099716663360596 5.70804500579833984 -0.219157055020332336
-0.857435882091522217 1.3525012731552124 -1.32016134262084961
1.40310931205749512 1.46151244640350342 -1.61518275737762451
3.02509403228759766 5.21266841888427734 -0.477836966514587402
1.85405397415161133 2.64818811416625977 -1.6778874397277832
-0.172501906752586365 2.07971286773681641 -0.96332085132598877
1.49331259727478027 2.70694541931152344 -1.08032190799713135
-0.702825427055358887 2.96750116348266602 -0.888311326503753662
2.48279237747192383 5.04300069808959961 -1.11334800720214844
-0.128777474164962769 3.87252211570739746 -1.1661837100982666
-0.953407466411590576 1.2278132438659668 -1.61072206497192383
-0.390226125717163086 1.2530750036239624 -1.56200957298278809
1.11169326305389404 6.28430795669555664 -1.44839048385620117
-0.658811569213867188 1.57773220539093018 -0.947835803031921387
-0.811987638473510742 1.21134114265441895 -0.922627449035644531
-0.211836829781532288 1.23357212543487549 -0.920300722122192383
0.319705843925476074 4.1880803108215332 -0.925918817520141602
1.48470413684844971 4.67895650863647461 -0.74890899658203125
-1.50626397132873535 2.51194047927856445 -0.422627002000808716
-0.00791442021727561951 4.11352634429931641 -0.30665290355682373
1.30595314502716064 5.93842601776123047 0.0390625447034835815
1.4979623556137085 2.25674653053283691 -1.64854741096496582
-0.679786086082458496 1.82271862030029297 -1.24816060066223145
1.68697941303253174 5.51911401748657227 -0.49394652247428894
1.30182397365570068 5.93403196334838867 -1.01799309253692627
-1.57759392261505127 2.28414368629455566 -1.48767900466918945
-0.442771583795547485 3.35604357719421387 -0.777379214763641357
1.77452373504638672 1.84497725963592529 -1.66627919673919678
-0.430772870779037476 1.32475507259368896 -1.10796177387237549
-0.19555547833442688 3.69845414161682129 -1.00841200351715088
0.271358251571655273 1.52305185794830322 -1.11016535758972168
1.03015756607055664 6.33471441268920898 -0.554471254348754883
-1.48018813133239746 2.48964643478393555 -0.859687864780426025
-0.382939338684082031 3.75801301002502441 -0.307762175798416138
2.7521827220916748 4.38454580307006836 -1.08992743492126465
2.73140358924865723 4.71424961090087891 -1.15027225017547607
-0.398871332406997681 3.25511837005615234 -1.09974300861358643
2.79506540298461914 4.96244907379150391 -0.884821057319641113
-0.851959109306335449 2.23102307319641113 -1.21351206302642822
1.28284013271331787 4.47610330581665039 -1.00359249114990234
-0.602419674396514893 0.83584827184677124 -1.62653541564941406
2.06351780891418457 5.55602312088012695 -0.479089081287384033
-1.20239198207855225 2.64027500152587891 -0.883258581161499023
1.92852258682250977 2.89892888069152832 -1.64007759094238281
0.400179624557495117 2.52124524116516113 -0.924618124961853027
-0.0500186383724212646 1.65692508220672607 -0.911188721656799316
0.716396927833557129 2.16934370994567871 -1.66881656646728516
2.57256174087524414 4.86706066131591797 -0.0487267225980758667
1.93523085117340088 2.41893553733825684 -1.6711428165435791
1.3867955207824707 5.87230157852172852 -0.543743789196014404
-0.729540824890136719 1.92337644100189209 -0.779873788356781006
0.316745132207870483 4.40070629119873047 -0.333476096391677856
2.18260979652404785 5.64932346343994141 -0.248341187834739685
0.274917960166931152 2.07578372955322266 -1.0008232593536377
0.533786237239837646 1.8492206335067749 -0.889008402824401855
-0.0961434245109558105 4.0378875732421875 -0.696267962455749512
-1.05710625648498535 2.87035703659057617 -1.09122824668884277
0.887102723121643066 2.2370457649230957 -0.871670961380004883
0.236041873693466187 1.63607120513916016 -0.889928519725799561
1.47524452209472656 1.66630327701568604 -1.65151834487915039
0.985440611839294434 2.86709737777709961 -0.831560134887695312
2.19252538681030273 5.17264461517333984 -1.08305549621582031
1.52710723876953125 3.00903105735778809 -1.68251395225524902
1.85772597789764404 5.66952276229858398 -0.554933071136474609
0.788807809352874756 2.46512174606323242 -1.63419878482818604
2.2422783374786377 5.09435892105102539 0.184649929404258728
2.53698515892028809 4.89522552490234375 -0.780269980430603027
-0.00338634103536605835 4.0582733154296875 -1.0144202709197998
-0.667137682437896729 2.06786179542541504 -0.976238012313842773
-1.44347834587097168 2.50595450401306152 -1.07192778587341309
-1.067330002784729 2.42971348762512207 -1.15515470504760742
2.4544370174407959 4.98076438903808594 -0.542240917682647705
1.10031580924987793 1.33262002468109131 -1.64508616924285889
-0.949972033500671387 1.99383163452148438 -1.37459242343902588
-0.701794624328613281 3.22080421447753906 -0.696287631988525391
