ply
format ascii 1.0
element vertex 53
comment vertices
property float x
property float y
property float z
end_header
1.71437132358551025 2.97570419311523438 -1.14057517051696777
-0.262750566005706787 3.16408681869506836 -0.735391139984130859
1.91274726390838623 6.22570705413818359 -1.13257312774658203
3.41944193840026855 4.35598897933959961 -1.52673602104187012
0.0846719741821289062 3.61851692199707031 -0.595743715763092041
2.00639438629150391 4.37564277648925781 -1.26171875
0.96814960241317749 1.76047348976135254 -1.44044363498687744
3.52170944213867188 5.02773952484130859 -1.81463170051574707
-0.56554567813873291 2.64207577705383301 -1.1770470142364502
0.0956284701824188232 2.95257019996643066 -1.27561068534851074
-0.949654936790466309 2.33755159378051758 -1.44347167015075684
0.665252089500427246 1.35127782821655273 -1.46755850315093994
3.76615548133850098 4.61643695831298828 -1.78728258609771729
0.859723925590515137 3.97168684005737305 -1.2062065601348877
-0.59564518928527832 2.77319073677062988 -0.73808521032333374
-0.28650018572807312 2.93283939361572266 -1.07468295097351074
1.72824347019195557 2.53812646865844727 -1.39979684352874756
0.517384886741638184 3.86331701278686523 -1.39291656017303467
0.420698493719100952 2.14507102966308594 -1.1396414041519165
2.02406048774719238 4.75380086898803711 -1.31646418571472168
3.67356777191162109 5.30554962158203125 -0.954220890998840332
-0.287346839904785156 2.87263083457946777 -1.37614583969116211
-0.882428944110870361 2.47475576400756836 -1.10142922401428223
0.713989734649658203 2.63911318778991699 -0.996673524379730225
2.28011417388916016 4.66022253036499023 -1.40360331535339355
-0.0754759758710861206 3.38477587699890137 -0.745332062244415283
2.12140822410583496 1.40066719055175781 -1.90026533603668213
0.93556368350982666 4.51232099533081055 -1.15234208106994629
1.24718248844146729 2.07094120979309082 -1.42473721504211426
0.319889485836029053 3.9040830135345459 -0.557650148868560791
0.185611069202423096 3.3272709846496582 -1.27482104301452637
-0.350245445966720581 2.28761053085327148 -1.39750432968139648
-0.765906572341918945 2.58539199829101562 -1.42089164257049561
2.70877242088317871 3.59275174140930176 -1.945670485496521
0.0298818908631801605 2.71231961250305176 -1.19611358642578125
0.657875120639801025 4.37026691436767578 -0.641338825225830078
-0.396951109170913696 2.98183321952819824 -0.866666316986083984
1.06592786312103271 4.3644709587097168 -1.22352111339569092
0.212165787816047668 3.63400840759277344 -1.15482723712921143
0.777688443660736084 4.40014362335205078 -1.01776981353759766
0.217472374439239502 1.09593486785888672 -1.92031407356262207
-0.557825446128845215 2.77530455589294434 -0.969415664672851562
-0.839942812919616699 2.39144086837768555 -1.65269911289215088
3.32074379920959473 5.14346027374267578 -1.22638154029846191
-0.717065751552581787 2.6032865047454834 -0.76879572868347168
1.82229065895080566 4.73882102966308594 -1.16747045516967773
1.78801798820495605 4.65881824493408203 -1.30209195613861084
2.80037736892700195 5.87584829330444336 -0.999124348163604736
3.3372046947479248 5.10698604583740234 -1.66439998149871826
2.74036693572998047 5.81763172149658203 -0.809055030345916748
0.901057302951812744 1.19800770282745361 -1.94417798519134521
0.776287317276000977 1.51755106449127197 -1.43255484104156494
0.718687117099761963 4.23976421356201172 -1.25908577442169189
