ply
format ascii 1.0
element vertex 256
comment vertices
property float x
property float y
property float z
end_header
-1.47233486175537109 1.63077032566070557 -1.0103306770324707
4.48933219909667969 6.11826229095458984 -1.26160526275634766
0.731397032737731934 4.83275794982910156 -1.1534954309463501
1.76854336261749268 4.45623064041137695 -1.0242537260055542
0.886031150817871094 0.777447223663330078 -1.12510740756988525
-1.6489795446395874 2.01949858665466309 -1.00324070453643799
3.99509787559509277 2.31959843635559082 -1.08969128131866455
4.42499160766601562 2.83768463134765625 -1.12996244430541992
0.959758341312408447 3.05949687957763672 -1.05406808853149414
-0.876865029335021973 0.403406441211700439 -1.08424091339111328
0.593811213970184326 4.35720729827880859 -1.03599190711975098
2.86535978317260742 5.30552053451538086 -1.11878156661987305
1.24645471572875977 6.49310922622680664 -1.1121973991394043
-0.273897945880889893 2.76942944526672363 -1.00475680828094482
2.69691658020019531 1.42043828964233398 -0.941191792488098145
-0.00293241348117589951 3.58664393424987793 -1.0701596736907959
-0.880991578102111816 2.3494410514831543 -0.651415705680847168
2.16202139854431152 -0.395701885223388672 -1.47490096092224121
-0.412789225578308105 4.05714750289916992 -1.09038865566253662
-0.328923195600509644 1.76957821846008301 -1.03962039947509766
0.625858604907989502 2.55415058135986328 -0.882717013359069824
1.21685183048248291 5.78594446182250977 -0.871672749519348145
3.608428955078125 -0.129393100738525391 -1.37937819957733154
3.09725499153137207 4.12191963195800781 -1.10302615165710449
2.35925698280334473 -0.0993676185607910156 -1.44145333766937256
1.96600699424743652 5.15979576110839844 -0.975522696971893311
0.466567337512969971 2.46728610992431641 -1.05473613739013672
3.76621866226196289 4.69458580017089844 -1.07381117343902588
-0.837407410144805908 1.18466806411743164 -1.08767938613891602
-0.152293086051940918 1.04176902770996094 -1.11106538772583008
1.21958410739898682 4.45374965667724609 -0.915927767753601074
2.73793458938598633 3.49179673194885254 -1.27812480926513672
-0.852079451084136963 2.48553180694580078 -0.977169573307037354
0.435533761978149414 2.65145134925842285 -1.06897091865539551
-1.67484188079833984 3.29052519798278809 -1.11240255832672119
-0.137975394725799561 1.08716964721679688 -0.993695855140686035
-0.552768290042877197 1.31494438648223877 -0.941604018211364746
1.61065351963043213 4.87250661849975586 -1.05309581756591797
3.94879007339477539 0.791168689727783203 -1.28945934772491455
-0.529535174369812012 2.98563885688781738 -0.870888650417327881
3.42528581619262695 1.97156572341918945 -1.00785374641418457
4.34605693817138672 3.62759160995483398 -1.03380036354064941
-2.21603131294250488 1.95946478843688965 -0.790877878665924072
-0.310028880834579468 1.83894288539886475 -1.12364673614501953
3.88802194595336914 5.97320938110351562 -0.991700291633605957
-0.493019700050354004 3.62560009956359863 -1.00657033920288086
0.0930471569299697876 2.17807579040527344 -1.07376933097839355
0.444449871778488159 4.11489152908325195 -0.96963578462600708
0.265502035617828369 1.72813189029693604 -0.953007161617279053
-4.00786876678466797 1.02682995796203613 -1.07457971572875977
-0.210104465484619141 3.41942310333251953 -0.979803383350372314
2.25646853446960449 3.99125003814697266 -0.962838172912597656
2.53439617156982422 4.21261310577392578 -1.07070779800415039
0.60731196403503418 2.71741271018981934 -0.980292320251464844
1.62180078029632568 3.6627342700958252 -1.01761138439178467
2.65756726264953613 4.16179656982421875 -0.971661269664764404
0.174346581101417542 2.8792569637298584 -0.963613033294677734
-1.05242693424224854 1.61306416988372803 -0.96947556734085083
0.480266302824020386 2.74201202392578125 -1.07188212871551514
4.32865571975708008 6.81681251525878906 -1.32284557819366455
0.0867246761918067932 1.5959477424621582 -1.05405604839324951
0.804551899433135986 2.71973037719726562 -1.10094845294952393
-0.529170572757720947 1.42585718631744385 -1.05532360076904297
2.22323775291442871 0.844345569610595703 -1.49988770484924316
2.81935977935791016 3.64194560050964355 -1.0413820743560791
-0.980136215686798096 2.51383876800537109 -1.02633309364318848
2.12140560150146484 4.60840988159179688 -1.0982590913772583
-0.140523999929428101 0.225109577178955078 -1.0464402437210083
-0.936727941036224365 2.54186391830444336 -1.00120913982391357
1.6097869873046875 5.60434055328369141 -1.0782780647277832
-0.774496078491210938 1.72688746452331543 -1.01154887676239014
3.09884476661682129 -0.386807918548583984 -1.44785940647125244
2.6437687873840332 4.33704662322998047 -1.10918593406677246
1.08970212936401367 2.91861200332641602 -1.0771489143371582
1.37381219863891602 2.03500676155090332 -0.902286410331726074
0.14063088595867157 2.59615230560302734 -1.02373838424682617
0.388974905014038086 4.08190059661865234 -0.889615535736083984
-0.157358646392822266 3.49763369560241699 -0.879339873790740967
2.36022329330444336 5.42755603790283203 -0.928527295589447021
-1.04175865650177002 2.32600975036621094 -0.870827615261077881
0.574006497859954834 0.346238374710083008 -1.21296286582946777
3.5154106616973877 4.23762035369873047 -0.709268331527709961
0.318319916725158691 3.81673574447631836 -0.973640263080596924
2.93309354782104492 4.4097142219543457 -1.01978600025177002
4.30161857604980469 3.42556166648864746 -1.15771341323852539
0.0229980945587158203 5.7164921760559082 -1.136574387550354
3.76957464218139648 3.78499293327331543 -1.16456151008605957
0.842728555202484131 2.38827133178710938 -0.916876137256622314
-0.761947929859161377 3.36124300956726074 -0.978769123554229736
-0.443586438894271851 1.20558822154998779 -1.11599993705749512
-1.21606898307800293 1.31032729148864746 -1.05248916149139404
0.0988049507141113281 0.694825649261474609 -1.07672286033630371
-0.319868564605712891 1.47679245471954346 -1.07138824462890625
0.269413232803344727 4.02634286880493164 -0.93676292896270752
-0.842689156532287598 2.04062151908874512 -1.12928092479705811
1.62750840187072754 4.48254823684692383 -0.936559975147247314
-0.493786811828613281 1.34460997581481934 -1.02352416515350342
1.90641140937805176 5.22119474411010742 -0.712211430072784424
-0.199768751859664917 2.11753082275390625 -1.06123661994934082
1.23816967010498047 3.2534637451171875 -1.06221246719360352
-0.115876197814941406 2.14364957809448242 -0.981814384460449219
0.632486283779144287 4.24938106536865234 -1.2132648229598999
-0.451523900032043457 3.07221531867980957 -0.95868915319442749
-0.056492190808057785 2.2796027660369873 -1.07803499698638916
0.200120165944099426 2.07949638366699219 -1.07631349563598633
-0.924269497394561768 2.52279281616210938 -0.893026232719421387
-2.19443964958190918 2.34400367736816406 -1.07270503044128418
1.95626604557037354 5.23347759246826172 -1.03820550441741943
-0.501011490821838379 2.30866456031799316 -1.01699542999267578
0.279156714677810669 2.40526556968688965 -1.06359755992889404
3.6450347900390625 2.69276094436645508 -1.19412147998809814
0.158607929944992065 1.95784616470336914 -1.05813395977020264
1.16012966632843018 3.05636882781982422 -1.1014716625213623
2.20902109146118164 4.90057468414306641 -0.983511507511138916
0.172206982970237732 1.62909877300262451 -1.07988429069519043
-0.269242227077484131 1.59273457527160645 -0.969133496284484863
0.715979933738708496 1.3989490270614624 -0.923267006874084473
-0.127122551202774048 2.95965909957885742 -0.862239658832550049
0.647471487522125244 2.84438371658325195 -1.05151236057281494
0.640521645545959473 1.46065711975097656 -1.05905759334564209
-0.576535522937774658 1.31606566905975342 -0.981124222278594971
-0.742124617099761963 2.58606457710266113 -0.954089462757110596
-1.66253662109375 2.05367755889892578 -0.930602312088012695
0.54213249683380127 4.84651279449462891 -0.946687877178192139
3.29635524749755859 0.419047832489013672 -1.35638642311096191
-0.0932203233242034912 1.82701265811920166 -1.06798768043518066
1.13136708736419678 2.25317215919494629 -0.924235999584197998
1.93995046615600586 2.51764607429504395 -1.02859210968017578
0.0221414566040039062 3.40848803520202637 -1.12640047073364258
0.58676445484161377 2.57621955871582031 -0.928001344203948975
1.91045165061950684 4.97952938079833984 -1.11209213733673096
-0.787037968635559082 1.44441318511962891 -1.05131936073303223
-0.13348756730556488 3.45189285278320312 -1.00045859813690186
0.582718372344970703 2.64192819595336914 -1.09262192249298096
-1.12398064136505127 1.9216083288192749 -1.09415197372436523
-2.78341341018676758 0.558137774467468262 -1.05700039863586426
1.35126447677612305 4.88243198394775391 -0.913078427314758301
2.87507057189941406 1.86874687671661377 -0.973781466484069824
-0.393951535224914551 1.55328071117401123 -1.08861732482910156
2.48865556716918945 0.436725139617919922 -1.55225944519042969
3.33401203155517578 2.8090214729309082 -0.932727217674255371
1.77269995212554932 2.48139524459838867 -1.15059101581573486
4.17550849914550781 6.29740428924560547 -1.15573680400848389
3.6626288890838623 2.14854812622070312 -1.04050755500793457
-0.512551546096801758 1.28845107555389404 -0.989849627017974854
2.45797061920166016 4.16290569305419922 -1.00514435768127441
-1.04497742652893066 2.20212197303771973 -0.722413599491119385
1.42518186569213867 3.61255955696105957 -1.1664581298828125
0.00210041552782058716 1.93661046028137207 -1.04354715347290039
0.967006564140319824 2.29151821136474609 -0.97142946720123291
-0.87588423490524292 2.48636078834533691 -0.954070389270782471
-1.03619050979614258 2.32005810737609863 -1.04422593116760254
-0.819323599338531494 1.6499406099319458 -1.07902216911315918
-0.266536951065063477 2.91831779479980469 -0.919056832790374756
-2.55109643936157227 2.17682456970214844 -1.04621744155883789
1.67896676063537598 4.5228729248046875 -1.15767395496368408
0.403299391269683838 4.09004831314086914 -0.963637828826904297
4.42745256423950195 2.92514228820800781 -1.05876457691192627
3.5569300651550293 -1.32723331451416016 -1.69202828407287598
-0.361264824867248535 3.13440752029418945 -0.950095057487487793
0.28242945671081543 2.31933856010437012 -1.07972538471221924
-0.904148578643798828 2.45955109596252441 -0.84474557638168335
1.96721851825714111 4.72552680969238281 -0.808538198471069336
-0.327717721462249756 2.3547966480255127 -1.0859144926071167
1.05766832828521729 5.48880958557128906 -1.11960744857788086
1.80050444602966309 2.61035585403442383 -1.36262166500091553
0.166645705699920654 2.47536635398864746 -1.06188881397247314
1.16265130043029785 3.42604708671569824 -1.17707395553588867
3.65938472747802734 4.42241191864013672 -1.03384959697723389
1.43589878082275391 1.57839202880859375 -1.11827969551086426
0.0370859503746032715 3.08081173896789551 -0.923334121704101562
-1.09845387935638428 2.34850788116455078 -0.962415397167205811
-0.0599550381302833557 3.58758831024169922 -0.970652163028717041
3.86519145965576172 4.50732040405273438 -0.765558719635009766
-0.623136341571807861 1.29404020309448242 -1.10305690765380859
0.0606096982955932617 6.75687932968139648 -1.02718985080718994
-0.517129957675933838 1.38900470733642578 -1.00576066970825195
-0.65240180492401123 2.82976722717285156 -0.910826981067657471
1.98910427093505859 4.26912498474121094 -1.04400992393493652
1.99141240119934082 6.02966213226318359 -1.1070479154586792
2.16965389251708984 4.44425630569458008 -0.904161930084228516
1.45612800121307373 3.84154605865478516 -1.06960058212280273
1.12417519092559814 3.05222892761230469 -1.0326988697052002
0.319554686546325684 4.01216697692871094 -0.743352115154266357
0.0102918744087219238 2.27519392967224121 -1.08875560760498047
-1.83317852020263672 0.28478473424911499 -1.05688929557800293
2.38689398765563965 3.99739360809326172 -0.947066426277160645
2.79642772674560547 3.1464991569519043 -0.995675444602966309
0.817658901214599609 2.83808493614196777 -1.05818963050842285
1.21772611141204834 4.03657245635986328 -0.995188117027282715
2.53146600723266602 2.1209259033203125 -0.974535465240478516
1.50806510448455811 4.51742029190063477 -0.960699737071990967
3.96898889541625977 5.3139805793762207 -0.959972083568572998
-0.0349970459938049316 1.42980408668518066 -1.05229330062866211
-0.208690732717514038 3.36946511268615723 -0.926292598247528076
-0.315195560455322266 3.04516100883483887 -0.977477192878723145
0.601616084575653076 2.50849270820617676 -1.08514571189880371
0.194658517837524414 2.1884453296661377 -1.00245654582977295
-0.9880637526512146 1.76570641994476318 -0.956601917743682861
1.81549155712127686 5.97153854370117188 -0.90929180383682251
-0.561120510101318359 3.73354864120483398 -1.04402101039886475
1.08789229393005371 2.36555576324462891 -1.31332659721374512
0.0220597386360168457 5.26807022094726562 -1.09865438938140869
1.00105452537536621 2.83442878723144531 -1.08824121952056885
3.58562755584716797 3.1223604679107666 -1.05044436454772949
-0.574552059173583984 1.32552790641784668 -0.968581616878509521
0.446335494518280029 2.52449202537536621 -1.08076131343841553
-0.985496103763580322 2.31751418113708496 -1.04366385936737061
3.58508801460266113 -0.327694892883300781 -1.46581351757049561
2.17923355102539062 2.22919583320617676 -1.00266766548156738
1.76407217979431152 5.04279899597167969 -0.857424676418304443
0.419912993907928467 1.3266221284866333 -0.933182239532470703
3.4243166446685791 0.38857269287109375 -1.33094370365142822
-0.894579470157623291 2.75614285469055176 -1.02442646026611328
4.02767467498779297 2.74234652519226074 -0.982911229133605957
0.616708993911743164 2.99448013305664062 -1.05470538139343262
0.398095428943634033 1.63363206386566162 -0.921254158020019531
-0.4308432936668396 1.41985535621643066 -1.05501711368560791
-0.348475456237792969 1.07192873954772949 -1.01358723640441895
0.3929310142993927 4.07801675796508789 -0.945433914661407471
-0.069639354944229126 1.46760976314544678 -1.13350355625152588
-0.379764676094055176 3.11463809013366699 -0.858616948127746582
0.095615193247795105 2.05276679992675781 -1.07934927940368652
2.88392019271850586 5.58879423141479492 -1.02040040493011475
0.502621471881866455 0.763460636138916016 -0.966759920120239258
-0.273816347122192383 3.17494416236877441 -1.00967621803283691
2.95312643051147461 4.24107027053833008 -1.23443734645843506
0.628886222839355469 3.93908166885375977 -1.066680908203125
2.06778883934020996 5.03513860702514648 -0.870164990425109863
2.45187020301818848 3.08261203765869141 -1.02360224723815918
-0.660755455493927002 1.46867144107818604 -1.09904885292053223
4.47517728805541992 2.1831974983215332 -1.53867840766906738
0.383950263261795044 4.06115007400512695 -0.954163074493408203
0.182527840137481689 1.02283811569213867 -1.15498185157775879
-0.869190037250518799 2.4651486873626709 -1.00841641426086426
1.21188044548034668 2.17400789260864258 -1.35692203044891357
-1.05574905872344971 2.18834352493286133 -1.09855926036834717
1.75295090675354004 4.20826339721679688 -0.974161744117736816
-0.505017340183258057 2.08300614356994629 -1.01955485343933105
3.49823760986328125 2.59803628921508789 -1.11987686157226562
3.00059413909912109 2.1189265251159668 -1.10418987274169922
-1.74672770500183105 1.89417767524719238 -1.06428670883178711
-0.392527103424072266 2.2424311637878418 -0.93446195125579834
1.57152748107910156 5.90048122406005859 -0.856866300106048584
2.07250881195068359 1.65595686435699463 -0.911667466163635254
-0.243380904197692871 1.99513256549835205 -1.02574288845062256
2.3117060661315918 4.44222450256347656 -0.844063162803649902
2.46085739135742188 3.71440792083740234 -0.987697482109069824
-0.661852598190307617 1.48280155658721924 -1.09139049053192139
-0.722559034824371338 2.77772974967956543 -0.942286193370819092
1.66483235359191895 4.48181343078613281 -0.98935246467590332
-0.664471566677093506 1.41107273101806641 -0.955312788486480713
1.20776152610778809 4.44291496276855469 -0.963678896427154541
0.982608199119567871 2.16098308563232422 -0.942954897880554199
1.04592859745025635 2.21928739547729492 -0.940314173698425293
-0.554322004318237305 1.29356932640075684 -0.976844489574432373
