ply
format ascii 1.0
element vertex 256
comment vertices
property float x
property float y
property float z
end_header
0.114013656973838806 1.93823158740997314 -1.4251701831817627
3.93347001075744629 6.38476276397705078 -0.798095285892486572
0.912109017372131348 5.35864019393920898 -0.342040807008743286
1.93823158740997314 3.53442215919494629 -1.5391838550567627
-0.171020388603210449 3.81945633888244629 -1.19714295864105225
2.67932009696960449 4.95959234237670898 -0.684081673622131348
1.99523842334747314 1.7672111988067627 -1.65319740772247314
-1.4251701831817627 1.93823158740997314 -1.4821770191192627
0.855102181434631348 2.90734744071960449 -0.969115734100341797
1.0261225700378418 6.15673542022705078 -1.31115663051605225
-0.855102121829986572 3.02136087417602539 -0.570068061351776123
1.31115663051605225 4.44653129577636719 -1.14013612270355225
0.969115793704986572 1.2541499137878418 -1.5961906909942627
-0.570068061351776123 1.1971430778503418 -1.5961906909942627
-0.684081673622131348 2.05224514007568359 -0.855102121829986572
3.07836771011352539 4.73156547546386719 -1.5391838550567627
1.6531975269317627 5.41564702987670898 -0.912108898162841797
0.684081733226776123 3.81945633888244629 -0.855102121829986572
-0.0570067688822746277 2.79333376884460449 -0.969115734100341797
4.09781932830810547e-08 4.33251762390136719 -0.456054449081420898
1.6531975269317627 2.50829958915710449 -1.25414979457855225
2.28027248382568359 5.75768804550170898 -0.570068061351776123
1.5961906909942627 3.24938821792602539 -0.912108898162841797
0.171020478010177612 1.1401362419128418 -1.5961906909942627
0.969115793704986572 2.22326564788818359 -1.31115663051605225
0.456054508686065674 4.61755180358886719 -0.912108898162841797
2.28027248382568359 2.39428615570068359 -1.5961906909942627
2.22326564788818359 5.01659917831420898 -1.19714295864105225
0.912109017372131348 6.04272174835205078 -0.399047613143920898
2.33727931976318359 4.67455863952636719 -0.171020388603210449
-0.912108898162841797 2.62231326103210449 -1.14013612270355225
-0.513061225414276123 1.88122475147247314 -1.65319740772247314
0.456054508686065674 2.39428615570068359 -0.969115734100341797
-0.228027194738388062 1.48217713832855225 -1.14013612270355225
2.67932009696960449 4.44653129577636719 -1.14013612270355225
-0.855102121829986572 1.48217713832855225 -1.0831294059753418
-0.171020388603210449 3.47741556167602539 -0.684081673622131348
1.0831294059753418 5.64367437362670898 -0.912108898162841797
3.13537454605102539 5.13061285018920898 -1.0831294059753418
2.10925197601318359 2.90734744071960449 -1.3681633472442627
1.5391838550567627 1.42517030239105225 -1.5391838550567627
0.342040896415710449 3.36340188980102539 -0.969115734100341797
1.2541499137878418 2.90734744071960449 -1.3681633472442627
0.456054508686065674 2.79333376884460449 -1.3681633472442627
1.0261225700378418 3.42040872573852539 -1.0261225700378418
1.36816346645355225 5.64367437362670898 -0.399047613143920898
-0.114013582468032837 2.22326564788818359 -1.0261225700378418
2.16625881195068359 5.24462652206420898 -0.684081673622131348
0.627074956893920898 1.88122475147247314 -1.5391838550567627
0.171020478010177612 3.93347001075744629 -0.798095285892486572
1.42517030239105225 4.95959234237670898 -1.0831294059753418
-0.912108898162841797 2.05224514007568359 -1.3681633472442627
1.48217713832855225 1.93823158740997314 -1.5391838550567627
0.285034090280532837 1.7672111988067627 -0.969115734100341797
1.36816346645355225 5.18761968612670898 -0.171020388603210449
-1.14013612270355225 2.28027248382568359 -0.855102121829986572
-0.912108898162841797 1.5961906909942627 -1.5961906909942627
-0.456054449081420898 3.42040872573852539 -1.14013612270355225
1.93823158740997314 4.61755180358886719 -1.14013612270355225
-1.19714295864105225 1.82421791553497314 -1.0261225700378418
3.81945633888244629 5.92870807647705078 -0.912108898162841797
0.912109017372131348 4.73156547546386719 -1.0261225700378418
-0.114013582468032837 1.5391838550567627 -1.5961906909942627
0.171020478010177612 2.39428615570068359 -1.3681633472442627
-0.456054449081420898 2.56530642509460449 -1.0831294059753418
3.19238138198852539 5.13061285018920898 -0.627074837684631348
0.798095405101776123 6.15673542022705078 -0.912108898162841797
2.62231326103210449 4.73156547546386719 -1.5391838550567627
1.1971430778503418 2.62231326103210449 -1.0261225700378418
1.82421791553497314 2.28027248382568359 -1.5961906909942627
2.67932009696960449 4.90258550643920898 -1.14013612270355225
-0.0570067688822746277 3.24938821792602539 -1.14013612270355225
0.570068120956420898 1.0261225700378418 -1.71020424365997314
0.456054508686065674 4.16149711608886719 -1.0261225700378418
0.513061344623565674 1.48217713832855225 -1.5391838550567627
1.0831294059753418 1.6531975269317627 -1.5961906909942627
1.6531975269317627 3.02136087417602539 -1.3681633472442627
-0.513061225414276123 1.7672111988067627 -1.14013612270355225
0.855102181434631348 2.45129275321960449 -0.912108898162841797
0.456054508686065674 2.90734744071960449 -0.969115734100341797
-0.171020388603210449 3.99047684669494629 -0.570068061351776123
2.50829958915710449 5.01659917831420898 -0.342040807008743286
0.912109017372131348 2.73632693290710449 -1.3681633472442627
-0.627074837684631348 2.90734744071960449 -0.855102121829986572
2.28027248382568359 5.35864019393920898 -1.0261225700378418
-0.228027194738388062 2.10925197601318359 -1.3681633472442627
1.42517030239105225 2.90734744071960449 -0.969115734100341797
-0.513061225414276123 1.48217713832855225 -1.3681633472442627
1.99523842334747314 2.56530642509460449 -1.3681633472442627
1.31115663051605225 2.50829958915710449 -1.3681633472442627
-0.228027194738388062 1.0831294059753418 -1.5961906909942627
0.513061344623565674 2.05224514007568359 -1.0261225700378418
-0.741088509559631348 2.39428615570068359 -0.912108898162841797
-1.25414979457855225 1.6531975269317627 -1.5961906909942627
1.0261225700378418 5.64367437362670898 -0.570068061351776123
0.114013656973838806 1.48217713832855225 -1.0831294059753418
1.31115663051605225 5.41564702987670898 -0.798095285892486572
-0.399047613143920898 3.24938821792602539 -0.570068061351776123
-0.114013582468032837 1.88122475147247314 -1.14013612270355225
0.627074956893920898 3.19238138198852539 -1.0261225700378418
3.30639505386352539 4.84557867050170898 -1.0831294059753418
0.342040896415710449 3.70544266700744629 -0.969115734100341797
2.10925197601318359 2.10925197601318359 -1.5961906909942627
-0.570068061351776123 2.22326564788818359 -1.14013612270355225
0.855102181434631348 5.87170124053955078 -0.741088509559631348
2.62231326103210449 5.18761968612670898 -0.912108898162841797
1.93823158740997314 5.47265386581420898 -0.684081673622131348
-0.285034000873565674 3.02136087417602539 -1.14013612270355225
1.6531975269317627 3.64843583106994629 -1.5961906909942627
1.7102043628692627 3.30639505386352539 -1.19714295864105225
0.456054508686065674 2.28027248382568359 -1.4251701831817627
-1.19714295864105225 2.10925197601318359 -1.25414979457855225
-0.228027194738388062 1.82421791553497314 -1.5391838550567627
1.1971430778503418 4.78857183456420898 -0.912108898162841797
-0.171020388603210449 2.50829958915710449 -0.912108898162841797
0.171020478010177612 3.02136087417602539 -1.0261225700378418
1.2541499137878418 1.36816346645355225 -1.65319740772247314
-0.855102121829986572 1.7672111988067627 -1.25414979457855225
1.0261225700378418 5.92870807647705078 -1.0261225700378418
2.33727931976318359 5.01659917831420898 -0.912108898162841797
1.82421791553497314 1.99523842334747314 -1.4821770191192627
-1.14013612270355225 1.93823158740997314 -1.5961906909942627
2.90734744071960449 5.30163335800170898 -0.969115734100341797
1.42517030239105225 2.22326564788818359 -1.3681633472442627
0.114013656973838806 3.87646317481994629 -1.14013612270355225
0.171020478010177612 2.33727931976318359 -1.0261225700378418
-0.627074837684631348 1.5391838550567627 -1.65319740772247314
1.93823158740997314 2.73632693290710449 -1.5961906909942627
-0.456054449081420898 2.16625881195068359 -1.5391838550567627
1.42517030239105225 5.35864019393920898 -0.399047613143920898
1.7102043628692627 1.6531975269317627 -1.5961906909942627
-0.627074837684631348 1.99523842334747314 -1.31115663051605225
1.1971430778503418 1.99523842334747314 -1.5391838550567627
0.399047702550888062 4.16149711608886719 -0.741088509559631348
-0.912108898162841797 2.10925197601318359 -1.0261225700378418
0.285034090280532837 2.67932009696960449 -0.969115734100341797
1.31115663051605225 5.64367437362670898 -1.0831294059753418
-0.114013582468032837 1.31115663051605225 -1.4251701831817627
0.684081733226776123 4.16149711608886719 -0.855102121829986572
1.5961906909942627 5.64367437362670898 -0.570068061351776123
0.627074956893920898 3.02136087417602539 -1.3681633472442627
1.93823158740997314 3.13537454605102539 -1.3681633472442627
-0.798095285892486572 1.82421791553497314 -0.969115734100341797
1.2541499137878418 5.81469488143920898 -0.570068061351776123
3.19238138198852539 4.90258550643920898 -1.3681633472442627
2.85034060478210449 4.73156547546386719 -1.25414979457855225
0.741088569164276123 3.59142899513244629 -0.969115734100341797
0.456054508686065674 3.87646317481994629 -0.741088509559631348
-0.456054449081420898 1.99523842334747314 -1.0261225700378418
1.0831294059753418 3.02136087417602539 -0.912108898162841797
-0.342040807008743286 2.79333376884460449 -1.0261225700378418
2.45129275321960449 4.90258550643920898 -1.25414979457855225
0.399047702550888062 1.2541499137878418 -1.5961906909942627
1.5391838550567627 4.56054496765136719 -1.14013612270355225
0.171020478010177612 4.16149711608886719 -0.627074837684631348
-0.798095285892486572 1.82421791553497314 -1.5961906909942627
-0.285034000873565674 3.24938821792602539 -1.0261225700378418
-0.399047613143920898 1.42517030239105225 -1.65319740772247314
0.570068120956420898 2.62231326103210449 -0.969115734100341797
-1.0261225700378418 2.50829958915710449 -0.855102121829986572
0.456054508686065674 3.13537454605102539 -0.855102121829986572
0.684081733226776123 2.22326564788818359 -1.0831294059753418
1.82421791553497314 3.81945633888244629 -1.5391838550567627
-0.855102121829986572 1.42517030239105225 -1.4251701831817627
1.82421791553497314 5.24462652206420898 -0.855102121829986572
4.09781932830810547e-08 3.64843583106994629 -0.741088509559631348
0.513061344623565674 2.05224514007568359 -1.3681633472442627
-1.19714295864105225 1.88122475147247314 -1.3681633472442627
0.513061344623565674 4.38952445983886719 -0.969115734100341797
-0.399047613143920898 2.22326564788818359 -0.969115734100341797
0.342040896415710449 3.93347001075744629 -1.0831294059753418
0.114013656973838806 3.24938821792602539 -0.969115734100341797
-0.456054449081420898 1.82421791553497314 -1.3681633472442627
0.798095405101776123 6.21374225616455078 -1.25414979457855225
-0.114013582468032837 3.02136087417602539 -0.912108898162841797
-0.171020388603210449 3.59142899513244629 -1.14013612270355225
0.114013656973838806 2.10925197601318359 -1.0261225700378418
2.50829958915710449 5.07360601425170898 -1.0831294059753418
3.07836771011352539 4.84557867050170898 -1.14013612270355225
3.19238138198852539 5.07360601425170898 -0.855102121829986572
1.88122475147247314 2.73632693290710449 -1.25414979457855225
1.1401362419128418 2.73632693290710449 -1.25414979457855225
2.05224514007568359 5.35864019393920898 -0.855102121829986572
1.5961906909942627 5.41564702987670898 -0.684081673622131348
0.855102181434631348 3.24938821792602539 -1.0261225700378418
-0.684081673622131348 1.99523842334747314 -1.0831294059753418
1.1971430778503418 5.35864019393920898 -0.342040807008743286
-0.171020388603210449 1.31115663051605225 -1.65319740772247314
-0.285034000873565674 2.10925197601318359 -1.14013612270355225
0.228027284145355225 2.62231326103210449 -1.3681633472442627
1.82421791553497314 2.39428615570068359 -1.3681633472442627
2.45129275321960449 4.95959234237670898 -0.684081673622131348
1.93823158740997314 2.50829958915710449 -1.5961906909942627
2.67932009696960449 4.90258550643920898 -0.912108898162841797
-0.285034000873565674 1.48217713832855225 -1.3681633472442627
2.85034060478210449 4.73156547546386719 -1.4821770191192627
2.79333376884460449 5.13061285018920898 -1.0261225700378418
-0.684081673622131348 2.79333376884460449 -1.0261225700378418
0.0570068508386611938 1.6531975269317627 -1.5391838550567627
1.1401362419128418 2.10925197601318359 -1.3681633472442627
-0.969115734100341797 1.7672111988067627 -1.4821770191192627
1.0831294059753418 4.61755180358886719 -1.0831294059753418
4.09781932830810547e-08 3.70544266700744629 -1.0831294059753418
-0.684081673622131348 1.42517030239105225 -1.19714295864105225
0.342040896415710449 1.93823158740997314 -1.0831294059753418
-0.741088509559631348 1.6531975269317627 -1.4821770191192627
1.5961906909942627 2.10925197601318359 -1.4821770191192627
4.09781932830810547e-08 1.6531975269317627 -1.14013612270355225
0.570068120956420898 3.47741556167602539 -1.0261225700378418
2.16625881195068359 2.56530642509460449 -1.5391838550567627
1.31115663051605225 3.07836771011352539 -0.912108898162841797
0.570068120956420898 3.99047684669494629 -0.969115734100341797
1.42517030239105225 4.78857183456420898 -0.969115734100341797
-0.969115734100341797 1.5961906909942627 -1.3681633472442627
-0.912108898162841797 2.16625881195068359 -1.5391838550567627
-0.570068061351776123 2.56530642509460449 -0.912108898162841797
0.342040896415710449 2.22326564788818359 -0.969115734100341797
0.969115793704986572 2.73632693290710449 -0.969115734100341797
0.741088569164276123 1.1401362419128418 -1.71020424365997314
0.741088569164276123 2.73632693290710449 -0.969115734100341797
1.5961906909942627 5.52966070175170898 -0.399047613143920898
-0.0570067688822746277 2.22326564788818359 -1.3681633472442627
1.48217713832855225 2.62231326103210449 -1.25414979457855225
-0.912108898162841797 2.28027248382568359 -0.912108898162841797
1.1401362419128418 5.92870807647705078 -1.19714295864105225
-0.399047613143920898 1.2541499137878418 -1.76721107959747314
0.285034090280532837 2.05224514007568359 -1.4251701831817627
-0.228027194738388062 1.7102043628692627 -1.14013612270355225
0.171020478010177612 1.7672111988067627 -1.14013612270355225
1.42517030239105225 1.5961906909942627 -1.5391838550567627
-1.0831294059753418 1.6531975269317627 -1.0261225700378418
-0.912108898162841797 1.93823158740997314 -1.14013612270355225
0.798095405101776123 3.99047684669494629 -0.855102121829986572
1.93823158740997314 2.16625881195068359 -1.4821770191192627
1.7102043628692627 3.13537454605102539 -1.0261225700378418
1.2541499137878418 5.52966070175170898 -0.513061225414276123
-0.741088509559631348 2.22326564788818359 -0.798095285892486572
2.90734744071960449 4.56054496765136719 -1.19714295864105225
2.28027248382568359 4.84557867050170898 -1.14013612270355225
-0.342040807008743286 2.39428615570068359 -0.912108898162841797
0.969115793704986572 6.09972858428955078 -1.0831294059753418
0.969115793704986572 5.87170124053955078 -0.456054449081420898
-0.684081673622131348 1.82421791553497314 -1.3681633472442627
-0.570068061351776123 2.28027248382568359 -0.912108898162841797
0.513061344623565674 3.76244950294494629 -1.0261225700378418
1.7672111988067627 2.10925197601318359 -1.65319740772247314
1.99523842334747314 5.30163335800170898 -0.627074837684631348
1.0261225700378418 5.92870807647705078 -0.684081673622131348
0.855102181434631348 5.98571491241455078 -0.969115734100341797
1.1401362419128418 5.70068120956420898 -0.741088509559631348
1.88122475147247314 1.93823158740997314 -1.65319740772247314
-0.0570067688822746277 1.36816346645355225 -1.25414979457855225
0.684081733226776123 2.96435403823852539 -1.0261225700378418
-0.741088509559631348 2.56530642509460449 -1.0831294059753418
1.1401362419128418 2.85034060478210449 -0.969115734100341797
-0.798095285892486572 1.42517030239105225 -1.5961906909942627
