ply
format ascii 1.0
element vertex 256
comment vertices
property float x
property float y
property float z
end_header
-0.638084053993225098 1.4758986234664917 -0.718003809452056885
0.939336597919464111 3.62456345558166504 1.78972268104553223
2.02748274803161621 2.77874898910522461 -0.852862119674682617
0.596068501472473145 2.3718111515045166 0.476274549961090088
0.227541953325271606 3.02683401107788086 -0.747097373008728027
-0.671769022941589355 1.99200928211212158 0.848775684833526611
1.88863801956176758 1.51106393337249756 -0.717491865158081055
1.525421142578125 2.48482513427734375 1.22652339935302734
0.803519785404205322 3.42717242240905762 0.135462135076522827
0.526838302612304688 1.94264662265777588 -0.742180168628692627
1.63551795482635498 2.51964569091796875 0.116890490055084229
0.00563725829124450684 1.67621302604675293 0.106198966503143311
0.625741541385650635 3.10432648658752441 1.06672096252441406
1.40497958660125732 3.41218113899230957 -0.586615681648254395
-1.06032884120941162 1.92043662071228027 -0.111250936985015869
-0.307282805442810059 2.37801885604858398 -0.673405468463897705
1.17468047142028809 3.9279179573059082 1.06813907623291016
1.29818367958068848 2.47557377815246582 -0.624232649803161621
0.774461030960083008 2.82994747161865234 -0.272692769765853882
1.8354802131652832 2.15362644195556641 -0.776461541652679443
1.0692518949508667 2.3107147216796875 -0.070400536060333252
-0.911001801490783691 2.03278994560241699 -0.712831318378448486
-0.115453481674194336 1.8337409496307373 -0.474744677543640137
0.214193433523178101 3.2900233268737793 0.198864579200744629
1.00967311859130859 1.94013404846191406 0.387124687433242798
1.29959678649902344 2.44232916831970215 0.698065757751464844
1.83964717388153076 2.96481108665466309 -0.359048783779144287
0.7185860276222229 3.27686333656311035 -0.670904695987701416
-0.363529205322265625 1.86384701728820801 -1.00696337223052979
0.215567052364349365 2.46916842460632324 -0.526321470737457275
0.606138527393341064 2.90020203590393066 0.24359971284866333
1.30163562297821045 2.92629361152648926 -0.326483845710754395
0.092327803373336792 2.15324258804321289 -0.117638856172561646
-0.611041903495788574 1.73991477489471436 -0.178569197654724121
0.757776498794555664 2.35186171531677246 -0.739531040191650391
1.08026039600372314 2.86751794815063477 0.0734475106000900269
0.582600951194763184 2.79098081588745117 0.734798729419708252
1.99051785469055176 2.51927828788757324 -0.154957294464111328
0.0734491944313049316 2.12405800819396973 -0.762025296688079834
1.10837984085083008 2.50808811187744141 0.325993657112121582
1.4931870698928833 1.91114675998687744 -0.727653741836547852
0.950354814529418945 3.30167770385742188 1.53206241130828857
1.54470491409301758 2.43237662315368652 -0.295780003070831299
0.566012263298034668 2.7091057300567627 -0.738304436206817627
2.20322871208190918 2.00220894813537598 -0.842337846755981445
-0.304419964551925659 2.09160304069519043 -0.0933405458927154541
-1.01063084602355957 1.65942656993865967 -0.397799015045166016
1.02960562705993652 3.34115886688232422 -0.457157671451568604
2.0746912956237793 2.70109248161315918 -0.475056350231170654
-0.758869409561157227 2.03352689743041992 0.50334399938583374
1.17369759082794189 2.80362844467163086 -0.688589513301849365
-0.436139672994613647 1.67258107662200928 -0.477890163660049438
0.426550835371017456 2.80337381362915039 -0.310269773006439209
-0.847536325454711914 1.9944770336151123 -0.375095486640930176
-0.537812292575836182 1.58792531490325928 -1.10615801811218262
0.109086170792579651 1.75642383098602295 -0.236571550369262695
-0.342185258865356445 1.96304178237915039 -0.685156106948852539
1.44475293159484863 2.26931333541870117 0.00684636831283569336
-0.109352461993694305 2.14730191230773926 0.17113456130027771
1.64637434482574463 2.42632174491882324 -0.603360354900360107
0.48687666654586792 3.48791170120239258 0.121232360601425171
0.990502417087554932 3.06280136108398438 -0.665836334228515625
0.352595269680023193 2.57892918586730957 0.7764548659324646
0.544151663780212402 3.04700803756713867 -0.152429208159446716
0.000219523906707763672 2.8368830680847168 -0.654740512371063232
-0.67368549108505249 1.96315407752990723 0.0270051956176757812
2.08624982833862305 2.30913805961608887 -0.871001362800598145
0.944226503372192383 3.09331035614013672 -0.292965978384017944
0.556755900382995605 3.04316592216491699 0.512738943099975586
-0.14350341260433197 1.69555366039276123 -0.874855875968933105
-0.381831049919128418 1.87131094932556152 0.104895412921905518
1.24624311923980713 2.62598824501037598 -0.306577444076538086
1.40089571475982666 2.69388961791992188 0.0295119881629943848
1.54645156860351562 3.09717655181884766 -0.291468203067779541
1.88562190532684326 2.65458130836486816 0.20492205023765564
0.118837900459766388 1.91842687129974365 0.225081950426101685
0.840818047523498535 2.67047715187072754 -0.508831501007080078
1.15268433094024658 2.23908591270446777 -0.711849570274353027
-0.252008229494094849 1.80926191806793213 -0.226026192307472229
0.459144234657287598 2.70891451835632324 0.394310534000396729
-0.462997555732727051 1.66456544399261475 -0.83490598201751709
1.52495026588439941 2.70734143257141113 -0.348580211400985718
0.845593631267547607 3.15103530883789062 0.136055797338485718
-0.908346176147460938 1.77783644199371338 -0.816968381404876709
1.92098045349121094 2.52565550804138184 -0.851441621780395508
-0.256130754947662354 2.5975487232208252 -0.826796650886535645
-0.0497622191905975342 2.05880284309387207 -0.346953392028808594
0.839701414108276367 2.64109563827514648 -0.097956240177154541
0.322621464729309082 2.38367199897766113 -0.753642380237579346
0.592008352279663086 3.05562353134155273 -0.733810067176818848
0.874402225017547607 2.91358232498168945 0.243361115455627441
-0.722098469734191895 1.70245730876922607 -0.620354354381561279
1.17092621326446533 3.23784041404724121 -0.639664113521575928
1.92429018020629883 2.84512233734130859 -0.633920669555664062
1.19291973114013672 2.12295770645141602 0.0403941869735717773
1.04434812068939209 2.77196955680847168 -0.332310259342193604
1.00789439678192139 2.4857485294342041 -0.234179139137268066
-0.880884885787963867 1.44722437858581543 -0.74881136417388916
0.0239016115665435791 1.92250490188598633 -0.0795740187168121338
-0.378844738006591797 1.9845348596572876 -0.334541499614715576
1.5771331787109375 3.2541046142578125 -0.646783828735351562
1.84460866451263428 2.56739902496337891 -0.340569376945495605
0.706026315689086914 2.12284517288208008 -0.68927311897277832
1.46547186374664307 2.59679937362670898 0.619508981704711914
0.784190773963928223 3.08356046676635742 -0.467273056507110596
-0.792040109634399414 1.63287794589996338 -0.0723307132720947266
-0.169798314571380615 2.08088111877441406 -0.791170239448547363
1.91891849040985107 1.93992149829864502 -0.731705129146575928
0.565094172954559326 2.82302308082580566 -0.0893854051828384399
0.979544639587402344 3.02874612808227539 -0.0554035976529121399
0.536707043647766113 2.29445409774780273 -0.750323176383972168
0.765021979808807373 3.09664797782897949 -0.142573326826095581
1.04142355918884277 2.65427088737487793 0.134935677051544189
-0.169660866260528564 1.69442296028137207 -0.0333708524703979492
-0.0518300533294677734 2.04298019409179688 -0.569472849369049072
1.57415032386779785 2.11385154724121094 -0.690652430057525635
-0.19508063793182373 1.76357746124267578 -0.67063373327255249
1.25710129737854004 3.12546396255493164 -0.411296308040618896
1.45494842529296875 3.37183809280395508 -0.375675231218338013
2.19519996643066406 2.8322601318359375 -0.728785216808319092
0.457697898149490356 3.00015664100646973 0.125534236431121826
2.10082364082336426 2.59961915016174316 -0.936045527458190918
1.847983717918396 2.67357921600341797 -0.543430507183074951
0.948674678802490234 2.47294259071350098 0.172858059406280518
0.762987077236175537 2.88123393058776855 0.0721580386161804199
0.653749942779541016 2.79921698570251465 0.41332736611366272
1.12354528903961182 2.306427001953125 0.331525266170501709
-0.92673259973526001 1.78581130504608154 -0.173557817935943604
-0.666482448577880859 1.47300434112548828 -1.00698673725128174
1.2774428129196167 2.74894285202026367 -0.458408832550048828
1.72832012176513672 2.72649836540222168 -0.339528053998947144
1.83613920211791992 2.69563198089599609 -0.802291691303253174
-0.0799299627542495728 1.91212201118469238 0.0863251090049743652
1.9722369909286499 2.81759357452392578 -0.357653915882110596
0.774387955665588379 3.23306179046630859 0.295870423316955566
-0.362626373767852783 2.19343972206115723 -0.682859838008880615
-0.757398843765258789 1.36345291137695312 -0.876863718032836914
-0.129589870572090149 2.01865267753601074 -0.179294973611831665
1.55108773708343506 2.28047657012939453 -0.185120344161987305
-0.552255511283874512 1.76969444751739502 -0.655529141426086426
1.80806589126586914 2.96702980995178223 -0.559070467948913574
0.410293668508529663 2.80458545684814453 -0.728529095649719238
-0.495071351528167725 1.78514814376831055 -0.34666028618812561
-0.150426566600799561 1.87807846069335938 -0.805519819259643555
0.770075857639312744 3.06047487258911133 -0.697624802589416504
-0.132319718599319458 2.12105655670166016 -0.0292436480522155762
-0.750538051128387451 2.1076512336730957 -0.67527461051940918
-0.327962577342987061 1.83626580238342285 -0.557465493679046631
1.07720005512237549 3.13895559310913086 -0.405549347400665283
2.05042648315429688 1.90333807468414307 -0.847165822982788086
-0.048351772129535675 1.87150096893310547 -0.239672243595123291
1.20265102386474609 3.37750625610351562 -0.475823640823364258
0.704729914665222168 2.99157857894897461 -0.283903419971466064
0.917259931564331055 2.91946983337402344 -0.232034891843795776
-0.397953927516937256 1.67610561847686768 -0.99392998218536377
0.928195655345916748 2.78811240196228027 0.0727167576551437378
0.0739081501960754395 2.02901506423950195 -0.23272646963596344
2.07110214233398438 2.74603128433227539 -0.6391335129737854
1.62768065929412842 2.44944953918457031 -0.148473501205444336
-0.302117615938186646 1.81917333602905273 -0.851597070693969727
-0.286213994026184082 1.81608939170837402 -0.39850914478302002
0.970302402973175049 2.36576437950134277 0.311934709548950195
0.328502565622329712 2.2750999927520752 -0.630231618881225586
-0.184451580047607422 1.93979620933532715 -0.651730060577392578
0.34296765923500061 3.19072461128234863 0.200401678681373596
-0.276763439178466797 1.93272542953491211 -0.0953548401594161987
1.2100299596786499 2.38127970695495605 0.217988312244415283
-0.195716142654418945 1.96527266502380371 -0.313089311122894287
1.9094080924987793 2.42174625396728516 -0.732349097728729248
-0.420601189136505127 1.61128389835357666 -0.693359851837158203
0.0118998885154724121 2.02229428291320801 -0.864156067371368408
-0.187285974621772766 2.03179669380187988 -0.492115706205368042
0.76097559928894043 3.015045166015625 0.151912897825241089
1.39517700672149658 2.55264401435852051 -0.718175828456878662
0.49950215220451355 2.95196747779846191 -0.267022669315338135
1.95665454864501953 2.63353538513183594 -0.727237045764923096
-0.22800108790397644 2.00736021995544434 0.0306444577872753143
0.203782916069030762 2.28744935989379883 -0.774271905422210693
0.480303645133972168 2.93998408317565918 -0.718494594097137451
0.68082726001739502 2.84049677848815918 -0.390367090702056885
1.54427313804626465 3.44514632225036621 -0.54026031494140625
0.797823905944824219 2.75995826721191406 0.151486068964004517
-0.449339836835861206 1.84547185897827148 -0.731191337108612061
0.0641494020819664001 2.06141281127929688 -0.00649058818817138672
1.75590848922729492 2.5233454704284668 -0.233302474021911621
1.37682855129241943 2.52594852447509766 -0.514163374900817871
-0.299063801765441895 1.70215082168579102 -0.769358694553375244
1.28201949596405029 3.12783932685852051 -0.270829260349273682
-0.622251033782958984 1.70126724243164062 -0.518695712089538574
0.858349800109863281 2.75415849685668945 -0.182006433606147766
0.59451448917388916 2.99304771423339844 0.0892043709754943848
-0.297599613666534424 2.13864684104919434 -0.811521291732788086
0.0250268988311290741 1.74919438362121582 -0.124589323997497559
-0.91865229606628418 1.99677038192749023 -0.493368297815322876
-0.775419235229492188 1.37137103080749512 -0.703251063823699951
1.84950506687164307 2.54841971397399902 -0.717952251434326172
1.92920565605163574 2.87786269187927246 -0.500981628894805908
0.639664530754089355 2.89883780479431152 -0.209032207727432251
-0.85015791654586792 1.74039363861083984 -0.598221778869628906
2.07038593292236328 2.5426328182220459 -0.817452788352966309
1.21724808216094971 2.25189924240112305 0.0100345611572265625
0.024152219295501709 1.94695818424224854 -0.340731769800186157
-0.587636232376098633 1.62745249271392822 -0.803590536117553711
-0.435987263917922974 1.67177248001098633 -1.12179052829742432
1.86442279815673828 2.76032018661499023 -0.40802493691444397
-0.388228565454483032 1.86336612701416016 -0.283247292041778564
0.851234078407287598 3.37403392791748047 1.57989382743835449
-0.226556658744812012 1.91874039173126221 -0.903648257255554199
1.53096425533294678 2.33893752098083496 0.0743162035942077637
0.825134873390197754 2.98446154594421387 -0.165655165910720825
-0.0421225577592849731 1.73725306987762451 -0.231204956769943237
0.983516395092010498 3.02857160568237305 -0.181860923767089844
0.456010907888412476 2.80390262603759766 -0.433214187622070312
0.882972180843353271 3.11889529228210449 -0.69852149486541748
0.747177600860595703 2.99660849571228027 -0.0681587755680084229
0.056089743971824646 1.78055429458618164 0.153669118881225586
-0.0686728879809379578 1.88532078266143799 -0.578630149364471436
1.93814849853515625 2.67965316772460938 -0.872182011604309082
-0.289732038974761963 1.8390507698059082 -0.691518247127532959
-0.142101272940635681 1.97453737258911133 -0.0657467246055603027
1.11620223522186279 2.83113479614257812 -0.0368961989879608154
0.913937747478485107 2.62230062484741211 -0.192363858222961426
-0.235363394021987915 1.96759414672851562 -0.757827222347259521
1.63723886013031006 2.50409197807312012 -0.255333274602890015
-0.158403933048248291 2.05652332305908203 -0.639168441295623779
-0.0954798981547355652 1.77283620834350586 -0.0862512290477752686
1.26840841770172119 3.28398013114929199 -0.69021761417388916
-0.0571759194135665894 2.0973210334777832 0.0769056081771850586
0.88840174674987793 3.0933222770690918 -0.157460451126098633
0.793935060501098633 2.74875307083129883 -0.0842174366116523743
-0.106439158320426941 2.00356888771057129 -0.732189714908599854
1.24215078353881836 3.28336191177368164 -0.530931055545806885
-0.35312303900718689 1.89807307720184326 -0.780270934104919434
-0.287072658538818359 2.00342226028442383 -0.253289639949798584
-0.493404984474182129 1.58727002143859863 -1.00075340270996094
0.0230286717414855957 2.1199953556060791 -0.27663692831993103
-0.260722190141677856 1.89986073970794678 -0.467491567134857178
-0.372784852981567383 1.90131330490112305 -0.478825390338897705
0.0210416316986083984 1.90806150436401367 0.0305745601654052734
1.16984176635742188 2.4992680549621582 0.234376370906829834
-0.221745923161506653 2.07633399963378906 -0.203557208180427551
1.26321661472320557 3.02586960792541504 -0.351005643606185913
0.0130935609340667725 2.03860187530517578 -0.142566174268722534
2.06625270843505859 2.76365470886230469 -0.368517398834228516
-0.143882334232330322 1.86728596687316895 -0.289736807346343994
0.804122686386108398 2.87668824195861816 -0.180718362331390381
-0.344628632068634033 1.75221049785614014 -0.461061358451843262
-0.384751200675964355 1.76431119441986084 -0.765151143074035645
-0.105368740856647491 1.87055099010467529 -0.676846504211425781
0.870299696922302246 2.97856569290161133 -0.306182682514190674
1.98464393615722656 2.58270907402038574 -0.912880837917327881
2.0833892822265625 2.8569636344909668 -0.810475468635559082
1.99825096130371094 2.75731539726257324 -0.520085811614990234
2.05868673324584961 2.8697807788848877 -0.382384657859802246
-0.174739450216293335 1.92201173305511475 -0.55003201961517334
0.756173789501190186 2.26553678512573242 -0.796539545059204102
