ply
format ascii 1.0
element vertex 256
comment vertices
property float x
property float y
property float z
end_header
-1.2503349781036377 2.92051029205322266 -1.08967649936676025
3.52487301826477051 5.43978214263916016 -1.10936808586120605
-3.29230856895446777 5.15848588943481445 0.592300951480865479
1.7436758279800415 2.98364615440368652 -1.35084235668182373
1.39504003524780273 5.23891782760620117 -0.852893590927124023
-1.79913723468780518 4.48018980026245117 -0.261411905288696289
-0.0144953876733779907 4.20683956146240234 -1.48447465896606445
-2.30417156219482422 3.21154356002807617 0.0107029378414154053
2.36321306228637695 4.33034992218017578 -1.26775741577148438
-0.759182929992675781 3.83834981918334961 -0.486941695213317871
0.0301767438650131226 3.02251052856445312 -1.41611433029174805
-3.14448380470275879 4.44094705581665039 -0.330257594585418701
1.14362931251525879 4.0614323616027832 -1.53789734840393066
-1.49873995780944824 4.11921834945678711 -1.08841216564178467
-1.8343498706817627 2.54553914070129395 -0.463910162448883057
0.9034576416015625 3.14986014366149902 -1.42992591857910156
3.7304847240447998 4.63553953170776367 -1.21676468849182129
-2.04223394393920898 3.67124295234680176 -0.608510911464691162
0.70136106014251709 4.71589326858520508 -1.42971086502075195
2.25861978530883789 3.55662178993225098 -1.14180159568786621
-2.6077570915222168 3.9308934211730957 0.0946751236915588379
-0.755609691143035889 4.03830051422119141 -1.32987487316131592
-0.604832828044891357 3.31418538093566895 -1.22799968719482422
-2.8002772331237793 4.74305391311645508 0.30861508846282959
1.4480440616607666 4.61424350738525391 -1.11740720272064209
0.438553571701049805 3.60542821884155273 -1.47046971321105957
1.45294129848480225 3.5733788013458252 -1.24749767780303955
-1.29914045333862305 4.14537906646728516 -0.444542348384857178
-1.27140986919403076 3.61569976806640625 -0.813023090362548828
-3.50432515144348145 5.06443214416503906 0.047237098217010498
0.565811038017272949 4.14975738525390625 -1.46791470050811768
-1.8964240550994873 3.03818941116333008 -0.661690592765808105
-0.370497703552246094 4.17880678176879883 -0.993737399578094482
1.65304303169250488 4.11381101608276367 -1.42091608047485352
-0.0647817105054855347 3.62140369415283203 -1.42025661468505859
-0.711314201354980469 2.82761740684509277 -1.27875840663909912
-2.31646609306335449 3.24237895011901855 -0.498563110828399658
-0.937381327152252197 4.15272855758666992 -0.814060807228088379
-2.8480689525604248 4.06146144866943359 -0.328745484352111816
-2.22721982002258301 4.28381061553955078 -0.312389373779296875
0.941063404083251953 3.61945676803588867 -1.41317653656005859
-1.5706104040145874 4.39975786209106445 -0.724823892116546631
-2.01161050796508789 2.89416074752807617 -0.215253159403800964
1.11647772789001465 4.87675762176513672 -1.32316088676452637
3.48652529716491699 4.9657282829284668 -1.03132176399230957
1.87802362442016602 3.30386018753051758 -1.06733393669128418
-0.670536339282989502 3.82432126998901367 -0.947400391101837158
-1.38177716732025146 3.16367506980895996 -0.747288942337036133
-1.49900507926940918 2.26997137069702148 -0.522310554981231689
0.489710688591003418 3.19648170471191406 -1.59705197811126709
-0.973205685615539551 3.2524571418762207 -1.02288568019866943
-1.60661864280700684 3.85781073570251465 -0.500097453594207764
1.34586524963378906 3.11910724639892578 -1.32609093189239502
-1.67508196830749512 2.71648573875427246 -0.8122977614402771
-2.52774381637573242 3.63165020942687988 -0.185640692710876465
-0.0546661950647830963 4.62227201461791992 -1.5008620023727417
1.65777754783630371 3.31223869323730469 -1.58455502986907959
0.372346580028533936 4.47846126556396484 -1.34218168258666992
-2.09969758987426758 2.69275331497192383 -0.719734847545623779
-1.13033652305603027 3.98467922210693359 -1.23229670524597168
1.1369551420211792 4.45708274841308594 -1.29212379455566406
1.9198688268661499 3.63075733184814453 -1.29700541496276855
2.02288484573364258 4.49053955078125 -1.27154278755187988
2.06717586517333984 4.11343193054199219 -1.25353920459747314
-0.337463974952697754 3.95275759696960449 -1.26297438144683838
0.15883772075176239 3.88843226432800293 -1.38973903656005859
-1.21756327152252197 3.95500016212463379 -0.865597009658813477
-3.34565186500549316 4.76218938827514648 0.0783131122589111328
-2.92219376564025879 4.04602909088134766 0.0565089583396911621
1.23372030258178711 3.41718959808349609 -1.4341813325881958
-1.25408256053924561 4.32651472091674805 -1.06088018417358398
1.4440765380859375 4.3253788948059082 -1.29840373992919922
-2.33593964576721191 3.55591797828674316 -0.664322197437286377
-1.85284042358398438 2.40672850608825684 -0.74748915433883667
0.186250954866409302 3.45556402206420898 -1.32830607891082764
-2.31091856956481934 2.87667512893676758 -0.295506864786148071
-0.594229936599731445 4.30054378509521484 -1.30235910415649414
1.66876459121704102 3.79775738716125488 -1.35965096950531006
0.779645204544067383 4.42137908935546875 -1.42410099506378174
-1.39280986785888672 2.83140325546264648 -0.811828255653381348
1.88971126079559326 3.24237895011901855 -1.38589143753051758
-1.82133984565734863 4.03337907791137695 -0.606744229793548584
-1.05026650428771973 3.93353939056396484 -0.622859179973602295
2.15378189086914062 3.83100008964538574 -1.25637292861938477
-1.5232924222946167 4.09629678726196289 -0.800729811191558838
-1.16295003890991211 3.34916067123413086 -0.784588396549224854
-0.282513439655303955 3.57899594306945801 -1.24064338207244873
-0.954735636711120605 3.5358889102935791 -1.04131078720092773
0.273024588823318481 4.12613582611083984 -1.49430131912231445
-1.24644148349761963 4.22229671478271484 -0.790049135684967041
-0.593808293342590332 3.33378195762634277 -0.950555086135864258
-0.509842395782470703 3.01637458801269531 -1.26282620429992676
0.915864408016204834 4.14200019836425781 -1.40431118011474609
-0.808276057243347168 3.12848138809204102 -1.2144927978515625
-0.244289189577102661 3.01637458801269531 -1.41865861415863037
-1.6127476692199707 4.47459697723388672 -0.461267769336700439
-2.12919807434082031 2.65967512130737305 -0.290718317031860352
0.921874403953552246 3.87153935432434082 -1.51578068733215332
-0.840955853462219238 4.14680671691894531 -1.06763601303100586
-2.33916139602661133 3.47370386123657227 -0.0483698546886444092
-0.554362654685974121 3.69988894462585449 -1.15628492832183838
-0.251631885766983032 4.20656824111938477 -1.279815673828125
0.637212991714477539 3.90267515182495117 -1.54484176635742188
-1.09969997406005859 3.1117243766784668 -1.20860421657562256
-2.37813639640808105 3.47851467132568359 -0.405953377485275269
-1.55817711353302002 4.14975738525390625 -0.414721459150314331
-1.16616249084472656 2.95569992065429688 -0.80627739429473877
1.41512823104858398 4.14200019836425781 -1.51283907890319824
-0.652487516403198242 4.07413196563720703 -0.901939511299133301
-1.87045669555664062 2.76100015640258789 -0.633107304573059082
-0.109781056642532349 4.00816059112548828 -1.35443150997161865
-0.0485746189951896667 3.43407845497131348 -1.24182581901550293
-1.10892021656036377 3.77110719680786133 -0.996395230293273926
1.32634150981903076 3.64900016784667969 -1.45316088199615479
1.32248985767364502 3.91524291038513184 -1.44336044788360596
0.853341281414031982 2.99867105484008789 -1.2393726110458374
-2.1082460880279541 3.35329651832580566 -0.575563907623291016
0.761746525764465332 3.3442387580871582 -1.48150026798248291
0.351352155208587646 3.88621425628662109 -1.54228866100311279
-2.2189629077911377 2.75837874412536621 -0.49648168683052063
-1.29939305782318115 3.93934988975524902 -0.638638496398925781
3.43200922012329102 4.88235044479370117 -1.24507582187652588
1.49163937568664551 3.13980674743652344 -1.50831282138824463
0.0337077230215072632 3.69613194465637207 -1.22161686420440674
-1.8943631649017334 2.9061894416809082 -0.455012232065200806
0.954597890377044678 4.72951459884643555 -1.25595629215240479
1.2000734806060791 4.40581083297729492 -1.50539445877075195
0.222090661525726318 4.34440755844116211 -1.46714234352111816
0.471339106559753418 3.40907835960388184 -1.36453628540039062
1.60886192321777344 3.34894680976867676 -1.36869633197784424
-2.69315242767333984 3.91165041923522949 -0.269520550966262817
-1.5949324369430542 2.91924285888671875 -0.775864958763122559
-1.48354315757751465 4.28692197799682617 -0.94573289155960083
0.914175927639007568 4.58218955993652344 -1.48979043960571289
3.63061141967773438 4.85035037994384766 -1.14927387237548828
-1.67876517772674561 2.49997138977050781 -0.653656959533691406
-0.493322938680648804 4.10854339599609375 -1.3266603946685791
0.753318369388580322 3.69961738586425781 -1.48718714714050293
-1.02040684223175049 4.15673255920410156 -1.30476260185241699
-1.6338493824005127 3.6899714469909668 -0.630748987197875977
-1.04386472702026367 2.95561742782592773 -1.04604601860046387
-2.19245576858520508 4.4945683479309082 -0.308855712413787842
1.11206483840942383 3.19280672073364258 -1.42135214805603027
1.13589978218078613 3.34702062606811523 -1.25837135314941406
-0.107786208391189575 3.16191387176513672 -1.49936306476593018
1.39418888092041016 4.76962137222290039 -0.981938362121582031
-1.44211184978485107 3.98905372619628906 -0.489973843097686768
1.45844650268554688 3.77275729179382324 -1.34549820423126221
0.73064035177230835 4.03299999237060547 -1.41029787063598633
-1.16384589672088623 4.1833500862121582 -0.602794170379638672
-2.3663327693939209 3.3627326488494873 0.139152228832244873
-0.597428679466247559 3.49994254112243652 -1.11916983127593994
-1.18627786636352539 3.47758865356445312 -0.945086836814880371
-2.1876225471496582 3.02567505836486816 -0.368511348962783813
-1.61123085021972656 4.24913597106933594 -0.587484776973724365
-1.36650657653808594 3.36853933334350586 -0.736822605133056641
-1.66980814933776855 2.66521406173706055 -0.439609140157699585
-0.660235464572906494 4.06405401229858398 -1.11359727382659912
1.16073143482208252 4.25481081008911133 -1.2979438304901123
1.1569826602935791 3.80418944358825684 -1.48432826995849609
-0.240483850240707397 4.10854339599609375 -1.47216463088989258
-1.30704736709594727 4.14378643035888672 -1.14802312850952148
-2.25289344787597656 3.31775736808776855 -0.152233719825744629
1.44372749328613281 3.33261752128601074 -1.48837161064147949
1.73038268089294434 3.17643237113952637 -1.28550362586975098
-2.14505505561828613 3.30486440658569336 -0.386271685361862183
-1.93067371845245361 2.56672859191894531 -0.661574363708496094
-1.67913079261779785 4.3175969123840332 -0.363244861364364624
-1.3652726411819458 3.95989322662353516 -0.992601335048675537
-1.07722020149230957 4.09959697723388672 -1.08497202396392822
-1.25962471961975098 3.6433253288269043 -1.01481914520263672
0.388638168573379517 4.60865068435668945 -1.48471784591674805
-0.815531551837921143 4.22154331207275391 -1.32473278045654297
-1.11193978786468506 3.69259262084960938 -0.738339602947235107
2.34383893013000488 3.81081080436706543 -1.25380778312683105
0.949580550193786621 3.37172865867614746 -1.50242626667022705
3.49275350570678711 5.25597143173217773 -1.07255923748016357
1.9311598539352417 3.44256830215454102 -1.32152104377746582
-0.83775097131729126 3.7726752758026123 -1.02031075954437256
-1.13145148754119873 4.21927213668823242 -0.938249111175537109
0.580077052116394043 4.596893310546875 -1.35105931758880615
-1.56279277801513672 3.93353939056396484 -0.717177033424377441
-1.30802261829376221 4.14708280563354492 -0.948800086975097656
-0.96406322717666626 3.83100008964538574 -0.49400639533996582
-1.01588344573974609 3.87702488899230957 -0.795262992382049561
-2.06451153755187988 2.86824297904968262 -0.397355854511260986
-1.36482036113739014 3.03167104721069336 -1.00199604034423828
-1.87924456596374512 2.66648578643798828 -0.335994035005569458
-1.08169925212860107 4.07921409606933594 -0.732813239097595215
-1.41367805004119873 4.32651472091674805 -0.673790633678436279
1.61471676826477051 3.52732539176940918 -1.34248137474060059
1.27224111557006836 4.11362171173095703 -1.4072340726852417
1.71216225624084473 2.81729650497436523 -1.41101169586181641
1.30084502696990967 3.48300027847290039 -1.26774168014526367
-1.91053557395935059 3.21362161636352539 -0.655449569225311279
1.0704885721206665 4.3062434196472168 -1.44232034683227539
0.861335337162017822 4.57275772094726562 -1.32322096824645996
-1.2531048059463501 3.78400015830993652 -0.861672878265380859
-2.12322497367858887 2.86356401443481445 -0.746980190277099609
0.439545512199401855 4.34908246994018555 -1.43802285194396973
-2.01233577728271484 2.90094661712646484 -0.583168387413024902
-1.10496926307678223 3.08513188362121582 -0.904939174652099609
1.25940561294555664 4.52089309692382812 -1.1872483491897583
-2.08595061302185059 3.02729630470275879 -0.132718756794929504
-0.493449956178665161 3.92516088485717773 -1.19405233860015869
1.8192826509475708 3.87637901306152344 -1.34051501750946045
-1.63198328018188477 4.3330540657043457 -0.869682848453521729
1.62174797058105469 3.09229636192321777 -1.40959286689758301
-0.450882673263549805 3.47107839584350586 -1.20046615600585938
1.1185755729675293 4.62370395660400391 -1.26404571533203125
-0.976334750652313232 4.04164648056030273 -0.935774147510528564
0.107189029455184937 3.93440341949462891 -1.54355776309967041
-1.77269482612609863 2.36472845077514648 -0.605399250984191895
-2.52961039543151855 3.68502926826477051 -0.026083141565322876
-1.18838608264923096 4.0140538215637207 -0.537773489952087402
-1.75640022754669189 2.92599606513977051 -0.732941985130310059
1.01808857917785645 4.01224327087402344 -1.40057814121246338
-1.46808493137359619 3.0282139778137207 -0.778662025928497314
1.20559597015380859 3.57418537139892578 -1.37195825576782227
-1.41156446933746338 3.65551042556762695 -0.739422321319580078
-0.154990166425704956 4.28692197799682617 -1.48471784591674805
3.55228590965270996 5.04691791534423828 -1.15234494209289551
-0.36332055926322937 3.93543243408203125 -1.10300529003143311
-1.22184872627258301 3.81110715866088867 -0.691523194313049316
-1.7055816650390625 4.11202907562255859 -0.460256576538085938
1.43574798107147217 3.41575741767883301 -1.31622886657714844
0.396013140678405762 3.4306175708770752 -1.50201737880706787
0.141428768634796143 4.16870403289794922 -1.41853904724121094
1.33149254322052002 3.2607574462890625 -1.40659308433532715
-1.87606990337371826 2.69967508316040039 -0.489882171154022217
-1.57276475429534912 2.40740346908569336 -0.586974620819091797
0.502173185348510742 4.00794696807861328 -1.46942782402038574
-1.31761503219604492 4.06494712829589844 -0.817338347434997559
-0.985966682434082031 4.24991798400878906 -0.704550683498382568
-1.7879786491394043 2.54553914070129395 -0.763728618621826172
-2.31333088874816895 3.1140291690826416 -0.367577105760574341
-1.00802779197692871 3.29618525505065918 -1.16517376899719238
-1.29738044738769531 3.99240779876708984 -1.15585422515869141
0.0450223982334136963 3.64516067504882812 -1.52122330665588379
0.0752224847674369812 4.55502891540527344 -1.53626108169555664
-0.117296725511550903 3.7609715461730957 -1.40138888359069824
1.15498685836791992 3.93181085586547852 -1.40692520141601562
-1.08491754531860352 3.58586454391479492 -0.945306718349456787
-1.21118628978729248 4.05308246612548828 -0.369836717844009399
1.84729993343353271 3.2785639762878418 -1.20839059352874756
-1.82169139385223389 4.58183956146240234 -0.363723158836364746
-0.738397896289825439 3.2732386589050293 -1.18742275238037109
1.30902206897735596 4.35827207565307617 -1.3408883810043335
-2.00142002105712891 2.64372849464416504 -0.814302623271942139
0.170274451375007629 3.03994250297546387 -1.44856357574462891
-0.995917797088623047 3.89835000038146973 -0.937822222709655762
-2.25733327865600586 3.48405361175537109 -0.484196871519088745
1.98914432525634766 3.5668644905090332 -1.18831408023834229
-1.88606929779052734 2.89834976196289062 -0.680876255035400391
0.044236205518245697 4.28702878952026367 -1.38409888744354248
0.753037929534912109 4.00781106948852539 -1.54686164855957031
