ply
format ascii 1.0
element vertex 76
comment vertices
property float x
property float y
property float z
end_header
1.76854336261749268 4.45623064041137695 -1.0242537260055542
0.959758341312408447 3.05949687957763672 -1.05406808853149414
-0.273897945880889893 2.76942944526672363 -1.00475680828094482
-0.00293241348117589951 3.58664393424987793 -1.0701596736907959
-0.328923195600509644 1.76957821846008301 -1.03962039947509766
1.21958410739898682 4.45374965667724609 -0.915927767753601074
-0.852079451084136963 2.48553180694580078 -0.977169573307037354
-0.552768290042877197 1.31494438648223877 -0.941604018211364746
-0.529535174369812012 2.98563885688781738 -0.870888650417327881
0.0930471569299697876 2.17807579040527344 -1.07376933097839355
0.444449871778488159 4.11489152908325195 -0.96963578462600708
-0.210104465484619141 3.41942310333251953 -0.979803383350372314
-1.05242693424224854 1.61306416988372803 -0.96947556734085083
0.480266302824020386 2.74201202392578125 -1.07188212871551514
0.0867246761918067932 1.5959477424621582 -1.05405604839324951
-0.529170572757720947 1.42585718631744385 -1.05532360076904297
-0.936727941036224365 2.54186391830444336 -1.00120913982391357
-0.774496078491210938 1.72688746452331543 -1.01154887676239014
1.08970212936401367 2.91861200332641602 -1.0771489143371582
0.388974905014038086 4.08190059661865234 -0.889615535736083984
-0.157358646392822266 3.49763369560241699 -0.879339873790740967
0.318319916725158691 3.81673574447631836 -0.973640263080596924
-0.319868564605712891 1.47679245471954346 -1.07138824462890625
0.269413232803344727 4.02634286880493164 -0.93676292896270752
1.62750840187072754 4.48254823684692383 -0.936559975147247314
-0.493786811828613281 1.34460997581481934 -1.02352416515350342
-0.199768751859664917 2.11753082275390625 -1.06123661994934082
-0.451523900032043457 3.07221531867980957 -0.95868915319442749
-0.924269497394561768 2.52279281616210938 -0.893026232719421387
-0.501011490821838379 2.30866456031799316 -1.01699542999267578
0.279156714677810669 2.40526556968688965 -1.06359755992889404
0.158607929944992065 1.95784616470336914 -1.05813395977020264
1.16012966632843018 3.05636882781982422 -1.1014716625213623
0.647471487522125244 2.84438371658325195 -1.05151236057281494
-0.576535522937774658 1.31606566905975342 -0.981124222278594971
-0.742124617099761963 2.58606457710266113 -0.954089462757110596
-0.0932203233242034912 1.82701265811920166 -1.06798768043518066
-0.13348756730556488 3.45189285278320312 -1.00045859813690186
0.582718372344970703 2.64192819595336914 -1.09262192249298096
-0.393951535224914551 1.55328071117401123 -1.08861732482910156
-0.512551546096801758 1.28845107555389404 -0.989849627017974854
0.00210041552782058716 1.93661046028137207 -1.04354715347290039
-0.87588423490524292 2.48636078834533691 -0.954070389270782471
-1.03619050979614258 2.32005810737609863 -1.04422593116760254
0.403299391269683838 4.09004831314086914 -0.963637828826904297
-0.361264824867248535 3.13440752029418945 -0.950095057487487793
0.28242945671081543 2.31933856010437012 -1.07972538471221924
-0.904148578643798828 2.45955109596252441 -0.84474557638168335
-0.327717721462249756 2.3547966480255127 -1.0859144926071167
0.166645705699920654 2.47536635398864746 -1.06188881397247314
-0.0599550381302833557 3.58758831024169922 -0.970652163028717041
-0.517129957675933838 1.38900470733642578 -1.00576066970825195
-0.65240180492401123 2.82976722717285156 -0.910826981067657471
1.12417519092559814 3.05222892761230469 -1.0326988697052002
0.0102918744087219238 2.27519392967224121 -1.08875560760498047
0.817658901214599609 2.83808493614196777 -1.05818963050842285
1.50806510448455811 4.51742029190063477 -0.960699737071990967
-0.0349970459938049316 1.42980408668518066 -1.05229330062866211
-0.208690732717514038 3.36946511268615723 -0.926292598247528076
0.601616084575653076 2.50849270820617676 -1.08514571189880371
-0.9880637526512146 1.76570641994476318 -0.956601917743682861
1.00105452537536621 2.83442878723144531 -1.08824121952056885
-0.574552059173583984 1.32552790641784668 -0.968581616878509521
0.446335494518280029 2.52449202537536621 -1.08076131343841553
-0.985496103763580322 2.31751418113708496 -1.04366385936737061
-0.4308432936668396 1.41985535621643066 -1.05501711368560791
0.3929310142993927 4.07801675796508789 -0.945433914661407471
-0.069639354944229126 1.46760976314544678 -1.13350355625152588
0.095615193247795105 2.05276679992675781 -1.07934927940368652
0.383950263261795044 4.06115007400512695 -0.954163074493408203
-0.869190037250518799 2.4651486873626709 -1.00841641426086426
-0.722559034824371338 2.77772974967956543 -0.942286193370819092
1.66483235359191895 4.48181343078613281 -0.98935246467590332
-0.664471566677093506 1.41107273101806641 -0.955312788486480713
1.20776152610778809 4.44291496276855469 -0.963678896427154541
-0.554322004318237305 1.29356932640075684 -0.976844489574432373
