ply
format ascii 1.0
element vertex 256
comment vertices
property float x
property float y
property float z
end_header
0.133125782012939453 3.86064767837524414 -3.32814455032348633
3.86064767837524414 10.9163141250610352 -4.65940237045288086
0.266251564025878906 7.32191801071166992 -2.2631382942199707
1.9968867301940918 6.12378597259521484 -4.12689924240112305
-0.133125782012939453 6.39003753662109375 -3.72752189636230469
1.9968867301940918 6.2569117546081543 -1.9968867301940918
1.9968867301940918 1.19813203811645508 -0.931880474090576172
-1.46438360214233398 2.52938985824584961 -2.13001251220703125
0.931880474090576172 6.12378597259521484 -3.46127033233642578
1.06500625610351562 7.45504379272460938 -2.52938985824584961
-1.46438360214233398 6.2569117546081543 -3.72752189636230469
1.33125782012939453 7.05566644668579102 -3.06189298629760742
0.931880474090576172 1.19813203811645508 -1.59750938415527344
-0.532503128051757812 1.86376094818115234 -2.2631382942199707
-0.665628910064697266 3.32814455032348633 -1.46438360214233398
3.06189298629760742 6.65628910064697266 -3.46127033233642578
1.59750938415527344 6.12378597259521484 -1.59750938415527344
0.665628910064697266 5.72440862655639648 -2.79564142227172852
0 4.65940237045288086 -2.2631382942199707
0 7.58816957473754883 -2.92876720428466797
1.59750938415527344 3.72752189636230469 -1.86376094818115234
2.2631382942199707 8.91942787170410156 -3.72752189636230469
1.59750938415527344 6.39003753662109375 -4.12689924240112305
0.133125782012939453 2.39626407623291016 -2.2631382942199707
0.931880474090576172 4.12689924240112305 -3.19501876831054688
0.399377346038818359 7.85442113876342773 -4.12689924240112305
2.2631382942199707 3.59439611434936523 -2.79564142227172852
2.2631382942199707 5.05877971649169922 -1.19813203811645508
0.931880474090576172 8.520050048828125 -2.92876720428466797
1.73063516616821289 7.85442113876342773 -3.99377346038818359
-0.931880474090576172 3.19501876831054688 -1.73063516616821289
-0.532503128051757812 3.86064767837524414 -2.92876720428466797
0.399377346038818359 4.2600250244140625 -2.2631382942199707
-0.266251564025878906 2.79564142227172852 -2.39626407623291016
2.66251564025878906 6.39003753662109375 -3.72752189636230469
-0.931880474090576172 2.13001251220703125 -1.73063516616821289
-0.133125782012939453 7.98754692077636719 -5.19190549850463867
1.06500625610351562 6.92254066467285156 -1.59750938415527344
3.19501876831054688 5.72440862655639648 -1.73063516616821289
2.13001251220703125 4.79252815246582031 -3.32814455032348633
1.46438360214233398 1.9968867301940918 -2.13001251220703125
0.266251564025878906 5.32503128051757812 -2.92876720428466797
1.19813203811645508 4.79252815246582031 -3.32814455032348633
0.399377346038818359 4.65940237045288086 -3.86064767837524414
1.06500625610351562 5.99066019058227539 -2.92876720428466797
1.33125782012939453 8.25379848480224609 -2.92876720428466797
-0.133125782012939453 4.12689924240112305 -2.2631382942199707
2.13001251220703125 5.85753440856933594 -1.9968867301940918
0.665628910064697266 3.86064767837524414 -3.46127033233642578
0.133125782012939453 5.85753440856933594 -2.13001251220703125
1.46438360214233398 6.78941488265991211 -2.92876720428466797
-0.931880474090576172 2.66251564025878906 -1.9968867301940918
1.46438360214233398 1.9968867301940918 -1.46438360214233398
0.266251564025878906 3.72752189636230469 -2.2631382942199707
0.665628910064697266 8.38692474365234375 -3.32814455032348633
-1.19813203811645508 3.59439611434936523 -1.46438360214233398
-0.931880474090576172 2.2631382942199707 -2.2631382942199707
-0.399377346038818359 5.99066019058227539 -3.72752189636230469
1.9968867301940918 7.18879222869873047 -3.72752189636230469
-1.19813203811645508 3.06189298629760742 -2.2631382942199707
3.86064767837524414 9.05255317687988281 -3.46127033233642578
0.931880474090576172 7.32191801071166992 -2.92876720428466797
-0.133125782012939453 2.13001251220703125 -2.2631382942199707
0.133125782012939453 4.2600250244140625 -3.32814455032348633
-0.399377346038818359 3.86064767837524414 -2.39626407623291016
3.19501876831054688 5.72440862655639648 -1.33125782012939453
0.798754692077636719 6.78941488265991211 -0.931880474090576172
2.66251564025878906 5.32503128051757812 -2.79564142227172852
1.19813203811645508 4.52627658843994141 -2.92876720428466797
1.86376094818115234 2.92876720428466797 -2.2631382942199707
2.66251564025878906 5.45815706253051758 -1.73063516616821289
0 5.19190549850463867 -3.06189298629760742
0.532503128051757812 1.73063516616821289 -1.73063516616821289
0.399377346038818359 6.12378597259521484 -2.2631382942199707
0.532503128051757812 3.32814455032348633 -3.46127033233642578
1.06500625610351562 2.92876720428466797 -2.79564142227172852
1.59750938415527344 4.92565393447875977 -3.32814455032348633
-0.532503128051757812 2.39626407623291016 -1.73063516616821289
0.931880474090576172 4.92565393447875977 -2.79564142227172852
0.399377346038818359 4.79252815246582031 -2.2631382942199707
-0.798754692077636719 8.38692474365234375 -4.92565393447875977
1.86376094818115234 7.58816957473754883 -3.46127033233642578
0.931880474090576172 4.65940237045288086 -3.32814455032348633
-0.665628910064697266 5.45815706253051758 -2.79564142227172852
2.2631382942199707 5.99066019058227539 -1.73063516616821289
-0.266251564025878906 4.65940237045288086 -3.32814455032348633
1.46438360214233398 6.12378597259521484 -3.46127033233642578
-0.532503128051757812 2.79564142227172852 -1.9968867301940918
1.9968867301940918 3.86064767837524414 -2.66251564025878906
1.33125782012939453 4.39315080642700195 -3.32814455032348633
-0.266251564025878906 1.73063516616821289 -2.2631382942199707
0.532503128051757812 3.99377346038818359 -2.2631382942199707
-0.798754692077636719 3.06189298629760742 -1.59750938415527344
-1.19813203811645508 2.2631382942199707 -2.2631382942199707
1.06500625610351562 8.25379848480224609 -2.39626407623291016
0.133125782012939453 3.32814455032348633 -2.39626407623291016
1.33125782012939453 6.12378597259521484 -1.46438360214233398
-1.06500625610351562 8.38692474365234375 -5.59128284454345703
-0.133125782012939453 3.86064767837524414 -2.39626407623291016
0.665628910064697266 5.05877971649169922 -2.2631382942199707
3.32814455032348633 5.45815706253051758 -1.73063516616821289
0.266251564025878906 6.2569117546081543 -2.92876720428466797
2.13001251220703125 2.13001251220703125 -0.931880474090576172
-0.532503128051757812 3.46127033233642578 -2.39626407623291016
0.931880474090576172 7.72129535675048828 -1.9968867301940918
2.66251564025878906 6.5231633186340332 -2.13001251220703125
1.9968867301940918 6.78941488265991211 -1.9968867301940918
-0.266251564025878906 4.92565393447875977 -3.06189298629760742
1.59750938415527344 6.12378597259521484 -4.12689924240112305
1.73063516616821289 6.5231633186340332 -3.72752189636230469
0.399377346038818359 4.12689924240112305 -3.32814455032348633
-1.19813203811645508 3.32814455032348633 -2.52938985824584961
-0.266251564025878906 3.06189298629760742 -2.79564142227172852
1.19813203811645508 6.65628910064697266 -2.13001251220703125
-0.133125782012939453 3.72752189636230469 -2.13001251220703125
0.133125782012939453 4.92565393447875977 -2.2631382942199707
1.19813203811645508 1.33125782012939453 -1.59750938415527344
-0.931880474090576172 2.39626407623291016 -1.86376094818115234
1.06500625610351562 6.5231633186340332 -1.06500625610351562
2.39626407623291016 5.59128284454345703 -1.59750938415527344
1.86376094818115234 1.9968867301940918 -0.798754692077636719
-1.19813203811645508 3.19501876831054688 -2.79564142227172852
2.92876720428466797 5.99066019058227539 -0.931880474090576172
1.46438360214233398 4.79252815246582031 -3.86064767837524414
0.133125782012939453 5.72440862655639648 -3.06189298629760742
0.133125782012939453 4.2600250244140625 -2.2631382942199707
-0.665628910064697266 2.79564142227172852 -2.92876720428466797
1.9968867301940918 5.19190549850463867 -4.12689924240112305
-0.399377346038818359 4.65940237045288086 -4.12689924240112305
0.798754692077636719 7.85442113876342773 -2.92876720428466797
1.73063516616821289 1.59750938415527344 -1.59750938415527344
-0.665628910064697266 3.32814455032348633 -1.9968867301940918
1.19813203811645508 3.86064767837524414 -3.46127033233642578
0.399377346038818359 5.45815706253051758 -1.33125782012939453
-0.931880474090576172 3.32814455032348633 -1.73063516616821289
0.266251564025878906 4.52627658843994141 -2.2631382942199707
1.33125782012939453 5.59128284454345703 -1.06500625610351562
-0.133125782012939453 1.9968867301940918 -1.9968867301940918
0.665628910064697266 6.12378597259521484 -2.13001251220703125
1.59750938415527344 6.92254066467285156 -1.86376094818115234
0.665628910064697266 4.92565393447875977 -3.86064767837524414
1.9968867301940918 5.72440862655639648 -3.86064767837524414
-0.798754692077636719 2.52938985824584961 -1.59750938415527344
1.19813203811645508 8.38692474365234375 -2.39626407623291016
3.19501876831054688 6.78941488265991211 -3.32814455032348633
2.79564142227172852 5.99066019058227539 -2.52938985824584961
0.798754692077636719 5.45815706253051758 -2.92876720428466797
0.399377346038818359 5.72440862655639648 -2.66251564025878906
-0.399377346038818359 3.32814455032348633 -2.2631382942199707
1.06500625610351562 6.2569117546081543 -3.46127033233642578
-0.266251564025878906 4.65940237045288086 -2.92876720428466797
2.39626407623291016 4.92565393447875977 -1.19813203811645508
0.399377346038818359 2.52938985824584961 -2.2631382942199707
1.46438360214233398 6.5231633186340332 -3.06189298629760742
0.133125782012939453 7.32191801071166992 -2.52938985824584961
-0.798754692077636719 3.06189298629760742 -2.2631382942199707
-0.266251564025878906 5.85753440856933594 -3.59439611434936523
-0.399377346038818359 1.9968867301940918 -2.2631382942199707
0.532503128051757812 5.19190549850463867 -2.92876720428466797
-1.06500625610351562 3.72752189636230469 -2.13001251220703125
0.399377346038818359 5.05877971649169922 -2.79564142227172852
0.665628910064697266 4.12689924240112305 -2.39626407623291016
1.86376094818115234 6.92254066467285156 -4.65940237045288086
-0.931880474090576172 2.66251564025878906 -1.9968867301940918
1.86376094818115234 5.32503128051757812 -0.931880474090576172
0 7.45504379272460938 -4.52627658843994141
0.532503128051757812 3.99377346038818359 -3.32814455032348633
-1.19813203811645508 3.19501876831054688 -1.9968867301940918
0.532503128051757812 5.72440862655639648 -2.2631382942199707
-0.399377346038818359 3.46127033233642578 -2.2631382942199707
0.266251564025878906 5.19190549850463867 -1.73063516616821289
0.133125782012939453 5.19190549850463867 -2.92876720428466797
-0.399377346038818359 3.06189298629760742 -2.66251564025878906
0.798754692077636719 7.45504379272460938 -2.52938985824584961
-0.133125782012939453 4.92565393447875977 -2.79564142227172852
-0.133125782012939453 6.12378597259521484 -3.72752189636230469
0.133125782012939453 3.99377346038818359 -2.2631382942199707
2.52938985824584961 6.2569117546081543 -2.39626407623291016
3.06189298629760742 5.45815706253051758 -1.73063516616821289
3.19501876831054688 5.05877971649169922 -0.931880474090576172
1.86376094818115234 5.19190549850463867 -3.72752189636230469
1.19813203811645508 5.85753440856933594 -3.72752189636230469
1.9968867301940918 5.99066019058227539 -1.46438360214233398
1.59750938415527344 6.65628910064697266 -1.9968867301940918
0.931880474090576172 5.19190549850463867 -2.2631382942199707
-0.665628910064697266 3.32814455032348633 -1.73063516616821289
0.532503128051757812 8.520050048828125 -2.92876720428466797
-0.133125782012939453 1.9968867301940918 -2.2631382942199707
-0.266251564025878906 3.32814455032348633 -2.39626407623291016
0.266251564025878906 4.52627658843994141 -3.32814455032348633
1.86376094818115234 3.06189298629760742 -1.9968867301940918
2.39626407623291016 6.2569117546081543 -1.9968867301940918
1.9968867301940918 3.19501876831054688 -2.2631382942199707
2.66251564025878906 6.12378597259521484 -2.13001251220703125
-0.266251564025878906 2.79564142227172852 -1.9968867301940918
2.79564142227172852 6.65628910064697266 -3.32814455032348633
2.79564142227172852 5.72440862655639648 -1.06500625610351562
-0.665628910064697266 4.65940237045288086 -2.92876720428466797
0 2.2631382942199707 -2.13001251220703125
1.19813203811645508 3.99377346038818359 -3.32814455032348633
-0.931880474090576172 3.06189298629760742 -2.13001251220703125
1.06500625610351562 7.18879222869873047 -2.92876720428466797
0 6.2569117546081543 -3.59439611434936523
-0.665628910064697266 1.9968867301940918 -1.86376094818115234
0.266251564025878906 3.86064767837524414 -2.39626407623291016
-0.798754692077636719 2.2631382942199707 -2.13001251220703125
1.59750938415527344 2.13001251220703125 -1.46438360214233398
0 4.12689924240112305 -3.06189298629760742
0.532503128051757812 5.32503128051757812 -2.92876720428466797
2.13001251220703125 3.86064767837524414 -2.79564142227172852
1.33125782012939453 6.2569117546081543 -3.46127033233642578
0.532503128051757812 5.19190549850463867 -2.2631382942199707
1.46438360214233398 6.65628910064697266 -2.2631382942199707
-0.931880474090576172 2.79564142227172852 -1.9968867301940918
-0.931880474090576172 4.12689924240112305 -2.79564142227172852
-0.532503128051757812 3.86064767837524414 -2.13001251220703125
0.266251564025878906 4.12689924240112305 -2.2631382942199707
0.931880474090576172 5.19190549850463867 -3.46127033233642578
0.798754692077636719 1.19813203811645508 -1.73063516616821289
0.798754692077636719 5.19190549850463867 -2.92876720428466797
1.59750938415527344 8.12067222595214844 -2.2631382942199707
0 3.46127033233642578 -2.66251564025878906
1.46438360214233398 4.52627658843994141 -2.52938985824584961
-0.931880474090576172 2.92876720428466797 -1.59750938415527344
1.19813203811645508 6.5231633186340332 -1.19813203811645508
-0.399377346038818359 1.86376094818115234 -2.39626407623291016
0.266251564025878906 3.99377346038818359 -3.32814455032348633
-0.266251564025878906 3.59439611434936523 -2.39626407623291016
0.133125782012939453 3.72752189636230469 -2.39626407623291016
1.46438360214233398 2.2631382942199707 -2.13001251220703125
-1.06500625610351562 2.92876720428466797 -2.2631382942199707
-0.931880474090576172 2.52938985824584961 -1.73063516616821289
0.798754692077636719 5.19190549850463867 -2.13001251220703125
1.9968867301940918 2.13001251220703125 -1.46438360214233398
1.73063516616821289 6.92254066467285156 -4.2600250244140625
1.19813203811645508 8.12067222595214844 -3.06189298629760742
-0.798754692077636719 3.46127033233642578 -1.46438360214233398
2.92876720428466797 5.85753440856933594 -2.52938985824584961
2.2631382942199707 4.79252815246582031 -1.19813203811645508
-0.266251564025878906 3.59439611434936523 -2.13001251220703125
0.931880474090576172 6.65628910064697266 -1.06500625610351562
0.931880474090576172 9.05255317687988281 -3.59439611434936523
-0.665628910064697266 2.52938985824584961 -1.9968867301940918
-0.532503128051757812 4.12689924240112305 -2.13001251220703125
0.532503128051757812 5.59128284454345703 -2.92876720428466797
1.73063516616821289 2.13001251220703125 -0.931880474090576172
1.9968867301940918 6.65628910064697266 -1.86376094818115234
1.06500625610351562 7.85442113876342773 -2.66251564025878906
0.931880474090576172 6.65628910064697266 -0.931880474090576172
1.19813203811645508 6.92254066467285156 -1.9968867301940918
1.86376094818115234 1.9968867301940918 -0.931880474090576172
0 2.66251564025878906 -1.86376094818115234
0.665628910064697266 5.59128284454345703 -2.92876720428466797
-0.798754692077636719 3.19501876831054688 -1.73063516616821289
1.19813203811645508 5.32503128051757812 -2.92876720428466797
-0.798754692077636719 2.66251564025878906 -2.2631382942199707
