ply
format ascii 1.0
element vertex 256
comment vertices
property float x
property float y
property float z
end_header
0.578448474407196045 2.37163853645324707 -1.15689682960510254
2.25594902038574219 2.54517316818237305 -1.44612109661102295
-0.462758719921112061 1.15689694881439209 -0.925517439842224121
2.54517316818237305 4.22267341613769531 -1.04120719432830811
-2.66086268424987793 0.809827864170074463 -1.15689682960510254
-0.57844841480255127 4.97465658187866211 -1.50396585464477539
0.462758779525756836 1.73534536361694336 -1.15689682960510254
0.115689724683761597 3.29715609550476074 -0.809827744960784912
2.66086292266845703 2.42948341369628906 -1.38827621936798096
-0.520603537559509277 1.27258658409118652 -0.809827744960784912
1.21474170684814453 3.18146634101867676 -0.809827744960784912
-0.867672622203826904 3.41284584999084473 -0.867672622203826904
3.35500097274780273 5.20603609085083008 -0.751982927322387695
1.38827633857727051 4.39620828628540039 -0.925517439842224121
-2.08241438865661621 1.79319024085998535 -0.983362317085266113
-0.404913872480392456 2.31379389762878418 -0.925517439842224121
2.02456951141357422 5.26388072967529297 -1.21474170684814453
1.50396597385406494 1.38827633857727051 -1.33043134212493896
2.54517316818237305 4.04913902282714844 -1.09905195236206055
2.02456951141357422 3.23931121826171875 -1.27258646488189697
0.636293292045593262 2.37163853645324707 -0.694138109683990479
1.96672475337982178 2.77655243873596191 -0.867672622203826904
1.44612109661102295 5.26388072967529297 -1.09905195236206055
-0.694138109683990479 1.61965560913085938 -0.983362317085266113
0.636293292045593262 4.10698413848876953 -0.751982927322387695
0.404913961887359619 0.86767268180847168 -1.09905195236206055
-1.44612109661102295 0.86767268180847168 -1.21474170684814453
3.29715609550476074 4.56974267959594727 -1.15689682960510254
0.173534572124481201 1.79319024085998535 -0.751982927322387695
0.404913961887359619 2.1402592658996582 -0.983362317085266113
-1.27258646488189697 1.79319024085998535 -0.867672622203826904
0.578448474407196045 0.925517559051513672 -1.21474170684814453
3.47069072723388672 4.51189804077148438 -1.38827621936798096
2.77655243873596191 4.91681194305419922 -1.04120719432830811
-1.85103499889373779 1.50396597385406494 -1.04120719432830811
1.90887987613677979 4.85896682739257812 -0.867672622203826904
0.115689724683761597 2.71870779991149902 -0.751982927322387695
0.809827864170074463 3.47069072723388672 -1.15689682960510254
4.22267341613769531 3.75991487503051758 -1.15689682960510254
0.694138169288635254 6.24724292755126953 -0.867672622203826904
0.578448474407196045 3.18146634101867676 -0.867672622203826904
-0.867672622203826904 2.42948341369628906 -0.809827744960784912
3.75991487503051758 3.35500097274780273 -1.21474170684814453
-1.61965560913085938 2.1981041431427002 -1.15689682960510254
-0.57844841480255127 1.73534536361694336 -0.983362317085266113
1.73534536361694336 3.64422512054443359 -1.21474170684814453
-0.173534482717514038 1.96672475337982178 -1.27258646488189697
2.71870779991149902 2.31379389762878418 -1.21474170684814453
0.636293292045593262 4.39620828628540039 -0.867672622203826904
0.28922426700592041 2.71870779991149902 -1.15689682960510254
-1.15689682960510254 0.462758779525756836 -1.09905195236206055
-0.404913872480392456 1.73534536361694336 -0.867672622203826904
1.04120719432830811 2.54517316818237305 -0.751982927322387695
3.35500097274780273 3.5863802433013916 -1.21474170684814453
-0.462758719921112061 1.27258658409118652 -1.15689682960510254
3.12362170219421387 5.09034633636474609 -0.809827744960784912
0.28922426700592041 3.23931121826171875 -1.04120719432830811
2.02456951141357422 5.032501220703125 -1.09905195236206055
1.85103499889373779 4.80112218856811523 -1.04120719432830811
-1.38827621936798096 2.02456951141357422 -1.09905195236206055
0.115689724683761597 2.08241438865661621 -0.751982927322387695
0.347069114446640015 3.41284584999084473 -0.925517439842224121
1.38827633857727051 1.61965560913085938 -1.33043134212493896
2.95008707046508789 3.23931121826171875 -0.925517439842224121
0.636293292045593262 5.09034633636474609 -1.15689682960510254
-0.867672622203826904 1.33043146133422852 -1.15689682960510254
2.8922421932220459 3.35500097274780273 -1.21474170684814453
-0.520603537559509277 2.1402592658996582 -1.04120719432830811
0.520603656768798828 2.54517316818237305 -1.33043134212493896
0.636293292045593262 4.85896682739257812 -0.925517439842224121
1.0990520715713501 6.13155364990234375 -0.983362317085266113
-0.347069025039672852 0.925517559051513672 -0.983362317085266113
0.347069114446640015 2.71870779991149902 -0.751982927322387695
-0.289224177598953247 2.77655243873596191 -0.867672622203826904
1.96672475337982178 1.96672475337982178 -1.33043134212493896
-0.347069025039672852 0.347069114446640015 -1.21474170684814453
1.79319024085998535 4.22267341613769531 -0.809827744960784912
4.45405292510986328 4.04913902282714844 -1.09905195236206055
0.520603656768798828 2.02456951141357422 -0.751982927322387695
-0.231379330158233643 1.56181085109710693 -0.925517439842224121
2.1981041431427002 5.032501220703125 -1.33043134212493896
0.751982986927032471 3.75991487503051758 -0.809827744960784912
-0.809827744960784912 1.79319024085998535 -1.04120719432830811
1.67750048637390137 2.66086292266845703 -1.21474170684814453
2.31379389762878418 5.09034633636474609 -0.925517439842224121
0.86767268180847168 2.8922421932220459 -0.809827744960784912
2.37163853645324707 5.09034633636474609 -1.33043134212493896
-0.751982927322387695 2.42948341369628906 -0.925517439842224121
-0.694138109683990479 1.38827633857727051 -0.751982927322387695
1.96672475337982178 2.48732829093933105 -1.27258646488189697
-0.751982927322387695 1.38827633857727051 -1.04120719432830811
0.578448474407196045 3.41284584999084473 -0.925517439842224121
-1.27258646488189697 1.27258658409118652 -0.983362317085266113
3.23931121826171875 4.80112218856811523 -1.15689682960510254
1.61965560913085938 3.5863802433013916 -1.15689682960510254
1.27258658409118652 3.75991487503051758 -1.27258646488189697
0.115689724683761597 2.31379389762878418 -1.15689682960510254
0.751982986927032471 1.73534536361694336 -0.694138109683990479
-0.983362317085266113 2.25594902038574219 -0.809827744960784912
0.231379419565200806 3.00793194770812988 -0.809827744960784912
3.00793194770812988 2.48732829093933105 -1.21474170684814453
1.50396597385406494 4.68543243408203125 -1.09905195236206055
-0.115689650177955627 2.95008707046508789 -1.21474170684814453
-1.04120719432830811 1.96672475337982178 -1.09905195236206055
-0.0578448027372360229 1.79319024085998535 -0.751982927322387695
-1.04120719432830811 1.73534536361694336 -1.15689682960510254
2.48732829093933105 3.06577682495117188 -1.21474170684814453
1.96672475337982178 1.67750048637390137 -1.38827621936798096
0.115689724683761597 2.37163853645324707 -0.751982927322387695
4.09781932830810547e-08 0.520603656768798828 -1.04120719432830811
2.60301804542541504 4.62758731842041016 -1.21474170684814453
1.27258658409118652 1.04120719432830811 -1.27258646488189697
-0.520603537559509277 2.1402592658996582 -0.867672622203826904
0.404913961887359619 2.8922421932220459 -1.21474170684814453
1.33043146133422852 4.45405292510986328 -0.867672622203826904
0.520603656768798828 4.28051853179931641 -1.27258646488189697
-0.115689650177955627 1.61965560913085938 -1.15689682960510254
1.85103499889373779 5.20603609085083008 -1.04120719432830811
1.33043146133422852 3.23931121826171875 -1.04120719432830811
-0.347069025039672852 2.48732829093933105 -1.09905195236206055
-1.33043134212493896 0.462758779525756836 -1.15689682960510254
1.44612109661102295 1.73534536361694336 -1.38827621936798096
2.1981041431427002 5.20603609085083008 -0.983362317085266113
1.61965560913085938 3.70206999778747559 -1.15689682960510254
-0.462758719921112061 2.08241438865661621 -1.15689682960510254
0.751982986927032471 3.12362170219421387 -1.09905195236206055
1.85103499889373779 2.37163853645324707 -1.38827621936798096
-0.462758719921112061 2.02456951141357422 -0.983362317085266113
1.85103499889373779 3.29715609550476074 -1.09905195236206055
1.67750048637390137 4.45405292510986328 -0.694138109683990479
-0.347069025039672852 1.27258658409118652 -0.867672622203826904
0.404913961887359619 3.70206999778747559 -0.751982927322387695
0.0578448846936225891 4.39620828628540039 -1.15689682960510254
0.751982986927032471 2.48732829093933105 -0.867672622203826904
-0.925517439842224121 1.90887987613677979 -0.925517439842224121
-0.520603537559509277 1.27258658409118652 -1.09905195236206055
-0.115689650177955627 2.77655243873596191 -0.694138109683990479
0.347069114446640015 6.30508804321289062 -0.867672622203826904
0.0578448846936225891 4.39620828628540039 -0.694138109683990479
-1.09905195236206055 1.73534536361694336 -0.925517439842224121
1.0990520715713501 2.8922421932220459 -0.925517439842224121
0.983362376689910889 3.99129414558410645 -0.809827744960784912
0.173534572124481201 3.12362170219421387 -0.751982927322387695
-0.694138109683990479 2.37163853645324707 -0.809827744960784912
0.173534572124481201 0.694138169288635254 -1.04120719432830811
0.115689724683761597 1.50396597385406494 -0.925517439842224121
0.86767268180847168 3.00793194770812988 -1.21474170684814453
1.04120719432830811 6.13155364990234375 -0.867672622203826904
2.31379389762878418 2.77655243873596191 -1.15689682960510254
2.77655243873596191 4.85896682739257812 -1.27258646488189697
0.636293292045593262 2.60301804542541504 -0.751982927322387695
3.87560462951660156 2.71870779991149902 -1.09905195236206055
3.41284584999084473 5.09034633636474609 -0.809827744960784912
1.27258658409118652 1.50396597385406494 -1.21474170684814453
3.12362170219421387 3.81775975227355957 -1.21474170684814453
3.12362170219421387 3.47069072723388672 -1.04120719432830811
2.08241438865661621 2.95008707046508789 -1.21474170684814453
-0.520603537559509277 1.33043146133422852 -0.925517439842224121
-0.520603537559509277 2.66086292266845703 -0.809827744960784912
-0.751982927322387695 2.1402592658996582 -0.983362317085266113
0.86767268180847168 3.18146634101867676 -0.809827744960784912
0.809827864170074463 4.39620828628540039 -0.694138109683990479
0.28922426700592041 3.64422512054443359 -0.867672622203826904
-0.289224177598953247 2.54517316818237305 -0.925517439842224121
0.28922426700592041 2.1402592658996582 -0.694138109683990479
1.0990520715713501 2.31379389762878418 -1.09905195236206055
0.404913961887359619 3.29715609550476074 -0.867672622203826904
1.73534536361694336 4.51189804077148438 -0.809827744960784912
0.86767268180847168 5.7844843864440918 -1.15689682960510254
0.694138169288635254 2.1981041431427002 -0.751982927322387695
2.25594902038574219 2.77655243873596191 -1.09905195236206055
0.983362376689910889 2.83439731597900391 -1.21474170684814453
-0.404913872480392456 2.42948341369628906 -0.867672622203826904
5.032501220703125 4.85896682739257812 -0.867672622203826904
-1.85103499889373779 1.61965560913085938 -1.04120719432830811
0.809827864170074463 2.42948341369628906 -0.751982927322387695
1.04120719432830811 3.41284584999084473 -1.09905195236206055
-0.520603537559509277 1.79319024085998535 -0.983362317085266113
-1.04120719432830811 2.08241438865661621 -0.983362317085266113
4.09781932830810547e-08 1.73534536361694336 -0.867672622203826904
1.96672475337982178 4.04913902282714844 -1.21474170684814453
1.67750048637390137 4.28051853179931641 -0.983362317085266113
1.73534536361694336 4.39620828628540039 -0.983362317085266113
-0.694138109683990479 2.48732829093933105 -0.867672622203826904
-1.33043134212493896 1.90887987613677979 -1.09905195236206055
0.520603656768798828 2.8922421932220459 -0.925517439842224121
1.0990520715713501 1.96672475337982178 -1.33043134212493896
-0.173534482717514038 1.85103499889373779 -1.04120719432830811
3.12362170219421387 2.08241438865661621 -0.983362317085266113
0.347069114446640015 3.87560462951660156 -1.21474170684814453
2.37163853645324707 2.25594902038574219 -0.751982927322387695
0.347069114446640015 2.54517316818237305 -1.15689682960510254
-1.09905195236206055 1.67750048637390137 -1.38827621936798096
0.347069114446640015 1.96672475337982178 -0.694138109683990479
-0.231379330158233643 1.96672475337982178 -0.809827744960784912
0.578448474407196045 3.00793194770812988 -1.09905195236206055
2.60301804542541504 4.04913902282714844 -1.27258646488189697
0.0578448846936225891 1.79319024085998535 -1.15689682960510254
3.47069072723388672 3.75991487503051758 -1.44612109661102295
-1.67750048637390137 2.1981041431427002 -0.751982927322387695
0.28922426700592041 1.73534536361694336 -1.15689682960510254
0.115689724683761597 1.90887987613677979 -0.694138109683990479
1.73534536361694336 5.55310487747192383 -1.09905195236206055
-1.09905195236206055 1.90887987613677979 -1.04120719432830811
-1.56181073188781738 2.08241438865661621 -0.925517439842224121
2.1402592658996582 2.25594902038574219 -1.15689682960510254
1.21474170684814453 4.62758731842041016 -0.925517439842224121
-0.231379330158233643 3.47069072723388672 -0.809827744960784912
1.50396597385406494 4.22267341613769531 -0.925517439842224121
2.1402592658996582 3.75991487503051758 -1.33043134212493896
0.115689724683761597 2.95008707046508789 -0.694138109683990479
2.37163853645324707 5.032501220703125 -1.21474170684814453
0.636293292045593262 3.5863802433013916 -0.867672622203826904
-0.173534482717514038 1.73534536361694336 -0.867672622203826904
-1.56181073188781738 1.79319024085998535 -1.21474170684814453
-0.462758719921112061 1.04120719432830811 -1.21474170684814453
3.41284584999084473 5.14819097518920898 -0.694138109683990479
-0.520603537559509277 1.50396597385406494 -0.809827744960784912
4.09781932830810547e-08 2.83439731597900391 -0.809827744960784912
0.809827864170074463 1.27258658409118652 -1.15689682960510254
-0.867672622203826904 0.694138169288635254 -1.33043134212493896
0.173534572124481201 2.71870779991149902 -0.809827744960784912
-0.115689650177955627 2.42948341369628906 -0.809827744960784912
1.73534536361694336 1.50396597385406494 -1.38827621936798096
-1.27258646488189697 2.1981041431427002 -1.09905195236206055
0.694138169288635254 4.45405292510986328 -0.751982927322387695
0.694138169288635254 3.99129414558410645 -0.694138109683990479
-0.925517439842224121 2.37163853645324707 -0.751982927322387695
1.44612109661102295 4.80112218856811523 -0.809827744960784912
2.42948341369628906 2.95008707046508789 -1.27258646488189697
-1.04120719432830811 2.37163853645324707 -1.09905195236206055
2.95008707046508789 4.45405292510986328 -0.983362317085266113
1.33043146133422852 6.01586389541625977 -0.983362317085266113
-0.0578448027372360229 5.09034633636474609 -1.09905195236206055
0.983362376689910889 5.37957048416137695 -1.15689682960510254
2.31379389762878418 1.85103499889373779 -1.21474170684814453
3.35500097274780273 5.09034633636474609 -0.751982927322387695
0.520603656768798828 2.1402592658996582 -0.751982927322387695
-0.173534482717514038 2.25594902038574219 -1.33043134212493896
2.08241438865661621 3.29715609550476074 -1.27258646488189697
1.27258658409118652 3.23931121826171875 -1.33043134212493896
-0.0578448027372360229 0.925517559051513672 -1.04120719432830811
2.42948341369628906 5.09034633636474609 -1.27258646488189697
1.61965560913085938 5.49526023864746094 -0.983362317085266113
1.0990520715713501 4.22267341613769531 -1.15689682960510254
0.983362376689910889 2.71870779991149902 -0.867672622203826904
0.0578448846936225891 2.60301804542541504 -0.751982927322387695
-0.751982927322387695 1.79319024085998535 -0.925517439842224121
1.73534536361694336 2.66086292266845703 -1.21474170684814453
0.115689724683761597 1.04120719432830811 -1.04120719432830811
0.694138169288635254 2.1402592658996582 -1.15689682960510254
1.0990520715713501 6.01586389541625977 -0.925517439842224121
1.04120719432830811 1.27258658409118652 -1.33043134212493896
-0.404913872480392456 1.38827633857727051 -0.925517439842224121
-0.520603537559509277 1.21474170684814453 -0.925517439842224121
-0.231379330158233643 1.38827633857727051 -1.09905195236206055
