ply
format ascii 1.0
element vertex 256
comment vertices
property float x
property float y
property float z
end_header
0.694138169288635254 2.42948341369628906 -1.21474170684814453
2.60301804542541504 3.75991487503051758 -1.21474170684814453
0.173534572124481201 1.50396597385406494 -0.809827744960784912
2.71870779991149902 4.39620828628540039 -0.925517439842224121
-2.54517316818237305 0.636293292045593262 -1.27258646488189697
0.694138169288635254 6.30508804321289062 -1.04120719432830811
2.77655243873596191 2.83439731597900391 -1.33043134212493896
1.21474170684814453 2.71870779991149902 -1.27258646488189697
0.347069114446640015 3.12362170219421387 -0.925517439842224121
-1.85103499889373779 1.50396597385406494 -1.27258646488189697
1.04120719432830811 2.60301804542541504 -0.751982927322387695
1.50396597385406494 4.22267341613769531 -0.809827744960784912
3.35500097274780273 5.14819097518920898 -0.636293232440948486
-0.289224177598953247 2.02456951141357422 -0.867672622203826904
1.56181085109710693 1.38827633857727051 -1.44612109661102295
-0.0578448027372360229 3.5863802433013916 -1.15689682960510254
2.08241438865661621 5.26388072967529297 -1.15689682960510254
-0.983362317085266113 1.44612109661102295 -1.04120719432830811
0.809827864170074463 3.93344950675964355 -0.809827744960784912
2.60301804542541504 4.04913902282714844 -1.21474170684814453
-0.925517439842224121 1.44612109661102295 -1.09905195236206055
0.462758779525756836 3.41284584999084473 -1.15689682960510254
-0.925517439842224121 2.42948341369628906 -1.15689682960510254
4.04913902282714844 4.91681194305419922 -0.867672622203826904
2.54517316818237305 1.38827633857727051 -0.867672622203826904
-0.636293232440948486 0.925517559051513672 -1.21474170684814453
1.50396597385406494 5.49526023864746094 -0.983362317085266113
-0.462758719921112061 1.21474170684814453 -0.809827744960784912
2.1402592658996582 2.77655243873596191 -1.21474170684814453
0.983362376689910889 3.41284584999084473 -0.867672622203826904
-1.09905195236206055 1.73534536361694336 -0.925517439842224121
0.520603656768798828 2.08241438865661621 -0.751982927322387695
-0.173534482717514038 2.71870779991149902 -0.867672622203826904
0.809827864170074463 1.15689694881439209 -1.27258646488189697
3.75991487503051758 5.20603609085083008 -1.09905195236206055
0.694138169288635254 3.99129414558410645 -0.751982927322387695
-0.0578448027372360229 3.00793194770812988 -1.09905195236206055
0.751982986927032471 2.37163853645324707 -1.04120719432830811
-0.347069025039672852 2.08241438865661621 -1.21474170684814453
2.42948341369628906 4.80112218856811523 -1.33043134212493896
-0.751982927322387695 2.37163853645324707 -0.867672622203826904
0.520603656768798828 2.77655243873596191 -0.809827744960784912
2.83439731597900391 4.85896682739257812 -0.751982927322387695
-2.1402592658996582 1.96672475337982178 -1.09905195236206055
3.52853560447692871 4.16482877731323242 -1.15689682960510254
1.96672475337982178 1.90887987613677979 -1.50396585464477539
1.04120719432830811 3.41284584999084473 -0.925517439842224121
-0.57844841480255127 2.42948341369628906 -1.21474170684814453
1.85103499889373779 4.10698413848876953 -1.15689682960510254
0.115689724683761597 1.79319024085998535 -0.925517439842224121
1.73534536361694336 4.68543243408203125 -0.694138109683990479
3.29715609550476074 4.68543243408203125 -0.809827744960784912
2.60301804542541504 4.22267341613769531 -1.27258646488189697
0.925517559051513672 6.18939828872680664 -0.751982927322387695
-0.751982927322387695 0.751982986927032471 -1.33043134212493896
0.231379419565200806 3.87560462951660156 -0.809827744960784912
0.115689724683761597 2.37163853645324707 -0.867672622203826904
-0.173534482717514038 2.02456951141357422 -1.21474170684814453
1.15689694881439209 4.74327707290649414 -0.694138109683990479
-0.751982927322387695 1.56181085109710693 -1.09905195236206055
-1.38827621936798096 2.02456951141357422 -1.09905195236206055
1.73534536361694336 4.45405292510986328 -1.04120719432830811
2.1981041431427002 2.31379389762878418 -1.27258646488189697
3.99129414558410645 3.64422512054443359 -1.04120719432830811
0.231379419565200806 3.75991487503051758 -0.809827744960784912
0.751982986927032471 4.28051853179931641 -0.867672622203826904
2.48732829093933105 4.97465658187866211 -1.15689682960510254
2.25594902038574219 5.49526023864746094 -0.983362317085266113
1.38827633857727051 6.13155364990234375 -1.04120719432830811
-0.0578448027372360229 2.48732829093933105 -1.21474170684814453
0.86767268180847168 2.71870779991149902 -0.983362317085266113
0.636293292045593262 4.62758731842041016 -1.04120719432830811
-0.636293232440948486 1.96672475337982178 -1.04120719432830811
-0.404913872480392456 1.38827633857727051 -1.27258646488189697
-0.867672622203826904 1.15689694881439209 -1.04120719432830811
3.35500097274780273 5.14819097518920898 -0.751982927322387695
1.85103499889373779 3.06577682495117188 -1.27258646488189697
0.809827864170074463 2.42948341369628906 -0.867672622203826904
-0.462758719921112061 1.27258658409118652 -1.15689682960510254
1.38827633857727051 3.87560462951660156 -1.21474170684814453
3.35500097274780273 3.41284584999084473 -0.983362317085266113
-0.520603537559509277 4.80112218856811523 -0.925517439842224121
1.79319024085998535 5.43741512298583984 -0.867672622203826904
1.56181085109710693 1.85103499889373779 -1.44612109661102295
-0.925517439842224121 1.85103499889373779 -1.21474170684814453
0.925517559051513672 2.8922421932220459 -0.867672622203826904
-1.21474170684814453 1.96672475337982178 -1.21474170684814453
-0.57844841480255127 1.61965560913085938 -0.809827744960784912
-0.57844841480255127 2.54517316818237305 -0.809827744960784912
0.173534572124481201 2.8922421932220459 -0.809827744960784912
1.73534536361694336 2.77655243873596191 -1.21474170684814453
4.09781932830810547e-08 3.18146634101867676 -0.751982927322387695
-0.231379330158233643 1.67750048637390137 -0.925517439842224121
1.21474170684814453 1.38827633857727051 -1.44612109661102295
0.636293292045593262 3.64422512054443359 -0.867672622203826904
-0.404913872480392456 2.48732829093933105 -0.925517439842224121
-0.0578448027372360229 2.02456951141357422 -0.983362317085266113
2.02456951141357422 2.66086292266845703 -1.27258646488189697
2.31379389762878418 5.09034633636474609 -0.751982927322387695
0.86767268180847168 3.41284584999084473 -1.21474170684814453
2.1981041431427002 2.37163853645324707 -0.983362317085266113
0.0578448846936225891 1.96672475337982178 -0.809827744960784912
3.35500097274780273 2.8922421932220459 -1.21474170684814453
0.983362376689910889 6.13155364990234375 -0.867672622203826904
0.520603656768798828 2.37163853645324707 -0.751982927322387695
-0.462758719921112061 1.73534536361694336 -0.983362317085266113
3.18146634101867676 4.51189804077148438 -1.15689682960510254
1.27258658409118652 1.67750048637390137 -1.27258646488189697
-1.33043134212493896 2.08241438865661621 -1.15689682960510254
0.694138169288635254 0.751982986927032471 -1.21474170684814453
0.462758779525756836 3.81775975227355957 -0.867672622203826904
2.1402592658996582 5.26388072967529297 -0.867672622203826904
-0.751982927322387695 2.31379389762878418 -1.04120719432830811
-0.347069025039672852 2.8922421932220459 -0.809827744960784912
-1.09905195236206055 2.08241438865661621 -0.867672622203826904
0.115689724683761597 2.54517316818237305 -1.15689682960510254
1.50396597385406494 4.39620828628540039 -1.15689682960510254
-0.173534482717514038 1.56181085109710693 -1.04120719432830811
-1.09905195236206055 2.1981041431427002 -0.983362317085266113
1.44612109661102295 3.5863802433013916 -1.15689682960510254
0.694138169288635254 2.60301804542541504 -0.751982927322387695
3.18146634101867676 4.16482877731323242 -1.15689682960510254
0.231379419565200806 3.29715609550476074 -1.04120719432830811
1.21474170684814453 4.28051853179931641 -0.867672622203826904
1.73534536361694336 4.22267341613769531 -0.925517439842224121
-0.173534482717514038 2.37163853645324707 -1.27258646488189697
0.462758779525756836 3.18146634101867676 -1.15689682960510254
-0.57844841480255127 2.60301804542541504 -0.809827744960784912
1.21474170684814453 3.12362170219421387 -0.809827744960784912
-0.404913872480392456 1.90887987613677979 -0.983362317085266113
0.173534572124481201 3.06577682495117188 -0.925517439842224121
1.44612109661102295 3.70206999778747559 -1.15689682960510254
0.347069114446640015 3.93344950675964355 -0.694138109683990479
1.21474170684814453 6.13155364990234375 -0.636293232440948486
4.09781932830810547e-08 1.85103499889373779 -1.15689682960510254
0.520603656768798828 6.24724292755126953 -0.867672622203826904
2.02456951141357422 2.71870779991149902 -1.15689682960510254
0.751982986927032471 4.16482877731323242 -0.867672622203826904
3.00793194770812988 3.35500097274780273 -1.27258646488189697
2.1402592658996582 2.1402592658996582 -1.38827621936798096
2.48732829093933105 5.032501220703125 -0.925517439842224121
-0.925517439842224121 1.15689694881439209 -1.09905195236206055
0.751982986927032471 3.64422512054443359 -1.27258646488189697
3.52853560447692871 3.81775975227355957 -1.15689682960510254
-0.347069025039672852 1.96672475337982178 -1.21474170684814453
-1.27258646488189697 1.85103499889373779 -0.925517439842224121
0.28922426700592041 2.60301804542541504 -0.751982927322387695
2.1981041431427002 5.032501220703125 -1.27258646488189697
-0.694138109683990479 1.15689694881439209 -1.27258646488189697
-0.636293232440948486 1.96672475337982178 -1.09905195236206055
0.404913961887359619 3.5863802433013916 -0.867672622203826904
-0.0578448027372360229 2.1981041431427002 -0.809827744960784912
2.02456951141357422 2.42948341369628906 -1.27258646488189697
-0.347069025039672852 1.67750048637390137 -1.09905195236206055
2.71870779991149902 4.91681194305419922 -1.21474170684814453
4.09781932830810547e-08 2.25594902038574219 -0.983362317085266113
0.578448474407196045 3.52853560447692871 -1.04120719432830811
2.02456951141357422 2.08241438865661621 -1.38827621936798096
1.50396597385406494 5.09034633636474609 -0.983362317085266113
-0.520603537559509277 1.44612109661102295 -0.925517439842224121
1.85103499889373779 1.73534536361694336 -1.44612109661102295
3.35500097274780273 5.14819097518920898 -0.694138109683990479
-1.73534524440765381 2.02456951141357422 -0.809827744960784912
1.96672475337982178 5.14819097518920898 -0.809827744960784912
0.636293292045593262 1.79319024085998535 -1.15689682960510254
0.751982986927032471 2.83439731597900391 -0.751982927322387695
1.67750048637390137 5.55310487747192383 -1.04120719432830811
1.56181085109710693 4.39620828628540039 -0.751982927322387695
-1.15689682960510254 1.85103499889373779 -1.04120719432830811
0.347069114446640015 1.96672475337982178 -0.867672622203826904
1.67750048637390137 3.00793194770812988 -0.983362317085266113
1.04120719432830811 2.77655243873596191 -0.867672622203826904
0.115689724683761597 2.54517316818237305 -0.809827744960784912
-1.09905195236206055 2.1981041431427002 -1.15689682960510254
0.28922426700592041 2.1402592658996582 -0.809827744960784912
2.1981041431427002 3.70206999778747559 -1.27258646488189697
0.173534572124481201 2.08241438865661621 -1.21474170684814453
-1.7931901216506958 0.578448474407196045 -1.15689682960510254
-0.520603537559509277 2.48732829093933105 -0.983362317085266113
0.0578448846936225891 5.43741512298583984 -1.04120719432830811
-1.38827621936798096 1.67750048637390137 -1.33043134212493896
3.29715609550476074 4.3383631706237793 -0.694138109683990479
0.520603656768798828 4.3383631706237793 -0.751982927322387695
2.48732829093933105 2.66086292266845703 -0.983362317085266113
1.04120719432830811 6.24724292755126953 -0.983362317085266113
0.0578448846936225891 2.95008707046508789 -0.809827744960784912
-0.404913872480392456 4.74327707290649414 -1.09905195236206055
-1.21474170684814453 2.25594902038574219 -1.09905195236206055
-0.115689650177955627 1.96672475337982178 -0.983362317085266113
1.15689694881439209 6.07370853424072266 -0.867672622203826904
0.404913961887359619 3.23931121826171875 -0.809827744960784912
2.08241438865661621 3.12362170219421387 -1.27258646488189697
0.173534572124481201 3.12362170219421387 -0.867672622203826904
-0.751982927322387695 1.44612109661102295 -1.15689682960510254
1.73534536361694336 3.12362170219421387 -1.04120719432830811
2.1981041431427002 5.09034633636474609 -0.983362317085266113
2.25594902038574219 5.14819097518920898 -0.867672622203826904
0.231379419565200806 2.1981041431427002 -1.21474170684814453
1.04120719432830811 1.27258658409118652 -1.38827621936798096
1.90887987613677979 2.60301804542541504 -1.27258646488189697
3.5863802433013916 4.74327707290649414 -1.21474170684814453
1.04120719432830811 4.62758731842041016 -0.867672622203826904
-0.289224177598953247 1.21474170684814453 -1.15689682960510254
1.50396597385406494 1.56181085109710693 -1.50396585464477539
-0.809827744960784912 2.48732829093933105 -0.809827744960784912
-0.289224177598953247 0.462758779525756836 -1.15689682960510254
-0.520603537559509277 1.50396597385406494 -0.983362317085266113
1.38827633857727051 1.67750048637390137 -1.44612109661102295
0.809827864170074463 2.48732829093933105 -0.809827744960784912
-0.57844841480255127 2.83439731597900391 -1.04120719432830811
-1.44612109661102295 2.1981041431427002 -0.983362317085266113
0.231379419565200806 2.71870779991149902 -0.867672622203826904
1.44612109661102295 4.45405292510986328 -0.694138109683990479
3.35500097274780273 3.35500097274780273 -1.15689682960510254
1.90887987613677979 4.28051853179931641 -1.21474170684814453
-0.462758719921112061 1.33043146133422852 -0.925517439842224121
3.29715609550476074 4.91681194305419922 -0.867672622203826904
-0.694138109683990479 2.42948341369628906 -0.925517439842224121
2.42948341369628906 4.28051853179931641 -1.04120719432830811
-0.520603537559509277 1.33043146133422852 -0.809827744960784912
1.67750048637390137 5.49526023864746094 -0.809827744960784912
0.751982986927032471 4.3383631706237793 -0.809827744960784912
0.462758779525756836 3.52853560447692871 -0.925517439842224121
1.15689694881439209 5.43741512298583984 -1.04120719432830811
1.15689694881439209 1.38827633857727051 -1.21474170684814453
-1.33043134212493896 0.983362376689910889 -1.38827621936798096
2.25594902038574219 2.25594902038574219 -1.27258646488189697
-0.404913872480392456 2.77655243873596191 -0.809827744960784912
-0.0578448027372360229 2.1402592658996582 -1.27258646488189697
-0.983362317085266113 1.79319024085998535 -1.33043134212493896
0.751982986927032471 3.81775975227355957 -0.925517439842224121
-0.289224177598953247 2.1981041431427002 -0.983362317085266113
2.08241438865661621 3.06577682495117188 -1.21474170684814453
0.231379419565200806 2.37163853645324707 -0.751982927322387695
1.90887987613677979 3.5863802433013916 -1.27258646488189697
2.54517316818237305 2.77655243873596191 -1.21474170684814453
4.3383631706237793 3.99129414558410645 -1.09905195236206055
0.751982986927032471 2.1981041431427002 -0.925517439842224121
0.347069114446640015 4.16482877731323242 -0.751982927322387695
4.09781932830810547e-08 3.29715609550476074 -0.867672622203826904
2.54517316818237305 4.97465658187866211 -1.27258646488189697
0.636293292045593262 3.81775975227355957 -0.809827744960784912
0.86767268180847168 2.71870779991149902 -0.809827744960784912
0.347069114446640015 3.29715609550476074 -0.809827744960784912
-0.404913872480392456 1.21474170684814453 -0.925517439842224121
0.115689724683761597 1.50396597385406494 -1.04120719432830811
-0.57844841480255127 1.38827633857727051 -1.15689682960510254
-0.867672622203826904 1.67750048637390137 -1.33043134212493896
-1.50396585464477539 1.79319024085998535 -1.21474170684814453
0.86767268180847168 3.93344950675964355 -0.867672622203826904
0.520603656768798828 2.54517316818237305 -0.751982927322387695
-0.520603537559509277 1.38827633857727051 -1.04120719432830811
2.83439731597900391 2.83439731597900391 -1.33043134212493896
0.694138169288635254 2.66086292266845703 -1.21474170684814453
1.61965560913085938 5.55310487747192383 -0.867672622203826904
0.173534572124481201 2.71870779991149902 -1.15689682960510254
